<?xml version="1.0" encoding="UTF-8" standalone="no"?>
<svg
   xmlns:dc="http://purl.org/dc/elements/1.1/"
   xmlns:cc="http://creativecommons.org/ns#"
   xmlns:rdf="http://www.w3.org/1999/02/22-rdf-syntax-ns#"
   xmlns:svg="http://www.w3.org/2000/svg"
   xmlns="http://www.w3.org/2000/svg"
   xmlns:sodipodi="http://sodipodi.sourceforge.net/DTD/sodipodi-0.dtd"
   xmlns:inkscape="http://www.inkscape.org/namespaces/inkscape"
   width="64"
   height="64"
   version="1"
   id="svg14"
   sodipodi:docname="audio-subwoofer.svg"
   inkscape:version="0.92.4 (5da689c313, 2019-01-14)">
  <metadata
     id="metadata20">
    <rdf:RDF>
      <cc:Work
         rdf:about="">
        <dc:format>image/svg+xml</dc:format>
        <dc:type
           rdf:resource="http://purl.org/dc/dcmitype/StillImage" />
        <dc:title></dc:title>
      </cc:Work>
    </rdf:RDF>
  </metadata>
  <defs
     id="defs18" />
  <sodipodi:namedview
     pagecolor="#ffffff"
     bordercolor="#666666"
     borderopacity="1"
     objecttolerance="10"
     gridtolerance="10"
     guidetolerance="10"
     inkscape:pageopacity="0"
     inkscape:pageshadow="2"
     inkscape:window-width="1280"
     inkscape:window-height="954"
     id="namedview16"
     showgrid="false"
     inkscape:zoom="6.9532167"
     inkscape:cx="28.691258"
     inkscape:cy="25.794637"
     inkscape:window-x="0"
     inkscape:window-y="0"
     inkscape:window-maximized="1"
     inkscape:current-layer="svg14" />
  <rect
     style="fill:#62a1d3;stroke-width:1.35428417;fill-opacity:1"
     width="43.337093"
     height="54.171368"
     x="-53.480911"
     y="4.6114392"
     rx="2.7085683"
     ry="2.7085683"
     transform="scale(-1,1)"
     id="rect2" />
  <circle
     style="fill:#e6e6e6;stroke-width:1.35428417;fill-opacity:0.60000002"
     cx="-27.63427"
     cy="-31.812365"
     r="14.897126"
     transform="matrix(0,-1,-1,0,0,0)"
     id="circle4" />
  <circle
     style="fill:#315069;stroke-width:1.35428417;fill-opacity:1"
     cx="-27.63427"
     cy="-31.812365"
     r="6.771421"
     transform="matrix(0,-1,-1,0,0,0)"
     id="circle6" />
  <path
     style="opacity:0.2;stroke-width:1.35428417"
     d="m 10.143818,56.074237 v 1.354285 c 0,1.500547 1.208021,2.708568 2.708568,2.708568 h 37.919957 c 1.500547,0 2.708569,-1.208021 2.708569,-2.708568 v -1.354285 c 0,1.500547 -1.208022,2.708569 -2.708569,2.708569 H 12.852386 c -1.500547,0 -2.708568,-1.208022 -2.708568,-2.708569 z"
     id="path8"
     inkscape:connector-curvature="0" />
  <path
     style="opacity:0.2;fill:#ffffff;stroke-width:1.35428417"
     d="m 12.852386,4.6114388 c -1.500547,0 -2.708568,1.2080215 -2.708568,2.7085684 v 1.3542842 c 0,-1.5005469 1.208021,-2.7085684 2.708568,-2.7085684 h 37.919957 c 1.500547,0 2.708569,1.2080215 2.708569,2.7085684 V 7.3200072 c 0,-1.5005469 -1.208022,-2.7085684 -2.708569,-2.7085684 z"
     id="path10"
     inkscape:connector-curvature="0" />
  <rect
     style="fill:#315069;stroke-width:1.35428417;fill-opacity:1"
     width="35.211388"
     height="5.4171367"
     x="14.206671"
     y="47.948532"
     rx="2.7085683"
     ry="2.7085683"
     id="rect12" />
</svg>
