<?xml version="1.0" encoding="UTF-8" standalone="no"?>
<svg
   xmlns:dc="http://purl.org/dc/elements/1.1/"
   xmlns:cc="http://creativecommons.org/ns#"
   xmlns:rdf="http://www.w3.org/1999/02/22-rdf-syntax-ns#"
   xmlns:svg="http://www.w3.org/2000/svg"
   xmlns="http://www.w3.org/2000/svg"
   xmlns:sodipodi="http://sodipodi.sourceforge.net/DTD/sodipodi-0.dtd"
   xmlns:inkscape="http://www.inkscape.org/namespaces/inkscape"
   width="64"
   height="64"
   version="1"
   id="svg12"
   sodipodi:docname="audio-input-microphone.svg"
   inkscape:version="0.92.4 (5da689c313, 2019-01-14)">
  <metadata
     id="metadata18">
    <rdf:RDF>
      <cc:Work
         rdf:about="">
        <dc:format>image/svg+xml</dc:format>
        <dc:type
           rdf:resource="http://purl.org/dc/dcmitype/StillImage" />
      </cc:Work>
    </rdf:RDF>
  </metadata>
  <defs
     id="defs16" />
  <sodipodi:namedview
     pagecolor="#ffffff"
     bordercolor="#666666"
     borderopacity="1"
     objecttolerance="10"
     gridtolerance="10"
     guidetolerance="10"
     inkscape:pageopacity="0"
     inkscape:pageshadow="2"
     inkscape:window-width="1280"
     inkscape:window-height="954"
     id="namedview14"
     showgrid="false"
     inkscape:zoom="3.6875"
     inkscape:cx="-16.174581"
     inkscape:cy="38.202009"
     inkscape:window-x="0"
     inkscape:window-y="0"
     inkscape:window-maximized="1"
     inkscape:current-layer="svg12" />
  <rect
     style="opacity:1;fill:#315069;fill-opacity:1;stroke:none;stroke-width:0.80316234;stroke-linecap:round;stroke-linejoin:round;stroke-opacity:1"
     id="rect825"
     width="22.460535"
     height="15.602373"
     x="20.777954"
     y="15.822168"
     rx="0.3240194"
     ry="0.2096743" />
  <path
     inkscape:connector-curvature="0"
     d="m 33.840171,51.304759 v 6.123023 c 6.120978,0.32937 10.852869,2.354693 10.852869,4.244995 0,0.04705 -25.097642,0.04705 -25.097642,0 0,-1.8187 4.382064,-3.782649 10.17367,-4.218401 V 51.280209 C 22.375614,50.220494 16.671977,43.921534 16.671977,36.235534 v -3.181188 h 2.035552 v 3.181188 c 0,7.303439 5.92049,13.225975 13.223929,13.228022 h 0.0082 c 7.303438,-0.0021 13.223928,-5.924583 13.223928,-13.228022 v -3.181188 h 2.164437 v 3.181188 c -0.0021,7.776015 -5.967543,14.122027 -13.487836,15.069225 z m -1.841203,-4.052692 c -6.208945,0 -11.239521,-5.030577 -11.239521,-11.239523 v -5.067398 h 9.195786 V 28.90141 h -9.195786 v -2.043735 h 9.195786 V 24.815986 H 20.759447 V 22.77225 h 9.195786 V 20.728515 H 20.759447 V 18.68478 h 9.195786 v -2.043736 h -9.195786 v -3.236425 c 0,-6.2069008 5.030576,-11.1126837 11.239521,-11.1126837 6.206901,0 11.239522,4.9037375 11.239522,11.1126837 v 3.236425 h -9.197831 v 2.043736 h 9.197831 v 2.043735 h -9.197831 v 2.043735 h 9.197831 v 2.043736 h -9.197831 v 2.041689 h 9.197831 v 2.043735 h -9.197831 v 2.043736 h 9.197831 v 5.067398 c 0,6.208946 -5.032621,11.239523 -11.239522,11.239523 z"
     id="path4"
     style="fill:#62a1d2;fill-opacity:1;stroke-width:2.04578114" />
</svg>
