<?xml version="1.0" encoding="UTF-8" standalone="no"?>
<svg
   xmlns:dc="http://purl.org/dc/elements/1.1/"
   xmlns:cc="http://creativecommons.org/ns#"
   xmlns:rdf="http://www.w3.org/1999/02/22-rdf-syntax-ns#"
   xmlns:svg="http://www.w3.org/2000/svg"
   xmlns="http://www.w3.org/2000/svg"
   xmlns:sodipodi="http://sodipodi.sourceforge.net/DTD/sodipodi-0.dtd"
   xmlns:inkscape="http://www.inkscape.org/namespaces/inkscape"
   width="64"
   height="64"
   version="1"
   id="svg34"
   sodipodi:docname="drive-multidisk.svg"
   inkscape:version="0.92.4 (5da689c313, 2019-01-14)">
  <metadata
     id="metadata40">
    <rdf:RDF>
      <cc:Work
         rdf:about="">
        <dc:format>image/svg+xml</dc:format>
        <dc:type
           rdf:resource="http://purl.org/dc/dcmitype/StillImage" />
      </cc:Work>
    </rdf:RDF>
  </metadata>
  <defs
     id="defs38" />
  <sodipodi:namedview
     pagecolor="#ffffff"
     bordercolor="#666666"
     borderopacity="1"
     objecttolerance="10"
     gridtolerance="10"
     guidetolerance="10"
     inkscape:pageopacity="0"
     inkscape:pageshadow="2"
     inkscape:window-width="1280"
     inkscape:window-height="954"
     id="namedview36"
     showgrid="false"
     inkscape:zoom="3.6875"
     inkscape:cx="-30.508475"
     inkscape:cy="32"
     inkscape:window-x="0"
     inkscape:window-y="0"
     inkscape:window-maximized="1"
     inkscape:current-layer="svg34" />
  <ellipse
     style="opacity:1;fill:#266293;fill-opacity:1;stroke:none;stroke-width:1.3384341;stroke-linecap:round;stroke-linejoin:round;stroke-opacity:1"
     id="path822"
     cx="32"
     cy="29.016947"
     rx="22.712469"
     ry="12.678572" />
  <rect
     id="rect2"
     y="28"
     x="48"
     height="4"
     width="6"
     style="fill:#4f4f4f" />
  <rect
     id="rect4"
     y="28"
     x="10"
     height="4"
     width="6"
     style="fill:#4f4f4f" />
  <rect
     id="rect6"
     transform="matrix(0,-1,-1,0,0,0)"
     ry="4"
     rx="4"
     y="-60"
     x="-29"
     height="56"
     width="20"
     style="opacity:0.2" />
  <rect
     id="rect8"
     transform="matrix(0,-1,-1,0,0,0)"
     ry="4"
     rx="4"
     y="-60"
     x="-28"
     height="56"
     width="20"
     style="fill:#62a1d3;fill-opacity:1" />
  <circle
     id="circle10"
     r="3"
     cy="19"
     cx="49"
     style="opacity:0.2" />
  <circle
     id="circle12"
     r="3"
     cy="18"
     cx="49"
     style="fill:#315069;fill-opacity:1" />
  <path
     inkscape:connector-curvature="0"
     id="path14"
     d="M 8,8 C 5.784,8 4,9.784 4,12 v 1 C 4,10.784 5.784,9 8,9 h 48 c 2.216,0 4,1.784 4,4 V 12 C 60,9.784 58.216,8 56,8 Z"
     style="opacity:0.2;fill:#ffffff" />
  <rect
     id="rect18"
     y="52"
     x="48"
     height="4"
     width="6"
     style="fill:#315069;fill-opacity:1" />
  <rect
     id="rect20"
     y="52"
     x="10"
     height="4"
     width="6"
     style="fill:#315069;fill-opacity:1" />
  <rect
     id="rect22"
     transform="matrix(0,-1,-1,0,0,0)"
     ry="4"
     rx="4"
     y="-60"
     x="-53"
     height="56"
     width="20"
     style="opacity:0.2" />
  <rect
     id="rect24"
     transform="matrix(0,-1,-1,0,0,0)"
     ry="4"
     rx="4"
     y="-60"
     x="-52"
     height="56"
     width="20"
     style="fill:#62a1d3;fill-opacity:1" />
  <circle
     id="circle26"
     r="3"
     cy="43"
     cx="49"
     style="opacity:0.2" />
  <circle
     id="circle28"
     r="3"
     cy="42"
     cx="49"
     style="fill:#315069;fill-opacity:1" />
  <path
     inkscape:connector-curvature="0"
     id="path30"
     d="m 8,32 c -2.216,0 -4,1.784 -4,4 v 1 c 0,-2.216 1.784,-4 4,-4 h 48 c 2.216,0 4,1.784 4,4 v -1 c 0,-2.216 -1.784,-4 -4,-4 z"
     style="opacity:0.2;fill:#ffffff" />
  <rect
     style="opacity:1;fill:#315069;fill-opacity:1;stroke:none;stroke-linecap:round;stroke-linejoin:round;stroke-opacity:1"
     id="rect873"
     width="44"
     height="4"
     x="10"
     y="28"
     rx="0.32471099"
     ry="0.32434899" />
</svg>
