<?xml version="1.0" encoding="UTF-8" standalone="no"?>
<!-- Created with Inkscape (http://www.inkscape.org/) -->

<svg
   xmlns:dc="http://purl.org/dc/elements/1.1/"
   xmlns:cc="http://creativecommons.org/ns#"
   xmlns:rdf="http://www.w3.org/1999/02/22-rdf-syntax-ns#"
   xmlns:svg="http://www.w3.org/2000/svg"
   xmlns="http://www.w3.org/2000/svg"
   xmlns:sodipodi="http://sodipodi.sourceforge.net/DTD/sodipodi-0.dtd"
   xmlns:inkscape="http://www.inkscape.org/namespaces/inkscape"
   id="svg2"
   version="1.1"
   inkscape:version="0.92.4 (5da689c313, 2019-01-14)"
   width="64"
   height="64"
   sodipodi:docname="drive-harddisk-ieee1394.svg">
  <metadata
     id="metadata8">
    <rdf:RDF>
      <cc:Work
         rdf:about="">
        <dc:format>image/svg+xml</dc:format>
        <dc:type
           rdf:resource="http://purl.org/dc/dcmitype/StillImage" />
        <dc:title></dc:title>
      </cc:Work>
    </rdf:RDF>
  </metadata>
  <defs
     id="defs6" />
  <sodipodi:namedview
     pagecolor="#ffffff"
     bordercolor="#666666"
     borderopacity="1"
     objecttolerance="10"
     gridtolerance="10"
     guidetolerance="10"
     inkscape:pageopacity="0"
     inkscape:pageshadow="2"
     inkscape:window-width="1280"
     inkscape:window-height="954"
     id="namedview4"
     showgrid="false"
     inkscape:zoom="10.913295"
     inkscape:cx="46.090772"
     inkscape:cy="29.159569"
     inkscape:window-x="0"
     inkscape:window-y="0"
     inkscape:window-maximized="1"
     inkscape:current-layer="svg2" />
  <g
     id="g3876"
     transform="translate(-0.25423733,0.43750205)">
    <path
       sodipodi:nodetypes="ccccc"
       inkscape:connector-curvature="0"
       id="path891"
       d="M 3.6932098,38.207978 C 1.8422956,49.801186 9.9872894,53.048037 13.122991,52.848076 L 55.62478,52.656318 c 1.149815,-0.67344 6.705452,-3.548118 5.205929,-14.594859 z"
       style="fill:#315069;fill-opacity:1;stroke:none;stroke-width:1.00832117px;stroke-linecap:butt;stroke-linejoin:miter;stroke-opacity:1" />
    <path
       style="fill:#62a1d3;fill-opacity:1;stroke-width:1.86725521"
       inkscape:connector-curvature="0"
       id="path4"
       d="m 14.309194,54.850635 h 35.932203 c 5.953967,0 10.779663,-5.212661 10.779663,-11.644068 H 3.5295343 c 0,6.431407 4.8256949,11.644068 10.7796597,11.644068 z m 35.932203,-7.762712 h 3.593221 v 3.881356 H 50.241397 Z M 57.427838,8.2743609 H 7.1227545 L 3.5295343,39.325211 H 61.021059 Z" />
    <path
       inkscape:connector-curvature="0"
       id="path3024"
       d="m 29.842141,36.12846 v -1.393676 h 3.740925 3.740924 v 1.393676 1.393677 h -3.740924 -3.740925 z m 0,-4.144356 v -1.357001 h 3.740925 3.740924 v 1.357001 1.357002 h -3.740924 -3.740925 z m 2.206208,-2.974677 c -1.873057,-0.490458 -3.296655,-1.893966 -3.831028,-3.776959 -0.237037,-0.835267 -0.237037,-2.312233 0,-3.1475 0.538983,-1.899244 1.972463,-3.305037 3.855439,-3.780959 0.739038,-0.186794 2.187409,-0.202134 2.899295,-0.03071 1.595973,0.384323 3.054911,1.618567 3.684503,3.117057 0.553414,1.317161 0.570135,3.140028 0.04075,4.442857 -0.641055,1.577645 -2.052866,2.793267 -3.72525,3.207579 -0.695903,0.172402 -2.207444,0.156186 -2.923706,-0.03137 z m 2.228993,-2.088984 c 1.282601,-0.334075 2.261432,-1.370212 2.576062,-2.726869 0.145125,-0.625772 0.06282,-1.153434 -0.298602,-1.914499 -0.633742,-1.334481 -2.13635,-2.173806 -3.456279,-1.9306 -1.966844,0.362406 -3.294689,2.336044 -2.773331,4.122134 0.352667,1.208148 1.289854,2.105632 2.561037,2.452533 0.48931,0.133531 0.870929,0.132791 1.391113,-0.0027 z m -9.479304,-7.315539 c -0.496879,-0.498291 -0.824005,-0.8843 -0.824005,-0.972317 0,-0.201463 4.824577,-5.023014 5.026169,-5.023014 0.226838,0 1.795509,1.603481 1.795509,1.835349 0,0.267232 -4.722099,4.986334 -4.989504,4.986334 -0.136991,0 -0.39523,-0.21167 -1.008169,-0.826352 z m 13.754587,-1.620469 c -1.609606,-1.585176 -2.108851,-2.118864 -2.108851,-2.254326 0,-0.135586 0.627724,-0.805024 2.659358,-2.83609 2.155669,-2.155061 2.696091,-2.658611 2.853305,-2.658611 0.157552,0 0.584219,0.400119 2.273528,2.13207 1.295111,1.327803 2.087965,2.195631 2.101816,2.300568 0.03156,0.238878 -5.171286,5.351204 -5.471681,5.376509 -0.170093,0.01432 -0.501497,-0.281553 -2.307475,-2.06012 z M 21.570458,16.450686 c -0.616403,-0.618507 -0.750539,-0.792282 -0.750539,-0.972322 0,-0.190045 0.319752,-0.538859 2.402671,-2.62106 1.878841,-1.878197 2.44283,-2.401842 2.586886,-2.401842 0.261199,0 1.758775,1.500367 1.758775,1.762048 0,0.141963 -0.534698,0.717108 -2.402671,2.58444 -2.090955,2.090234 -2.431337,2.401842 -2.623626,2.401842 -0.182619,0 -0.35116,-0.130649 -0.971496,-0.753106 z"
       style="fill:#b1cade;fill-opacity:1;stroke-width:0.07335143" />
    <circle
       style="fill:#315069;fill-opacity:1"
       cx="51.93631"
       cy="48.91843"
       r="3"
       id="circle12" />
  </g>
</svg>
