<?xml version="1.0" encoding="UTF-8" standalone="no"?>
<svg
   xmlns:dc="http://purl.org/dc/elements/1.1/"
   xmlns:cc="http://creativecommons.org/ns#"
   xmlns:rdf="http://www.w3.org/1999/02/22-rdf-syntax-ns#"
   xmlns:svg="http://www.w3.org/2000/svg"
   xmlns="http://www.w3.org/2000/svg"
   xmlns:sodipodi="http://sodipodi.sourceforge.net/DTD/sodipodi-0.dtd"
   xmlns:inkscape="http://www.inkscape.org/namespaces/inkscape"
   width="64"
   height="64"
   version="1.1"
   id="svg4"
   sodipodi:docname="drive-removable.svg"
   inkscape:version="0.92.4 (5da689c313, 2019-01-14)">
  <metadata
     id="metadata10">
    <rdf:RDF>
      <cc:Work
         rdf:about="">
        <dc:format>image/svg+xml</dc:format>
        <dc:type
           rdf:resource="http://purl.org/dc/dcmitype/StillImage" />
        <dc:title />
      </cc:Work>
    </rdf:RDF>
  </metadata>
  <defs
     id="defs8" />
  <sodipodi:namedview
     pagecolor="#ffffff"
     bordercolor="#666666"
     borderopacity="1"
     objecttolerance="10"
     gridtolerance="10"
     guidetolerance="10"
     inkscape:pageopacity="0"
     inkscape:pageshadow="2"
     inkscape:window-width="1280"
     inkscape:window-height="954"
     id="namedview6"
     showgrid="false"
     inkscape:zoom="7.375"
     inkscape:cx="19.990306"
     inkscape:cy="19.178483"
     inkscape:window-x="0"
     inkscape:window-y="0"
     inkscape:window-maximized="1"
     inkscape:current-layer="svg4" />
  <path
     style="fill:#315069;fill-opacity:1;stroke:none;stroke-width:0.58888251px;stroke-linecap:butt;stroke-linejoin:miter;stroke-opacity:1"
     d="m 18.57719,34.510176 c -4.851199,1.821037 -11.606813,6.344233 -13.5689757,10.223856 -1.4415602,2.850282 5.1043507,6.072686 6.4294817,6.043736 l 42.408451,-0.06555 c 0.514583,-0.103251 5.68284,-3.383665 3.667011,-6.442061 -2.478568,-3.76046 -10.830131,-7.542198 -13.197935,-9.671015 z"
     id="path891"
     inkscape:connector-curvature="0"
     sodipodi:nodetypes="csccscc" />
  <path
     d="M 11.695908,8.0042517 A 9.2106792,9.2106792 0 0 0 2.46677,17.233389 V 46.76663 c 0,5.112941 4.1161954,9.229137 9.229138,9.229137 h 40.608204 c 5.112943,0 9.229137,-4.116196 9.229137,-9.229137 V 17.233389 c 0,-5.112941 -4.116194,-9.2291373 -9.229137,-9.2291373 z m 0,33.2248953 h 42.454031 v 5.537483 c 0,1.022589 -0.823238,1.845827 -1.845827,1.845827 H 11.695908 A 1.8421359,1.8421359 0 0 1 9.85008,46.76663 v -5.537483 z"
     id="path2"
     style="fill:#62a1d3;fill-opacity:1;stroke-width:3.69165468"
     inkscape:connector-curvature="0" />
  <path
     inkscape:connector-curvature="0"
     d="m 35.720352,18.542602 v 4.892952 h 1.200112 v 2.446468 H 33.320123 V 16.0961 h 2.400228 l -3.600338,-4.89295 -3.60034,4.89295 h 2.400226 v 9.785922 h -3.60034 v -2.532131 c 0.846079,-0.446446 1.440136,-1.321063 1.440136,-2.360841 0,-1.486223 -1.182111,-2.691091 -2.640251,-2.691091 -1.458137,0 -2.640249,1.204868 -2.640249,2.691091 0,1.039778 0.594055,1.914395 1.440136,2.360841 v 2.532131 c 0,1.3517 1.074102,2.446483 2.400227,2.446483 h 3.60034 v 3.730889 c -0.852078,0.44648 -1.440135,1.339461 -1.440135,2.38531 0,1.486226 1.182111,2.691129 2.64025,2.691129 1.458137,0 2.640246,-1.204903 2.640246,-2.691129 0,-1.045849 -0.588054,-1.93883 -1.440136,-2.38531 v -3.730889 h 3.60034 c 1.326125,0 2.400227,-1.094783 2.400227,-2.446483 v -2.446468 h 1.200114 v -4.892952 z"
     id="path2-3"
     style="fill:#e6e6e6;fill-opacity:1;stroke-width:0.60581076;opacity:0.6" />
</svg>
