<?xml version="1.0" encoding="UTF-8" standalone="no"?>
<!-- Created with Inkscape (http://www.inkscape.org/) -->

<svg
   xmlns:dc="http://purl.org/dc/elements/1.1/"
   xmlns:cc="http://creativecommons.org/ns#"
   xmlns:rdf="http://www.w3.org/1999/02/22-rdf-syntax-ns#"
   xmlns:svg="http://www.w3.org/2000/svg"
   xmlns="http://www.w3.org/2000/svg"
   xmlns:sodipodi="http://sodipodi.sourceforge.net/DTD/sodipodi-0.dtd"
   xmlns:inkscape="http://www.inkscape.org/namespaces/inkscape"
   id="svg2"
   version="1.1"
   inkscape:version="0.92.4 (5da689c313, 2019-01-14)"
   width="64"
   height="64"
   sodipodi:docname="drive-harddisk-system-solidstate.svg">
  <metadata
     id="metadata8">
    <rdf:RDF>
      <cc:Work
         rdf:about="">
        <dc:format>image/svg+xml</dc:format>
        <dc:type
           rdf:resource="http://purl.org/dc/dcmitype/StillImage" />
        <dc:title></dc:title>
      </cc:Work>
    </rdf:RDF>
  </metadata>
  <defs
     id="defs6" />
  <sodipodi:namedview
     pagecolor="#ffffff"
     bordercolor="#666666"
     borderopacity="1"
     objecttolerance="10"
     gridtolerance="10"
     guidetolerance="10"
     inkscape:pageopacity="0"
     inkscape:pageshadow="2"
     inkscape:window-width="1920"
     inkscape:window-height="1052"
     id="namedview4"
     showgrid="false"
     inkscape:zoom="13.1875"
     inkscape:cx="32"
     inkscape:cy="32"
     inkscape:window-x="1280"
     inkscape:window-y="0"
     inkscape:window-maximized="1"
     inkscape:current-layer="svg2" />
  <g
     id="g3875"
     transform="translate(-11.983051,244.52543)">
    <path
       sodipodi:nodetypes="ccccc"
       inkscape:connector-curvature="0"
       id="path891"
       d="m 15.422023,-205.87995 c -1.850914,11.59321 6.29408,14.84006 9.429782,14.6401 l 42.501789,-0.19176 c 1.149815,-0.67344 6.705452,-3.54812 5.205929,-14.59486 z"
       style="fill:#315069;fill-opacity:1;stroke:none;stroke-width:1.00832117px;stroke-linecap:butt;stroke-linejoin:miter;stroke-opacity:1" />
    <path
       style="fill:#62a1d3;fill-opacity:1;stroke-width:1.86725521"
       inkscape:connector-curvature="0"
       id="path4"
       d="m 26.038008,-189.23729 h 35.932203 c 5.953967,0 10.779663,-5.21266 10.779663,-11.64407 H 15.258348 c 0,6.43141 4.825695,11.64407 10.77966,11.64407 z m 35.932203,-7.76272 h 3.593221 v 3.88136 h -3.593221 z m 7.186441,-38.81355 H 18.851568 l -3.59322,31.05084 h 57.491525 z" />
    <path
       id="path6"
       d="m 44.00411,-231.16641 c -5.846145,0 -10.585366,4.73922 -10.585366,10.58537 v 10.58536 H 44.00411 c 5.846148,0 10.585368,-4.73922 10.585368,-10.58536 0,-5.84615 -4.73922,-10.58537 -10.585368,-10.58537 z m 0,6.04878 a 4.5365854,4.5365854 0 0 1 4.536587,4.53659 4.5365854,4.5365854 0 0 1 -4.536587,4.53658 4.5365854,4.5365854 0 0 1 -4.536585,-4.53658 4.5365854,4.5365854 0 0 1 4.536585,-4.53659 z"
       style="opacity:0.6;fill:#e6e6e6;fill-opacity:1;stroke-width:0.75609761"
       inkscape:connector-curvature="0" />
    <circle
       style="fill:#315069;fill-opacity:1"
       cx="63.665127"
       cy="-195.16949"
       r="3"
       id="circle12" />
  </g>
</svg>
