<?xml version="1.0" encoding="UTF-8" standalone="no"?>
<svg
   xmlns:dc="http://purl.org/dc/elements/1.1/"
   xmlns:cc="http://creativecommons.org/ns#"
   xmlns:rdf="http://www.w3.org/1999/02/22-rdf-syntax-ns#"
   xmlns:svg="http://www.w3.org/2000/svg"
   xmlns="http://www.w3.org/2000/svg"
   xmlns:sodipodi="http://sodipodi.sourceforge.net/DTD/sodipodi-0.dtd"
   xmlns:inkscape="http://www.inkscape.org/namespaces/inkscape"
   width="64"
   height="64"
   version="1.1"
   id="svg4"
   sodipodi:docname="input-gaming.svg"
   inkscape:version="0.92.4 (5da689c313, 2019-01-14)">
  <metadata
     id="metadata10">
    <rdf:RDF>
      <cc:Work
         rdf:about="">
        <dc:format>image/svg+xml</dc:format>
        <dc:type
           rdf:resource="http://purl.org/dc/dcmitype/StillImage" />
        <dc:title />
      </cc:Work>
    </rdf:RDF>
  </metadata>
  <defs
     id="defs8" />
  <sodipodi:namedview
     pagecolor="#ffffff"
     bordercolor="#666666"
     borderopacity="1"
     objecttolerance="10"
     gridtolerance="10"
     guidetolerance="10"
     inkscape:pageopacity="0"
     inkscape:pageshadow="2"
     inkscape:window-width="1280"
     inkscape:window-height="954"
     id="namedview6"
     showgrid="false"
     inkscape:zoom="5.2149125"
     inkscape:cx="-5.9651818"
     inkscape:cy="17.485313"
     inkscape:window-x="0"
     inkscape:window-y="0"
     inkscape:window-maximized="1"
     inkscape:current-layer="svg4" />
  <path
     style="fill:#315069;fill-opacity:1;stroke:none;stroke-width:0.58888251px;stroke-linecap:butt;stroke-linejoin:miter;stroke-opacity:1"
     d="m 17.641948,20.48831 c -5.426472,0.09522 -10.1964046,4.352874 -10.5008514,10.223856 -0.357023,6.884869 6.8301714,11.633663 8.1553014,11.604713 l 37.614507,-0.449115 c 0.514583,-0.10325 5.491082,-4.534214 5.009315,-11.236007 -0.322929,-4.492224 -2.201031,-7.158683 -7.445201,-9.2875 z"
     id="path891"
     inkscape:connector-curvature="0"
     sodipodi:nodetypes="csccscc" />
  <path
     inkscape:connector-curvature="0"
     d="m 28.080463,33.958788 v -3.917577 c 0,-0.55042 -0.428975,-0.979395 -0.979394,-0.979395 H 21.224702 V 23.18545 c 0,-0.55042 -0.428975,-0.979395 -0.979394,-0.979395 H 16.32773 c -0.55042,0 -0.979394,0.428975 -0.979394,0.979395 v 5.876366 H 9.4719698 c -0.55042,0 -0.9793949,0.428975 -0.9793949,0.979395 v 3.917577 c 0,0.55042 0.4289749,0.979395 0.9793949,0.979395 h 5.8763662 v 5.876366 c 0,0.55042 0.428974,0.979395 0.979394,0.979395 h 3.917578 c 0.550419,0 0.979394,-0.428975 0.979394,-0.979395 v -5.876366 h 5.876367 c 0.550419,0 0.979394,-0.428975 0.979394,-0.979395 z m 17.6291,1.958789 C 45.709563,33.74528 43.964282,32 41.791985,32 c -2.172297,0 -3.917578,1.74528 -3.917578,3.917577 0,2.172297 1.745281,3.917578 3.917578,3.917578 2.172297,0 3.917578,-1.745281 3.917578,-3.917578 z m 7.835155,-7.835155 c 0,-2.172297 -1.74528,-3.917578 -3.917577,-3.917578 -2.172297,0 -3.917578,1.745281 -3.917578,3.917578 0,2.172297 1.745281,3.917578 3.917578,3.917578 2.172297,0 3.917577,-1.745281 3.917577,-3.917578 z M 61.379874,32 c 0,8.661764 -7.008547,15.67031 -15.670311,15.67031 -3.9783,0 -7.590307,-1.500432 -10.344364,-3.917577 H 28.632842 C 25.878784,46.169878 22.266778,47.67031 18.288478,47.67031 9.6267139,47.67031 2.6181671,40.661764 2.6181671,32 c 0,-8.661765 7.0085468,-15.67031 15.6703109,-15.67031 h 27.423044 c 8.661764,0 15.670311,7.008545 15.670311,15.67031 z"
     id="path4"
     style="stroke-width:1.95878887;fill:#62a1d3;fill-opacity:1" />
</svg>
