<?xml version="1.0" encoding="UTF-8" standalone="no"?>
<svg
   xmlns:dc="http://purl.org/dc/elements/1.1/"
   xmlns:cc="http://creativecommons.org/ns#"
   xmlns:rdf="http://www.w3.org/1999/02/22-rdf-syntax-ns#"
   xmlns:svg="http://www.w3.org/2000/svg"
   xmlns="http://www.w3.org/2000/svg"
   xmlns:xlink="http://www.w3.org/1999/xlink"
   xmlns:sodipodi="http://sodipodi.sourceforge.net/DTD/sodipodi-0.dtd"
   xmlns:inkscape="http://www.inkscape.org/namespaces/inkscape"
   width="64"
   height="64"
   version="1.1"
   id="svg4"
   sodipodi:docname="joystick2.svg"
   inkscape:version="0.92.4 (5da689c313, 2019-01-14)">
  <metadata
     id="metadata10">
    <rdf:RDF>
      <cc:Work
         rdf:about="">
        <dc:format>image/svg+xml</dc:format>
        <dc:type
           rdf:resource="http://purl.org/dc/dcmitype/StillImage" />
        <dc:title />
      </cc:Work>
    </rdf:RDF>
  </metadata>
  <defs
     id="defs8">
    <filter
       style="color-interpolation-filters:sRGB"
       id="filter929">
      <feFlood
         flood-color="rgb(0,0,0)"
         flood-opacity=".2"
         result="flood"
         id="feFlood2" />
      <feComposite
         in="flood"
         in2="SourceGraphic"
         operator="in"
         result="composite1"
         id="feComposite4" />
      <feGaussianBlur
         in="composite1"
         result="blur"
         id="feGaussianBlur6" />
      <feOffset
         dx="0"
         dy="1"
         result="offset"
         id="feOffset8" />
      <feComposite
         in="SourceGraphic"
         in2="offset"
         result="fbSourceGraphic"
         id="feComposite10" />
      <feColorMatrix
         in="fbSourceGraphic"
         result="fbSourceGraphicAlpha"
         values="0 0 0 -1 0 0 0 0 -1 0 0 0 0 -1 0 0 0 0 1 0"
         id="feColorMatrix12" />
      <feFlood
         flood-color="rgb(255,255,255)"
         flood-opacity=".10196"
         in="fbSourceGraphic"
         result="flood"
         id="feFlood14" />
      <feComposite
         in="flood"
         in2="fbSourceGraphic"
         operator="out"
         result="composite1"
         id="feComposite16" />
      <feGaussianBlur
         in="composite1"
         result="blur"
         id="feGaussianBlur18" />
      <feOffset
         dx="0"
         dy="1"
         result="offset"
         id="feOffset20" />
      <feComposite
         in="offset"
         in2="fbSourceGraphic"
         operator="atop"
         result="composite2"
         id="feComposite22" />
    </filter>
  </defs>
  <sodipodi:namedview
     pagecolor="#ffffff"
     bordercolor="#666666"
     borderopacity="1"
     objecttolerance="10"
     gridtolerance="10"
     guidetolerance="10"
     inkscape:pageopacity="0"
     inkscape:pageshadow="2"
     inkscape:window-width="1920"
     inkscape:window-height="1052"
     id="namedview6"
     showgrid="false"
     inkscape:zoom="5.2149125"
     inkscape:cx="-16.032465"
     inkscape:cy="17.485313"
     inkscape:window-x="1280"
     inkscape:window-y="0"
     inkscape:window-maximized="1"
     inkscape:current-layer="svg4" />
  <path
     inkscape:connector-curvature="0"
     style="fill-opacity:0.2;fill-rule:evenodd;stroke-width:2.61019993"
     d="m 60.023554,56.816961 c 0,1.3087 -0.81102,2.1446 -2.129,2.1446 H 6.2625507 c -1.3361,0 -2.2226,-0.63189 -2.2226,-1.8906 v 2 c 0,1.2587 0.88656,1.8906 2.2226,1.8906 H 57.894554 c 1.3179,0 2.129,-0.83585 2.129,-2.1446 z"
     id="path27" />
  <path
     inkscape:connector-curvature="0"
     style="fill:#5297cf;fill-rule:evenodd;stroke-width:2.61019993;fill-opacity:1"
     d="m 4.0407507,50.693961 1.0232,-0.80481 50.3260033,0.07266 4.6332,0.36892 v 7.4859 c 0,1.3087 -0.81226,2.1432 -2.1302,2.1432 H 6.2629507 c -1.3361,0 -2.2238,-0.63021 -2.2238,-1.8889 z"
     id="path29" />
  <path
     inkscape:connector-curvature="0"
     style="fill:none;stroke-width:2.79959989"
     d="m 12.079551,31.871961 c -0.83564,0 -1.3788,0.38808 -1.7131,1.1284 0,0 -5.9748003,14.85 -5.9748003,14.85 0,0 -0.33424,0.89813 -0.33424,2.3822 v 7.5561 c 0,1.4479 0.87948,2.1732 2.2144,2.1732 H 57.829814 c 1.3168,0 2.131,-0.96049 2.131,-2.4658 v -7.5561 c 0,0 0.14166,-1.0304 -0.12534,-1.7553 l -6.309,-14.975 c -0.24672,-0.68461 -0.85156,-1.3214 -1.5042,-1.3374 z"
     id="path31" />
  <path
     inkscape:connector-curvature="0"
     style="color:#000000;fill:none;stroke-width:2.79959989"
     d="m 33.475554,28.837961 c -3.5094,0 -6.297,1.4068 -6.5178,3.1762 h -0.08356 l -1.7131,6.9377 c -0.29248,1.4628 2.7794,4.054 8.3146,4.054 5.5774,0 8.7744,-2.633 8.231,-4.5972 l -1.5877,-6.3945 h -0.08356 c -0.21882,-1.7705 -3.0492,-3.1762 -6.5598,-3.1762 z"
     id="path33" />
  <path
     inkscape:connector-curvature="0"
     style="fill:#62a1d3;fill-rule:evenodd;stroke-width:2.8276;fill-opacity:1"
     d="m 4.4091507,48.627961 c -0.95502,2.0402 -8.2e-4,3.3342 1.3848,3.3342 H 57.937954 c 1.4962,-0.0332 2.4672,-1.41 1.91,-2.986 l -6.3032,-15.62 c -0.24672,-0.71325 -0.87544,-1.3768 -1.528,-1.3934 H 12.096751 c -0.83564,0 -1.3848,0.42298 -1.719,1.1943 l -5.9690003,15.471 z"
     id="path35" />
  <path
     inkscape:connector-curvature="0"
     style="fill:none;stroke-width:2.79959989"
     d="m 12.556551,32.475961 c -0.80448,0 -1.3274,0.37362 -1.6492,1.0863 0,0 -5.9030003,14.164 -5.9030003,14.164 0,0 -0.3218,0.86465 -0.3218,2.2934 v 7.0749 c 0,1.8118 0.5937,2.1758 2.1318,2.1758 H 57.202354 c 1.7691,0 2.0514,-0.42316 2.0514,-2.4574 v -7.0749 c 0,0 0.13638,-0.99193 -0.12068,-1.6899 l -6.1412,-14.452 c -0.23752,-0.65907 -0.73624,-1.105 -1.3645,-1.1203 z"
     id="path37" />
  <ellipse
     style="color:#000000;fill:#ffffff;fill-opacity:0.48022999;fill-rule:evenodd;stroke-width:2.73900008"
     cx="33.415554"
     cy="40.573959"
     rx="15.395"
     ry="7.5151"
     id="ellipse39" />
  <path
     inkscape:connector-curvature="0"
     style="color:#000000;fill:none;stroke-width:2.79959989"
     d="m 33.475554,4.2209614 c -4.8926,0 -8.8578,3.9664 -8.8578,8.8600996 0,3.4874 2.0846,6.4099 5.0138,7.8571 v 11.41 c 0,1.0886 1.7192,1.9643 3.8438,1.9643 2.1248,0 3.8438,-0.87571 3.8438,-1.9643 v -11.368 c 2.9554,-1.438 5.0138,-4.3926 5.0138,-7.8989 0,-4.8938996 -3.9654,-8.8600996 -8.8578,-8.8600996 z"
     id="path41" />
  <path
     inkscape:connector-curvature="0"
     style="color:#000000;fill:#5297cf;fill-rule:evenodd;stroke-width:2.79959989;fill-opacity:1"
     d="m 40.121554,32.969961 1.5877,6.3945 c 0.54316,1.9643 -2.6538,4.5972 -8.231,4.5972 -5.5354,0 -8.6072,-2.5912 -8.3146,-4.054 l 1.7131,-6.9377 z"
     id="path43" />
  <ellipse
     style="color:#000000;fill:#e4e4e4;fill-rule:evenodd;stroke-width:2.62700009"
     id="path4345"
     cx="33.441555"
     cy="32.955963"
     rx="6.5697999"
     ry="3.0072" />
  <path
     inkscape:connector-curvature="0"
     style="color:#000000;fill:none;stroke-width:1.77390003"
     d="m 47.565554,30.291961 a 4.1934,2.1486 0 0 0 -4.195,2.1484 4.1934,2.1486 0 0 0 4.195,2.1484 4.1934,2.1486 0 0 0 4.1918,-2.1484 4.1934,2.1486 0 0 0 -4.1918,-2.1484 z"
     xlink:href="#path4345"
     id="path46" />
  <path
     inkscape:connector-curvature="0"
     style="color:#000000;fill:#62a1d3;fill-rule:evenodd;stroke-width:2.96560001;fill-opacity:1"
     d="m 33.431554,10.723461 c -2.5386,0 -4.5926,0.89837 -4.5926,2.0152 0,0.03686 0.0954,0.04938 0.09984,0.08575 h -0.09984 v 19.036 h 0.09984 c -0.0044,0.03636 -0.09984,0.0489 -0.09984,0.08574 0,1.1167 2.054,2.0152 4.5926,2.0152 2.5386,0 4.5926,-0.89837 4.5926,-2.0152 0,-0.03686 -0.0954,-0.04938 -0.09984,-0.08574 h 0.09984 v -19.036 h -0.09984 c 0.0044,-0.03637 0.09984,-0.04889 0.09984,-0.08575 0,-1.1167 -2.054,-2.0152 -4.5926,-2.0152 z"
     id="path48" />
  <ellipse
     style="color:#000000;fill:#315069;fill-rule:evenodd;stroke-width:3.00040007;filter:url(#filter929);fill-opacity:1"
     cx="33.523556"
     cy="10.459562"
     rx="7.5"
     ry="7.5019002"
     id="ellipse50" />
  <path
     inkscape:connector-curvature="0"
     style="color:#000000;opacity:0.52570998;fill:none;stroke-width:2.79959989"
     d="m 33.479554,5.1947614 c -4.392,0 -7.9466,3.5944 -7.9466,7.9876996 0,3.0932 2.2194,5.7011 4.798,7.0183 v 9.5247 c -1.1595,0.52879 -2.8786,1.3951 -2.8988,2.249 l -1.6669,6.8811 c -0.27134,1.3571 2.5786,3.7612 7.714,3.7612 5.1742,0 8.1406,-2.4428 7.6364,-4.2652 l -1.6281,-6.4933 c -0.02128,-0.91449 -1.6388,-1.487 -2.9436,-2.0164 v -9.6413 c 2.5786,-1.317 4.9204,-3.9252 4.9204,-7.0183 0,-4.3931996 -3.5934,-7.9876996 -7.9854,-7.9876996 z"
     id="path52" />
  <path
     inkscape:connector-curvature="0"
     style="color:#000000;fill-opacity:0.2;fill-rule:evenodd;stroke-width:3.11859989"
     d="m 8.3165507,46.961961 a 5,3 0 0 0 -0.29296,0.99999 5,3 0 0 0 5.0000003,3 5,3 0 0 0 5.000003,-3 5,3 0 0 0 -0.29296,-0.99999 5,3 0 0 1 -4.707003,2 5,3 0 0 1 -4.7070003,-2 z"
     id="path54" />
  <ellipse
     style="color:#000000;fill:#315069;fill-rule:evenodd;stroke-width:3.11859989;fill-opacity:1"
     cx="13.023563"
     cy="46.96196"
     rx="5"
     ry="3"
     id="ellipse56" />
</svg>
