<?xml version="1.0" encoding="UTF-8" standalone="no"?>
<svg
   xmlns:dc="http://purl.org/dc/elements/1.1/"
   xmlns:cc="http://creativecommons.org/ns#"
   xmlns:rdf="http://www.w3.org/1999/02/22-rdf-syntax-ns#"
   xmlns:svg="http://www.w3.org/2000/svg"
   xmlns="http://www.w3.org/2000/svg"
   xmlns:sodipodi="http://sodipodi.sourceforge.net/DTD/sodipodi-0.dtd"
   xmlns:inkscape="http://www.inkscape.org/namespaces/inkscape"
   width="64"
   height="64"
   version="1"
   id="svg16"
   sodipodi:docname="network-wireless.svg"
   inkscape:version="0.92.4 (5da689c313, 2019-01-14)">
  <metadata
     id="metadata22">
    <rdf:RDF>
      <cc:Work
         rdf:about="">
        <dc:format>image/svg+xml</dc:format>
        <dc:type
           rdf:resource="http://purl.org/dc/dcmitype/StillImage" />
      </cc:Work>
    </rdf:RDF>
  </metadata>
  <defs
     id="defs20" />
  <sodipodi:namedview
     pagecolor="#ffffff"
     bordercolor="#666666"
     borderopacity="1"
     objecttolerance="10"
     gridtolerance="10"
     guidetolerance="10"
     inkscape:pageopacity="0"
     inkscape:pageshadow="2"
     inkscape:window-width="1280"
     inkscape:window-height="954"
     id="namedview18"
     showgrid="false"
     inkscape:zoom="3.6875"
     inkscape:cx="22.508474"
     inkscape:cy="32"
     inkscape:window-x="0"
     inkscape:window-y="0"
     inkscape:window-maximized="1"
     inkscape:current-layer="svg16" />
  <path
     style="fill:#4f4f4f"
     d="m 32.151497,12.000754 c -10.553622,0 -20.05328,3.749933 -27.9329969,9.565828 L 32.151497,52.000036 59.8685,21.456584 c -7.847718,-5.750697 -17.24338,-9.45663 -27.717003,-9.45663 z"
     id="path2" />
  <path
     style="fill:#797979"
     d="m 32.044001,19.999999 c -8.407249,0 -16.210109,2.756339 -22.4775969,7.411684 L 32.161998,51.999999 54.521597,27.411683 C 48.25571,22.757138 40.45185,20.000599 32.044001,20.000599 Z"
     id="path4" />
  <path
     style="opacity:0.1;fill:#ffffff"
     d="M 32.013672 12.019531 C 21.47961 12.019997 11.996069 15.764473 4.1308594 21.568359 L 4.6855469 22.173828 C 12.441241 16.598882 21.724061 13.019986 32.013672 13.019531 L 32.015625 13.019531 C 42.22506 13.019984 51.40773 16.556716 59.130859 22.070312 L 59.683594 21.460938 C 51.848331 15.720534 42.467831 12.019995 32.015625 12.019531 L 32.013672 12.019531 z"
     id="path8" />
  <path
     style="opacity:0.1;fill:#ffffff"
     d="M 32.046875 19.992188 C 23.639625 19.992188 15.832694 22.749734 9.5664062 27.40625 L 10.123047 28.009766 C 16.293024 23.597252 23.88476 20.992188 32.046875 20.992188 L 32.048828 20.994141 C 40.211536 20.994141 47.802373 23.599761 53.972656 28.013672 L 54.525391 27.40625 C 48.259504 22.750334 40.454677 19.994141 32.048828 19.994141 L 32.046875 19.992188 z"
     id="path10" />
  <path
     style="opacity:0.1;fill:#ffffff"
     d="M 32.046875 27.992188 C 25.741388 27.992188 19.887616 30.062351 15.1875 33.554688 L 15.751953 34.167969 C 20.354469 30.918752 25.986641 28.992188 32.046875 28.992188 C 38.108862 28.992188 43.736953 30.920592 48.339844 34.171875 L 48.900391 33.554688 C 44.200475 30.062151 38.352161 27.992188 32.046875 27.992188 z"
     id="path12" />
  <path
     style="opacity:0.2"
     d="M 59.306641,22.074219 32.154297,52 4.78125,22.179688 c -0.1888716,0.126997 -0.3795033,0.251721 -0.5625,0.386718 L 32.154297,53 59.867188,22.457031 c -0.181997,-0.133197 -0.372301,-0.257265 -0.560547,-0.382812 z"
     id="path14" />
  <g
     id="g3878"
     transform="translate(80,-72.406779)"
     style="opacity:0.7">
    <path
       id="path2-3"
       d="m -47.892003,84.407539 c -10.553622,0 -20.05328,3.749933 -27.932997,9.565828 L -47.892003,124.40682 -20.175,93.863369 c -7.847718,-5.750697 -17.24338,-9.45663 -27.717003,-9.45663 z"
       style="fill:#62a1d3;fill-opacity:1"
       inkscape:connector-curvature="0" />
    <path
       id="path4-6"
       d="m -47.999499,92.406784 c -8.407249,0 -16.210109,2.756339 -22.477597,7.411684 l 22.595594,24.588312 22.359599,-24.588312 C -31.78779,95.163923 -39.59165,92.407384 -47.999499,92.407384 Z"
       style="fill:#62a1d3;fill-opacity:1"
       inkscape:connector-curvature="0" />
  </g>
  <path
     style="fill:#e4e4e4"
     d="m 32.044001,28.000436 c -6.305487,0 -12.157582,2.067277 -16.857498,5.558454 L 32.131999,52.000436 48.901298,33.56029 C 44.201382,30.068912 38.349087,28.001836 32.043801,28.001836 Z"
     id="path6" />
</svg>
