<?xml version="1.0" encoding="UTF-8" standalone="no"?>
<svg
   xmlns:dc="http://purl.org/dc/elements/1.1/"
   xmlns:cc="http://creativecommons.org/ns#"
   xmlns:rdf="http://www.w3.org/1999/02/22-rdf-syntax-ns#"
   xmlns:svg="http://www.w3.org/2000/svg"
   xmlns="http://www.w3.org/2000/svg"
   xmlns:sodipodi="http://sodipodi.sourceforge.net/DTD/sodipodi-0.dtd"
   xmlns:inkscape="http://www.inkscape.org/namespaces/inkscape"
   width="64"
   height="64"
   version="1"
   id="svg24"
   sodipodi:docname="network-wired.svg"
   inkscape:version="0.92.4 (5da689c313, 2019-01-14)">
  <metadata
     id="metadata30">
    <rdf:RDF>
      <cc:Work
         rdf:about="">
        <dc:format>image/svg+xml</dc:format>
        <dc:type
           rdf:resource="http://purl.org/dc/dcmitype/StillImage" />
      </cc:Work>
    </rdf:RDF>
  </metadata>
  <defs
     id="defs28" />
  <sodipodi:namedview
     pagecolor="#ffffff"
     bordercolor="#666666"
     borderopacity="1"
     objecttolerance="10"
     gridtolerance="10"
     guidetolerance="10"
     inkscape:pageopacity="0"
     inkscape:pageshadow="2"
     inkscape:window-width="1280"
     inkscape:window-height="954"
     id="namedview26"
     showgrid="false"
     inkscape:zoom="3.6875"
     inkscape:cx="22.508474"
     inkscape:cy="32"
     inkscape:window-x="0"
     inkscape:window-y="0"
     inkscape:window-maximized="1"
     inkscape:current-layer="svg24" />
  <path
     style="opacity:0.2"
     d="M 20,57 16,53 H 8 C 5.784,53 4,51.216 4,49 V 13 C 4,10.784 5.784,9 8,9 H 56 C 58.216,9 60,10.784 60,13 V 49 C 60,51.216 58.216,53 56,53 H 48 L 44,57 Z"
     id="path2" />
  <path
     style="fill:#62a1d3;fill-opacity:1"
     d="M 20,56 16,52 H 8 C 5.784,52 4,50.216 4,48 V 12 C 4,9.784 5.784,8 8,8 H 56 C 58.216,8 60,9.784 60,12 V 48 C 60,50.216 58.216,52 56,52 H 48 L 44,56 Z"
     id="path4" />
  <path
     style="opacity:0.5"
     d="M 24,48 20,44 H 12 V 16 H 52 V 44 H 44 L 40,48 Z"
     id="path6" />
  <g
     style="fill:#f8c44e"
     transform="scale(1,-1)"
     id="g18">
    <rect
       width="4"
       height="4"
       x="18"
       y="-20"
       id="rect8" />
    <rect
       width="4"
       height="4"
       x="24"
       y="-20"
       id="rect10" />
    <rect
       width="4"
       height="4"
       x="30"
       y="-20"
       id="rect12" />
    <rect
       width="4"
       height="4"
       x="36"
       y="-20"
       id="rect14" />
    <rect
       width="4"
       height="4"
       x="42"
       y="-20"
       id="rect16" />
  </g>
  <path
     style="fill:#ffffff;opacity:0.2"
     d="M 8 8 C 5.784 8 4 9.784 4 12 L 4 13 C 4 10.784 5.784 9 8 9 L 56 9 C 58.216 9 60 10.784 60 13 L 60 12 C 60 9.784 58.216 8 56 8 L 8 8 z"
     id="path20" />
  <path
     style="opacity:0.2;fill:#ffffff"
     d="M 12,44 V 45 H 20 L 24,49 H 40 L 44,45 H 52 V 44 H 44 L 40,48 H 24 L 20,44 Z"
     id="path22" />
</svg>
