<?xml version="1.0" encoding="UTF-8" standalone="no"?>
<svg
   xmlns:dc="http://purl.org/dc/elements/1.1/"
   xmlns:cc="http://creativecommons.org/ns#"
   xmlns:rdf="http://www.w3.org/1999/02/22-rdf-syntax-ns#"
   xmlns:svg="http://www.w3.org/2000/svg"
   xmlns="http://www.w3.org/2000/svg"
   xmlns:sodipodi="http://sodipodi.sourceforge.net/DTD/sodipodi-0.dtd"
   xmlns:inkscape="http://www.inkscape.org/namespaces/inkscape"
   width="64"
   height="64"
   version="1"
   id="svg20"
   sodipodi:docname="network-modem.svg"
   inkscape:version="0.92.4 (5da689c313, 2019-01-14)">
  <metadata
     id="metadata26">
    <rdf:RDF>
      <cc:Work
         rdf:about="">
        <dc:format>image/svg+xml</dc:format>
        <dc:type
           rdf:resource="http://purl.org/dc/dcmitype/StillImage" />
      </cc:Work>
    </rdf:RDF>
  </metadata>
  <defs
     id="defs24" />
  <sodipodi:namedview
     pagecolor="#ffffff"
     bordercolor="#666666"
     borderopacity="1"
     objecttolerance="10"
     gridtolerance="10"
     guidetolerance="10"
     inkscape:pageopacity="0"
     inkscape:pageshadow="2"
     inkscape:window-width="1280"
     inkscape:window-height="954"
     id="namedview22"
     showgrid="false"
     inkscape:zoom="3.6875"
     inkscape:cx="17.762711"
     inkscape:cy="32"
     inkscape:window-x="0"
     inkscape:window-y="0"
     inkscape:window-maximized="1"
     inkscape:current-layer="svg20" />
  <rect
     style="opacity:0.2"
     width="56"
     height="28"
     x="4"
     y="33"
     rx="4.2"
     ry="4.2"
     id="rect2" />
  <rect
     style="fill:#8e8e8e"
     width="34"
     height="6"
     x="4"
     y="-18"
     ry="3"
     transform="matrix(0,1,-1,0,0,0)"
     id="rect4" />
  <rect
     style="fill:#62a1d3;fill-opacity:1"
     width="56"
     height="28"
     x="4"
     y="32"
     rx="4.2"
     ry="4.2"
     id="rect6" />
  <circle
     style="opacity:0.2"
     cx="48"
     cy="47"
     r="6"
     id="circle8" />
  <circle
     style="fill:#c0f957"
     cx="48"
     cy="46"
     r="6"
     id="circle10" />
  <circle
     style="opacity:0.2"
     cx="32"
     cy="47"
     r="6"
     id="circle12" />
  <circle
     style="fill:#91af5b;fill-opacity:0.53333336"
     cx="32"
     cy="46"
     r="6"
     id="circle14" />
  <path
     style="fill:#ffffff;opacity:0.1"
     d="M 15 4 C 13.338 4 12 5.338 12 7 L 12 8 C 12 6.338 13.338 5 15 5 C 16.662 5 18 6.338 18 8 L 18 7 C 18 5.338 16.662 4 15 4 z"
     id="path16" />
  <path
     style="fill:#ffffff;opacity:0.1"
     d="M 8.1992188 32 C 5.8724189 32 4 33.872419 4 36.199219 L 4 37.199219 C 4 34.872419 5.8724189 33 8.1992188 33 L 55.800781 33 C 58.127581 33 60 34.872419 60 37.199219 L 60 36.199219 C 60 33.872419 58.127581 32 55.800781 32 L 8.1992188 32 z"
     id="path18" />
</svg>
