<?xml version="1.0" encoding="UTF-8" standalone="no"?>
<svg
   xmlns:dc="http://purl.org/dc/elements/1.1/"
   xmlns:cc="http://creativecommons.org/ns#"
   xmlns:rdf="http://www.w3.org/1999/02/22-rdf-syntax-ns#"
   xmlns:svg="http://www.w3.org/2000/svg"
   xmlns="http://www.w3.org/2000/svg"
   xmlns:sodipodi="http://sodipodi.sourceforge.net/DTD/sodipodi-0.dtd"
   xmlns:inkscape="http://www.inkscape.org/namespaces/inkscape"
   width="64"
   height="64"
   version="1"
   id="svg20"
   sodipodi:docname="pda.svg"
   inkscape:version="0.92.4 (5da689c313, 2019-01-14)">
  <metadata
     id="metadata26">
    <rdf:RDF>
      <cc:Work
         rdf:about="">
        <dc:format>image/svg+xml</dc:format>
        <dc:type
           rdf:resource="http://purl.org/dc/dcmitype/StillImage" />
      </cc:Work>
    </rdf:RDF>
  </metadata>
  <defs
     id="defs24" />
  <sodipodi:namedview
     pagecolor="#ffffff"
     bordercolor="#666666"
     borderopacity="1"
     objecttolerance="10"
     gridtolerance="10"
     guidetolerance="10"
     inkscape:pageopacity="0"
     inkscape:pageshadow="2"
     inkscape:window-width="1280"
     inkscape:window-height="954"
     id="namedview22"
     showgrid="false"
     inkscape:zoom="5.2149125"
     inkscape:cx="47.572197"
     inkscape:cy="21.181168"
     inkscape:window-x="0"
     inkscape:window-y="0"
     inkscape:window-maximized="1"
     inkscape:current-layer="svg20" />
  <rect
     style="opacity:0.2"
     width="48"
     height="48"
     x="-63"
     y="-56"
     rx="12"
     ry="15"
     transform="matrix(0,-1,-1,0,0,0)"
     id="rect2" />
  <rect
     style="fill:#62a1d3;fill-opacity:1"
     width="48"
     height="48"
     x="-50"
     y="-56"
     rx="5"
     ry="5"
     transform="matrix(0,-1,-1,0,0,0)"
     id="rect4" />
  <rect
     style="fill:#62a1d3;fill-opacity:1"
     width="48"
     height="48"
     x="-62"
     y="-56"
     rx="12"
     ry="15"
     transform="matrix(0,-1,-1,0,0,0)"
     id="rect6" />
  <rect
     style="opacity:0.5"
     width="36"
     height="38"
     x="14"
     y="8"
     rx="1.5"
     ry="1.5"
     id="rect8" />
  <circle
     style="opacity:0.5"
     cx="19"
     cy="52"
     r="3"
     id="circle10" />
  <circle
     style="opacity:0.5"
     cx="44"
     cy="52"
     r="3"
     id="circle12" />
  <rect
     style="opacity:0.5"
     width="4"
     height="4"
     x="42"
     y="2"
     id="rect14" />
  <circle
     style="opacity:0.5"
     cx="32"
     cy="54"
     r="4"
     id="circle16" />
  <path
     style="fill:#ffffff;opacity:0.2"
     d="M 13 2 C 10.23 2 8 4.23 8 7 L 8 8 C 8 5.23 10.23 3 13 3 L 51 3 C 53.77 3 56 5.23 56 8 L 56 7 C 56 4.23 53.77 2 51 2 L 13 2 z"
     id="path18" />
</svg>
