
<svg xmlns="http://www.w3.org/2000/svg" xmlns:xlink="http://www.w3.org/1999/xlink" width="64px" height="64px" viewBox="0 0 64 64" version="1.1">
<g id="surface1">
<path style=" stroke:none;fill-rule:nonzero;fill:rgb(100%,65.490198%,14.901961%);fill-opacity:1;" d="M 31.75 4.46875 C 34.8125 4.46875 38.296875 20.96875 40.78125 22.765625 C 43.25 24.5625 60.015625 22.78125 60.96875 25.703125 C 61.90625 28.609375 47.296875 37.03125 46.359375 39.9375 C 45.40625 42.84375 52.28125 58.25 49.8125 60.046875 C 47.328125 61.84375 34.8125 50.546875 31.75 50.546875 C 28.6875 50.546875 16.171875 61.84375 13.6875 60.046875 C 11.21875 58.25 18.09375 42.84375 17.140625 39.9375 C 16.203125 37.03125 1.59375 28.609375 2.53125 25.703125 C 3.484375 22.78125 20.25 24.5625 22.71875 22.765625 C 25.203125 20.96875 28.6875 4.46875 31.75 4.46875 Z M 31.75 4.46875 "/>
</g>
</svg>
