
<svg xmlns="http://www.w3.org/2000/svg" xmlns:xlink="http://www.w3.org/1999/xlink" width="64px" height="64px" viewBox="0 0 64 64" version="1.1">
<g id="surface1">
<path style=" stroke:none;fill-rule:nonzero;fill:rgb(93.725491%,32.549021%,31.37255%);fill-opacity:1;" d="M 31.75 4.46875 C 34.8125 4.46875 38.25 21.03125 40.71875 22.84375 C 43.203125 24.640625 60.015625 22.78125 60.96875 25.703125 C 61.921875 28.609375 47.21875 36.984375 46.265625 39.90625 C 45.328125 42.828125 52.28125 58.234375 49.8125 60.046875 C 47.328125 61.84375 34.8125 50.453125 31.75 50.453125 C 28.6875 50.453125 16.171875 61.84375 13.6875 60.046875 C 11.21875 58.234375 18.171875 42.828125 17.234375 39.90625 C 16.28125 36.984375 1.578125 28.609375 2.53125 25.703125 C 3.484375 22.78125 20.296875 24.640625 22.78125 22.84375 C 25.25 21.03125 28.6875 4.46875 31.75 4.46875 Z M 31.75 4.46875 "/>
</g>
</svg>
