<?xml version="1.0" encoding="UTF-8" standalone="no"?>
<svg
   xmlns:dc="http://purl.org/dc/elements/1.1/"
   xmlns:cc="http://creativecommons.org/ns#"
   xmlns:rdf="http://www.w3.org/1999/02/22-rdf-syntax-ns#"
   xmlns:svg="http://www.w3.org/2000/svg"
   xmlns="http://www.w3.org/2000/svg"
   xmlns:sodipodi="http://sodipodi.sourceforge.net/DTD/sodipodi-0.dtd"
   xmlns:inkscape="http://www.inkscape.org/namespaces/inkscape"
   width="64"
   height="64"
   version="1.1"
   id="svg56"
   sodipodi:docname="folder-github.svg"
   inkscape:version="0.92.4 (5da689c313, 2019-01-14)">
  <metadata
     id="metadata60">
    <rdf:RDF>
      <cc:Work
         rdf:about="">
        <dc:format>image/svg+xml</dc:format>
        <dc:type
           rdf:resource="http://purl.org/dc/dcmitype/StillImage" />
      </cc:Work>
    </rdf:RDF>
  </metadata>
  <sodipodi:namedview
     pagecolor="#ffffff"
     bordercolor="#666666"
     borderopacity="1"
     objecttolerance="10"
     gridtolerance="10"
     guidetolerance="10"
     inkscape:pageopacity="0"
     inkscape:pageshadow="2"
     inkscape:window-width="1280"
     inkscape:window-height="954"
     id="namedview58"
     showgrid="false"
     inkscape:zoom="3.6875"
     inkscape:cx="25.583994"
     inkscape:cy="45.831242"
     inkscape:window-x="0"
     inkscape:window-y="0"
     inkscape:window-maximized="1"
     inkscape:current-layer="svg56" />
  <defs
     id="defs48">
    <filter
       id="filter965"
       color-interpolation-filters="sRGB">
      <feFlood
         flood-color="rgb(0,0,0)"
         flood-opacity=".2"
         result="flood"
         id="feFlood2" />
      <feComposite
         in="flood"
         in2="SourceGraphic"
         operator="in"
         result="composite1"
         id="feComposite4" />
      <feGaussianBlur
         in="composite1"
         result="blur"
         id="feGaussianBlur6" />
      <feOffset
         dx="0"
         dy="1"
         result="offset"
         id="feOffset8" />
      <feComposite
         in="SourceGraphic"
         in2="offset"
         result="fbSourceGraphic"
         id="feComposite10" />
      <feColorMatrix
         in="fbSourceGraphic"
         result="fbSourceGraphicAlpha"
         values="0 0 0 -1 0 0 0 0 -1 0 0 0 0 -1 0 0 0 0 1 0"
         id="feColorMatrix12" />
      <feFlood
         flood-color="rgb(255,255,255)"
         flood-opacity=".10196"
         in="fbSourceGraphic"
         result="flood"
         id="feFlood14" />
      <feComposite
         in="flood"
         in2="fbSourceGraphic"
         operator="out"
         result="composite1"
         id="feComposite16" />
      <feGaussianBlur
         in="composite1"
         result="blur"
         id="feGaussianBlur18" />
      <feOffset
         dx="0"
         dy="1"
         result="offset"
         id="feOffset20" />
      <feComposite
         in="offset"
         in2="fbSourceGraphic"
         operator="atop"
         result="composite2"
         id="feComposite22" />
    </filter>
    <filter
       id="filter989"
       color-interpolation-filters="sRGB">
      <feFlood
         flood-color="rgb(255,255,255)"
         flood-opacity=".10196"
         result="flood"
         id="feFlood25" />
      <feComposite
         in="flood"
         in2="SourceGraphic"
         operator="out"
         result="composite1"
         id="feComposite27" />
      <feGaussianBlur
         in="composite1"
         result="blur"
         id="feGaussianBlur29" />
      <feOffset
         dx="0"
         dy="1"
         result="offset"
         id="feOffset31" />
      <feComposite
         in="offset"
         in2="SourceGraphic"
         operator="atop"
         result="fbSourceGraphic"
         id="feComposite33" />
      <feColorMatrix
         in="fbSourceGraphic"
         result="fbSourceGraphicAlpha"
         values="0 0 0 -1 0 0 0 0 -1 0 0 0 0 -1 0 0 0 0 1 0"
         id="feColorMatrix35" />
      <feFlood
         flood-color="rgb(0,0,0)"
         flood-opacity=".2"
         in="fbSourceGraphic"
         result="flood"
         id="feFlood37" />
      <feComposite
         in="flood"
         in2="fbSourceGraphic"
         operator="in"
         result="composite1"
         id="feComposite39" />
      <feGaussianBlur
         in="composite1"
         result="blur"
         id="feGaussianBlur41" />
      <feOffset
         dx="0"
         dy="1"
         result="offset"
         id="feOffset43" />
      <feComposite
         in="fbSourceGraphic"
         in2="offset"
         result="composite2"
         id="feComposite45" />
    </filter>
  </defs>
  <g
     id="g3908"
     transform="translate(68.706699,-73.232183)">
    <g
       id="Layer_2-3"
       transform="translate(-68.706699,73.232183)" />
    <g
       style="fill:#6c5353"
       id="Layer_1-5-3-6"
       transform="matrix(0.00967697,0.88749906,-1.1343839,0.0401888,0.52653691,72.790686)">
      <g
         style="fill:#6c5353"
         id="g4-3-6-7" />
      <g
         id="g10-5-7-5"
         style="opacity:0.2;fill:#6c5353">
        <g
           style="fill:#6c5353"
           id="g8-6-5-3" />
      </g>
      <g
         style="fill:#6c5353"
         id="g16-2-3-5">
        <g
           style="fill:#6c5353"
           id="g14-9-5-6" />
      </g>
      <g
         style="fill:#6c5353"
         id="g20-2-2-2" />
    </g>
    <g
       transform="matrix(0.00767154,0.91708398,-0.8992975,-0.13656569,-10.728144,80.957575)"
       id="g4-3-9"
       style="fill:#ffaaaa" />
    <g
       transform="matrix(0.00767154,0.91708398,-0.8992975,-0.13656569,-10.728144,80.957575)"
       style="opacity:0.2;fill:#ffaaaa"
       id="g10-5-1">
      <g
         id="g8-6-2"
         style="fill:#ffaaaa" />
    </g>
    <g
       transform="matrix(0.00767154,0.91708398,-0.8992975,-0.13656569,-10.728144,80.957575)"
       id="g20-2-7"
       style="fill:#ffaaaa" />
    <path
       sodipodi:nodetypes="cccccccccccc"
       inkscape:connector-curvature="0"
       id="path842-3-0"
       d="m -60.363833,83.922734 c -0.247641,-2.67304 0.622474,-4.41043 2.426423,-4.338862 l 30.247139,-0.898098 c 4.677163,-0.142943 6.714707,0.0042 7.079577,4.576022 l 0.103082,15.939341 c -0.09885,1.971173 0.807395,2.842553 2.414564,3.360393 4.081288,0.48745 5.012408,1.81992 4.994357,3.11969 l 0.126913,12.18309 c -0.04959,4.77038 -3.194408,4.8834 -4.567354,5.07038 l -9.55012,0.3891 c -1.568635,-0.43135 -32.804978,0.31716 -32.994067,-1.64701 z"
       style="fill:#1875c5;fill-opacity:1;stroke:none;stroke-width:1.29370439px;stroke-linecap:butt;stroke-linejoin:miter;stroke-opacity:1" />
    <path
       sodipodi:nodetypes="cccccscc"
       inkscape:connector-curvature="0"
       id="path842-3-6-9"
       d="m -22.1149,119.52795 c 5.599291,0.0402 5.571902,0.0452 8.062189,-0.69667 -0.581871,2.75691 -2.00728,2.52953 -5.631066,2.68861 l -6.221076,0.19315 c 0.0094,-0.61092 0.03647,-0.76257 0.04738,-1.0472 -0.05743,-0.65971 0,0 -0.04667,-1.10916 -0.05802,-1.37893 0.588045,-0.0142 3.789246,-0.0287 z"
       style="fill:#f5f5f5;fill-opacity:1;stroke:none;stroke-width:0.62770653px;stroke-linecap:butt;stroke-linejoin:miter;stroke-opacity:1" />
    <path
       sodipodi:nodetypes="cccccccccccc"
       inkscape:connector-curvature="0"
       id="path842-36"
       d="m -60.352324,84.701192 c -0.247641,-2.673039 -0.136509,-5.016394 2.414914,-5.11732 l 23.602918,3.823616 c 1.802265,0.374539 2.768771,1.465442 2.961146,3.219886 l 0.08625,20.498026 c 0.476125,3.00613 1.986455,3.73702 3.593624,4.25485 1.781368,0.77494 1.800488,2.06386 1.782437,3.36363 l 0.08625,13.97201 c 0.07936,3.20458 -1.637278,3.39184 -3.794867,2.8749 l -27.886522,-4.57109 c -1.568636,-0.43135 -2.369571,-1.71569 -2.55866,-3.67987 z"
       style="fill:#63a1d3;fill-opacity:0.990566;stroke:none;stroke-width:1.29370439px;stroke-linecap:butt;stroke-linejoin:miter;stroke-opacity:1" />
  </g>
  <g
     id="Layer_2-36" />
  <g
     transform="matrix(0.00967697,0.88749906,-1.1343839,0.0401888,69.233239,-0.441496)"
     id="Layer_1-5-3-7"
     style="fill:#6c5353">
    <g
       id="g4-3-6-5"
       style="fill:#6c5353" />
    <g
       style="opacity:0.2;fill:#6c5353"
       id="g10-5-7-3">
      <g
         id="g8-6-5-5"
         style="fill:#6c5353" />
    </g>
    <g
       id="g16-2-3-6"
       style="fill:#6c5353">
      <g
         id="g14-9-5-2"
         style="fill:#6c5353" />
    </g>
    <g
       id="g20-2-2-9"
       style="fill:#6c5353" />
  </g>
  <g
     style="fill:#ffaaaa"
     id="g4-3-1"
     transform="matrix(0.00767154,0.91708398,-0.8992975,-0.13656569,57.978559,7.725393)" />
  <g
     id="g10-5-2"
     style="opacity:0.2;fill:#ffaaaa"
     transform="matrix(0.00767154,0.91708398,-0.8992975,-0.13656569,57.978559,7.725393)">
    <g
       style="fill:#ffaaaa"
       id="g8-6-7" />
  </g>
  <g
     style="fill:#ffaaaa"
     id="g20-2-0"
     transform="matrix(0.00767154,0.91708398,-0.8992975,-0.13656569,57.978559,7.725393)" />
  <path
     d="m 31.408176,38.742638 c -4.368436,-0.381087 -7.885263,2.818824 -7.885263,7.174643 0,3.511544 2.286726,6.666517 5.46157,7.959384 v -1.633511 c -1.995997,0.265087 -2.416045,-1.086116 -2.416045,-1.086116 -0.32645,-0.868404 -0.797042,-1.132876 -0.797042,-1.132876 -0.651559,-0.507526 0.04814,-0.439224 0.04814,-0.439224 0.720256,0.114121 1.099205,0.846404 1.099205,0.846404 0.640095,1.166703 1.679956,0.937321 2.088728,0.786869 0.0652,-0.463826 0.251414,-0.769617 0.456257,-0.933456 -1.593296,-0.322485 -2.974321,-1.458854 -2.974321,-4.244795 0,-0.793573 0.578124,-1.785224 1.037149,-2.252899 -0.07402,-0.190334 -0.32142,-1.344279 0.0693,-2.310776 0,0 0.03764,-0.0085 0.115507,-0.0053 0.233506,0.0095 0.758766,0.497009 1.786563,1.292159 0.620523,-0.123618 1.414459,-0.13748 1.910205,-0.09826 0.55901,0.04416 1.206288,0.196517 1.78964,0.42101 1.028081,-0.615879 1.684844,-1.002217 1.917459,-0.97107 l 0.002,1.72e-4 c 0.07776,0.01042 0.115507,0.02543 0.115507,0.02543 0.391629,1.034862 0.144796,2.147631 0.07123,2.325049 0.459837,0.548042 1.032574,1.639977 1.032574,2.43355 0,2.79296 -1.676563,3.6534 -3.274671,3.693931 0.257274,0.246919 0.321499,0.697617 0.321499,1.375583 0,0.818806 -0.002,1.350825 -0.0039,1.689024 v 0.727502 c 3.407063,-0.572249 5.914025,-3.415659 5.914025,-7.091296 0,-4.355819 -3.516827,-8.169132 -7.885263,-8.54999 z"
     id="path54"
     inkscape:connector-curvature="0"
     style="opacity:1;fill:#ffffff;fill-opacity:0.41568627;stroke-width:0.98423856" />
</svg>
