<?xml version="1.0" encoding="UTF-8" standalone="no"?>
<!-- Generated by IcoMoon.io -->

<svg
   xmlns:dc="http://purl.org/dc/elements/1.1/"
   xmlns:cc="http://creativecommons.org/ns#"
   xmlns:rdf="http://www.w3.org/1999/02/22-rdf-syntax-ns#"
   xmlns:svg="http://www.w3.org/2000/svg"
   xmlns="http://www.w3.org/2000/svg"
   xmlns:sodipodi="http://sodipodi.sourceforge.net/DTD/sodipodi-0.dtd"
   xmlns:inkscape="http://www.inkscape.org/namespaces/inkscape"
   version="1.1"
   width="48"
   height="48"
   viewBox="0 0 48 48"
   id="svg6"
   sodipodi:docname="volume_up.svg"
   inkscape:version="0.92.4 (5da689c313, 2019-01-14)">
  <metadata
     id="metadata12">
    <rdf:RDF>
      <cc:Work
         rdf:about="">
        <dc:format>image/svg+xml</dc:format>
        <dc:type
           rdf:resource="http://purl.org/dc/dcmitype/StillImage" />
        <dc:title>volume_up</dc:title>
      </cc:Work>
    </rdf:RDF>
  </metadata>
  <defs
     id="defs10" />
  <sodipodi:namedview
     pagecolor="#ffffff"
     bordercolor="#666666"
     borderopacity="1"
     objecttolerance="10"
     gridtolerance="10"
     guidetolerance="10"
     inkscape:pageopacity="0"
     inkscape:pageshadow="2"
     inkscape:window-width="1280"
     inkscape:window-height="954"
     id="namedview8"
     showgrid="false"
     inkscape:zoom="9.8333333"
     inkscape:cx="10.220339"
     inkscape:cy="12"
     inkscape:window-x="0"
     inkscape:window-y="0"
     inkscape:window-maximized="1"
     inkscape:current-layer="svg6" />
  <title
     id="title2">volume_up</title>
  <path
     style="stroke-width:2.36715579;fill:#eeeeee;fill-opacity:1"
     d="M 28.771484 3.2539062 L 28.771484 8.1328125 C 32.248046 9.1680486 35.077248 11.128898 37.259766 14.013672 C 39.442284 16.898446 40.533203 20.226754 40.533203 24 C 40.533203 27.773247 39.442284 31.101555 37.259766 33.986328 C 35.077248 36.871102 32.248046 38.831952 28.771484 39.867188 L 28.771484 44.75 C 33.579966 43.714764 37.537245 41.254807 40.644531 37.371094 C 43.751818 33.48738 45.304688 29.03137 45.304688 24.001953 C 45.304688 18.972536 43.751818 14.516526 40.644531 10.632812 C 37.537245 6.7490989 33.579966 4.2891424 28.771484 3.2539062 z M 23.998047 5.0292969 L 12.125 16.902344 L 11.59375 16.902344 L 11.59375 31.103516 L 12.125 31.103516 L 23.998047 42.976562 L 23.998047 5.0292969 z M 28.771484 14.460938 L 28.771484 33.546875 C 32.691494 31.624745 34.650391 28.443112 34.650391 24.003906 L 34.654297 24.003906 C 34.654297 22.154368 34.078923 20.306569 32.931641 18.457031 C 31.78436 16.607493 30.39851 15.275239 28.771484 14.460938 z M 2.6953125 16.902344 L 2.6953125 31.103516 L 9.4570312 31.103516 L 9.4570312 16.902344 L 2.6953125 16.902344 z "
     id="path4" />
</svg>
