<?xml version="1.0" encoding="UTF-8" standalone="no"?>
<svg
   xmlns:dc="http://purl.org/dc/elements/1.1/"
   xmlns:cc="http://creativecommons.org/ns#"
   xmlns:rdf="http://www.w3.org/1999/02/22-rdf-syntax-ns#"
   xmlns:svg="http://www.w3.org/2000/svg"
   xmlns="http://www.w3.org/2000/svg"
   xmlns:xlink="http://www.w3.org/1999/xlink"
   xmlns:sodipodi="http://sodipodi.sourceforge.net/DTD/sodipodi-0.dtd"
   xmlns:inkscape="http://www.inkscape.org/namespaces/inkscape"
   width="48"
   height="48"
   version="1"
   id="svg26"
   sodipodi:docname="battery-low-charging.svg"
   inkscape:version="0.92.4 (5da689c313, 2019-01-14)">
  <metadata
     id="metadata32">
    <rdf:RDF>
      <cc:Work
         rdf:about="">
        <dc:format>image/svg+xml</dc:format>
        <dc:type
           rdf:resource="http://purl.org/dc/dcmitype/StillImage" />
      </cc:Work>
    </rdf:RDF>
  </metadata>
  <defs
     id="defs30">
    <linearGradient
       gradientTransform="translate(-1e-7,-0.00424803)"
       inkscape:collect="always"
       xlink:href="#linearGradient3956"
       id="linearGradient3958"
       x1="24.768745"
       y1="40.352169"
       x2="25.098204"
       y2="10.597673"
       gradientUnits="userSpaceOnUse" />
    <linearGradient
       inkscape:collect="always"
       id="linearGradient3956">
      <stop
         style="stop-color:#5bac25;stop-opacity:1"
         offset="0"
         id="stop3952" />
      <stop
         style="stop-color:#a9df6d;stop-opacity:1"
         offset="1"
         id="stop3954" />
    </linearGradient>
  </defs>
  <sodipodi:namedview
     pagecolor="#ffffff"
     bordercolor="#666666"
     borderopacity="1"
     objecttolerance="10"
     gridtolerance="10"
     guidetolerance="10"
     inkscape:pageopacity="0"
     inkscape:pageshadow="2"
     inkscape:window-width="1280"
     inkscape:window-height="954"
     id="namedview28"
     showgrid="false"
     inkscape:zoom="9.8333333"
     inkscape:cx="39.770205"
     inkscape:cy="7.2293778"
     inkscape:window-x="0"
     inkscape:window-y="0"
     inkscape:window-maximized="1"
     inkscape:current-layer="svg26" />
  <rect
     style="opacity:0.2"
     width="32"
     height="36"
     x="8"
     y="9"
     rx="2"
     ry="2"
     id="rect2" />
  <rect
     style="fill:#e4e4e4;fill-opacity:1"
     width="32"
     height="36"
     x="8"
     y="8"
     rx="2"
     ry="2"
     id="rect4" />
  <rect
     style="fill:#e4e4e4;fill-opacity:1"
     width="20"
     height="4"
     x="14"
     y="4"
     id="rect6" />
  <path
     style="opacity:0.2"
     d="m 11,33 v 8 h 26 v -8 z"
     id="path8" />
  <path
     style="opacity:1;fill:#5d5d5d;fill-opacity:1"
     d="m 11,12 v 8 h 26 v -8 z"
     id="path10" />
  <path
     style="opacity:1;fill:#5d5d5d;fill-opacity:1"
     d="m 11,22 v 8 h 26 v -8 z"
     id="path12" />
  <path
     style="opacity:0.2;fill:#ffffff"
     d="M 14,4 V 5 H 34 V 4 Z"
     id="path16" />
  <path
     style="opacity:0.2;fill:#ffffff"
     d="m 11,32 v 1 h 26 v -1 z"
     id="path18" />
  <path
     inkscape:connector-curvature="0"
     style="fill:url(#linearGradient3958);fill-opacity:1"
     d="m 11,31.995752 v 8 h 26 v -8 z"
     id="path10-3"
     sodipodi:nodetypes="ccccc" />
  <g
     id="g3873">
    <path
       id="path20"
       d="M 35.999,27 C 30.46,27 26,31.46 26,37 c 0,5.54 4.4596,10 9.9991,10 5.5395,0 9.9991,-4.46 9.9991,-10 0,-5.54 -4.459,-10 -9.999,-10 z"
       style="opacity:0.2" />
    <path
       id="path22"
       d="M 35.999,26 C 30.46,26 26,30.46 26,36 c 0,5.54 4.4596,10 9.9991,10 5.5395,0 9.9991,-4.46 9.9991,-10 0,-5.54 -4.459,-10 -9.999,-10 z"
       style="fill:#fecd38" />
    <path
       id="path24"
       d="m 35.999,30 v 4 h 4 l -5,8 v -4 h -4 z"
       style="fill:#3f3f3f" />
  </g>
</svg>
