<?xml version="1.0" encoding="UTF-8" standalone="no"?>
<svg
   xmlns:dc="http://purl.org/dc/elements/1.1/"
   xmlns:cc="http://creativecommons.org/ns#"
   xmlns:rdf="http://www.w3.org/1999/02/22-rdf-syntax-ns#"
   xmlns:svg="http://www.w3.org/2000/svg"
   xmlns="http://www.w3.org/2000/svg"
   xmlns:sodipodi="http://sodipodi.sourceforge.net/DTD/sodipodi-0.dtd"
   xmlns:inkscape="http://www.inkscape.org/namespaces/inkscape"
   width="48px"
   height="48px"
   viewBox="0 0 48 48"
   version="1.1"
   id="svg13"
   sodipodi:docname="dialog-warning.svg"
   inkscape:version="0.92.4 (5da689c313, 2019-01-14)">
  <metadata
     id="metadata19">
    <rdf:RDF>
      <cc:Work
         rdf:about="">
        <dc:format>image/svg+xml</dc:format>
        <dc:type
           rdf:resource="http://purl.org/dc/dcmitype/StillImage" />
      </cc:Work>
    </rdf:RDF>
  </metadata>
  <defs
     id="defs17" />
  <sodipodi:namedview
     pagecolor="#ffffff"
     bordercolor="#666666"
     borderopacity="1"
     objecttolerance="10"
     gridtolerance="10"
     guidetolerance="10"
     inkscape:pageopacity="0"
     inkscape:pageshadow="2"
     inkscape:window-width="1280"
     inkscape:window-height="954"
     id="namedview15"
     showgrid="false"
     inkscape:zoom="6.9532167"
     inkscape:cx="27.65547"
     inkscape:cy="27.352902"
     inkscape:window-x="0"
     inkscape:window-y="0"
     inkscape:window-maximized="1"
     inkscape:current-layer="svg13" />
  <g
     transform="matrix(0.0994173,0,0,0.0994173,-0.85432512,-0.85432494)"
     id="g4145"
     style="fill:#ffa623;fill-opacity:1;stroke:#ffa016;stroke-opacity:1">
    <path
       sodipodi:open="true"
       transform="matrix(0.86573191,0,0,1.0834306,578.70143,13.686371)"
       sodipodi:end="6.2827953"
       sodipodi:start="0"
       d="M -133.46341,218.11607 A 246.21698,196.74347 0 0 1 -379.65638,414.85954 246.21698,196.74347 0 0 1 -625.89736,218.15444 246.21698,196.74347 0 0 1 -379.75241,21.372613 246.21698,196.74347 0 0 1 -133.46343,218.03934"
       sodipodi:ry="196.74347"
       sodipodi:rx="246.21698"
       sodipodi:cy="218.11607"
       sodipodi:cx="-379.68039"
       id="path3766"
       style="fill:#ffa623;fill-opacity:1;stroke:#ffa016;stroke-width:24.4549427;stroke-miterlimit:4;stroke-dasharray:none;stroke-opacity:1"
       sodipodi:type="arc" />
  </g>
  <g
     id="g3895"
     transform="matrix(1.2576743,0,0,1.2576743,-6.3280015,-6.8051039)">
    <path
       id="path6-3"
       d="m 23.453125,20.755308 h 1.09375 c 0.246094,0 0.445313,0.222656 0.445313,0.496093 v 3.472657 c 0,0.273437 -0.199219,0.496093 -0.445313,0.496093 h -1.09375 c -0.246094,0 -0.445313,-0.222656 -0.445313,-0.496093 v -3.472657 c 0,-0.273437 0.199219,-0.496093 0.445313,-0.496093 z m 0,0"
       style="fill:#f5f5f5;fill-opacity:1;fill-rule:nonzero;stroke:none"
       inkscape:connector-curvature="0" />
    <path
       id="path8-6"
       d="m 23.488281,26.212339 h 1.023438 c 0.265625,0 0.480469,0.222656 0.480469,0.496094 v 0.992187 c 0,0.273438 -0.214844,0.496094 -0.480469,0.496094 h -1.023438 c -0.265625,0 -0.480469,-0.222656 -0.480469,-0.496094 v -0.992187 c 0,-0.273438 0.214844,-0.496094 0.480469,-0.496094 z m 0,0"
       style="fill:#f5f5f5;fill-opacity:1;fill-rule:nonzero;stroke:none"
       inkscape:connector-curvature="0" />
    <path
       id="path10-7"
       d="m 24,16.290464 -7.9375,13.890625 h 15.875 z m 0,0"
       style="fill:none;stroke:#f5f5f5;stroke-width:1.98562503;stroke-linecap:round;stroke-linejoin:round;stroke-miterlimit:4;stroke-opacity:1"
       inkscape:connector-curvature="0" />
  </g>
</svg>
