<?xml version="1.0" encoding="UTF-8" standalone="no"?>
<svg
   xmlns:dc="http://purl.org/dc/elements/1.1/"
   xmlns:cc="http://creativecommons.org/ns#"
   xmlns:rdf="http://www.w3.org/1999/02/22-rdf-syntax-ns#"
   xmlns:svg="http://www.w3.org/2000/svg"
   xmlns="http://www.w3.org/2000/svg"
   xmlns:sodipodi="http://sodipodi.sourceforge.net/DTD/sodipodi-0.dtd"
   xmlns:inkscape="http://www.inkscape.org/namespaces/inkscape"
   width="48px"
   height="48px"
   viewBox="0 0 48 48"
   version="1.1"
   id="svg9"
   sodipodi:docname="dialog-information.svg"
   inkscape:version="0.92.4 (5da689c313, 2019-01-14)">
  <metadata
     id="metadata15">
    <rdf:RDF>
      <cc:Work
         rdf:about="">
        <dc:format>image/svg+xml</dc:format>
        <dc:type
           rdf:resource="http://purl.org/dc/dcmitype/StillImage" />
      </cc:Work>
    </rdf:RDF>
  </metadata>
  <defs
     id="defs13" />
  <sodipodi:namedview
     pagecolor="#ffffff"
     bordercolor="#666666"
     borderopacity="1"
     objecttolerance="10"
     gridtolerance="10"
     guidetolerance="10"
     inkscape:pageopacity="0"
     inkscape:pageshadow="2"
     inkscape:window-width="1280"
     inkscape:window-height="954"
     id="namedview11"
     showgrid="false"
     inkscape:zoom="9.8333333"
     inkscape:cx="2.5318952"
     inkscape:cy="24.782897"
     inkscape:window-x="0"
     inkscape:window-y="0"
     inkscape:window-maximized="1"
     inkscape:current-layer="svg9" />
  <g
     transform="matrix(0.09806353,0,0,0.09806353,-0.51588262,-0.51588244)"
     id="g4145">
    <path
       sodipodi:open="true"
       transform="matrix(0.86573191,0,0,1.0834306,578.70143,13.686371)"
       sodipodi:end="6.2827953"
       sodipodi:start="0"
       d="M -133.46341,218.11607 A 246.21698,196.74347 0 0 1 -379.65638,414.85954 246.21698,196.74347 0 0 1 -625.89736,218.15444 246.21698,196.74347 0 0 1 -379.75241,21.372613 246.21698,196.74347 0 0 1 -133.46343,218.03934"
       sodipodi:ry="196.74347"
       sodipodi:rx="246.21698"
       sodipodi:cy="218.11607"
       sodipodi:cx="-379.68039"
       id="path3766"
       style="fill:#3fa3f5;fill-opacity:1;stroke:#339df4;stroke-width:24.4549427;stroke-miterlimit:4;stroke-dasharray:none;stroke-opacity:1"
       sodipodi:type="arc" />
    <path
       sodipodi:nodetypes="ccczcccccczcczccc"
       inkscape:connector-curvature="0"
       id="path3779"
       d="m 188.02435,218.87582 99.48436,-0.2867 0.73138,132.79695 c 0,0 -0.27469,3.44382 2.28766,6.24437 2.56235,2.80054 5.11187,2.87833 5.11187,2.87833 l 22.19854,0.1014 0.20275,16.11677 -126.39994,-0.30411 -0.20275,-16.31947 25.84762,0.1014 c 0,0 3.589,-0.43709 5.64493,-3.37642 2.05592,-2.93935 1.55187,-6.15174 1.55187,-6.15174 l -0.1014,-107.34363 c 0,0 0.34921,-2.68046 -3.32396,-5.81619 -3.67319,-3.13574 -7.11645,-2.79968 -7.11645,-2.79968 l -25.74624,-0.30408 z"
       style="fill:#f5f5f5;fill-opacity:1;stroke:none" />
    <path
       sodipodi:open="true"
       sodipodi:end="6.2784904"
       sodipodi:start="0"
       transform="matrix(2.8061966,0,0,2.8061966,-1463.3844,-575.86187)"
       d="m 624.27428,263.50247 a 12.879445,13.131983 0 0 1 -12.86433,13.13198 12.879445,13.131983 0 0 1 -12.89452,-13.10115 12.879445,13.131983 0 0 1 12.83406,-13.16273 12.879445,13.131983 0 0 1 12.92465,13.07025"
       sodipodi:ry="13.131983"
       sodipodi:rx="12.879445"
       sodipodi:cy="263.50247"
       sodipodi:cx="611.39484"
       id="path2997-3"
       style="fill:#f5f5f5;fill-opacity:1;stroke:none"
       sodipodi:type="arc" />
  </g>
</svg>
