<?xml version="1.0" encoding="UTF-8" standalone="no"?>
<!-- Generated by IcoMoon.io -->

<svg
   xmlns:dc="http://purl.org/dc/elements/1.1/"
   xmlns:cc="http://creativecommons.org/ns#"
   xmlns:rdf="http://www.w3.org/1999/02/22-rdf-syntax-ns#"
   xmlns:svg="http://www.w3.org/2000/svg"
   xmlns="http://www.w3.org/2000/svg"
   xmlns:sodipodi="http://sodipodi.sourceforge.net/DTD/sodipodi-0.dtd"
   xmlns:inkscape="http://www.inkscape.org/namespaces/inkscape"
   version="1.1"
   width="48"
   height="48"
   viewBox="0 0 48 48"
   id="svg6"
   sodipodi:docname="microphone-slash.svg"
   inkscape:version="0.92.4 (5da689c313, 2019-01-14)">
  <metadata
     id="metadata12">
    <rdf:RDF>
      <cc:Work
         rdf:about="">
        <dc:format>image/svg+xml</dc:format>
        <dc:type
           rdf:resource="http://purl.org/dc/dcmitype/StillImage" />
        <dc:title>microphone-slash</dc:title>
      </cc:Work>
    </rdf:RDF>
  </metadata>
  <defs
     id="defs10" />
  <sodipodi:namedview
     pagecolor="#ffffff"
     bordercolor="#666666"
     borderopacity="1"
     objecttolerance="10"
     gridtolerance="10"
     guidetolerance="10"
     inkscape:pageopacity="0"
     inkscape:pageshadow="2"
     inkscape:window-width="1280"
     inkscape:window-height="954"
     id="namedview8"
     showgrid="false"
     inkscape:zoom="8.4285714"
     inkscape:cx="6.8474576"
     inkscape:cy="14"
     inkscape:window-x="0"
     inkscape:window-y="0"
     inkscape:window-maximized="1"
     inkscape:current-layer="svg6" />
  <title
     id="title2">microphone-slash</title>
  <path
     d="M 12.202274,27.079564 9.4505458,29.831291 C 8.7146592,28.033426 8.3066084,26.071643 8.3066084,24 v -3.487614 c 0,-0.953862 0.7899446,-1.743807 1.7438076,-1.743807 0.953862,0 1.743807,0.789945 1.743807,1.743807 V 24 c 0,1.061979 0.163918,2.0978 0.408051,3.079564 z M 42.556723,10.675571 32.719908,20.512386 V 24 c 0,4.79547 -3.923566,8.719036 -8.719036,8.719036 -1.035821,0 -2.043742,-0.190075 -2.969703,-0.517911 l -2.615711,2.615711 c 1.661848,0.871903 3.569573,1.389814 5.585414,1.389814 6.729352,0 12.20665,-5.477298 12.20665,-12.20665 v -3.487614 c 0,-0.953862 0.789944,-1.743807 1.743807,-1.743807 0.953862,0 1.743807,0.789945 1.743807,1.743807 V 24 c 0,8.065108 -6.103325,14.7125 -13.950457,15.584404 v 3.597474 h 6.975229 c 0.953862,0 1.743807,0.789945 1.743807,1.743807 0,0.953862 -0.789945,1.743807 -1.743807,1.743807 H 15.281837 c -0.953863,0 -1.743807,-0.789945 -1.743807,-1.743807 0,-0.953862 0.789944,-1.743807 1.743807,-1.743807 h 6.975228 v -3.597474 c -2.315775,-0.245877 -4.495534,-1.035821 -6.403259,-2.20766 l -6.9211709,6.92117 c -0.3539928,0.353993 -0.8998044,0.353993 -1.2537973,0 L 5.445021,42.064098 c -0.3539928,-0.353993 -0.3539928,-0.899805 0,-1.253798 L 39.067365,7.1879561 c 0.353993,-0.3539929 0.899805,-0.3539929 1.253797,0 l 2.233817,2.2338168 c 0.353993,0.3539928 0.353993,0.8998051 0,1.2537981 z M 32.201997,7.0798401 15.281837,24 V 10.049544 c 0,-4.79547 3.923566,-8.7190358 8.719035,-8.7190358 3.759648,0 6.975229,2.4256355 8.201125,5.7493319 z"
     id="path4"
     inkscape:connector-curvature="0"
     style="fill:#eeeeee;stroke-width:1.74380708;fill-opacity:1" />
</svg>
