<?xml version="1.0" encoding="UTF-8" standalone="no"?>
<svg
   xmlns:dc="http://purl.org/dc/elements/1.1/"
   xmlns:cc="http://creativecommons.org/ns#"
   xmlns:rdf="http://www.w3.org/1999/02/22-rdf-syntax-ns#"
   xmlns:svg="http://www.w3.org/2000/svg"
   xmlns="http://www.w3.org/2000/svg"
   xmlns:sodipodi="http://sodipodi.sourceforge.net/DTD/sodipodi-0.dtd"
   xmlns:inkscape="http://www.inkscape.org/namespaces/inkscape"
   width="48"
   height="48"
   viewBox="0 0 48 48"
   version="1.1"
   id="svg5"
   sodipodi:docname="network-wireless-disconnected.svg"
   inkscape:version="0.92.4 (5da689c313, 2019-01-14)">
  <metadata
     id="metadata11">
    <rdf:RDF>
      <cc:Work
         rdf:about="">
        <dc:format>image/svg+xml</dc:format>
        <dc:type
           rdf:resource="http://purl.org/dc/dcmitype/StillImage" />
        <dc:title></dc:title>
      </cc:Work>
    </rdf:RDF>
  </metadata>
  <defs
     id="defs9" />
  <sodipodi:namedview
     pagecolor="#ffffff"
     bordercolor="#666666"
     borderopacity="1"
     objecttolerance="10"
     gridtolerance="10"
     guidetolerance="10"
     inkscape:pageopacity="0"
     inkscape:pageshadow="2"
     inkscape:window-width="1280"
     inkscape:window-height="954"
     id="namedview7"
     showgrid="false"
     inkscape:zoom="7.375"
     inkscape:cx="13.627119"
     inkscape:cy="16"
     inkscape:window-x="0"
     inkscape:window-y="0"
     inkscape:window-maximized="1"
     inkscape:current-layer="svg5" />
  <path
     inkscape:connector-curvature="0"
     id="path2"
     d="m 24,8.6714704 c -6.83347,0 -13.165471,2.0433046 -18.434653,5.5535986 l 2.8366766,4.258757 C 12.855381,15.512425 18.221863,13.783476 24,13.783476 c 5.778137,0 11.144619,1.728949 15.597976,4.70035 l 2.836677,-4.258757 C 37.165471,10.714775 30.83347,8.6714704 24,8.6714704 Z m 0,7.6642646 c -5.254214,0 -10.126709,1.571772 -14.1833811,4.273726 l 2.8366761,4.251272 C 15.894141,22.705159 19.793637,21.44774 24,21.44774 c 4.206363,0 8.105859,1.257419 11.346705,3.412993 l 2.836676,-4.251272 C 34.126709,17.907507 29.254214,16.335735 24,16.335735 Z M 24,24 c -3.68244,0 -7.087948,1.100242 -9.924625,2.993853 l 2.836677,4.251272 c 2.020852,-1.347234 4.460841,-2.13312 7.087948,-2.13312 2.627107,0 5.067096,0.785886 7.087948,2.13312 l 2.836677,-4.251272 C 31.087948,25.100242 27.68244,24 24,24 Z m 0,7.664265 c -2.125636,0 -3.832132,1.706496 -3.832132,3.832132 0,2.125636 1.706496,3.832133 3.832132,3.832133 2.125636,0 3.832132,-1.706497 3.832132,-3.832133 0,-2.125636 -1.706496,-3.832132 -3.832132,-3.832132 z m 0,0"
     style="fill:#ee514f;fill-opacity:1;fill-rule:nonzero;stroke:none;stroke-width:1.91606617" />
</svg>
