<?xml version="1.0" encoding="UTF-8" standalone="no"?>
<svg
   xmlns:dc="http://purl.org/dc/elements/1.1/"
   xmlns:cc="http://creativecommons.org/ns#"
   xmlns:rdf="http://www.w3.org/1999/02/22-rdf-syntax-ns#"
   xmlns:svg="http://www.w3.org/2000/svg"
   xmlns="http://www.w3.org/2000/svg"
   xmlns:sodipodi="http://sodipodi.sourceforge.net/DTD/sodipodi-0.dtd"
   xmlns:inkscape="http://www.inkscape.org/namespaces/inkscape"
   width="48px"
   height="48px"
   viewBox="0 0 48 48"
   version="1.1"
   id="svg7"
   sodipodi:docname="security-high.svg"
   inkscape:version="0.92.4 (5da689c313, 2019-01-14)">
  <metadata
     id="metadata13">
    <rdf:RDF>
      <cc:Work
         rdf:about="">
        <dc:format>image/svg+xml</dc:format>
        <dc:type
           rdf:resource="http://purl.org/dc/dcmitype/StillImage" />
      </cc:Work>
    </rdf:RDF>
  </metadata>
  <defs
     id="defs11" />
  <sodipodi:namedview
     pagecolor="#ffffff"
     bordercolor="#666666"
     borderopacity="1"
     objecttolerance="10"
     gridtolerance="10"
     guidetolerance="10"
     inkscape:pageopacity="0"
     inkscape:pageshadow="2"
     inkscape:window-width="1280"
     inkscape:window-height="954"
     id="namedview9"
     showgrid="false"
     inkscape:zoom="4.9166667"
     inkscape:cx="20.440678"
     inkscape:cy="24"
     inkscape:window-x="0"
     inkscape:window-y="0"
     inkscape:window-maximized="1"
     inkscape:current-layer="svg7" />
  <g
     id="surface1"
     transform="matrix(-1,0,0,1,47.625,0)">
    <path
       style="fill:#66ba68;fill-opacity:1;fill-rule:nonzero;stroke:none"
       d="m 23.789062,2.359375 c -0.21875,0.00391 -0.425781,0.082031 -0.597656,0.21875 -4.507812,3.605469 -13.269531,3.75 -20.214844,3.75 -0.546874,0 -0.992187,0.445313 -0.992187,0.992187 0,8.628907 2.511719,18.167969 6.4375,25.636719 1.964844,3.738281 4.28125,6.960938 6.867187,9.285157 2.585938,2.324218 5.480469,3.773437 8.523438,3.773437 3.042969,0 5.9375,-1.449219 8.523438,-3.773437 2.585937,-2.324219 4.902343,-5.546876 6.867187,-9.285157 3.925781,-7.46875 6.4375,-17.007812 6.4375,-25.636719 0,-0.546874 -0.445313,-0.992187 -0.992187,-0.992187 -6.945313,0 -15.707032,-0.144531 -20.214844,-3.75 C 24.25,2.429688 24.019531,2.351562 23.789062,2.359375 Z m 0,0"
       id="path2"
       inkscape:connector-curvature="0" />
    <path
       style="fill:#f5f5f5;fill-opacity:1;fill-rule:nonzero;stroke:none"
       d="m 14.898438,16.304688 c -0.09766,0 -0.191407,0.02734 -0.277344,0.08594 l -0.824219,0.550781 c -0.230469,0.152344 -0.292969,0.460938 -0.136719,0.6875 l 0.261719,0.394532 c 0.0039,0.0039 0.0078,0.01172 0.0078,0.01562 l 9.054687,13.644532 c 0.167969,0.25 0.4375,0.410156 0.738281,0.4375 0.300782,0.02734 0.59375,-0.08203 0.804688,-0.300782 L 31.222656,24.875 c 0.0039,-0.0039 0.0078,-0.0078 0.01172,-0.01172 l 0.335937,-0.34375 c 0.1875,-0.199219 0.183594,-0.511719 -0.01562,-0.703125 l -0.714844,-0.6875 c -0.199219,-0.191406 -0.511719,-0.183594 -0.699219,0.01172 l -0.484375,0.503906 -5.699219,5.910157 -8.078125,-12.175782 c -0.0078,-0.0078 -0.01172,-0.01953 -0.01953,-0.02734 l -0.550781,-0.824218 c -0.09766,-0.144532 -0.25,-0.222656 -0.410156,-0.222656 z m 0,0"
       id="path4"
       inkscape:connector-curvature="0" />
  </g>
</svg>
