<?xml version="1.0" encoding="UTF-8" standalone="no"?>
<svg
   xmlns:dc="http://purl.org/dc/elements/1.1/"
   xmlns:cc="http://creativecommons.org/ns#"
   xmlns:rdf="http://www.w3.org/1999/02/22-rdf-syntax-ns#"
   xmlns:svg="http://www.w3.org/2000/svg"
   xmlns="http://www.w3.org/2000/svg"
   xmlns:sodipodi="http://sodipodi.sourceforge.net/DTD/sodipodi-0.dtd"
   xmlns:inkscape="http://www.inkscape.org/namespaces/inkscape"
   height="48"
   width="48"
   id="svg2"
   version="1.1"
   sodipodi:docname="address-book-new.svg"
   inkscape:version="0.92.4 (5da689c313, 2019-01-14)">
  <sodipodi:namedview
     pagecolor="#ffffff"
     bordercolor="#666666"
     borderopacity="1"
     objecttolerance="10"
     gridtolerance="10"
     guidetolerance="10"
     inkscape:pageopacity="0"
     inkscape:pageshadow="2"
     inkscape:window-width="1280"
     inkscape:window-height="954"
     id="namedview7"
     showgrid="false"
     inkscape:zoom="10.42331"
     inkscape:cx="20.083654"
     inkscape:cy="5.6240182"
     inkscape:window-x="0"
     inkscape:window-y="0"
     inkscape:window-maximized="1"
     inkscape:current-layer="svg2" />
  <metadata
     id="metadata12">
    <rdf:RDF>
      <cc:Work
         rdf:about="">
        <dc:format>image/svg+xml</dc:format>
        <dc:type
           rdf:resource="http://purl.org/dc/dcmitype/StillImage" />
        <dc:title />
      </cc:Work>
    </rdf:RDF>
  </metadata>
  <defs
     id="defs10" />
  <path
     inkscape:connector-curvature="0"
     id="path6"
     style="color:#000000;overflow:visible;isolation:auto;mix-blend-mode:normal;fill:#eeeeee;fill-opacity:1;stroke-width:3.07135034;marker:none"
     overflow="visible"
     d="m 5.5719028,0.9648729 c -1.7015281,0 -3.0713503,1.3698222 -3.0713503,3.0713503 V 40.892427 c 0,1.701528 1.3698222,3.07135 3.0713503,3.07135 H 24.000005 V 40.861713 L 8.6432531,40.892427 V 4.0362232 H 34.749731 c 0.850764,0 1.535675,0.6849111 1.535675,1.5356752 V 25.511105 h 3.07135 V 4.0362232 c 0,-1.7015281 -1.369822,-3.0713503 -3.07135,-3.0713503 z M 22.427473,13.256417 c -1.477319,-0.09828 -2.923925,0.767837 -3.783903,1.93495 -0.838479,1.511105 -0.153568,3.307845 -0.675697,4.901876 -0.319421,1.142542 0,2.358797 0.829264,3.18499 0.712553,0.896834 1.587888,2.067019 1.099544,3.270988 -0.706411,1.354465 -2.110018,2.149945 -3.3877,2.871712 -0.337848,0.138211 -0.77398,0.374705 -1.136399,0.654198 -0.325564,0.09214 -0.583557,0.337849 -0.583557,0.691054 v 3.215704 c 0,0.423846 0.337849,0.767837 0.767838,0.767837 h 8.390929 c 0.0085,-1.719096 1.404446,-3.108227 3.123563,-3.108206 h 3.019137 v -1.627816 c -1.695385,-0.915262 -3.59348,-1.809025 -4.542527,-3.596551 -0.325563,-1.418964 0.672626,-2.662861 1.547961,-3.648764 0.863049,-1.096472 0.522129,-2.543078 0.221137,-3.771618 -0.125925,-1.357537 0.310206,-2.966925 -0.700268,-4.078754 -1.096472,-1.111828 -2.678217,-1.566388 -4.18625,-1.6616 z"
     sodipodi:nodetypes="ssssccccssccssscccccccssscccccccccc" />
  <g
     id="g3950"
     style="fill:#eeeeee;fill-opacity:1"
     transform="matrix(1,0,0,0.94149189,13.371022,-12.386941)">
    <rect
       ry="3.2863801"
       rx="3.15604"
       y="43.184196"
       x="20.421267"
       height="19.677029"
       width="5.0825171"
       id="rect3931"
       style="opacity:1;fill:#eeeeee;fill-opacity:1;stroke:none;stroke-width:1;stroke-linecap:round;stroke-linejoin:round;stroke-miterlimit:4;stroke-dasharray:none;stroke-opacity:1" />
    <rect
       transform="matrix(0,1,1,0,0,0)"
       ry="3.2863801"
       rx="3.15604"
       y="12.884314"
       x="50.385574"
       height="19.677029"
       width="5.0825171"
       id="rect3931-2"
       style="opacity:1;fill:#eeeeee;fill-opacity:1;stroke:none;stroke-width:1;stroke-linecap:round;stroke-linejoin:round;stroke-miterlimit:4;stroke-dasharray:none;stroke-opacity:1" />
  </g>
</svg>
