<?xml version="1.0" encoding="UTF-8" standalone="no"?>
<svg
   xmlns:dc="http://purl.org/dc/elements/1.1/"
   xmlns:cc="http://creativecommons.org/ns#"
   xmlns:rdf="http://www.w3.org/1999/02/22-rdf-syntax-ns#"
   xmlns:svg="http://www.w3.org/2000/svg"
   xmlns="http://www.w3.org/2000/svg"
   xmlns:sodipodi="http://sodipodi.sourceforge.net/DTD/sodipodi-0.dtd"
   xmlns:inkscape="http://www.inkscape.org/namespaces/inkscape"
   width="48"
   height="48"
   version="1.1"
   viewBox="0 0 48 48"
   id="svg7"
   sodipodi:docname="appointment-soon.svg"
   inkscape:version="0.92.4 (5da689c313, 2019-01-14)">
  <metadata
     id="metadata11">
    <rdf:RDF>
      <cc:Work
         rdf:about="">
        <dc:format>image/svg+xml</dc:format>
        <dc:type
           rdf:resource="http://purl.org/dc/dcmitype/StillImage" />
        <dc:title></dc:title>
      </cc:Work>
    </rdf:RDF>
  </metadata>
  <sodipodi:namedview
     pagecolor="#ffffff"
     bordercolor="#666666"
     borderopacity="1"
     objecttolerance="10"
     gridtolerance="10"
     guidetolerance="10"
     inkscape:pageopacity="0"
     inkscape:pageshadow="2"
     inkscape:window-width="1280"
     inkscape:window-height="954"
     id="namedview9"
     showgrid="false"
     inkscape:zoom="5.2149125"
     inkscape:cx="-37.681227"
     inkscape:cy="5.6464903"
     inkscape:window-x="0"
     inkscape:window-y="0"
     inkscape:window-maximized="1"
     inkscape:current-layer="svg7" />
  <defs
     id="defs3">
    <style
       id="current-color-scheme"
       type="text/css">
   .ColorScheme-Text { color:#444444; } .ColorScheme-Highlight { color:#4285f4; }
  </style>
  </defs>
  <path
     style="color:#444444;fill:#eeeeee;fill-opacity:1;stroke-width:2.78238368"
     class="ColorScheme-Text"
     d="m 5.2330814,3.8898307 c -2.8872181,0 -2.8872181,2.6813561 -2.8872181,2.6813561 V 38.747457 c 0,2.681356 2.8872181,2.681356 2.8872181,2.681356 H 24.755638 C 23.358873,40.185771 23.08684,39.495382 22.652255,38.079678 H 6.106723 V 13.269457 h 32.899334 v 9.473657 c 2.031195,0.588326 2.373236,0.848661 3.760861,1.953411 V 6.5711868 c 0,-2.6813561 -2.887218,-2.6813561 -2.887218,-2.6813561 z M 35.548873,25.340677 c -5.580984,-1e-6 -10.105265,4.201693 -10.105265,9.384746 0,5.183053 4.524281,9.384747 10.105265,9.384746 5.580983,10e-7 10.105264,-4.201693 10.105264,-9.384746 0,-5.183053 -4.524281,-9.384747 -10.105264,-9.384746 z m -1.44361,2.681356 h 2.887218 v 5.362713 h 5.774437 v 2.681356 h -5.774437 -2.887218 v -2.681356 z"
     id="path5"
     inkscape:connector-curvature="0"
     sodipodi:nodetypes="scsccccccccscssssssccccccccc" />
</svg>
