<?xml version="1.0" encoding="UTF-8" standalone="no"?>
<svg
   xmlns:dc="http://purl.org/dc/elements/1.1/"
   xmlns:cc="http://creativecommons.org/ns#"
   xmlns:rdf="http://www.w3.org/1999/02/22-rdf-syntax-ns#"
   xmlns:svg="http://www.w3.org/2000/svg"
   xmlns="http://www.w3.org/2000/svg"
   xmlns:sodipodi="http://sodipodi.sourceforge.net/DTD/sodipodi-0.dtd"
   xmlns:inkscape="http://www.inkscape.org/namespaces/inkscape"
   width="48"
   height="48"
   viewBox="0 0 48 48"
   version="1.1"
   id="svg7"
   sodipodi:docname="audio-ready.svg"
   inkscape:version="0.92.4 (5da689c313, 2019-01-14)">
  <metadata
     id="metadata11">
    <rdf:RDF>
      <cc:Work
         rdf:about="">
        <dc:format>image/svg+xml</dc:format>
        <dc:type
           rdf:resource="http://purl.org/dc/dcmitype/StillImage" />
        <dc:title />
      </cc:Work>
    </rdf:RDF>
  </metadata>
  <sodipodi:namedview
     pagecolor="#ffffff"
     bordercolor="#666666"
     borderopacity="1"
     objecttolerance="10"
     gridtolerance="10"
     guidetolerance="10"
     inkscape:pageopacity="0"
     inkscape:pageshadow="2"
     inkscape:window-width="1280"
     inkscape:window-height="954"
     id="namedview9"
     showgrid="false"
     inkscape:zoom="14.75"
     inkscape:cx="5.6271186"
     inkscape:cy="10.711864"
     inkscape:window-x="0"
     inkscape:window-y="0"
     inkscape:window-maximized="1"
     inkscape:current-layer="svg7" />
  <defs
     id="defs3">
    <style
       id="current-color-scheme"
       type="text/css">
   .ColorScheme-Text { color:#444444; } .ColorScheme-Highlight { color:#4285f4; }
  </style>
  </defs>
  <path
     inkscape:connector-curvature="0"
     style="fill:#5c626c;fill-opacity:0.50196081;stroke-width:2.36715579"
     d="m 28.771483,3.2519528 v 4.8789065 c 3.476563,1.035236 6.305764,2.9960847 8.488282,5.8808597 2.182518,2.884774 3.273437,6.213082 3.273437,9.986328 0,3.773247 -1.090919,7.101555 -3.273437,9.986328 -2.182518,2.884774 -5.011719,4.845624 -8.488282,5.88086 v 4.882812 C 33.579965,43.712811 37.537244,41.252854 40.64453,37.369141 43.751817,33.485427 45.304687,29.029417 45.304687,24 c 0,-5.029417 -1.55287,-9.485427 -4.660157,-13.369142 C 37.537244,6.7471455 33.579965,4.287189 28.771483,3.2519528 Z M 23.998046,5.0273435 12.125,16.900391 H 11.59375 V 31.101563 H 12.125 l 11.873046,11.873046 z m 4.773438,9.4316415 v 19.085937 c 3.920009,-1.92213 5.878906,-5.103763 5.878906,-9.542969 h 0.0039 c 0,-1.849538 -0.575373,-3.697337 -1.722657,-5.546875 -1.147275,-1.849538 -2.533124,-3.181792 -4.16015,-3.996093 z M 2.6953125,16.900391 v 14.201172 h 6.761719 V 16.900391 Z"
     id="path4" />
</svg>
