<?xml version="1.0" encoding="UTF-8" standalone="no"?>
<!-- Generated by IcoMoon.io -->

<svg
   xmlns:dc="http://purl.org/dc/elements/1.1/"
   xmlns:cc="http://creativecommons.org/ns#"
   xmlns:rdf="http://www.w3.org/1999/02/22-rdf-syntax-ns#"
   xmlns:svg="http://www.w3.org/2000/svg"
   xmlns="http://www.w3.org/2000/svg"
   xmlns:sodipodi="http://sodipodi.sourceforge.net/DTD/sodipodi-0.dtd"
   xmlns:inkscape="http://www.inkscape.org/namespaces/inkscape"
   version="1.1"
   width="48"
   height="48"
   viewBox="0 0 48 48"
   id="svg6"
   sodipodi:docname="audio-volume-low-symbolic.svg"
   inkscape:version="0.92.4 (5da689c313, 2019-01-14)">
  <metadata
     id="metadata12">
    <rdf:RDF>
      <cc:Work
         rdf:about="">
        <dc:format>image/svg+xml</dc:format>
        <dc:type
           rdf:resource="http://purl.org/dc/dcmitype/StillImage" />
        <dc:title>volume_up</dc:title>
      </cc:Work>
    </rdf:RDF>
  </metadata>
  <defs
     id="defs10" />
  <sodipodi:namedview
     pagecolor="#ffffff"
     bordercolor="#666666"
     borderopacity="1"
     objecttolerance="10"
     gridtolerance="10"
     guidetolerance="10"
     inkscape:pageopacity="0"
     inkscape:pageshadow="2"
     inkscape:window-width="1280"
     inkscape:window-height="954"
     id="namedview8"
     showgrid="false"
     inkscape:zoom="9.8333333"
     inkscape:cx="6.661017"
     inkscape:cy="7.9322034"
     inkscape:window-x="0"
     inkscape:window-y="0"
     inkscape:window-maximized="1"
     inkscape:current-layer="svg6" />
  <title
     id="title2">volume_up</title>
  <path
     inkscape:connector-curvature="0"
     style="fill:#b3b3b3;fill-opacity:1;stroke-width:2.36715579"
     d="m 28.77539,3.253906 v 4.878906 c 3.476563,1.035236 6.305764,2.996085 8.488282,5.88086 2.182518,2.884774 3.273437,6.213082 3.273437,9.986328 0,3.773247 -1.090919,7.101555 -3.273437,9.986328 -2.182518,2.884774 -5.011719,4.845624 -8.488282,5.88086 V 44.75 c 4.808482,-1.035236 8.765761,-3.495193 11.873047,-7.378906 3.107287,-3.883714 4.660157,-8.339724 4.660157,-13.369141 0,-5.029417 -1.55287,-9.485427 -4.660157,-13.369142 C 37.541151,6.749098 33.583872,4.289142 28.77539,3.253906 Z m -4.773437,1.77539 -11.873047,11.873048 h -0.53125 v 14.201172 h 0.53125 l 11.873047,11.873046 z m 4.773437,9.431642 v 19.085937 c 3.92001,-1.92213 5.878907,-5.103763 5.878907,-9.542969 h 0.0039 c 0,-1.849538 -0.575373,-3.697337 -1.722656,-5.546875 -1.147275,-1.849538 -2.533124,-3.181792 -4.160151,-3.996093 z M 2.699219,16.902344 V 31.103516 H 9.460937 V 16.902344 Z"
     id="path4-3" />
  <path
     style="fill:#eeeeee;fill-opacity:1;stroke-width:2.36715579"
     d="M 23.998047,5.0292969 12.125,16.902344 H 11.59375 V 31.103516 H 12.125 L 23.998047,42.976562 Z M 2.6953125,16.902344 V 31.103516 H 9.4570312 V 16.902344 Z"
     id="path4"
     inkscape:connector-curvature="0"
     sodipodi:nodetypes="cccccccccccc" />
</svg>
