<?xml version="1.0" encoding="UTF-8" standalone="no"?>
<!-- Generated by IcoMoon.io -->

<svg
   xmlns:dc="http://purl.org/dc/elements/1.1/"
   xmlns:cc="http://creativecommons.org/ns#"
   xmlns:rdf="http://www.w3.org/1999/02/22-rdf-syntax-ns#"
   xmlns:svg="http://www.w3.org/2000/svg"
   xmlns="http://www.w3.org/2000/svg"
   xmlns:sodipodi="http://sodipodi.sourceforge.net/DTD/sodipodi-0.dtd"
   xmlns:inkscape="http://www.inkscape.org/namespaces/inkscape"
   version="1.1"
   width="48"
   height="48"
   viewBox="0 0 48 48"
   id="svg6"
   sodipodi:docname="player-volume-muted.svg"
   inkscape:version="0.92.4 (5da689c313, 2019-01-14)">
  <metadata
     id="metadata12">
    <rdf:RDF>
      <cc:Work
         rdf:about="">
        <dc:format>image/svg+xml</dc:format>
        <dc:type
           rdf:resource="http://purl.org/dc/dcmitype/StillImage" />
        <dc:title>volume_up</dc:title>
      </cc:Work>
    </rdf:RDF>
  </metadata>
  <defs
     id="defs10" />
  <sodipodi:namedview
     pagecolor="#ffffff"
     bordercolor="#666666"
     borderopacity="1"
     objecttolerance="10"
     gridtolerance="10"
     guidetolerance="10"
     inkscape:pageopacity="0"
     inkscape:pageshadow="2"
     inkscape:window-width="1280"
     inkscape:window-height="954"
     id="namedview8"
     showgrid="false"
     inkscape:zoom="13.906433"
     inkscape:cx="21.022723"
     inkscape:cy="23.72462"
     inkscape:window-x="0"
     inkscape:window-y="0"
     inkscape:window-maximized="1"
     inkscape:current-layer="svg6" />
  <title
     id="title2">volume_up</title>
  <path
     style="opacity:1;stroke-width:2.37184882;fill:#ee514f;fill-opacity:1"
     d="M 5.4136825,2.932594 2.3684005,5.8924213 13.747423,16.972352 h -2.072267 v 14.045584 h 0.269957 l 12.054888,11.74026 v -15.79934 l 10.252579,9.984562 c -1.727232,1.317051 -3.529087,2.232409 -5.406929,2.744249 v 4.82817 c 3.379154,-0.803651 6.307571,-2.229623 8.786258,-4.278542 l 4.958292,4.830111 3.041398,-2.963712 z M 28.84565,3.4802786 v 4.830112 c 3.529766,1.0236788 6.401375,2.9622074 8.617292,5.8147774 2.215916,2.852572 3.32495,6.142735 3.32495,9.873861 l 0.0019,-0.0019 c 0,2.120703 -0.414267,4.169367 -1.241029,6.144945 l 3.606561,3.620156 c 1.651925,-3.072601 2.476234,-6.327347 2.476234,-9.765101 0,-4.973273 -1.576225,-9.379812 -4.731064,-13.220172 C 37.745747,6.9365086 33.727766,4.5039128 28.845697,3.4802329 Z m -4.843707,1.7556981 -5.068995,4.9388713 5.068995,4.936929 z m 4.843706,9.3261753 v 5.156391 l 5.859448,5.706018 c 0.07531,-0.29181 0.112647,-0.767006 0.112647,-1.425532 0,-1.828891 -0.583094,-3.657666 -1.74793,-5.486558 -1.164839,-1.828891 -2.572238,-3.145108 -4.224165,-3.950319 z m -26.4772485,2.4102 V 31.017936 H 9.639788 V 16.972352 Z"
     id="path4-3"
     inkscape:connector-curvature="0" />
</svg>
