<?xml version="1.0" encoding="UTF-8" standalone="no"?>
<svg
   xmlns:dc="http://purl.org/dc/elements/1.1/"
   xmlns:cc="http://creativecommons.org/ns#"
   xmlns:rdf="http://www.w3.org/1999/02/22-rdf-syntax-ns#"
   xmlns:svg="http://www.w3.org/2000/svg"
   xmlns="http://www.w3.org/2000/svg"
   xmlns:sodipodi="http://sodipodi.sourceforge.net/DTD/sodipodi-0.dtd"
   xmlns:inkscape="http://www.inkscape.org/namespaces/inkscape"
   width="48"
   height="48"
   viewBox="0 0 48 48"
   version="1.1"
   id="svg7"
   sodipodi:docname="camera-on.svg"
   inkscape:version="0.92.4 (5da689c313, 2019-01-14)">
  <metadata
     id="metadata11">
    <rdf:RDF>
      <cc:Work
         rdf:about="">
        <dc:format>image/svg+xml</dc:format>
        <dc:type
           rdf:resource="http://purl.org/dc/dcmitype/StillImage" />
        <dc:title></dc:title>
      </cc:Work>
    </rdf:RDF>
  </metadata>
  <sodipodi:namedview
     pagecolor="#ffffff"
     bordercolor="#666666"
     borderopacity="1"
     objecttolerance="10"
     gridtolerance="10"
     guidetolerance="10"
     inkscape:pageopacity="0"
     inkscape:pageshadow="2"
     inkscape:window-width="1280"
     inkscape:window-height="954"
     id="namedview9"
     showgrid="false"
     inkscape:zoom="7.375"
     inkscape:cx="6.6373957"
     inkscape:cy="21.838007"
     inkscape:window-x="0"
     inkscape:window-y="0"
     inkscape:window-maximized="1"
     inkscape:current-layer="svg7" />
  <defs
     id="defs3">
    <style
       id="current-color-scheme"
       type="text/css">
   .ColorScheme-Text { color:#444444; } .ColorScheme-Highlight { color:#4285f4; }
  </style>
  </defs>
  <path
     style="color:#4285f4;fill:currentColor;stroke-width:3.12106538"
     class="ColorScheme-Highlight"
     d="m 23.999999,2.152542 c -10.342273,0 -18.7263908,8.384119 -18.7263908,18.726393 0,6.513663 3.342037,12.250494 8.3878628,15.605327 h -2.145732 c -6.2421308,0 -6.2421308,6.242131 -6.2421308,6.242131 v 3.121065 H 42.726392 v -3.121065 c 0,0 0,-6.242131 -6.24213,-6.242131 h -2.145733 c 5.045827,-3.354833 8.387863,-9.091664 8.387863,-15.605327 0,-10.342274 -8.384117,-18.726393 -18.726393,-18.726393 z m 0,12.496453 a 6.2421307,6.2421307 0 0 1 6.242131,6.242131 6.2421307,6.2421307 0 0 1 -6.242131,6.242131 6.2421307,6.2421307 0 0 1 -6.24213,-6.242131 6.2421307,6.2421307 0 0 1 6.24213,-6.242131 z"
     id="path5-3"
     inkscape:connector-curvature="0" />
</svg>
