<?xml version="1.0" encoding="UTF-8" standalone="no"?>
<svg
   xmlns:dc="http://purl.org/dc/elements/1.1/"
   xmlns:cc="http://creativecommons.org/ns#"
   xmlns:rdf="http://www.w3.org/1999/02/22-rdf-syntax-ns#"
   xmlns:svg="http://www.w3.org/2000/svg"
   xmlns="http://www.w3.org/2000/svg"
   xmlns:sodipodi="http://sodipodi.sourceforge.net/DTD/sodipodi-0.dtd"
   xmlns:inkscape="http://www.inkscape.org/namespaces/inkscape"
   width="48"
   height="48"
   version="1.1"
   id="svg8"
   sodipodi:docname="camera-switch-symbolic.svg"
   inkscape:version="0.92.4 (5da689c313, 2019-01-14)">
  <metadata
     id="metadata14">
    <rdf:RDF>
      <cc:Work
         rdf:about="">
        <dc:format>image/svg+xml</dc:format>
        <dc:type
           rdf:resource="http://purl.org/dc/dcmitype/StillImage" />
        <dc:title />
      </cc:Work>
    </rdf:RDF>
  </metadata>
  <defs
     id="defs12" />
  <sodipodi:namedview
     pagecolor="#ffffff"
     bordercolor="#666666"
     borderopacity="1"
     objecttolerance="10"
     gridtolerance="10"
     guidetolerance="10"
     inkscape:pageopacity="0"
     inkscape:pageshadow="2"
     inkscape:window-width="1280"
     inkscape:window-height="954"
     id="namedview10"
     showgrid="false"
     inkscape:zoom="10.429825"
     inkscape:cx="-9.1745029"
     inkscape:cy="11.824184"
     inkscape:window-x="0"
     inkscape:window-y="0"
     inkscape:window-maximized="1"
     inkscape:current-layer="svg8" />
  <path
     inkscape:connector-curvature="0"
     id="path2"
     overflow="visible"
     style="color:#bebebe;overflow:visible;fill:#eeeeee;stroke-width:2.81791043;marker:none;fill-opacity:1"
     d="m 38.839116,30.9856 6.168406,-6.974328 h 1.535761 V 38.112095 H 45.038519 Z M 21.18209,21.190543 h 14.089552 c 1.561122,0 2.81791,1.256788 2.81791,2.817911 v 14.089552 c 0,1.561122 -1.256788,2.81791 -2.81791,2.81791 H 21.18209 c -1.561123,0 -2.817911,-1.256788 -2.817911,-2.81791 V 24.008454 c 0,-1.561123 1.256788,-2.817911 2.817911,-2.817911 z" />
  <path
     inkscape:connector-curvature="0"
     id="path4"
     overflow="visible"
     style="color:#bebebe;overflow:visible;opacity:0.5;fill:#5c616c;stroke-width:2.81791043;marker:none;fill-opacity:1"
     d="m 12.728358,7.0840838 c -1.561122,0 -2.81791,1.2567881 -2.81791,2.8179104 V 24.01409 c 0,1.561122 1.256788,2.81791 2.81791,2.81791 h 2.812275 v -2.823546 c 0,-2.958806 2.682651,-5.655546 5.641457,-5.641457 h 8.453731 V 9.9019942 c 0,-1.5611223 -1.256788,-2.8179104 -2.817911,-2.8179104 z M 1.4567168,9.9301733 V 24.033815 h 1.352597 l 6.35157,-7.289934 -5.9824237,-6.8165256 z" />
</svg>
