<?xml version="1.0" encoding="UTF-8" standalone="no"?>
<svg
   xmlns:dc="http://purl.org/dc/elements/1.1/"
   xmlns:cc="http://creativecommons.org/ns#"
   xmlns:rdf="http://www.w3.org/1999/02/22-rdf-syntax-ns#"
   xmlns:svg="http://www.w3.org/2000/svg"
   xmlns="http://www.w3.org/2000/svg"
   xmlns:sodipodi="http://sodipodi.sourceforge.net/DTD/sodipodi-0.dtd"
   xmlns:inkscape="http://www.inkscape.org/namespaces/inkscape"
   width="48"
   height="48"
   viewBox="0 0 48 48"
   version="1.1"
   id="svg7"
   sodipodi:docname="camera-off.svg"
   inkscape:version="0.92.4 (5da689c313, 2019-01-14)">
  <metadata
     id="metadata11">
    <rdf:RDF>
      <cc:Work
         rdf:about="">
        <dc:format>image/svg+xml</dc:format>
        <dc:type
           rdf:resource="http://purl.org/dc/dcmitype/StillImage" />
        <dc:title></dc:title>
      </cc:Work>
    </rdf:RDF>
  </metadata>
  <sodipodi:namedview
     pagecolor="#ffffff"
     bordercolor="#666666"
     borderopacity="1"
     objecttolerance="10"
     gridtolerance="10"
     guidetolerance="10"
     inkscape:pageopacity="0"
     inkscape:pageshadow="2"
     inkscape:window-width="1280"
     inkscape:window-height="954"
     id="namedview9"
     showgrid="false"
     inkscape:zoom="7.375"
     inkscape:cx="0.56110252"
     inkscape:cy="7.7791327"
     inkscape:window-x="0"
     inkscape:window-y="0"
     inkscape:window-maximized="1"
     inkscape:current-layer="svg7" />
  <defs
     id="defs3">
    <style
       id="current-color-scheme"
       type="text/css">
   .ColorScheme-Text { color:#444444; } .ColorScheme-Highlight { color:#4285f4; }
  </style>
  </defs>
  <path
     style="color:#4285f4;fill:#eeeeee;stroke-width:3.12106538;fill-opacity:1"
     class="ColorScheme-Highlight"
     d="m 24,2.1525424 c -10.342274,0 -18.726392,8.3841186 -18.726392,18.7263926 0,6.513663 3.3420368,12.250494 8.387863,15.605327 h -2.145732 c -6.242131,0 -6.242131,6.242131 -6.242131,6.242131 v 3.121065 h 37.452784 v -3.121065 c 0,0 0,-6.242131 -6.24213,-6.242131 H 34.338529 C 39.384356,33.129429 42.726392,27.392598 42.726392,20.878935 42.726392,10.536661 34.342275,2.1525424 24,2.1525424 Z M 24,14.648995 A 6.2421307,6.2421307 0 0 1 30.242131,20.891126 6.2421307,6.2421307 0 0 1 24,27.133257 6.2421307,6.2421307 0 0 1 17.757869,20.891126 6.2421307,6.2421307 0 0 1 24,14.648995 Z"
     id="path5"
     inkscape:connector-curvature="0" />
</svg>
