<?xml version="1.0" encoding="UTF-8" standalone="no"?>
<svg
   xmlns:dc="http://purl.org/dc/elements/1.1/"
   xmlns:cc="http://creativecommons.org/ns#"
   xmlns:rdf="http://www.w3.org/1999/02/22-rdf-syntax-ns#"
   xmlns:svg="http://www.w3.org/2000/svg"
   xmlns="http://www.w3.org/2000/svg"
   xmlns:sodipodi="http://sodipodi.sourceforge.net/DTD/sodipodi-0.dtd"
   xmlns:inkscape="http://www.inkscape.org/namespaces/inkscape"
   width="48"
   height="48"
   viewBox="0 0 48 48"
   version="1.1"
   id="svg7"
   sodipodi:docname="configure-shortcuts.svg"
   inkscape:version="0.92.4 (5da689c313, 2019-01-14)">
  <metadata
     id="metadata11">
    <rdf:RDF>
      <cc:Work
         rdf:about="">
        <dc:format>image/svg+xml</dc:format>
        <dc:type
           rdf:resource="http://purl.org/dc/dcmitype/StillImage" />
        <dc:title />
      </cc:Work>
    </rdf:RDF>
  </metadata>
  <sodipodi:namedview
     pagecolor="#ffffff"
     bordercolor="#666666"
     borderopacity="1"
     objecttolerance="10"
     gridtolerance="10"
     guidetolerance="10"
     inkscape:pageopacity="0"
     inkscape:pageshadow="2"
     inkscape:window-width="1280"
     inkscape:window-height="954"
     id="namedview9"
     showgrid="false"
     inkscape:zoom="7.375"
     inkscape:cx="-3.2017806"
     inkscape:cy="4.2581848"
     inkscape:window-x="0"
     inkscape:window-y="0"
     inkscape:window-maximized="1"
     inkscape:current-layer="svg7" />
  <defs
     id="defs3">
    <style
       type="text/css"
       id="current-color-scheme">
   .ColorScheme-Text { color:#5c616c; } .ColorScheme-Highlight { color:#5294e2; } .ColorScheme-ButtonBackground { color:#d3dae3; }
  </style>
  </defs>
  <path
     style="color:#5c616c;opacity:1;fill:#eeeeee;stroke-width:3;fill-opacity:1"
     class="ColorScheme-Text"
     d="m 7.5,6 c 0,0 -6,0 -6,6 v 24 c 0,6 6,6 6,6 h 33 c 0,0 6,0 6,-6 V 12 c 0,-6 -6,-6 -6,-6 z m 0.75,6 h 4.5 c 0.4155,0 0.75,0.3345 0.75,0.75 v 4.5 C 13.5,17.6655 13.1655,18 12.75,18 H 8.25 C 7.8345,18 7.5,17.6655 7.5,17.25 v -4.5 C 7.5,12.3345 7.8345,12 8.25,12 Z m 9,0 h 4.500001 C 22.1655,12 22.5,12.3345 22.5,12.75 v 4.5 C 22.5,17.6655 22.1655,18 21.750001,18 H 17.25 C 16.834499,18 16.5,17.6655 16.5,17.25 v -4.5 C 16.5,12.3345 16.834499,12 17.25,12 Z m 9,0 h 4.5 c 0.4155,0 0.75,0.3345 0.75,0.75 v 4.5 c 0,0.4155 -0.3345,0.75 -0.75,0.75 h -4.5 C 25.8345,18 25.5,17.6655 25.5,17.25 v -4.5 C 25.5,12.3345 25.8345,12 26.25,12 Z m 9,0 h 4.5 c 0.4155,0 0.75,0.3345 0.75,0.75 v 4.5 c 0,0.4155 -0.3345,0.75 -0.75,0.75 h -4.5 C 34.8345,18 34.5,17.6655 34.5,17.25 v -4.5 C 34.5,12.3345 34.8345,12 35.25,12 Z m -27,9 h 4.5 c 0.4155,0 0.75,0.3345 0.75,0.749999 V 26.25 C 13.5,26.665501 13.1655,27 12.75,27 H 8.25 C 7.8345,27 7.5,26.665501 7.5,26.25 V 21.749999 C 7.5,21.3345 7.8345,21 8.25,21 Z m 9,0 h 4.500001 C 22.1655,21 22.5,21.3345 22.5,21.749999 V 26.25 C 22.5,26.665501 22.1655,27 21.750001,27 H 17.25 C 16.834499,27 16.5,26.665501 16.5,26.25 V 21.749999 C 16.5,21.3345 16.834499,21 17.25,21 Z m 9,0 h 4.5 c 0.4155,0 0.75,0.3345 0.75,0.749999 V 26.25 c 0,0.415501 -0.3345,0.75 -0.75,0.75 h -4.5 C 25.8345,27 25.5,26.665501 25.5,26.25 V 21.749999 C 25.5,21.3345 25.8345,21 26.25,21 Z m 9,0 h 4.5 c 0.4155,0 0.75,0.3345 0.75,0.749999 V 26.25 c 0,0.415501 -0.3345,0.75 -0.75,0.75 h -4.5 C 34.8345,27 34.5,26.665501 34.5,26.25 V 21.749999 C 34.5,21.3345 34.8345,21 35.25,21 Z m -21,9 h 19.5 c 0.4155,0 0.75,0.3345 0.75,0.75 v 4.5 C 34.5,35.6655 34.1655,36 33.75,36 H 14.25 C 13.8345,36 13.5,35.6655 13.5,35.25 v -4.5 C 13.5,30.3345 13.8345,30 14.25,30 Z"
     id="path5"
     inkscape:connector-curvature="0" />
</svg>
