<?xml version="1.0" encoding="UTF-8" standalone="no"?>
<svg
   xmlns:dc="http://purl.org/dc/elements/1.1/"
   xmlns:cc="http://creativecommons.org/ns#"
   xmlns:rdf="http://www.w3.org/1999/02/22-rdf-syntax-ns#"
   xmlns:svg="http://www.w3.org/2000/svg"
   xmlns="http://www.w3.org/2000/svg"
   xmlns:sodipodi="http://sodipodi.sourceforge.net/DTD/sodipodi-0.dtd"
   xmlns:inkscape="http://www.inkscape.org/namespaces/inkscape"
   width="48"
   height="48"
   viewBox="0 0 48 48"
   version="1.1"
   id="svg7"
   sodipodi:docname="configure.svg"
   inkscape:version="0.92.4 (5da689c313, 2019-01-14)">
  <metadata
     id="metadata11">
    <rdf:RDF>
      <cc:Work
         rdf:about="">
        <dc:format>image/svg+xml</dc:format>
        <dc:type
           rdf:resource="http://purl.org/dc/dcmitype/StillImage" />
        <dc:title />
      </cc:Work>
    </rdf:RDF>
  </metadata>
  <sodipodi:namedview
     pagecolor="#ffffff"
     bordercolor="#666666"
     borderopacity="1"
     objecttolerance="10"
     gridtolerance="10"
     guidetolerance="10"
     inkscape:pageopacity="0"
     inkscape:pageshadow="2"
     inkscape:window-width="1280"
     inkscape:window-height="954"
     id="namedview9"
     showgrid="false"
     inkscape:zoom="5.2149125"
     inkscape:cx="0.7514663"
     inkscape:cy="-8.9585538"
     inkscape:window-x="0"
     inkscape:window-y="0"
     inkscape:window-maximized="1"
     inkscape:current-layer="svg7" />
  <defs
     id="defs3">
    <style
       type="text/css"
       id="current-color-scheme">
   .ColorScheme-Text { color:#5c616c; } .ColorScheme-Highlight { color:#5294e2; } .ColorScheme-ButtonBackground { color:#d3dae3; }
  </style>
  </defs>
  <path
     style="color:#5c616c;opacity:1;fill:#eeeeee;stroke-width:3.22570729;fill-opacity:1"
     class="ColorScheme-Text"
     d="M 18.361307,1.4168994 17.863591,7.3642972 A 17.74139,17.74139 0 0 0 12.678518,10.363196 L 7.2729387,7.8179122 1.627951,17.595838 6.5358143,21.004252 a 17.74139,17.74139 0 0 0 -0.2709091,2.992598 17.74139,17.74139 0 0 0 0.2583085,3.005202 l -4.8952627,3.395811 5.6449877,9.777925 5.3929793,-2.538983 a 17.74139,17.74139 0 0 0 5.197673,2.979999 l 0.485116,5.966297 h 11.289975 l 0.497717,-5.947398 a 17.74139,17.74139 0 0 0 5.185071,-2.998898 l 5.405582,2.545283 5.644987,-9.777925 -4.907865,-3.408414 a 17.74139,17.74139 0 0 0 0.270927,-2.992599 17.74139,17.74139 0 0 0 -0.258314,-3.005201 l 4.895262,-3.395812 -5.644988,-9.777925 -5.392979,2.538984 A 17.74139,17.74139 0 0 0 30.136399,7.3831966 L 29.651283,1.4168994 Z m 5.644988,16.1285366 a 6.4514145,6.4514145 0 0 1 6.451415,6.451414 6.4514145,6.4514145 0 0 1 -6.451415,6.451415 6.4514145,6.4514145 0 0 1 -6.451414,-6.451415 6.4514145,6.4514145 0 0 1 6.451414,-6.451414 z"
     id="path5"
     inkscape:connector-curvature="0" />
</svg>
