<?xml version="1.0" encoding="UTF-8" standalone="no"?>
<svg
   xmlns:dc="http://purl.org/dc/elements/1.1/"
   xmlns:cc="http://creativecommons.org/ns#"
   xmlns:rdf="http://www.w3.org/1999/02/22-rdf-syntax-ns#"
   xmlns:svg="http://www.w3.org/2000/svg"
   xmlns="http://www.w3.org/2000/svg"
   xmlns:sodipodi="http://sodipodi.sourceforge.net/DTD/sodipodi-0.dtd"
   xmlns:inkscape="http://www.inkscape.org/namespaces/inkscape"
   width="48"
   height="48"
   viewBox="0 0 48 48"
   version="1.1"
   id="svg7"
   sodipodi:docname="configure-toolbars.svg"
   inkscape:version="0.92.4 (5da689c313, 2019-01-14)">
  <metadata
     id="metadata11">
    <rdf:RDF>
      <cc:Work
         rdf:about="">
        <dc:format>image/svg+xml</dc:format>
        <dc:type
           rdf:resource="http://purl.org/dc/dcmitype/StillImage" />
        <dc:title />
      </cc:Work>
    </rdf:RDF>
  </metadata>
  <sodipodi:namedview
     pagecolor="#ffffff"
     bordercolor="#666666"
     borderopacity="1"
     objecttolerance="10"
     gridtolerance="10"
     guidetolerance="10"
     inkscape:pageopacity="0"
     inkscape:pageshadow="2"
     inkscape:window-width="1280"
     inkscape:window-height="954"
     id="namedview9"
     showgrid="false"
     inkscape:zoom="5.2149125"
     inkscape:cx="-41.877428"
     inkscape:cy="-24.081927"
     inkscape:window-x="0"
     inkscape:window-y="0"
     inkscape:window-maximized="1"
     inkscape:current-layer="svg7" />
  <defs
     id="defs3">
    <style
       type="text/css"
       id="current-color-scheme">
   .ColorScheme-Text { color:#5c616c; } .ColorScheme-Highlight { color:#5294e2; } .ColorScheme-ButtonBackground { color:#d3dae3; }
  </style>
  </defs>
  <path
     style="color:#5c616c;opacity:1;fill:#eeeeee;stroke-width:2.82996106;fill-opacity:1"
     class="ColorScheme-Text"
     d="m 32.539191,1.3600393 c -0.979166,0.3770082 -1.948604,0.8612402 -2.763633,1.5199983 -3.897705,3.1528595 -3.945991,8.3440174 -0.110539,11.5962084 0.80088,0.679473 1.765322,1.184185 2.735998,1.586324 0.07924,0.03198 0.07737,5.814686 0.07737,5.814686 4.216642,2.122471 6.650541,4.952433 8.484355,7.782392 V 16.222861 C 41.94191,15.845627 42.850548,15.31165 43.665577,14.653119 47.562433,11.499976 47.613549,6.3091014 43.776117,3.0569099 42.975237,2.377493 42.010795,1.8726074 41.040118,1.470584 l -0.06079,6.3176674 c -0.01414,1.2981025 -1.278742,2.0616721 -2.846541,2.0616721 H 35.308354 C 33.740555,9.8301135 32.467072,8.9758105 32.478393,7.6777067 Z M 23.988509,23.999727 c -11.315316,0 -16.9687113,8.489883 -16.9687113,16.979766 H 2.067366 c -0.7072071,0 -0.7074901,0.444304 -0.7074901,0.707491 v 4.24494 c 0,0.70749 0.3912138,0.70749 0.7074901,0.70749 H 45.91518 c 0.551842,0.01698 0.707491,-0.365065 0.707491,-0.70749 v -4.24494 c 0.05943,-0.413175 0,-0.707491 -0.707491,-0.707491 h -4.952432 c 0,-8.489883 -5.657508,-16.979766 -16.974239,-16.979766 z m 0,8.489883 c 6.650125,0 8.489884,4.986391 8.489884,8.489883 H 15.504154 c 0,-3.390293 1.985916,-8.489883 8.484355,-8.489883 z"
     id="path5"
     inkscape:connector-curvature="0" />
</svg>
