<?xml version="1.0" encoding="UTF-8" standalone="no"?>
<svg
   xmlns:dc="http://purl.org/dc/elements/1.1/"
   xmlns:cc="http://creativecommons.org/ns#"
   xmlns:rdf="http://www.w3.org/1999/02/22-rdf-syntax-ns#"
   xmlns:svg="http://www.w3.org/2000/svg"
   xmlns="http://www.w3.org/2000/svg"
   xmlns:sodipodi="http://sodipodi.sourceforge.net/DTD/sodipodi-0.dtd"
   xmlns:inkscape="http://www.inkscape.org/namespaces/inkscape"
   width="48"
   height="48"
   version="1.1"
   id="svg10"
   sodipodi:docname="edit-clear-all.svg"
   inkscape:version="0.92.4 (5da689c313, 2019-01-14)">
  <metadata
     id="metadata16">
    <rdf:RDF>
      <cc:Work
         rdf:about="">
        <dc:format>image/svg+xml</dc:format>
        <dc:type
           rdf:resource="http://purl.org/dc/dcmitype/StillImage" />
        <dc:title />
      </cc:Work>
    </rdf:RDF>
  </metadata>
  <defs
     id="defs14" />
  <sodipodi:namedview
     pagecolor="#ffffff"
     bordercolor="#666666"
     borderopacity="1"
     objecttolerance="10"
     gridtolerance="10"
     guidetolerance="10"
     inkscape:pageopacity="0"
     inkscape:pageshadow="2"
     inkscape:window-width="1280"
     inkscape:window-height="954"
     id="namedview12"
     showgrid="false"
     inkscape:zoom="7.375"
     inkscape:cx="-43.620251"
     inkscape:cy="5.9180032"
     inkscape:window-x="0"
     inkscape:window-y="0"
     inkscape:window-maximized="1"
     inkscape:current-layer="svg10" />
  <g
     id="g8"
     style="color:#000000;fill:#eeeeee;fill-opacity:1"
     transform="matrix(3.1919732,0,0,3.1919732,2.9750774,1.5287138)">
    <path
       d="M 11.086,0.05 A 1,1 0 0 0 10.201,0.555 L 6.89,6.18 A 1,1 0 1 0 8.61,7.195 L 11.923,1.57 A 1,1 0 0 0 11.085,0.05 Z"
       style="font-weight:400;line-height:normal;font-family:sans-serif;font-variant-ligatures:normal;font-variant-position:normal;font-variant-caps:normal;font-variant-numeric:normal;font-variant-alternates:normal;font-feature-settings:normal;text-indent:0;text-align:start;text-decoration:none;text-decoration-line:none;text-decoration-style:solid;text-decoration-color:#000000;text-transform:none;text-orientation:mixed;white-space:normal;shape-padding:0;overflow:visible;isolation:auto;mix-blend-mode:normal;marker:none;fill:#eeeeee;fill-opacity:1"
       font-weight="400"
       overflow="visible"
       id="path2"
       inkscape:connector-curvature="0" />
    <path
       d="m 5.219,5.094 4.947,3.054 c 0.604,0.314 0.82,1.113 0.165,1.597 L 9.709,9.961 3.689,6.44 3.707,5.532 C 3.997,4.947 4.462,4.717 5.219,5.094 Z"
       style="overflow:visible;marker:none;fill:#eeeeee;fill-opacity:1"
       overflow="visible"
       id="path4"
       inkscape:connector-curvature="0" />
    <path
       d="m 3.054,7.488 5.99,3.475 -1.045,1.542 a 0.458,0.458 0 0 0 0.089,0.707 l 0.95,0.818 h -5.37 c -2.19,0 -3.197,-2.065 -2.143,-3.89 z"
       style="overflow:visible;isolation:auto;mix-blend-mode:normal;marker:none;fill:#eeeeee;fill-opacity:1"
       overflow="visible"
       id="path6"
       inkscape:connector-curvature="0" />
  </g>
</svg>
