<?xml version="1.0" encoding="UTF-8" standalone="no"?>
<svg
   xmlns:dc="http://purl.org/dc/elements/1.1/"
   xmlns:cc="http://creativecommons.org/ns#"
   xmlns:rdf="http://www.w3.org/1999/02/22-rdf-syntax-ns#"
   xmlns:svg="http://www.w3.org/2000/svg"
   xmlns="http://www.w3.org/2000/svg"
   xmlns:sodipodi="http://sodipodi.sourceforge.net/DTD/sodipodi-0.dtd"
   xmlns:inkscape="http://www.inkscape.org/namespaces/inkscape"
   width="48"
   height="48"
   viewBox="0 0 48 48"
   version="1.1"
   id="svg5"
   sodipodi:docname="document-close.svg"
   inkscape:version="0.92.4 (5da689c313, 2019-01-14)">
  <metadata
     id="metadata11">
    <rdf:RDF>
      <cc:Work
         rdf:about="">
        <dc:format>image/svg+xml</dc:format>
        <dc:type
           rdf:resource="http://purl.org/dc/dcmitype/StillImage" />
        <dc:title></dc:title>
      </cc:Work>
    </rdf:RDF>
  </metadata>
  <defs
     id="defs9" />
  <sodipodi:namedview
     pagecolor="#ffffff"
     bordercolor="#666666"
     borderopacity="1"
     objecttolerance="10"
     gridtolerance="10"
     guidetolerance="10"
     inkscape:pageopacity="0"
     inkscape:pageshadow="2"
     inkscape:window-width="1280"
     inkscape:window-height="954"
     id="namedview7"
     showgrid="false"
     inkscape:zoom="9.8333333"
     inkscape:cx="10.220339"
     inkscape:cy="11.79661"
     inkscape:window-x="0"
     inkscape:window-y="0"
     inkscape:window-maximized="1"
     inkscape:current-layer="svg5" />
  <g
     id="g3877"
     transform="translate(-1.0118828,0.0259266)">
    <g
       transform="matrix(2.9525424,0,0,2.9525424,0.5481461,-1.122537)"
       style="color:#000000;font-weight:400;font-family:sans-serif;white-space:normal;fill:#ee514f;fill-opacity:1"
       id="g8"
       font-weight="400">
      <path
         inkscape:connector-curvature="0"
         id="path4"
         overflow="visible"
         style="line-height:normal;font-variant-ligatures:normal;font-variant-position:normal;font-variant-caps:normal;font-variant-numeric:normal;font-variant-alternates:normal;font-feature-settings:normal;text-indent:0;text-align:start;text-decoration:none;text-decoration-line:none;text-decoration-style:solid;text-decoration-color:#000000;text-transform:none;text-orientation:mixed;shape-padding:0;overflow:visible;isolation:auto;mix-blend-mode:normal;fill:#ee514f;fill-opacity:1;fill-rule:evenodd"
         d="M 3,1 A 1,1 0 0 0 2,2 v 13 a 1,1 0 0 0 1,1 H 7 A 1,1 0 1 0 7,14 H 4 V 3 H 9.586 L 12,5.414 V 8 a 1,1 0 1 0 2,0 V 5 A 1,1 0 0 0 13.707,4.293 l -3,-3 A 1,1 0 0 0 10,1 Z" />
    </g>
    <g
       transform="rotate(45,35.283449,39.139026)"
       id="g842"
       style="fill:#ee514f;fill-opacity:1">
      <rect
         style="opacity:1;fill:#ee514f;fill-opacity:1;stroke:none;stroke-width:1.03588855;stroke-linecap:round;stroke-linejoin:round;stroke-opacity:1"
         id="rect823"
         width="5.9050846"
         height="19.009619"
         x="31.381355"
         y="27.661783"
         rx="2.9525423"
         ry="3.0744805" />
      <rect
         style="opacity:1;fill:#ee514f;fill-opacity:1;stroke:none;stroke-width:1.03588855;stroke-linecap:round;stroke-linejoin:round;stroke-opacity:1"
         id="rect823-3"
         width="5.9050846"
         height="19.009619"
         x="34.357868"
         y="24.924965"
         rx="2.9525423"
         ry="3.0744805"
         transform="matrix(0,1,1,0,0,0)" />
    </g>
  </g>
</svg>
