<?xml version="1.0" encoding="UTF-8" standalone="no"?>
<svg
   xmlns:dc="http://purl.org/dc/elements/1.1/"
   xmlns:cc="http://creativecommons.org/ns#"
   xmlns:rdf="http://www.w3.org/1999/02/22-rdf-syntax-ns#"
   xmlns:svg="http://www.w3.org/2000/svg"
   xmlns="http://www.w3.org/2000/svg"
   xmlns:sodipodi="http://sodipodi.sourceforge.net/DTD/sodipodi-0.dtd"
   xmlns:inkscape="http://www.inkscape.org/namespaces/inkscape"
   width="48"
   height="48"
   viewBox="0 0 48 48"
   version="1.1"
   id="svg7"
   sodipodi:docname="document-page-setup.svg"
   inkscape:version="0.92.4 (5da689c313, 2019-01-14)">
  <metadata
     id="metadata11">
    <rdf:RDF>
      <cc:Work
         rdf:about="">
        <dc:format>image/svg+xml</dc:format>
        <dc:type
           rdf:resource="http://purl.org/dc/dcmitype/StillImage" />
        <dc:title></dc:title>
      </cc:Work>
    </rdf:RDF>
  </metadata>
  <sodipodi:namedview
     pagecolor="#ffffff"
     bordercolor="#666666"
     borderopacity="1"
     objecttolerance="10"
     gridtolerance="10"
     guidetolerance="10"
     inkscape:pageopacity="0"
     inkscape:pageshadow="2"
     inkscape:window-width="1280"
     inkscape:window-height="954"
     id="namedview9"
     showgrid="false"
     inkscape:zoom="7.375"
     inkscape:cx="-23.068927"
     inkscape:cy="11.439665"
     inkscape:window-x="0"
     inkscape:window-y="0"
     inkscape:window-maximized="1"
     inkscape:current-layer="svg7" />
  <defs
     id="defs3">
    <style
       type="text/css"
       id="current-color-scheme">
   .ColorScheme-Text { color:#5c616c; } .ColorScheme-Highlight { color:#5294e2; } .ColorScheme-ButtonBackground { color:#d3dae3; }
  </style>
  </defs>
  <g
     transform="matrix(2.8711864,0,0,2.8711864,0.87259355,-0.4050844)"
     style="fill:#eeeeee;fill-opacity:1"
     id="g6">
    <path
       inkscape:connector-curvature="0"
       d="M 3,1 A 1,1 0 0 0 2,2 V 4 A 1,1 0 1 0 4,4 V 3 H 9.586 L 12,5.414 V 10 a 1,1 0 1 0 2,0 V 5 A 1,1 0 0 0 13.707,4.293 l -3,-3 A 1,1 0 0 0 10,1 Z m 0,13 a 1,1 0 1 0 0,2 h 10 a 1,1 0 1 0 0,-2 z M 2,5.734 V 13 H 14.11 Z M 4,9.266 6.89,11 H 4 Z"
       style="color:#000000;font-weight:400;line-height:normal;font-family:sans-serif;font-variant-ligatures:normal;font-variant-position:normal;font-variant-caps:normal;font-variant-numeric:normal;font-variant-alternates:normal;font-feature-settings:normal;text-indent:0;text-align:start;text-decoration:none;text-decoration-line:none;text-decoration-style:solid;text-decoration-color:#000000;text-transform:none;text-orientation:mixed;white-space:normal;shape-padding:0;overflow:visible;isolation:auto;mix-blend-mode:normal;fill-rule:evenodd;fill:#eeeeee;fill-opacity:1"
       font-weight="400"
       overflow="visible"
       id="path2" />
    <path
       inkscape:connector-curvature="0"
       d="m 2,14 h 1 v 1 H 2 Z m 11,0 h 1 v 1 h -1 z"
       id="path4"
       style="fill:#eeeeee;fill-opacity:1" />
  </g>
</svg>
