<?xml version="1.0" encoding="UTF-8" standalone="no"?>
<svg
   xmlns:dc="http://purl.org/dc/elements/1.1/"
   xmlns:cc="http://creativecommons.org/ns#"
   xmlns:rdf="http://www.w3.org/1999/02/22-rdf-syntax-ns#"
   xmlns:svg="http://www.w3.org/2000/svg"
   xmlns="http://www.w3.org/2000/svg"
   xmlns:sodipodi="http://sodipodi.sourceforge.net/DTD/sodipodi-0.dtd"
   xmlns:inkscape="http://www.inkscape.org/namespaces/inkscape"
   width="48"
   height="48"
   version="1.1"
   id="svg8"
   sodipodi:docname="document-open-recent-symbolic.svg"
   inkscape:version="0.92.4 (5da689c313, 2019-01-14)">
  <metadata
     id="metadata14">
    <rdf:RDF>
      <cc:Work
         rdf:about="">
        <dc:format>image/svg+xml</dc:format>
        <dc:type
           rdf:resource="http://purl.org/dc/dcmitype/StillImage" />
        <dc:title></dc:title>
      </cc:Work>
    </rdf:RDF>
  </metadata>
  <defs
     id="defs12" />
  <sodipodi:namedview
     pagecolor="#ffffff"
     bordercolor="#666666"
     borderopacity="1"
     objecttolerance="10"
     gridtolerance="10"
     guidetolerance="10"
     inkscape:pageopacity="0"
     inkscape:pageshadow="2"
     inkscape:window-width="1280"
     inkscape:window-height="954"
     id="namedview10"
     showgrid="false"
     inkscape:zoom="5.2149125"
     inkscape:cx="-42.369794"
     inkscape:cy="3.0326709"
     inkscape:window-x="0"
     inkscape:window-y="0"
     inkscape:window-maximized="1"
     inkscape:current-layer="svg8" />
  <g
     id="g847"
     style="fill:#eeeeee;fill-opacity:1"
     transform="translate(-0.07930756,0.04294379)">
    <g
       transform="matrix(2.9525424,0,0,2.9525424,-1.4681394,-1.3602774)"
       style="color:#000000;font-weight:400;font-family:sans-serif;white-space:normal;fill:#eeeeee;fill-opacity:1"
       id="g8"
       font-weight="400">
      <path
         inkscape:connector-curvature="0"
         id="path4-3"
         overflow="visible"
         style="line-height:normal;font-variant-ligatures:normal;font-variant-position:normal;font-variant-caps:normal;font-variant-numeric:normal;font-variant-alternates:normal;font-feature-settings:normal;text-indent:0;text-align:start;text-decoration:none;text-decoration-line:none;text-decoration-style:solid;text-decoration-color:#000000;text-transform:none;text-orientation:mixed;shape-padding:0;overflow:visible;isolation:auto;mix-blend-mode:normal;fill:#eeeeee;fill-opacity:1;fill-rule:evenodd"
         d="M 3,1 A 1,1 0 0 0 2,2 v 13 a 1,1 0 0 0 1,1 H 7 A 1,1 0 1 0 7,14 H 4 V 3 H 9.586 L 12,5.414 V 8 a 1,1 0 1 0 2,0 V 5 A 1,1 0 0 0 13.707,4.293 l -3,-3 A 1,1 0 0 0 10,1 Z" />
    </g>
    <g
       transform="matrix(1.3260105,0,0,1.3260105,22.541304,26.440972)"
       style="color:#000000;font-weight:400;font-family:Sans;fill:#eeeeee;fill-opacity:1"
       id="g6"
       font-weight="400">
      <path
         inkscape:connector-curvature="0"
         id="path2"
         overflow="visible"
         style="line-height:normal;-inkscape-font-specification:Sans;text-indent:0;text-align:start;text-decoration:none;text-decoration-line:none;text-transform:none;overflow:visible;fill:#eeeeee;fill-opacity:1;marker:none"
         d="M 8.487,0.02 A 7.492,7.492 0 0 0 1,7.507 7.492,7.492 0 0 0 8.487,14.993 7.492,7.492 0 0 0 15.973,7.507 7.492,7.492 0 0 0 8.487,0.02 Z m 0,1.973 A 5.508,5.508 0 0 1 14,7.507 5.508,5.508 0 0 1 8.487,13.02 5.508,5.508 0 0 1 2.973,7.507 5.508,5.508 0 0 1 8.487,1.993 Z" />
      <path
         inkscape:connector-curvature="0"
         id="path4"
         overflow="visible"
         style="line-height:normal;-inkscape-font-specification:Sans;text-indent:0;text-align:start;text-decoration:none;text-decoration-line:none;text-transform:none;overflow:visible;fill:#eeeeee;fill-opacity:1;marker:none"
         d="m 11.393,4.007 a 0.5,0.5 0 0 0 -0.25,0.156 L 8.487,6.819 6.83,5.163 A 0.5,0.5 0 1 0 6.143,5.85 l 2,2 a 0.5,0.5 0 0 0 0.687,0 l 3,-3 A 0.5,0.5 0 0 0 11.393,4.007 Z" />
    </g>
  </g>
</svg>
