<?xml version="1.0" encoding="UTF-8" standalone="no"?>
<svg
   xmlns:dc="http://purl.org/dc/elements/1.1/"
   xmlns:cc="http://creativecommons.org/ns#"
   xmlns:rdf="http://www.w3.org/1999/02/22-rdf-syntax-ns#"
   xmlns:svg="http://www.w3.org/2000/svg"
   xmlns="http://www.w3.org/2000/svg"
   xmlns:sodipodi="http://sodipodi.sourceforge.net/DTD/sodipodi-0.dtd"
   xmlns:inkscape="http://www.inkscape.org/namespaces/inkscape"
   width="48"
   height="48"
   viewBox="0 0 48 48"
   version="1.1"
   id="svg10"
   sodipodi:docname="edit-select-none.svg"
   inkscape:version="0.92.4 (5da689c313, 2019-01-14)">
  <metadata
     id="metadata16">
    <rdf:RDF>
      <cc:Work
         rdf:about="">
        <dc:format>image/svg+xml</dc:format>
        <dc:type
           rdf:resource="http://purl.org/dc/dcmitype/StillImage" />
        <dc:title />
      </cc:Work>
    </rdf:RDF>
  </metadata>
  <defs
     id="defs14" />
  <sodipodi:namedview
     pagecolor="#ffffff"
     bordercolor="#666666"
     borderopacity="1"
     objecttolerance="10"
     gridtolerance="10"
     guidetolerance="10"
     inkscape:pageopacity="0"
     inkscape:pageshadow="2"
     inkscape:window-width="1280"
     inkscape:window-height="954"
     id="namedview12"
     showgrid="false"
     inkscape:zoom="9.8333333"
     inkscape:cx="8.440678"
     inkscape:cy="11.79661"
     inkscape:window-x="0"
     inkscape:window-y="0"
     inkscape:window-maximized="1"
     inkscape:current-layer="svg10" />
  <g
     id="surface1"
     transform="matrix(2.8377724,0,0,2.8377724,-10.053269,-10.053269)">
    <defs
       id="defs3">
      <style
         id="current-color-scheme"
         type="text/css">
     .ColorScheme-Text { color:#eeeeee; } .ColorScheme-Highlight { color:#424242; }
  </style>
    </defs>
    <path
       style="color:#eeeeee;fill:currentColor"
       class="ColorScheme-Text"
       d="m 5,5 v 5 H 7 V 7 h 3 V 5 Z m 9,0 v 2 h 3 v 3 h 2 V 5 Z m -9,9 v 5 h 5 V 17 H 7 v -3 z m 12,0 v 3 h -3 v 2 h 5 v -5 z m 0,0"
       id="path5"
       inkscape:connector-curvature="0" />
    <path
       style="fill:#ee514f;fill-opacity:1;fill-rule:nonzero;stroke:none"
       d="M 10.585938,9.171875 9.171875,10.585938 10.585938,12 9.171875,13.414062 10.585938,14.828125 12,13.414062 13.414062,14.828125 14.828125,13.414062 13.414062,12 14.828125,10.585938 13.414062,9.171875 12,10.585938 Z m 0,0"
       id="path7"
       inkscape:connector-curvature="0" />
  </g>
</svg>
