<?xml version="1.0" encoding="UTF-8" standalone="no"?>
<svg
   xmlns:dc="http://purl.org/dc/elements/1.1/"
   xmlns:cc="http://creativecommons.org/ns#"
   xmlns:rdf="http://www.w3.org/1999/02/22-rdf-syntax-ns#"
   xmlns:svg="http://www.w3.org/2000/svg"
   xmlns="http://www.w3.org/2000/svg"
   xmlns:sodipodi="http://sodipodi.sourceforge.net/DTD/sodipodi-0.dtd"
   xmlns:inkscape="http://www.inkscape.org/namespaces/inkscape"
   width="48"
   height="48"
   version="1.1"
   id="svg10"
   sodipodi:docname="edit-find-replace-symbolic.svg"
   inkscape:version="0.92.4 (5da689c313, 2019-01-14)">
  <metadata
     id="metadata16">
    <rdf:RDF>
      <cc:Work
         rdf:about="">
        <dc:format>image/svg+xml</dc:format>
        <dc:type
           rdf:resource="http://purl.org/dc/dcmitype/StillImage" />
        <dc:title></dc:title>
      </cc:Work>
    </rdf:RDF>
  </metadata>
  <defs
     id="defs14" />
  <sodipodi:namedview
     pagecolor="#ffffff"
     bordercolor="#666666"
     borderopacity="1"
     objecttolerance="10"
     gridtolerance="10"
     guidetolerance="10"
     inkscape:pageopacity="0"
     inkscape:pageshadow="2"
     inkscape:window-width="1280"
     inkscape:window-height="954"
     id="namedview12"
     showgrid="false"
     inkscape:zoom="7.375"
     inkscape:cx="-13.566478"
     inkscape:cy="25.213726"
     inkscape:window-x="0"
     inkscape:window-y="0"
     inkscape:window-maximized="1"
     inkscape:current-layer="svg10" />
  <g
     id="g885"
     transform="matrix(1.2843116,0,0,1.2843116,34.970998,5.2804629)"
     style="fill:#eeeeee;fill-opacity:1">
    <path
       id="path4-3"
       d="m -13.626953,-1.7636719 c -6.627,0 -12,5.3730005 -12,11.9999999 0,3.858825 1.82651,7.283983 4.658203,9.476563 l 2.855469,-2.857422 c -2.119445,-1.437579 -3.513672,-3.863097 -3.513672,-6.617188 0,-4.4179989 3.582,-7.9999998 8,-7.9999998 2.753191,0 5.177215,1.3936194 6.6152342,3.5117188 L -4.15625,2.890625 c -2.1925291,-2.82856442 -5.6147377,-4.6542969 -9.470703,-4.6542969 z m 11.205078,20.6152339 -2.5898438,2.591797 c 0.059143,0.07388 0.1041739,0.149541 0.1699219,0.222657 l 6.4453125,7.580078 c 1.104,1.226 2.9078125,1.330468 4.0078125,0.230468 1.1,-1.1 0.9965313,-2.903812 -0.2304687,-4.007812 l -7.5800782,-6.447266 c -0.073115,-0.06575 -0.1487785,-0.110779 -0.2226562,-0.169922 z"
       inkscape:connector-curvature="0"
       style="fill:#eeeeee;fill-opacity:1" />
    <path
       id="path4-6-7-3"
       d="m 6.7154283,6.4567547 -0.314,0.314 -5.72600005,-5.729 0.313,-0.31299997 c 0,0 1.37100005,-1.81300003 3.32100005,-1.81300003 0.859,0 1.832,0.35300003 2.849,1.37000003 3.3539997,3.35400097 -0.443,6.17099997 -0.443,6.17099997 z m -2.194,2.195 -19.4990003,19.5060003 -8.48,2.757 2.756,-8.485 v -0.003 h 0.002 L -1.2035717,2.9217547 -0.95157175,3.1747557 M -20.697572,28.153755 l 4.237,-1.219 -2.894,-3.082 z"
       inkscape:connector-curvature="0"
       style="fill:#eeeeee;fill-opacity:1" />
  </g>
</svg>
