<?xml version="1.0" encoding="UTF-8" standalone="no"?>
<svg
   xmlns:dc="http://purl.org/dc/elements/1.1/"
   xmlns:cc="http://creativecommons.org/ns#"
   xmlns:rdf="http://www.w3.org/1999/02/22-rdf-syntax-ns#"
   xmlns:svg="http://www.w3.org/2000/svg"
   xmlns="http://www.w3.org/2000/svg"
   xmlns:sodipodi="http://sodipodi.sourceforge.net/DTD/sodipodi-0.dtd"
   xmlns:inkscape="http://www.inkscape.org/namespaces/inkscape"
   width="48"
   height="48"
   viewBox="0 0 48 48"
   version="1.1"
   id="svg7"
   sodipodi:docname="edit-link.svg"
   inkscape:version="0.92.4 (5da689c313, 2019-01-14)">
  <metadata
     id="metadata11">
    <rdf:RDF>
      <cc:Work
         rdf:about="">
        <dc:format>image/svg+xml</dc:format>
        <dc:type
           rdf:resource="http://purl.org/dc/dcmitype/StillImage" />
        <dc:title></dc:title>
      </cc:Work>
    </rdf:RDF>
  </metadata>
  <sodipodi:namedview
     pagecolor="#ffffff"
     bordercolor="#666666"
     borderopacity="1"
     objecttolerance="10"
     gridtolerance="10"
     guidetolerance="10"
     inkscape:pageopacity="0"
     inkscape:pageshadow="2"
     inkscape:window-width="1280"
     inkscape:window-height="954"
     id="namedview9"
     showgrid="false"
     inkscape:zoom="14.75"
     inkscape:cx="24.587098"
     inkscape:cy="18.321992"
     inkscape:window-x="0"
     inkscape:window-y="0"
     inkscape:window-maximized="1"
     inkscape:current-layer="svg7" />
  <defs
     id="defs3">
    <style
       type="text/css"
       id="current-color-scheme">
   .ColorScheme-Text { color:#5c616c; } .ColorScheme-Highlight { color:#5294e2; } .ColorScheme-ButtonBackground { color:#d3dae3; }
  </style>
    <style
       id="current-color-scheme-6"
       type="text/css">
     .ColorScheme-Text { color:#eeeeee; } .ColorScheme-Highlight { color:#424242; }
  </style>
  </defs>
  <path
     style="color:#5c616c;opacity:1;fill:#eeeeee;stroke-width:2.8106997;fill-opacity:1"
     class="ColorScheme-Text"
     d="M 15.567901,9.9465015 C 7.7822624,9.9465015 1.514402,16.214362 1.514402,24 c 0,7.785639 6.2678604,14.053499 14.053499,14.053499 H 21.1893 v -5.6214 h -5.621399 c -4.671383,0 -8.4320996,-3.760717 -8.4320996,-8.432099 0,-4.671383 3.7607166,-8.4321 8.4320996,-8.4321 H 21.1893 V 9.9465015 Z m 11.242799,0 V 15.5679 h 5.6214 c 4.671382,0 8.432099,3.760718 8.432099,8.4321 0,4.671382 -3.760717,8.432099 -8.432099,8.432099 h -5.6214 v 5.6214 h 5.6214 c 7.785638,0 14.053498,-6.26786 14.053498,-14.053499 0,-7.785638 -6.26786,-14.0534985 -14.053498,-14.0534985 z M 15.567901,21.1893 c -1.782826,1.401459 -1.634656,3.865747 0,5.6214 H 32.4321 c 1.536723,-0.924647 1.536723,-4.696753 0,-5.6214 z"
     id="path5"
     inkscape:connector-curvature="0"
     sodipodi:nodetypes="sssccsssccsccsssccssscccccc" />
</svg>
