<?xml version="1.0" encoding="UTF-8" standalone="no"?>
<!-- Generated by IcoMoon.io -->

<svg
   xmlns:dc="http://purl.org/dc/elements/1.1/"
   xmlns:cc="http://creativecommons.org/ns#"
   xmlns:rdf="http://www.w3.org/1999/02/22-rdf-syntax-ns#"
   xmlns:svg="http://www.w3.org/2000/svg"
   xmlns="http://www.w3.org/2000/svg"
   xmlns:sodipodi="http://sodipodi.sourceforge.net/DTD/sodipodi-0.dtd"
   xmlns:inkscape="http://www.inkscape.org/namespaces/inkscape"
   version="1.1"
   width="48"
   height="48"
   viewBox="0 0 48 48"
   id="svg6"
   sodipodi:docname="cut.svg"
   inkscape:version="0.92.4 (5da689c313, 2019-01-14)">
  <metadata
     id="metadata12">
    <rdf:RDF>
      <cc:Work
         rdf:about="">
        <dc:format>image/svg+xml</dc:format>
        <dc:type
           rdf:resource="http://purl.org/dc/dcmitype/StillImage" />
        <dc:title>cut</dc:title>
      </cc:Work>
    </rdf:RDF>
  </metadata>
  <defs
     id="defs10" />
  <sodipodi:namedview
     pagecolor="#ffffff"
     bordercolor="#666666"
     borderopacity="1"
     objecttolerance="10"
     gridtolerance="10"
     guidetolerance="10"
     inkscape:pageopacity="0"
     inkscape:pageshadow="2"
     inkscape:window-width="1280"
     inkscape:window-height="954"
     id="namedview8"
     showgrid="false"
     inkscape:zoom="8.4285714"
     inkscape:cx="9.8474578"
     inkscape:cy="14"
     inkscape:window-x="0"
     inkscape:window-y="0"
     inkscape:window-maximized="1"
     inkscape:current-layer="svg6" />
  <title
     id="title2">cut</title>
  <path
     d="m 25.68516,22.31146 c 0.924556,0 1.69023,0.765674 1.69023,1.69023 0,0.924556 -0.765674,1.69023 -1.69023,1.69023 -0.924556,0 -1.69023,-0.765674 -1.69023,-1.69023 0,-0.924556 0.765674,-1.69023 1.69023,-1.69023 z m 7.923798,1.69023 13.390002,10.51154 c 0.474955,0.343117 0.713277,0.924556 0.66088,1.478952 -0.07944,0.581439 -0.422557,1.083437 -0.924556,1.347113 l -3.38046,1.69023 c -0.238322,0.131838 -0.501998,0.184235 -0.765674,0.184235 -0.290719,0 -0.581439,-0.07944 -0.818071,-0.211279 L 23.548709,28.78166 20.643204,30.524287 c -0.106485,0.0524 -0.211279,0.106485 -0.316073,0.131838 0.238322,0.818072 0.343116,1.69023 0.263676,2.562389 -0.238323,2.71958 -2.060391,5.309013 -4.965896,7.156434 -2.244626,1.426554 -4.832368,2.219272 -7.3153158,2.219272 -2.3764634,0 -4.3844566,-0.713277 -5.8634079,-2.06039 C 0.94019235,39.134319 0.17451816,37.126326 0.36044346,35.067626 0.59876589,32.373399 2.4208339,29.758613 5.2992956,27.911192 7.543921,26.484638 10.158707,25.69192 12.641655,25.69192 c 1.478951,0 2.826064,0.290719 3.987252,0.818071 0.158882,-0.238322 0.343117,-0.422557 0.58144,-0.581439 L 20.431925,24 17.210347,22.071447 c -0.238323,-0.158881 -0.422558,-0.343116 -0.58144,-0.581439 -1.162878,0.529042 -2.508301,0.818071 -3.987252,0.818071 -2.482948,0 -5.097734,-0.792717 -7.3423594,-2.219272 C 2.4208339,18.239696 0.59876589,15.62491 0.36044346,12.932374 0.17620839,10.871983 0.94188258,8.8656804 2.4461873,7.4915234 3.9251386,6.1190568 5.9331318,5.4057797 8.3095952,5.4057797 c 2.4829478,0 5.0706898,0.7927179 7.3153158,2.2192717 2.905505,1.822068 4.727573,4.4368536 4.965896,7.1564336 0.07944,0.872159 -0.02704,1.742627 -0.263676,2.562389 0.106484,0.02704 0.211278,0.07944 0.316073,0.131838 l 2.905505,1.742627 18.22237,-10.2208207 c 0.238322,-0.131838 0.529042,-0.211279 0.818071,-0.211279 0.263676,0 0.529042,0.0524 0.765674,0.184235 l 3.38046,1.6902297 c 0.501999,0.263676 0.845115,0.765675 0.924556,1.347114 0.0524,0.554395 -0.184235,1.135834 -0.66088,1.478951 z M 15.623221,17.135976 c 1.610789,-1.478952 0.606792,-4.146135 -2.244626,-5.942849 -1.610789,-1.02935 -3.4869445,-1.5583916 -5.07069,-1.5583916 -1.2152754,0 -2.2970226,0.316073 -2.9849462,0.9499086 -1.6107892,1.478951 -0.6067926,4.146134 2.2446255,5.942849 1.6107892,1.02935 3.4599007,1.558392 5.0706897,1.558392 1.215276,0 2.297023,-0.316073 2.984947,-0.949909 z m -2.244626,19.674277 c 2.851418,-1.795024 3.855415,-4.463898 2.244626,-5.942849 -0.686234,-0.633836 -1.769671,-0.949909 -2.984947,-0.949909 -1.610789,0 -3.4599005,0.529042 -5.0706897,1.558392 -2.8514181,1.795024 -3.8554147,4.463897 -2.2446255,5.942849 0.6862334,0.633836 1.7696708,0.949909 2.9849462,0.949909 1.5854358,0 3.459901,-0.529042 5.07069,-1.558392 z m 4.70053,-16.189023 2.535345,1.531348 v -0.290719 c 0,-0.606793 0.343116,-1.162879 0.872158,-1.478952 L 21.856789,20.171629 19.771045,18.931 19.084812,19.617233 c -0.211279,0.211279 -0.370161,0.422558 -0.581439,0.606793 -0.07944,0.07944 -0.131838,0.106484 -0.184236,0.158881 z M 23.99493,26.537035 26.530275,27.38215 45.96792,12.17008 42.58746,10.47985 22.3047,21.861859 v 2.984946 l -4.225575,2.535345 0.238322,0.211279 c 0.0524,0.07944 0.106485,0.106484 0.184235,0.158881 0.211279,0.211279 0.370161,0.422558 0.581439,0.633837 l 0.686234,0.686233 z M 42.58746,37.52353 45.96792,35.8333 32.234801,25.058084 27.559625,28.70222 c -0.07944,0.106484 -0.211279,0.131837 -0.343117,0.184235 z"
     id="path4"
     inkscape:connector-curvature="0"
     style="stroke-width:1.69023001;fill:#eeeeee;fill-opacity:1" />
</svg>
