<?xml version="1.0" encoding="UTF-8" standalone="no"?>
<svg
   xmlns:dc="http://purl.org/dc/elements/1.1/"
   xmlns:cc="http://creativecommons.org/ns#"
   xmlns:rdf="http://www.w3.org/1999/02/22-rdf-syntax-ns#"
   xmlns:svg="http://www.w3.org/2000/svg"
   xmlns="http://www.w3.org/2000/svg"
   xmlns:sodipodi="http://sodipodi.sourceforge.net/DTD/sodipodi-0.dtd"
   xmlns:inkscape="http://www.inkscape.org/namespaces/inkscape"
   width="48"
   height="48"
   version="1.1"
   id="svg4"
   sodipodi:docname="find-location.svg"
   inkscape:version="0.92.4 (5da689c313, 2019-01-14)">
  <metadata
     id="metadata10">
    <rdf:RDF>
      <cc:Work
         rdf:about="">
        <dc:format>image/svg+xml</dc:format>
        <dc:type
           rdf:resource="http://purl.org/dc/dcmitype/StillImage" />
        <dc:title />
      </cc:Work>
    </rdf:RDF>
  </metadata>
  <defs
     id="defs8">
    <style
       id="current-color-scheme"
       type="text/css">
     .ColorScheme-Text { color:#eeeeee; } .ColorScheme-Highlight { color:#424242; }
  </style>
  </defs>
  <sodipodi:namedview
     pagecolor="#ffffff"
     bordercolor="#666666"
     borderopacity="1"
     objecttolerance="10"
     gridtolerance="10"
     guidetolerance="10"
     inkscape:pageopacity="0"
     inkscape:pageshadow="2"
     inkscape:window-width="1280"
     inkscape:window-height="954"
     id="namedview6"
     showgrid="false"
     inkscape:zoom="5.2149125"
     inkscape:cx="-20.290845"
     inkscape:cy="-15.947994"
     inkscape:window-x="0"
     inkscape:window-y="0"
     inkscape:window-maximized="1"
     inkscape:current-layer="svg4" />
  <path
     d="M 22.57317,2.5975616 V 5.5396835 C 13.522444,6.3151943 6.3578486,13.518407 5.6310001,22.57317 H 2.5975613 v 2.853659 H 5.6310001 C 6.356706,34.482118 13.521912,41.685945 22.57317,42.460316 v 2.942122 h 2.853659 v -2.942122 c 9.097464,-0.667756 16.334342,-7.93317 17.033488,-17.033487 h 2.942122 V 22.57317 H 42.463171 C 41.761171,13.472854 34.527146,6.1161225 25.426829,5.4512201 V 2.5975616 Z m 1.515293,8.0273404 C 31.491998,10.58673 37.504281,16.59645 37.469267,24 c 0.03659,7.403542 -5.974409,13.414543 -13.377951,13.37795 -7.436633,0 -13.554877,-5.941316 -13.554877,-13.37795 0,-7.436634 6.118244,-13.377951 13.554877,-13.377951 z"
     style="color:#000000;overflow:visible;fill:#eeeeee;fill-opacity:1;stroke-width:2.85365844;marker:none"
     overflow="visible"
     id="path2"
     inkscape:connector-curvature="0"
     sodipodi:nodetypes="ccccccccccccccccccccscc" />
  <path
     d="m 24,14.746987 c 2.540224,0 4.717449,0.907113 6.531674,2.721338 1.814226,1.814225 2.721338,3.99145 2.721338,6.531675 0,2.540225 -0.907112,4.71745 -2.721338,6.531675 C 28.717449,32.3459 26.540224,33.253012 24,33.253012 c -2.540225,0 -4.71745,-0.907112 -6.531675,-2.721337 C 15.6541,28.71745 14.746988,26.540225 14.746988,24 c 0,-2.540225 0.907112,-4.71745 2.721337,-6.531675 C 19.28255,15.6541 21.459775,14.746987 24,14.746987 Z"
     id="path4"
     inkscape:connector-curvature="0"
     style="fill:#eeeeee;fill-opacity:1;stroke-width:2.32196045"
     sodipodi:nodetypes="sssssssss" />
</svg>
