<?xml version="1.0" encoding="UTF-8" standalone="no"?>
<svg
   xmlns:dc="http://purl.org/dc/elements/1.1/"
   xmlns:cc="http://creativecommons.org/ns#"
   xmlns:rdf="http://www.w3.org/1999/02/22-rdf-syntax-ns#"
   xmlns:svg="http://www.w3.org/2000/svg"
   xmlns="http://www.w3.org/2000/svg"
   xmlns:sodipodi="http://sodipodi.sourceforge.net/DTD/sodipodi-0.dtd"
   xmlns:inkscape="http://www.inkscape.org/namespaces/inkscape"
   width="48"
   height="48"
   viewBox="0 0 48 48"
   version="1.1"
   id="svg7"
   sodipodi:docname="font-select.svg"
   inkscape:version="0.92.4 (5da689c313, 2019-01-14)">
  <metadata
     id="metadata11">
    <rdf:RDF>
      <cc:Work
         rdf:about="">
        <dc:format>image/svg+xml</dc:format>
        <dc:type
           rdf:resource="http://purl.org/dc/dcmitype/StillImage" />
        <dc:title></dc:title>
      </cc:Work>
    </rdf:RDF>
  </metadata>
  <sodipodi:namedview
     pagecolor="#ffffff"
     bordercolor="#666666"
     borderopacity="1"
     objecttolerance="10"
     gridtolerance="10"
     guidetolerance="10"
     inkscape:pageopacity="0"
     inkscape:pageshadow="2"
     inkscape:window-width="1280"
     inkscape:window-height="954"
     id="namedview9"
     showgrid="false"
     inkscape:zoom="3.6875"
     inkscape:cx="-7.6959819"
     inkscape:cy="-15.087573"
     inkscape:window-x="0"
     inkscape:window-y="0"
     inkscape:window-maximized="1"
     inkscape:current-layer="svg7" />
  <defs
     id="defs3">
    <style
       type="text/css"
       id="current-color-scheme">
   .ColorScheme-Text { color:#5c616c; } .ColorScheme-Highlight { color:#5294e2; } .ColorScheme-ButtonBackground { color:#d3dae3; }
  </style>
    <style
       id="current-color-scheme-6"
       type="text/css">
     .ColorScheme-Text { color:#eeeeee; } .ColorScheme-Highlight { color:#424242; }
  </style>
  </defs>
  <path
     style="color:#5c616c;opacity:1;fill:#eeeeee;stroke-width:2.89830494;fill-opacity:1"
     class="ColorScheme-Text"
     d="m 18.214712,12.372816 -0.02264,5.79661 8.468485,0.03397 h 0.0057 c -0.159985,-3e-6 0.243414,0.461845 0.243414,0.237748 v 2.677536 h -2.909627 c -4.973202,0 -8.782118,3.26197 -8.853416,7.200476 -0.03565,1.969254 0.886383,3.950292 2.496392,5.281483 1.610008,1.331105 3.812312,2.02655 6.357024,2.02655 h 8.706237 V 18.441142 c 0,-3.394495 -2.571185,-6.034361 -6.040023,-6.034361 l -8.43452,-0.03397 z M 0.81355938,18.169426 V 35.559257 L 12.40678,26.864341 Z m 46.37288162,0 -11.59322,8.694915 11.59322,8.694916 z M 24,26.915288 h 2.909627 v 2.915286 H 24 c -1.505408,0 -2.300651,-0.399668 -2.666214,-0.701932 -0.365592,-0.302264 -0.39436,-0.499033 -0.390592,-0.707595 0.0087,-0.417153 0.246028,-1.505759 3.056806,-1.505759 z"
     id="path5"
     inkscape:connector-curvature="0" />
</svg>
