<?xml version="1.0" encoding="UTF-8" standalone="no"?>
<svg
   xmlns:dc="http://purl.org/dc/elements/1.1/"
   xmlns:cc="http://creativecommons.org/ns#"
   xmlns:rdf="http://www.w3.org/1999/02/22-rdf-syntax-ns#"
   xmlns:svg="http://www.w3.org/2000/svg"
   xmlns="http://www.w3.org/2000/svg"
   xmlns:sodipodi="http://sodipodi.sourceforge.net/DTD/sodipodi-0.dtd"
   xmlns:inkscape="http://www.inkscape.org/namespaces/inkscape"
   width="48"
   height="48"
   viewBox="0 0 48 48"
   version="1.1"
   id="svg7"
   sodipodi:docname="format-text-direction-rtl.svg"
   inkscape:version="0.92.4 (5da689c313, 2019-01-14)">
  <metadata
     id="metadata11">
    <rdf:RDF>
      <cc:Work
         rdf:about="">
        <dc:format>image/svg+xml</dc:format>
        <dc:type
           rdf:resource="http://purl.org/dc/dcmitype/StillImage" />
        <dc:title></dc:title>
      </cc:Work>
    </rdf:RDF>
  </metadata>
  <sodipodi:namedview
     pagecolor="#ffffff"
     bordercolor="#666666"
     borderopacity="1"
     objecttolerance="10"
     gridtolerance="10"
     guidetolerance="10"
     inkscape:pageopacity="0"
     inkscape:pageshadow="2"
     inkscape:window-width="1280"
     inkscape:window-height="954"
     id="namedview9"
     showgrid="false"
     inkscape:zoom="7.375"
     inkscape:cx="0.084530501"
     inkscape:cy="5.2839435"
     inkscape:window-x="0"
     inkscape:window-y="0"
     inkscape:window-maximized="1"
     inkscape:current-layer="svg7" />
  <defs
     id="defs3">
    <style
       type="text/css"
       id="current-color-scheme">
   .ColorScheme-Text { color:#5c616c; } .ColorScheme-Highlight { color:#5294e2; } .ColorScheme-ButtonBackground { color:#d3dae3; }
  </style>
  </defs>
  <path
     style="color:#5c616c;opacity:1;fill:#eeeeee;stroke-width:3.01608181;fill-opacity:1"
     class="ColorScheme-Text"
     d="m 19.475877,1.3823325 v 6.0321634 h 18.09649 c 1.291366,0 3.016082,1.8522964 3.016082,3.0160821 V 13.44666 H 25.508041 c -2.772594,0 -5.234712,1.158054 -6.786184,2.921829 -1.551473,1.763774 -2.281334,3.953027 -2.262061,6.126416 0.0181,2.173449 0.811114,4.381612 2.356313,6.126416 1.545199,1.744924 3.952425,2.921829 6.691932,2.921829 H 46.620613 V 10.430578 C 46.620884,5.5013953 42.639988,1.3823325 37.572367,1.3823325 Z m 6.032164,18.0964905 h 15.080408 v 6.032163 H 25.508041 c -1.200009,0 -1.709847,-0.331135 -2.167809,-0.848272 -0.457962,-0.517138 -0.840793,-1.325176 -0.848273,-2.167809 -0.006,-0.842633 0.315693,-1.669522 0.75402,-2.167809 0.438327,-0.498287 0.988189,-0.848273 2.262062,-0.848273 z M 13.443714,28.521178 1.379387,37.569423 13.443714,46.617668 V 40.550159 H 46.432107 V 34.517996 H 13.443714 Z"
     id="path5"
     inkscape:connector-curvature="0" />
</svg>
