<?xml version="1.0" encoding="UTF-8" standalone="no"?>
<svg
   xmlns:dc="http://purl.org/dc/elements/1.1/"
   xmlns:cc="http://creativecommons.org/ns#"
   xmlns:rdf="http://www.w3.org/1999/02/22-rdf-syntax-ns#"
   xmlns:svg="http://www.w3.org/2000/svg"
   xmlns="http://www.w3.org/2000/svg"
   xmlns:sodipodi="http://sodipodi.sourceforge.net/DTD/sodipodi-0.dtd"
   xmlns:inkscape="http://www.inkscape.org/namespaces/inkscape"
   width="48"
   height="48"
   viewBox="0 0 48 48"
   version="1.1"
   id="svg7"
   sodipodi:docname="format-text-direction-ltr.svg"
   inkscape:version="0.92.4 (5da689c313, 2019-01-14)">
  <metadata
     id="metadata11">
    <rdf:RDF>
      <cc:Work
         rdf:about="">
        <dc:format>image/svg+xml</dc:format>
        <dc:type
           rdf:resource="http://purl.org/dc/dcmitype/StillImage" />
        <dc:title></dc:title>
      </cc:Work>
    </rdf:RDF>
  </metadata>
  <sodipodi:namedview
     pagecolor="#ffffff"
     bordercolor="#666666"
     borderopacity="1"
     objecttolerance="10"
     gridtolerance="10"
     guidetolerance="10"
     inkscape:pageopacity="0"
     inkscape:pageshadow="2"
     inkscape:window-width="1280"
     inkscape:window-height="954"
     id="namedview9"
     showgrid="false"
     inkscape:zoom="5.2149125"
     inkscape:cx="2.7350454"
     inkscape:cy="7.1330155"
     inkscape:window-x="0"
     inkscape:window-y="0"
     inkscape:window-maximized="1"
     inkscape:current-layer="svg7" />
  <defs
     id="defs3">
    <style
       type="text/css"
       id="current-color-scheme">
   .ColorScheme-Text { color:#5c616c; } .ColorScheme-Highlight { color:#5294e2; } .ColorScheme-ButtonBackground { color:#d3dae3; }
  </style>
  </defs>
  <path
     style="color:#5c616c;opacity:1;fill:#eeeeee;stroke-width:2.98895955;fill-opacity:1"
     class="ColorScheme-Text"
     d="m 4.665168,1.5857222 v 5.9779191 h 17.933757 c 1.279753,0 2.988959,1.8356396 2.988959,2.9889597 v 2.98896 H 10.643088 c -2.7476618,0 -5.1876391,1.147641 -6.7251599,2.895554 -1.5375208,1.747914 -2.2608191,3.91748 -2.2417196,6.071324 0.017934,2.153904 0.8038209,4.342211 2.3351246,6.071324 1.5313037,1.729233 3.916882,2.895555 6.6317549,2.895555 H 31.565803 V 10.552601 C 31.566072,5.6677443 27.620974,1.5857222 22.598925,1.5857222 Z m 5.97792,17.9337578 h 14.944796 v 5.977919 H 10.643088 c -1.1892183,0 -1.694472,-0.328158 -2.1483156,-0.840645 C 8.0409288,24.144267 7.6615401,23.343495 7.6541275,22.508439 7.6481496,21.673384 7.9669819,20.853931 8.4013674,20.360125 8.8357529,19.866319 9.3806701,19.51948 10.643088,19.51948 Z m 23.911675,8.961041 c 0,0 6e-5,3.321033 0,5.977919 H 1.4893985 v 5.977919 H 34.554763 c 0,2.656856 -1.49e-4,5.977919 0,5.977919 l 11.955838,-8.966879 z"
     id="path5"
     inkscape:connector-curvature="0" />
</svg>
