<?xml version="1.0" encoding="UTF-8" standalone="no"?>
<svg
   xmlns:dc="http://purl.org/dc/elements/1.1/"
   xmlns:cc="http://creativecommons.org/ns#"
   xmlns:rdf="http://www.w3.org/1999/02/22-rdf-syntax-ns#"
   xmlns:svg="http://www.w3.org/2000/svg"
   xmlns="http://www.w3.org/2000/svg"
   xmlns:sodipodi="http://sodipodi.sourceforge.net/DTD/sodipodi-0.dtd"
   xmlns:inkscape="http://www.inkscape.org/namespaces/inkscape"
   width="48"
   height="48"
   viewBox="0 0 48 48"
   version="1.1"
   id="svg7"
   sodipodi:docname="format-text-bold.svg"
   inkscape:version="0.92.4 (5da689c313, 2019-01-14)">
  <metadata
     id="metadata11">
    <rdf:RDF>
      <cc:Work
         rdf:about="">
        <dc:format>image/svg+xml</dc:format>
        <dc:type
           rdf:resource="http://purl.org/dc/dcmitype/StillImage" />
        <dc:title></dc:title>
      </cc:Work>
    </rdf:RDF>
  </metadata>
  <sodipodi:namedview
     pagecolor="#ffffff"
     bordercolor="#666666"
     borderopacity="1"
     objecttolerance="10"
     gridtolerance="10"
     guidetolerance="10"
     inkscape:pageopacity="0"
     inkscape:pageshadow="2"
     inkscape:window-width="1280"
     inkscape:window-height="954"
     id="namedview9"
     showgrid="false"
     inkscape:zoom="7.375"
     inkscape:cx="-0.55089885"
     inkscape:cy="9.7716633"
     inkscape:window-x="0"
     inkscape:window-y="0"
     inkscape:window-maximized="1"
     inkscape:current-layer="svg7" />
  <defs
     id="defs3">
    <style
       type="text/css"
       id="current-color-scheme">
   .ColorScheme-Text { color:#5c616c; } .ColorScheme-Highlight { color:#5294e2; } .ColorScheme-ButtonBackground { color:#d3dae3; }
  </style>
    <style
       id="current-color-scheme-6"
       type="text/css">
     .ColorScheme-Text { color:#eeeeee; } .ColorScheme-Highlight { color:#424242; }
  </style>
  </defs>
  <path
     style="color:#5c616c;opacity:1;fill:#eeeeee;stroke-width:3.61694908;fill-opacity:1"
     class="ColorScheme-Text"
     d="M 9.5324264,5.9152542 V 13.149153 H 27.617173 c 1.548633,0 3.616949,2.221313 3.616949,3.616949 v 3.616949 H 13.149376 c -3.3249533,0 -6.2775774,1.388764 -8.138136,3.50392 -1.8605587,2.115155 -2.7358242,4.740554 -2.7127119,7.346928 0.021702,2.606445 0.9727062,5.254522 2.8257415,7.346928 1.8530354,2.092549 4.7398311,3.503919 8.0251064,3.503919 H 45.701918 V 16.766102 c 0,-5.91118 -4.773649,-10.8508478 -10.850847,-10.8508478 z M 20.383274,27.616949 h 10.850848 v 7.233899 H 20.383274 c -1.439075,0 -2.050484,-0.397105 -2.599682,-1.017267 -0.549197,-0.620162 -1.008297,-1.589179 -1.017267,-2.599682 -0.0072,-1.010504 0.378586,-2.002126 0.904237,-2.599683 0.525652,-0.597556 1.185058,-1.017267 2.712712,-1.017267 z"
     id="path5"
     inkscape:connector-curvature="0" />
</svg>
