<?xml version="1.0" encoding="UTF-8" standalone="no"?>
<!-- Generated by IcoMoon.io -->

<svg
   xmlns:dc="http://purl.org/dc/elements/1.1/"
   xmlns:cc="http://creativecommons.org/ns#"
   xmlns:rdf="http://www.w3.org/1999/02/22-rdf-syntax-ns#"
   xmlns:svg="http://www.w3.org/2000/svg"
   xmlns="http://www.w3.org/2000/svg"
   xmlns:sodipodi="http://sodipodi.sourceforge.net/DTD/sodipodi-0.dtd"
   xmlns:inkscape="http://www.inkscape.org/namespaces/inkscape"
   version="1.1"
   width="48"
   height="48"
   viewBox="0 0 48 48"
   id="svg6"
   sodipodi:docname="home.svg"
   inkscape:version="0.92.4 (5da689c313, 2019-01-14)">
  <metadata
     id="metadata12">
    <rdf:RDF>
      <cc:Work
         rdf:about="">
        <dc:format>image/svg+xml</dc:format>
        <dc:type
           rdf:resource="http://purl.org/dc/dcmitype/StillImage" />
        <dc:title>home</dc:title>
      </cc:Work>
    </rdf:RDF>
  </metadata>
  <defs
     id="defs10" />
  <sodipodi:namedview
     pagecolor="#ffffff"
     bordercolor="#666666"
     borderopacity="1"
     objecttolerance="10"
     gridtolerance="10"
     guidetolerance="10"
     inkscape:pageopacity="0"
     inkscape:pageshadow="2"
     inkscape:window-width="1280"
     inkscape:window-height="954"
     id="namedview8"
     showgrid="false"
     inkscape:zoom="8.4285714"
     inkscape:cx="8.8474578"
     inkscape:cy="14"
     inkscape:window-x="0"
     inkscape:window-y="0"
     inkscape:window-maximized="1"
     inkscape:current-layer="svg6" />
  <title
     id="title2">home</title>
  <path
     d="m 40.165565,26.738973 v 13.469255 c 0,0.982357 -0.813544,1.7959 -1.795901,1.7959 H 27.594261 V 31.228725 H 20.410658 V 42.004128 H 9.6352543 c -0.9823576,0 -1.7959006,-0.813543 -1.7959006,-1.7959 V 26.738973 c 0,-0.05568 0.028734,-0.113141 0.028734,-0.168814 L 24.002459,13.269719 40.13683,26.570159 c 0.02874,0.05568 0.02874,0.113141 0.02874,0.168814 z m 6.256918,-1.935981 -1.740229,2.076061 c -0.14008,0.168815 -0.364567,0.280161 -0.589055,0.308895 h -0.08441 c -0.224487,0 -0.42024,-0.05568 -0.589056,-0.195752 L 24.000663,10.800356 4.5815901,26.992196 C 4.3858369,27.132275 4.1613493,27.216683 3.9081273,27.187948 3.6836398,27.159214 3.4591522,27.047868 3.3190719,26.879053 L 1.5788442,24.802992 C 1.2699494,24.438425 1.3256223,23.849369 1.691986,23.540474 L 21.867134,6.7326406 c 1.17811,-0.9823577 3.087153,-0.9823577 4.265263,0 l 6.847769,5.7235354 V 6.9840666 c 0,-0.5046481 0.393303,-0.8979503 0.897951,-0.8979503 h 5.387701 c 0.504648,0 0.897951,0.3933022 0.897951,0.8979503 V 18.432933 l 6.145572,5.107541 c 0.364567,0.308895 0.42024,0.897951 0.113142,1.262518 z"
     id="path4"
     inkscape:connector-curvature="0"
     style="fill:#eeeeee;fill-opacity:1;stroke-width:1.79590058" />
</svg>
