<?xml version="1.0" encoding="UTF-8" standalone="no"?>
<!-- Generated by IcoMoon.io -->

<svg
   xmlns:dc="http://purl.org/dc/elements/1.1/"
   xmlns:cc="http://creativecommons.org/ns#"
   xmlns:rdf="http://www.w3.org/1999/02/22-rdf-syntax-ns#"
   xmlns:svg="http://www.w3.org/2000/svg"
   xmlns="http://www.w3.org/2000/svg"
   xmlns:sodipodi="http://sodipodi.sourceforge.net/DTD/sodipodi-0.dtd"
   xmlns:inkscape="http://www.inkscape.org/namespaces/inkscape"
   version="1.1"
   width="48"
   height="48"
   viewBox="0 0 48 48"
   id="svg6"
   sodipodi:docname="help-contents.svg"
   inkscape:version="0.92.4 (5da689c313, 2019-01-14)">
  <metadata
     id="metadata12">
    <rdf:RDF>
      <cc:Work
         rdf:about="">
        <dc:format>image/svg+xml</dc:format>
        <dc:type
           rdf:resource="http://purl.org/dc/dcmitype/StillImage" />
        <dc:title>unlocked1</dc:title>
      </cc:Work>
    </rdf:RDF>
  </metadata>
  <defs
     id="defs10" />
  <sodipodi:namedview
     pagecolor="#ffffff"
     bordercolor="#666666"
     borderopacity="1"
     objecttolerance="10"
     gridtolerance="10"
     guidetolerance="10"
     inkscape:pageopacity="0"
     inkscape:pageshadow="2"
     inkscape:window-width="1280"
     inkscape:window-height="954"
     id="namedview8"
     showgrid="false"
     inkscape:zoom="7.375"
     inkscape:cx="13.627119"
     inkscape:cy="16"
     inkscape:window-x="0"
     inkscape:window-y="0"
     inkscape:window-maximized="1"
     inkscape:current-layer="svg6" />
  <title
     id="title2">unlocked1</title>
  <g
     transform="matrix(2.0301061,0,0,2.0301061,1.8432951,1.4943707)"
     id="surface1">
    <path
       inkscape:connector-curvature="0"
       style="fill:#eeeeee;fill-opacity:1;fill-rule:nonzero;stroke:none"
       d="m 10.796875,1.082031 c -0.0078,0 -0.01563,0 -0.02344,0 0.0078,0 0.01562,0 0.02344,0 z m 0.234375,0 c 0.0078,0 0.01563,0 0.02344,0 -0.0078,0 -0.01563,0 -0.02344,0 z m -0.371094,0.00391 c -0.0039,0 -0.01172,0 -0.01563,0 0.0039,0 0.01172,0 0.01563,0 z m 0.507813,0 c 0.0039,0 0.01172,0 0.01563,0 -0.0039,0 -0.01172,0 -0.01563,0 z m -0.628907,0.00391 c -0.0039,0 -0.01172,0 -0.01953,0 0.0078,0 0.01563,0 0.01953,0 z m 0.75,0 c 0.0039,0 0.01172,0 0.01953,0 -0.0078,0 -0.01563,0 -0.01953,0 z m -0.882812,0.0039 c -0.0078,0 -0.01563,0 -0.02344,0 0.0078,0 0.01563,0 0.02344,0 z m 1.015625,0 c 0.0078,0 0.01563,0 0.02344,0 -0.0078,0 -0.01562,0 -0.02344,0 z m -1.148437,0.00781 c 0,0 -0.0039,0 -0.0039,0 0,0 0.0039,0 0.0039,0 z m 1.28125,0 c 0,0 0.0039,0 0.0039,0 0,0 -0.0039,0 -0.0039,0 z M 10.15625,1.10937 c -0.0078,0 -0.01953,0 -0.02734,0.00391 0.0078,-0.00391 0.01953,-0.00391 0.02734,-0.00391 z m 1.515625,0 c 0.0078,0 0.01953,0 0.02734,0.00391 -0.0078,-0.00391 -0.01953,-0.00391 -0.02734,-0.00391 z m -1.652344,0.011719 c -0.0039,0 -0.01172,0 -0.01953,0 0.0078,0 0.01563,0 0.01953,0 z m 1.789063,0 c 0.0039,0 0.01172,0 0.01953,0 -0.0078,0 -0.01563,0 -0.01953,0 z m -1.90625,0.011718 c -0.00781,0 -0.015625,0 -0.023438,0 0.00781,0 0.015625,0 0.023438,0 z m 2.023437,0 c 0.0078,0 0.01563,0 0.01953,0 -0.0039,0 -0.01172,0 -0.01953,0 z M 9.773438,1.144531 c -0.00781,0 -0.019532,0.00391 -0.03125,0.00391 0.011718,0 0.023437,-0.00391 0.03125,-0.00391 z m 2.28125,0 c 0.0078,0 0.01953,0.00391 0.03125,0.00391 -0.01172,0 -0.02344,-0.00391 -0.03125,-0.00391 z M 9.652344,1.160156 c -0.00781,0 -0.015625,0 -0.019532,0 0.00391,0 0.011719,0 0.019532,0 z m 2.523437,0 c 0.0078,0 0.01563,0 0.01953,0 -0.0039,0 -0.01172,0 -0.01953,0 z M 9.523438,1.175781 c -0.00781,0 -0.015626,0.00391 -0.023438,0.00391 0.00781,0 0.015625,-0.00391 0.023438,-0.00391 z m 2.78125,0 c 0.0078,0 0.01562,0.00391 0.02344,0.00391 -0.0078,0 -0.01563,-0.00391 -0.02344,-0.00391 z M 9.394531,1.195312 c -0.011719,0 -0.019531,0.00391 -0.027343,0.00391 0.00781,0 0.015624,-0.00391 0.027343,-0.00391 z m 3.039063,0 c 0.01172,0 0.01953,0.00391 0.02734,0.00391 -0.0078,0 -0.01563,-0.00391 -0.02734,-0.00391 z M 9.28125,1.214844 c -0.011719,0 -0.019531,0 -0.027344,0.00391 0.00781,-0.00391 0.015625,-0.00391 0.027344,-0.00391 z m 3.265625,0 c 0.01172,0 0.01953,0 0.02734,0.00391 -0.0078,-0.00391 -0.01563,-0.00391 -0.02734,-0.00391 z M 9.148438,1.234375 c -0.00781,0.00391 -0.019532,0.00391 -0.027344,0.00781 0.00781,-0.00391 0.019531,-0.00391 0.027344,-0.00781 z m 3.53125,0 c 0.0078,0.00391 0.01953,0.00391 0.02734,0.00781 -0.0078,-0.00391 -0.01953,-0.00391 -0.02734,-0.00781 z M 9.03125,1.257812 c -0.00781,0 -0.015625,0 -0.023438,0.00391 0.00781,-0.00391 0.015626,-0.00391 0.023438,-0.00391 z m 3.765625,0 c 0.0078,0 0.01563,0 0.02344,0.00391 -0.0078,-0.00391 -0.01562,-0.00391 -0.02344,-0.00391 z M 8.910156,1.28125 C 8.898438,1.28125 8.886719,1.28516 8.875,1.28906 8.886719,1.28515 8.898438,1.28125 8.910156,1.28125 Z m 4.007813,0 c 0.01172,0 0.02344,0.00391 0.03516,0.00781 -0.01172,-0.00391 -0.02344,-0.00781 -0.03516,-0.00781 z M 8.777344,1.308594 c -0.00781,0 -0.019532,0.00391 -0.027344,0.00391 0.00781,0 0.019531,-0.00391 0.027344,-0.00391 z m 4.273437,0 c 0.0078,0 0.01953,0.00391 0.02734,0.00391 -0.0078,0 -0.01953,-0.00391 -0.02734,-0.00391 z M 8.671875,1.332031 c -0.011719,0.00391 -0.023437,0.00391 -0.039063,0.00781 0.015626,-0.00391 0.027344,-0.00391 0.039063,-0.00781 z m 4.484375,0 c 0.01172,0.00391 0.02344,0.00391 0.03906,0.00781 -0.01562,-0.00391 -0.02734,-0.00391 -0.03906,-0.00781 z m -4.617188,0.03125 c -0.011718,0.00391 -0.023437,0.00391 -0.035156,0.00781 0.011719,-0.00391 0.023438,-0.00391 0.035156,-0.00781 z m 4.75,0 c 0.01172,0.00391 0.02344,0.00391 0.03516,0.00781 -0.01172,-0.00391 -0.02344,-0.00391 -0.03516,-0.00781 z M 8.4375,1.386719 C 8.421875,1.390625 8.410156,1.394531 8.398438,1.398438 8.410156,1.394531 8.421875,1.390625 8.4375,1.386719 Z m 4.953125,0 c 0.01563,0.00391 0.02734,0.00781 0.03906,0.011719 -0.01172,-0.00391 -0.02344,-0.00781 -0.03906,-0.011719 z M 8.308594,1.421875 C 8.292969,1.425781 8.28125,1.429688 8.265625,1.433594 8.28125,1.429688 8.292969,1.425781 8.308594,1.421875 Z m 5.210937,0 c 0.01563,0.00391 0.02734,0.00781 0.04297,0.011719 -0.01563,-0.00391 -0.02734,-0.00781 -0.04297,-0.011719 z M 8.183594,1.457031 c -0.011719,0.00391 -0.023438,0.00391 -0.039063,0.00781 0.015625,-0.00391 0.027344,-0.00391 0.039063,-0.00781 z m 5.460937,0 c 0.01172,0.00391 0.02344,0.00391 0.03906,0.00781 -0.01563,-0.00391 -0.02734,-0.00391 -0.03906,-0.00781 z M 8.078125,1.488281 C 8.0625,1.492188 8.046875,1.496094 8.03125,1.5 8.046875,1.496094 8.0625,1.492188 8.078125,1.488281 Z m 5.671875,0 C 13.765625,1.492188 13.78125,1.496094 13.796875,1.5 13.78125,1.496094 13.765625,1.492188 13.75,1.488281 Z M 7.945312,1.527344 C 7.933594,1.53125 7.917969,1.535156 7.902344,1.539062 7.917969,1.535156 7.933594,1.53125 7.945312,1.527344 Z m 5.9375,0 c 0.01172,0.00391 0.02734,0.00781 0.04297,0.011718 -0.01563,-0.00391 -0.03125,-0.00781 -0.04297,-0.011718 z M 7.847656,1.558594 C 7.832031,1.5625 7.816406,1.566406 7.800781,1.570312 7.816406,1.566406 7.832031,1.5625 7.847656,1.558594 Z m 6.132813,0 c 0.01563,0.00391 0.03125,0.00781 0.04687,0.011718 -0.01563,-0.00391 -0.03125,-0.00781 -0.04687,-0.011718 z M 7.71875,1.597656 C 7.703125,1.605469 7.6875,1.609375 7.671875,1.613281 7.6875,1.609375 7.703125,1.605469 7.71875,1.597656 Z m 6.390625,0 c 0.01563,0.00781 0.03125,0.011719 0.04687,0.015625 -0.01563,-0.00391 -0.03125,-0.00781 -0.04687,-0.015625 z M 7.617188,1.632812 C 7.59375,1.640625 7.570312,1.648438 7.546875,1.660156 7.570312,1.648438 7.59375,1.640625 7.617188,1.632812 Z m 6.59375,0 c 0.02344,0.00781 0.04687,0.015626 0.07031,0.027344 -0.02344,-0.011718 -0.04687,-0.019531 -0.07031,-0.027344 z M 7.496094,1.675781 C 7.480469,1.683594 7.464844,1.6875 7.445312,1.695312 7.464844,1.6875 7.480469,1.683594 7.496094,1.675781 Z m 6.835937,0 c 0.01563,0.00781 0.03125,0.011719 0.05078,0.019531 -0.01953,-0.00781 -0.03516,-0.011718 -0.05078,-0.019531 z M 7.367188,1.722656 C 7.351562,1.730469 7.335938,1.734375 7.320312,1.742188 7.335938,1.734375 7.351562,1.730469 7.367188,1.722656 Z m 7.09375,0 c 0.01562,0.00781 0.03125,0.011719 0.04687,0.019532 -0.01562,-0.00781 -0.03125,-0.011719 -0.04687,-0.019532 z m -7.1875,0.039063 C 7.25,1.769531 7.230469,1.777344 7.207031,1.785156 7.230469,1.777344 7.25,1.769531 7.273438,1.761719 Z m 7.28125,0 c 0.02344,0.00781 0.04297,0.015625 0.06641,0.023437 -0.02344,-0.00781 -0.04297,-0.015625 -0.06641,-0.023437 z M 7.144531,1.808594 C 7.128906,1.816406 7.113281,1.824219 7.097656,1.832031 7.113281,1.824219 7.128906,1.816406 7.144531,1.808594 Z m 7.539063,0 c 0.01563,0.00781 0.03125,0.015625 0.04687,0.023437 -0.01563,-0.00781 -0.03125,-0.015625 -0.04687,-0.023437 z M 7.050781,1.847656 C 7.023438,1.859375 7,1.871094 6.976562,1.882812 7,1.871094 7.023438,1.859375 7.050781,1.847656 Z m 7.726563,0 c 0.02734,0.011719 0.05078,0.023438 0.07422,0.035156 -0.02344,-0.011718 -0.04687,-0.023437 -0.07422,-0.035156 z M 6.929688,1.902344 C 6.910156,1.910156 6.894531,1.917969 6.878906,1.921875 6.894531,1.917969 6.910156,1.910156 6.929688,1.902344 Z m 7.96875,0 c 0.01953,0.00781 0.03516,0.015625 0.05078,0.019531 -0.01563,-0.00391 -0.03125,-0.011719 -0.05078,-0.019531 z M 6.828125,1.945312 C 6.804688,1.957031 6.777344,1.96875 6.753906,1.980469 6.777344,1.96875 6.804688,1.957031 6.828125,1.945312 Z m 8.171875,0 C 15.02344,1.957031 15.05078,1.96875 15.07422,1.980469 15.050781,1.96875 15.023438,1.957031 15,1.945312 Z M 6.714844,1.996094 c -0.03125,0.015625 -0.0625,0.03125 -0.09375,0.042968 0.03125,-0.011718 0.0625,-0.027343 0.09375,-0.042968 z m 8.398437,0 c 0.03125,0.015625 0.0625,0.03125 0.09375,0.042968 -0.03125,-0.011718 -0.0625,-0.027343 -0.09375,-0.042968 z M 6.589844,2.054688 C 6.574219,2.0625 6.554688,2.070312 6.539062,2.082031 6.554688,2.070312 6.574219,2.0625 6.589844,2.054688 Z m 8.648437,0 c 0.01563,0.00781 0.03516,0.015624 0.05078,0.027343 C 15.273438,2.070312 15.253906,2.0625 15.238281,2.054688 Z M 6.503906,2.097656 c -0.03125,0.015625 -0.0625,0.03125 -0.09375,0.046875 0.03125,-0.015625 0.0625,-0.03125 0.09375,-0.046875 z m 8.820313,0 c 0.03125,0.015625 0.0625,0.03125 0.09375,0.046875 -0.03125,-0.015625 -0.0625,-0.03125 -0.09375,-0.046875 z M 6.382812,2.15625 C 6.363281,2.167969 6.34375,2.175781 6.324219,2.1875 6.34375,2.175781 6.363281,2.167969 6.382812,2.15625 Z m 9.0625,0 c 0.01953,0.011719 0.03906,0.019531 0.05859,0.03125 -0.01953,-0.011719 -0.03906,-0.019531 -0.05859,-0.03125 z M 6.292969,2.203125 C 6.265625,2.21875 6.234375,2.234375 6.207031,2.246094 6.234375,2.234375 6.265625,2.21875 6.292969,2.203125 Z m 9.242187,0 c 0.02734,0.015625 0.05859,0.03125 0.08594,0.042969 C 15.59375,2.234375 15.5625,2.21875 15.535156,2.203125 Z M 6.171875,2.269531 C 6.152344,2.277344 6.136719,2.285156 6.121094,2.296875 6.136719,2.285156 6.152344,2.277344 6.171875,2.269531 Z m 9.484375,0 c 0.01953,0.00781 0.03516,0.015625 0.05078,0.027344 C 15.6914,2.285156 15.67578,2.277344 15.65625,2.269531 Z M 6.121094,2.296875 C 4.433594,3.214844 3.042969,4.605469 2.125,6.292969 L 6.519531,8.6875 C 6.976562,7.84375 7.671875,7.148438 8.515625,6.691406 Z m 9.585937,0 L 13.3125,6.691406 C 14.15625,7.148438 14.851562,7.84375 15.308594,8.6875 L 19.703125,6.292969 C 18.785156,4.605469 17.394531,3.214844 15.707031,2.296875 Z m -4.871093,3.789063 c -0.0039,0 -0.0078,0 -0.01172,0 0.0039,0 0.0078,0 0.01172,0 z m 0.15625,0 c 0.0039,0 0.0078,0 0.01172,0 -0.0039,0 -0.0078,0 -0.01172,0 z m -0.230469,0 c -0.0078,0 -0.01563,0 -0.01953,0 0.0039,0 0.01172,0 0.01953,0 z m 0.304687,0 c 0.0078,0 0.01563,0 0.01953,0 -0.0039,0 -0.01172,0 -0.01953,0 z m -0.382812,0.00391 c -0.0078,0 -0.01172,0 -0.01563,0 0.0039,0 0.0078,0 0.01563,0 z m 0.460937,0 c 0.0078,0 0.01172,0 0.01563,0 -0.0039,0 -0.0078,0 -0.01563,0 z m 0.167969,0.00781 c 0.0039,0.00391 0.01172,0.00391 0.01563,0.00391 -0.0039,0 -0.01172,0 -0.01563,-0.00391 z m -0.796875,0 c -0.0039,0.00391 -0.01172,0.00391 -0.01563,0.00391 0.0039,0 0.01172,0 0.01563,-0.00391 z m -0.07422,0.00781 c -0.0078,0 -0.01563,0 -0.01953,0.00391 0.0039,-0.00391 0.01172,-0.00391 0.01953,-0.00391 z m 0.945313,0 c 0.0078,0 0.01563,0 0.01953,0.00391 -0.0039,-0.00391 -0.01172,-0.00391 -0.01953,-0.00391 z m -1.023438,0.00781 c -0.0039,0 -0.01172,0 -0.01563,0 0.0039,0 0.01172,0 0.01563,0 z m 1.101563,0 c 0.0039,0 0.01172,0 0.01563,0 -0.0039,0 -0.01172,0 -0.01563,0 z m -1.265625,0.019531 c -0.0039,0 -0.0078,0.00391 -0.01172,0.00391 0.0039,0 0.0078,-0.00391 0.01172,-0.00391 z m 1.429687,0 c 0.0039,0 0.0078,0.00391 0.01172,0.00391 -0.0039,0 -0.0078,-0.00391 -0.01172,-0.00391 z M 10.125,6.144531 c -0.0078,0 -0.01172,0.00391 -0.01563,0.00391 0.0039,0 0.0078,-0.00391 0.01563,-0.00391 z m 1.578125,0 c 0.0078,0 0.01172,0.00391 0.01563,0.00391 -0.0039,0 -0.0078,-0.00391 -0.01563,-0.00391 z m -1.660156,0.015625 c 0,0 -0.0039,0 -0.0078,0 0.0039,0 0.0078,0 0.0078,0 z m 1.742187,0 c 0,0 0.0039,0 0.0078,0 -0.0039,0 -0.0078,0 -0.0078,0 z M 9.886719,6.1875 c -0.00391,0 -0.00781,0.00391 -0.011719,0.00391 0.00391,0 0.00781,-0.00391 0.011719,-0.00391 z m 2.054687,0 c 0.0039,0 0.0078,0.00391 0.01172,0.00391 -0.0039,0 -0.0078,-0.00391 -0.01172,-0.00391 z M 9.8125,6.203125 c -0.00391,0 -0.00781,0.00391 -0.011719,0.00391 0.00391,0 0.00781,-0.00391 0.011719,-0.00391 z m 2.203125,0 c 0.0039,0 0.0078,0.00391 0.01172,0.00391 -0.0039,0 -0.0078,-0.00391 -0.01172,-0.00391 z M 9.585938,6.261719 c -0.00391,0 -0.00781,0 -0.011719,0.00391 0.00391,-0.00391 0.00781,-0.00391 0.011719,-0.00391 z m 2.65625,0 c 0.0039,0 0.0078,0 0.01172,0.00391 -0.0039,-0.00391 -0.0078,-0.00391 -0.01172,-0.00391 z M 9.515625,6.28125 c -0.00391,0 -0.011719,0.00391 -0.015625,0.00391 0.00391,0 0.011719,-0.00391 0.015625,-0.00391 z m 2.796875,0 c 0.0039,0 0.01172,0.00391 0.01563,0.00391 -0.0039,0 -0.01172,-0.00391 -0.01563,-0.00391 z m 7.390625,0.011719 c 0.01172,0.015625 0.01953,0.03125 0.02734,0.050781 -0.0078,-0.019531 -0.01563,-0.035156 -0.02734,-0.050781 z m -17.582031,0 C 2.113281,6.308594 2.105469,6.324219 2.097656,6.339844 2.105469,6.324219 2.113281,6.308594 2.121094,6.292969 Z m 7.167968,0.058593 c -0.00391,0 -0.00781,0.00391 -0.011718,0.00391 0.00391,0 0.00781,-0.00391 0.011718,-0.00391 z m 3.25,0 c 0.0039,0 0.0078,0.00391 0.01172,0.00391 -0.0039,0 -0.0078,-0.00391 -0.01172,-0.00391 z M 9.21875,6.375 C 9.21484,6.37891 9.21094,6.37891 9.207031,6.37891 c 0.00391,0 0.00781,0 0.011719,-0.00391 z m 3.390625,0 c 0.0039,0.00391 0.0078,0.00391 0.01172,0.00391 -0.0039,0 -0.0078,0 -0.01172,-0.00391 z m 7.144531,0.00391 c 0.01172,0.02734 0.02734,0.05859 0.04297,0.085934 C 19.78125,6.4375 19.765625,6.40625 19.753906,6.378906 Z M 2.074219,6.382812 C 2.0625,6.40625 2.046875,6.433594 2.035156,6.457031 2.046875,6.433594 2.0625,6.40625 2.074219,6.382812 Z M 9,6.460938 c 0,0 -0.00391,0 -0.00781,0 0.00391,0 0.00781,0 0.00781,0 z m 3.828125,0 c 0,0 0.0039,0 0.0078,0 -0.0039,0 -0.0078,0 -0.0078,0 z M 8.929688,6.488281 c 0,0.00391 -0.00391,0.00391 -0.00391,0.00391 0,0 0.00391,0 0.00391,-0.00391 z m 3.96875,0 c 0,0.00391 0.0039,0.00391 0.0039,0.00391 0,0 -0.0039,0 -0.0039,-0.00391 z m 6.914062,0.00781 c 0.01172,0.019531 0.01953,0.039062 0.03125,0.058594 C 19.83203,6.535156 19.82422,6.515625 19.8125,6.496094 Z M 2.015625,6.5 C 2.003906,6.515625 1.996094,6.535156 1.988281,6.550781 1.996094,6.535156 2.003906,6.515625 2.015625,6.5 Z m 17.839844,0.082031 c 0.01563,0.03125 0.03125,0.0625 0.04687,0.09375 -0.01563,-0.03125 -0.03125,-0.0625 -0.04687,-0.09375 z M 8.722656,6.585938 c -0.00391,0 -0.00391,0 -0.00781,0.00391 0.00391,-0.00391 0.00391,-0.00391 0.00781,-0.00391 z m 4.382813,0 c 0.0039,0 0.0039,0 0.0078,0.00391 -0.0039,-0.00391 -0.0039,-0.00391 -0.0078,-0.00391 z M 1.96875,6.589844 C 1.953125,6.617188 1.941406,6.644531 1.925781,6.671875 1.941406,6.644531 1.953125,6.617188 1.96875,6.589844 Z m 6.6875,0.027344 c -0.00391,0 -0.00391,0.00391 -0.00781,0.00391 0.00391,0 0.00391,-0.00391 0.00781,-0.00391 z m 4.515625,0 c 0.0039,0 0.0039,0.00391 0.0078,0.00391 -0.0039,0 -0.0039,-0.00391 -0.0078,-0.00391 z m 6.746094,0.09375 c 0.01172,0.015624 0.01953,0.035156 0.02734,0.050781 -0.0078,-0.015625 -0.01562,-0.035157 -0.02734,-0.050781 z m -18.011719,0 C 1.898438,6.726562 1.890625,6.746094 1.882812,6.761719 1.890625,6.746094 1.898438,6.726562 1.90625,6.710938 Z m 18.054688,0.082031 c 0.01172,0.03125 0.02734,0.0625 0.04297,0.09375 -0.01563,-0.03125 -0.03125,-0.0625 -0.04297,-0.09375 z M 1.859375,6.808594 C 1.847656,6.832031 1.835938,6.859375 1.828125,6.882812 1.835938,6.859375 1.847656,6.832031 1.859375,6.808594 Z M 20.019531,6.925781 C 20.03125,6.949219 20.042969,6.976562 20.054688,7 20.042969,6.976562 20.03125,6.949219 20.019531,6.925781 Z M 1.804688,6.929688 c -0.00781,0.019531 -0.019532,0.042968 -0.027344,0.0625 0.00781,-0.019532 0.019531,-0.042969 0.027344,-0.0625 z m 18.273437,0.121093 c 0.0039,0.015625 0.01172,0.03125 0.01953,0.050781 -0.0078,-0.019531 -0.01563,-0.035156 -0.01953,-0.050781 z m -18.328125,0 C 1.746094,7.066406 1.738281,7.082031 1.730469,7.097656 1.738281,7.082031 1.746094,7.066406 1.75,7.050781 Z m 18.367188,0.097657 c 0.01172,0.023437 0.02344,0.046874 0.03516,0.074218 -0.01172,-0.027344 -0.02344,-0.050781 -0.03516,-0.074218 z M 1.707031,7.152344 C 1.699219,7.171875 1.6875,7.195312 1.679688,7.21875 1.6875,7.195312 1.699219,7.171875 1.707031,7.152344 Z m 18.460938,0.117187 c 0.0078,0.015625 0.01563,0.03125 0.02344,0.046875 -0.0078,-0.015625 -0.01563,-0.03125 -0.02344,-0.046875 z m -18.511719,0 C 1.652344,7.285156 1.644531,7.300781 1.640625,7.316406 1.644531,7.300781 1.652344,7.285156 1.65625,7.269531 Z m 18.558594,0.109375 c 0.0078,0.023438 0.01563,0.042969 0.02344,0.066406 -0.0078,-0.023437 -0.01563,-0.042968 -0.02344,-0.066406 z M 1.605469,7.394531 C 1.601562,7.410156 1.59375,7.425781 1.589844,7.441406 1.59375,7.425781 1.601562,7.410156 1.605469,7.394531 Z m 18.652343,0.097657 c 0.0078,0.015624 0.01172,0.03125 0.01953,0.046874 -0.0078,-0.015624 -0.01172,-0.03125 -0.01953,-0.046874 z m -18.6875,0 C 1.5625,7.507812 1.558594,7.523438 1.550781,7.539062 1.558594,7.523438 1.5625,7.507812 1.570312,7.492188 Z m 18.734376,0.125 c 0.0078,0.019531 0.01172,0.035156 0.01953,0.050781 -0.0078,-0.015625 -0.01172,-0.03125 -0.01953,-0.050781 z M 1.523438,7.621094 C 1.515625,7.632812 1.511719,7.648438 1.503906,7.664062 1.511719,7.648438 1.515625,7.632812 1.523438,7.621094 Z M 20.339844,7.71875 c 0.01172,0.023438 0.01953,0.046875 0.02734,0.070312 -0.0078,-0.023437 -0.01563,-0.046874 -0.02734,-0.070312 z M 1.484375,7.722656 C 1.476562,7.746094 1.46875,7.765625 1.460938,7.789062 1.46875,7.765625 1.476562,7.746094 1.484375,7.722656 Z M 1.441406,7.84375 C 1.4375,7.859375 1.433594,7.875 1.425781,7.890625 1.433594,7.875 1.4375,7.859375 1.441406,7.84375 Z m 18.945313,0 c 0.0039,0.015625 0.0078,0.03125 0.01563,0.046875 -0.0078,-0.015625 -0.01172,-0.03125 -0.01563,-0.046875 z m 0.04297,0.128906 c 0.0039,0.015625 0.0078,0.03125 0.01172,0.046875 -0.0039,-0.015625 -0.0078,-0.03125 -0.01172,-0.046875 z M 1.398438,7.976562 C 1.394531,7.988281 1.390625,8.003906 1.386719,8.015625 1.390625,8.003906 1.394531,7.988281 1.398438,7.976562 Z m 19.0625,0.097657 c 0.0039,0.015625 0.0078,0.03125 0.01172,0.042969 -0.0039,-0.011719 -0.0078,-0.027344 -0.01172,-0.042969 z M 1.367188,8.078125 C 1.363281,8.089844 1.359375,8.105469 1.355469,8.117188 1.359375,8.105469 1.363281,8.089844 1.367188,8.078125 Z M 20.5,8.203125 C 20.5039,8.21875 20.5078,8.234375 20.51172,8.25 20.507812,8.234375 20.503906,8.21875 20.5,8.203125 Z m -19.171875,0 C 1.324219,8.21875 1.320312,8.234375 1.316406,8.246094 1.320312,8.234375 1.324219,8.21875 1.328125,8.203125 Z M 20.53125,8.3125 c 0.0078,0.019531 0.01172,0.035156 0.01563,0.050781 C 20.54298,8.347656 20.53908,8.332031 20.53125,8.3125 Z M 1.292969,8.320312 c -0.00391,0.011719 -0.00391,0.023438 -0.00781,0.03125 0.00391,-0.00781 0.00391,-0.019531 0.00781,-0.03125 z M 20.566406,8.4375 c 0.0039,0.015625 0.0078,0.027344 0.01172,0.042969 -0.0039,-0.015625 -0.0078,-0.027344 -0.01172,-0.042969 z M 1.261719,8.441406 C 1.257812,8.453125 1.253906,8.464844 1.25,8.480469 1.253906,8.464844 1.257812,8.453125 1.261719,8.441406 Z m 19.339843,0.128906 c 0.0039,0.011719 0.0078,0.023438 0.01172,0.039063 -0.0039,-0.015625 -0.0078,-0.027344 -0.01172,-0.039063 z m -19.375,0 c -0.00391,0.011719 -0.00781,0.019532 -0.00781,0.03125 0,-0.011718 0.00391,-0.019531 0.00781,-0.03125 z m 19.402344,0.105469 c 0.0039,0.011719 0.0039,0.023438 0.0078,0.035157 -0.0039,-0.011719 -0.0039,-0.023438 -0.0078,-0.035157 z M 1.199219,8.679688 c -0.00391,0.011718 -0.00781,0.019531 -0.00781,0.03125 0,-0.011719 0.00391,-0.019532 0.00781,-0.03125 z m -0.03125,0.125 C 1.164062,8.820312 1.164062,8.832031 1.160156,8.84375 1.164062,8.832031 1.164062,8.820312 1.167969,8.804688 Z m 19.492187,0 c 0.0039,0.015624 0.0039,0.027343 0.0078,0.039062 -0.0039,-0.011719 -0.0039,-0.023438 -0.0078,-0.039062 z M 6.449219,8.820312 c 0,0.00391 -0.00391,0.00391 -0.00391,0.00781 0,-0.00391 0.00391,-0.00391 0.00391,-0.00781 z m 8.929687,0 c 0,0.00391 0.0039,0.00391 0.0039,0.00781 0,-0.00391 -0.0039,-0.00391 -0.0039,-0.00781 z M 6.417969,8.886719 c -0.00391,0.00391 -0.00391,0.00391 -0.00391,0.00781 0,-0.00391 0,-0.00391 0.00391,-0.00781 z m 8.992187,0 c 0.0039,0.00391 0.0039,0.00391 0.0039,0.00781 0,-0.00391 0,-0.00391 -0.0039,-0.00781 z M 20.6875,8.921875 c 0,0.00781 0.0039,0.019531 0.0039,0.027344 0,-0.00781 -0.0039,-0.019531 -0.0039,-0.027344 z m -19.546875,0 c 0,0.011719 -0.00391,0.019531 -0.00391,0.027344 0,-0.00781 0.00391,-0.015625 0.00391,-0.027344 z m 19.570313,0.125 c 0.0039,0.011719 0.0078,0.023437 0.0078,0.035156 0,-0.011719 -0.0039,-0.023437 -0.0078,-0.035156 z m -19.59375,0 c -0.00391,0.011719 -0.00781,0.023437 -0.00781,0.035156 0,-0.011719 0.00391,-0.023437 0.00781,-0.035156 z m 5.203124,0.050781 c 0,0 0,0.00391 -0.00391,0.00391 0.00391,0 0.00391,-0.00391 0.00391,-0.00391 z m 9.1875,0 c 0,0 0,0.00391 0.0039,0.00391 -0.0039,0 -0.0039,-0.00391 -0.0039,-0.00391 z m -9.21875,0.066406 c 0,0.00391 0,0.00781 0,0.00781 0,0 0,-0.00391 0,-0.00781 z m 9.25,0 c 0,0.00391 0,0.00781 0,0.00781 0,0 0,-0.00391 0,-0.00781 z M 1.089844,9.179688 c -0.00391,0.00781 -0.00391,0.015624 -0.00391,0.023437 0,-0.00781 0,-0.015625 0.00391,-0.023437 z m 19.648437,0 c 0.0039,0.00781 0.0039,0.015624 0.0039,0.023437 0,-0.00781 0,-0.015625 -0.0039,-0.023437 z M 1.070312,9.292969 C 1.066406,9.300781 1.066406,9.3125 1.0625,9.320312 1.066406,9.3125 1.066406,9.300781 1.070312,9.292969 Z m 19.6875,0 c 0.0039,0.00781 0.0039,0.019531 0.0078,0.027343 -0.0039,-0.00781 -0.0039,-0.019531 -0.0078,-0.027343 z M 6.207031,9.378906 c 0,0.00391 0,0.00781 -0.00391,0.011719 0.00391,-0.00391 0.00391,-0.00781 0.00391,-0.011719 z m 9.414063,0 c 0,0.00391 0,0.00781 0.0039,0.011719 -0.0039,-0.00391 -0.0039,-0.00781 -0.0039,-0.011719 z m 5.160156,0.046875 c 0.0039,0.00781 0.0039,0.015625 0.0039,0.027344 0,-0.011719 0,-0.019531 -0.0039,-0.027344 z m -19.734375,0 c -0.00391,0.00781 -0.00391,0.015625 -0.00391,0.023438 0,-0.00781 0,-0.015625 0.00391,-0.023438 z m 5.136719,0.023438 c 0,0.00391 -0.00391,0.00781 -0.00391,0.015625 0,-0.00781 0.00391,-0.011719 0.00391,-0.015625 z m 9.460937,0 c 0,0.00391 0.0039,0.00781 0.0039,0.015625 0,-0.00781 -0.0039,-0.011719 -0.0039,-0.015625 z m 5.15625,0.089843 c 0,0.00781 0.0039,0.015626 0.0039,0.027344 0,-0.011718 -0.0039,-0.019531 -0.0039,-0.027344 z M 1.027344,9.546875 c 0,0.00391 -0.00391,0.011719 -0.00391,0.015625 0,-0.00391 0.00391,-0.011719 0.00391,-0.015625 z m 5.105468,0.054687 c 0,0.00391 0,0.00391 0,0.00781 0,-0.00391 0,-0.00391 0,-0.00781 z m 9.5625,0 c 0,0.00391 0,0.00391 0,0.00781 0,-0.00391 0,-0.00391 0,-0.00781 z M 6.113281,9.671875 c 0,0.00391 -0.00391,0.011719 -0.00391,0.015625 0,-0.00391 0.00391,-0.011719 0.00391,-0.015625 z m 9.601563,0 c 0,0.00391 0.0039,0.011719 0.0039,0.015625 0,-0.00391 -0.0039,-0.011719 -0.0039,-0.015625 z m 5.105468,0 c 0,0.00781 0.0039,0.015625 0.0039,0.023437 0,-0.00781 -0.0039,-0.015624 -0.0039,-0.023437 z m -19.8125,0 c 0,0.00781 -0.00391,0.015625 -0.00391,0.023437 0,-0.00781 0.00391,-0.015624 0.00391,-0.023437 z M 6.09375,9.742188 c -0.00391,0.00391 -0.00391,0.011718 -0.00391,0.015624 0,-0.00391 0,-0.011718 0.00391,-0.015624 z m 9.640625,0 c 0.0039,0.00391 0.0039,0.011718 0.0039,0.015624 0,-0.00391 0,-0.011718 -0.0039,-0.015624 z m 5.105469,0.0625 c 0,0.00391 0,0.011718 0,0.019531 0,-0.00781 0,-0.015625 0,-0.019531 z m -19.851563,0 c 0,0.00391 0,0.011718 0,0.015624 0,-0.00391 0,-0.011718 0,-0.015624 z M 0.976562,9.914062 c 0,0.011719 -0.003906,0.023438 -0.003906,0.03125 0,-0.00781 0.003906,-0.019531 0.003906,-0.03125 z m 19.875,0 c 0,0.011719 0.0039,0.023438 0.0039,0.03125 0,-0.00781 -0.0039,-0.019531 -0.0039,-0.03125 z m -5.058593,0.058594 c 0,0.00391 0.0039,0.011719 0.0039,0.019532 0,-0.00781 -0.0039,-0.015626 -0.0039,-0.019532 z m -9.757813,0 c 0,0.00391 -0.00391,0.011719 -0.00391,0.015625 0,-0.00391 0.00391,-0.011719 0.00391,-0.015625 z m 9.773438,0.070313 c 0,0.0078 0.0039,0.01172 0.0039,0.01953 0,-0.0078 -0.0039,-0.01172 -0.0039,-0.01953 z m -9.789063,0 c 0,0.0078 -0.00391,0.01172 -0.00391,0.01953 0,-0.0078 0.00391,-0.01172 0.00391,-0.01953 z m 14.847657,0.0078 c 0,0.0078 0,0.01563 0,0.02344 0,-0.0078 0,-0.01563 0,-0.02344 z m -19.90625,0.0039 c 0,0.0039 0,0.01172 0,0.01953 0,-0.0078 0,-0.01563 0,-0.01953 z m 19.917968,0.117187 c 0,0.0078 0,0.01563 0,0.01953 0,-0.0039 0,-0.01172 0,-0.01953 z m -19.929687,0 c 0,0.0078 0,0.01563 0,0.01953 0,-0.0039 0,-0.01172 0,-0.01953 z m 5.039062,0.03516 c 0,0.0039 0,0.0078 -0.00391,0.01563 0.00391,-0.0078 0.00391,-0.01172 0.00391,-0.01563 z m 9.851563,0 c 0,0.0039 0,0.0078 0.0039,0.01563 -0.0039,-0.0078 -0.0039,-0.01172 -0.0039,-0.01563 z m 0.01172,0.07031 c 0,0.0078 0.0039,0.01563 0.0039,0.02344 0,-0.0078 -0.0039,-0.01563 -0.0039,-0.02344 z m -9.875,0 c 0,0.0078 -0.00391,0.01563 -0.00391,0.01953 0,-0.0039 0.00391,-0.01172 0.00391,-0.01953 z m 14.910157,0.02344 c 0.0039,0.0078 0.0039,0.01953 0.0039,0.02734 0,-0.0078 0,-0.01953 -0.0039,-0.02734 z m -19.945313,0 C 0.9375,10.3125 0.9375,10.320312 0.9375,10.328125 c 0,-0.0078 0,-0.01563 0.003906,-0.02734 z m 14.921875,0.05078 c 0,0.0078 0.0039,0.01563 0.0039,0.01953 0,-0.0039 -0.0039,-0.01172 -0.0039,-0.01953 z m -9.898437,0.0039 c 0,0.0039 -0.00391,0.01172 -0.00391,0.01563 0,-0.0039 0.00391,-0.01172 0.00391,-0.01563 z m -5.035156,0.08594 c 0,0 0,0.0039 0,0.0039 0,0 0,-0.0039 0,-0.0039 z m 19.96875,0 c 0,0 0,0.0039 0,0.0039 0,0 0,-0.0039 0,-0.0039 z m -14.953126,0.07422 c -0.00391,0.0078 -0.00391,0.01563 -0.00391,0.02344 0,-0.0078 0,-0.01562 0.00391,-0.02344 z m 9.9375,0 c 0.0039,0.0078 0.0039,0.01563 0.0039,0.02344 0,-0.0078 0,-0.01562 -0.0039,-0.02344 z m -14.960937,0.03906 c 0,0.0078 0,0.01562 0,0.02344 0,-0.0078 0,-0.01563 0,-0.02344 z m 19.984375,0 c 0,0.0078 0,0.01562 0,0.02344 0,-0.0078 0,-0.01563 0,-0.02344 z M 5.9375,10.59375 c -0.00391,0.0039 -0.00391,0.01172 -0.00391,0.01953 0,-0.0078 0,-0.01563 0.00391,-0.01953 z m 9.953125,0 c 0.0039,0.0039 0.0039,0.01172 0.0039,0.01953 0,-0.0078 0,-0.01563 -0.0039,-0.01953 z m -9.960937,0.07422 c 0,0.0078 0,0.01563 -0.00391,0.01953 0.00391,-0.0039 0.00391,-0.01172 0.00391,-0.01953 z m 9.96875,0 c 0,0.0078 0,0.01563 0.0039,0.01953 -0.0039,-0.0039 -0.0039,-0.01172 -0.0039,-0.01953 z M 0.917969,10.69141 c 0,0.0078 0,0.01563 0,0.01953 0,-0.0039 0,-0.01172 0,-0.01953 z m 19.992187,0 c 0,0.0078 0,0.01563 0,0.01953 0,-0.0039 0,-0.01172 0,-0.01953 z m -19.996094,0.125 c 0,0.0039 0,0.01172 0,0.01563 0,-0.0039 0,-0.01172 0,-0.01563 z m 20,0 c 0,0.0039 0,0.01172 0,0.01563 0,-0.0039 0,-0.01172 0,-0.01563 z M 5.917969,10.83594 c 0,0.0078 0,0.01562 0,0.02344 0,-0.0078 0,-0.01563 0,-0.02344 z m 9.992187,0 c 0,0.0078 0,0.01562 0,0.02344 0,-0.0078 0,-0.01563 0,-0.02344 z m -9.996094,0.07422 c 0,0.0078 0,0.01953 0,0.02734 0,-0.0078 0,-0.01953 0,-0.02734 z m 10,0 c 0,0.0078 0,0.01953 0,0.02734 0,-0.0078 0,-0.01953 0,-0.02734 z M 0.910156,10.94532 c 0,0.0078 0,0.01563 0,0.02344 0,-0.0078 0,-0.01563 0,-0.02344 z m 20.007813,0 c 0,0.0078 0,0.01563 0,0.02344 0,-0.0078 0,-0.01563 0,-0.02344 z M 5.914062,10.98829 c 0,0.0078 0,0.01563 0,0.02344 0,-0.0078 0,-0.01563 0,-0.02344 z m 10,0 c 0,0.0078 0,0.01563 0,0.02344 0,-0.0078 0,-0.01563 0,-0.02344 z m -10,0.171875 c 0,0.0078 0,0.01563 0,0.02344 0,-0.0078 0,-0.01563 0,-0.02344 z m 10,0 c 0,0.0078 0,0.01563 0,0.02344 0,-0.0078 0,-0.01563 0,-0.02344 z m -15.003906,0.04297 c 0,0.0078 0,0.01563 0,0.02344 0,-0.0078 0,-0.01562 0,-0.02344 z m 20.007813,0 c 0,0.0078 0,0.01563 0,0.02344 0,-0.0078 0,-0.01562 0,-0.02344 z m -15.003907,0.03125 c 0,0.0078 0,0.01953 0,0.02734 0,-0.0078 0,-0.01953 0,-0.02734 z m 10,0 c 0,0.0078 0,0.01953 0,0.02734 0,-0.0078 0,-0.01953 0,-0.02734 z M 5.917969,11.3125 c 0,0.0078 0,0.01563 0,0.02344 0,-0.0078 0,-0.01563 0,-0.02344 z m 9.992187,0 c 0,0.0078 0,0.01563 0,0.02344 0,-0.0078 0,-0.01563 0,-0.02344 z M 0.914062,11.33984 c 0,0.0039 0,0.01172 0,0.01563 0,-0.0039 0,-0.01172 0,-0.01563 z m 20,0 c 0,0.0039 0,0.01172 0,0.01563 0,-0.0039 0,-0.01172 0,-0.01563 z M 0.917969,11.460938 c 0,0.0039 0,0.01172 0,0.01953 0,-0.0078 0,-0.01563 0,-0.01953 z m 19.992187,0 c 0,0.0039 0,0.01172 0,0.01953 0,-0.0078 0,-0.01563 0,-0.01953 z m -14.984375,0.02344 c 0,0.0039 0.00391,0.01172 0.00391,0.01953 0,-0.0078 -0.00391,-0.01563 -0.00391,-0.01953 z m 9.976563,0 c 0,0.0039 -0.0039,0.01172 -0.0039,0.01953 0,-0.0078 0.0039,-0.01563 0.0039,-0.01953 z m -9.96875,0.07422 c 0,0.0078 0,0.01563 0.00391,0.01953 -0.00391,-0.0039 -0.00391,-0.01172 -0.00391,-0.01953 z m 9.960937,0 c 0,0.0078 0,0.01563 -0.0039,0.01953 0.0039,-0.0039 0.0039,-0.01172 0.0039,-0.01953 z M 0.921875,11.59375 c 0,0.0078 0,0.01563 0,0.02344 0,-0.0078 0,-0.01563 0,-0.02344 z m 19.984375,0 c 0,0.0078 0,0.01563 0,0.02344 0,-0.0078 0,-0.01563 0,-0.02344 z M 5.941406,11.63281 c 0,0.0078 0,0.01563 0.00391,0.02344 -0.00391,-0.0078 -0.00391,-0.01563 -0.00391,-0.02344 z m 9.945313,0 c 0,0.0078 0,0.01563 -0.0039,0.02344 0.0039,-0.0078 0.0039,-0.01563 0.0039,-0.02344 z M 0.929688,11.72656 c 0,0 0,0.0039 0,0.0039 0,0 0,-0.0039 0,-0.0039 z m 19.96875,0 c 0,0 0,0.0039 0,0.0039 0,0 0,-0.0039 0,-0.0039 z m -5.03125,0.07422 c 0,0.0039 -0.0039,0.01172 -0.0039,0.01953 0,-0.0078 0.0039,-0.01562 0.0039,-0.01953 z m -9.90625,0 c 0,0.0039 0.00391,0.01172 0.00391,0.01563 0,-0.0039 -0.00391,-0.01172 -0.00391,-0.01563 z m 14.929687,0.04297 c 0,0.0078 0,0.01953 -0.0039,0.02734 0.0039,-0.0078 0.0039,-0.01953 0.0039,-0.02734 z m -19.953125,0 c 0,0.0078 0,0.01563 0.003906,0.02734 C 0.9375,11.859375 0.9375,11.851562 0.9375,11.84375 Z m 14.917969,0.02734 c 0,0.0078 -0.0039,0.01563 -0.0039,0.02344 0,-0.0078 0.0039,-0.01563 0.0039,-0.02344 z M 5.972656,11.875 c 0,0.0039 0.00391,0.01172 0.00391,0.01953 0,-0.0078 -0.00391,-0.01563 -0.00391,-0.01953 z m 0.011719,0.07422 c 0.00391,0.0078 0.00391,0.01172 0.00391,0.01563 0,-0.0039 0,-0.0078 -0.00391,-0.01563 z m 9.859375,0 c -0.0039,0.0078 -0.0039,0.01172 -0.0039,0.01563 0,-0.0039 0,-0.0078 0.0039,-0.01563 z m 5.035156,0.03125 c 0,0.0039 0,0.01172 0,0.01953 0,-0.0078 0,-0.01563 0,-0.01953 z m -19.929687,0 c 0,0.0039 0,0.01172 0,0.01953 0,-0.0078 0,-0.01563 0,-0.01953 z m 19.917969,0.117187 c 0,0.0078 0,0.01563 0,0.01953 0,-0.0039 0,-0.01172 0,-0.01953 z m -19.90625,0 c 0,0.0078 0,0.01563 0,0.01953 0,-0.0039 0,-0.01172 0,-0.01953 z m 14.851562,0.01172 c 0,0.0078 -0.0039,0.01172 -0.0039,0.01953 0,-0.0078 0.0039,-0.01172 0.0039,-0.01953 z m -9.796875,0 c 0,0.0078 0.00391,0.01172 0.00391,0.01953 0,-0.0078 -0.00391,-0.01172 -0.00391,-0.01953 z m 9.78125,0.07031 c 0,0.0078 -0.0039,0.01562 -0.0039,0.01953 0,-0.0039 0.0039,-0.01172 0.0039,-0.01953 z m -9.765625,0.0039 c 0,0.0039 0.00391,0.01172 0.00391,0.01563 0,-0.0039 -0.00391,-0.01172 -0.00391,-0.01563 z m -5.058594,0.04297 c 0,0.0078 0.003906,0.01953 0.003906,0.03125 0,-0.01172 -0.003906,-0.02344 -0.003906,-0.03125 z m 19.882813,0 c 0,0.0078 -0.0039,0.01953 -0.0039,0.03125 0,-0.01172 0.0039,-0.02344 0.0039,-0.03125 z m -0.01563,0.121094 c 0,0.0078 0,0.01563 0,0.01953 0,-0.0039 0,-0.01172 0,-0.01953 z m -19.851563,0.0039 c 0,0.0039 0,0.01172 0,0.01563 0,-0.0039 0,-0.01172 0,-0.01563 z m 5.101563,0.0625 c 0,0.0039 0,0.01172 0.00391,0.01563 -0.00391,-0.0039 -0.00391,-0.01172 -0.00391,-0.01563 z m 9.648437,0 c 0,0.0039 0,0.01172 -0.0039,0.01563 0.0039,-0.0039 0.0039,-0.01172 0.0039,-0.01563 z m -14.734375,0.0625 c 0,0.0078 0.00391,0.01563 0.00391,0.02344 0,-0.0078 -0.00391,-0.01563 -0.00391,-0.02344 z m 19.820313,0 c 0,0.0078 -0.0039,0.01563 -0.0039,0.02344 0,-0.0078 0.0039,-0.01563 0.0039,-0.02344 z m -14.714844,0.0078 c 0,0.0039 0.00391,0.01172 0.00391,0.01563 0,-0.0039 -0.00391,-0.01172 -0.00391,-0.01563 z m 9.609375,0 c 0,0.0039 -0.0039,0.01172 -0.0039,0.01563 0,-0.0039 0.0039,-0.01172 0.0039,-0.01563 z M 6.132812,12.5625 c 0,0.0039 0,0.0039 0,0.0078 0,-0.0039 0,-0.0039 0,-0.0078 z m 9.5625,0 c 0,0.0039 0,0.0039 0,0.0078 0,-0.0039 0,-0.0039 0,-0.0078 z m 5.109376,0.04297 c 0,0.01172 -0.0039,0.01953 -0.0039,0.02734 0,-0.0078 0.0039,-0.01562 0.0039,-0.02734 z m -19.78125,0.0039 c 0,0.0039 0.00391,0.01172 0.00391,0.01563 0,-0.0039 -0.00391,-0.01172 -0.00391,-0.01563 z m 5.15625,0.09766 c 0,0.0078 0.00391,0.01172 0.00391,0.01563 0,-0.0039 -0.00391,-0.0078 -0.00391,-0.01563 z m 9.46875,0 c 0,0.0078 -0.0039,0.01172 -0.0039,0.01563 0,-0.0039 0.0039,-0.0078 0.0039,-0.01563 z m 5.136718,0.01172 c 0,0.01172 0,0.01953 -0.0039,0.02734 0.0039,-0.0078 0.0039,-0.01563 0.0039,-0.02734 z m -19.742187,0.0039 c 0,0.0078 0,0.01563 0.00391,0.02344 -0.00391,-0.0078 -0.00391,-0.01563 -0.00391,-0.02344 z m 5.160156,0.05859 c 0.00391,0.0039 0.00391,0.0078 0.00391,0.01172 0,-0.0039 0,-0.0078 -0.00391,-0.01172 z m 9.421875,0 c -0.0039,0.0039 -0.0039,0.0078 -0.0039,0.01172 0,-0.0039 0,-0.0078 0.0039,-0.01172 z M 1.0625,12.85155 c 0.00391,0.0078 0.00391,0.01953 0.00781,0.02734 C 1.0664,12.87109 1.0664,12.85936 1.0625,12.85155 Z m 19.703125,0 c -0.0039,0.0078 -0.0039,0.01953 -0.0078,0.02734 0.0039,-0.0078 0.0039,-0.01953 0.0078,-0.02734 z m -19.679687,0.1172 c 0,0.0078 0,0.01563 0.00391,0.02344 -0.00391,-0.0078 -0.00391,-0.01563 -0.00391,-0.02344 z m 19.65625,0 c 0,0.0078 0,0.01563 -0.0039,0.02344 0.0039,-0.0078 0.0039,-0.01563 0.0039,-0.02344 z M 6.289062,13 c 0,0 0,0.0039 0,0.0078 0,-0.0039 0,-0.0078 0,-0.0078 z m 9.25,0 c 0,0 0,0.0039 0,0.0078 0,-0.0039 0,-0.0078 0,-0.0078 z m -9.222656,0.07031 c 0.00391,0 0.00391,0.0039 0.00391,0.0039 0,0 0,-0.0039 -0.00391,-0.0039 z m 9.195313,0 c -0.0039,0 -0.0039,0.0039 -0.0039,0.0039 0,0 0,-0.0039 0.0039,-0.0039 z m 5.207031,0.01953 c 0,0.01172 -0.0039,0.02344 -0.0078,0.03516 0.0039,-0.01172 0.0078,-0.02344 0.0078,-0.03516 z m -19.609375,0 c 0,0.01172 0.00391,0.02344 0.00781,0.03516 -0.00391,-0.01172 -0.00781,-0.02344 -0.00781,-0.03516 z m 19.582031,0.132812 c 0,0.0078 -0.0039,0.01953 -0.0039,0.02734 0,-0.0078 0.0039,-0.01953 0.0039,-0.02734 z m -19.554687,0 c 0,0.0078 0.00391,0.01563 0.00391,0.02734 0,-0.01172 -0.00391,-0.01953 -0.00391,-0.02734 z m 5.277343,0.05469 c 0,0.0039 0,0.0039 0.00391,0.0078 -0.00391,-0.0039 -0.00391,-0.0039 -0.00391,-0.0078 z m 9,0 c 0,0.0039 0,0.0039 -0.0039,0.0078 0.0039,-0.0039 0.0039,-0.0039 0.0039,-0.0078 z m -14.253906,0.05078 c 0.00391,0.01172 0.00391,0.02344 0.00781,0.03906 -0.00391,-0.01563 -0.00391,-0.02734 -0.00781,-0.03906 z m 19.507813,0 c -0.0039,0.01172 -0.0039,0.02344 -0.0078,0.03906 0.0039,-0.01563 0.0039,-0.02734 0.0078,-0.03906 z M 6.445312,13.34375 c 0,0.0039 0.00391,0.0039 0.00391,0.0078 0,-0.0039 -0.00391,-0.0039 -0.00391,-0.0078 z m 8.9375,0 c 0,0.0039 -0.0039,0.0039 -0.0039,0.0078 0,-0.0039 0.0039,-0.0039 0.0039,-0.0078 z m 5.253907,0.117188 c -0.0039,0.01172 -0.0039,0.02344 -0.0078,0.03516 0.0039,-0.01172 0.0039,-0.02344 0.0078,-0.03516 z m -19.445313,0 c 0,0.01172 0.00391,0.01953 0.00781,0.03125 -0.00391,-0.01172 -0.00781,-0.01953 -0.00781,-0.03125 z M 6.519531,13.484375 2.125,15.878906 c 0.917969,1.6875 2.308594,3.078125 3.996094,3.996094 L 8.515625,15.480469 C 7.671875,15.023438 6.976562,14.328125 6.519531,13.484375 Z m 8.789063,0 c -0.457032,0.84375 -1.152344,1.539063 -1.996094,1.996094 L 15.707031,19.875 c 1.6875,-0.917969 3.078125,-2.308594 3.996094,-3.996094 z m 5.304687,0.07813 c -0.0039,0.01563 -0.0078,0.02734 -0.01172,0.03906 0.0039,-0.01172 0.0078,-0.02344 0.01172,-0.03906 z m -19.394531,0.0078 c 0,0.01172 0.00391,0.01953 0.00781,0.03125 -0.00391,-0.01172 -0.00781,-0.01953 -0.00781,-0.03125 z m 19.359375,0.121094 c -0.0039,0.01563 -0.0078,0.02734 -0.01172,0.04297 0.0039,-0.01563 0.0078,-0.02734 0.01172,-0.04297 z m -19.328125,0 c 0.00391,0.01563 0.00781,0.02734 0.011719,0.03906 C 1.257812,13.71875 1.253906,13.707031 1.25,13.691406 Z m 19.296875,0.117188 c -0.0039,0.01563 -0.0078,0.03125 -0.01563,0.05078 0.0078,-0.01953 0.01172,-0.03516 0.01563,-0.05078 z m -19.261719,0.01172 c 0.00391,0.0078 0.00391,0.01953 0.00781,0.03125 -0.00391,-0.01172 -0.00391,-0.02344 -0.00781,-0.03125 z m 19.226563,0.101563 c -0.0039,0.01563 -0.0078,0.03125 -0.01172,0.04687 0.0039,-0.01563 0.0078,-0.03125 0.01172,-0.04687 z m -19.195313,0.0039 c 0.00391,0.01172 0.00781,0.02734 0.011719,0.04297 -0.00391,-0.01563 -0.00781,-0.03125 -0.011719,-0.04297 z m 19.15625,0.128907 c -0.0039,0.01172 -0.0078,0.02734 -0.01172,0.04297 0.0039,-0.01563 0.0078,-0.03125 0.01172,-0.04297 z m -19.117187,0 c 0.00391,0.01172 0.00781,0.02734 0.011719,0.03906 -0.00391,-0.01172 -0.00781,-0.02734 -0.011719,-0.03906 z m 19.085937,0.09766 c -0.0039,0.01563 -0.0078,0.03125 -0.01172,0.04687 0.0039,-0.01563 0.0078,-0.03125 0.01172,-0.04687 z m -19.054687,0.0039 c 0.00391,0.01172 0.00781,0.02734 0.011719,0.03906 -0.00391,-0.01172 -0.00781,-0.02734 -0.011719,-0.03906 z m 0.039062,0.125 c 0.00781,0.01563 0.011719,0.03125 0.015625,0.04687 C 1.4375,14.3125 1.433594,14.296875 1.425781,14.28125 Z m 18.976563,0 c -0.0078,0.01563 -0.01172,0.03125 -0.01563,0.04687 0.0039,-0.01563 0.0078,-0.03125 0.01563,-0.04687 z m -0.03516,0.101562 c -0.0078,0.02344 -0.01563,0.04688 -0.02734,0.07031 0.01172,-0.02344 0.01953,-0.04687 0.02734,-0.07031 z m -18.90625,0 c 0.00781,0.02344 0.015624,0.04297 0.023437,0.06641 -0.00781,-0.02344 -0.015625,-0.04297 -0.023437,-0.06641 z m 18.863281,0.121094 c -0.0078,0.01563 -0.01172,0.03125 -0.01953,0.05078 0.0078,-0.01953 0.01172,-0.03516 0.01953,-0.05078 z m -18.820313,0.0039 c 0.00781,0.01563 0.011719,0.03125 0.019532,0.04297 -0.00781,-0.01172 -0.011719,-0.02734 -0.019532,-0.04297 z m 18.773438,0.125 c -0.0078,0.01563 -0.01172,0.03125 -0.01953,0.04688 0.0078,-0.01563 0.01172,-0.03125 0.01953,-0.04688 z m -18.726563,0 c 0.00781,0.01563 0.011719,0.03125 0.019531,0.04688 -0.00781,-0.01563 -0.011718,-0.03125 -0.019531,-0.04688 z m 18.6875,0.09375 c -0.0078,0.02344 -0.01563,0.04297 -0.02344,0.06641 0.0078,-0.02344 0.01563,-0.04297 0.02344,-0.06641 z m -18.648437,0.0039 c 0.00391,0.01563 0.011718,0.03125 0.015625,0.04687 -0.00391,-0.01563 -0.011719,-0.03125 -0.015625,-0.04687 z m 18.601562,0.125 c -0.0078,0.01563 -0.01563,0.03125 -0.02344,0.04687 0.0078,-0.01563 0.01563,-0.03125 0.02344,-0.04687 z m -18.550781,0 c 0.00391,0.01563 0.011719,0.03125 0.015625,0.04687 -0.00391,-0.01563 -0.011719,-0.03125 -0.015625,-0.04687 z m 18.511719,0.09375 c -0.01172,0.02734 -0.02344,0.05078 -0.03516,0.07422 0.01172,-0.02344 0.02344,-0.04688 0.03516,-0.07422 z m -18.472656,0.0039 C 1.6875,14.976562 1.699219,15 1.707031,15.019531 1.699219,15 1.6875,14.976562 1.679688,14.953125 Z m 18.417968,0.117187 c -0.0078,0.01953 -0.01563,0.03516 -0.01953,0.05078 0.0039,-0.01563 0.01172,-0.03125 0.01953,-0.05078 z m -18.367187,0.0039 c 0.00781,0.01563 0.015625,0.03125 0.019531,0.04687 C 1.746086,15.10542 1.738277,15.0898 1.730465,15.07418 Z m 18.324219,0.09766 c -0.01172,0.02344 -0.02344,0.05078 -0.03516,0.07422 0.01172,-0.02344 0.02344,-0.05078 0.03516,-0.07422 z M 1.77734,15.17964 c 0.00781,0.01953 0.019531,0.04297 0.027344,0.0625 -0.00781,-0.01953 -0.019532,-0.04297 -0.027344,-0.0625 z m 18.226562,0.105468 c -0.01563,0.03125 -0.03125,0.0625 -0.04297,0.09375 0.01172,-0.03125 0.02734,-0.0625 0.04297,-0.09375 z m -18.175781,0.0039 c 0.00781,0.02344 0.019531,0.05078 0.03125,0.07422 -0.011719,-0.02344 -0.023437,-0.05078 -0.03125,-0.07422 z m 18.117187,0.121094 c -0.0078,0.01563 -0.01562,0.03516 -0.02734,0.05078 0.01172,-0.01563 0.01953,-0.03516 0.02734,-0.05078 z m -18.0625,0 c 0.00781,0.01563 0.015626,0.03516 0.023438,0.05078 -0.00781,-0.01563 -0.015625,-0.03516 -0.023438,-0.05078 z m 18.019532,0.08594 c -0.01563,0.03125 -0.03125,0.0625 -0.04687,0.09375 0.01563,-0.03125 0.03125,-0.0625 0.04687,-0.09375 z M 1.925781,15.5 C 1.941406,15.52734 1.953125,15.55469 1.96875,15.58203 1.953125,15.554688 1.941406,15.527344 1.925781,15.5 Z m 6.722657,0.05078 c 0.00391,0 0.00391,0.0039 0.00781,0.0039 -0.00391,0 -0.00391,-0.0039 -0.00781,-0.0039 z m 4.53125,0 c -0.0039,0 -0.0039,0.0039 -0.0078,0.0039 0.0039,0 0.0039,-0.0039 0.0078,-0.0039 z m -4.464844,0.03125 c 0.00391,0.0039 0.00391,0.0039 0.00781,0.0039 -0.00391,0 -0.00391,0 -0.00781,-0.0039 z m 4.398437,0 c -0.0039,0.0039 -0.0039,0.0039 -0.0078,0.0039 0.0039,0 0.0039,0 0.0078,-0.0039 z m 6.730469,0.03516 c -0.01172,0.01953 -0.01953,0.03906 -0.03125,0.05859 0.01172,-0.01953 0.01953,-0.03906 0.03125,-0.05859 z m -17.855469,0.0039 c 0.00781,0.01563 0.015625,0.03516 0.027344,0.05078 C 2.003906,15.65624 1.996094,15.63671 1.988281,15.62109 Z m 6.933594,0.05859 c 0.00391,0 0.00781,0.0039 0.011719,0.0039 -0.00391,0 -0.00781,-0.0039 -0.011719,-0.0039 z m 3.984375,0 c -0.0039,0 -0.0078,0.0039 -0.01172,0.0039 0.0039,0 0.0078,-0.0039 0.01172,-0.0039 z m 6.890625,0.02734 c -0.01563,0.02734 -0.03125,0.05859 -0.04297,0.08594 0.01172,-0.02734 0.02734,-0.05859 0.04297,-0.08594 z m -10.804687,0 c 0.00391,0.0039 0.00781,0.0039 0.00781,0.0039 0,0 -0.00391,0 -0.00781,-0.0039 z m 3.84375,0 c -0.0039,0.0039 -0.0078,0.0039 -0.0078,0.0039 0,0 0.0039,0 0.0078,-0.0039 z M 2.035156,15.71482 C 2.046875,15.73826 2.0625,15.7656 2.074219,15.78904 2.0625,15.7656 2.046875,15.73826 2.035156,15.71482 Z m 7.105469,0.05078 c 0,0 0.00391,0.0039 0.00391,0.0039 0,0 -0.00391,-0.0039 -0.00391,-0.0039 z m 3.546875,0 c 0,0 -0.0039,0.0039 -0.0039,0.0039 0,0 0.0039,-0.0039 0.0039,-0.0039 z m -3.480469,0.02734 c 0.00391,0 0.00781,0 0.011719,0.0039 -0.00391,-0.0039 -0.00781,-0.0039 -0.011719,-0.0039 z m 3.414063,0 c -0.0039,0 -0.0078,0 -0.01172,0.0039 0.0039,-0.0039 0.0078,-0.0039 0.01172,-0.0039 z m -3.34375,0.02344 c 0.00391,0 0.00781,0.0039 0.015625,0.0039 -0.00781,0 -0.011719,-0.0039 -0.015625,-0.0039 z m 3.273437,0 c -0.0039,0 -0.0078,0.0039 -0.01563,0.0039 0.0078,0 0.01172,-0.0039 0.01563,-0.0039 z m 7.179688,0.01172 c -0.0078,0.01953 -0.01563,0.03516 -0.02734,0.05078 0.01172,-0.01563 0.01953,-0.03125 0.02734,-0.05078 z M 2.097656,15.832 c 0.00781,0.01563 0.015625,0.03125 0.023438,0.04687 C 2.113284,15.86324 2.105469,15.84762 2.097656,15.832 Z m 7.332032,0.03516 c 0.00391,0 0.00781,0 0.00781,0 0,0 -0.00391,0 -0.00781,0 z m 2.96875,0 c -0.0039,0 -0.0078,0 -0.0078,0 0,0 0.0039,0 0.0078,0 z m -2.902344,0.01953 c 0.00781,0 0.015625,0.0039 0.019531,0.0039 -0.00391,0 -0.011719,-0.0039 -0.019531,-0.0039 z m 2.835937,0 c -0.0078,0 -0.01563,0.0039 -0.01953,0.0039 0.0039,0 0.01172,-0.0039 0.01953,-0.0039 z m -2.761719,0.01953 c 0.00391,0.0039 0.011719,0.0039 0.015626,0.0039 -0.00391,0 -0.011719,0 -0.015626,-0.0039 z m 2.6875,0 c -0.0039,0.0039 -0.01172,0.0039 -0.01562,0.0039 0.0039,0 0.01172,0 0.01562,-0.0039 z m -2.527343,0.04297 c 0,0 0.00391,0 0.00781,0 -0.00391,0 -0.00781,0 -0.00781,0 z m 2.367187,0 c 0,0 -0.0039,0 -0.0078,0 0.0039,0 0.0078,0 0.0078,0 z m -2.296875,0.01563 c 0.00391,0 0.011719,0.0039 0.015625,0.0039 -0.00391,0 -0.011718,-0.0039 -0.015625,-0.0039 z m 2.226563,0 c -0.0039,0 -0.01172,0.0039 -0.01563,0.0039 0.0039,0 0.01172,-0.0039 0.01563,-0.0039 z m -2.15625,0.01563 c 0.00781,0 0.011718,0.0039 0.019531,0.0039 -0.00781,0 -0.011719,-0.0039 -0.019531,-0.0039 z m 2.085937,0 c -0.0078,0 -0.01172,0.0039 -0.01953,0.0039 0.0078,0 0.01172,-0.0039 0.01953,-0.0039 z m -1.921875,0.03125 c 0.0039,0 0.01172,0 0.01563,0.0039 -0.0039,-0.0039 -0.01172,-0.0039 -0.01563,-0.0039 z m 1.757813,0 c -0.0039,0 -0.01172,0 -0.01563,0.0039 0.0039,-0.0039 0.01172,-0.0039 0.01563,-0.0039 z m -1.6875,0.01172 c 0.0078,0 0.01563,0.0039 0.02344,0.0039 -0.0078,0 -0.01563,-0.0039 -0.02344,-0.0039 z m 1.617187,0 c -0.0078,0 -0.01563,0.0039 -0.02344,0.0039 0.0078,0 0.01563,-0.0039 0.02344,-0.0039 z m -1.542968,0.01172 c 0.0078,0 0.01562,0.0039 0.01953,0.0039 -0.0039,0 -0.01172,-0.0039 -0.01953,-0.0039 z m 1.46875,0 c -0.0078,0 -0.01563,0.0039 -0.01953,0.0039 0.0039,0 0.01172,-0.0039 0.01953,-0.0039 z m -1.304688,0.01953 c 0.0078,0.0039 0.01563,0.0039 0.02344,0.0039 -0.0078,0 -0.01563,0 -0.02344,-0.0039 z m 1.140625,0 c -0.0078,0.0039 -0.01563,0.0039 -0.02344,0.0039 0.0078,0 0.01562,0 0.02344,-0.0039 z m -1.0625,0.0078 c 0.0039,0.0039 0.01172,0.0039 0.01953,0.0039 -0.0078,0 -0.01563,0 -0.01953,-0.0039 z m 0.984375,0 c -0.0039,0.0039 -0.01172,0.0039 -0.01953,0.0039 0.0078,0 0.01563,0 0.01953,-0.0039 z m -0.07422,0.0078 c -0.0078,0 -0.01563,0 -0.01953,0.0039 0.0039,-0.0039 0.01172,-0.0039 0.01953,-0.0039 z m -0.835937,0 c 0.0078,0 0.01563,0 0.01953,0.0039 -0.0039,-0.0039 -0.01172,-0.0039 -0.01953,-0.0039 z m 0.167968,0.01172 c 0.0078,0 0.01563,0 0.02344,0 -0.0078,0 -0.01563,0 -0.02344,0 z m 0.5,0 c -0.0078,0 -0.01562,0 -0.02344,0 0.0078,0 0.01563,0 0.02344,0 z m -0.425781,0.0039 c 0.0078,0 0.01953,0 0.02734,0 -0.0078,0 -0.01953,0 -0.02734,0 z m 0.351563,0 c -0.0078,0 -0.01953,0 -0.02734,0 0.0078,0 0.01953,0 0.02734,0 z m -0.273438,0 c 0.0078,0 0.01563,0 0.02344,0 -0.0078,0 -0.01563,0 -0.02344,0 z m 0.195313,0 c -0.0078,0 -0.01563,0 -0.02344,0 0.0078,0 0.01563,0 0.02344,0 z M 6.121094,19.875 c 0.015625,0.01172 0.03125,0.01953 0.050781,0.02734 C 6.152344,19.89454 6.136719,19.88671 6.121094,19.875 Z m 9.585937,0 c -0.01563,0.01172 -0.03125,0.01953 -0.05078,0.02734 0.01953,-0.0078 0.03516,-0.01563 0.05078,-0.02734 z m -9.5,0.05078 C 6.234375,19.9375 6.265625,19.95312 6.292969,19.96875 6.265625,19.95312 6.234375,19.9375 6.207031,19.92578 Z m 9.414063,0 c -0.02734,0.01172 -0.05859,0.02734 -0.08594,0.04297 0.02734,-0.01563 0.05859,-0.03125 0.08594,-0.04297 z M 6.324219,19.98437 C 6.34375,19.99609 6.363281,20.0039 6.382812,20.01562 6.363281,20.0039 6.34375,19.99609 6.324219,19.98437 Z m 9.179687,0 c -0.01953,0.01172 -0.03906,0.01953 -0.05859,0.03125 0.01953,-0.01172 0.03906,-0.01953 0.05859,-0.03125 z m -9.09375,0.04297 c 0.03125,0.01563 0.0625,0.03125 0.09375,0.04687 -0.03125,-0.01563 -0.0625,-0.03125 -0.09375,-0.04687 z m 9.007813,0 c -0.03125,0.01563 -0.0625,0.03125 -0.09375,0.04687 0.03125,-0.01563 0.0625,-0.03125 0.09375,-0.04687 z m -8.878907,0.0625 c 0.015626,0.01172 0.035157,0.01953 0.050782,0.02734 -0.015625,-0.0078 -0.035156,-0.01563 -0.050782,-0.02734 z m 8.75,0 c -0.01562,0.01172 -0.03516,0.01953 -0.05078,0.02734 0.01563,-0.0078 0.03516,-0.01563 0.05078,-0.02734 z m -8.667968,0.04297 c 0.03125,0.01172 0.0625,0.02734 0.09375,0.04297 -0.03125,-0.01563 -0.0625,-0.03125 -0.09375,-0.04297 z m 8.585937,0 c -0.03125,0.01172 -0.0625,0.02734 -0.09375,0.04297 0.03125,-0.01563 0.0625,-0.03125 0.09375,-0.04297 z M 6.753906,20.1914 c 0.023438,0.01172 0.050782,0.02344 0.074219,0.03516 C 6.804688,20.21484 6.777344,20.20312 6.753906,20.1914 Z m 8.320313,0 c -0.02344,0.01172 -0.05078,0.02344 -0.07422,0.03516 0.02344,-0.01172 0.05078,-0.02344 0.07422,-0.03516 z M 6.878906,20.25 c 0.015625,0.0039 0.03125,0.01172 0.050782,0.01953 C 6.910156,20.261719 6.894531,20.253906 6.878906,20.25 Z m 8.070313,0 c -0.01563,0.0039 -0.03125,0.01172 -0.05078,0.01953 0.01953,-0.0078 0.03516,-0.01563 0.05078,-0.01953 z M 6.976562,20.28906 C 7,20.300781 7.023438,20.3125 7.050781,20.324219 7.023438,20.3125 7,20.300781 6.976562,20.289062 Z m 7.875,0 c -0.02344,0.01172 -0.04687,0.02344 -0.07422,0.03516 0.02734,-0.01172 0.05078,-0.02344 0.07422,-0.03516 z m -7.753906,0.05078 c 0.015625,0.0078 0.03125,0.01563 0.046875,0.02344 -0.015625,-0.0078 -0.03125,-0.01563 -0.046875,-0.02344 z m 7.632813,0 c -0.01563,0.0078 -0.03125,0.01563 -0.04687,0.02344 0.01563,-0.0078 0.03125,-0.01563 0.04687,-0.02344 z M 7.207031,20.38671 C 7.230469,20.39451 7.25,20.40234 7.273438,20.41015 7.25,20.402344 7.230469,20.394531 7.207031,20.386719 Z m 7.414063,0 c -0.02344,0.0078 -0.04297,0.01563 -0.06641,0.02344 0.02344,-0.0078 0.04297,-0.01563 0.06641,-0.02344 z m -7.300782,0.04297 c 0.015626,0.0078 0.03125,0.01172 0.046876,0.01953 -0.015626,-0.0078 -0.03125,-0.01172 -0.046876,-0.01953 z m 7.1875,0 c -0.01562,0.0078 -0.03125,0.01172 -0.04687,0.01953 0.01562,-0.0078 0.03125,-0.01172 0.04687,-0.01953 z m -7.0625,0.04687 c 0.019532,0.0078 0.035157,0.01172 0.050782,0.01953 -0.015625,-0.0078 -0.03125,-0.01172 -0.050782,-0.01953 z m 6.9375,0 c -0.01953,0.0078 -0.03516,0.01172 -0.05078,0.01953 0.01563,-0.0078 0.03125,-0.01172 0.05078,-0.01953 z M 7.546875,20.51171 C 7.570312,20.52343 7.59375,20.53124 7.617188,20.53905 7.59375,20.53125 7.570312,20.52343 7.546875,20.51171 Z m 6.734375,0 c -0.02344,0.01172 -0.04687,0.01953 -0.07031,0.02734 0.02344,-0.0078 0.04687,-0.01562 0.07031,-0.02734 z m -6.609375,0.04687 c 0.015625,0.0039 0.03125,0.0078 0.046875,0.01563 C 7.703125,20.56641 7.6875,20.56249 7.671875,20.55858 Z m 6.484375,0 c -0.01563,0.0039 -0.03125,0.0078 -0.04687,0.01563 0.01563,-0.0078 0.03125,-0.01172 0.04687,-0.01563 z m -6.355469,0.04297 c 0.015625,0.0039 0.03125,0.0078 0.046875,0.01172 -0.015625,-0.0039 -0.03125,-0.0078 -0.046875,-0.01172 z m 6.226563,0 c -0.01563,0.0039 -0.03125,0.0078 -0.04687,0.01172 0.01563,-0.0039 0.03125,-0.0078 0.04687,-0.01172 z m -6.125,0.03125 c 0.015625,0.0039 0.03125,0.0078 0.042968,0.01172 -0.011718,-0.0039 -0.027343,-0.0078 -0.042968,-0.01172 z m 6.023437,0 c -0.01563,0.0039 -0.03125,0.0078 -0.04297,0.01172 0.01172,-0.0039 0.02734,-0.0078 0.04297,-0.01172 z M 8.03125,20.67186 c 0.015625,0.0039 0.03125,0.0078 0.046875,0.01172 C 8.0625,20.67968 8.046875,20.67578 8.03125,20.67186 Z m 5.765625,0 c -0.01563,0.0039 -0.03125,0.0078 -0.04687,0.01172 0.01563,-0.0039 0.03125,-0.0078 0.04687,-0.01172 z m -5.65625,0.03125 c 0.019531,0.0078 0.035156,0.01172 0.050781,0.01563 -0.015625,-0.0039 -0.03125,-0.0078 -0.050781,-0.01563 z m 5.546875,0 c -0.01953,0.0078 -0.03516,0.01172 -0.05078,0.01563 0.01563,-0.0039 0.03125,-0.0078 0.05078,-0.01563 z m -5.421875,0.03516 c 0.015625,0.0039 0.027344,0.0078 0.042969,0.01172 -0.015625,-0.0039 -0.027344,-0.0078 -0.042969,-0.01172 z m 5.296875,0 c -0.01563,0.0039 -0.02734,0.0078 -0.04297,0.01172 0.01563,-0.0039 0.02734,-0.0078 0.04297,-0.01172 z m -5.164062,0.03516 c 0.011718,0.0039 0.023437,0.0078 0.039062,0.01172 -0.015625,-0.0039 -0.027344,-0.0078 -0.039062,-0.01172 z m 5.03125,0 c -0.01172,0.0039 -0.02344,0.0078 -0.03906,0.01172 0.01563,-0.0039 0.02734,-0.0078 0.03906,-0.01172 z m -4.925782,0.02734 c 0.011719,0.0039 0.023438,0.0039 0.035156,0.0078 -0.011718,-0.0039 -0.023437,-0.0039 -0.035156,-0.0078 z m 4.820313,0 c -0.01172,0.0039 -0.02344,0.0039 -0.03516,0.0078 0.01172,-0.0039 0.02344,-0.0039 0.03516,-0.0078 z m -4.691407,0.03125 c 0.015626,0.0039 0.027344,0.0039 0.039063,0.0078 -0.011719,-0.0039 -0.023437,-0.0039 -0.039063,-0.0078 z m 4.5625,0 c -0.01562,0.0039 -0.02734,0.0039 -0.03906,0.0078 0.01172,-0.0039 0.02344,-0.0039 0.03906,-0.0078 z M 8.75,20.859375 c 0.00781,0 0.019531,0.0039 0.027344,0.0039 -0.00781,0 -0.019532,-0.0039 -0.027344,-0.0039 z m 4.328125,0 c -0.0078,0 -0.01953,0.0039 -0.02734,0.0039 0.0078,0 0.01953,-0.0039 0.02734,-0.0039 z M 8.875,20.882812 c 0.011719,0.0039 0.023438,0.0078 0.035156,0.0078 -0.011718,0 -0.023437,-0.0039 -0.035156,-0.0078 z m 4.078125,0 c -0.01172,0.0039 -0.02344,0.0078 -0.03516,0.0078 0.01172,0 0.02344,-0.0039 0.03516,-0.0078 z m -3.945313,0.02734 c 0.00781,0.0039 0.015626,0.0039 0.023438,0.0039 -0.00781,0 -0.015625,0 -0.023438,-0.0039 z m 3.8125,0 c -0.0078,0.0039 -0.01562,0.0039 -0.02344,0.0039 0.0078,0 0.01563,0 0.02344,-0.0039 z m -3.699218,0.01953 c 0.00781,0.0039 0.019531,0.0039 0.027344,0.0078 -0.00781,-0.0039 -0.019532,-0.0039 -0.027344,-0.0078 z m 3.585937,0 c -0.0078,0.0039 -0.01953,0.0039 -0.02734,0.0078 0.0078,-0.0039 0.01953,-0.0039 0.02734,-0.0078 z m -3.453125,0.02344 c 0.00781,0.0039 0.015625,0.0039 0.027344,0.0039 -0.011719,0 -0.019531,0 -0.027344,-0.0039 z m 3.320313,0 c -0.0078,0.0039 -0.01563,0.0039 -0.02734,0.0039 0.01172,0 0.01953,0 0.02734,-0.0039 z m -3.207031,0.01953 c 0.00781,0 0.015624,0.0039 0.027343,0.0039 -0.011719,0 -0.019531,-0.0039 -0.027343,-0.0039 z m 3.09375,0 c -0.0078,0 -0.01563,0.0039 -0.02734,0.0039 0.01172,0 0.01953,-0.0039 0.02734,-0.0039 z M 9.5,20.992188 c 0.00781,0 0.015625,0.0039 0.023438,0.0039 -0.00781,0 -0.015626,-0.0039 -0.023438,-0.0039 z m 2.828125,0 c -0.0078,0 -0.01563,0.0039 -0.02344,0.0039 0.0078,0 0.01562,-0.0039 0.02344,-0.0039 z m -2.695313,0.01953 c 0.00391,0 0.011719,0 0.019532,0 -0.00781,0 -0.015625,0 -0.019532,0 z m 2.5625,0 c -0.0039,0 -0.01172,0 -0.01953,0 0.0078,0 0.01563,0 0.01953,0 z m -2.453124,0.01172 c 0.011718,0 0.023437,0.0039 0.03125,0.0039 -0.00781,0 -0.019532,-0.0039 -0.03125,-0.0039 z m 2.34375,0 c -0.01172,0 -0.02344,0.0039 -0.03125,0.0039 0.0078,0 0.01953,-0.0039 0.03125,-0.0039 z m -2.207032,0.01562 c 0.00781,0 0.015625,0 0.023438,0 -0.00781,0 -0.015625,0 -0.023438,0 z m 2.066406,0 c -0.0039,0 -0.01172,0 -0.01953,0 0.0078,0 0.01563,0 0.01953,0 z M 10,21.050781 c 0.0078,0 0.01563,0 0.01953,0 -0.0039,0 -0.01172,0 -0.01953,0 z m 1.828125,0 c -0.0078,0 -0.01563,0 -0.01953,0 0.0039,0 0.01172,0 0.01953,0 z m -1.699219,0.0078 c 0.0078,0.0039 0.01953,0.0039 0.02734,0.0039 -0.0078,0 -0.01953,0 -0.02734,-0.0039 z m 1.570313,0 c -0.0078,0.0039 -0.01953,0.0039 -0.02734,0.0039 0.0078,0 0.01953,0 0.02734,-0.0039 z m -1.429688,0.01172 c 0,0 0.0039,0 0.0039,0 0,0 -0.0039,0 -0.0039,0 z m 1.289063,0 c 0,0 -0.0039,0 -0.0039,0 0,0 0.0039,0 0.0039,0 z m -1.175782,0.0078 c 0.0078,0 0.01563,0 0.02344,0 -0.0078,0 -0.01563,0 -0.02344,0 z m 1.0625,0 c -0.0078,0 -0.01562,0 -0.02344,0 0.0078,0 0.01563,0 0.02344,0 z m -0.925781,0.0039 c 0.0078,0 0.01563,0 0.01953,0 -0.0039,0 -0.01172,0 -0.01953,0 z m 0.789063,0 c -0.0078,0 -0.01563,0 -0.01953,0 0.0039,0 0.01172,0 0.01953,0 z m -0.664063,0.0039 c 0.0039,0 0.01172,0 0.01563,0 -0.0039,0 -0.01172,0 -0.01563,0 z m 0.539063,0 c -0.0039,0 -0.01172,0 -0.01563,0 0.0039,0 0.01172,0 0.01563,0 z m -0.410156,0.0039 c 0.0078,0 0.01562,0 0.02344,0 -0.0078,0 -0.01563,0 -0.02344,0 z m 0.28125,0 c -0.0078,0 -0.01563,0 -0.02344,0 0.0078,0 0.01563,0 0.02344,0 z m 0,0"
       id="path2" />
    <path
       inkscape:connector-curvature="0"
       style="fill:#ee514f;fill-opacity:1;fill-rule:nonzero;stroke:none"
       d="m 10.914062,1.082031 c -1.738281,0 -3.371093,0.4375 -4.792968,1.214844 l 2.394531,4.394531 c 0.710937,-0.386718 1.527344,-0.609375 2.398437,-0.609375 0.871094,0 1.6875,0.222657 2.398438,0.609375 L 15.707031,2.296875 C 14.285156,1.519531 12.652344,1.082031 10.914062,1.082031 Z M 2.125,6.292969 c -0.777344,1.421875 -1.214844,3.054687 -1.214844,4.792969 0,1.738281 0.4375,3.371093 1.214844,4.792968 L 6.519531,13.484375 C 6.132812,12.773438 5.910156,11.957031 5.910156,11.085938 c 0,-0.871094 0.222656,-1.6875 0.609375,-2.398438 z m 17.578125,0 -4.394531,2.394531 c 0.386718,0.710938 0.609375,1.527344 0.609375,2.398438 0,0.871093 -0.222657,1.6875 -0.609375,2.398437 l 4.394531,2.394531 c 0.777344,-1.421875 1.214844,-3.054687 1.214844,-4.792968 0,-1.738282 -0.4375,-3.371094 -1.214844,-4.792969 z m -11.1875,9.1875 L 6.121094,19.875 c 1.421875,0.777344 3.054687,1.214844 4.792968,1.214844 1.738282,0 3.371094,-0.4375 4.792969,-1.214844 L 13.3125,15.480469 c -0.710938,0.386719 -1.527344,0.609375 -2.398438,0.609375 -0.871093,0 -1.6875,-0.222656 -2.398437,-0.609375 z m 0,0"
       id="path4" />
    <path
       inkscape:connector-curvature="0"
       style="fill:#ffb54c;fill-opacity:1;fill-rule:nonzero;stroke:none"
       d="m 4.800781,4.972656 c -1.5625,1.558594 -2.527343,3.71875 -2.527343,6.113282 0,2.394531 0.964843,4.554687 2.527343,6.113281 L 5.121094,16.878906 C 3.640625,15.398438 2.726562,13.351562 2.726562,11.085938 c 0,-2.265626 0.914063,-4.3125 2.394532,-5.792969 z m 12.226563,0 -0.320313,0.320313 c 1.480469,1.480469 2.390625,3.527343 2.390625,5.792969 0,2.265624 -0.910156,4.3125 -2.390625,5.792968 l 0.320313,0.320313 c 1.5625,-1.558594 2.527344,-3.71875 2.527344,-6.113281 0,-2.394532 -0.964844,-4.554688 -2.527344,-6.113282 z m 0,0"
       id="path6" />
    <path
       inkscape:connector-curvature="0"
       style="fill:#ffb54c;fill-opacity:1;fill-rule:nonzero;stroke:none"
       d="m 17.34375,4.65625 c 0.269531,0.265625 0.269531,0.695312 0,0.964844 -0.265625,0.265625 -0.695312,0.265625 -0.964844,0 -0.265625,-0.269532 -0.265625,-0.699219 0,-0.964844 0.269532,-0.269531 0.699219,-0.269531 0.964844,0 z m 0,0"
       id="path8" />
    <path
       inkscape:connector-curvature="0"
       style="fill:#ffb54c;fill-opacity:1;fill-rule:nonzero;stroke:none"
       d="m 5.449219,16.550781 c 0.265625,0.269531 0.265625,0.699219 0,0.964844 -0.269531,0.269531 -0.699219,0.269531 -0.964844,0 -0.269531,-0.265625 -0.269531,-0.695313 0,-0.964844 0.265625,-0.265625 0.695313,-0.265625 0.964844,0 z m 0,0"
       id="path10" />
    <path
       inkscape:connector-curvature="0"
       style="fill:#ffb54c;fill-opacity:1;fill-rule:nonzero;stroke:none"
       d="m 17.34375,17.515625 c -0.265625,0.269531 -0.695312,0.269531 -0.964844,0 -0.265625,-0.265625 -0.265625,-0.695313 0,-0.964844 0.269532,-0.265625 0.699219,-0.265625 0.964844,0 0.269531,0.269531 0.269531,0.699219 0,0.964844 z m 0,0"
       id="path12" />
    <path
       inkscape:connector-curvature="0"
       style="fill:#ffb54c;fill-opacity:1;fill-rule:nonzero;stroke:none"
       d="m 5.449219,5.621094 c -0.269531,0.265625 -0.699219,0.265625 -0.964844,0 -0.269531,-0.269532 -0.269531,-0.699219 0,-0.964844 0.265625,-0.269531 0.695313,-0.269531 0.964844,0 0.265625,0.265625 0.265625,0.695312 0,0.964844 z m 0,0"
       id="path14" />
  </g>
</svg>
