<?xml version="1.0" encoding="UTF-8" standalone="no"?>
<!-- Generated by IcoMoon.io -->

<svg
   xmlns:dc="http://purl.org/dc/elements/1.1/"
   xmlns:cc="http://creativecommons.org/ns#"
   xmlns:rdf="http://www.w3.org/1999/02/22-rdf-syntax-ns#"
   xmlns:svg="http://www.w3.org/2000/svg"
   xmlns="http://www.w3.org/2000/svg"
   xmlns:sodipodi="http://sodipodi.sourceforge.net/DTD/sodipodi-0.dtd"
   xmlns:inkscape="http://www.inkscape.org/namespaces/inkscape"
   version="1.1"
   width="48"
   height="48"
   viewBox="0 0 48 48"
   id="svg6"
   sodipodi:docname="user-circle-o.svg"
   inkscape:version="0.92.4 (5da689c313, 2019-01-14)">
  <metadata
     id="metadata12">
    <rdf:RDF>
      <cc:Work
         rdf:about="">
        <dc:format>image/svg+xml</dc:format>
        <dc:type
           rdf:resource="http://purl.org/dc/dcmitype/StillImage" />
        <dc:title>user-circle-o</dc:title>
      </cc:Work>
    </rdf:RDF>
  </metadata>
  <defs
     id="defs10" />
  <sodipodi:namedview
     pagecolor="#ffffff"
     bordercolor="#666666"
     borderopacity="1"
     objecttolerance="10"
     gridtolerance="10"
     guidetolerance="10"
     inkscape:pageopacity="0"
     inkscape:pageshadow="2"
     inkscape:window-width="1280"
     inkscape:window-height="954"
     id="namedview8"
     showgrid="false"
     inkscape:zoom="8.4285714"
     inkscape:cx="11.923729"
     inkscape:cy="14"
     inkscape:window-x="0"
     inkscape:window-y="0"
     inkscape:window-maximized="1"
     inkscape:current-layer="svg6" />
  <title
     id="title2">user-circle-o</title>
  <path
     d="m 24.000001,1.3983052 c 12.485821,0 22.601694,10.1158728 22.601694,22.6016948 0,12.41156 -10.064211,22.601695 -22.601694,22.601695 C 11.488347,46.601695 1.3983052,36.435775 1.3983052,24 1.3983052,11.514178 11.514178,1.3983052 24.000001,1.3983052 Z M 39.614542,35.476818 C 41.960275,32.248004 43.372881,28.287865 43.372881,24 43.372881,13.330386 34.669614,4.6271188 24,4.6271188 13.330385,4.6271188 4.6271188,13.330386 4.6271188,24 c 0,4.287865 1.412606,8.248004 3.7583391,11.476818 0.9072965,-4.515496 3.1028891,-8.248004 7.7184781,-8.248004 2.043839,1.992177 4.81739,3.228813 7.896064,3.228813 3.078674,0 5.852225,-1.236636 7.896064,-3.228813 4.615589,0 6.811183,3.732508 7.718478,8.248004 z M 33.68644,19.15678 c 0,-5.34853 -4.339524,-9.6864412 -9.686439,-9.6864412 -5.346916,0 -9.686441,4.3395262 -9.686441,9.6864412 0,5.346915 4.339525,9.686441 9.686441,9.686441 5.346915,0 9.686439,-4.339526 9.686439,-9.686441 z"
     id="path4"
     inkscape:connector-curvature="0"
     style="fill:#eeeeee;fill-opacity:1;stroke-width:1.61440682" />
</svg>
