<?xml version="1.0" encoding="UTF-8" standalone="no"?>
<svg
   xmlns:dc="http://purl.org/dc/elements/1.1/"
   xmlns:cc="http://creativecommons.org/ns#"
   xmlns:rdf="http://www.w3.org/1999/02/22-rdf-syntax-ns#"
   xmlns:svg="http://www.w3.org/2000/svg"
   xmlns="http://www.w3.org/2000/svg"
   xmlns:sodipodi="http://sodipodi.sourceforge.net/DTD/sodipodi-0.dtd"
   xmlns:inkscape="http://www.inkscape.org/namespaces/inkscape"
   width="48"
   height="48"
   version="1.1"
   id="svg8"
   sodipodi:docname="insert-link-symbolic.svg"
   inkscape:version="0.92.4 (5da689c313, 2019-01-14)">
  <metadata
     id="metadata14">
    <rdf:RDF>
      <cc:Work
         rdf:about="">
        <dc:format>image/svg+xml</dc:format>
        <dc:type
           rdf:resource="http://purl.org/dc/dcmitype/StillImage" />
        <dc:title></dc:title>
      </cc:Work>
    </rdf:RDF>
  </metadata>
  <defs
     id="defs12" />
  <sodipodi:namedview
     pagecolor="#ffffff"
     bordercolor="#666666"
     borderopacity="1"
     objecttolerance="10"
     gridtolerance="10"
     guidetolerance="10"
     inkscape:pageopacity="0"
     inkscape:pageshadow="2"
     inkscape:window-width="1280"
     inkscape:window-height="954"
     id="namedview10"
     showgrid="false"
     inkscape:zoom="5.2207858"
     inkscape:cx="-36.433226"
     inkscape:cy="9.0815322"
     inkscape:window-x="0"
     inkscape:window-y="0"
     inkscape:window-maximized="1"
     inkscape:current-layer="svg8" />
  <g
     font-weight="400"
     id="g6"
     style="font-weight:400;fill:#eeeeee;fill-opacity:1"
     transform="matrix(2.922989,0,0,2.922989,0.51573906,-0.75414429)">
    <path
       d="m 11.001,11.986 h -1 c -0.257,0 -0.528,0.109 -0.719,0.261 L 8.001,13.317 6.72,12.247 A 1.202,1.202 0 0 0 6,11.987 H 5 v 0.835 c 0,0.258 0.09,0.461 0.282,0.626 l 2.741,2.534 2.697,-2.534 a 0.78,0.78 0 0 0 0.281,-0.626 z"
       style="color:#bebebe;line-height:normal;font-family:'Bitstream Vera Sans';-inkscape-font-specification:'Bitstream Vera Sans';text-indent:0;text-align:start;text-decoration:none;text-decoration-line:none;text-transform:none;overflow:visible;marker:none;fill:#eeeeee;fill-opacity:1"
       overflow="visible"
       id="path2"
       inkscape:connector-curvature="0" />
    <path
       d="m 9.804,4.04 a 0.936,1.01 0 0 0 0.185,1.997 h 4.937 a 0.936,1.01 0 1 0 0,-1.997 H 9.989 a 0.936,1.01 0 0 0 -0.185,0 z m -8.991,0 C 0.363,4.142 0.024,4.639 0.07,5.128 0.116,5.618 0.54,6.032 1,6.038 H 5.916 C 6.451,6.123 7,5.618 7,5.038 7,4.46 6.451,3.954 5.916,4.04 H 1 a 0.834,0.834 0 0 0 -0.187,0 z M 6.059,0.964 A 2.492,2.492 0 0 0 4.152,2.432 2.686,2.686 0 0 0 3.996,2.964 H 12 C 11.974,2.838 11.946,2.701 11.906,2.589 A 2.467,2.467 0 0 0 9.563,0.964 h -3.13 c -0.126,0 -0.252,-0.019 -0.374,0 z m -2.063,6 c 0.236,1.132 1.24,2 2.438,2 h 3.129 c 1.197,0 2.202,-0.868 2.437,-2 z"
       style="color:#000000;line-height:normal;font-family:Sans;-inkscape-font-specification:Sans;text-indent:0;text-align:start;text-decoration:none;text-decoration-line:none;text-transform:none;overflow:visible;marker:none;fill:#eeeeee;fill-opacity:1"
       overflow="visible"
       id="path4"
       inkscape:connector-curvature="0" />
  </g>
</svg>
