<?xml version="1.0" encoding="UTF-8" standalone="no"?>
<svg
   xmlns:dc="http://purl.org/dc/elements/1.1/"
   xmlns:cc="http://creativecommons.org/ns#"
   xmlns:rdf="http://www.w3.org/1999/02/22-rdf-syntax-ns#"
   xmlns:svg="http://www.w3.org/2000/svg"
   xmlns="http://www.w3.org/2000/svg"
   xmlns:sodipodi="http://sodipodi.sourceforge.net/DTD/sodipodi-0.dtd"
   xmlns:inkscape="http://www.inkscape.org/namespaces/inkscape"
   width="48"
   height="48"
   version="1.1"
   id="svg8"
   sodipodi:docname="insert-object-symbolic.svg"
   inkscape:version="0.92.4 (5da689c313, 2019-01-14)">
  <metadata
     id="metadata14">
    <rdf:RDF>
      <cc:Work
         rdf:about="">
        <dc:format>image/svg+xml</dc:format>
        <dc:type
           rdf:resource="http://purl.org/dc/dcmitype/StillImage" />
        <dc:title></dc:title>
      </cc:Work>
    </rdf:RDF>
  </metadata>
  <defs
     id="defs12" />
  <sodipodi:namedview
     pagecolor="#ffffff"
     bordercolor="#666666"
     borderopacity="1"
     objecttolerance="10"
     gridtolerance="10"
     guidetolerance="10"
     inkscape:pageopacity="0"
     inkscape:pageshadow="2"
     inkscape:window-width="1280"
     inkscape:window-height="954"
     id="namedview10"
     showgrid="false"
     inkscape:zoom="7.375"
     inkscape:cx="0.20367351"
     inkscape:cy="0.074551774"
     inkscape:window-x="0"
     inkscape:window-y="0"
     inkscape:window-maximized="1"
     inkscape:current-layer="svg8" />
  <g
     id="g6"
     style="fill:#eeeeee;fill-opacity:1"
     transform="matrix(2.9067797,0,0,2.9067797,0.7457624,0.7457624)">
    <path
       d="M 8,0 3,3.143 V 7.857 L 8,11 13,7.857 V 3.143 Z M 8,6 4.355,3.824 8,1.532 11.646,3.824 Z"
       id="path2"
       inkscape:connector-curvature="0"
       style="fill:#eeeeee;fill-opacity:1" />
    <path
       d="M 11,12 H 10 C 9.743,12 9.472,12.118 9.281,12.284 L 8.001,13.447 6.719,12.284 A 1.145,1.145 0 0 0 6,12 H 5 v 0.908 c 0,0.28 0.09,0.501 0.281,0.68 L 8.001,16 10.719,13.589 A 0.88,0.88 0 0 0 11,12.908 Z"
       style="color:#bebebe;font-weight:400;line-height:normal;font-family:'Bitstream Vera Sans';-inkscape-font-specification:'Bitstream Vera Sans';text-indent:0;text-align:start;text-decoration:none;text-decoration-line:none;text-transform:none;overflow:visible;marker:none;fill:#eeeeee;fill-opacity:1"
       font-weight="400"
       overflow="visible"
       id="path4"
       inkscape:connector-curvature="0" />
  </g>
</svg>
