<?xml version="1.0" encoding="UTF-8" standalone="no"?>
<!-- Generated by IcoMoon.io -->

<svg
   xmlns:dc="http://purl.org/dc/elements/1.1/"
   xmlns:cc="http://creativecommons.org/ns#"
   xmlns:rdf="http://www.w3.org/1999/02/22-rdf-syntax-ns#"
   xmlns:svg="http://www.w3.org/2000/svg"
   xmlns="http://www.w3.org/2000/svg"
   xmlns:sodipodi="http://sodipodi.sourceforge.net/DTD/sodipodi-0.dtd"
   xmlns:inkscape="http://www.inkscape.org/namespaces/inkscape"
   version="1.1"
   width="48"
   height="48"
   viewBox="0 0 48 48"
   id="svg6"
   sodipodi:docname="locked1.svg"
   inkscape:version="0.92.4 (5da689c313, 2019-01-14)">
  <metadata
     id="metadata12">
    <rdf:RDF>
      <cc:Work
         rdf:about="">
        <dc:format>image/svg+xml</dc:format>
        <dc:type
           rdf:resource="http://purl.org/dc/dcmitype/StillImage" />
        <dc:title>locked1</dc:title>
      </cc:Work>
    </rdf:RDF>
  </metadata>
  <defs
     id="defs10" />
  <sodipodi:namedview
     pagecolor="#ffffff"
     bordercolor="#666666"
     borderopacity="1"
     objecttolerance="10"
     gridtolerance="10"
     guidetolerance="10"
     inkscape:pageopacity="0"
     inkscape:pageshadow="2"
     inkscape:window-width="1280"
     inkscape:window-height="954"
     id="namedview8"
     showgrid="false"
     inkscape:zoom="7.375"
     inkscape:cx="13.627119"
     inkscape:cy="16"
     inkscape:window-x="0"
     inkscape:window-y="0"
     inkscape:window-maximized="1"
     inkscape:current-layer="svg6" />
  <title
     id="title2">locked1</title>
  <path
     d="M 42.233051,46.440678 H 5.7669494 c -0.7742034,0 -1.4025424,-0.626936 -1.4025424,-1.402542 V 22.597458 c 0,-0.775606 0.628339,-1.402543 1.4025424,-1.402543 H 9.9745765 V 15.584746 C 9.9745765,7.8385043 16.253759,1.5593221 24,1.5593221 c 7.746242,0 14.025424,6.2791822 14.025424,14.0254239 v 5.610169 h 4.207627 c 0.775606,0 1.402542,0.626937 1.402542,1.402543 v 22.440678 c 0,0.775606 -0.626936,1.402542 -1.402542,1.402542 z M 32.415254,14.883475 c 0,-4.260924 -3.768631,-7.7139835 -8.415254,-7.7139835 -4.646623,0 -8.415254,3.4530595 -8.415254,7.7139835 v 6.31144 h 16.830508 z"
     id="path4"
     inkscape:connector-curvature="0"
     style="stroke-width:1.40254235;fill:#eeeeee;fill-opacity:1" />
</svg>
