<?xml version="1.0" encoding="UTF-8" standalone="no"?>
<svg
   xmlns:dc="http://purl.org/dc/elements/1.1/"
   xmlns:cc="http://creativecommons.org/ns#"
   xmlns:rdf="http://www.w3.org/1999/02/22-rdf-syntax-ns#"
   xmlns:svg="http://www.w3.org/2000/svg"
   xmlns="http://www.w3.org/2000/svg"
   xmlns:sodipodi="http://sodipodi.sourceforge.net/DTD/sodipodi-0.dtd"
   xmlns:inkscape="http://www.inkscape.org/namespaces/inkscape"
   width="48"
   height="48"
   version="1.1"
   id="svg16"
   sodipodi:docname="media-skip-backward-symbolic-rtl.svg"
   inkscape:version="0.92.4 (5da689c313, 2019-01-14)">
  <metadata
     id="metadata22">
    <rdf:RDF>
      <cc:Work
         rdf:about="">
        <dc:format>image/svg+xml</dc:format>
        <dc:type
           rdf:resource="http://purl.org/dc/dcmitype/StillImage" />
        <dc:title></dc:title>
      </cc:Work>
    </rdf:RDF>
  </metadata>
  <defs
     id="defs20" />
  <sodipodi:namedview
     pagecolor="#ffffff"
     bordercolor="#666666"
     borderopacity="1"
     objecttolerance="10"
     gridtolerance="10"
     guidetolerance="10"
     inkscape:pageopacity="0"
     inkscape:pageshadow="2"
     inkscape:window-width="1280"
     inkscape:window-height="954"
     id="namedview18"
     showgrid="false"
     inkscape:zoom="5.2149125"
     inkscape:cx="-23.242079"
     inkscape:cy="7.0136719"
     inkscape:window-x="0"
     inkscape:window-y="0"
     inkscape:window-maximized="1"
     inkscape:current-layer="svg16" />
  <g
     id="g14"
     style="color:#000000;fill:#eeeeee;fill-opacity:1"
     transform="matrix(-2.9532881,0,0,2.9532881,47.629258,0.3736952)">
    <path
       d="m 8.002,5 -5,3 5,3 z m 7,0 -5,3 5,3 z"
       style="overflow:visible;fill:#eeeeee;fill-opacity:1;marker:none"
       overflow="visible"
       id="path2"
       inkscape:connector-curvature="0" />
    <path
       d="M 7.973,4 A 1,1 0 0 0 7.489,4.143 l -5,3 a 1,1 0 0 0 0,1.714 l 5,3 A 1,1 0 0 0 9.002,11 V 5 A 1,1 0 0 0 7.973,4 Z M 7.003,6.766 V 9.234 L 4.945,8 Z"
       style="font-weight:400;line-height:normal;font-family:sans-serif;font-variant-ligatures:normal;font-variant-position:normal;font-variant-caps:normal;font-variant-numeric:normal;font-variant-alternates:normal;font-feature-settings:normal;text-indent:0;text-align:start;text-decoration:none;text-decoration-line:none;text-decoration-style:solid;text-decoration-color:#000000;text-transform:none;text-orientation:mixed;white-space:normal;shape-padding:0;overflow:visible;isolation:auto;mix-blend-mode:normal;fill:#eeeeee;fill-opacity:1;marker:none"
       font-weight="400"
       overflow="visible"
       id="path4"
       inkscape:connector-curvature="0" />
    <path
       d="m 2,3.998 -2,0.004 0.002,1 0.014,6 0.004,1 2,-0.004 -0.004,-1 -0.014,-6 z"
       style="font-weight:400;line-height:normal;font-family:sans-serif;font-variant-ligatures:normal;font-variant-position:normal;font-variant-caps:normal;font-variant-numeric:normal;font-variant-alternates:normal;font-feature-settings:normal;text-indent:0;text-align:start;text-decoration:none;text-decoration-line:none;text-decoration-style:solid;text-decoration-color:#000000;text-transform:none;text-orientation:mixed;white-space:normal;shape-padding:0;overflow:visible;isolation:auto;mix-blend-mode:normal;fill:#eeeeee;fill-opacity:1;marker:none"
       font-weight="400"
       overflow="visible"
       id="path6"
       inkscape:connector-curvature="0" />
    <path
       d="m 8.002,11 h 1 v 1 h -1 z m 0,-7 h 1 v 1 h -1 z"
       style="overflow:visible;fill:#eeeeee;fill-opacity:1;marker:none"
       overflow="visible"
       id="path8"
       inkscape:connector-curvature="0" />
    <path
       d="m 14.973,4 a 1,1 0 0 0 -0.484,0.143 l -5,3 a 1,1 0 0 0 0,1.714 l 5,3 A 1,1 0 0 0 16.002,11 V 5 A 1,1 0 0 0 14.973,4 Z m -0.97,2.766 V 9.234 L 11.945,8 Z"
       style="font-weight:400;line-height:normal;font-family:sans-serif;font-variant-ligatures:normal;font-variant-position:normal;font-variant-caps:normal;font-variant-numeric:normal;font-variant-alternates:normal;font-feature-settings:normal;text-indent:0;text-align:start;text-decoration:none;text-decoration-line:none;text-decoration-style:solid;text-decoration-color:#000000;text-transform:none;text-orientation:mixed;white-space:normal;shape-padding:0;overflow:visible;isolation:auto;mix-blend-mode:normal;fill:#eeeeee;fill-opacity:1;marker:none"
       font-weight="400"
       overflow="visible"
       id="path10"
       inkscape:connector-curvature="0" />
    <path
       d="m 15.002,11 h 1 v 1 h -1 z m 0,-7 h 1 v 1 h -1 z"
       style="overflow:visible;fill:#eeeeee;fill-opacity:1;marker:none"
       overflow="visible"
       id="path12"
       inkscape:connector-curvature="0" />
  </g>
</svg>
