<?xml version="1.0" encoding="UTF-8" standalone="no"?>
<!-- Generated by IcoMoon.io -->

<svg
   xmlns:dc="http://purl.org/dc/elements/1.1/"
   xmlns:cc="http://creativecommons.org/ns#"
   xmlns:rdf="http://www.w3.org/1999/02/22-rdf-syntax-ns#"
   xmlns:svg="http://www.w3.org/2000/svg"
   xmlns="http://www.w3.org/2000/svg"
   xmlns:sodipodi="http://sodipodi.sourceforge.net/DTD/sodipodi-0.dtd"
   xmlns:inkscape="http://www.inkscape.org/namespaces/inkscape"
   version="1.1"
   width="48"
   height="48"
   viewBox="0 0 48 48"
   id="svg6"
   sodipodi:docname="microphone3.svg"
   inkscape:version="0.92.4 (5da689c313, 2019-01-14)">
  <metadata
     id="metadata12">
    <rdf:RDF>
      <cc:Work
         rdf:about="">
        <dc:format>image/svg+xml</dc:format>
        <dc:type
           rdf:resource="http://purl.org/dc/dcmitype/StillImage" />
        <dc:title>microphone3</dc:title>
      </cc:Work>
    </rdf:RDF>
  </metadata>
  <defs
     id="defs10" />
  <sodipodi:namedview
     pagecolor="#ffffff"
     bordercolor="#666666"
     borderopacity="1"
     objecttolerance="10"
     gridtolerance="10"
     guidetolerance="10"
     inkscape:pageopacity="0"
     inkscape:pageshadow="2"
     inkscape:window-width="1280"
     inkscape:window-height="954"
     id="namedview8"
     showgrid="false"
     inkscape:zoom="8.4285714"
     inkscape:cx="-10.457627"
     inkscape:cy="14"
     inkscape:window-x="0"
     inkscape:window-y="0"
     inkscape:window-maximized="1"
     inkscape:current-layer="svg6" />
  <title
     id="title2">microphone3</title>
  <path
     d="M 39.81747,20.485006 V 24 c 0,8.128422 -6.151239,14.828 -14.059974,15.706748 v 3.625716 h 7.029987 c 0.961351,0 1.757497,0.796146 1.757497,1.757497 0,0.96135 -0.796146,1.757496 -1.757497,1.757496 H 15.212516 c -0.961351,0 -1.757497,-0.796146 -1.757497,-1.757496 0,-0.961351 0.796146,-1.757497 1.757497,-1.757497 h 7.029986 V 39.706749 C 14.333767,38.828001 8.1825295,32.128422 8.1825295,24 v -3.514994 c 0,-0.961351 0.796146,-1.757497 1.757496,-1.757497 0.9613505,0 1.7574965,0.796146 1.7574965,1.757497 V 24 c 0,6.782181 5.520297,12.302478 12.302477,12.302478 6.78218,0 12.302478,-5.520297 12.302478,-12.302477 v -3.514994 c 0,-0.961351 0.796147,-1.757497 1.757496,-1.757497 0.961351,0 1.757497,0.796146 1.757497,1.757496 z M 32.787483,9.9400265 V 24.000001 c 0,4.833116 -3.954368,8.787483 -8.787484,8.787483 -4.833116,0 -8.787482,-3.954367 -8.787482,-8.787483 V 9.9400265 c 0,-4.833116 3.954366,-8.787484 8.787483,-8.787484 4.833115,0 8.787483,3.954368 8.787483,8.787484 z"
     id="path4"
     inkscape:connector-curvature="0"
     style="stroke-width:1.75749671;fill:#eeeeee;fill-opacity:1" />
</svg>
