<?xml version="1.0" encoding="UTF-8" standalone="no"?>
<!-- Generated by IcoMoon.io -->

<svg
   xmlns:dc="http://purl.org/dc/elements/1.1/"
   xmlns:cc="http://creativecommons.org/ns#"
   xmlns:rdf="http://www.w3.org/1999/02/22-rdf-syntax-ns#"
   xmlns:svg="http://www.w3.org/2000/svg"
   xmlns="http://www.w3.org/2000/svg"
   xmlns:sodipodi="http://sodipodi.sourceforge.net/DTD/sodipodi-0.dtd"
   xmlns:inkscape="http://www.inkscape.org/namespaces/inkscape"
   version="1.1"
   width="48"
   height="48"
   viewBox="0 0 48 48"
   id="svg6"
   sodipodi:docname="unlocked1.svg"
   inkscape:version="0.92.4 (5da689c313, 2019-01-14)">
  <metadata
     id="metadata12">
    <rdf:RDF>
      <cc:Work
         rdf:about="">
        <dc:format>image/svg+xml</dc:format>
        <dc:type
           rdf:resource="http://purl.org/dc/dcmitype/StillImage" />
        <dc:title>unlocked1</dc:title>
      </cc:Work>
    </rdf:RDF>
  </metadata>
  <defs
     id="defs10" />
  <sodipodi:namedview
     pagecolor="#ffffff"
     bordercolor="#666666"
     borderopacity="1"
     objecttolerance="10"
     gridtolerance="10"
     guidetolerance="10"
     inkscape:pageopacity="0"
     inkscape:pageshadow="2"
     inkscape:window-width="1280"
     inkscape:window-height="954"
     id="namedview8"
     showgrid="false"
     inkscape:zoom="7.375"
     inkscape:cx="13.627119"
     inkscape:cy="16"
     inkscape:window-x="0"
     inkscape:window-y="0"
     inkscape:window-maximized="1"
     inkscape:current-layer="svg6" />
  <title
     id="title2">unlocked1</title>
  <path
     d="m 37.271187,1.881356 c 4.877898,0 8.847457,3.9695592 8.847457,8.847457 v 8.847458 h -5.898305 v -8.847458 c 0,-1.626457 -1.322695,-2.9491521 -2.949152,-2.9491521 h -5.898306 c -1.626457,0 -2.949152,1.3226952 -2.949152,2.9491521 v 8.847458 h 0.737288 c 1.216525,0 2.211864,0.995339 2.211864,2.211865 V 43.90678 c 0,1.216525 -0.995339,2.211864 -2.211864,2.211864 H 4.0932204 c -1.2165254,0 -2.2118644,-0.995339 -2.2118644,-2.211864 V 21.788136 c 0,-1.216526 0.995339,-2.211865 2.2118644,-2.211865 H 22.525424 v -8.847458 c 0,-4.8778977 3.969559,-8.847457 8.847457,-8.847457 z"
     id="path4"
     inkscape:connector-curvature="0"
     style="stroke-width:1.47457623;fill:#eeeeee;fill-opacity:1" />
</svg>
