<?xml version="1.0" encoding="UTF-8" standalone="no"?>
<!-- Generated by IcoMoon.io -->

<svg
   xmlns:dc="http://purl.org/dc/elements/1.1/"
   xmlns:cc="http://creativecommons.org/ns#"
   xmlns:rdf="http://www.w3.org/1999/02/22-rdf-syntax-ns#"
   xmlns:svg="http://www.w3.org/2000/svg"
   xmlns="http://www.w3.org/2000/svg"
   xmlns:sodipodi="http://sodipodi.sourceforge.net/DTD/sodipodi-0.dtd"
   xmlns:inkscape="http://www.inkscape.org/namespaces/inkscape"
   version="1.1"
   width="48"
   height="48"
   viewBox="0 0 48 48"
   id="svg6"
   sodipodi:docname="sort-alpha-desc1.svg"
   inkscape:version="0.92.4 (5da689c313, 2019-01-14)">
  <metadata
     id="metadata12">
    <rdf:RDF>
      <cc:Work
         rdf:about="">
        <dc:format>image/svg+xml</dc:format>
        <dc:type
           rdf:resource="http://purl.org/dc/dcmitype/StillImage" />
        <dc:title>sort-alpha-desc1</dc:title>
      </cc:Work>
    </rdf:RDF>
  </metadata>
  <defs
     id="defs10" />
  <sodipodi:namedview
     pagecolor="#ffffff"
     bordercolor="#666666"
     borderopacity="1"
     objecttolerance="10"
     gridtolerance="10"
     guidetolerance="10"
     inkscape:pageopacity="0"
     inkscape:pageshadow="2"
     inkscape:window-width="1280"
     inkscape:window-height="954"
     id="namedview8"
     showgrid="false"
     inkscape:zoom="8.4285714"
     inkscape:cx="10.923729"
     inkscape:cy="14"
     inkscape:window-x="0"
     inkscape:window-y="0"
     inkscape:window-maximized="1"
     inkscape:current-layer="svg6" />
  <title
     id="title2">sort-alpha-desc1</title>
  <path
     d="m 32.670564,37.488477 h 4.454555 l -1.811777,-5.485255 -0.301157,-1.182084 c -0.02577,-0.201308 -0.04992,-0.352692 -0.04992,-0.504076 h -0.101464 l -0.07569,0.504076 c -0.07569,0.301158 -0.10146,0.679618 -0.277001,1.182084 z m -11.448819,0.201308 c 0,0.227076 -0.10146,0.428385 -0.251233,0.603926 l -8.026575,8.026574 c -0.175541,0.151384 -0.376849,0.227076 -0.578158,0.227076 -0.201308,0 -0.402617,-0.07569 -0.578158,-0.227076 L 3.7352796,38.267943 C 3.5082036,38.01671 3.4341221,37.689785 3.5597386,37.387017 3.6853551,37.084249 3.9881231,36.882941 4.3150482,36.882941 H 9.1464531 V 2.2578728 c 0,-0.4525416 0.3526925,-0.8052341 0.8052341,-0.8052341 h 4.8314048 c 0.452542,0 0.805235,0.3526925 0.805235,0.8052341 V 36.882941 h 4.831404 c 0.452542,0 0.805235,0.352692 0.805235,0.805234 z m 23.276098,6.190641 v 2.666935 h -7.247107 v -2.666935 h 1.887468 l -1.182083,-3.623554 h -6.114948 l -1.182084,3.623554 h 1.887469 v 2.666935 h -7.22134 v -2.666935 h 1.761852 l 5.788023,-16.658685 h 4.076096 l 5.788023,16.658685 h 1.761852 z M 42.259292,14.916153 v 5.863715 H 27.563769 V 18.51555 l 9.28596,-13.3121307 c 0.201309,-0.3011576 0.402617,-0.5540011 0.528234,-0.6796176 l 0.277,-0.227076 v -0.075692 c -0.101459,0 -0.201308,0.025768 -0.352692,0.025768 -0.201309,0.049924 -0.452542,0.075692 -0.75531,0.075692 h -5.837948 v 2.894011 H 27.689385 V 1.4542491 h 14.267139 v 2.2401614 l -9.28596,13.3362875 c -0.151384,0.227076 -0.352693,0.452542 -0.528234,0.65385 l -0.277,0.251233 v 0.07569 l 0.352692,-0.07569 c 0.227076,-0.02577 0.452542,-0.02577 0.75531,-0.02577 h 6.240564 V 14.91615 Z"
     id="path4"
     inkscape:connector-curvature="0"
     style="stroke-width:1.61046827;fill:#eeeeee;fill-opacity:1" />
</svg>
