<?xml version="1.0" encoding="UTF-8" standalone="no"?>
<!-- Generated by IcoMoon.io -->

<svg
   xmlns:dc="http://purl.org/dc/elements/1.1/"
   xmlns:cc="http://creativecommons.org/ns#"
   xmlns:rdf="http://www.w3.org/1999/02/22-rdf-syntax-ns#"
   xmlns:svg="http://www.w3.org/2000/svg"
   xmlns="http://www.w3.org/2000/svg"
   xmlns:sodipodi="http://sodipodi.sourceforge.net/DTD/sodipodi-0.dtd"
   xmlns:inkscape="http://www.inkscape.org/namespaces/inkscape"
   version="1.1"
   width="48"
   height="48"
   viewBox="0 0 48 48"
   id="svg6"
   sodipodi:docname="sort-alpha-asc1.svg"
   inkscape:version="0.92.4 (5da689c313, 2019-01-14)">
  <metadata
     id="metadata12">
    <rdf:RDF>
      <cc:Work
         rdf:about="">
        <dc:format>image/svg+xml</dc:format>
        <dc:type
           rdf:resource="http://purl.org/dc/dcmitype/StillImage" />
        <dc:title>sort-alpha-asc1</dc:title>
      </cc:Work>
    </rdf:RDF>
  </metadata>
  <defs
     id="defs10" />
  <sodipodi:namedview
     pagecolor="#ffffff"
     bordercolor="#666666"
     borderopacity="1"
     objecttolerance="10"
     gridtolerance="10"
     guidetolerance="10"
     inkscape:pageopacity="0"
     inkscape:pageshadow="2"
     inkscape:window-width="1280"
     inkscape:window-height="954"
     id="namedview8"
     showgrid="false"
     inkscape:zoom="8.4285714"
     inkscape:cx="10.923729"
     inkscape:cy="14"
     inkscape:window-x="0"
     inkscape:window-y="0"
     inkscape:window-maximized="1"
     inkscape:current-layer="svg6" />
  <title
     id="title2">sort-alpha-asc1</title>
  <path
     d="m 32.79601,11.543331 h 4.519004 L 35.477024,5.9787153 35.17151,4.7795291 C 35.14537,4.575308 35.12086,4.4217338 35.12086,4.2681595 h -0.102928 l -0.07679,0.5113696 C 34.864361,5.0850438 34.838221,5.4689795 34.66014,5.9787153 Z M 21.181549,37.88785 c 0,0.230361 -0.102927,0.434582 -0.254868,0.612663 l -8.142703,8.142703 c -0.178081,0.153574 -0.382302,0.230361 -0.586523,0.230361 -0.204221,0 -0.408442,-0.07679 -0.586523,-0.230361 L 3.4420891,38.474373 C 3.2117277,38.219505 3.1365743,37.88785 3.2640083,37.580701 3.3914422,37.273553 3.6985907,37.069332 4.0302457,37.069332 H 8.9315516 V 1.9433068 c 0,-0.459089 0.3577953,-0.8168843 0.8168843,-0.8168843 h 4.9013061 c 0.459089,0 0.816884,0.3577953 0.816884,0.8168843 V 37.069332 h 4.901306 c 0.459089,0 0.816884,0.357795 0.816884,0.816884 z m 21.341919,3.037175 v 5.948552 H 27.61533 v -2.297079 l 9.42031,-13.504731 c 0.204221,-0.305515 0.408442,-0.562016 0.535876,-0.68945 l 0.281008,-0.230362 v -0.07679 c -0.102928,0 -0.204221,0.02614 -0.357795,0.02614 -0.204222,0.05065 -0.459089,0.07679 -0.766238,0.07679 H 30.80608 v 2.935882 H 27.742764 V 27.268353 H 42.21632 v 2.272572 l -9.42031,13.529238 c -0.153574,0.230361 -0.357795,0.459089 -0.535876,0.66331 l -0.281008,0.281008 v 0.05065 l 0.357795,-0.05065 c 0.230361,-0.05065 0.459089,-0.05065 0.766237,-0.05065 h 6.330854 v -3.037176 h 3.089456 z m 2.270939,-22.897267 v 2.705521 h -7.351959 v -2.705521 h 1.914777 l -1.199186,-3.675979 h -6.20342 l -1.199186,3.675979 h 1.914777 v 2.705521 h -7.325819 v -2.705521 h 1.787343 L 33.003499,1.1280563 h 4.135068 l 5.871764,16.8997017 h 1.787343 z"
     id="path4"
     inkscape:connector-curvature="0"
     style="stroke-width:1.63376856;fill:#eeeeee;fill-opacity:1" />
</svg>
