<?xml version="1.0" encoding="UTF-8" standalone="no"?>
<!-- Generated by IcoMoon.io -->

<svg
   xmlns:dc="http://purl.org/dc/elements/1.1/"
   xmlns:cc="http://creativecommons.org/ns#"
   xmlns:rdf="http://www.w3.org/1999/02/22-rdf-syntax-ns#"
   xmlns:svg="http://www.w3.org/2000/svg"
   xmlns="http://www.w3.org/2000/svg"
   xmlns:sodipodi="http://sodipodi.sourceforge.net/DTD/sodipodi-0.dtd"
   xmlns:inkscape="http://www.inkscape.org/namespaces/inkscape"
   version="1.1"
   width="48"
   height="48"
   viewBox="0 0 48 48"
   id="svg6"
   sodipodi:docname="system-lock-screen.svg"
   inkscape:version="0.92.4 (5da689c313, 2019-01-14)">
  <metadata
     id="metadata12">
    <rdf:RDF>
      <cc:Work
         rdf:about="">
        <dc:format>image/svg+xml</dc:format>
        <dc:type
           rdf:resource="http://purl.org/dc/dcmitype/StillImage" />
        <dc:title>locked</dc:title>
      </cc:Work>
    </rdf:RDF>
  </metadata>
  <defs
     id="defs10" />
  <sodipodi:namedview
     pagecolor="#ffffff"
     bordercolor="#666666"
     borderopacity="1"
     objecttolerance="10"
     gridtolerance="10"
     guidetolerance="10"
     inkscape:pageopacity="0"
     inkscape:pageshadow="2"
     inkscape:window-width="1280"
     inkscape:window-height="954"
     id="namedview8"
     showgrid="false"
     inkscape:zoom="7.375"
     inkscape:cx="13.627119"
     inkscape:cy="16"
     inkscape:window-x="0"
     inkscape:window-y="0"
     inkscape:window-maximized="1"
     inkscape:current-layer="svg6" />
  <title
     id="title2">locked</title>
  <path
     d="M 5.2668032,45.483051 V 21.777616 h 4.8869218 v -7.407949 c 0,-6.5456635 5.833354,-11.8527179 13.031788,-11.8527179 h 1.628974 c 7.196807,0 13.03179,5.3070544 13.03179,11.8527179 v 7.407949 h 4.88692 V 45.483051 Z M 22.768496,33.314755 21.556539,41.038282 h 4.886921 l -1.213585,-7.723527 c 1.187522,-0.441514 2.028072,-1.500851 2.028072,-2.740941 0,-1.635675 -1.45956,-2.96318 -3.257947,-2.96318 -1.800016,0 -3.257948,1.327505 -3.257948,2.96318 0,1.24009 0.838922,2.299427 2.026444,2.740941 z M 32.959355,15.110462 c 0,-4.50107 -4.012162,-8.1487437 -8.959355,-8.1487437 -4.948822,0 -8.959355,3.6476737 -8.959355,8.1487437 v 6.667154 h 17.91871 z"
     id="path4"
     inkscape:connector-curvature="0"
     style="fill:#eeeeee;fill-opacity:1;stroke-width:1.55353487" />
</svg>
