<?xml version="1.0" encoding="UTF-8" standalone="no"?>
<!-- Generated by IcoMoon.io -->

<svg
   xmlns:dc="http://purl.org/dc/elements/1.1/"
   xmlns:cc="http://creativecommons.org/ns#"
   xmlns:rdf="http://www.w3.org/1999/02/22-rdf-syntax-ns#"
   xmlns:svg="http://www.w3.org/2000/svg"
   xmlns="http://www.w3.org/2000/svg"
   xmlns:sodipodi="http://sodipodi.sourceforge.net/DTD/sodipodi-0.dtd"
   xmlns:inkscape="http://www.inkscape.org/namespaces/inkscape"
   version="1.1"
   width="48"
   height="48"
   viewBox="0 0 48 48"
   id="svg6"
   sodipodi:docname="system-log-in.svg"
   inkscape:version="0.92.4 (5da689c313, 2019-01-14)">
  <metadata
     id="metadata12">
    <rdf:RDF>
      <cc:Work
         rdf:about="">
        <dc:format>image/svg+xml</dc:format>
        <dc:type
           rdf:resource="http://purl.org/dc/dcmitype/StillImage" />
        <dc:title>sign-in</dc:title>
      </cc:Work>
    </rdf:RDF>
  </metadata>
  <defs
     id="defs10" />
  <sodipodi:namedview
     pagecolor="#ffffff"
     bordercolor="#666666"
     borderopacity="1"
     objecttolerance="10"
     gridtolerance="10"
     guidetolerance="10"
     inkscape:pageopacity="0"
     inkscape:pageshadow="2"
     inkscape:window-width="1280"
     inkscape:window-height="954"
     id="namedview8"
     showgrid="false"
     inkscape:zoom="8.4285714"
     inkscape:cx="9.9237288"
     inkscape:cy="14"
     inkscape:window-x="0"
     inkscape:window-y="0"
     inkscape:window-maximized="1"
     inkscape:current-layer="svg6" />
  <title
     id="title2">sign-in</title>
  <path
     d="m 35.846892,24 c 0,0.484811 -0.198663,0.940461 -0.541312,1.281287 l -15.49209,15.49209 c -0.340826,0.340826 -0.798297,0.541313 -1.281286,0.541313 -0.996964,0 -1.822601,-0.825638 -1.822601,-1.822599 V 31.290395 H 3.9514125 c -0.996961,0 -1.822599,-0.825637 -1.822599,-1.822599 V 18.532203 c 0,-0.996961 0.825638,-1.822599 1.822599,-1.822599 H 16.709603 V 8.50791 c 0,-0.996963 0.825637,-1.822599 1.822601,-1.822599 0.484812,0 0.94046,0.198663 1.281286,0.541312 l 15.49209,15.49209 C 35.646407,23.059539 35.846892,23.517011 35.846892,24 Z M 45.871186,13.975706 v 20.048589 c 0,4.527336 -3.674359,8.201694 -8.201695,8.201694 h -9.112995 c -0.48481,0 -0.911299,-0.426488 -0.911299,-0.911299 0,-0.798299 -0.369988,-2.733899 0.911299,-2.733899 h 9.112995 c 2.506073,0 4.556497,-2.050423 4.556497,-4.556496 V 13.975706 c 0,-2.506074 -2.050424,-4.556498 -4.556497,-4.556498 h -8.201696 c -0.712635,0 -1.822598,0.142163 -1.822598,-0.911298 0,-0.798299 -0.369988,-2.733899 0.911299,-2.733899 h 9.112995 c 4.527336,0 8.201695,3.67436 8.201695,8.201695 z"
     id="path4"
     inkscape:connector-curvature="0"
     style="stroke-width:1.8225987;fill:#eeeeee;fill-opacity:1" />
</svg>
