<?xml version="1.0" encoding="UTF-8" standalone="no"?>
<!-- Generated by IcoMoon.io -->

<svg
   xmlns:dc="http://purl.org/dc/elements/1.1/"
   xmlns:cc="http://creativecommons.org/ns#"
   xmlns:rdf="http://www.w3.org/1999/02/22-rdf-syntax-ns#"
   xmlns:svg="http://www.w3.org/2000/svg"
   xmlns="http://www.w3.org/2000/svg"
   xmlns:sodipodi="http://sodipodi.sourceforge.net/DTD/sodipodi-0.dtd"
   xmlns:inkscape="http://www.inkscape.org/namespaces/inkscape"
   version="1.1"
   width="48"
   height="48"
   viewBox="0 0 48 48"
   id="svg6"
   sodipodi:docname="system-suspend.svg"
   inkscape:version="0.92.4 (5da689c313, 2019-01-14)">
  <metadata
     id="metadata12">
    <rdf:RDF>
      <cc:Work
         rdf:about="">
        <dc:format>image/svg+xml</dc:format>
        <dc:type
           rdf:resource="http://purl.org/dc/dcmitype/StillImage" />
        <dc:title>power-off</dc:title>
      </cc:Work>
    </rdf:RDF>
  </metadata>
  <defs
     id="defs10">
    <style
       id="current-color-scheme"
       type="text/css">
     .ColorScheme-Text { color:#eeeeee; } .ColorScheme-Highlight { color:#424242; }
  </style>
    <style
       id="current-color-scheme-7"
       type="text/css">
   .ColorScheme-Text { color:#eeeeee; } .ColorScheme-Highlight { color:#424242; }
  </style>
  </defs>
  <sodipodi:namedview
     pagecolor="#ffffff"
     bordercolor="#666666"
     borderopacity="1"
     objecttolerance="10"
     gridtolerance="10"
     guidetolerance="10"
     inkscape:pageopacity="0"
     inkscape:pageshadow="2"
     inkscape:window-width="1280"
     inkscape:window-height="954"
     id="namedview8"
     showgrid="false"
     inkscape:zoom="16.857143"
     inkscape:cx="16.807565"
     inkscape:cy="20.043817"
     inkscape:window-x="0"
     inkscape:window-y="0"
     inkscape:window-maximized="1"
     inkscape:current-layer="svg6" />
  <title
     id="title2">power-off</title>
  <g
     transform="matrix(3.0423729,0,0,3.0423729,-12.508475,-12.508475)"
     id="surface1-3"
     style="fill:#eeeeee;fill-opacity:1">
    <defs
       id="defs3-6">
      <style
         id="style845"
         type="text/css">
   .ColorScheme-Text { color:#eeeeee; } .ColorScheme-Highlight { color:#424242; }
  </style>
    </defs>
    <path
       inkscape:connector-curvature="0"
       style="color:#eeeeee;fill:#eeeeee;fill-opacity:1"
       class="ColorScheme-Text"
       d="m 12,5 c -3.878906,0 -7,3.121094 -7,7 0,3.878906 3.121094,7 7,7 3.878906,0 7,-3.121094 7,-7 0,-3.878906 -3.121094,-7 -7,-7 z m 0,2 c 2.769531,0 5,2.230469 5,5 0,2.769531 -2.230469,5 -5,5 C 9.230469,17 7,14.769531 7,12 7,9.230469 9.230469,7 12,7 Z m -3,4 c -0.9948742,0.282252 -0.8770157,1.729928 0,2 h 6 c 1.052723,-0.21577 1.007973,-1.790986 0,-2 z"
       id="path5-5"
       sodipodi:nodetypes="ssssssssssccccc" />
  </g>
</svg>
