<?xml version="1.0" encoding="UTF-8" standalone="no"?>
<!-- Generated by IcoMoon.io -->

<svg
   xmlns:dc="http://purl.org/dc/elements/1.1/"
   xmlns:cc="http://creativecommons.org/ns#"
   xmlns:rdf="http://www.w3.org/1999/02/22-rdf-syntax-ns#"
   xmlns:svg="http://www.w3.org/2000/svg"
   xmlns="http://www.w3.org/2000/svg"
   xmlns:sodipodi="http://sodipodi.sourceforge.net/DTD/sodipodi-0.dtd"
   xmlns:inkscape="http://www.inkscape.org/namespaces/inkscape"
   version="1.1"
   width="48"
   height="48"
   viewBox="0 0 48 48"
   id="svg6"
   sodipodi:docname="system-log-out.svg"
   inkscape:version="0.92.4 (5da689c313, 2019-01-14)">
  <metadata
     id="metadata12">
    <rdf:RDF>
      <cc:Work
         rdf:about="">
        <dc:format>image/svg+xml</dc:format>
        <dc:type
           rdf:resource="http://purl.org/dc/dcmitype/StillImage" />
        <dc:title>sign-out</dc:title>
      </cc:Work>
    </rdf:RDF>
  </metadata>
  <defs
     id="defs10" />
  <sodipodi:namedview
     pagecolor="#ffffff"
     bordercolor="#666666"
     borderopacity="1"
     objecttolerance="10"
     gridtolerance="10"
     guidetolerance="10"
     inkscape:pageopacity="0"
     inkscape:pageshadow="2"
     inkscape:window-width="1280"
     inkscape:window-height="954"
     id="namedview8"
     showgrid="false"
     inkscape:zoom="8.4285714"
     inkscape:cx="10.423729"
     inkscape:cy="14"
     inkscape:window-x="0"
     inkscape:window-y="0"
     inkscape:window-maximized="1"
     inkscape:current-layer="svg6" />
  <title
     id="title2">sign-out</title>
  <path
     d="m 19.908595,39.456416 c 0,0.79646 0.369137,2.727603 -0.909201,2.727603 H 9.9073852 c -4.5169104,0 -8.1828087,-3.665898 -8.1828087,-8.182809 V 13.998789 c 0,-4.5169097 3.6658983,-8.1828084 8.1828087,-8.1828084 h 9.0920098 c 0.483695,0 0.909201,0.425506 0.909201,0.9092009 0,0.7964601 0.369136,2.7276028 -0.909201,2.7276028 H 9.9073852 c -2.5003026,0 -4.5460048,2.0457017 -4.5460048,4.5460047 V 34.00121 c 0,2.500303 2.0457022,4.546005 4.5460048,4.546005 h 8.1828088 c 0.710996,0 1.818401,-0.141835 1.818401,0.909201 z M 46.275424,24 c 0,0.483695 -0.198206,0.938295 -0.540065,1.278336 L 30.278943,40.734753 c -0.340042,0.340041 -0.79646,0.540065 -1.278337,0.540065 -0.994666,0 -1.818402,-0.823736 -1.818402,-1.818402 V 31.273607 H 14.453391 c -0.994666,0 -1.818402,-0.823736 -1.818402,-1.818402 V 18.544794 c 0,-0.994666 0.823736,-1.818402 1.818402,-1.818402 H 27.182204 V 8.5435833 c 0,-0.9946657 0.823736,-1.8184018 1.818402,-1.8184018 0.483695,0 0.938295,0.1982058 1.278337,0.5400654 L 45.735359,22.721663 C 46.0754,23.061704 46.275424,23.518123 46.275424,24 Z"
     id="path4"
     inkscape:connector-curvature="0"
     style="stroke-width:1.81840193;fill:#eeeeee;fill-opacity:1" />
</svg>
