<?xml version="1.0" encoding="UTF-8" standalone="no"?>
<svg
   xmlns:dc="http://purl.org/dc/elements/1.1/"
   xmlns:cc="http://creativecommons.org/ns#"
   xmlns:rdf="http://www.w3.org/1999/02/22-rdf-syntax-ns#"
   xmlns:svg="http://www.w3.org/2000/svg"
   xmlns="http://www.w3.org/2000/svg"
   xmlns:sodipodi="http://sodipodi.sourceforge.net/DTD/sodipodi-0.dtd"
   xmlns:inkscape="http://www.inkscape.org/namespaces/inkscape"
   width="48"
   height="48"
   version="1.1"
   id="svg8"
   sodipodi:docname="view-mirror-symbolic.svg"
   inkscape:version="0.92.4 (5da689c313, 2019-01-14)">
  <metadata
     id="metadata14">
    <rdf:RDF>
      <cc:Work
         rdf:about="">
        <dc:format>image/svg+xml</dc:format>
        <dc:type
           rdf:resource="http://purl.org/dc/dcmitype/StillImage" />
        <dc:title />
      </cc:Work>
    </rdf:RDF>
  </metadata>
  <defs
     id="defs12" />
  <sodipodi:namedview
     pagecolor="#ffffff"
     bordercolor="#666666"
     borderopacity="1"
     objecttolerance="10"
     gridtolerance="10"
     guidetolerance="10"
     inkscape:pageopacity="0"
     inkscape:pageshadow="2"
     inkscape:window-width="1280"
     inkscape:window-height="954"
     id="namedview10"
     showgrid="false"
     inkscape:zoom="7.375"
     inkscape:cx="11.650567"
     inkscape:cy="6.3165163"
     inkscape:window-x="0"
     inkscape:window-y="0"
     inkscape:window-maximized="1"
     inkscape:current-layer="svg8" />
  <path
     inkscape:connector-curvature="0"
     d="m 7.9830528,2.6440666 c -2.2984319,0 -3.8173724,0.8569067 -4.5728384,1.8686438 -0.755466,1.0037287 -0.766144,2.135593 -0.766144,2.135593 V 41.351689 c 0,0 0.010678,1.129195 0.766144,2.135593 0.7581355,1.011737 2.2744065,1.868644 4.5728384,1.868644 A 1.3347456,1.3347456 0 0 0 8.8025866,45.078299 L 23.484788,33.732961 A 1.3347456,1.3347456 0 0 0 24,32.675843 V 14.656777 A 1.3347456,1.3347456 0 0 0 23.452754,13.578303 L 8.7705527,2.9003378 A 1.3347456,1.3347456 0 0 0 7.9830528,2.6440666 Z M 7.6814003,5.412329 21.330509,15.340167 V 32.019148 L 7.6600444,42.579655 C 6.4454259,42.480884 5.7593666,42.163214 5.5484768,41.880248 5.3028836,41.55724 5.3135616,41.351689 5.3135616,41.351689 V 6.6483034 c 0,0 -0.010678,-0.2055508 0.2349152,-0.5338982 C 5.7620361,5.8314391 6.4374174,5.5084307 7.6814003,5.412329 Z"
     style="color:#000000;font-weight:400;line-height:normal;font-family:sans-serif;font-variant-ligatures:normal;font-variant-position:normal;font-variant-caps:normal;font-variant-numeric:normal;font-variant-alternates:normal;font-feature-settings:normal;text-indent:0;text-align:start;text-decoration:none;text-decoration-line:none;text-decoration-style:solid;text-decoration-color:#000000;text-transform:none;text-orientation:mixed;white-space:normal;shape-padding:0;overflow:visible;isolation:auto;mix-blend-mode:normal;fill:#eeeeee;fill-opacity:1;fill-rule:evenodd;stroke-width:2.66949129"
     font-weight="400"
     overflow="visible"
     id="path2" />
  <path
     inkscape:connector-curvature="0"
     d="M 5.3135616,5.3135578 H 7.9830528 V 42.686435 H 5.3135616 Z"
     id="path4"
     style="fill:#eeeeee;fill-opacity:1;stroke-width:2.66949129" />
  <path
     inkscape:connector-curvature="0"
     d="m 40.016947,2.6440666 a 1.3347456,1.3347456 0 0 0 -0.7875,0.2562712 L 24.547246,13.578303 A 1.3347456,1.3347456 0 0 0 24,14.656777 v 18.019066 a 1.3347456,1.3347456 0 0 0 0.515212,1.057118 l 14.682201,11.345338 a 1.3347456,1.3347456 0 0 0 0.819534,0.277627 c 2.298432,0 3.817373,-0.856907 4.572839,-1.868644 0.755466,-1.006398 0.766144,-2.135593 0.766144,-2.135593 V 6.6483034 c 0,0 -0.01068,-1.1291948 -0.766144,-2.135593 C 43.83165,3.4983038 42.31271,2.6440666 40.016947,2.6440666 Z m 0,2.9898301 V 42.331392 L 26.669491,32.019148 V 15.340167 Z"
     style="color:#000000;font-weight:400;line-height:normal;font-family:sans-serif;font-variant-ligatures:normal;font-variant-position:normal;font-variant-caps:normal;font-variant-numeric:normal;font-variant-alternates:normal;font-feature-settings:normal;text-indent:0;text-align:start;text-decoration:none;text-decoration-line:none;text-decoration-style:solid;text-decoration-color:#000000;text-transform:none;text-orientation:mixed;white-space:normal;shape-padding:0;overflow:visible;opacity:0.5;isolation:auto;mix-blend-mode:normal;fill:#cccccc;fill-rule:evenodd;stroke-width:2.66949129"
     font-weight="400"
     overflow="visible"
     id="path6" />
</svg>
