<?xml version="1.0" encoding="UTF-8" standalone="no"?>
<!-- Generated by IcoMoon.io -->

<svg
   xmlns:dc="http://purl.org/dc/elements/1.1/"
   xmlns:cc="http://creativecommons.org/ns#"
   xmlns:rdf="http://www.w3.org/1999/02/22-rdf-syntax-ns#"
   xmlns:svg="http://www.w3.org/2000/svg"
   xmlns="http://www.w3.org/2000/svg"
   xmlns:sodipodi="http://sodipodi.sourceforge.net/DTD/sodipodi-0.dtd"
   xmlns:inkscape="http://www.inkscape.org/namespaces/inkscape"
   version="1.1"
   width="48"
   height="48"
   viewBox="0 0 48 48"
   id="svg6"
   sodipodi:docname="view-preview.svg"
   inkscape:version="0.92.4 (5da689c313, 2019-01-14)">
  <metadata
     id="metadata12">
    <rdf:RDF>
      <cc:Work
         rdf:about="">
        <dc:format>image/svg+xml</dc:format>
        <dc:type
           rdf:resource="http://purl.org/dc/dcmitype/StillImage" />
        <dc:title>eye1</dc:title>
      </cc:Work>
    </rdf:RDF>
  </metadata>
  <defs
     id="defs10" />
  <sodipodi:namedview
     pagecolor="#ffffff"
     bordercolor="#666666"
     borderopacity="1"
     objecttolerance="10"
     gridtolerance="10"
     guidetolerance="10"
     inkscape:pageopacity="0"
     inkscape:pageshadow="2"
     inkscape:window-width="1280"
     inkscape:window-height="954"
     id="namedview8"
     showgrid="false"
     inkscape:zoom="8.4285714"
     inkscape:cx="11.923729"
     inkscape:cy="14"
     inkscape:window-x="0"
     inkscape:window-y="0"
     inkscape:window-maximized="1"
     inkscape:current-layer="svg6" />
  <title
     id="title2">eye1</title>
  <path
     d="m 43.627119,24 c -2.427221,-3.756958 -5.750746,-6.977441 -9.736687,-9.021932 1.022246,1.737 1.558721,3.730788 1.558721,5.750746 0,6.311754 -5.137399,11.449152 -11.449153,11.449152 -6.311754,0 -11.449152,-5.137398 -11.449152,-11.449152 0,-2.018322 0.536474,-4.012111 1.55872,-5.750746 C 10.121992,17.022559 6.8001018,20.243042 4.3728814,24 8.7431865,30.746822 15.795864,35.449153 24,35.449153 32.204136,35.449153 39.256814,30.746822 43.627119,24 Z M 25.226695,14.186441 c 0,-0.664051 -0.562644,-1.226695 -1.226695,-1.226695 -4.267263,0 -7.769068,3.501805 -7.769068,7.769068 0,0.66405 0.562644,1.226694 1.226695,1.226694 0.664051,0 1.226695,-0.562644 1.226695,-1.226694 0,-2.912992 2.402687,-5.315678 5.315678,-5.315678 0.664051,0 1.226695,-0.562644 1.226695,-1.226695 z M 46.898305,24 c 0,0.639517 -0.204449,1.226695 -0.511941,1.76317 C 41.684034,33.506068 33.071,38.720339 24,38.720339 14.929,38.720339 6.3143306,33.481534 1.6136357,25.76317 1.3077797,25.226695 1.101695,24.637881 1.101695,24 c 0,-0.637881 0.2044491,-1.226695 0.5119407,-1.763169 C 6.3159662,14.518466 14.929,9.279661 24,9.279661 c 9.071,0 17.68567,5.238805 22.386364,12.95717 0.305856,0.536474 0.511941,1.125288 0.511941,1.763169 z"
     id="path4"
     inkscape:connector-curvature="0"
     style="stroke-width:1.63559318;fill:#eeeeee;fill-opacity:1" />
</svg>
