<?xml version="1.0" encoding="UTF-8" standalone="no"?>
<svg
   xmlns:dc="http://purl.org/dc/elements/1.1/"
   xmlns:cc="http://creativecommons.org/ns#"
   xmlns:rdf="http://www.w3.org/1999/02/22-rdf-syntax-ns#"
   xmlns:svg="http://www.w3.org/2000/svg"
   xmlns="http://www.w3.org/2000/svg"
   xmlns:sodipodi="http://sodipodi.sourceforge.net/DTD/sodipodi-0.dtd"
   xmlns:inkscape="http://www.inkscape.org/namespaces/inkscape"
   height="48"
   width="48"
   id="svg2"
   version="1.1"
   sodipodi:docname="window-pop-out-symbolic.svg"
   inkscape:version="0.92.4 (5da689c313, 2019-01-14)">
  <sodipodi:namedview
     pagecolor="#ffffff"
     bordercolor="#666666"
     borderopacity="1"
     objecttolerance="10"
     gridtolerance="10"
     guidetolerance="10"
     inkscape:pageopacity="0"
     inkscape:pageshadow="2"
     inkscape:window-width="1280"
     inkscape:window-height="954"
     id="namedview8"
     showgrid="false"
     inkscape:zoom="7.375"
     inkscape:cx="-6.9846211"
     inkscape:cy="6.2199525"
     inkscape:window-x="0"
     inkscape:window-y="0"
     inkscape:window-maximized="1"
     inkscape:current-layer="svg2" />
  <metadata
     id="metadata14">
    <rdf:RDF>
      <cc:Work
         rdf:about="">
        <dc:format>image/svg+xml</dc:format>
        <dc:type
           rdf:resource="http://purl.org/dc/dcmitype/StillImage" />
        <dc:title></dc:title>
      </cc:Work>
    </rdf:RDF>
  </metadata>
  <defs
     id="defs12" />
  <g
     transform="matrix(3.0887041,0,0,3.0887041,-2575.2511,-485.66397)"
     id="g4"
     style="fill:#eeeeee;fill-opacity:1">
    <path
       d="m 842,163.95 -6.931,0.068 c -0.583,0.006 -0.809,0.33 -0.91,0.613 -0.008,0.015 -0.01,0.031 -0.016,0.047 -0.057,0.181 -0.074,0.34 -0.074,0.34 v 6 c 0,0.523 0.476,1 1,1 h 5 L 842,171.949 c 0.524,0 1,-0.476 1,-1 v -6 c 0,0 -0.018,-0.167 -0.08,-0.357 -0.004,-0.008 -0.004,-0.017 -0.008,-0.026 -0.1,-0.284 -0.327,-0.623 -0.912,-0.617 z m -7,2.05 h 7 v 5 h -4.096 l -2.835,0.018 V 171 H 835 Z"
       font-weight="400"
       overflow="visible"
       style="color:#000000;font-weight:400;line-height:normal;font-family:Sans;-inkscape-font-specification:Sans;text-indent:0;text-align:start;text-decoration:none;text-decoration-line:none;text-transform:none;overflow:visible;fill:#eeeeee;marker:none;fill-opacity:1"
       id="path6"
       inkscape:connector-curvature="0" />
    <path
       d="m 843,158 2.25,2.223 -1.714,1.714 -0.027,0.027 c -0.38,0.42 -0.379,1.068 0.027,1.473 a 1.07,1.07 0 0 0 1.473,0.054 l 0.214,-0.214 1.554,-1.527 L 849,164 v -6 z"
       overflow="visible"
       style="color:#bebebe;overflow:visible;fill:#eeeeee;marker:none;fill-opacity:1"
       id="path8"
       inkscape:connector-curvature="0" />
  </g>
</svg>
