<?xml version="1.0" encoding="UTF-8" standalone="no"?>
<svg
   xmlns:dc="http://purl.org/dc/elements/1.1/"
   xmlns:cc="http://creativecommons.org/ns#"
   xmlns:rdf="http://www.w3.org/1999/02/22-rdf-syntax-ns#"
   xmlns:svg="http://www.w3.org/2000/svg"
   xmlns="http://www.w3.org/2000/svg"
   xmlns:sodipodi="http://sodipodi.sourceforge.net/DTD/sodipodi-0.dtd"
   xmlns:inkscape="http://www.inkscape.org/namespaces/inkscape"
   width="48"
   height="48"
   version="1.1"
   id="svg4"
   sodipodi:docname="zoom-in-symbolic.svg"
   inkscape:version="0.92.4 (5da689c313, 2019-01-14)">
  <metadata
     id="metadata10">
    <rdf:RDF>
      <cc:Work
         rdf:about="">
        <dc:format>image/svg+xml</dc:format>
        <dc:type
           rdf:resource="http://purl.org/dc/dcmitype/StillImage" />
        <dc:title></dc:title>
      </cc:Work>
    </rdf:RDF>
  </metadata>
  <defs
     id="defs8" />
  <sodipodi:namedview
     pagecolor="#ffffff"
     bordercolor="#666666"
     borderopacity="1"
     objecttolerance="10"
     gridtolerance="10"
     guidetolerance="10"
     inkscape:pageopacity="0"
     inkscape:pageshadow="2"
     inkscape:window-width="1280"
     inkscape:window-height="954"
     id="namedview6"
     showgrid="false"
     inkscape:zoom="5.2149125"
     inkscape:cx="6.4968476"
     inkscape:cy="23.750708"
     inkscape:window-x="0"
     inkscape:window-y="0"
     inkscape:window-maximized="1"
     inkscape:current-layer="svg4" />
  <path
     inkscape:connector-curvature="0"
     d="m 43.765923,43.23618 -1.0004,1.0004 c -1.107636,1.106225 -2.899608,1.106225 -4.004422,0 l -8.008843,-8.006021 c -0.925617,-0.928439 -1.02862,-2.319687 -0.396491,-3.403335 l -4.379748,-4.376926 c -2.354961,1.746819 -5.260213,2.792371 -8.416623,2.792371 -7.8169457,0 -14.1537523,-6.336806 -14.1537523,-14.153753 0,-7.8169474 6.3368066,-14.155165 14.1537523,-14.155165 7.818358,0 14.153754,6.3368066 14.153754,14.155165 0,3.638972 -1.382781,6.946359 -3.640383,9.453708 l 4.282388,4.282389 c 1.083649,-0.630718 2.474897,-0.529126 3.400513,0.399313 l 8.008844,8.006021 c 1.106225,1.107636 1.106225,2.901019 0.0014,4.005833 z M 28.148961,17.031065 c 0,-5.862711 -4.753663,-10.6149629 -10.616374,-10.6149629 -5.862709,0 -10.6163722,4.7508409 -10.6163722,10.6149629 0,5.864121 4.7522512,10.614962 10.6149612,10.614962 5.862711,0 10.617785,-4.752252 10.617785,-10.614962 z m -9.998355,3.626273 h -1.415234 v -2.741576 h -2.830469 v -1.415234 h 2.830469 v -2.831879 h 1.415234 v 2.831879 h 2.831879 v 1.415234 h -2.831879 z"
     id="path4"
     style="stroke-width:1.41100121;fill:#eeeeee;fill-opacity:1" />
</svg>
