<?xml version="1.0" encoding="UTF-8" standalone="no"?>
<svg
   xmlns:dc="http://purl.org/dc/elements/1.1/"
   xmlns:cc="http://creativecommons.org/ns#"
   xmlns:rdf="http://www.w3.org/1999/02/22-rdf-syntax-ns#"
   xmlns:svg="http://www.w3.org/2000/svg"
   xmlns="http://www.w3.org/2000/svg"
   xmlns:sodipodi="http://sodipodi.sourceforge.net/DTD/sodipodi-0.dtd"
   xmlns:inkscape="http://www.inkscape.org/namespaces/inkscape"
   width="48"
   height="48"
   version="1.1"
   id="svg4"
   sodipodi:docname="zoom-out-symbolic.svg"
   inkscape:version="0.92.4 (5da689c313, 2019-01-14)">
  <metadata
     id="metadata10">
    <rdf:RDF>
      <cc:Work
         rdf:about="">
        <dc:format>image/svg+xml</dc:format>
        <dc:type
           rdf:resource="http://purl.org/dc/dcmitype/StillImage" />
        <dc:title></dc:title>
      </cc:Work>
    </rdf:RDF>
  </metadata>
  <defs
     id="defs8" />
  <sodipodi:namedview
     pagecolor="#ffffff"
     bordercolor="#666666"
     borderopacity="1"
     objecttolerance="10"
     gridtolerance="10"
     guidetolerance="10"
     inkscape:pageopacity="0"
     inkscape:pageshadow="2"
     inkscape:window-width="1280"
     inkscape:window-height="954"
     id="namedview6"
     showgrid="false"
     inkscape:zoom="7.375"
     inkscape:cx="11.901403"
     inkscape:cy="17.270859"
     inkscape:window-x="0"
     inkscape:window-y="0"
     inkscape:window-maximized="1"
     inkscape:current-layer="svg4" />
  <path
     inkscape:connector-curvature="0"
     d="m 13.903692,16.499206 h 7.077813 v 1.415218 h -7.077813 z m 29.861993,22.730962 -8.009104,-8.005927 c -0.925647,-0.928427 -2.31835,-1.030018 -3.400623,-0.399308 l -4.282529,-4.282339 c 2.257676,-2.507318 3.640502,-5.814667 3.640502,-9.453596 0,-7.8182661 -6.335602,-14.1549979 -14.154215,-14.1549979 -7.8186139,0 -14.1542159,6.3367318 -14.1542159,14.1549979 0,7.816855 6.3370131,14.153586 14.1542159,14.153586 3.156512,0 6.06186,-1.04554 8.416896,-2.792338 l 4.379892,4.376874 c -0.63074,1.085047 -0.529144,2.474866 0.396504,3.403295 l 8.009104,8.005927 c 1.104849,1.106211 2.896879,1.106211 4.004552,0 l 1.000432,-1.00039 c 1.103439,-1.106211 1.103439,-2.899572 -0.0014,-4.005784 z M 17.530084,27.644573 c -5.862902,0 -10.6153094,-4.752195 -10.6153094,-10.614837 0,-5.862641 4.7524074,-10.614837 10.6153094,-10.614837 5.862901,0 10.616719,4.752196 10.616719,10.614837 0,5.862642 -4.752407,10.614837 -10.616719,10.614837 z"
     id="path4"
     style="stroke-width:1.41101599;fill:#eeeeee;fill-opacity:1" />
</svg>
