<?xml version="1.0" encoding="UTF-8" standalone="no"?>
<svg
   xmlns:dc="http://purl.org/dc/elements/1.1/"
   xmlns:cc="http://creativecommons.org/ns#"
   xmlns:rdf="http://www.w3.org/1999/02/22-rdf-syntax-ns#"
   xmlns:svg="http://www.w3.org/2000/svg"
   xmlns="http://www.w3.org/2000/svg"
   xmlns:sodipodi="http://sodipodi.sourceforge.net/DTD/sodipodi-0.dtd"
   xmlns:inkscape="http://www.inkscape.org/namespaces/inkscape"
   width="48"
   height="48"
   version="1"
   id="svg20"
   sodipodi:docname="battery-empty-charging.svg"
   inkscape:version="0.92.4 (5da689c313, 2019-01-14)">
  <metadata
     id="metadata26">
    <rdf:RDF>
      <cc:Work
         rdf:about="">
        <dc:format>image/svg+xml</dc:format>
        <dc:type
           rdf:resource="http://purl.org/dc/dcmitype/StillImage" />
      </cc:Work>
    </rdf:RDF>
  </metadata>
  <defs
     id="defs24" />
  <sodipodi:namedview
     pagecolor="#ffffff"
     bordercolor="#666666"
     borderopacity="1"
     objecttolerance="10"
     gridtolerance="10"
     guidetolerance="10"
     inkscape:pageopacity="0"
     inkscape:pageshadow="2"
     inkscape:window-width="1280"
     inkscape:window-height="954"
     id="namedview22"
     showgrid="false"
     inkscape:zoom="13.906433"
     inkscape:cx="30.765174"
     inkscape:cy="17.152935"
     inkscape:window-x="0"
     inkscape:window-y="0"
     inkscape:window-maximized="1"
     inkscape:current-layer="svg20" />
  <rect
     style="opacity:0.2"
     width="32"
     height="36"
     x="6"
     y="9"
     rx="2"
     ry="2"
     id="rect2" />
  <rect
     style="fill:#e4e4e4;fill-opacity:1"
     width="32"
     height="36"
     x="6"
     y="8"
     rx="2"
     ry="2"
     id="rect4" />
  <rect
     style="fill:#e4e4e4;fill-opacity:1"
     width="20"
     height="4"
     x="12"
     y="4"
     id="rect6" />
  <path
     style="opacity:0.2"
     d="m 9,33 v 8 h 26 v -8 z"
     id="path8"
     inkscape:connector-curvature="0" />
  <path
     style="opacity:1;fill:#5d5d5d;fill-opacity:1"
     d="m 9,12 v 8 h 26 v -8 z"
     id="path10"
     inkscape:connector-curvature="0" />
  <path
     style="opacity:1;fill:#5d5d5d;fill-opacity:1"
     d="m 9,22 v 8 h 26 v -8 z"
     id="path12"
     inkscape:connector-curvature="0" />
  <path
     style="opacity:0.2;fill:#ffffff"
     d="M 12,4 V 5 H 32 V 4 Z"
     id="path16"
     inkscape:connector-curvature="0" />
  <path
     style="opacity:0.2;fill:#ffffff"
     d="m 9,32 v 1 h 26 v -1 z"
     id="path18"
     inkscape:connector-curvature="0" />
  <path
     inkscape:connector-curvature="0"
     style="fill:#ec4e42;opacity:0.95"
     d="m 9,32 v 8 h 26 v -8 z"
     id="path14-3" />
  <g
     id="g3884"
     transform="translate(-62.304985,6.398305)">
    <path
       id="path20"
       d="m 97.304985,19.601695 c -5.539,0 -9.999,4.46 -9.999,10 0,5.54 4.4596,10 9.9991,10 5.539505,0 9.999105,-4.46 9.999105,-10 0,-5.54 -4.459,-10 -9.999005,-10 z"
       style="opacity:0.2"
       inkscape:connector-curvature="0" />
    <path
       id="path22"
       d="m 97.304985,18.601695 c -5.539,0 -9.999,4.46 -9.999,10 0,5.54 4.4596,10 9.9991,10 5.539505,0 9.999105,-4.46 9.999105,-10 0,-5.54 -4.459,-10 -9.999005,-10 z"
       style="fill:#fecd38"
       inkscape:connector-curvature="0" />
    <path
       id="path24"
       d="m 97.304985,22.601695 v 4 h 4.000005 l -5.000005,8 v -4 h -4 z"
       style="fill:#3f3f3f"
       inkscape:connector-curvature="0" />
  </g>
</svg>
