<?xml version="1.0" encoding="UTF-8" standalone="no"?>
<svg
   xmlns:dc="http://purl.org/dc/elements/1.1/"
   xmlns:cc="http://creativecommons.org/ns#"
   xmlns:rdf="http://www.w3.org/1999/02/22-rdf-syntax-ns#"
   xmlns:svg="http://www.w3.org/2000/svg"
   xmlns="http://www.w3.org/2000/svg"
   xmlns:sodipodi="http://sodipodi.sourceforge.net/DTD/sodipodi-0.dtd"
   xmlns:inkscape="http://www.inkscape.org/namespaces/inkscape"
   width="48px"
   height="48px"
   viewBox="0 0 48 48"
   version="1.1"
   id="svg17"
   sodipodi:docname="dialog-password.svg"
   inkscape:version="0.92.4 (5da689c313, 2019-01-14)">
  <metadata
     id="metadata23">
    <rdf:RDF>
      <cc:Work
         rdf:about="">
        <dc:format>image/svg+xml</dc:format>
        <dc:type
           rdf:resource="http://purl.org/dc/dcmitype/StillImage" />
      </cc:Work>
    </rdf:RDF>
  </metadata>
  <defs
     id="defs21">
    <clipPath
       id="clipPath13429-3">
      <path
         inkscape:connector-curvature="0"
         d="m 481,318 h 22 v 22 h -22 z"
         id="path2-5" />
    </clipPath>
    <clipPath
       id="clipPath13465-6">
      <path
         inkscape:connector-curvature="0"
         d="m 507,318 h 22 v 22 h -22 z"
         id="path5-2" />
    </clipPath>
    <clipPath
       id="clipPath13501-9">
      <path
         inkscape:connector-curvature="0"
         d="m 530,318 h 22 v 22 h -22 z"
         id="path8-1" />
    </clipPath>
    <clipPath
       id="clipPath13753-2">
      <path
         inkscape:connector-curvature="0"
         d="m 672,1064 c 0,-1.105 4.925,-2 11,-2 6.075,0 11,0.895 11,2 0,1.105 -4.925,2 -11,2 -6.075,0 -11,-0.895 -11,-2"
         id="path11-7" />
    </clipPath>
    <clipPath
       id="clipPath13771-0">
      <path
         inkscape:connector-curvature="0"
         d="m 660,1057 h 51 v 65.001 h -51 z"
         id="path14-9" />
    </clipPath>
    <clipPath
       id="clipPath14035-3">
      <path
         inkscape:connector-curvature="0"
         d="m 659,517 h 53 v 18 h -53 z"
         id="path17-6" />
    </clipPath>
    <clipPath
       id="clipPath14127-0">
      <path
         inkscape:connector-curvature="0"
         d="m 659,500 h 53 v 18 h -53 z"
         id="path20-6" />
    </clipPath>
    <clipPath
       id="clipPath14445-2">
      <path
         inkscape:connector-curvature="0"
         d="m 648,112 h 73 v 60 h -73 z"
         id="path23-6" />
    </clipPath>
    <clipPath
       id="clipPath14609-1">
      <path
         inkscape:connector-curvature="0"
         d="m 826,1056 h 59 v 60 h -59 z"
         id="path26-8" />
    </clipPath>
    <clipPath
       id="clipPath15305-7">
      <path
         inkscape:connector-curvature="0"
         d="M 805,276 H 905 V 376 H 805 Z"
         id="path29-9" />
    </clipPath>
    <clipPath
       id="clipPath15341-2">
      <path
         inkscape:connector-curvature="0"
         d="m 145,1063.8 h 74.152 v 45.21 H 145 Z"
         id="path32-0" />
    </clipPath>
    <clipPath
       id="clipPath15715-2">
      <path
         inkscape:connector-curvature="0"
         d="m 151,667 h 57 v 57 h -57 z"
         id="path35-3" />
    </clipPath>
    <clipPath
       id="clipPath15807-7">
      <path
         inkscape:connector-curvature="0"
         d="m 154,697 h 51 v 51 h -51 z"
         id="path38-5" />
    </clipPath>
    <clipPath
       id="clipPath16001-9">
      <path
         inkscape:connector-curvature="0"
         d="m 500.04,864.45 h 36.012 v 67.52 H 500.04 Z"
         id="path41-2" />
    </clipPath>
    <clipPath
       id="clipPath16093-2">
      <path
         inkscape:connector-curvature="0"
         d="m 836,870.54 h 47 v 55.539 h -47 z"
         id="path44-8" />
    </clipPath>
    <clipPath
       id="clipPath16477-9">
      <path
         inkscape:connector-curvature="0"
         d="m 318.03,702.35 h 62.848 v 37.991 H 318.03 Z"
         id="path47-7" />
    </clipPath>
    <clipPath
       id="clipPath16579-3">
      <path
         inkscape:connector-curvature="0"
         d="m 485.03,133.35 h 62.847 v 37.991 H 485.03 Z"
         id="path50-6" />
    </clipPath>
    <clipPath
       id="clipPath16709-1">
      <path
         inkscape:connector-curvature="0"
         d="m 493.37,677.93 h 45.643 v 68.067 H 493.37 Z"
         id="path53-2" />
    </clipPath>
    <clipPath
       id="clipPath24218-9">
      <path
         inkscape:connector-curvature="0"
         d="m 144.34,1018.2 h 71.467 v 78 H 144.34 Z"
         id="path56-3" />
    </clipPath>
    <clipPath
       id="clipPath24382-1">
      <path
         inkscape:connector-curvature="0"
         d="m 293.21,1068.6 66.323,-38.292 36.047,62.435 -66.323,38.292 z"
         id="path59-9" />
    </clipPath>
    <clipPath
       id="clipPath24650-4">
      <path
         inkscape:connector-curvature="0"
         d="m 488.86,1054.5 h 10 v 10.706 h -10 z"
         id="path62-7" />
    </clipPath>
    <clipPath
       id="clipPath24700-8">
      <path
         inkscape:connector-curvature="0"
         d="m 508,1066.8 h 10.001 v 10.705 H 508 Z"
         id="path65-4" />
    </clipPath>
    <clipPath
       id="clipPath24750-5">
      <path
         inkscape:connector-curvature="0"
         d="m 525,1045.8 h 10 v 10.706 h -10 z"
         id="path68-0" />
    </clipPath>
    <clipPath
       id="clipPath24864-3">
      <path
         inkscape:connector-curvature="0"
         d="m 836,1043.7 h 25.5 v 31.5 H 836 Z"
         id="path71-6" />
    </clipPath>
    <clipPath
       id="clipPath24896-1">
      <path
         inkscape:connector-curvature="0"
         d="m 838,1062.2 h 24 v 24 h -24 z"
         id="path74-0" />
    </clipPath>
    <clipPath
       id="clipPath25070-6">
      <path
         inkscape:connector-curvature="0"
         d="m 134,489.24 h 7 v 6 h -7 z"
         id="path77-3" />
    </clipPath>
    <clipPath
       id="clipPath25100-2">
      <path
         inkscape:connector-curvature="0"
         d="m 216,489.24 h 7 v 6 h -7 z"
         id="path80-0" />
    </clipPath>
    <clipPath
       id="clipPath25502-6">
      <path
         inkscape:connector-curvature="0"
         d="m 838,477.24 h 22 v 22 h -22 z"
         id="path83-1" />
    </clipPath>
    <clipPath
       id="clipPath25686-5">
      <path
         inkscape:connector-curvature="0"
         d="m 704,1061.2 h 25 v 25 h -25 z"
         id="path86-5" />
    </clipPath>
    <clipPath
       id="clipPath25788-4">
      <path
         inkscape:connector-curvature="0"
         d="m 663.04,1078.6 -1.808,-3.514 -21.07,-47.453 c 13.336,-18.439 48.336,-26.938 73.836,-3.439 0.842,0 6.476,6.246 6,7 l -18.386,25.895 c -0.483,0.765 -1.453,0.946 -2.177,0.431 l -15.505,-11.011 c -0.359,-0.255 -0.847,-0.153 -1.07,0.238 l -18.272,31.869 c -0.218,0.384 -0.502,0.578 -0.782,0.578 -0.282,0 -0.561,-0.197 -0.766,-0.594"
         id="path89-7" />
    </clipPath>
    <clipPath
       id="clipPath26420-6">
      <path
         inkscape:connector-curvature="0"
         d="m 127,820.24 h 100 v 100 H 127 Z"
         id="path92-5" />
    </clipPath>
    <clipPath
       id="clipPath26860-6">
      <path
         inkscape:connector-curvature="0"
         d="m 809,680.24 c 0,-22.092 17.908,-40 40,-40 22.092,0 40,17.908 40,40 0,22.091 -17.908,40 -40,40 -22.092,0 -40,-17.909 -40,-40"
         id="path95-9" />
    </clipPath>
    <clipPath
       id="clipPath27506-3">
      <path
         inkscape:connector-curvature="0"
         d="m 658,469.24 h 44 v 45 h -44 z"
         id="path98-7" />
    </clipPath>
    <clipPath
       id="clipPath27772-4">
      <path
         inkscape:connector-curvature="0"
         d="m 651,271.24 h 58 v 58 h -58 z"
         id="path101-5" />
    </clipPath>
    <clipPath
       id="clipPath27864-2">
      <path
         inkscape:connector-curvature="0"
         d="m 662,307.24 h 38 v 8 h -38 z"
         id="path104-5" />
    </clipPath>
    <clipPath
       id="clipPath28028-4">
      <path
         inkscape:connector-curvature="0"
         d="m 858.98,137.24 c 0.013,-0.101 0.021,-0.203 0.021,-0.307 v -6.693 h 15.75 c 1.237,0 2.25,-1.013 2.25,-2.25 v -11.25 l -27,-4.5 -27,4.5 v -2.25 l 27,-4.5 27,4.5 v -27 c 0,-1.237 -1.013,-2.25 -2.25,-2.25 h -49.5 c -1.237,0 -2.25,1.013 -2.25,2.25 v -4.25 h 54 v 54 z m -35.979,0 v -9.25 c 0,1.237 1.013,2.25 2.25,2.25 h 15.75 v 6.693 c 0,0.104 0.007,0.207 0.02,0.307 z m 22.5,-7 h 9 v 4.5 h -9 z m 1.125,-9 c -0.62,0 -1.125,-0.506 -1.125,-1.125 v -2.25 c 0,-0.619 0.505,-1.125 1.125,-1.125 h 6.75 c 0.619,0 1.125,0.506 1.125,1.125 v 2.25 c 0,0.619 -0.506,1.125 -1.125,1.125 z"
         id="path107-7" />
    </clipPath>
    <clipPath
       id="clipPath28200-4">
      <path
         inkscape:connector-curvature="0"
         d="m 531.27,136.24 c 6.325,-2.29 10.727,-8.277 10.727,-15.484 0,-11.316 -10.2,-20.563 -25.65,-34.575 l -4.35,-3.941 -4.35,3.941 c -15.45,14.012 -25.65,23.259 -25.65,34.575 V 81.24 h 60 v 55 z m -26.983,0 c 2.995,-1.052 5.686,-2.883 7.71,-5.25 2.024,2.367 4.715,4.198 7.71,5.25 z m -22.29,0 v -15.484 c 0,7.207 4.402,13.194 10.727,15.484 z"
         id="path110-4" />
    </clipPath>
    <clipPath
       id="clipPath28364-3">
      <path
         inkscape:connector-curvature="0"
         d="m 648,79.241 h 64 v 64 h -64 z"
         id="path113-0" />
    </clipPath>
    <clipPath
       id="clipPath28984-7">
      <path
         inkscape:connector-curvature="0"
         d="m 500,691.74 c 0,-3.037 2.463,-5.5 5.5,-5.5 3.037,0 5.5,2.463 5.5,5.5 0,3.037 -2.463,5.5 -5.5,5.5 -3.037,0 -5.5,-2.463 -5.5,-5.5"
         id="path116-8" />
    </clipPath>
    <clipPath
       id="clipPath29012-6">
      <path
         inkscape:connector-curvature="0"
         d="m 500,669.74 c 0,-3.037 2.463,-5.5 5.5,-5.5 3.037,0 5.5,2.463 5.5,5.5 0,3.038 -2.463,5.5 -5.5,5.5 -3.037,0 -5.5,-2.462 -5.5,-5.5"
         id="path119-8" />
    </clipPath>
    <clipPath
       id="clipPath29040-8">
      <path
         inkscape:connector-curvature="0"
         d="m 494,680.74 c 0,-3.037 2.462,-5.5 5.5,-5.5 3.038,0 5.5,2.463 5.5,5.5 0,3.038 -2.462,5.5 -5.5,5.5 -3.038,0 -5.5,-2.462 -5.5,-5.5"
         id="path122-4" />
    </clipPath>
    <clipPath
       id="clipPath29068-3">
      <path
         inkscape:connector-curvature="0"
         d="m 513,691.74 c 0,-3.037 2.463,-5.5 5.5,-5.5 3.037,0 5.5,2.463 5.5,5.5 0,3.037 -2.463,5.5 -5.5,5.5 -3.037,0 -5.5,-2.463 -5.5,-5.5"
         id="path125-1" />
    </clipPath>
    <clipPath
       id="clipPath29096-4">
      <path
         inkscape:connector-curvature="0"
         d="m 513,669.74 c 0,-3.037 2.463,-5.5 5.5,-5.5 3.037,0 5.5,2.463 5.5,5.5 0,3.038 -2.463,5.5 -5.5,5.5 -3.037,0 -5.5,-2.462 -5.5,-5.5"
         id="path128-9" />
    </clipPath>
    <clipPath
       id="clipPath29124-2">
      <path
         inkscape:connector-curvature="0"
         d="m 507,680.74 c 0,-3.037 2.463,-5.5 5.5,-5.5 3.037,0 5.5,2.463 5.5,5.5 0,3.038 -2.463,5.5 -5.5,5.5 -3.037,0 -5.5,-2.462 -5.5,-5.5"
         id="path131-0" />
    </clipPath>
    <clipPath
       id="clipPath29152-6">
      <path
         inkscape:connector-curvature="0"
         d="m 520,680.74 c 0,-3.037 2.463,-5.5 5.5,-5.5 3.037,0 5.5,2.463 5.5,5.5 0,3.038 -2.463,5.5 -5.5,5.5 -3.037,0 -5.5,-2.462 -5.5,-5.5"
         id="path134-8" />
    </clipPath>
    <clipPath
       id="clipPath29252-9">
      <path
         inkscape:connector-curvature="0"
         d="m 321,322.24 c -4.97,0 -9,-4.029 -9,-9 0,-4.97 4.03,-9 9,-9 h 45 c 4.971,0 9,4.03 9,9 0,4.971 -4.029,9 -9,9 z"
         id="path137-2" />
    </clipPath>
    <clipPath
       id="clipPath29280-6">
      <path
         inkscape:connector-curvature="0"
         d="m 322,297.24 c -4.971,0 -9,-4.029 -9,-9 0,-4.97 4.029,-9 9,-9 h 45 c 4.971,0 9,4.03 9,9 0,4.971 -4.029,9 -9,9 z"
         id="path140-6" />
    </clipPath>
    <clipPath
       id="clipPath29400-4">
      <path
         inkscape:connector-curvature="0"
         d="m 155,83.24 h 44 v 53 h -44 z"
         id="path143-9" />
    </clipPath>
  </defs>
  <sodipodi:namedview
     pagecolor="#ffffff"
     bordercolor="#666666"
     borderopacity="1"
     objecttolerance="10"
     gridtolerance="10"
     guidetolerance="10"
     inkscape:pageopacity="0"
     inkscape:pageshadow="2"
     inkscape:window-width="1280"
     inkscape:window-height="954"
     id="namedview19"
     showgrid="false"
     inkscape:zoom="6.9532165"
     inkscape:cx="16.917054"
     inkscape:cy="30.39994"
     inkscape:window-x="0"
     inkscape:window-y="0"
     inkscape:window-maximized="1"
     inkscape:current-layer="svg17" />
  <g
     id="g33"
     transform="matrix(0.09686587,0,0,0.09686587,0.29882647,44.161301)" />
  <g
     transform="matrix(0.09686587,0,0,0.09686587,-0.21646762,-0.21646745)"
     id="g4148">
    <path
       sodipodi:open="true"
       transform="matrix(0.86573191,0,0,1.0834306,578.70143,13.686371)"
       sodipodi:end="6.2827953"
       sodipodi:start="0"
       d="M -133.46341,218.11607 A 246.21698,196.74347 0 0 1 -379.65638,414.85954 246.21698,196.74347 0 0 1 -625.89736,218.15444 246.21698,196.74347 0 0 1 -379.75241,21.372613 246.21698,196.74347 0 0 1 -133.46343,218.03934"
       sodipodi:ry="196.74347"
       sodipodi:rx="246.21698"
       sodipodi:cy="218.11607"
       sodipodi:cx="-379.68039"
       id="path3766"
       style="fill:#ffcc00;fill-opacity:1;stroke:#f5c400;stroke-width:24.4549427;stroke-miterlimit:4;stroke-dasharray:none;stroke-opacity:1"
       sodipodi:type="arc" />
    <path
       sodipodi:nodetypes="czzzccczccc"
       inkscape:connector-curvature="0"
       id="path3767"
       d="m 179.37316,266.34123 c 0,0 -0.91975,-68.62326 0,-75.61285 0.91973,-6.98955 9.24377,-63.52269 72.04991,-62.94468 62.80606,0.578 70.00319,53.63953 71.25812,60.56941 1.25494,6.92989 1.1876,77.19635 1.1876,77.19635 l -30.08677,0.79177 -0.39587,-67.29939 c 0,0 -4.40032,-39.24778 -43.54663,-38.40022 -39.14633,0.84755 -39.98372,38.7961 -39.98372,38.7961 l -0.39588,66.50762 z"
       style="fill:#394050;stroke:none" />
    <path
       sodipodi:nodetypes="ccccc"
       inkscape:connector-curvature="0"
       id="path2997"
       d="m 156.52036,373.49204 190.9112,0.28003 -0.27996,-116.7302 H 156.52036 Z"
       style="fill:#394050;stroke:none" />
    <path
       sodipodi:open="true"
       sodipodi:end="6.2784904"
       sodipodi:start="0"
       transform="matrix(0.55423006,0,0,0.55423006,-160.6866,129.84227)"
       d="m 814.28571,341.28571 a 70,69.285713 0 0 1 -69.91784,69.28566 70,69.285713 0 0 1 -70.08197,-69.12302 70,69.285713 0 0 1 69.75332,-69.44793 70,69.285713 0 0 1 70.24571,68.96"
       sodipodi:ry="69.285713"
       sodipodi:rx="70"
       sodipodi:cy="341.28571"
       sodipodi:cx="744.28571"
       id="path3769"
       style="fill:#394050;fill-opacity:1;stroke:none"
       sodipodi:type="arc" />
    <path
       sodipodi:open="true"
       sodipodi:end="6.2784904"
       sodipodi:start="0"
       transform="matrix(0.73435482,0,0,0.69716307,-293.89711,86.257702)"
       d="m 753.57141,319.67856 a 10,10.178572 0 0 1 -9.98826,10.17856 10,10.178572 0 0 1 -10.01171,-10.15467 10,10.178572 0 0 1 9.96476,-10.2024 10,10.178572 0 0 1 10.0351,10.13072"
       sodipodi:ry="10.178572"
       sodipodi:rx="10"
       sodipodi:cy="319.67856"
       sodipodi:cx="743.57141"
       id="path3771"
       style="fill:#394050;fill-opacity:1;stroke:none"
       sodipodi:type="arc" />
    <path
       inkscape:connector-curvature="0"
       id="path3773"
       d="m 252.44507,310.85777 0.1979,28.89914"
       style="fill:#394050;stroke:#394050;stroke-width:5.5423007;stroke-linecap:round;stroke-linejoin:miter;stroke-miterlimit:4;stroke-dasharray:none;stroke-opacity:1" />
  </g>
</svg>
