<?xml version="1.0" encoding="UTF-8" standalone="no"?>
<!-- Generated by IcoMoon.io -->

<svg
   xmlns:dc="http://purl.org/dc/elements/1.1/"
   xmlns:cc="http://creativecommons.org/ns#"
   xmlns:rdf="http://www.w3.org/1999/02/22-rdf-syntax-ns#"
   xmlns:svg="http://www.w3.org/2000/svg"
   xmlns="http://www.w3.org/2000/svg"
   xmlns:sodipodi="http://sodipodi.sourceforge.net/DTD/sodipodi-0.dtd"
   xmlns:inkscape="http://www.inkscape.org/namespaces/inkscape"
   version="1.1"
   width="48"
   height="48"
   viewBox="0 0 48 48"
   id="svg6"
   sodipodi:docname="system-reboot.svg"
   inkscape:version="0.92.4 (5da689c313, 2019-01-14)">
  <metadata
     id="metadata12">
    <rdf:RDF>
      <cc:Work
         rdf:about="">
        <dc:format>image/svg+xml</dc:format>
        <dc:type
           rdf:resource="http://purl.org/dc/dcmitype/StillImage" />
        <dc:title>power-off</dc:title>
      </cc:Work>
    </rdf:RDF>
  </metadata>
  <defs
     id="defs10">
    <style
       id="current-color-scheme"
       type="text/css">
     .ColorScheme-Text { color:#eeeeee; } .ColorScheme-Highlight { color:#424242; }
  </style>
  </defs>
  <sodipodi:namedview
     pagecolor="#ffffff"
     bordercolor="#666666"
     borderopacity="1"
     objecttolerance="10"
     gridtolerance="10"
     guidetolerance="10"
     inkscape:pageopacity="0"
     inkscape:pageshadow="2"
     inkscape:window-width="1280"
     inkscape:window-height="954"
     id="namedview8"
     showgrid="false"
     inkscape:zoom="8.4285714"
     inkscape:cx="5.5661398"
     inkscape:cy="14.827628"
     inkscape:window-x="0"
     inkscape:window-y="0"
     inkscape:window-maximized="1"
     inkscape:current-layer="svg6" />
  <title
     id="title2">power-off</title>
  <g
     transform="matrix(3.0489996,0,0,3.0840365,-12.587995,-13.008438)"
     id="surface1"
     style="fill:#241c1c">
    <defs
       id="defs3">
      <style
         id="style825"
         type="text/css">
     .ColorScheme-Text { color:#eeeeee; } .ColorScheme-Highlight { color:#424242; }
  </style>
    </defs>
    <path
       inkscape:connector-curvature="0"
       style="color:#eeeeee;fill:#eeeeee;fill-opacity:1"
       class="ColorScheme-Text"
       d="m 7.050781,7.050781 c -2.503906,2.5 -2.71875,6.394531 -0.65625,9.140625 0.9163309,-0.04438 1.3468336,-0.569068 1.433594,-1.433594 C 6.535156,12.816406 6.75,10.179688 8.464844,8.464844 9.625,7.304688 11.207031,6.832031 12.707031,7.046875 l -2.121093,2.125 C 10.237248,10.299607 10.940371,10.801089 12,10.585938 L 16.191406,6.394531 C 13.445312,4.332031 9.550781,4.546875 7.050781,7.050781 Z m 0.757813,10.554688 c 2.746094,2.0625 6.640625,1.847656 9.140625,-0.65625 2.503906,-2.5 2.71875,-6.394531 0.65625,-9.140625 -1.159803,0.2081884 -1.284083,0.8258801 -1.433594,1.433594 1.292969,1.941406 1.078125,4.578124 -0.636719,6.292968 -1.160156,1.160156 -2.742187,1.632813 -4.242187,1.417969 l 2.121093,-2.125 C 13.783571,13.933642 13.048741,13.106821 12,13.414062 Z"
       id="path5"
       sodipodi:nodetypes="cccscccccccccscccc" />
  </g>
</svg>
