<?xml version="1.0" encoding="UTF-8" standalone="no"?>
<svg
   xmlns:dc="http://purl.org/dc/elements/1.1/"
   xmlns:cc="http://creativecommons.org/ns#"
   xmlns:rdf="http://www.w3.org/1999/02/22-rdf-syntax-ns#"
   xmlns:svg="http://www.w3.org/2000/svg"
   xmlns="http://www.w3.org/2000/svg"
   xmlns:sodipodi="http://sodipodi.sourceforge.net/DTD/sodipodi-0.dtd"
   xmlns:inkscape="http://www.inkscape.org/namespaces/inkscape"
   width="64"
   height="64"
   version="1"
   id="svg12"
   sodipodi:docname="audio-headphones.svg"
   inkscape:version="0.92.4 (5da689c313, 2019-01-14)">
  <metadata
     id="metadata18">
    <rdf:RDF>
      <cc:Work
         rdf:about="">
        <dc:format>image/svg+xml</dc:format>
        <dc:type
           rdf:resource="http://purl.org/dc/dcmitype/StillImage" />
      </cc:Work>
    </rdf:RDF>
  </metadata>
  <defs
     id="defs16" />
  <sodipodi:namedview
     pagecolor="#ffffff"
     bordercolor="#666666"
     borderopacity="1"
     objecttolerance="10"
     gridtolerance="10"
     guidetolerance="10"
     inkscape:pageopacity="0"
     inkscape:pageshadow="2"
     inkscape:window-width="1280"
     inkscape:window-height="954"
     id="namedview14"
     showgrid="false"
     inkscape:zoom="3.6875"
     inkscape:cx="13.016948"
     inkscape:cy="32"
     inkscape:window-x="0"
     inkscape:window-y="0"
     inkscape:window-maximized="1"
     inkscape:current-layer="svg12" />
  <path
     style="opacity:0.2"
     d="M 32,9 C 20.92,9 12,17.92 12,29 l 0,2 c 0,-11.08 8.92,-20 20,-20 11.08,0 20,8.92 20,20 l 0,-2 C 52,17.92 43.08,9 32,9 Z M 4,47 4,49 c 0,7.1392 5.0838,9.082 8,9.6132 l 0,-2 c -2.9162,-0.532 -8,-2.474 -8,-9.614 z m 56,0 c 0,7.1392 -5.0838,9.0902 -8,9.625 l 0,2 c 2.916,-0.534 8,-2.484 8,-9.624 l 0,-2 z m -48,14 0,2 10,0 0,-2 -10,0 z m 30,0 0,2 10,0 0,-2 -10,0 z"
     id="path2" />
  <path
     style="fill:#62a1d3;fill-opacity:1"
     d="m 32,2.0004 c -15.464,0 -28,12.536 -28,28 l 0,18 c 0,7.1392 5.0838,9.082 8,9.6132 l 0,-27.614 c 0,-11.08 8.92,-20 20,-20 11.08,0 20,8.92 20,20 l 0,27.624 c 2.916,-0.536 8,-2.484 8,-9.624 l 0,-18 c 0,-15.464 -12.536,-28 -28,-28 z"
     id="path4" />
  <path
     style="fill:#1875c5;fill-opacity:1"
     d="m 12,34 0,28 10,0 0,-28 z m 30,0 0,28 10,0 0,-28 z"
     id="path6" />
  <path
     style="opacity:0.1;fill:#ffffff"
     d="M 32 2 C 16.536 2 4 14.536 4 30 L 4 31 C 4 15.536 16.536 3 32 3 C 47.464 3 60 15.536 60 31 L 60 30 C 60 14.536 47.464 2 32 2 z"
     id="path8" />
  <path
     style="opacity:0.1;fill:#ffffff"
     d="M 12 34 L 12 35 L 22 35 L 22 34 L 12 34 z M 42 34 L 42 35 L 52 35 L 52 34 L 42 34 z"
     id="path10" />
</svg>
