<?xml version="1.0" encoding="UTF-8" standalone="no"?>
<svg
   xmlns:dc="http://purl.org/dc/elements/1.1/"
   xmlns:cc="http://creativecommons.org/ns#"
   xmlns:rdf="http://www.w3.org/1999/02/22-rdf-syntax-ns#"
   xmlns:svg="http://www.w3.org/2000/svg"
   xmlns="http://www.w3.org/2000/svg"
   xmlns:sodipodi="http://sodipodi.sourceforge.net/DTD/sodipodi-0.dtd"
   xmlns:inkscape="http://www.inkscape.org/namespaces/inkscape"
   width="64"
   height="64"
   version="1"
   id="svg16"
   sodipodi:docname="battery.svg"
   inkscape:version="0.92.4 (5da689c313, 2019-01-14)">
  <metadata
     id="metadata22">
    <rdf:RDF>
      <cc:Work
         rdf:about="">
        <dc:format>image/svg+xml</dc:format>
        <dc:type
           rdf:resource="http://purl.org/dc/dcmitype/StillImage" />
      </cc:Work>
    </rdf:RDF>
  </metadata>
  <defs
     id="defs20" />
  <sodipodi:namedview
     pagecolor="#ffffff"
     bordercolor="#666666"
     borderopacity="1"
     objecttolerance="10"
     gridtolerance="10"
     guidetolerance="10"
     inkscape:pageopacity="0"
     inkscape:pageshadow="2"
     inkscape:window-width="1280"
     inkscape:window-height="954"
     id="namedview18"
     showgrid="false"
     inkscape:zoom="3.6875"
     inkscape:cx="22.508474"
     inkscape:cy="32"
     inkscape:window-x="0"
     inkscape:window-y="0"
     inkscape:window-maximized="1"
     inkscape:current-layer="svg16" />
  <path
     style="opacity:0.2"
     d="m 12,54.332 0,2 C 12,57.81 13.115,59 14.5,59 l 35,0 c 1.384,0 2.5,-1.19 2.5,-2.668 l 0,-2 C 52,55.81 50.884,57 49.5,57 l -35,0 C 13.115,57 12,55.81 12,54.332 Z"
     id="path2" />
  <path
     style="fill:#63a1d3;fill-opacity:0.99215686"
     d="M 52,55.334 52,12.666 C 52,11.1892 50.884,10 49.5,10 l -35,0 C 13.115,10 12,11.18934 12,12.6666 l 0,42.666 c 0,1.47734 1.115,2.6666 2.5,2.6666 l 35,0.002 c 1.384,0 2.5,-1.19 2.5,-2.666 z"
     id="path4" />
  <rect
     style="fill:#8e8e8e"
     width="28"
     height="6"
     x="18"
     y="4"
     id="rect6" />
  <rect
     style="fill:#c0f957"
     width="32"
     height="10"
     x="16"
     y="44"
     id="rect8" />
  <rect
     style="opacity:0.3"
     width="32"
     height="10"
     x="16"
     y="16"
     id="rect10" />
  <rect
     style="opacity:0.3"
     width="32"
     height="10"
     x="16"
     y="30"
     id="rect12" />
  <path
     style="opacity:0.2;fill:#ffffff"
     d="M 18 4 L 18 5 L 46 5 L 46 4 L 18 4 z"
     id="path14" />
</svg>
