<?xml version="1.0" encoding="UTF-8" standalone="no"?>
<svg
   xmlns:dc="http://purl.org/dc/elements/1.1/"
   xmlns:cc="http://creativecommons.org/ns#"
   xmlns:rdf="http://www.w3.org/1999/02/22-rdf-syntax-ns#"
   xmlns:svg="http://www.w3.org/2000/svg"
   xmlns="http://www.w3.org/2000/svg"
   xmlns:sodipodi="http://sodipodi.sourceforge.net/DTD/sodipodi-0.dtd"
   xmlns:inkscape="http://www.inkscape.org/namespaces/inkscape"
   width="64"
   height="64"
   version="1"
   id="svg20"
   sodipodi:docname="camera-web.svg"
   inkscape:version="0.92.4 (5da689c313, 2019-01-14)">
  <metadata
     id="metadata26">
    <rdf:RDF>
      <cc:Work
         rdf:about="">
        <dc:format>image/svg+xml</dc:format>
        <dc:type
           rdf:resource="http://purl.org/dc/dcmitype/StillImage" />
      </cc:Work>
    </rdf:RDF>
  </metadata>
  <defs
     id="defs24" />
  <sodipodi:namedview
     pagecolor="#ffffff"
     bordercolor="#666666"
     borderopacity="1"
     objecttolerance="10"
     gridtolerance="10"
     guidetolerance="10"
     inkscape:pageopacity="0"
     inkscape:pageshadow="2"
     inkscape:window-width="1280"
     inkscape:window-height="954"
     id="namedview22"
     showgrid="false"
     inkscape:zoom="3.6875"
     inkscape:cx="42.983051"
     inkscape:cy="32"
     inkscape:window-x="0"
     inkscape:window-y="0"
     inkscape:window-maximized="1"
     inkscape:current-layer="svg20" />
  <path
     style="opacity:0.2"
     d="m 4.050798,32.000828 c -0.0118,0.33399 -0.050799,0.661981 -0.050799,0.999971 C 3.9999994,48.512357 16.487643,61 31.9992,61 47.510757,61 59.998401,48.512357 59.998401,33.000799 c 0,-0.33767 -0.03904,-0.665261 -0.05078,-0.999971 -0.527985,15.041571 -12.775635,26.999229 -27.949202,26.999229 -15.173967,0 -27.4212171,-11.957658 -27.949202,-26.999229 z"
     id="path2" />
  <path
     style="fill:#62a1d3;fill-opacity:1"
     d="m 31.9992,4.0016559 c -15.511557,0 -27.9992006,12.4876431 -27.9992006,27.9992001 0,15.511558 12.4876436,27.999201 27.9992006,27.999201 15.511557,0 27.999201,-12.487643 27.999201,-27.999201 0,-15.511557 -12.487644,-27.9992001 -27.999201,-27.9992001 z"
     id="path4" />
  <path
     style="opacity:0.1;fill:#ffffff"
     d="M 32 4.0019531 C 16.488443 4.0019531 4 16.488443 4 32 C 4 32.113553 4.0112846 32.224036 4.0175781 32.335938 C 4.3691113 17.134615 16.711164 5 32 5 C 47.288836 5 59.630889 17.134615 59.982422 32.335938 C 59.988693 32.224116 60 32.113445 60 32 C 60 16.488443 47.511557 4.0019531 32 4.0019531 z"
     id="path6" />
  <path
     style="opacity:0.2"
     d="m 17.361618,33.334818 a 14.666181,14.557384 0 0 1 -0.0286,-0.775977 14.666181,14.557384 0 0 1 14.666181,-14.557585 14.666181,14.557384 0 0 1 14.665581,14.557585 14.666181,14.557384 0 0 1 -0.028,0.547984 A 14.666181,14.557384 0 0 0 31.9992,19.324618 14.666181,14.557384 0 0 0 17.361618,33.334818 Z"
     id="path8" />
  <circle
     style="opacity:0.4"
     cx="31.999"
     cy="32.001"
     r="17.999"
     id="circle10" />
  <circle
     style="opacity:0.2"
     cx="31.999"
     cy="-33.001"
     r="14"
     transform="scale(1,-1)"
     id="circle12" />
  <circle
     style="fill:#ba174e"
     cx="31.999"
     cy="-32.001"
     r="14"
     transform="scale(1,-1)"
     id="circle14" />
  <circle
     style="opacity:0.2"
     cx="31.999"
     cy="33.001"
     r="8"
     id="circle16" />
  <circle
     style="fill:#d67495"
     cx="31.999"
     cy="32.001"
     r="8"
     id="circle18" />
</svg>
