<?xml version="1.0" encoding="UTF-8" standalone="no"?>
<svg
   xmlns:dc="http://purl.org/dc/elements/1.1/"
   xmlns:cc="http://creativecommons.org/ns#"
   xmlns:rdf="http://www.w3.org/1999/02/22-rdf-syntax-ns#"
   xmlns:svg="http://www.w3.org/2000/svg"
   xmlns="http://www.w3.org/2000/svg"
   xmlns:xlink="http://www.w3.org/1999/xlink"
   xmlns:sodipodi="http://sodipodi.sourceforge.net/DTD/sodipodi-0.dtd"
   xmlns:inkscape="http://www.inkscape.org/namespaces/inkscape"
   width="64"
   height="64"
   version="1"
   id="svg14"
   sodipodi:docname="gnome-dev-computer.svg"
   inkscape:version="0.92.4 (5da689c313, 2019-01-14)">
  <metadata
     id="metadata20">
    <rdf:RDF>
      <cc:Work
         rdf:about="">
        <dc:format>image/svg+xml</dc:format>
        <dc:type
           rdf:resource="http://purl.org/dc/dcmitype/StillImage" />
      </cc:Work>
    </rdf:RDF>
  </metadata>
  <defs
     id="defs18">
    <linearGradient
       id="linearGradient2707"
       x1="12.207"
       x2="12.128"
       y1="53.535"
       y2="64.892998"
       gradientTransform="matrix(2.0895,0,0,0.64268,6.3010692,3.5591459)"
       gradientUnits="userSpaceOnUse">
      <stop
         stop-color="#585956"
         offset="0"
         id="stop2" />
      <stop
         stop-color="#bbbeb8"
         offset="1"
         id="stop4" />
    </linearGradient>
    <linearGradient
       id="linearGradient2251"
       x1="8.6115999"
       x2="34.784"
       y1="7.2294002"
       y2="33.34"
       gradientTransform="matrix(1.3331,0,0,1.0396,3.4733692,2.4085459)"
       gradientUnits="userSpaceOnUse"
       xlink:href="#linearGradient2245" />
    <linearGradient
       id="linearGradient2245">
      <stop
         stop-color="#dde1d9"
         offset="0"
         id="stop8" />
      <stop
         stop-color="#cacdc6"
         offset="1"
         id="stop10" />
    </linearGradient>
    <filter
       style="color-interpolation-filters:sRGB"
       id="filter929">
      <feFlood
         flood-color="rgb(0,0,0)"
         flood-opacity=".2"
         result="flood"
         id="feFlood14" />
      <feComposite
         in="flood"
         in2="SourceGraphic"
         operator="in"
         result="composite1"
         id="feComposite16" />
      <feGaussianBlur
         in="composite1"
         result="blur"
         id="feGaussianBlur18" />
      <feOffset
         dx="0"
         dy="1"
         result="offset"
         id="feOffset20" />
      <feComposite
         in="SourceGraphic"
         in2="offset"
         result="fbSourceGraphic"
         id="feComposite22" />
      <feColorMatrix
         in="fbSourceGraphic"
         result="fbSourceGraphicAlpha"
         values="0 0 0 -1 0 0 0 0 -1 0 0 0 0 -1 0 0 0 0 1 0"
         id="feColorMatrix24" />
      <feFlood
         flood-color="rgb(255,255,255)"
         flood-opacity=".10196"
         in="fbSourceGraphic"
         result="flood"
         id="feFlood26" />
      <feComposite
         in="flood"
         in2="fbSourceGraphic"
         operator="out"
         result="composite1"
         id="feComposite28" />
      <feGaussianBlur
         in="composite1"
         result="blur"
         id="feGaussianBlur30" />
      <feOffset
         dx="0"
         dy="1"
         result="offset"
         id="feOffset32" />
      <feComposite
         in="offset"
         in2="fbSourceGraphic"
         operator="atop"
         result="composite2"
         id="feComposite34" />
    </filter>
    <linearGradient
       id="linearGradient2981"
       x1="18.316999"
       x2="18.177"
       y1="48.643002"
       y2="52.535999"
       gradientTransform="matrix(1.2769,0,0,0.91712,5.3802692,12.047946)"
       gradientUnits="userSpaceOnUse"
       xlink:href="#linearGradient2245" />
    <filter
       style="color-interpolation-filters:sRGB"
       id="filter941">
      <feFlood
         flood-color="rgb(0,0,0)"
         flood-opacity=".2"
         result="flood"
         id="feFlood37" />
      <feComposite
         in="flood"
         in2="SourceGraphic"
         operator="in"
         result="composite1"
         id="feComposite39" />
      <feGaussianBlur
         in="composite1"
         result="blur"
         id="feGaussianBlur41" />
      <feOffset
         dx="0"
         dy="1"
         result="offset"
         id="feOffset43" />
      <feComposite
         in="SourceGraphic"
         in2="offset"
         result="fbSourceGraphic"
         id="feComposite45" />
      <feColorMatrix
         in="fbSourceGraphic"
         result="fbSourceGraphicAlpha"
         values="0 0 0 -1 0 0 0 0 -1 0 0 0 0 -1 0 0 0 0 1 0"
         id="feColorMatrix47" />
      <feFlood
         flood-color="rgb(255,255,255)"
         flood-opacity=".10196"
         in="fbSourceGraphic"
         result="flood"
         id="feFlood49" />
      <feComposite
         in="flood"
         in2="fbSourceGraphic"
         operator="out"
         result="composite1"
         id="feComposite51" />
      <feGaussianBlur
         in="composite1"
         result="blur"
         id="feGaussianBlur53" />
      <feOffset
         dx="0"
         dy="1"
         result="offset"
         id="feOffset55" />
      <feComposite
         in="offset"
         in2="fbSourceGraphic"
         operator="atop"
         result="composite2"
         id="feComposite57" />
    </filter>
  </defs>
  <sodipodi:namedview
     pagecolor="#ffffff"
     bordercolor="#666666"
     borderopacity="1"
     objecttolerance="10"
     gridtolerance="10"
     guidetolerance="10"
     inkscape:pageopacity="0"
     inkscape:pageshadow="2"
     inkscape:window-width="1920"
     inkscape:window-height="1052"
     id="namedview16"
     showgrid="false"
     inkscape:zoom="7.375"
     inkscape:cx="16.949047"
     inkscape:cy="28.82818"
     inkscape:window-x="1280"
     inkscape:window-y="0"
     inkscape:window-maximized="1"
     inkscape:current-layer="svg14" />
  <path
     id="path62"
     d="m 20.475069,41.598946 a 11,4.599 0 0 0 -0.27343,1.0039 11,4.599 0 0 0 11,4.5976 11,4.599 0 0 0 11,-4.5976 11,4.599 0 0 0 -0.27343,-0.9961 11,4.599 0 0 1 -10.726,3.5938 11,4.599 0 0 1 -10.726,-3.6016 z"
     inkscape:connector-curvature="0"
     style="color:#000000;fill-opacity:0.2;fill-rule:evenodd;stroke-width:2.67389989" />
  <path
     id="path64"
     d="m 35.272069,37.533946 -0.07296,1.1673 c 0,0 5.0476,4.2016 10.506,4.9058 2.7291,0.35216 5.5488,0.81996 7.8793,1.3862 2.3303,0.56626 4.1886,1.307 4.8152,1.9334 0.36235,0.36236 0.52652,0.66964 0.58366,0.91198 0.05712,0.24234 0.04462,0.4142 -0.10944,0.65664 -0.30809,0.48488 -1.2605,1.1296 -2.8817,1.6416 -3.2425,1.024 -9.0121,1.6781 -16.999,1.6781 v 1.1673 c 8.0497,0 13.848,-0.61598 17.327,-1.7145 1.7393,-0.54928 2.9475,-1.1857 3.5385,-2.1158 0.29549,-0.46508 0.41708,-1.0371 0.29183,-1.5686 -0.12528,-0.53148 -0.44888,-1.0326 -0.91195,-1.4957 -1.0244,-1.0244 -2.9613,-1.6418 -5.3622,-2.2252 -2.4011,-0.58346 -5.2712,-1.0673 -8.0253,-1.4227 -5.508,-0.71072 -10.579,-4.9058 -10.579,-4.9058 z"
     inkscape:connector-curvature="0"
     style="fill:#62a1d3;fill-rule:evenodd;stroke-width:2.59990001;fill-opacity:1" />
  <ellipse
     id="ellipse66"
     ry="4.599"
     rx="11"
     cy="41.599949"
     cx="31.201069"
     style="color:#000000;fill:#4e81a9;fill-rule:evenodd;stroke-width:2.67389989;fill-opacity:1" />
  <rect
     id="rect68"
     height="3.1984"
     width="10.399"
     y="39.401947"
     x="26.40107"
     style="color:#000000;fill:#447093;fill-rule:evenodd;stroke-width:2.59990001;fill-opacity:1" />
  <path
     id="path70"
     d="m 12.168069,6.1999459 h 38.067 c 1.0753,0 1.9667,0.41654 1.9665,1.3788 l -0.007,30.2480001 c -3.14e-4,1.3147 -1.0631,2.373 -2.3837,2.373 h -37.219 c -1.3206,0 -2.3835,-1.0584 -2.3837,-2.373 l -0.006,-30.2480001 c -1.41e-4,-0.90984 0.64601,-1.3788 1.96654,-1.3788 z"
     inkscape:connector-curvature="0"
     style="color:#000000;fill:#62a1d3;fill-rule:evenodd;stroke-width:2.62030005;filter:url(#filter929);fill-opacity:1" />
  <path
     id="path72"
     d="m 14.201069,10.199946 v 24 h 33.999 v -23.898 z"
     inkscape:connector-curvature="0"
     style="fill:#315069;fill-rule:evenodd;stroke-width:2.41420007;fill-opacity:1" />
  <path
     id="path74"
     d="m 12.683069,50.199946 h 35.035 c 1.2649,0 1.1045,0.28126 1.2344,0.63504 l 3.2037,8.73 c 0.12982,0.35378 0.03054,0.63504 -1.2344,0.63504 H 9.4777692 c -1.2649,0 -1.3642,-0.28126 -1.2344,-0.63504 l 3.2036998,-8.73 c 0.12982,-0.35376 -0.03054,-0.63504 1.2344,-0.63504 z"
     inkscape:connector-curvature="0"
     style="color:#000000;fill:#62a1d3;fill-rule:evenodd;stroke-width:2.53970003;filter:url(#filter941);fill-opacity:1" />
  <path
     id="path76"
     d="m 48.044069,52.199946 1.7556,6 h -6.07 l -1.7057,-6 z"
     inkscape:connector-curvature="0"
     style="color:#000000;fill:#4e81a9;fill-rule:evenodd;stroke-width:2.79270005;fill-opacity:1" />
  <path
     id="path78"
     d="m 12.802069,52.199946 -1.9999,6 h 31.199 l -1.8999,-6 z"
     inkscape:connector-curvature="0"
     style="fill:#4e81a9;fill-rule:evenodd;stroke-width:2.79270005;fill-opacity:1" />
</svg>
