<?xml version="1.0" encoding="UTF-8" standalone="no"?>
<svg
   xmlns:dc="http://purl.org/dc/elements/1.1/"
   xmlns:cc="http://creativecommons.org/ns#"
   xmlns:rdf="http://www.w3.org/1999/02/22-rdf-syntax-ns#"
   xmlns:svg="http://www.w3.org/2000/svg"
   xmlns="http://www.w3.org/2000/svg"
   xmlns:sodipodi="http://sodipodi.sourceforge.net/DTD/sodipodi-0.dtd"
   xmlns:inkscape="http://www.inkscape.org/namespaces/inkscape"
   width="64"
   height="64"
   version="1"
   id="svg60"
   sodipodi:docname="device_mem.svg"
   inkscape:version="0.92.4 (5da689c313, 2019-01-14)">
  <metadata
     id="metadata66">
    <rdf:RDF>
      <cc:Work
         rdf:about="">
        <dc:format>image/svg+xml</dc:format>
        <dc:type
           rdf:resource="http://purl.org/dc/dcmitype/StillImage" />
      </cc:Work>
    </rdf:RDF>
  </metadata>
  <defs
     id="defs64" />
  <sodipodi:namedview
     pagecolor="#ffffff"
     bordercolor="#666666"
     borderopacity="1"
     objecttolerance="10"
     gridtolerance="10"
     guidetolerance="10"
     inkscape:pageopacity="0"
     inkscape:pageshadow="2"
     inkscape:window-width="661"
     inkscape:window-height="480"
     id="namedview62"
     showgrid="false"
     inkscape:zoom="3.6875"
     inkscape:cx="62.237288"
     inkscape:cy="32"
     inkscape:window-x="0"
     inkscape:window-y="0"
     inkscape:window-maximized="0"
     inkscape:current-layer="svg60" />
  <g
     id="g4036"
     transform="translate(-51.254238,-17.627118)">
    <rect
       id="rect2"
       ry="2.5999999"
       rx="2.5999999"
       y="33.627117"
       x="57.254238"
       height="32"
       width="52"
       style="opacity:0.2" />
    <rect
       id="rect4"
       ry="2.5999999"
       rx="2.5999999"
       y="32.627117"
       x="57.254238"
       height="32"
       width="52"
       style="fill:#419d45" />
    <g
       id="g14"
       style="opacity:0.2"
       transform="translate(51.254237,16.627119)">
      <rect
         id="rect6"
         ry="1"
         rx="1"
         y="24"
         x="9"
         height="15"
         width="9" />
      <rect
         id="rect8"
         ry="1"
         rx="1"
         y="24"
         x="21"
         height="15"
         width="9" />
      <rect
         id="rect10"
         ry="1"
         rx="1"
         y="24"
         x="34"
         height="15"
         width="9" />
      <rect
         id="rect12"
         ry="1"
         rx="1"
         y="24"
         x="46"
         height="15"
         width="9" />
    </g>
    <g
       id="g38"
       transform="translate(51.254237,17.627119)"
       style="opacity:0.2">
      <rect
         id="rect16"
         y="45"
         x="10"
         height="4"
         width="3" />
      <rect
         id="rect18"
         y="45"
         x="14"
         height="4"
         width="3" />
      <rect
         id="rect20"
         y="45"
         x="18"
         height="4"
         width="3" />
      <rect
         id="rect22"
         y="45"
         x="22"
         height="4"
         width="3" />
      <rect
         id="rect24"
         y="45"
         x="26"
         height="4"
         width="3" />
      <rect
         id="rect26"
         y="45"
         x="31"
         height="4"
         width="3" />
      <rect
         id="rect28"
         y="45"
         x="35"
         height="4"
         width="3" />
      <rect
         id="rect30"
         y="45"
         x="39"
         height="4"
         width="3" />
      <rect
         id="rect32"
         y="45"
         x="43"
         height="4"
         width="3" />
      <rect
         id="rect34"
         y="45"
         x="47"
         height="4"
         width="3" />
      <rect
         id="rect36"
         y="45"
         x="51"
         height="4"
         width="3" />
    </g>
    <g
       id="g62"
       style="fill:#f8c44e"
       transform="translate(51.254237,16.627119)">
      <rect
         id="rect40"
         y="45"
         x="10"
         height="4"
         width="3" />
      <rect
         id="rect42"
         y="45"
         x="14"
         height="4"
         width="3" />
      <rect
         id="rect44"
         y="45"
         x="18"
         height="4"
         width="3" />
      <rect
         id="rect46"
         y="45"
         x="22"
         height="4"
         width="3" />
      <rect
         id="rect48"
         y="45"
         x="26"
         height="4"
         width="3" />
      <rect
         id="rect50"
         y="45"
         x="31"
         height="4"
         width="3" />
      <rect
         id="rect52"
         y="45"
         x="35"
         height="4"
         width="3" />
      <rect
         id="rect54"
         y="45"
         x="39"
         height="4"
         width="3" />
      <rect
         id="rect56"
         y="45"
         x="43"
         height="4"
         width="3" />
      <rect
         id="rect58"
         y="45"
         x="47"
         height="4"
         width="3" />
      <rect
         id="rect60"
         y="45"
         x="51"
         height="4"
         width="3" />
    </g>
    <g
       id="g72"
       style="fill:#37474f"
       transform="translate(51.254237,16.627119)">
      <rect
         id="rect64"
         ry="1"
         rx="1"
         y="23"
         x="9"
         height="15"
         width="9" />
      <rect
         id="rect66"
         ry="1"
         rx="1"
         y="23"
         x="21"
         height="15"
         width="9" />
      <rect
         id="rect68"
         ry="1"
         rx="1"
         y="23"
         x="34"
         height="15"
         width="9" />
      <rect
         id="rect70"
         ry="1"
         rx="1"
         y="23"
         x="46"
         height="15"
         width="9" />
    </g>
    <path
       id="path74"
       d="m 59.853837,32.627119 c -1.4404,0 -2.5996,1.159 -2.5996,2.6 v 1 c 0,-1.441 1.1592,-2.6 2.5996,-2.6 h 46.800403 c 1.441,0 2.6,1.159 2.6,2.6 v -1 c 0,-1.441 -1.159,-2.6 -2.6,-2.6 z"
       style="opacity:0.1;fill:#ffffff"
       inkscape:connector-curvature="0" />
    <g
       id="g84"
       style="opacity:0.1;fill:#ffffff"
       transform="translate(51.254237,16.627119)">
      <path
         id="path76"
         d="m 10,23 c -0.554,0 -1,0.446 -1,1 v 1 c 0,-0.554 0.446,-1 1,-1 h 7 c 0.554,0 1,0.446 1,1 v -1 c 0,-0.554 -0.446,-1 -1,-1 z"
         inkscape:connector-curvature="0" />
      <path
         id="path78"
         d="m 22,23 c -0.554,0 -1,0.446 -1,1 v 1 c 0,-0.554 0.446,-1 1,-1 h 7 c 0.554,0 1,0.446 1,1 v -1 c 0,-0.554 -0.446,-1 -1,-1 z"
         inkscape:connector-curvature="0" />
      <path
         id="path80"
         d="m 35,23 c -0.554,0 -1,0.446 -1,1 v 1 c 0,-0.554 0.446,-1 1,-1 h 7 c 0.554,0 1,0.446 1,1 v -1 c 0,-0.554 -0.446,-1 -1,-1 z"
         inkscape:connector-curvature="0" />
      <path
         id="path82"
         d="m 47,23 c -0.554,0 -1,0.446 -1,1 v 1 c 0,-0.554 0.446,-1 1,-1 h 7 c 0.554,0 1,0.446 1,1 v -1 c 0,-0.554 -0.446,-1 -1,-1 z"
         inkscape:connector-curvature="0" />
    </g>
  </g>
</svg>
