<?xml version="1.0" encoding="UTF-8" standalone="no"?>
<!-- Generated by IcoMoon.io -->

<svg
   xmlns:dc="http://purl.org/dc/elements/1.1/"
   xmlns:cc="http://creativecommons.org/ns#"
   xmlns:rdf="http://www.w3.org/1999/02/22-rdf-syntax-ns#"
   xmlns:svg="http://www.w3.org/2000/svg"
   xmlns="http://www.w3.org/2000/svg"
   xmlns:sodipodi="http://sodipodi.sourceforge.net/DTD/sodipodi-0.dtd"
   xmlns:inkscape="http://www.inkscape.org/namespaces/inkscape"
   version="1.1"
   width="64"
   height="64"
   viewBox="0 0 64 64"
   id="svg6"
   sodipodi:docname="drive-removable-media.svg"
   inkscape:version="0.92.4 (5da689c313, 2019-01-14)">
  <metadata
     id="metadata12">
    <rdf:RDF>
      <cc:Work
         rdf:about="">
        <dc:format>image/svg+xml</dc:format>
        <dc:type
           rdf:resource="http://purl.org/dc/dcmitype/StillImage" />
        <dc:title>inbox</dc:title>
      </cc:Work>
    </rdf:RDF>
  </metadata>
  <defs
     id="defs10" />
  <sodipodi:namedview
     pagecolor="#ffffff"
     bordercolor="#666666"
     borderopacity="1"
     objecttolerance="10"
     gridtolerance="10"
     guidetolerance="10"
     inkscape:pageopacity="0"
     inkscape:pageshadow="2"
     inkscape:window-width="1280"
     inkscape:window-height="954"
     id="namedview8"
     showgrid="false"
     inkscape:zoom="7.375"
     inkscape:cx="-4.5967034"
     inkscape:cy="37.63945"
     inkscape:window-x="0"
     inkscape:window-y="0"
     inkscape:window-maximized="1"
     inkscape:current-layer="svg6" />
  <title
     id="title2">inbox</title>
  <path
     style="fill:#315069;fill-opacity:1;stroke:none;stroke-width:0.99037868px;stroke-linecap:butt;stroke-linejoin:miter;stroke-opacity:1"
     d="M 19.612086,8.2050912 C 14.921698,13.532356 8.3900258,26.764526 6.4929073,38.113985 5.0991333,46.452206 11.428054,55.87903 12.709258,55.794342 l 41.002655,-0.191758 c 0.497525,-0.302052 5.49446,-9.898582 3.545454,-18.845622 C 54.860961,25.756104 46.786243,14.692997 44.49693,8.4653518 Z"
     id="path891"
     inkscape:connector-curvature="0"
     sodipodi:nodetypes="csccscc" />
  <path
     inkscape:connector-curvature="0"
     style="opacity:1;fill:#b7b7b7;fill-opacity:1"
     d="m 22,30 h 20 v 4 H 22 Z M 32,14 42,26 H 22 Z"
     id="path6" />
  <path
     inkscape:connector-curvature="0"
     d="m 41.467975,34.675628 h 11.735724 c -0.07369,-0.208699 -0.111722,-0.460209 -0.185413,-0.668907 l -7.87532,-20.736113 h -26.29544 l -7.875321,20.736113 c -0.07369,0.208698 -0.111723,0.460208 -0.185414,0.668907 h 11.735725 l 3.527612,8.026882 H 37.93561 Z m 19.054805,1.254869 v 20.150151 c 0,1.463569 -1.076824,2.675628 -2.377096,2.675628 H 5.8495612 c -1.300272,0 -2.3770959,-1.212059 -2.3770959,-2.675628 V 35.930497 c 0,-1.503702 0.4088609,-3.721798 0.9294449,-5.142556 L 13.242332,7.710653 c 0.520584,-1.380624 2.006269,-2.4669291 3.306541,-2.4669291 h 30.902254 c 1.300272,0 2.785957,1.0863051 3.306541,2.4669291 l 8.840422,23.077288 c 0.520584,1.420758 0.929445,3.636177 0.929445,5.142556 z"
     id="path4-3"
     style="fill:#62a1d3;fill-opacity:1;stroke-width:2.52194858" />
  <circle
     id="circle12"
     r="3"
     cy="50.576271"
     cx="52.495632"
     style="fill:#315069;fill-opacity:1" />
  <path
     inkscape:connector-curvature="0"
     style="opacity:0.2;fill:#ffffff"
     d="m -65.974576,-21.152542 c -1.385,0 -2.5,1.115 -2.5,2.5 v 1 c 0,-1.385 1.115,-2.5 2.5,-2.5 h 43 c 1.385,0 2.5,1.115 2.5,2.5 v -1 c 0,-1.385 -1.115,-2.5 -2.5,-2.5 z"
     id="path40" />
</svg>
