<?xml version="1.0" encoding="UTF-8" standalone="no"?>
<!-- Generated by IcoMoon.io -->

<svg
   xmlns:dc="http://purl.org/dc/elements/1.1/"
   xmlns:cc="http://creativecommons.org/ns#"
   xmlns:rdf="http://www.w3.org/1999/02/22-rdf-syntax-ns#"
   xmlns:svg="http://www.w3.org/2000/svg"
   xmlns="http://www.w3.org/2000/svg"
   xmlns:sodipodi="http://sodipodi.sourceforge.net/DTD/sodipodi-0.dtd"
   xmlns:inkscape="http://www.inkscape.org/namespaces/inkscape"
   version="1.1"
   width="64"
   height="64"
   viewBox="0 0 64 64"
   id="svg6"
   sodipodi:docname="drive-hardisk.svg"
   inkscape:version="0.92.4 (5da689c313, 2019-01-14)">
  <metadata
     id="metadata12">
    <rdf:RDF>
      <cc:Work
         rdf:about="">
        <dc:format>image/svg+xml</dc:format>
        <dc:type
           rdf:resource="http://purl.org/dc/dcmitype/StillImage" />
        <dc:title>drive</dc:title>
      </cc:Work>
    </rdf:RDF>
  </metadata>
  <defs
     id="defs10" />
  <sodipodi:namedview
     pagecolor="#ffffff"
     bordercolor="#666666"
     borderopacity="1"
     objecttolerance="10"
     gridtolerance="10"
     guidetolerance="10"
     inkscape:pageopacity="0"
     inkscape:pageshadow="2"
     inkscape:window-width="1280"
     inkscape:window-height="954"
     id="namedview8"
     showgrid="false"
     inkscape:zoom="7.375"
     inkscape:cx="-16.386211"
     inkscape:cy="14.592692"
     inkscape:window-x="0"
     inkscape:window-y="0"
     inkscape:window-maximized="1"
     inkscape:current-layer="svg6" />
  <title
     id="title2">drive</title>
  <path
     style="fill:#315069;fill-opacity:1;stroke:none;stroke-width:1.00832117px;stroke-linecap:butt;stroke-linejoin:miter;stroke-opacity:1"
     d="M 3.4179123,38.645478 C 1.5669981,50.238686 9.7119914,53.485537 12.847694,53.285576 l 42.501789,-0.191758 c 1.149815,-0.67344 6.705452,-3.548118 5.205929,-14.594859 z"
     id="path891"
     inkscape:connector-curvature="0"
     sodipodi:nodetypes="ccccc" />
  <path
     d="M 14.033897,55.288135 H 49.9661 c 5.953967,0 10.779663,-5.212661 10.779663,-11.644068 H 3.2542368 c 0,6.431407 4.8256949,11.644068 10.7796602,11.644068 z M 49.9661,47.525423 h 3.593221 v 3.881356 H 49.9661 Z M 57.152541,8.7118648 H 6.847457 L 3.2542368,39.762711 H 60.745762 Z"
     id="path4"
     inkscape:connector-curvature="0"
     style="stroke-width:1.86725521;fill:#62a1d3;fill-opacity:1" />
  <path
     inkscape:connector-curvature="0"
     style="opacity:0.6;stroke-width:0.75609761;fill:#e6e6e6"
     d="m 31.999999,13.359019 c -5.846145,0 -10.585366,4.739218 -10.585366,10.585366 v 10.585366 h 10.585366 c 5.846148,0 10.585368,-4.73922 10.585368,-10.585366 0,-5.846148 -4.73922,-10.585366 -10.585368,-10.585366 z m 0,6.048779 a 4.5365854,4.5365854 0 0 1 4.536587,4.536587 4.5365854,4.5365854 0 0 1 -4.536587,4.536585 4.5365854,4.5365854 0 0 1 -4.536585,-4.536585 4.5365854,4.5365854 0 0 1 4.536585,-4.536587 z"
     id="path6" />
  <path
     inkscape:connector-curvature="0"
     style="opacity:0.1;fill:#ffffff;stroke-width:0.66021872"
     d="m -26.538265,7.1184805 c -1.463044,0 -2.640873,1.1778303 -2.640873,2.6408752 v 0.6602173 c 0,-1.4630436 1.177829,-2.6408737 2.640873,-2.6408737 h 23.7678736 c 1.4630455,0 2.64087491,1.1778301 2.64087491,2.6408737 V 9.7593557 c 0,-1.4630449 -1.17782941,-2.6408752 -2.64087491,-2.6408752 z"
     id="path8" />
  <circle
     id="circle12"
     r="3"
     cy="49.35593"
     cx="51.661015"
     style="fill:#315069;fill-opacity:1" />
</svg>
