<?xml version="1.0" encoding="UTF-8" standalone="no"?>
<svg
   xmlns:dc="http://purl.org/dc/elements/1.1/"
   xmlns:cc="http://creativecommons.org/ns#"
   xmlns:rdf="http://www.w3.org/1999/02/22-rdf-syntax-ns#"
   xmlns:svg="http://www.w3.org/2000/svg"
   xmlns="http://www.w3.org/2000/svg"
   xmlns:sodipodi="http://sodipodi.sourceforge.net/DTD/sodipodi-0.dtd"
   xmlns:inkscape="http://www.inkscape.org/namespaces/inkscape"
   width="64"
   height="64"
   version="1.1"
   id="svg10"
   sodipodi:docname="drive-optical.svg"
   inkscape:version="0.92.4 (5da689c313, 2019-01-14)">
  <metadata
     id="metadata16">
    <rdf:RDF>
      <cc:Work
         rdf:about="">
        <dc:format>image/svg+xml</dc:format>
        <dc:type
           rdf:resource="http://purl.org/dc/dcmitype/StillImage" />
        <dc:title />
      </cc:Work>
    </rdf:RDF>
  </metadata>
  <defs
     id="defs14" />
  <sodipodi:namedview
     pagecolor="#ffffff"
     bordercolor="#666666"
     borderopacity="1"
     objecttolerance="10"
     gridtolerance="10"
     guidetolerance="10"
     inkscape:pageopacity="0"
     inkscape:pageshadow="2"
     inkscape:window-width="1280"
     inkscape:window-height="954"
     id="namedview12"
     showgrid="false"
     inkscape:zoom="5.2149125"
     inkscape:cx="12.780354"
     inkscape:cy="23.82189"
     inkscape:window-x="0"
     inkscape:window-y="0"
     inkscape:window-maximized="1"
     inkscape:current-layer="svg10" />
  <path
     style="fill:#315069;fill-opacity:1;stroke:none;stroke-width:0.81664294px;stroke-linecap:butt;stroke-linejoin:miter;stroke-opacity:1"
     d="M 17.961249,21.531277 C 13.072938,25.006768 6.265646,33.639393 4.2884733,41.043744 2.8358854,46.483572 10.249491,52.576297 11.58476,52.521047 c 13.558711,0.514548 27.144923,0.754096 40.830499,0 0.518519,-0.197058 6.811059,-6.525601 4.779809,-12.362621 C 54.69754,32.981502 46.282089,25.763966 43.896172,21.70107 Z"
     id="path891"
     inkscape:connector-curvature="0"
     sodipodi:nodetypes="csccscc" />
  <g
     id="g8"
     style="fill:#62a1d3;fill-opacity:1"
     transform="matrix(3.7118636,0,0,3.7118636,2.3051005,0.55495683)">
    <path
       d="M 2.5,1 A 2.495,2.495 0 0 0 0,3.5 v 8 C 0,12.885 1.115,14 2.5,14 V 12 A 0.499,0.499 0 0 1 2,11.5 V 10 h 12 v 1.5 c 0,0.277 -0.223,0.5 -0.5,0.5 v 2 c 1.385,0 2.5,-1.115 2.5,-2.5 v -8 C 16,2.115 14.885,1 13.5,1 Z"
       id="path2"
       inkscape:connector-curvature="0"
       style="fill:#62a1d3;fill-opacity:1" />
    <path
       d="m 2.875,11.039 c 0,2.69 2.299,4.904 5.116,4.904 2.817,0 5.134,-2.213 5.134,-4.904 h -2.017 c 0,1.652 -1.387,2.977 -3.117,2.977 -1.73,0 -3.099,-1.325 -3.099,-2.977 z"
       style="color:#bebebe;font-weight:400;line-height:normal;font-family:Sans;-inkscape-font-specification:Sans;text-indent:0;text-align:start;text-decoration:none;text-decoration-line:none;text-transform:none;overflow:visible;marker:none;fill:#62a1d3;fill-opacity:1"
       font-weight="400"
       overflow="visible"
       id="path4"
       inkscape:connector-curvature="0" />
    <path
       d="m 6,11 c 0,1.099 0.902,2 2,2 1.099,0 2,-0.901 2,-2 H 9 C 9,11.558 8.558,12 8,12 7.442,12 7,11.558 7,11 Z"
       style="color:#bebebe;font-weight:400;line-height:normal;font-family:Sans;-inkscape-font-specification:Sans;text-indent:0;text-align:start;text-decoration:none;text-decoration-line:none;text-transform:none;overflow:visible;marker:none;fill:#62a1d3;fill-opacity:1"
       font-weight="400"
       overflow="visible"
       id="path6"
       inkscape:connector-curvature="0" />
  </g>
  <path
     inkscape:connector-curvature="0"
     style="opacity:0.6;fill:#e6e6e6;stroke-width:0.75609761"
     d="M 31.999999,9.414634 C 26.153854,9.414634 21.414633,14.153852 21.414633,20 v 10.585366 h 10.585366 c 5.846148,0 10.585368,-4.73922 10.585368,-10.585366 0,-5.846148 -4.73922,-10.585366 -10.585368,-10.585366 z m 0,6.048779 A 4.5365854,4.5365854 0 0 1 36.536586,20 4.5365854,4.5365854 0 0 1 31.999999,24.536585 4.5365854,4.5365854 0 0 1 27.463414,20 4.5365854,4.5365854 0 0 1 31.999999,15.463413 Z"
     id="path6-6" />
</svg>
