<?xml version="1.0" encoding="UTF-8" standalone="no"?>
<svg
   xmlns:dc="http://purl.org/dc/elements/1.1/"
   xmlns:cc="http://creativecommons.org/ns#"
   xmlns:rdf="http://www.w3.org/1999/02/22-rdf-syntax-ns#"
   xmlns:svg="http://www.w3.org/2000/svg"
   xmlns="http://www.w3.org/2000/svg"
   xmlns:xlink="http://www.w3.org/1999/xlink"
   xmlns:sodipodi="http://sodipodi.sourceforge.net/DTD/sodipodi-0.dtd"
   xmlns:inkscape="http://www.inkscape.org/namespaces/inkscape"
   height="64"
   width="64"
   version="1.1"
   id="svg73"
   sodipodi:docname="drive-partition.svg"
   inkscape:version="0.92.4 (5da689c313, 2019-01-14)">
  <metadata
     id="metadata79">
    <rdf:RDF>
      <cc:Work
         rdf:about="">
        <dc:format>image/svg+xml</dc:format>
        <dc:type
           rdf:resource="http://purl.org/dc/dcmitype/StillImage" />
        <dc:title></dc:title>
      </cc:Work>
    </rdf:RDF>
  </metadata>
  <defs
     id="defs77" />
  <sodipodi:namedview
     pagecolor="#ffffff"
     bordercolor="#666666"
     borderopacity="1"
     objecttolerance="10"
     gridtolerance="10"
     guidetolerance="10"
     inkscape:pageopacity="0"
     inkscape:pageshadow="2"
     inkscape:window-width="1280"
     inkscape:window-height="954"
     id="namedview75"
     showgrid="false"
     inkscape:zoom="10.429825"
     inkscape:cx="19.359593"
     inkscape:cy="35.947485"
     inkscape:window-x="0"
     inkscape:window-y="0"
     inkscape:window-maximized="1"
     inkscape:current-layer="svg73" />
  <linearGradient
     id="k"
     gradientUnits="userSpaceOnUse"
     x1="32"
     x2="32"
     xlink:href="#a"
     y1="35"
     y2="29" />
  <linearGradient
     id="e"
     gradientUnits="userSpaceOnUse"
     x1="32"
     x2="32"
     y1="36"
     y2="28">
    <stop
       offset="0"
       stop-color="#5c7274"
       id="stop3" />
    <stop
       offset="1"
       stop-color="#a4a4a4"
       id="stop5" />
  </linearGradient>
  <linearGradient
     id="i"
     gradientUnits="userSpaceOnUse"
     x1="32"
     x2="32"
     xlink:href="#b"
     y1="58"
     y2="40" />
  <linearGradient
     id="h"
     gradientUnits="userSpaceOnUse"
     x1="25.637"
     x2="57.998"
     y1="40.676"
     y2="40.676">
    <stop
       offset="0"
       stop-color="#292c2f"
       id="stop9" />
    <stop
       offset="1"
       stop-color="#292c2f"
       stop-opacity="0"
       id="stop11" />
  </linearGradient>
  <linearGradient
     id="j"
     gradientUnits="userSpaceOnUse"
     x1="46"
     x2="53.135"
     xlink:href="#c"
     y1="40"
     y2="47.135" />
  <linearGradient
     id="c">
    <stop
       offset="0"
       stop-color="#292c2f"
       id="stop15" />
    <stop
       offset="1"
       stop-opacity="0"
       id="stop17" />
  </linearGradient>
  <linearGradient
     id="d"
     gradientUnits="userSpaceOnUse"
     x1="32"
     x2="32"
     y1="32"
     y2="6">
    <stop
       offset="0"
       stop-color="#1190d9"
       id="stop20" />
    <stop
       offset="1"
       stop-color="#73c4ef"
       id="stop22" />
  </linearGradient>
  <linearGradient
     id="b"
     gradientUnits="userSpaceOnUse"
     x1="32"
     x2="32"
     y1="41"
     y2="23">
    <stop
       offset="0"
       stop-color="#cecece"
       id="stop25" />
    <stop
       offset="1"
       stop-color="#ececec"
       id="stop27" />
  </linearGradient>
  <linearGradient
     id="a"
     gradientUnits="userSpaceOnUse"
     x1="6"
     x2="6"
     y1="58"
     y2="6">
    <stop
       offset="0"
       stop-color="#98a7b0"
       id="stop30" />
    <stop
       offset="1"
       stop-color="#dde1e3"
       id="stop32" />
  </linearGradient>
  <linearGradient
     id="g"
     gradientUnits="userSpaceOnUse"
     x1="26"
     x2="50"
     xlink:href="#c"
     y1="26"
     y2="50" />
  <linearGradient
     id="f"
     gradientUnits="userSpaceOnUse"
     x1="35"
     x2="52"
     xlink:href="#c"
     y1="32"
     y2="49" />
  <path
     d="M32 6C17.597 6 6.002 17.596 6.002 32S17.597 58 32 58s25.998-11.596 25.998-26S46.403 6 32 6zm0 23c1.662 0 3 1.338 3 3s-1.338 3-3 3-3-1.338-3-3 1.338-3 3-3z"
     fill="url(#a)"
     id="path37" />
  <path
     d="M6.002 31.191c-.005.218 0 .436 0 .655C6.002 46.335 17.597 58 32 58s25.998-11.665 25.998-26.154c0-.22.005-.437 0-.655C57.654 45.375 46.185 57 32 57S6.346 45.375 6.002 31.191z"
     fill="#292c2f"
     opacity=".4"
     id="path39" />
  <path
     d="M32 6v21a5 5 0 0 1 5 5h20.998C57.998 17.596 46.403 6 32 6z"
     fill="url(#d)"
     id="path41"
     style="fill:#62a1d3;fill-opacity:1" />
  <path
     d="M36.898 31A5 5 0 0 1 37 32h20.998c0-.335-.013-.668-.025-1z"
     fill="#292c2f"
     opacity=".2"
     id="path43" />
  <path
     d="M32 27a5 5 0 1 0 0 10 5 5 0 0 0 0-10zm0 2c1.662 0 3 1.338 3 3s-1.338 3-3 3-3-1.338-3-3 1.338-3 3-3z"
     fill="#292c2f"
     opacity=".2"
     id="path45" />
  <path
     d="M32 23a9 9 0 1 0 0 18 9 9 0 0 0 0-18zm0 4a5 5 0 1 1 0 10 5 5 0 0 1 0-10z"
     fill="url(#b)"
     id="path47" />
  <path
     d="M37 28a1 1 0 1 1 0-2 1 1 0 0 1 0 2zM27 38a1 1 0 1 1 0-2 1 1 0 0 1 0 2zm1-11a1 1 0 1 1-2 0 1 1 0 0 1 2 0zm10 10a1 1 0 1 1-2 0 1 1 0 0 1 2 0z"
     fill="#292c2f"
     opacity=".4"
     id="path49" />
  <path
     d="M32 28a4 4 0 1 0 0 8 4 4 0 0 0 0-8zm0 1a3 3 0 1 1 0 6 3 3 0 0 1 0-6z"
     fill="url(#e)"
     id="path51" />
  <path
     d="M33 25a1 1 0 1 1-2 0 1 1 0 0 1 2 0zm7 7a1 1 0 1 1-2 0 1 1 0 0 1 2 0zm-7 7a1 1 0 1 1-2 0 1 1 0 0 1 2 0zm-7-7a1 1 0 1 1-2 0 1 1 0 0 1 2 0z"
     fill="#4d4d4d"
     id="path53" />
  <path
     d="M40.979 32.424A9 9 0 0 1 32 41a9 9 0 0 1-8.979-8.424A9 9 0 0 0 23 33a9 9 0 0 0 9 9 9 9 0 0 0 9-9 9 9 0 0 0-.021-.576z"
     fill="#7f8c8d"
     id="path55" />
  <path
     d="M44.719 32l10.883 10.88A25.912 25.912 0 0 0 57.998 32z"
     fill="url(#f)"
     opacity=".2"
     id="path57" />
  <path
     d="M41 32a9 9 0 0 1-9 9 9 9 0 0 1-6.36-2.64l-.003.003 9.5 9.5L37 46l1-2 8-4 7.135 7.135a25.966 25.966 0 0 0 2.486-4.242L44.727 32zm11.967 15.389c-.086.116-.177.228-.264.343a25.966 25.966 0 0 0 .264-.343zm-1.705 2.095c-.053.058-.11.113-.162.17a25.966 25.966 0 0 0 .162-.17zM49.54 51.2c-.08.074-.159.15-.24.223a25.966 25.966 0 0 0 .24-.223zm-2.01 1.658c-.102.077-.203.154-.306.229a25.966 25.966 0 0 0 .306-.229zm-2.203 1.475c-.11.066-.222.13-.334.193a25.966 25.966 0 0 0 .334-.193zm-2.371 1.258l-.066.03.004.003a25.966 25.966 0 0 0 .062-.033z"
     fill="url(#g)"
     opacity=".3"
     id="path59" />
  <path
     d="M41 32h3.727l-6.27-6.27A9 9 0 0 1 41 32z"
     fill="url(#h)"
     opacity=".2"
     id="path61" />
  <path
     d="M46 40l-8 4-1 2-3 3-10.447 7.6C26.2 57.503 29.039 58 32 58c.218 0 .432-.01.648-.016L37 52l3-3 2-1z"
     fill="#292c2f"
     opacity=".2"
     id="path63" />
  <path
     d="M46 40l-8 4-1 2-3 3-10.447 7.6C26.2 57.503 29.039 58 32 58c.218 0 .432-.01.648-.016L37 52l3-3 2-1zm-6 4.586L41.414 46 40 47.414 38.586 46zM36.586 48L38 49.414l-.586.586H36v-1.414zM34 51a1 1 0 0 1 1 1 1 1 0 0 1-1 1 1 1 0 0 1-1-1 1 1 0 0 1 1-1zm-3 2l2 2-1.654 1.984a25.525 25.525 0 0 1-4.516-.51zm-4.035 4.51c.096.019.193.033.289.05-.096-.017-.193-.031-.29-.05z"
     fill="url(#i)"
     id="path65" />
  <path
     d="M36 48.586L31 53l2 2 4.414-5H36zM38.586 46l-2 2L38 49.414l2-2zM44 42l-4 2.586L41.414 46z"
     fill="#292c2f"
     opacity=".1"
     id="path67" />
  <path
     d="M46 40l-4 8-2 1-3 3-4.352 5.984a25.91 25.91 0 0 0 20.5-10.836z"
     fill="url(#j)"
     opacity=".2"
     id="path69" />
  <circle
     cx="32"
     cy="32"
     fill="url(#k)"
     r="3"
     id="circle71" />
</svg>
