<?xml version="1.0" encoding="UTF-8" standalone="no"?>
<!-- Generated by IcoMoon.io -->

<svg
   xmlns:dc="http://purl.org/dc/elements/1.1/"
   xmlns:cc="http://creativecommons.org/ns#"
   xmlns:rdf="http://www.w3.org/1999/02/22-rdf-syntax-ns#"
   xmlns:svg="http://www.w3.org/2000/svg"
   xmlns="http://www.w3.org/2000/svg"
   xmlns:sodipodi="http://sodipodi.sourceforge.net/DTD/sodipodi-0.dtd"
   xmlns:inkscape="http://www.inkscape.org/namespaces/inkscape"
   version="1.1"
   width="64"
   height="64"
   viewBox="0 0 64 64"
   id="svg6"
   sodipodi:docname="driver-multidisk-old.svg"
   inkscape:version="0.92.4 (5da689c313, 2019-01-14)">
  <metadata
     id="metadata12">
    <rdf:RDF>
      <cc:Work
         rdf:about="">
        <dc:format>image/svg+xml</dc:format>
        <dc:type
           rdf:resource="http://purl.org/dc/dcmitype/StillImage" />
        <dc:title>drive</dc:title>
      </cc:Work>
    </rdf:RDF>
  </metadata>
  <defs
     id="defs10" />
  <sodipodi:namedview
     pagecolor="#ffffff"
     bordercolor="#666666"
     borderopacity="1"
     objecttolerance="10"
     gridtolerance="10"
     guidetolerance="10"
     inkscape:pageopacity="0"
     inkscape:pageshadow="2"
     inkscape:window-width="1280"
     inkscape:window-height="954"
     id="namedview8"
     showgrid="false"
     inkscape:zoom="7.375"
     inkscape:cx="5.5451231"
     inkscape:cy="32.365659"
     inkscape:window-x="0"
     inkscape:window-y="0"
     inkscape:window-maximized="1"
     inkscape:current-layer="svg6" />
  <title
     id="title2">drive</title>
  <path
     style="fill:#315069;fill-opacity:1;stroke:none;stroke-width:1.00832117px;stroke-linecap:butt;stroke-linejoin:miter;stroke-opacity:1"
     d="m 3.5425082,37.98627 c -2.100041,9.51833 4.0049707,15.13968 9.2500098,15.275295 l 42.501788,-0.191758 c 1.149815,-0.67344 6.922883,-5.288357 5.277838,-14.594859 z"
     id="path891"
     inkscape:connector-curvature="0"
     sodipodi:nodetypes="ccccc" />
  <path
     d="M 14.033897,55.288135 H 49.9661 c 5.953967,0 10.779663,-5.212661 10.779663,-11.644068 H 3.2542368 c 0,6.431407 4.8256949,11.644068 10.7796602,11.644068 z M 49.9661,47.525423 h 3.593221 v 3.881356 H 49.9661 Z M 57.152541,8.7118648 H 6.847457 L 3.2542368,39.762711 H 60.745762 Z"
     id="path4"
     inkscape:connector-curvature="0"
     style="fill:#62a1d3;fill-opacity:1;stroke-width:1.86725521" />
  <path
     inkscape:connector-curvature="0"
     d="M 8.7844796,37.554019 H 55.285141 V 30.746723 H 8.7844796 Z M 13.43455,32.448562 h 4.650065 v 3.40363 H 13.43455 Z M 8.7844796,10.324882 v 6.807297 H 55.285141 V 10.324882 Z M 18.084615,15.43034 H 13.43455 v -3.403631 h 4.650065 z M 8.7844796,27.343093 H 55.285141 V 20.535809 H 8.7844796 Z M 13.43455,22.237636 h 4.650065 v 3.403629 H 13.43455 Z"
     id="path2"
     style="fill:#315069;fill-opacity:1;stroke-width:0.9945839" />
  <path
     inkscape:connector-curvature="0"
     style="opacity:0.1;fill:#ffffff"
     d="m 137.15254,-18.737289 -10,10.0000005 v 1 l 10,-10.0000005 h 31.5 c 1.385,0 2.5,1.115 2.5,2.5 v -1 c 0,-1.385 -1.115,-2.5 -2.5,-2.5 z"
     id="path28" />
</svg>
