<?xml version="1.0" encoding="UTF-8" standalone="no"?>
<svg
   xmlns:dc="http://purl.org/dc/elements/1.1/"
   xmlns:cc="http://creativecommons.org/ns#"
   xmlns:rdf="http://www.w3.org/1999/02/22-rdf-syntax-ns#"
   xmlns:svg="http://www.w3.org/2000/svg"
   xmlns="http://www.w3.org/2000/svg"
   xmlns:sodipodi="http://sodipodi.sourceforge.net/DTD/sodipodi-0.dtd"
   xmlns:inkscape="http://www.inkscape.org/namespaces/inkscape"
   width="64"
   height="64"
   version="1"
   id="svg32"
   sodipodi:docname="hifi.svg"
   inkscape:version="0.92.4 (5da689c313, 2019-01-14)">
  <metadata
     id="metadata38">
    <rdf:RDF>
      <cc:Work
         rdf:about="">
        <dc:format>image/svg+xml</dc:format>
        <dc:type
           rdf:resource="http://purl.org/dc/dcmitype/StillImage" />
        <dc:title></dc:title>
      </cc:Work>
    </rdf:RDF>
  </metadata>
  <defs
     id="defs36" />
  <sodipodi:namedview
     pagecolor="#ffffff"
     bordercolor="#666666"
     borderopacity="1"
     objecttolerance="10"
     gridtolerance="10"
     guidetolerance="10"
     inkscape:pageopacity="0"
     inkscape:pageshadow="2"
     inkscape:window-width="1280"
     inkscape:window-height="954"
     id="namedview34"
     showgrid="false"
     inkscape:zoom="4.9166667"
     inkscape:cx="20.440678"
     inkscape:cy="24"
     inkscape:window-x="0"
     inkscape:window-y="0"
     inkscape:window-maximized="1"
     inkscape:current-layer="svg32" />
  <rect
     style="opacity:0.2;stroke-width:1.36213315"
     width="5.4485326"
     height="21.79413"
     x="55.551468"
     y="-43.242661"
     rx="2.7242663"
     ry="2.7242663"
     transform="rotate(90)"
     id="rect2" />
  <rect
     style="fill:#959595;stroke-width:1.36213315"
     width="5.4485326"
     height="16.345598"
     x="29.62133"
     y="40.568005"
     id="rect4" />
  <rect
     style="opacity:0.2;stroke-width:1.36213315"
     width="32.691196"
     height="40.863995"
     x="-48.691196"
     y="6.5146751"
     rx="2.0431998"
     ry="2.0431998"
     transform="scale(-1,1)"
     id="rect6" />
  <rect
     style="fill:#62a1d3;stroke-width:1.36213315;fill-opacity:1"
     width="32.691196"
     height="40.863995"
     x="-48.691196"
     y="5.1525426"
     rx="2.0431998"
     ry="2.0431998"
     transform="scale(-1,1)"
     id="rect8" />
  <circle
     style="fill:#315069;stroke-width:1.36213315;fill-opacity:1"
     cx="32.345596"
     cy="21.49814"
     r="12.259197"
     id="circle10" />
  <circle
     style="opacity:0.2;stroke-width:1.36213315"
     cx="32.345596"
     cy="22.860273"
     r="9.5349312"
     id="circle12" />
  <circle
     style="fill:#959595;stroke-width:1.36213315;fill-opacity:1"
     cx="32.345596"
     cy="21.49814"
     r="9.5349312"
     id="circle14" />
  <circle
     style="fill:#315069;stroke-width:1.36213315;fill-opacity:1"
     cx="32.345596"
     cy="21.49814"
     r="4.0863996"
     id="circle16" />
  <rect
     style="fill:#315069;stroke-width:1.36213315;fill-opacity:1"
     width="5.4485326"
     height="21.79413"
     x="54.189335"
     y="-43.242661"
     rx="2.7242663"
     ry="2.7242663"
     transform="rotate(90)"
     id="rect18" />
  <path
     style="opacity:0.1;fill:#ffffff;stroke-width:1.36213315"
     d="M 18.0432,5.1525424 C 16.911267,5.1525424 16,6.0638095 16,7.1957421 v 1.3621328 c 0,-1.1319324 0.911267,-2.0431994 2.0432,-2.0431994 h 28.604795 c 1.131933,0 2.0432,0.911267 2.0432,2.0431994 V 7.1957421 c 0,-1.1319326 -0.911267,-2.0431997 -2.0432,-2.0431997 z"
     id="path20"
     inkscape:connector-curvature="0" />
  <circle
     style="opacity:0.4;stroke-width:1.36213315"
     cx="20.086399"
     cy="9.2389412"
     r="1.3621331"
     id="circle22" />
  <circle
     style="opacity:0.4;stroke-width:1.36213315"
     cx="44.604794"
     cy="9.2389412"
     r="1.3621331"
     id="circle24" />
  <circle
     style="opacity:0.4;stroke-width:1.36213315"
     cx="20.086399"
     cy="41.930134"
     r="1.3621331"
     id="circle26" />
  <circle
     style="opacity:0.4;stroke-width:1.36213315"
     cx="44.604794"
     cy="41.930134"
     r="1.3621331"
     id="circle28" />
  <path
     style="opacity:0.1;fill:#ffffff;stroke-width:1.36213315"
     d="m 32.345598,11.963207 a 9.5349317,9.5349317 0 0 0 -9.534933,9.534933 9.5349317,9.5349317 0 0 0 0.03193,0.736936 9.5349317,9.5349317 0 0 1 9.503004,-8.909735 9.5349317,9.5349317 0 0 1 9.503005,8.797996 9.5349317,9.5349317 0 0 0 0.03193,-0.625197 9.5349317,9.5349317 0 0 0 -9.534932,-9.534933 z"
     id="path30"
     inkscape:connector-curvature="0" />
</svg>
