<?xml version="1.0" encoding="UTF-8" standalone="no"?>
<svg
   xmlns:dc="http://purl.org/dc/elements/1.1/"
   xmlns:cc="http://creativecommons.org/ns#"
   xmlns:rdf="http://www.w3.org/1999/02/22-rdf-syntax-ns#"
   xmlns:svg="http://www.w3.org/2000/svg"
   xmlns="http://www.w3.org/2000/svg"
   xmlns:sodipodi="http://sodipodi.sourceforge.net/DTD/sodipodi-0.dtd"
   xmlns:inkscape="http://www.inkscape.org/namespaces/inkscape"
   width="64"
   height="64"
   version="1"
   id="svg62"
   sodipodi:docname="input-dialpad.svg"
   inkscape:version="0.92.4 (5da689c313, 2019-01-14)">
  <metadata
     id="metadata68">
    <rdf:RDF>
      <cc:Work
         rdf:about="">
        <dc:format>image/svg+xml</dc:format>
        <dc:type
           rdf:resource="http://purl.org/dc/dcmitype/StillImage" />
        <dc:title></dc:title>
      </cc:Work>
    </rdf:RDF>
  </metadata>
  <defs
     id="defs66" />
  <sodipodi:namedview
     pagecolor="#ffffff"
     bordercolor="#666666"
     borderopacity="1"
     objecttolerance="10"
     gridtolerance="10"
     guidetolerance="10"
     inkscape:pageopacity="0"
     inkscape:pageshadow="2"
     inkscape:window-width="1280"
     inkscape:window-height="954"
     id="namedview64"
     showgrid="false"
     inkscape:zoom="3.6875"
     inkscape:cx="27.254237"
     inkscape:cy="32"
     inkscape:window-x="0"
     inkscape:window-y="0"
     inkscape:window-maximized="1"
     inkscape:current-layer="svg62" />
  <rect
     style="opacity:0.2"
     width="42"
     height="55"
     x="11"
     y="5"
     rx="3"
     ry="3"
     id="rect2" />
  <rect
     style="fill:#62a1d3;fill-opacity:1"
     width="42"
     height="55"
     x="11"
     y="4"
     rx="3"
     ry="3"
     id="rect4" />
  <g
     style="opacity:0.2"
     transform="translate(0,1)"
     id="g30">
    <rect
       width="8"
       height="8"
       x="28"
       y="22"
       rx="1"
       ry="1"
       id="rect6" />
    <rect
       width="8"
       height="8"
       x="39"
       y="44"
       rx="1"
       ry="1"
       id="rect8" />
    <rect
       width="8"
       height="8"
       x="17"
       y="44"
       rx="1"
       ry="1"
       id="rect10" />
    <rect
       width="8"
       height="8"
       x="39"
       y="22"
       rx="1"
       ry="1"
       id="rect12" />
    <rect
       width="8"
       height="8"
       x="17"
       y="22"
       rx="1"
       ry="1"
       id="rect14" />
    <rect
       width="8"
       height="8"
       x="28"
       y="33"
       rx="1"
       ry="1"
       id="rect16" />
    <rect
       width="8"
       height="8"
       x="39"
       y="33"
       rx="1"
       ry="1"
       id="rect18" />
    <rect
       width="8"
       height="8"
       x="17"
       y="33"
       rx="1"
       ry="1"
       id="rect20" />
    <rect
       width="8"
       height="8"
       x="28"
       y="11"
       rx="1"
       ry="1"
       id="rect22" />
    <rect
       width="8"
       height="8"
       x="39"
       y="11"
       rx="1"
       ry="1"
       id="rect24" />
    <rect
       width="8"
       height="8"
       x="17"
       y="11"
       rx="1"
       ry="1"
       id="rect26" />
    <rect
       width="8"
       height="8"
       x="28"
       y="44"
       rx="1"
       ry="1"
       id="rect28" />
  </g>
  <rect
     style="fill:#ff5a5a"
     width="8"
     height="8"
     x="39"
     y="44"
     rx="1"
     ry="1"
     id="rect32" />
  <rect
     style="fill:#64c90e"
     width="8"
     height="8"
     x="17"
     y="44"
     rx="1"
     ry="1"
     id="rect34" />
  <g
     style="fill:#e4e4e4"
     id="g56">
    <rect
       width="8"
       height="8"
       x="28"
       y="22"
       rx="1"
       ry="1"
       id="rect36" />
    <rect
       width="8"
       height="8"
       x="39"
       y="22"
       rx="1"
       ry="1"
       id="rect38" />
    <rect
       width="8"
       height="8"
       x="17"
       y="22"
       rx="1"
       ry="1"
       id="rect40" />
    <rect
       width="8"
       height="8"
       x="28"
       y="33"
       rx="1"
       ry="1"
       id="rect42" />
    <rect
       width="8"
       height="8"
       x="39"
       y="33"
       rx="1"
       ry="1"
       id="rect44" />
    <rect
       width="8"
       height="8"
       x="17"
       y="33"
       rx="1"
       ry="1"
       id="rect46" />
    <rect
       width="8"
       height="8"
       x="28"
       y="11"
       rx="1"
       ry="1"
       id="rect48" />
    <rect
       width="8"
       height="8"
       x="39"
       y="11"
       rx="1"
       ry="1"
       id="rect50" />
    <rect
       width="8"
       height="8"
       x="17"
       y="11"
       rx="1"
       ry="1"
       id="rect52" />
    <rect
       width="8"
       height="8"
       x="28"
       y="44"
       rx="1"
       ry="1"
       id="rect54" />
  </g>
  <path
     style="fill:#ffffff;opacity:0.1"
     d="M 14 4 C 12.338 4 11 5.338 11 7 L 11 8 C 11 6.338 12.338 5 14 5 L 50 5 C 51.662 5 53 6.338 53 8 L 53 7 C 53 5.338 51.662 4 50 4 L 14 4 z"
     id="path58" />
  <path
     style="fill:#ffffff;opacity:0.2"
     d="M 18 11 C 17.446 11 17 11.446 17 12 L 17 13 C 17 12.446 17.446 12 18 12 L 24 12 C 24.554 12 25 12.446 25 13 L 25 12 C 25 11.446 24.554 11 24 11 L 18 11 z M 29 11 C 28.446 11 28 11.446 28 12 L 28 13 C 28 12.446 28.446 12 29 12 L 35 12 C 35.554 12 36 12.446 36 13 L 36 12 C 36 11.446 35.554 11 35 11 L 29 11 z M 40 11 C 39.446 11 39 11.446 39 12 L 39 13 C 39 12.446 39.446 12 40 12 L 46 12 C 46.554 12 47 12.446 47 13 L 47 12 C 47 11.446 46.554 11 46 11 L 40 11 z M 18 22 C 17.446 22 17 22.446 17 23 L 17 24 C 17 23.446 17.446 23 18 23 L 24 23 C 24.554 23 25 23.446 25 24 L 25 23 C 25 22.446 24.554 22 24 22 L 18 22 z M 29 22 C 28.446 22 28 22.446 28 23 L 28 24 C 28 23.446 28.446 23 29 23 L 35 23 C 35.554 23 36 23.446 36 24 L 36 23 C 36 22.446 35.554 22 35 22 L 29 22 z M 40 22 C 39.446 22 39 22.446 39 23 L 39 24 C 39 23.446 39.446 23 40 23 L 46 23 C 46.554 23 47 23.446 47 24 L 47 23 C 47 22.446 46.554 22 46 22 L 40 22 z M 18 33 C 17.446 33 17 33.446 17 34 L 17 35 C 17 34.446 17.446 34 18 34 L 24 34 C 24.554 34 25 34.446 25 35 L 25 34 C 25 33.446 24.554 33 24 33 L 18 33 z M 29 33 C 28.446 33 28 33.446 28 34 L 28 35 C 28 34.446 28.446 34 29 34 L 35 34 C 35.554 34 36 34.446 36 35 L 36 34 C 36 33.446 35.554 33 35 33 L 29 33 z M 40 33 C 39.446 33 39 33.446 39 34 L 39 35 C 39 34.446 39.446 34 40 34 L 46 34 C 46.554 34 47 34.446 47 35 L 47 34 C 47 33.446 46.554 33 46 33 L 40 33 z M 18 44 C 17.446 44 17 44.446 17 45 L 17 46 C 17 45.446 17.446 45 18 45 L 24 45 C 24.554 45 25 45.446 25 46 L 25 45 C 25 44.446 24.554 44 24 44 L 18 44 z M 29 44 C 28.446 44 28 44.446 28 45 L 28 46 C 28 45.446 28.446 45 29 45 L 35 45 C 35.554 45 36 45.446 36 46 L 36 45 C 36 44.446 35.554 44 35 44 L 29 44 z M 40 44 C 39.446 44 39 44.446 39 45 L 39 46 C 39 45.446 39.446 45 40 45 L 46 45 C 46.554 45 47 45.446 47 46 L 47 45 C 47 44.446 46.554 44 46 44 L 40 44 z"
     id="path60" />
</svg>
