<?xml version="1.0" encoding="UTF-8" standalone="no"?>
<svg
   xmlns:dc="http://purl.org/dc/elements/1.1/"
   xmlns:cc="http://creativecommons.org/ns#"
   xmlns:rdf="http://www.w3.org/1999/02/22-rdf-syntax-ns#"
   xmlns:svg="http://www.w3.org/2000/svg"
   xmlns="http://www.w3.org/2000/svg"
   xmlns:sodipodi="http://sodipodi.sourceforge.net/DTD/sodipodi-0.dtd"
   xmlns:inkscape="http://www.inkscape.org/namespaces/inkscape"
   width="64"
   height="64"
   version="1"
   id="svg26"
   sodipodi:docname="input-touchpad.svg"
   inkscape:version="0.92.4 (5da689c313, 2019-01-14)">
  <metadata
     id="metadata32">
    <rdf:RDF>
      <cc:Work
         rdf:about="">
        <dc:format>image/svg+xml</dc:format>
        <dc:type
           rdf:resource="http://purl.org/dc/dcmitype/StillImage" />
        <dc:title></dc:title>
      </cc:Work>
    </rdf:RDF>
  </metadata>
  <defs
     id="defs30" />
  <sodipodi:namedview
     pagecolor="#ffffff"
     bordercolor="#666666"
     borderopacity="1"
     objecttolerance="10"
     gridtolerance="10"
     guidetolerance="10"
     inkscape:pageopacity="0"
     inkscape:pageshadow="2"
     inkscape:window-width="1280"
     inkscape:window-height="954"
     id="namedview28"
     showgrid="false"
     inkscape:zoom="3.6875"
     inkscape:cx="27.254237"
     inkscape:cy="32"
     inkscape:window-x="0"
     inkscape:window-y="0"
     inkscape:window-maximized="1"
     inkscape:current-layer="svg26" />
  <rect
     style="opacity:0.2"
     width="52"
     height="52"
     x="-59"
     y="-58"
     rx="2.5"
     ry="2.5"
     transform="matrix(0,-1,-1,0,0,0)"
     id="rect2" />
  <rect
     style="fill:#62a1d3;fill-opacity:1"
     width="52"
     height="52"
     x="-58"
     y="-58"
     rx="2.5"
     ry="2.5"
     transform="matrix(0,-1,-1,0,0,0)"
     id="rect4" />
  <g
     style="opacity:0.40"
     transform="matrix(2,0,0,2,2e-4,0)"
     id="g22">
    <rect
       width="11"
       height="6"
       x="4"
       y="22"
       rx="1.25"
       ry="1.25"
       id="rect6" />
    <rect
       width="11"
       height="6"
       x="17"
       y="22"
       rx="1.25"
       ry="1.25"
       id="rect8" />
    <rect
       width="4"
       height="1"
       x="24"
       y="7"
       id="rect10" />
    <rect
       width="4"
       height="1"
       x="24"
       y="9"
       id="rect12" />
    <rect
       width="4"
       height="1"
       x="24"
       y="11"
       id="rect14" />
    <rect
       width="4"
       height="1"
       x="24"
       y="13"
       id="rect16" />
    <rect
       width="4"
       height="1"
       x="24"
       y="15"
       id="rect18" />
    <rect
       width="4"
       height="1"
       x="24"
       y="17"
       id="rect20" />
  </g>
  <path
     style="fill:#ffffff;opacity:0.1"
     d="M 8.5 6 C 7.115 6 6 7.115 6 8.5 L 6 9.5 C 6 8.115 7.115 7 8.5 7 L 55.5 7 C 56.885 7 58 8.115 58 9.5 L 58 8.5 C 58 7.115 56.885 6 55.5 6 L 8.5 6 z"
     id="path24" />
</svg>
