<?xml version="1.0" encoding="UTF-8" standalone="no"?>
<!-- Created with Inkscape (http://www.inkscape.org/) -->

<svg
   xmlns:dc="http://purl.org/dc/elements/1.1/"
   xmlns:cc="http://creativecommons.org/ns#"
   xmlns:rdf="http://www.w3.org/1999/02/22-rdf-syntax-ns#"
   xmlns:svg="http://www.w3.org/2000/svg"
   xmlns="http://www.w3.org/2000/svg"
   xmlns:sodipodi="http://sodipodi.sourceforge.net/DTD/sodipodi-0.dtd"
   xmlns:inkscape="http://www.inkscape.org/namespaces/inkscape"
   width="64"
   height="64"
   viewBox="0 0 16.933332 16.933334"
   version="1.1"
   id="svg4429"
   inkscape:version="0.92.4 (5da689c313, 2019-01-14)"
   sodipodi:docname="media-removable.svg">
  <defs
     id="defs4423" />
  <sodipodi:namedview
     id="base"
     pagecolor="#ffffff"
     bordercolor="#666666"
     borderopacity="1.0"
     inkscape:pageopacity="0.0"
     inkscape:pageshadow="2"
     inkscape:zoom="2.8"
     inkscape:cx="57.537285"
     inkscape:cy="70.87054"
     inkscape:document-units="mm"
     inkscape:current-layer="layer1"
     showgrid="false"
     units="px"
     width="128px"
     inkscape:window-width="1280"
     inkscape:window-height="954"
     inkscape:window-x="0"
     inkscape:window-y="0"
     inkscape:window-maximized="1" />
  <metadata
     id="metadata4426">
    <rdf:RDF>
      <cc:Work
         rdf:about="">
        <dc:format>image/svg+xml</dc:format>
        <dc:type
           rdf:resource="http://purl.org/dc/dcmitype/StillImage" />
        <dc:title />
      </cc:Work>
    </rdf:RDF>
  </metadata>
  <g
     inkscape:label="Camada 1"
     inkscape:groupmode="layer"
     id="layer1"
     transform="translate(0,-280.06666)">
    <path
       inkscape:connector-curvature="0"
       d="m 10.536984,285.40205 v 2.72285 h 0.667844 v 1.36142 H 9.2012951 v -5.44571 h 1.3356889 l -2.0035319,-2.72285 -2.0035325,2.72285 h 1.3356877 v 5.44571 H 5.8620748 v -1.40909 c 0.4708293,-0.24844 0.8014134,-0.73515 0.8014134,-1.31377 0,-0.82706 -0.6578269,-1.49755 -1.4692583,-1.49755 -0.8114303,0 -1.4692566,0.67049 -1.4692566,1.49755 0,0.57862 0.3305826,1.06533 0.8014131,1.31377 v 1.40909 c 0,0.7522 0.5977207,1.36143 1.3356884,1.36143 h 2.0035325 v 2.07618 c -0.4741679,0.24846 -0.8014124,0.74539 -0.8014124,1.32739 0,0.82706 0.657826,1.49757 1.4692572,1.49757 0.8114304,0 1.4692559,-0.67051 1.4692559,-1.49757 0,-0.582 -0.3272423,-1.07893 -0.8014129,-1.32739 v -2.07618 h 2.0035329 c 0.737967,0 1.335688,-0.60923 1.335688,-1.36143 v -1.36142 h 0.667844 v -2.72285 z"
       id="path2"
       style="fill:#62a1d3;fill-opacity:1;stroke-width:0.33712414" />
  </g>
</svg>
