<?xml version="1.0" encoding="UTF-8" standalone="no"?>
<svg
   xmlns:dc="http://purl.org/dc/elements/1.1/"
   xmlns:cc="http://creativecommons.org/ns#"
   xmlns:rdf="http://www.w3.org/1999/02/22-rdf-syntax-ns#"
   xmlns:svg="http://www.w3.org/2000/svg"
   xmlns="http://www.w3.org/2000/svg"
   xmlns:sodipodi="http://sodipodi.sourceforge.net/DTD/sodipodi-0.dtd"
   xmlns:inkscape="http://www.inkscape.org/namespaces/inkscape"
   width="64"
   height="64"
   version="1"
   id="svg30"
   sodipodi:docname="media-flash.svg"
   inkscape:version="0.92.4 (5da689c313, 2019-01-14)">
  <metadata
     id="metadata36">
    <rdf:RDF>
      <cc:Work
         rdf:about="">
        <dc:format>image/svg+xml</dc:format>
        <dc:type
           rdf:resource="http://purl.org/dc/dcmitype/StillImage" />
      </cc:Work>
    </rdf:RDF>
  </metadata>
  <defs
     id="defs34" />
  <sodipodi:namedview
     pagecolor="#ffffff"
     bordercolor="#666666"
     borderopacity="1"
     objecttolerance="10"
     gridtolerance="10"
     guidetolerance="10"
     inkscape:pageopacity="0"
     inkscape:pageshadow="2"
     inkscape:window-width="1280"
     inkscape:window-height="954"
     id="namedview32"
     showgrid="false"
     inkscape:zoom="3.6875"
     inkscape:cx="22.508474"
     inkscape:cy="32"
     inkscape:window-x="0"
     inkscape:window-y="0"
     inkscape:window-maximized="1"
     inkscape:current-layer="svg30" />
  <path
     style="opacity:0.2"
     d="M 20,5 10,15 V 58.5 C 10,59.885 11.115,61 12.5,61 H 51.5 C 52.885,61 54,59.885 54,58.5 V 7.5 C 54,6.115 52.885,5 51.5,5 Z"
     id="path2" />
  <path
     style="fill:#62a1d3;fill-opacity:1"
     d="M 20 4 L 10 14 L 10 57.5 C 10 58.885 11.115 60 12.5 60 L 51.5 60 C 52.885 60 54 58.885 54 57.5 L 54 6.5 C 54 5.115 52.885 4 51.5 4 L 20 4 z"
     id="path4" />
  <rect
     style="opacity:0.4"
     width="34"
     height="20"
     x="15"
     y="-53"
     rx="2.5"
     ry="2.5"
     transform="scale(1,-1)"
     id="rect6" />
  <g
     style="fill:#f8c44e"
     id="g26">
    <rect
       width="3"
       height="8"
       x="47"
       y="9"
       id="rect8" />
    <rect
       width="3"
       height="8"
       x="43"
       y="9"
       id="rect10" />
    <rect
       width="3"
       height="8"
       x="39"
       y="9"
       id="rect12" />
    <rect
       width="3"
       height="8"
       x="35"
       y="9"
       id="rect14" />
    <rect
       width="3"
       height="8"
       x="31"
       y="9"
       id="rect16" />
    <rect
       width="3"
       height="8"
       x="27"
       y="9"
       id="rect18" />
    <rect
       width="3"
       height="8"
       x="23"
       y="9"
       id="rect20" />
    <rect
       width="3"
       height="8"
       x="19"
       y="9"
       id="rect22" />
    <rect
       width="3"
       height="4"
       x="15"
       y="13"
       id="rect24" />
  </g>
  <path
     style="opacity:0.1;fill:#ffffff"
     d="M 20 4 L 10 14 L 10 15 L 20 5 L 51.5 5 C 52.885 5 54 6.115 54 7.5 L 54 6.5 C 54 5.115 52.885 4 51.5 4 L 20 4 z"
     id="path28" />
</svg>
