<?xml version="1.0" encoding="UTF-8" standalone="no"?>
<!-- Created with Inkscape (http://www.inkscape.org/) -->

<svg
   xmlns:dc="http://purl.org/dc/elements/1.1/"
   xmlns:cc="http://creativecommons.org/ns#"
   xmlns:rdf="http://www.w3.org/1999/02/22-rdf-syntax-ns#"
   xmlns:svg="http://www.w3.org/2000/svg"
   xmlns="http://www.w3.org/2000/svg"
   xmlns:sodipodi="http://sodipodi.sourceforge.net/DTD/sodipodi-0.dtd"
   xmlns:inkscape="http://www.inkscape.org/namespaces/inkscape"
   width="64"
   height="64"
   viewBox="0 0 16.933332 16.933334"
   version="1.1"
   id="svg4429"
   inkscape:version="0.92.4 (5da689c313, 2019-01-14)"
   sodipodi:docname="media-optical-bd.svg">
  <defs
     id="defs4423" />
  <sodipodi:namedview
     id="base"
     pagecolor="#ffffff"
     bordercolor="#666666"
     borderopacity="1.0"
     inkscape:pageopacity="0.0"
     inkscape:pageshadow="2"
     inkscape:zoom="2.8"
     inkscape:cx="-31.9953"
     inkscape:cy="77.425692"
     inkscape:document-units="mm"
     inkscape:current-layer="layer1"
     showgrid="false"
     units="px"
     width="128px"
     inkscape:window-width="1280"
     inkscape:window-height="954"
     inkscape:window-x="0"
     inkscape:window-y="0"
     inkscape:window-maximized="1" />
  <metadata
     id="metadata4426">
    <rdf:RDF>
      <cc:Work
         rdf:about="">
        <dc:format>image/svg+xml</dc:format>
        <dc:type
           rdf:resource="http://purl.org/dc/dcmitype/StillImage" />
        <dc:title />
      </cc:Work>
    </rdf:RDF>
  </metadata>
  <g
     inkscape:label="Camada 1"
     inkscape:groupmode="layer"
     id="layer1"
     transform="translate(0,-280.06666)">
    <circle
       r="3.3545387"
       cy="288.30652"
       cx="8.5044641"
       id="path822-6"
       style="opacity:1;fill:#315069;fill-opacity:1;stroke:none;stroke-width:0.26458332;stroke-linecap:round;stroke-linejoin:round;stroke-opacity:1" />
    <path
       inkscape:connector-curvature="0"
       style="opacity:0.2;stroke-width:0.26458332"
       d="m 8.4666585,281.2573 c -4.104216,0 -7.408333,3.30412 -7.408333,7.40834 0,4.10421 3.304117,7.40833 7.408333,7.40833 4.1042175,0 7.4083345,-3.30412 7.4083345,-7.40833 0,-4.10422 -3.304117,-7.40834 -7.4083345,-7.40834 z m 0,4.23334 a 3.175,3.175 0 0 1 3.1750005,3.175 3.175,3.175 0 0 1 -3.1750005,3.175 3.175,3.175 0 0 1 -3.175,-3.175 3.175,3.175 0 0 1 3.175,-3.175 z"
       id="path2-3" />
    <path
       inkscape:connector-curvature="0"
       style="fill:#cccccc;fill-opacity:1;stroke-width:0.26458332"
       d="m 8.4666585,284.4323 a 3.96875,3.96875 0 0 0 -3.96875,3.96875 3.96875,3.96875 0 0 0 3.96875,3.96875 3.96875,3.96875 0 0 0 3.9687505,-3.96875 3.96875,3.96875 0 0 0 -3.9687505,-3.96875 z m 0,2.38125 c 0.876777,0 1.5875005,0.71073 1.5875005,1.5875 0,0.87678 -0.7107235,1.5875 -1.5875005,1.5875 -0.876776,0 -1.5875,-0.71072 -1.5875,-1.5875 0,-0.87677 0.710724,-1.5875 1.5875,-1.5875 z"
       id="path4" />
    <path
       inkscape:connector-curvature="0"
       style="fill:#62a1d3;fill-opacity:1;stroke-width:0.26458332"
       d="m 8.4666585,280.99272 c -4.104216,0 -7.408333,3.30412 -7.408333,7.40833 0,4.10422 3.304117,7.40834 7.408333,7.40834 4.1042175,0 7.4083345,-3.30412 7.4083345,-7.40834 0,-4.10421 -3.304117,-7.40833 -7.4083345,-7.40833 z m 0,4.23333 a 3.175,3.175 0 0 1 3.1750005,3.175 3.175,3.175 0 0 1 -3.1750005,3.175 3.175,3.175 0 0 1 -3.175,-3.175 3.175,3.175 0 0 1 3.175,-3.175 z"
       id="path6" />
    <path
       inkscape:connector-curvature="0"
       style="opacity:0.2;fill:#ffffff;stroke-width:0.26458332"
       d="m 8.4666585,280.99272 c -4.104216,0 -7.408333,3.30412 -7.408333,7.40833 0,0.0301 0.003,0.0593 0.0047,0.0889 0.09301,-4.02213 3.358396,-7.23264 7.403682,-7.23264 4.0449435,0 7.3106555,3.20995 7.4042005,7.2316 0.0017,-0.0293 0.0041,-0.0582 0.0041,-0.0879 0,-4.10421 -3.304117,-7.40833 -7.4083345,-7.40833 z m -3.161564,7.67188 a 3.175,3.175 0 0 0 -0.01344,0.26562 3.175,3.175 0 0 0 0.0067,0.13229 3.175,3.175 0 0 1 0.0067,-0.13332 3.175,3.175 0 0 0 3.161565,2.91145 3.175,3.175 0 0 0 3.1615645,-2.90939 3.175,3.175 0 0 1 0.0078,0.15658 3.175,3.175 0 0 0 0.0057,-0.15761 3.175,3.175 0 0 0 -0.01343,-0.26355 3.175,3.175 0 0 1 -3.1615645,2.90938 3.175,3.175 0 0 1 -3.161565,-2.91145 z"
       id="path8" />
  </g>
</svg>
