<?xml version="1.0" encoding="UTF-8" standalone="no"?>
<svg
   xmlns:dc="http://purl.org/dc/elements/1.1/"
   xmlns:cc="http://creativecommons.org/ns#"
   xmlns:rdf="http://www.w3.org/1999/02/22-rdf-syntax-ns#"
   xmlns:svg="http://www.w3.org/2000/svg"
   xmlns="http://www.w3.org/2000/svg"
   xmlns:sodipodi="http://sodipodi.sourceforge.net/DTD/sodipodi-0.dtd"
   xmlns:inkscape="http://www.inkscape.org/namespaces/inkscape"
   width="64"
   height="64"
   version="1.1"
   id="svg36"
   sodipodi:docname="media-tape.svg"
   inkscape:version="0.92.4 (5da689c313, 2019-01-14)">
  <metadata
     id="metadata42">
    <rdf:RDF>
      <cc:Work
         rdf:about="">
        <dc:format>image/svg+xml</dc:format>
        <dc:type
           rdf:resource="http://purl.org/dc/dcmitype/StillImage" />
      </cc:Work>
    </rdf:RDF>
  </metadata>
  <defs
     id="defs40" />
  <sodipodi:namedview
     pagecolor="#ffffff"
     bordercolor="#666666"
     borderopacity="1"
     objecttolerance="10"
     gridtolerance="10"
     guidetolerance="10"
     inkscape:pageopacity="0"
     inkscape:pageshadow="2"
     inkscape:window-width="1280"
     inkscape:window-height="954"
     id="namedview38"
     showgrid="false"
     inkscape:zoom="5.2149125"
     inkscape:cx="26.936273"
     inkscape:cy="36.286076"
     inkscape:window-x="0"
     inkscape:window-y="0"
     inkscape:window-maximized="1"
     inkscape:current-layer="svg36" />
  <path
     inkscape:connector-curvature="0"
     id="path2"
     d="m 3,50.1074 v 1 C 3,53.8163 5.0181735,56 7.5253906,56 H 56.474609 C 58.981826,56 61,53.8163 61,51.1074 v -1 C 61,52.8163 58.981826,55 56.474609,55 H 7.5253906 C 5.0181735,55 3,52.8163 3,50.1074 Z"
     style="opacity:0.2" />
  <path
     inkscape:connector-curvature="0"
     id="path4"
     d="m 7.5258554,7.9999 c -2.507217,0 -4.5258558,2.1833 -4.5258558,4.8922 v 37.2156 c 0,2.7089 2.0186387,4.8922 4.5258558,4.8922 H 56.474144 C 58.981361,54.9999 61,52.8166 61,50.1077 V 12.8921 C 61,10.1832 58.981361,7.9999 56.474144,7.9999 Z M 19.571428,25.2793 A 6.2142858,6.220599 0 0 1 25.785714,31.5 6.2142858,6.220599 0 0 1 19.571428,37.7205 6.2142858,6.220599 0 0 1 13.357143,31.5 6.2142858,6.220599 0 0 1 19.571428,25.2793 Z m 24.857144,0 A 6.2142858,6.220599 0 0 1 50.642857,31.5 6.2142858,6.220599 0 0 1 44.428572,37.7205 6.2142858,6.220599 0 0 1 38.214286,31.5 6.2142858,6.220599 0 0 1 44.428572,25.2793 Z"
     style="fill:#62a1d3;fill-opacity:1" />
  <path
     inkscape:connector-curvature="0"
     id="path6"
     d="M 8.9999998,55 14.411763,45 H 49.588235 L 55,55 Z"
     style="fill:#3581be;fill-opacity:1" />
  <path
     inkscape:connector-curvature="0"
     id="path8"
     d="m 11.30687,14 c -1.278768,0 -2.3068701,1.2071 -2.3068701,2.7083 V 25 H 55 V 16.7083 C 55,15.2071 53.971893,14 52.693129,14 Z"
     style="fill:#3581be;fill-opacity:1" />
  <path
     inkscape:connector-curvature="0"
     id="path10"
     d="M 9,25 V 39.451172 C 9,40.864072 10.027873,42 11.306641,42 H 52.693359 C 53.972123,42 55,40.864072 55,39.451172 V 25 Z m 11,1.5 A 4.5,4.5 0 0 1 24.5,31 4.5,4.5 0 0 1 20,35.5 4.5,4.5 0 0 1 15.5,31 4.5,4.5 0 0 1 20,26.5 Z m 24,0 A 4.5,4.5 0 0 1 48.5,31 4.5,4.5 0 0 1 44,35.5 4.5,4.5 0 0 1 39.5,31 4.5,4.5 0 0 1 44,26.5 Z"
     style="fill:#e6e6e6;fill-opacity:0.60000002" />
  <circle
     id="circle12"
     r="2.5"
     cy="49.50032"
     cx="19.5"
     style="opacity:0.4" />
  <path
     inkscape:connector-curvature="0"
     id="path14"
     d="m 20,25 a 6,6 0 0 0 -6,6 6,6 0 0 0 6,6 h 24 a 6,6 0 0 0 6,-6 6,6 0 0 0 -6,-6 z m 0,2 a 4,4 0 0 1 4,4 4,4 0 0 1 -4,4 4,4 0 0 1 -4,-4 4,4 0 0 1 4,-4 z m 24,0 a 4,4 0 0 1 4,4 4,4 0 0 1 -4,4 4,4 0 0 1 -4,-4 4,4 0 0 1 4,-4 z"
     style="fill:#3f3f3f" />
  <g
     id="g20"
     transform="matrix(1.0137931,0,0,1.0862069,-0.44136325,-1153.0127)">
    <rect
       id="rect16"
       y="1087.28"
       x="25.09"
       height="5.5240002"
       width="13.81"
       style="fill:#cccccc" />
    <path
       inkscape:connector-curvature="0"
       id="path18"
       d="m 25.095235,1087.2815 v 5.5238 h 5.435294 c 0.316646,-0.8865 0.479913,-1.8205 0.482789,-2.7618 -0.0029,-0.9414 -0.16612,-1.8754 -0.482789,-2.762 z"
       style="fill:#874f29" />
  </g>
  <circle
     id="circle22"
     r="2.5"
     cy="49.50032"
     cx="44.5"
     style="opacity:0.4" />
  <path
     inkscape:connector-curvature="0"
     id="path24"
     d="M 7.5253906,8 C 5.0181736,8 3,10.183678 3,12.892578 v 1 C 3,11.183678 5.0181736,9 7.5253906,9 H 56.474609 C 58.981826,9 61,11.183678 61,13.892578 v -1 C 61,10.183678 58.981826,8 56.474609,8 Z"
     style="opacity:0.1;fill:#ffffff" />
  <path
     inkscape:connector-curvature="0"
     id="path26"
     d="m 9,39.451172 v 1 C 9,41.864072 10.027873,43 11.306641,43 H 52.693359 C 53.972123,43 55,41.864072 55,40.451172 v -1 C 55,40.864072 53.972123,42 52.693359,42 H 11.306641 C 10.027873,42 9,40.864072 9,39.451172 Z"
     style="opacity:0.2" />
  <rect
     id="rect28"
     y="28.00032"
     x="25"
     height="1"
     width="14"
     style="opacity:0.2" />
  <path
     inkscape:connector-curvature="0"
     id="path30"
     d="m 20,27 a 4,4 0 0 0 -4,4 4,4 0 0 0 0.03516,0.505859 A 4,4 0 0 1 20,28 4,4 0 0 1 23.964844,31.494141 4,4 0 0 0 24,31 4,4 0 0 0 20,27 Z m 24,0 a 4,4 0 0 0 -4,4 4,4 0 0 0 0.03516,0.505859 A 4,4 0 0 1 44,28 4,4 0 0 1 47.964844,31.494141 4,4 0 0 0 48,31 4,4 0 0 0 44,27 Z"
     style="opacity:0.2" />
  <path
     inkscape:connector-curvature="0"
     id="path32"
     d="M 14.412109,45 9,55 h 0.5410156 l 4.8710934,-9 h 35.175782 l 4.871093,9 H 55 L 49.587891,45 Z"
     style="opacity:0.1;fill:#ffffff" />
</svg>
