<?xml version="1.0" encoding="UTF-8" standalone="no"?>
<svg
   xmlns:dc="http://purl.org/dc/elements/1.1/"
   xmlns:cc="http://creativecommons.org/ns#"
   xmlns:rdf="http://www.w3.org/1999/02/22-rdf-syntax-ns#"
   xmlns:svg="http://www.w3.org/2000/svg"
   xmlns="http://www.w3.org/2000/svg"
   xmlns:sodipodi="http://sodipodi.sourceforge.net/DTD/sodipodi-0.dtd"
   xmlns:inkscape="http://www.inkscape.org/namespaces/inkscape"
   width="64"
   height="64"
   version="1"
   id="svg54"
   sodipodi:docname="network-card.svg"
   inkscape:version="0.92.4 (5da689c313, 2019-01-14)">
  <metadata
     id="metadata60">
    <rdf:RDF>
      <cc:Work
         rdf:about="">
        <dc:format>image/svg+xml</dc:format>
        <dc:type
           rdf:resource="http://purl.org/dc/dcmitype/StillImage" />
      </cc:Work>
    </rdf:RDF>
  </metadata>
  <defs
     id="defs58" />
  <sodipodi:namedview
     pagecolor="#ffffff"
     bordercolor="#666666"
     borderopacity="1"
     objecttolerance="10"
     gridtolerance="10"
     guidetolerance="10"
     inkscape:pageopacity="0"
     inkscape:pageshadow="2"
     inkscape:window-width="1280"
     inkscape:window-height="954"
     id="namedview56"
     showgrid="false"
     inkscape:zoom="3.6875"
     inkscape:cx="-21.016949"
     inkscape:cy="32"
     inkscape:window-x="0"
     inkscape:window-y="0"
     inkscape:window-maximized="1"
     inkscape:current-layer="svg54" />
  <path
     style="opacity:0.2"
     d="M 14.667,15.001 C 13.189,15.001 12,16.236 12,17.77 V 48.23 C 12,49.764 13.189,51 14.667,51 H 20 V 45 H 32 V 51 H 57.334 C 58.81,51 60,49.764 60,48.23 V 17.77 C 60,16.235 58.81,15 57.334,15 Z"
     id="path2" />
  <path
     style="fill:#1083aa;fill-opacity:1"
     d="M 14.667,14.001 C 13.189,14.001 12,15.236 12,16.77 V 47.23 C 12,48.764 13.189,50 14.667,50 H 20 V 44 H 32 V 50 H 57.334 C 58.81,50 60,48.764 60,47.23 V 16.77 C 60,15.235 58.81,14 57.334,14 Z"
     id="path4" />
  <rect
     style="fill:#4e4e4e"
     width="12"
     height="12"
     x="30"
     y="24"
     rx="2.4"
     ry="2.4"
     id="rect6" />
  <path
     style="fill:none;stroke:#000000;stroke-width:4;stroke-linecap:round;stroke-linejoin:round;opacity:0.2"
     d="M 6.0233,11.024 H 10.005 V 53.005"
     id="path8" />
  <path
     style="fill:none;stroke:#b7b7b7;stroke-width:4;stroke-linecap:round;stroke-linejoin:round"
     d="M 6.0233,10.024 H 10.005 V 52.005"
     id="path10" />
  <g
     style="opacity:0.2"
     transform="translate(0,1)"
     id="g20">
    <rect
       width="4"
       height="8"
       x="34"
       y="44"
       id="rect12" />
    <rect
       width="4"
       height="8"
       x="40"
       y="44"
       id="rect14" />
    <rect
       width="4"
       height="8"
       x="46"
       y="44"
       id="rect16" />
    <rect
       width="4"
       height="8"
       x="52"
       y="44"
       id="rect18" />
  </g>
  <g
     id="g30">
    <rect
       style="fill:#f8c44e"
       width="4"
       height="8"
       x="34"
       y="44"
       id="rect22" />
    <rect
       style="fill:#f8c44e"
       width="4"
       height="8"
       x="40"
       y="44"
       id="rect24" />
    <rect
       style="fill:#f8c44e"
       width="4"
       height="8"
       x="46"
       y="44"
       id="rect26" />
    <rect
       style="fill:#f8c44e"
       width="4"
       height="8"
       x="52"
       y="44"
       id="rect28" />
  </g>
  <g
     id="g48">
    <rect
       style="fill:#b7b7b7"
       width="2"
       height="4"
       x="32"
       y="21"
       id="rect32" />
    <rect
       style="fill:#b7b7b7"
       width="2"
       height="4"
       x="38"
       y="21"
       id="rect34" />
    <rect
       style="fill:#b7b7b7"
       width="2"
       height="4"
       x="32"
       y="35"
       id="rect36" />
    <rect
       style="fill:#b7b7b7"
       width="2"
       height="4"
       x="38"
       y="35"
       id="rect38" />
    <rect
       style="fill:#b7b7b7"
       width="2"
       height="4"
       x="26"
       y="-45"
       transform="rotate(90)"
       id="rect40" />
    <rect
       style="fill:#b7b7b7"
       width="2"
       height="4"
       x="32"
       y="-45"
       transform="rotate(90)"
       id="rect42" />
    <rect
       style="fill:#b7b7b7"
       width="2"
       height="4"
       x="26"
       y="-31"
       transform="rotate(90)"
       id="rect44" />
    <rect
       style="fill:#b7b7b7"
       width="2"
       height="4"
       x="32"
       y="-31"
       transform="rotate(90)"
       id="rect46" />
  </g>
  <path
     style="opacity:0.2;fill:#ffffff"
     d="M 6.0234 8.0234 A 2.0002 2.0002 0 0 0 4.0449 10.51 A 2.0002 2.0002 0 0 1 6.0234 9.0234 L 10.006 9.0234 A 2.0002 2.0002 0 0 1 12.006 11.023 L 12.006 10.023 A 2.0002 2.0002 0 0 0 10.006 8.0234 L 6.0234 8.0234 z"
     id="path50" />
  <path
     style="fill:#ffffff;opacity:0.2"
     d="M 57.334 14 L 14.668 14.002 C 13.19 14.002 12 15.236 12 16.77 L 12 17.77 C 12 16.236 13.19 15.002 14.668 15.002 L 57.334 15 C 58.81 15 60 16.235 60 17.77 L 60 16.77 C 60 15.235 58.81 14 57.334 14 z"
     id="path52" />
</svg>
