<?xml version="1.0" encoding="UTF-8" standalone="no"?>
<svg
   xmlns:dc="http://purl.org/dc/elements/1.1/"
   xmlns:cc="http://creativecommons.org/ns#"
   xmlns:rdf="http://www.w3.org/1999/02/22-rdf-syntax-ns#"
   xmlns:svg="http://www.w3.org/2000/svg"
   xmlns="http://www.w3.org/2000/svg"
   xmlns:sodipodi="http://sodipodi.sourceforge.net/DTD/sodipodi-0.dtd"
   xmlns:inkscape="http://www.inkscape.org/namespaces/inkscape"
   width="64"
   height="64"
   version="1"
   id="svg14"
   sodipodi:docname="phone.svg"
   inkscape:version="0.92.4 (5da689c313, 2019-01-14)">
  <metadata
     id="metadata20">
    <rdf:RDF>
      <cc:Work
         rdf:about="">
        <dc:format>image/svg+xml</dc:format>
        <dc:type
           rdf:resource="http://purl.org/dc/dcmitype/StillImage" />
      </cc:Work>
    </rdf:RDF>
  </metadata>
  <defs
     id="defs18" />
  <sodipodi:namedview
     pagecolor="#ffffff"
     bordercolor="#666666"
     borderopacity="1"
     objecttolerance="10"
     gridtolerance="10"
     guidetolerance="10"
     inkscape:pageopacity="0"
     inkscape:pageshadow="2"
     inkscape:window-width="1280"
     inkscape:window-height="954"
     id="namedview16"
     showgrid="false"
     inkscape:zoom="3.6875"
     inkscape:cx="22.508474"
     inkscape:cy="32"
     inkscape:window-x="0"
     inkscape:window-y="0"
     inkscape:window-maximized="1"
     inkscape:current-layer="svg14" />
  <rect
     style="opacity:0.2"
     width="48"
     height="60"
     x="8"
     y="3"
     rx="3"
     ry="3"
     id="rect2" />
  <rect
     style="fill:#62a1d3;fill-opacity:1"
     width="48"
     height="60"
     x="8"
     y="2"
     rx="3"
     ry="3"
     id="rect4" />
  <rect
     style="opacity:0.5"
     width="40"
     height="44"
     x="12"
     y="8"
     rx="3"
     ry="3"
     id="rect6" />
  <rect
     style="opacity:0.5"
     width="14"
     height="2"
     x="24"
     y="4"
     rx="1"
     ry="1"
     id="rect8" />
  <circle
     style="opacity:0.5"
     cx="32"
     cy="57"
     r="3"
     id="circle10" />
  <path
     style="opacity:0.2;fill:#ffffff"
     d="M 11 2 C 9.338 2 8 3.338 8 5 L 8 6 C 8 4.338 9.338 3 11 3 L 53 3 C 54.662 3 56 4.338 56 6 L 56 5 C 56 3.338 54.662 2 53 2 L 11 2 z"
     id="path12" />
</svg>
