<?xml version="1.0" encoding="UTF-8" standalone="no"?>
<svg
   xmlns:dc="http://purl.org/dc/elements/1.1/"
   xmlns:cc="http://creativecommons.org/ns#"
   xmlns:rdf="http://www.w3.org/1999/02/22-rdf-syntax-ns#"
   xmlns:svg="http://www.w3.org/2000/svg"
   xmlns="http://www.w3.org/2000/svg"
   xmlns:sodipodi="http://sodipodi.sourceforge.net/DTD/sodipodi-0.dtd"
   xmlns:inkscape="http://www.inkscape.org/namespaces/inkscape"
   width="64"
   height="64"
   version="1"
   id="svg12"
   sodipodi:docname="scanner.svg"
   inkscape:version="0.92.4 (5da689c313, 2019-01-14)">
  <metadata
     id="metadata18">
    <rdf:RDF>
      <cc:Work
         rdf:about="">
        <dc:format>image/svg+xml</dc:format>
        <dc:type
           rdf:resource="http://purl.org/dc/dcmitype/StillImage" />
      </cc:Work>
    </rdf:RDF>
  </metadata>
  <defs
     id="defs16" />
  <sodipodi:namedview
     pagecolor="#ffffff"
     bordercolor="#666666"
     borderopacity="1"
     objecttolerance="10"
     gridtolerance="10"
     guidetolerance="10"
     inkscape:pageopacity="0"
     inkscape:pageshadow="2"
     inkscape:window-width="1280"
     inkscape:window-height="954"
     id="namedview14"
     showgrid="false"
     inkscape:zoom="3.6875"
     inkscape:cx="17.762711"
     inkscape:cy="32"
     inkscape:window-x="0"
     inkscape:window-y="0"
     inkscape:window-maximized="1"
     inkscape:current-layer="svg12" />
  <rect
     style="fill:#e6e6e6"
     width="42.666"
     height="48"
     x="10.66"
     y="6.66"
     id="rect2" />
  <rect
     style="fill:#f34235"
     width="40"
     height="2"
     x="12"
     y="18"
     rx="0"
     ry="0"
     id="rect4" />
  <path
     style="opacity:0.2"
     d="m 12.0002,9 0,2 40,0 0,-2 -40,0 z m -6,45.398 0,2 c 0,1.44 1.1612,2.602 2.6016,2.602 l 46.796,0 c 1.44,0 2.602,-1.162 2.602,-2.602 l 0,-2 c 0,1.44 -1.162,2.602 -2.602,2.602 L 8.6018,57 C 7.161,57 5.9998,55.838 5.9998,54.398 Z"
     id="path6" />
  <path
     style="fill:#62a1d3;fill-opacity:1"
     d="m 8.6002,6 c -1.4404,0 -2.6,1.1596 -2.6,2.6 l 0,46.8 c 0,1.4404 1.1596,2.6 2.6,2.6 l 46.8,0 c 1.44,0 2.6,-1.16 2.6,-2.6 l 0,-46.8 c 0,-1.4404 -1.1596,-2.6 -2.6,-2.6 z m 3.4,4 40,0 0,44 -40,0 z"
     id="path8" />
  <path
     style="opacity:0.1;fill:#ffffff"
     d="M 8.6015625 6 C 7.1611625 6 6 7.1611625 6 8.6015625 L 6 9.6015625 C 6 8.1611625 7.1611625 7 8.6015625 7 L 55.398438 7 C 56.838437 7 58 8.1611625 58 9.6015625 L 58 8.6015625 C 58 7.1611625 56.838437 6 55.398438 6 L 8.6015625 6 z M 12 54 L 12 55 L 52 55 L 52 54 L 12 54 z"
     id="path10" />
</svg>
