<?xml version="1.0" encoding="UTF-8" standalone="no"?>
<svg
   xmlns:dc="http://purl.org/dc/elements/1.1/"
   xmlns:cc="http://creativecommons.org/ns#"
   xmlns:rdf="http://www.w3.org/1999/02/22-rdf-syntax-ns#"
   xmlns:svg="http://www.w3.org/2000/svg"
   xmlns="http://www.w3.org/2000/svg"
   xmlns:sodipodi="http://sodipodi.sourceforge.net/DTD/sodipodi-0.dtd"
   xmlns:inkscape="http://www.inkscape.org/namespaces/inkscape"
   height="64"
   viewBox="0 0 64 64"
   width="64"
   version="1.1"
   id="svg4"
   sodipodi:docname="sim-card.svg"
   inkscape:version="0.92.4 (5da689c313, 2019-01-14)"
   style="fill:#00fbff">
  <metadata
     id="metadata10">
    <rdf:RDF>
      <cc:Work
         rdf:about="">
        <dc:format>image/svg+xml</dc:format>
        <dc:type
           rdf:resource="http://purl.org/dc/dcmitype/StillImage" />
        <dc:title />
      </cc:Work>
    </rdf:RDF>
  </metadata>
  <defs
     id="defs8" />
  <sodipodi:namedview
     pagecolor="#ffffff"
     bordercolor="#666666"
     borderopacity="1"
     objecttolerance="10"
     gridtolerance="10"
     guidetolerance="10"
     inkscape:pageopacity="0"
     inkscape:pageshadow="2"
     inkscape:window-width="1280"
     inkscape:window-height="954"
     id="namedview6"
     showgrid="false"
     inkscape:zoom="2.5063477"
     inkscape:cx="-1.196448"
     inkscape:cy="58.766174"
     inkscape:window-x="0"
     inkscape:window-y="0"
     inkscape:window-maximized="1"
     inkscape:current-layer="svg4" />
  <rect
     style="opacity:1;fill:#f8c44e;fill-opacity:1;stroke:none;stroke-width:0.98952854;stroke-linecap:round;stroke-linejoin:round;stroke-opacity:1"
     id="rect812"
     width="37.504772"
     height="32.71693"
     x="13.166569"
     y="23.303331"
     rx="0.3179462"
     ry="0.32434899" />
  <path
     inkscape:connector-curvature="0"
     d="m 54.833995,9.1374276 c 0,-3.1578932 -2.529172,-5.7156442 -5.687065,-5.7156442 H 26.284355 L 9.137424,20.568715 v 34.293854 c 0,3.157896 2.55775,5.715648 5.715643,5.715648 h 34.322441 c 3.157893,0 5.687068,-2.557752 5.687068,-5.715648 z M 23.426533,52.004755 h -5.715644 v -5.715646 h 5.715644 z m 22.862575,0 h -5.715644 v -5.715646 h 5.715644 z M 23.426533,40.573469 H 17.710889 V 29.142181 h 5.715644 z M 34.85782,52.004755 H 29.142177 V 40.573469 h 5.715643 z m 0,-17.146933 h -5.715643 v -5.715641 h 5.715643 z m 11.431288,5.715647 H 40.573464 V 29.142181 h 5.715644 z"
     id="path2"
     style="fill:#62a1d3;fill-opacity:1;stroke-width:1.42891085" />
</svg>
