<?xml version="1.0" encoding="UTF-8" standalone="no"?>
<svg
   xmlns:dc="http://purl.org/dc/elements/1.1/"
   xmlns:cc="http://creativecommons.org/ns#"
   xmlns:rdf="http://www.w3.org/1999/02/22-rdf-syntax-ns#"
   xmlns:svg="http://www.w3.org/2000/svg"
   xmlns="http://www.w3.org/2000/svg"
   xmlns:sodipodi="http://sodipodi.sourceforge.net/DTD/sodipodi-0.dtd"
   xmlns:inkscape="http://www.inkscape.org/namespaces/inkscape"
   width="64"
   height="64"
   version="1"
   id="svg18"
   sodipodi:docname="wiimotedev.svg"
   inkscape:version="0.92.4 (5da689c313, 2019-01-14)">
  <metadata
     id="metadata24">
    <rdf:RDF>
      <cc:Work
         rdf:about="">
        <dc:format>image/svg+xml</dc:format>
        <dc:type
           rdf:resource="http://purl.org/dc/dcmitype/StillImage" />
      </cc:Work>
    </rdf:RDF>
  </metadata>
  <defs
     id="defs22" />
  <sodipodi:namedview
     pagecolor="#ffffff"
     bordercolor="#666666"
     borderopacity="1"
     objecttolerance="10"
     gridtolerance="10"
     guidetolerance="10"
     inkscape:pageopacity="0"
     inkscape:pageshadow="2"
     inkscape:window-width="1280"
     inkscape:window-height="954"
     id="namedview20"
     showgrid="false"
     inkscape:zoom="3.6875"
     inkscape:cx="22.508474"
     inkscape:cy="32"
     inkscape:window-x="0"
     inkscape:window-y="0"
     inkscape:window-maximized="1"
     inkscape:current-layer="svg18" />
  <path
     style="opacity:0.2"
     d="m 19,56.2 0,2 c 0,1.55 1.1612,2.8 2.602,2.8 l 20.796,0 C 43.838,61 45,59.75 45,58.2 l 0,-2 C 45,57.75 43.838,59 42.398,59 L 21.602,59 C 20.1612,59 19,57.75 19,56.2 Z"
     id="path2" />
  <rect
     style="fill:#62a1d3;fill-opacity:1"
     width="56"
     height="26"
     x="4"
     y="-45"
     rx="2.8"
     ry="2.6"
     transform="matrix(0,1,-1,0,0,0)"
     id="rect4" />
  <path
     style="fill:#315069;fill-opacity:1"
     d="m 39,15.6 c -4e-6,-0.7756 -0.6244,-1.600053 -1.4,-1.600053 l -2.599983,3.6e-5 -3.4e-5,-2.599947 c 0,-0.7756 -0.824017,-1.4 -1.600017,-1.4 l -2.8,3.4e-5 c -0.7756,6e-6 -1.599983,0.6244 -1.599983,1.4 l 3.4e-5,2.599947 -2.600017,3.6e-5 c -0.776,0 -1.4,0.824453 -1.4,1.600053 l 3.6e-5,2.8 c 2e-6,0.7756 0.6244,1.600074 1.4,1.600074 l 2.599946,-3.6e-5 3.6e-5,2.599926 c 2e-6,0.7756 0.824454,1.4 1.600054,1.4 l 2.8,-3.6e-5 c 0.7756,-4e-6 1.600028,-0.6244 1.600028,-1.4 l -0.0022,-2.600126 2.598972,-8.8e-5 c 0.77586,1.54e-4 1.40146,-0.823474 1.40134,-1.599254 l -3.8e-5,-2.8 z"
     id="path6" />
  <circle
     style="fill:#315069;fill-opacity:1"
     cx="51"
     cy="-36"
     r="3"
     transform="matrix(0,1,-1,0,0,0)"
     id="circle8" />
  <circle
     style="fill:#315069;fill-opacity:1"
     cx="43"
     cy="-36"
     r="3"
     transform="matrix(0,1,-1,0,0,0)"
     id="circle10" />
  <circle
     style="fill:#315069;fill-opacity:1"
     cx="51"
     cy="-28"
     r="3"
     transform="matrix(0,1,-1,0,0,0)"
     id="circle12" />
  <circle
     style="fill:#315069;fill-opacity:1"
     cx="43"
     cy="-28"
     r="3"
     transform="matrix(0,1,-1,0,0,0)"
     id="circle14" />
  <path
     style="opacity:0.2;fill:#ffffff"
     d="M 21.601562 4 C 20.160763 4 19 5.2495812 19 6.8007812 L 19 7.8007812 C 19 6.2495813 20.160763 5 21.601562 5 L 42.398438 5 C 43.838437 5 45 6.2495812 45 7.8007812 L 45 6.8007812 C 45 5.2495812 43.838437 4 42.398438 4 L 21.601562 4 z"
     id="path16" />
</svg>
