<?xml version="1.0" encoding="UTF-8" standalone="no"?>
<svg
   xmlns:dc="http://purl.org/dc/elements/1.1/"
   xmlns:cc="http://creativecommons.org/ns#"
   xmlns:rdf="http://www.w3.org/1999/02/22-rdf-syntax-ns#"
   xmlns:svg="http://www.w3.org/2000/svg"
   xmlns="http://www.w3.org/2000/svg"
   xmlns:sodipodi="http://sodipodi.sourceforge.net/DTD/sodipodi-0.dtd"
   xmlns:inkscape="http://www.inkscape.org/namespaces/inkscape"
   width="48"
   height="48"
   viewBox="0 0 48 48"
   version="1.1"
   id="svg45"
   sodipodi:docname="applications-science.svg"
   inkscape:version="0.92.4 (5da689c313, 2019-01-14)">
  <metadata
     id="metadata51">
    <rdf:RDF>
      <cc:Work
         rdf:about="">
        <dc:format>image/svg+xml</dc:format>
        <dc:type
           rdf:resource="http://purl.org/dc/dcmitype/StillImage" />
        <dc:title></dc:title>
      </cc:Work>
    </rdf:RDF>
  </metadata>
  <defs
     id="defs49" />
  <sodipodi:namedview
     pagecolor="#ffffff"
     bordercolor="#666666"
     borderopacity="1"
     objecttolerance="10"
     gridtolerance="10"
     guidetolerance="10"
     inkscape:pageopacity="0"
     inkscape:pageshadow="2"
     inkscape:window-width="1280"
     inkscape:window-height="954"
     id="namedview47"
     showgrid="false"
     inkscape:zoom="10.429825"
     inkscape:cx="34.339514"
     inkscape:cy="24.702434"
     inkscape:window-x="0"
     inkscape:window-y="0"
     inkscape:window-maximized="1"
     inkscape:current-layer="svg45" />
  <g
     id="surface1"
     transform="matrix(0.74375942,0,0,0.74375942,0.38584421,0.01484735)">
    <path
       style="fill:#8ac24a;fill-opacity:1;fill-rule:nonzero;stroke:none"
       d="m 27.78125,28.015625 c 0,0 -5.65625,-6.339844 -11.023438,-1.9375 -1.816406,1.484375 -5.347656,3.527344 -5.347656,3.527344 0,0 5.15625,5.324219 9.375,4.457031 C 25,33.203125 27.78125,28.015625 27.78125,28.015625 Z m 0,0"
       id="path2"
       inkscape:connector-curvature="0" />
    <path
       style="fill:#8ac24a;fill-opacity:1;fill-rule:nonzero;stroke:none"
       d="m 35.296875,25.441406 c 0,0 1.730469,8.316406 8.578125,7.191406 C 46.1875,32.25 50.269531,32.25 50.269531,32.25 c 0,0 -1.800781,-7.191406 -5.886719,-8.550781 -4.082031,-1.363281 -9.085937,1.742187 -9.085937,1.742187 z m 0,0"
       id="path4"
       inkscape:connector-curvature="0" />
    <path
       style="fill:#9ccc63;fill-opacity:1;fill-rule:nonzero;stroke:none"
       d="m 26.457031,28.28125 c 0,0 4.660157,-7.101562 -0.980469,-11.152344 -1.90625,-1.363281 -4.789062,-4.25 -4.789062,-4.25 0,0 -3.8125,6.359375 -1.882812,10.207032 1.921874,3.851562 7.652343,5.195312 7.652343,5.195312 z m 0,0"
       id="path6"
       inkscape:connector-curvature="0" />
    <path
       style="fill:#9ccc63;fill-opacity:1;fill-rule:nonzero;stroke:none"
       d="m 35.71875,27.199219 c 0,0 8.480469,0.480469 9.167969,-6.425781 0.230469,-2.335938 1.285156,-6.277344 1.285156,-6.277344 0,0 -7.410156,-0.121094 -9.78125,3.476562 -2.375,3.589844 -0.671875,9.226563 -0.671875,9.226563 z m 0,0"
       id="path8"
       inkscape:connector-curvature="0" />
    <path
       style="fill:#63a1d4;fill-opacity:0.99215686;fill-rule:nonzero;stroke:none"
       d="m 26.457031,8.4375 v 20.765625 c -6.5625,6.679687 -17.148437,17.300781 -19.136719,23.273437 -3.054687,9.160157 24.429688,8.875 24.429688,8.875 0,0 27.480469,0.285157 24.429688,-8.875 C 54.191406,46.503906 43.605469,35.882812 37.042969,29.203125 V 8.4375 Z m 0,0"
       id="path10"
       inkscape:connector-curvature="0" />
    <path
       style="fill:#1875c5;fill-opacity:1;fill-rule:nonzero;stroke:none"
       d="m 27.121094,3.144531 h 9.257812 c 1.828125,0 3.308594,1.289063 3.308594,2.875 v 0.207031 c 0,1.585938 -1.480469,2.871094 -3.308594,2.871094 H 27.121094 C 25.292969,9.097656 23.8125,7.8125 23.8125,6.226562 V 6.019531 c 0,-1.585937 1.480469,-2.875 3.308594,-2.875 z m 0,0"
       id="path12"
       inkscape:connector-curvature="0" />
    <path
       style="fill:#ab45ba;fill-opacity:1;fill-rule:nonzero;stroke:none"
       d="m 17.199219,41.503906 c -2.828125,3.472656 -5.976563,6.824219 -6.792969,9.273438 -2.667969,7.992187 21.308594,7.75 21.308594,7.75 0,0 23.972656,0.242187 21.308594,-7.75 -0.816407,-2.445313 -3.894532,-5.800782 -6.722657,-9.273438 -6.992187,3.242188 -25.398437,-3.140625 -29.101562,0 z m 0,0"
       id="path14"
       inkscape:connector-curvature="0" />
    <path
       style="fill:#b866c7;fill-opacity:1;fill-rule:nonzero;stroke:none"
       d="m 28.441406,44.15625 c 1.097656,0 1.984375,0.886719 1.984375,1.984375 0,1.097656 -0.886719,1.984375 -1.984375,1.984375 -1.09375,0 -1.984375,-0.886719 -1.984375,-1.984375 0,-1.097656 0.890625,-1.984375 1.984375,-1.984375 z m 0,0"
       id="path16"
       inkscape:connector-curvature="0" />
    <path
       style="fill:#b866c7;fill-opacity:1;fill-rule:nonzero;stroke:none"
       d="m 39.027344,44.15625 c 1.09375,0 1.984375,0.886719 1.984375,1.984375 0,1.097656 -0.890625,1.984375 -1.984375,1.984375 -1.097656,0 -1.984375,-0.886719 -1.984375,-1.984375 0,-1.097656 0.886719,-1.984375 1.984375,-1.984375 z m 0,0"
       id="path18"
       inkscape:connector-curvature="0" />
    <path
       style="fill:#b866c7;fill-opacity:1;fill-rule:nonzero;stroke:none"
       d="m 33.734375,50.769531 c 1.097656,0 1.984375,0.890625 1.984375,1.984375 0,1.097656 -0.886719,1.984375 -1.984375,1.984375 -1.097656,0 -1.984375,-0.886719 -1.984375,-1.984375 0,-1.09375 0.886719,-1.984375 1.984375,-1.984375 z m 0,0"
       id="path20"
       inkscape:connector-curvature="0" />
    <path
       style="fill:#b866c7;fill-opacity:1;fill-rule:nonzero;stroke:none"
       d="m 21.828125,49.449219 c 1.097656,0 1.984375,0.886719 1.984375,1.984375 0,1.09375 -0.886719,1.984375 -1.984375,1.984375 -1.097656,0 -1.984375,-0.890625 -1.984375,-1.984375 0,-1.097656 0.886719,-1.984375 1.984375,-1.984375 z m 0,0"
       id="path22"
       inkscape:connector-curvature="0" />
    <path
       style="fill:#b866c7;fill-opacity:1;fill-rule:nonzero;stroke:none"
       d="m 45.640625,49.449219 c 1.097656,0 1.984375,0.886719 1.984375,1.984375 0,1.09375 -0.886719,1.984375 -1.984375,1.984375 -1.097656,0 -1.984375,-0.890625 -1.984375,-1.984375 0,-1.097656 0.886719,-1.984375 1.984375,-1.984375 z m 0,0"
       id="path24"
       inkscape:connector-curvature="0" />
    <path
       style="fill:#8fa3ae;fill-opacity:1;fill-rule:nonzero;stroke:none"
       d="m 36.378906,36.21875 c 1.097656,0 1.984375,0.886719 1.984375,1.984375 0,1.097656 -0.886719,1.984375 -1.984375,1.984375 -1.09375,0 -1.984375,-0.886719 -1.984375,-1.984375 0,-1.097656 0.890625,-1.984375 1.984375,-1.984375 z m 0,0"
       id="path26"
       inkscape:connector-curvature="0" />
    <path
       style="fill:#8fa3ae;fill-opacity:1;fill-rule:nonzero;stroke:none"
       d="m 32.410156,28.941406 c 1.097656,0 1.984375,0.890625 1.984375,1.984375 0,1.097657 -0.886719,1.984375 -1.984375,1.984375 -1.09375,0 -1.984375,-0.886718 -1.984375,-1.984375 0,-1.09375 0.890625,-1.984375 1.984375,-1.984375 z m 0,0"
       id="path28"
       inkscape:connector-curvature="0" />
    <path
       style="fill:#8fa3ae;fill-opacity:1;fill-rule:nonzero;stroke:none"
       d="m 32.410156,21.667969 c 1.097656,0 1.984375,0.886719 1.984375,1.984375 0,1.09375 -0.886719,1.984375 -1.984375,1.984375 -1.09375,0 -1.984375,-0.890625 -1.984375,-1.984375 0,-1.097656 0.890625,-1.984375 1.984375,-1.984375 z m 0,0"
       id="path30"
       inkscape:connector-curvature="0" />
    <path
       style="fill:#8fa3ae;fill-opacity:1;fill-rule:nonzero;stroke:none"
       d="m 27.121094,34.894531 c 1.09375,0 1.984375,0.890625 1.984375,1.984375 0,1.097656 -0.890625,1.984375 -1.984375,1.984375 -1.097656,0 -1.984375,-0.886719 -1.984375,-1.984375 0,-1.09375 0.886719,-1.984375 1.984375,-1.984375 z m 0,0"
       id="path32"
       inkscape:connector-curvature="0" />
    <path
       style="fill:#1875c5;fill-opacity:1;fill-rule:nonzero;stroke:none"
       d="m 26.457031,26.800781 v 2.402344 c -1.316406,1.339844 -2.800781,2.84375 -4.339843,4.433594 3.460937,-1.507813 5.664062,-5.621094 5.664062,-5.621094 0,0 -0.492188,-0.550781 -1.324219,-1.214844 z m 0,0"
       id="path34"
       inkscape:connector-curvature="0" />
    <path
       style="fill:#1875c5;fill-opacity:1;fill-rule:nonzero;stroke:none"
       d="M 26.457031,17.964844 V 28.28125 c 0,0 4.070313,-6.203125 0,-10.316406 z m 0,0"
       id="path36"
       inkscape:connector-curvature="0" />
    <path
       style="fill:#1875c5;fill-opacity:1;fill-rule:nonzero;stroke:none"
       d="m 37.042969,17.1875 c -0.246094,0.238281 -0.464844,0.5 -0.652344,0.785156 -2.375,3.589844 -0.671875,9.226563 -0.671875,9.226563 0,0 0.523438,0.02734 1.324219,-0.03125 z m 0,0"
       id="path38"
       inkscape:connector-curvature="0" />
    <path
       style="fill:#1875c5;fill-opacity:1;fill-rule:nonzero;stroke:none"
       d="m 37.042969,24.554688 c -1.066407,0.460937 -1.746094,0.886718 -1.746094,0.886718 0,0 1.019531,4.910156 4.605469,6.675782 -1.007813,-1.03125 -1.972656,-2.007813 -2.859375,-2.914063 z m 0,0"
       id="path40"
       inkscape:connector-curvature="0" />
    <path
       style="fill:#b866c7;fill-opacity:1;fill-rule:nonzero;stroke:none"
       d="m 20.503906,41.511719 c 1.097656,0 1.984375,0.886719 1.984375,1.984375 0,1.09375 -0.886719,1.984375 -1.984375,1.984375 -1.09375,0 -1.984375,-0.890625 -1.984375,-1.984375 0,-1.097656 0.890625,-1.984375 1.984375,-1.984375 z m 0,0"
       id="path42"
       inkscape:connector-curvature="0" />
  </g>
</svg>
