<?xml version="1.0" encoding="UTF-8" standalone="no"?>
<!-- Created with Inkscape (http://www.inkscape.org/) -->

<svg
   xmlns:dc="http://purl.org/dc/elements/1.1/"
   xmlns:cc="http://creativecommons.org/ns#"
   xmlns:rdf="http://www.w3.org/1999/02/22-rdf-syntax-ns#"
   xmlns:svg="http://www.w3.org/2000/svg"
   xmlns="http://www.w3.org/2000/svg"
   xmlns:xlink="http://www.w3.org/1999/xlink"
   xmlns:sodipodi="http://sodipodi.sourceforge.net/DTD/sodipodi-0.dtd"
   xmlns:inkscape="http://www.inkscape.org/namespaces/inkscape"
   width="48"
   height="48"
   viewBox="0 0 12.7 12.7"
   version="1.1"
   id="svg8"
   inkscape:version="0.92.4 (5da689c313, 2019-01-14)"
   sodipodi:docname="application-x-executable.svg">
  <defs
     id="defs2">
    <linearGradient
       inkscape:collect="always"
       xlink:href="#aigrd1"
       id="linearGradient53551"
       gradientUnits="userSpaceOnUse"
       x1="99.777298"
       y1="15.4238"
       x2="153.0005"
       y2="248.6311"
       gradientTransform="matrix(0.05309791,0,0,0.05309791,-0.22112721,283.89407)" />
    <linearGradient
       id="aigrd1"
       gradientUnits="userSpaceOnUse"
       x1="99.777298"
       y1="15.4238"
       x2="153.0005"
       y2="248.6311">
      <stop
         offset="0"
         style="stop-color:#1875c5;stop-opacity:1"
         id="stop53300" />
      <stop
         offset="1"
         style="stop-color:#1875c5;stop-opacity:1"
         id="stop53302" />
    </linearGradient>
    <radialGradient
       gradientUnits="userSpaceOnUse"
       r="11.68987"
       fy="72.568001"
       fx="14.287618"
       cy="68.872971"
       cx="14.287618"
       gradientTransform="matrix(0.43922201,-7.0138419e-8,2.5727505e-8,0.16111171,0.10291003,283.62879)"
       id="radialGradient2308"
       xlink:href="#linearGradient2300"
       inkscape:collect="always" />
    <linearGradient
       id="linearGradient2300">
      <stop
         id="stop2302"
         offset="0.0000000"
         style="stop-color:#000000;stop-opacity:0.32673267;" />
      <stop
         id="stop2304"
         offset="1"
         style="stop-color:#000000;stop-opacity:0;" />
    </linearGradient>
    <clipPath
       id="clipPath13429">
      <path
         inkscape:connector-curvature="0"
         d="m 481,318 h 22 v 22 h -22 z"
         id="path2" />
    </clipPath>
    <clipPath
       id="clipPath13465">
      <path
         inkscape:connector-curvature="0"
         d="m 507,318 h 22 v 22 h -22 z"
         id="path5" />
    </clipPath>
    <clipPath
       id="clipPath13501">
      <path
         inkscape:connector-curvature="0"
         d="m 530,318 h 22 v 22 h -22 z"
         id="path8" />
    </clipPath>
    <clipPath
       id="clipPath13753">
      <path
         inkscape:connector-curvature="0"
         d="m 672,1064 c 0,-1.105 4.925,-2 11,-2 6.075,0 11,0.895 11,2 0,1.105 -4.925,2 -11,2 -6.075,0 -11,-0.895 -11,-2"
         id="path11" />
    </clipPath>
    <clipPath
       id="clipPath13771">
      <path
         inkscape:connector-curvature="0"
         d="m 660,1057 h 51 v 65.001 h -51 z"
         id="path14" />
    </clipPath>
    <clipPath
       id="clipPath14035">
      <path
         inkscape:connector-curvature="0"
         d="m 659,517 h 53 v 18 h -53 z"
         id="path17" />
    </clipPath>
    <clipPath
       id="clipPath14127">
      <path
         inkscape:connector-curvature="0"
         d="m 659,500 h 53 v 18 h -53 z"
         id="path20" />
    </clipPath>
    <clipPath
       id="clipPath14445">
      <path
         inkscape:connector-curvature="0"
         d="m 648,112 h 73 v 60 h -73 z"
         id="path23" />
    </clipPath>
    <clipPath
       id="clipPath14609">
      <path
         inkscape:connector-curvature="0"
         d="m 826,1056 h 59 v 60 h -59 z"
         id="path26" />
    </clipPath>
    <clipPath
       id="clipPath15305">
      <path
         inkscape:connector-curvature="0"
         d="M 805,276 H 905 V 376 H 805 Z"
         id="path29" />
    </clipPath>
    <clipPath
       id="clipPath15341">
      <path
         inkscape:connector-curvature="0"
         d="m 145,1063.8 h 74.152 v 45.21 H 145 Z"
         id="path32" />
    </clipPath>
    <clipPath
       id="clipPath15715">
      <path
         inkscape:connector-curvature="0"
         d="m 151,667 h 57 v 57 h -57 z"
         id="path35" />
    </clipPath>
    <clipPath
       id="clipPath15807">
      <path
         inkscape:connector-curvature="0"
         d="m 154,697 h 51 v 51 h -51 z"
         id="path38" />
    </clipPath>
    <clipPath
       id="clipPath16001">
      <path
         inkscape:connector-curvature="0"
         d="m 500.04,864.45 h 36.012 v 67.52 H 500.04 Z"
         id="path41" />
    </clipPath>
    <clipPath
       id="clipPath16093">
      <path
         inkscape:connector-curvature="0"
         d="m 836,870.54 h 47 v 55.539 h -47 z"
         id="path44" />
    </clipPath>
    <clipPath
       id="clipPath16477">
      <path
         inkscape:connector-curvature="0"
         d="m 318.03,702.35 h 62.848 v 37.991 H 318.03 Z"
         id="path47" />
    </clipPath>
    <clipPath
       id="clipPath16579">
      <path
         inkscape:connector-curvature="0"
         d="m 485.03,133.35 h 62.847 v 37.991 H 485.03 Z"
         id="path50" />
    </clipPath>
    <clipPath
       id="clipPath16709">
      <path
         inkscape:connector-curvature="0"
         d="m 493.37,677.93 h 45.643 v 68.067 H 493.37 Z"
         id="path53" />
    </clipPath>
    <clipPath
       id="clipPath24218">
      <path
         inkscape:connector-curvature="0"
         d="m 144.34,1018.2 h 71.467 v 78 H 144.34 Z"
         id="path56" />
    </clipPath>
    <clipPath
       id="clipPath24382">
      <path
         inkscape:connector-curvature="0"
         d="m 293.21,1068.6 66.323,-38.292 36.047,62.435 -66.323,38.292 z"
         id="path59" />
    </clipPath>
    <clipPath
       id="clipPath24650">
      <path
         inkscape:connector-curvature="0"
         d="m 488.86,1054.5 h 10 v 10.706 h -10 z"
         id="path62" />
    </clipPath>
    <clipPath
       id="clipPath24700">
      <path
         inkscape:connector-curvature="0"
         d="m 508,1066.8 h 10.001 v 10.705 H 508 Z"
         id="path65" />
    </clipPath>
    <clipPath
       id="clipPath24750">
      <path
         inkscape:connector-curvature="0"
         d="m 525,1045.8 h 10 v 10.706 h -10 z"
         id="path68" />
    </clipPath>
    <clipPath
       id="clipPath24864">
      <path
         inkscape:connector-curvature="0"
         d="m 836,1043.7 h 25.5 v 31.5 H 836 Z"
         id="path71" />
    </clipPath>
    <clipPath
       id="clipPath24896">
      <path
         inkscape:connector-curvature="0"
         d="m 838,1062.2 h 24 v 24 h -24 z"
         id="path74" />
    </clipPath>
    <clipPath
       id="clipPath25070">
      <path
         inkscape:connector-curvature="0"
         d="m 134,489.24 h 7 v 6 h -7 z"
         id="path77" />
    </clipPath>
    <clipPath
       id="clipPath25100">
      <path
         inkscape:connector-curvature="0"
         d="m 216,489.24 h 7 v 6 h -7 z"
         id="path80" />
    </clipPath>
    <clipPath
       id="clipPath25502">
      <path
         inkscape:connector-curvature="0"
         d="m 838,477.24 h 22 v 22 h -22 z"
         id="path83" />
    </clipPath>
    <clipPath
       id="clipPath25686">
      <path
         inkscape:connector-curvature="0"
         d="m 704,1061.2 h 25 v 25 h -25 z"
         id="path86" />
    </clipPath>
    <clipPath
       id="clipPath25788">
      <path
         inkscape:connector-curvature="0"
         d="m 663.04,1078.6 -1.808,-3.514 -21.07,-47.453 c 13.336,-18.439 48.336,-26.938 73.836,-3.439 0.842,0 6.476,6.246 6,7 l -18.386,25.895 c -0.483,0.765 -1.453,0.946 -2.177,0.431 l -15.505,-11.011 c -0.359,-0.255 -0.847,-0.153 -1.07,0.238 l -18.272,31.869 c -0.218,0.384 -0.502,0.578 -0.782,0.578 -0.282,0 -0.561,-0.197 -0.766,-0.594"
         id="path89" />
    </clipPath>
    <clipPath
       id="clipPath26420">
      <path
         inkscape:connector-curvature="0"
         d="m 127,820.24 h 100 v 100 H 127 Z"
         id="path92" />
    </clipPath>
    <clipPath
       id="clipPath26860">
      <path
         inkscape:connector-curvature="0"
         d="m 809,680.24 c 0,-22.092 17.908,-40 40,-40 22.092,0 40,17.908 40,40 0,22.091 -17.908,40 -40,40 -22.092,0 -40,-17.909 -40,-40"
         id="path95" />
    </clipPath>
    <clipPath
       id="clipPath27506">
      <path
         inkscape:connector-curvature="0"
         d="m 658,469.24 h 44 v 45 h -44 z"
         id="path98" />
    </clipPath>
    <clipPath
       id="clipPath27772">
      <path
         inkscape:connector-curvature="0"
         d="m 651,271.24 h 58 v 58 h -58 z"
         id="path101" />
    </clipPath>
    <clipPath
       id="clipPath27864">
      <path
         inkscape:connector-curvature="0"
         d="m 662,307.24 h 38 v 8 h -38 z"
         id="path104" />
    </clipPath>
    <clipPath
       id="clipPath28028">
      <path
         inkscape:connector-curvature="0"
         d="m 858.98,137.24 c 0.013,-0.101 0.021,-0.203 0.021,-0.307 v -6.693 h 15.75 c 1.237,0 2.25,-1.013 2.25,-2.25 v -11.25 l -27,-4.5 -27,4.5 v -2.25 l 27,-4.5 27,4.5 v -27 c 0,-1.237 -1.013,-2.25 -2.25,-2.25 h -49.5 c -1.237,0 -2.25,1.013 -2.25,2.25 v -4.25 h 54 v 54 z m -35.979,0 v -9.25 c 0,1.237 1.013,2.25 2.25,2.25 h 15.75 v 6.693 c 0,0.104 0.007,0.207 0.02,0.307 z m 22.5,-7 h 9 v 4.5 h -9 z m 1.125,-9 c -0.62,0 -1.125,-0.506 -1.125,-1.125 v -2.25 c 0,-0.619 0.505,-1.125 1.125,-1.125 h 6.75 c 0.619,0 1.125,0.506 1.125,1.125 v 2.25 c 0,0.619 -0.506,1.125 -1.125,1.125 z"
         id="path107" />
    </clipPath>
    <clipPath
       id="clipPath28200">
      <path
         inkscape:connector-curvature="0"
         d="m 531.27,136.24 c 6.325,-2.29 10.727,-8.277 10.727,-15.484 0,-11.316 -10.2,-20.563 -25.65,-34.575 l -4.35,-3.941 -4.35,3.941 c -15.45,14.012 -25.65,23.259 -25.65,34.575 V 81.24 h 60 v 55 z m -26.983,0 c 2.995,-1.052 5.686,-2.883 7.71,-5.25 2.024,2.367 4.715,4.198 7.71,5.25 z m -22.29,0 v -15.484 c 0,7.207 4.402,13.194 10.727,15.484 z"
         id="path110" />
    </clipPath>
    <clipPath
       id="clipPath28364">
      <path
         inkscape:connector-curvature="0"
         d="m 648,79.241 h 64 v 64 h -64 z"
         id="path113" />
    </clipPath>
    <clipPath
       id="clipPath28984">
      <path
         inkscape:connector-curvature="0"
         d="m 500,691.74 c 0,-3.037 2.463,-5.5 5.5,-5.5 3.037,0 5.5,2.463 5.5,5.5 0,3.037 -2.463,5.5 -5.5,5.5 -3.037,0 -5.5,-2.463 -5.5,-5.5"
         id="path116" />
    </clipPath>
    <clipPath
       id="clipPath29012">
      <path
         inkscape:connector-curvature="0"
         d="m 500,669.74 c 0,-3.037 2.463,-5.5 5.5,-5.5 3.037,0 5.5,2.463 5.5,5.5 0,3.038 -2.463,5.5 -5.5,5.5 -3.037,0 -5.5,-2.462 -5.5,-5.5"
         id="path119" />
    </clipPath>
    <clipPath
       id="clipPath29040">
      <path
         inkscape:connector-curvature="0"
         d="m 494,680.74 c 0,-3.037 2.462,-5.5 5.5,-5.5 3.038,0 5.5,2.463 5.5,5.5 0,3.038 -2.462,5.5 -5.5,5.5 -3.038,0 -5.5,-2.462 -5.5,-5.5"
         id="path122" />
    </clipPath>
    <clipPath
       id="clipPath29068">
      <path
         inkscape:connector-curvature="0"
         d="m 513,691.74 c 0,-3.037 2.463,-5.5 5.5,-5.5 3.037,0 5.5,2.463 5.5,5.5 0,3.037 -2.463,5.5 -5.5,5.5 -3.037,0 -5.5,-2.463 -5.5,-5.5"
         id="path125" />
    </clipPath>
    <clipPath
       id="clipPath29096">
      <path
         inkscape:connector-curvature="0"
         d="m 513,669.74 c 0,-3.037 2.463,-5.5 5.5,-5.5 3.037,0 5.5,2.463 5.5,5.5 0,3.038 -2.463,5.5 -5.5,5.5 -3.037,0 -5.5,-2.462 -5.5,-5.5"
         id="path128" />
    </clipPath>
    <clipPath
       id="clipPath29124">
      <path
         inkscape:connector-curvature="0"
         d="m 507,680.74 c 0,-3.037 2.463,-5.5 5.5,-5.5 3.037,0 5.5,2.463 5.5,5.5 0,3.038 -2.463,5.5 -5.5,5.5 -3.037,0 -5.5,-2.462 -5.5,-5.5"
         id="path131" />
    </clipPath>
    <clipPath
       id="clipPath29152">
      <path
         inkscape:connector-curvature="0"
         d="m 520,680.74 c 0,-3.037 2.463,-5.5 5.5,-5.5 3.037,0 5.5,2.463 5.5,5.5 0,3.038 -2.463,5.5 -5.5,5.5 -3.037,0 -5.5,-2.462 -5.5,-5.5"
         id="path134" />
    </clipPath>
    <clipPath
       id="clipPath29252">
      <path
         inkscape:connector-curvature="0"
         d="m 321,322.24 c -4.97,0 -9,-4.029 -9,-9 0,-4.97 4.03,-9 9,-9 h 45 c 4.971,0 9,4.03 9,9 0,4.971 -4.029,9 -9,9 z"
         id="path137" />
    </clipPath>
    <clipPath
       id="clipPath29280">
      <path
         inkscape:connector-curvature="0"
         d="m 322,297.24 c -4.971,0 -9,-4.029 -9,-9 0,-4.97 4.029,-9 9,-9 h 45 c 4.971,0 9,4.03 9,9 0,4.971 -4.029,9 -9,9 z"
         id="path140" />
    </clipPath>
    <clipPath
       id="clipPath29400">
      <path
         inkscape:connector-curvature="0"
         d="m 155,83.24 h 44 v 53 h -44 z"
         id="path143" />
    </clipPath>
    <clipPath
       id="clipPath13429-3">
      <path
         inkscape:connector-curvature="0"
         d="m 481,318 h 22 v 22 h -22 z"
         id="path2-5" />
    </clipPath>
    <clipPath
       id="clipPath13465-6">
      <path
         inkscape:connector-curvature="0"
         d="m 507,318 h 22 v 22 h -22 z"
         id="path5-2" />
    </clipPath>
    <clipPath
       id="clipPath13501-9">
      <path
         inkscape:connector-curvature="0"
         d="m 530,318 h 22 v 22 h -22 z"
         id="path8-1" />
    </clipPath>
    <clipPath
       id="clipPath13753-2">
      <path
         inkscape:connector-curvature="0"
         d="m 672,1064 c 0,-1.105 4.925,-2 11,-2 6.075,0 11,0.895 11,2 0,1.105 -4.925,2 -11,2 -6.075,0 -11,-0.895 -11,-2"
         id="path11-7" />
    </clipPath>
    <clipPath
       id="clipPath13771-0">
      <path
         inkscape:connector-curvature="0"
         d="m 660,1057 h 51 v 65.001 h -51 z"
         id="path14-9" />
    </clipPath>
    <clipPath
       id="clipPath14035-3">
      <path
         inkscape:connector-curvature="0"
         d="m 659,517 h 53 v 18 h -53 z"
         id="path17-6" />
    </clipPath>
    <clipPath
       id="clipPath14127-0">
      <path
         inkscape:connector-curvature="0"
         d="m 659,500 h 53 v 18 h -53 z"
         id="path20-6" />
    </clipPath>
    <clipPath
       id="clipPath14445-2">
      <path
         inkscape:connector-curvature="0"
         d="m 648,112 h 73 v 60 h -73 z"
         id="path23-6" />
    </clipPath>
    <clipPath
       id="clipPath14609-1">
      <path
         inkscape:connector-curvature="0"
         d="m 826,1056 h 59 v 60 h -59 z"
         id="path26-8" />
    </clipPath>
    <clipPath
       id="clipPath15305-7">
      <path
         inkscape:connector-curvature="0"
         d="M 805,276 H 905 V 376 H 805 Z"
         id="path29-9" />
    </clipPath>
    <clipPath
       id="clipPath15341-2">
      <path
         inkscape:connector-curvature="0"
         d="m 145,1063.8 h 74.152 v 45.21 H 145 Z"
         id="path32-0" />
    </clipPath>
    <clipPath
       id="clipPath15715-2">
      <path
         inkscape:connector-curvature="0"
         d="m 151,667 h 57 v 57 h -57 z"
         id="path35-3" />
    </clipPath>
    <clipPath
       id="clipPath15807-7">
      <path
         inkscape:connector-curvature="0"
         d="m 154,697 h 51 v 51 h -51 z"
         id="path38-5" />
    </clipPath>
    <clipPath
       id="clipPath16001-9">
      <path
         inkscape:connector-curvature="0"
         d="m 500.04,864.45 h 36.012 v 67.52 H 500.04 Z"
         id="path41-2" />
    </clipPath>
    <clipPath
       id="clipPath16093-2">
      <path
         inkscape:connector-curvature="0"
         d="m 836,870.54 h 47 v 55.539 h -47 z"
         id="path44-8" />
    </clipPath>
    <clipPath
       id="clipPath16477-9">
      <path
         inkscape:connector-curvature="0"
         d="m 318.03,702.35 h 62.848 v 37.991 H 318.03 Z"
         id="path47-7" />
    </clipPath>
    <clipPath
       id="clipPath16579-3">
      <path
         inkscape:connector-curvature="0"
         d="m 485.03,133.35 h 62.847 v 37.991 H 485.03 Z"
         id="path50-6" />
    </clipPath>
    <clipPath
       id="clipPath16709-1">
      <path
         inkscape:connector-curvature="0"
         d="m 493.37,677.93 h 45.643 v 68.067 H 493.37 Z"
         id="path53-2" />
    </clipPath>
    <clipPath
       id="clipPath24218-9">
      <path
         inkscape:connector-curvature="0"
         d="m 144.34,1018.2 h 71.467 v 78 H 144.34 Z"
         id="path56-3" />
    </clipPath>
    <clipPath
       id="clipPath24382-1">
      <path
         inkscape:connector-curvature="0"
         d="m 293.21,1068.6 66.323,-38.292 36.047,62.435 -66.323,38.292 z"
         id="path59-9" />
    </clipPath>
    <clipPath
       id="clipPath24650-4">
      <path
         inkscape:connector-curvature="0"
         d="m 488.86,1054.5 h 10 v 10.706 h -10 z"
         id="path62-7" />
    </clipPath>
    <clipPath
       id="clipPath24700-8">
      <path
         inkscape:connector-curvature="0"
         d="m 508,1066.8 h 10.001 v 10.705 H 508 Z"
         id="path65-4" />
    </clipPath>
    <clipPath
       id="clipPath24750-5">
      <path
         inkscape:connector-curvature="0"
         d="m 525,1045.8 h 10 v 10.706 h -10 z"
         id="path68-0" />
    </clipPath>
    <clipPath
       id="clipPath24864-3">
      <path
         inkscape:connector-curvature="0"
         d="m 836,1043.7 h 25.5 v 31.5 H 836 Z"
         id="path71-6" />
    </clipPath>
    <clipPath
       id="clipPath24896-1">
      <path
         inkscape:connector-curvature="0"
         d="m 838,1062.2 h 24 v 24 h -24 z"
         id="path74-0" />
    </clipPath>
    <clipPath
       id="clipPath25070-6">
      <path
         inkscape:connector-curvature="0"
         d="m 134,489.24 h 7 v 6 h -7 z"
         id="path77-3" />
    </clipPath>
    <clipPath
       id="clipPath25100-2">
      <path
         inkscape:connector-curvature="0"
         d="m 216,489.24 h 7 v 6 h -7 z"
         id="path80-0" />
    </clipPath>
    <clipPath
       id="clipPath25502-6">
      <path
         inkscape:connector-curvature="0"
         d="m 838,477.24 h 22 v 22 h -22 z"
         id="path83-1" />
    </clipPath>
    <clipPath
       id="clipPath25686-5">
      <path
         inkscape:connector-curvature="0"
         d="m 704,1061.2 h 25 v 25 h -25 z"
         id="path86-5" />
    </clipPath>
    <clipPath
       id="clipPath25788-4">
      <path
         inkscape:connector-curvature="0"
         d="m 663.04,1078.6 -1.808,-3.514 -21.07,-47.453 c 13.336,-18.439 48.336,-26.938 73.836,-3.439 0.842,0 6.476,6.246 6,7 l -18.386,25.895 c -0.483,0.765 -1.453,0.946 -2.177,0.431 l -15.505,-11.011 c -0.359,-0.255 -0.847,-0.153 -1.07,0.238 l -18.272,31.869 c -0.218,0.384 -0.502,0.578 -0.782,0.578 -0.282,0 -0.561,-0.197 -0.766,-0.594"
         id="path89-7" />
    </clipPath>
    <clipPath
       id="clipPath26420-6">
      <path
         inkscape:connector-curvature="0"
         d="m 127,820.24 h 100 v 100 H 127 Z"
         id="path92-5" />
    </clipPath>
    <clipPath
       id="clipPath26860-6">
      <path
         inkscape:connector-curvature="0"
         d="m 809,680.24 c 0,-22.092 17.908,-40 40,-40 22.092,0 40,17.908 40,40 0,22.091 -17.908,40 -40,40 -22.092,0 -40,-17.909 -40,-40"
         id="path95-9" />
    </clipPath>
    <clipPath
       id="clipPath27506-3">
      <path
         inkscape:connector-curvature="0"
         d="m 658,469.24 h 44 v 45 h -44 z"
         id="path98-7" />
    </clipPath>
    <clipPath
       id="clipPath27772-4">
      <path
         inkscape:connector-curvature="0"
         d="m 651,271.24 h 58 v 58 h -58 z"
         id="path101-5" />
    </clipPath>
    <clipPath
       id="clipPath27864-2">
      <path
         inkscape:connector-curvature="0"
         d="m 662,307.24 h 38 v 8 h -38 z"
         id="path104-5" />
    </clipPath>
    <clipPath
       id="clipPath28028-4">
      <path
         inkscape:connector-curvature="0"
         d="m 858.98,137.24 c 0.013,-0.101 0.021,-0.203 0.021,-0.307 v -6.693 h 15.75 c 1.237,0 2.25,-1.013 2.25,-2.25 v -11.25 l -27,-4.5 -27,4.5 v -2.25 l 27,-4.5 27,4.5 v -27 c 0,-1.237 -1.013,-2.25 -2.25,-2.25 h -49.5 c -1.237,0 -2.25,1.013 -2.25,2.25 v -4.25 h 54 v 54 z m -35.979,0 v -9.25 c 0,1.237 1.013,2.25 2.25,2.25 h 15.75 v 6.693 c 0,0.104 0.007,0.207 0.02,0.307 z m 22.5,-7 h 9 v 4.5 h -9 z m 1.125,-9 c -0.62,0 -1.125,-0.506 -1.125,-1.125 v -2.25 c 0,-0.619 0.505,-1.125 1.125,-1.125 h 6.75 c 0.619,0 1.125,0.506 1.125,1.125 v 2.25 c 0,0.619 -0.506,1.125 -1.125,1.125 z"
         id="path107-7" />
    </clipPath>
    <clipPath
       id="clipPath28200-4">
      <path
         inkscape:connector-curvature="0"
         d="m 531.27,136.24 c 6.325,-2.29 10.727,-8.277 10.727,-15.484 0,-11.316 -10.2,-20.563 -25.65,-34.575 l -4.35,-3.941 -4.35,3.941 c -15.45,14.012 -25.65,23.259 -25.65,34.575 V 81.24 h 60 v 55 z m -26.983,0 c 2.995,-1.052 5.686,-2.883 7.71,-5.25 2.024,2.367 4.715,4.198 7.71,5.25 z m -22.29,0 v -15.484 c 0,7.207 4.402,13.194 10.727,15.484 z"
         id="path110-4" />
    </clipPath>
    <clipPath
       id="clipPath28364-3">
      <path
         inkscape:connector-curvature="0"
         d="m 648,79.241 h 64 v 64 h -64 z"
         id="path113-0" />
    </clipPath>
    <clipPath
       id="clipPath28984-7">
      <path
         inkscape:connector-curvature="0"
         d="m 500,691.74 c 0,-3.037 2.463,-5.5 5.5,-5.5 3.037,0 5.5,2.463 5.5,5.5 0,3.037 -2.463,5.5 -5.5,5.5 -3.037,0 -5.5,-2.463 -5.5,-5.5"
         id="path116-8" />
    </clipPath>
    <clipPath
       id="clipPath29012-6">
      <path
         inkscape:connector-curvature="0"
         d="m 500,669.74 c 0,-3.037 2.463,-5.5 5.5,-5.5 3.037,0 5.5,2.463 5.5,5.5 0,3.038 -2.463,5.5 -5.5,5.5 -3.037,0 -5.5,-2.462 -5.5,-5.5"
         id="path119-8" />
    </clipPath>
    <clipPath
       id="clipPath29040-8">
      <path
         inkscape:connector-curvature="0"
         d="m 494,680.74 c 0,-3.037 2.462,-5.5 5.5,-5.5 3.038,0 5.5,2.463 5.5,5.5 0,3.038 -2.462,5.5 -5.5,5.5 -3.038,0 -5.5,-2.462 -5.5,-5.5"
         id="path122-4" />
    </clipPath>
    <clipPath
       id="clipPath29068-3">
      <path
         inkscape:connector-curvature="0"
         d="m 513,691.74 c 0,-3.037 2.463,-5.5 5.5,-5.5 3.037,0 5.5,2.463 5.5,5.5 0,3.037 -2.463,5.5 -5.5,5.5 -3.037,0 -5.5,-2.463 -5.5,-5.5"
         id="path125-1" />
    </clipPath>
    <clipPath
       id="clipPath29096-4">
      <path
         inkscape:connector-curvature="0"
         d="m 513,669.74 c 0,-3.037 2.463,-5.5 5.5,-5.5 3.037,0 5.5,2.463 5.5,5.5 0,3.038 -2.463,5.5 -5.5,5.5 -3.037,0 -5.5,-2.462 -5.5,-5.5"
         id="path128-9" />
    </clipPath>
    <clipPath
       id="clipPath29124-2">
      <path
         inkscape:connector-curvature="0"
         d="m 507,680.74 c 0,-3.037 2.463,-5.5 5.5,-5.5 3.037,0 5.5,2.463 5.5,5.5 0,3.038 -2.463,5.5 -5.5,5.5 -3.037,0 -5.5,-2.462 -5.5,-5.5"
         id="path131-0" />
    </clipPath>
    <clipPath
       id="clipPath29152-6">
      <path
         inkscape:connector-curvature="0"
         d="m 520,680.74 c 0,-3.037 2.463,-5.5 5.5,-5.5 3.037,0 5.5,2.463 5.5,5.5 0,3.038 -2.463,5.5 -5.5,5.5 -3.037,0 -5.5,-2.462 -5.5,-5.5"
         id="path134-8" />
    </clipPath>
    <clipPath
       id="clipPath29252-9">
      <path
         inkscape:connector-curvature="0"
         d="m 321,322.24 c -4.97,0 -9,-4.029 -9,-9 0,-4.97 4.03,-9 9,-9 h 45 c 4.971,0 9,4.03 9,9 0,4.971 -4.029,9 -9,9 z"
         id="path137-2" />
    </clipPath>
    <clipPath
       id="clipPath29280-6">
      <path
         inkscape:connector-curvature="0"
         d="m 322,297.24 c -4.971,0 -9,-4.029 -9,-9 0,-4.97 4.029,-9 9,-9 h 45 c 4.971,0 9,4.03 9,9 0,4.971 -4.029,9 -9,9 z"
         id="path140-6" />
    </clipPath>
    <clipPath
       id="clipPath29400-4">
      <path
         inkscape:connector-curvature="0"
         d="m 155,83.24 h 44 v 53 h -44 z"
         id="path143-9" />
    </clipPath>
  </defs>
  <sodipodi:namedview
     id="base"
     pagecolor="#ffffff"
     bordercolor="#666666"
     borderopacity="1.0"
     inkscape:pageopacity="0.0"
     inkscape:pageshadow="2"
     inkscape:zoom="5.6"
     inkscape:cx="8.0033233"
     inkscape:cy="19.32816"
     inkscape:document-units="px"
     inkscape:current-layer="layer1"
     showgrid="false"
     inkscape:window-width="1280"
     inkscape:window-height="954"
     inkscape:window-x="0"
     inkscape:window-y="0"
     inkscape:window-maximized="1"
     units="px" />
  <metadata
     id="metadata5">
    <rdf:RDF>
      <cc:Work
         rdf:about="">
        <dc:format>image/svg+xml</dc:format>
        <dc:type
           rdf:resource="http://purl.org/dc/dcmitype/StillImage" />
        <dc:title></dc:title>
      </cc:Work>
    </rdf:RDF>
  </metadata>
  <g
     inkscape:label="Layer 1"
     inkscape:groupmode="layer"
     id="layer1"
     transform="translate(0,-284.29999)">
    <ellipse
       ry="3.0878756"
       rx="6.2555065"
       cy="294.26202"
       cx="6.3783484"
       id="path1538"
       style="color:#000000;display:inline;overflow:visible;visibility:visible;fill:url(#radialGradient2308);fill-opacity:1;fill-rule:evenodd;stroke:none;stroke-width:0.15694831;stroke-linecap:round;stroke-linejoin:miter;stroke-miterlimit:4;stroke-dashoffset:0;stroke-opacity:1;marker:none;marker-start:none;marker-mid:none;marker-end:none" />
    <path
       inkscape:connector-curvature="0"
       style="fill:url(#linearGradient53551);fill-rule:nonzero;stroke:#3c82bc;stroke-width:0.26458332;stroke-linecap:round;stroke-linejoin:round;stroke-miterlimit:4;stroke-opacity:1"
       d="m 6.3594731,295.60113 -5.268017,-5.26802 5.268017,-5.26801 5.2680169,5.26801 z"
       id="path53304" />
    <path
       inkscape:connector-curvature="0"
       sodipodi:nodetypes="ccccccc"
       style="opacity:0.72000002;fill:#ffffff;fill-rule:nonzero;stroke:none;stroke-width:0.26458332;stroke-miterlimit:4"
       d="m 11.444569,290.33311 -5.0850962,-5.08509 -5.0850961,5.08509 0.2066574,0.16535 4.9237986,-4.87578 5.0397883,4.71043 z"
       id="path53359" />
    <path
       inkscape:connector-curvature="0"
       style="opacity:0.5;fill:#ffffff;fill-rule:nonzero;stroke:none;stroke-width:0.26458332;stroke-miterlimit:4"
       d="m 2.2954654,291.35425 0.1953815,-0.27098 c 0.1684732,0.071 0.3441219,0.12834 0.5255109,0.17063 l -0.00153,0.41721 c 0.1131697,0.0234 0.228338,0.0413 0.3450444,0.0541 l 0.1274694,-0.39737 c 0.091028,0.008 0.1830292,0.0117 0.2760559,0.0117 0.092924,0 0.1849766,-0.004 0.2760043,-0.0117 l 0.1274697,0.39737 c 0.1167574,-0.0128 0.2318745,-0.0307 0.3450442,-0.0541 l -0.00159,-0.41726 c 0.1814401,-0.0422 0.3570374,-0.0995 0.5255106,-0.17058 l 0.2440729,0.33854 c 0.1064553,-0.0482 0.2101429,-0.10123 0.3108576,-0.15889 l -0.1303912,-0.39635 c 0.1580171,-0.0958 0.3073726,-0.20461 0.4464767,-0.3249 l 0.3365873,0.24653 c 0.086158,-0.0785 0.1686267,-0.16094 0.2470457,-0.2471 l -0.2464818,-0.33653 c 0.1203449,-0.13911 0.2291069,-0.28841 0.3249522,-0.44653 l 0.3963498,0.13044 c 0.057657,-0.10076 0.1107562,-0.2045 0.1588326,-0.31091 l -0.3384836,-0.24402 c 0.071039,-0.16847 0.1283409,-0.34412 0.1706771,-0.52556 l 0.4171588,0.002 c 0.023373,-0.11317 0.041311,-0.22833 0.054022,-0.34509 l -0.3973235,-0.12747 c 0.00764,-0.091 0.011687,-0.18303 0.011687,-0.27601 0,-0.093 -0.00415,-0.18497 -0.011687,-0.27605 l 0.3973235,-0.12747 c -0.012659,-0.1167 -0.030702,-0.23182 -0.053971,-0.34504 l -0.4172614,0.002 c -0.042285,-0.18144 -0.099587,-0.35709 -0.1705745,-0.52551 l 0.3384836,-0.24403 c -0.048078,-0.10733 -0.1012289,-0.21102 -0.1587874,-0.31179 l -0.3964012,0.13045 c -0.095846,-0.15807 -0.2046073,-0.30738 -0.3249011,-0.44643 l 0.2464821,-0.33659 c -0.073653,-0.0809 -0.1510977,-0.15822 -0.2316184,-0.23233 l -4.9844839,4.98453 0.26642,0.26642 0.079034,-0.0579 c 0.1391042,0.12029 0.2884081,0.22905 0.4464763,0.3249 l -0.064017,0.19451 0.2931748,0.29317 z"
       id="path53361" />
    <path
       inkscape:connector-curvature="0"
       style="opacity:0.5;fill:#ffffff;fill-rule:nonzero;stroke:none;stroke-width:0.26458332;stroke-miterlimit:4"
       d="m 7.4609795,292.68933 c 0,-1.71574 1.1202149,-3.16957 2.6689155,-3.67084 l -0.5892196,-0.58927 c -0.00446,0.002 -0.00897,0.003 -0.013377,0.005 l -0.048025,-0.0666 -0.3735927,-0.37359 c -0.1225492,0.0579 -0.2425356,0.12024 -0.3596518,0.18723 l 0.1836444,0.55806 c -0.2225977,0.13485 -0.4327917,0.28805 -0.6285831,0.45739 l -0.4738985,-0.34674 c -0.12137,0.11045 -0.2374099,0.22649 -0.3478118,0.34781 l 0.3469918,0.47385 c -0.1693442,0.19584 -0.3224921,0.40603 -0.4573934,0.62858 l -0.5581086,-0.18365 c -0.081136,0.14193 -0.1558642,0.28795 -0.2235714,0.43782 l 0.4765628,0.34351 c -0.099997,0.23715 -0.1806713,0.48445 -0.2401777,0.7399 l -0.5873747,-0.002 c -0.032854,0.15935 -0.058174,0.32152 -0.076061,0.48579 l 0.5594411,0.1795 c -0.01066,0.12813 -0.016402,0.2577 -0.016402,0.38855 0,0.13091 0.00574,0.26048 0.016402,0.38861 l -0.5594411,0.17934 c 0.017889,0.16438 0.043208,0.32649 0.076113,0.48584 l 0.5873234,-0.002 c 0.059506,0.25545 0.1401805,0.50275 0.2401777,0.73991 l -0.4765628,0.34355 c 0.037672,0.0833 0.077753,0.16535 0.1196277,0.24618 l 1.0064811,-1.00638 c -0.1629887,-0.4271 -0.2524787,-0.89055 -0.2524787,-1.37485 z"
       id="path53363" />
    <path
       inkscape:connector-curvature="0"
       sodipodi:nodetypes="ccccccc"
       style="opacity:0.35;fill:#000000;fill-rule:nonzero;stroke:none;stroke-width:0.26458332;stroke-miterlimit:4"
       d="m 1.3110235,290.36976 5.0484493,5.04845 5.0850962,-5.0851 -0.189203,-0.1805 -4.8894075,4.87843 -5.054935,-4.66133 z"
       id="path53365" />
  </g>
</svg>
