<?xml version="1.0" encoding="UTF-8" standalone="no"?>
<svg
   xmlns:dc="http://purl.org/dc/elements/1.1/"
   xmlns:cc="http://creativecommons.org/ns#"
   xmlns:rdf="http://www.w3.org/1999/02/22-rdf-syntax-ns#"
   xmlns:svg="http://www.w3.org/2000/svg"
   xmlns="http://www.w3.org/2000/svg"
   xmlns:sodipodi="http://sodipodi.sourceforge.net/DTD/sodipodi-0.dtd"
   xmlns:inkscape="http://www.inkscape.org/namespaces/inkscape"
   width="48"
   height="48"
   viewBox="0 0 48 48"
   version="1.1"
   id="svg27"
   sodipodi:docname="applications-engineering.svg"
   inkscape:version="0.92.4 (5da689c313, 2019-01-14)">
  <metadata
     id="metadata33">
    <rdf:RDF>
      <cc:Work
         rdf:about="">
        <dc:format>image/svg+xml</dc:format>
        <dc:type
           rdf:resource="http://purl.org/dc/dcmitype/StillImage" />
        <dc:title></dc:title>
      </cc:Work>
    </rdf:RDF>
  </metadata>
  <defs
     id="defs31" />
  <sodipodi:namedview
     pagecolor="#ffffff"
     bordercolor="#666666"
     borderopacity="1"
     objecttolerance="10"
     gridtolerance="10"
     guidetolerance="10"
     inkscape:pageopacity="0"
     inkscape:pageshadow="2"
     inkscape:window-width="1280"
     inkscape:window-height="954"
     id="namedview29"
     showgrid="false"
     inkscape:zoom="3.6875"
     inkscape:cx="27.254237"
     inkscape:cy="32"
     inkscape:window-x="0"
     inkscape:window-y="0"
     inkscape:window-maximized="1"
     inkscape:current-layer="svg27" />
  <g
     id="surface1"
     transform="matrix(0.74377231,0,0,0.74377231,0.38522916,0.013343)">
    <path
       style="fill:#5c68bf;fill-opacity:1;fill-rule:nonzero;stroke:none"
       d="m 5.292969,3.144531 h 52.914062 c 1.460938,0 2.648438,1.1875 2.648438,2.648438 v 52.914062 c 0,1.460938 -1.1875,2.648438 -2.648438,2.648438 H 5.292969 c -1.460938,0 -2.648438,-1.1875 -2.648438,-2.648438 V 5.792969 c 0,-1.460938 1.1875,-2.648438 2.648438,-2.648438 z m 0,0"
       id="path2"
       inkscape:connector-curvature="0" />
    <path
       style="fill:#9ea6d9;fill-opacity:1;fill-rule:nonzero;stroke:none"
       d="m 7.9375,8.1875 v 0.25 h -0.25 v 47.625 h 0.25 v 0.25 h 47.625 v -0.25 h 0.25 V 8.4375 h -0.25 v -0.25 z m 0.25,0.5 h 2.144531 v 2.144531 H 8.1875 Z m 2.644531,0 h 2.148438 v 2.144531 h -2.148438 z m 2.648438,0 H 15.625 v 2.144531 h -2.144531 z m 2.644531,0 h 2.144531 v 2.144531 H 16.125 Z m 2.644531,0 h 2.148438 v 2.144531 h -2.148438 z m 2.648438,0 H 23.5625 v 2.144531 h -2.144531 z m 2.644531,0 h 2.144531 v 2.144531 H 24.0625 Z m 2.644531,0 h 2.148438 v 2.144531 h -2.148438 z m 2.648438,0 H 31.5 v 2.144531 H 29.355469 Z M 32,8.6875 h 2.144531 v 2.144531 H 32 Z m 2.644531,0 h 2.148438 v 2.144531 h -2.148438 z m 2.648438,0 H 39.4375 v 2.144531 h -2.144531 z m 2.644531,0 h 2.144531 v 2.144531 H 39.9375 Z m 2.644531,0 h 2.148438 v 2.144531 h -2.148438 z m 2.648438,0 H 47.375 v 2.144531 h -2.144531 z m 2.644531,0 h 2.144531 v 2.144531 H 47.875 Z m 2.644531,0 h 2.148438 v 2.144531 h -2.148438 z m 2.648438,0 H 55.3125 v 2.144531 H 53.167969 Z M 8.1875,11.332031 h 2.144531 v 2.148438 H 8.1875 Z m 2.644531,0 h 2.148438 v 2.148438 h -2.148438 z m 2.648438,0 H 15.625 v 2.148438 h -2.144531 z m 2.644531,0 h 2.144531 v 2.148438 H 16.125 Z m 2.644531,0 h 2.148438 v 2.148438 h -2.148438 z m 2.648438,0 H 23.5625 v 2.148438 h -2.144531 z m 2.644531,0 h 2.144531 v 2.148438 H 24.0625 Z m 2.644531,0 h 2.148438 v 2.148438 h -2.148438 z m 2.648438,0 H 31.5 v 2.148438 h -2.144531 z m 2.644531,0 h 2.144531 v 2.148438 H 32 Z m 2.644531,0 h 2.148438 v 2.148438 h -2.148438 z m 2.648438,0 H 39.4375 v 2.148438 h -2.144531 z m 2.644531,0 h 2.144531 v 2.148438 H 39.9375 Z m 2.644531,0 h 2.148438 v 2.148438 h -2.148438 z m 2.648438,0 H 47.375 v 2.148438 h -2.144531 z m 2.644531,0 h 2.144531 v 2.148438 H 47.875 Z m 2.644531,0 h 2.148438 v 2.148438 h -2.148438 z m 2.648438,0 H 55.3125 v 2.148438 H 53.167969 Z M 8.1875,13.980469 h 2.144531 V 16.125 H 8.1875 Z m 2.644531,0 h 2.148438 V 16.125 h -2.148438 z m 2.648438,0 H 15.625 V 16.125 h -2.144531 z m 2.644531,0 h 2.144531 V 16.125 H 16.125 Z m 2.644531,0 h 2.148438 V 16.125 h -2.148438 z m 2.648438,0 H 23.5625 V 16.125 h -2.144531 z m 2.644531,0 h 2.144531 V 16.125 H 24.0625 Z m 2.644531,0 h 2.148438 V 16.125 h -2.148438 z m 2.648438,0 H 31.5 V 16.125 h -2.144531 z m 2.644531,0 h 2.144531 V 16.125 H 32 Z m 2.644531,0 h 2.148438 V 16.125 h -2.148438 z m 2.648438,0 H 39.4375 V 16.125 h -2.144531 z m 2.644531,0 h 2.144531 V 16.125 H 39.9375 Z m 2.644531,0 h 2.148438 V 16.125 h -2.148438 z m 2.648438,0 H 47.375 V 16.125 h -2.144531 z m 2.644531,0 h 2.144531 V 16.125 H 47.875 Z m 2.644531,0 h 2.148438 V 16.125 h -2.148438 z m 2.648438,0 H 55.3125 V 16.125 H 53.167969 Z M 8.1875,16.625 h 2.144531 v 2.144531 H 8.1875 Z m 2.644531,0 h 2.148438 v 2.144531 h -2.148438 z m 2.648438,0 H 15.625 v 2.144531 h -2.144531 z m 2.644531,0 h 2.144531 v 2.144531 H 16.125 Z m 2.644531,0 h 2.148438 v 2.144531 h -2.148438 z m 2.648438,0 H 23.5625 v 2.144531 h -2.144531 z m 2.644531,0 h 2.144531 v 2.144531 H 24.0625 Z m 2.644531,0 h 2.148438 v 2.144531 h -2.148438 z m 2.648438,0 H 31.5 v 2.144531 H 29.355469 Z M 32,16.625 h 2.144531 v 2.144531 H 32 Z m 2.644531,0 h 2.148438 v 2.144531 h -2.148438 z m 2.648438,0 H 39.4375 v 2.144531 h -2.144531 z m 2.644531,0 h 2.144531 v 2.144531 H 39.9375 Z m 2.644531,0 h 2.148438 v 2.144531 h -2.148438 z m 2.648438,0 H 47.375 v 2.144531 h -2.144531 z m 2.644531,0 h 2.144531 v 2.144531 H 47.875 Z m 2.644531,0 h 2.148438 v 2.144531 h -2.148438 z m 2.648438,0 H 55.3125 v 2.144531 H 53.167969 Z M 8.1875,19.269531 h 2.144531 v 2.148438 H 8.1875 Z m 2.644531,0 h 2.148438 v 2.148438 h -2.148438 z m 2.648438,0 H 15.625 v 2.148438 h -2.144531 z m 2.644531,0 h 2.144531 v 2.148438 H 16.125 Z m 2.644531,0 h 2.148438 v 2.148438 h -2.148438 z m 2.648438,0 H 23.5625 v 2.148438 h -2.144531 z m 2.644531,0 h 2.144531 v 2.148438 H 24.0625 Z m 2.644531,0 h 2.148438 v 2.148438 h -2.148438 z m 2.648438,0 H 31.5 v 2.148438 h -2.144531 z m 2.644531,0 h 2.144531 v 2.148438 H 32 Z m 2.644531,0 h 2.148438 v 2.148438 h -2.148438 z m 2.648438,0 H 39.4375 v 2.148438 h -2.144531 z m 2.644531,0 h 2.144531 v 2.148438 H 39.9375 Z m 2.644531,0 h 2.148438 v 2.148438 h -2.148438 z m 2.648438,0 H 47.375 v 2.148438 h -2.144531 z m 2.644531,0 h 2.144531 v 2.148438 H 47.875 Z m 2.644531,0 h 2.148438 v 2.148438 h -2.148438 z m 2.648438,0 H 55.3125 v 2.148438 H 53.167969 Z M 8.1875,21.917969 h 2.144531 V 24.0625 H 8.1875 Z m 2.644531,0 h 2.148438 V 24.0625 h -2.148438 z m 2.648438,0 H 15.625 V 24.0625 h -2.144531 z m 2.644531,0 h 2.144531 V 24.0625 H 16.125 Z m 2.644531,0 h 2.148438 V 24.0625 h -2.148438 z m 2.648438,0 H 23.5625 V 24.0625 h -2.144531 z m 2.644531,0 h 2.144531 V 24.0625 H 24.0625 Z m 2.644531,0 h 2.148438 V 24.0625 h -2.148438 z m 2.648438,0 H 31.5 V 24.0625 h -2.144531 z m 2.644531,0 h 2.144531 V 24.0625 H 32 Z m 2.644531,0 h 2.148438 V 24.0625 h -2.148438 z m 2.648438,0 H 39.4375 V 24.0625 h -2.144531 z m 2.644531,0 h 2.144531 V 24.0625 H 39.9375 Z m 2.644531,0 h 2.148438 V 24.0625 h -2.148438 z m 2.648438,0 H 47.375 V 24.0625 h -2.144531 z m 2.644531,0 h 2.144531 V 24.0625 H 47.875 Z m 2.644531,0 h 2.148438 V 24.0625 h -2.148438 z m 2.648438,0 H 55.3125 V 24.0625 H 53.167969 Z M 8.1875,24.5625 h 2.144531 v 2.144531 H 8.1875 Z m 2.644531,0 h 2.148438 v 2.144531 h -2.148438 z m 2.648438,0 H 15.625 v 2.144531 h -2.144531 z m 2.644531,0 h 2.144531 v 2.144531 H 16.125 Z m 2.644531,0 h 2.148438 v 2.144531 h -2.148438 z m 2.648438,0 H 23.5625 v 2.144531 h -2.144531 z m 2.644531,0 h 2.144531 v 2.144531 H 24.0625 Z m 2.644531,0 h 2.148438 v 2.144531 h -2.148438 z m 2.648438,0 H 31.5 v 2.144531 h -2.144531 z m 2.644531,0 h 2.144531 v 2.144531 H 32 Z m 2.644531,0 h 2.148438 v 2.144531 h -2.148438 z m 2.648438,0 H 39.4375 v 2.144531 h -2.144531 z m 2.644531,0 h 2.144531 v 2.144531 H 39.9375 Z m 2.644531,0 h 2.148438 v 2.144531 h -2.148438 z m 2.648438,0 H 47.375 v 2.144531 h -2.144531 z m 2.644531,0 h 2.144531 v 2.144531 H 47.875 Z m 2.644531,0 h 2.148438 v 2.144531 h -2.148438 z m 2.648438,0 H 55.3125 v 2.144531 H 53.167969 Z M 8.1875,27.207031 h 2.144531 v 2.148438 H 8.1875 Z m 2.644531,0 h 2.148438 v 2.148438 h -2.148438 z m 2.648438,0 H 15.625 v 2.148438 h -2.144531 z m 2.644531,0 h 2.144531 v 2.148438 H 16.125 Z m 2.644531,0 h 2.148438 v 2.148438 h -2.148438 z m 2.648438,0 H 23.5625 v 2.148438 h -2.144531 z m 2.644531,0 h 2.144531 v 2.148438 H 24.0625 Z m 2.644531,0 h 2.148438 v 2.148438 h -2.148438 z m 2.648438,0 H 31.5 v 2.148438 h -2.144531 z m 2.644531,0 h 2.144531 v 2.148438 H 32 Z m 2.644531,0 h 2.148438 v 2.148438 h -2.148438 z m 2.648438,0 H 39.4375 v 2.148438 h -2.144531 z m 2.644531,0 h 2.144531 v 2.148438 H 39.9375 Z m 2.644531,0 h 2.148438 v 2.148438 h -2.148438 z m 2.648438,0 H 47.375 v 2.148438 h -2.144531 z m 2.644531,0 h 2.144531 v 2.148438 H 47.875 Z m 2.644531,0 h 2.148438 v 2.148438 h -2.148438 z m 2.648438,0 H 55.3125 v 2.148438 H 53.167969 Z M 8.1875,29.855469 h 2.144531 V 32 H 8.1875 Z m 2.644531,0 h 2.148438 V 32 h -2.148438 z m 2.648438,0 H 15.625 V 32 h -2.144531 z m 2.644531,0 h 2.144531 V 32 H 16.125 Z m 2.644531,0 h 2.148438 V 32 h -2.148438 z m 2.648438,0 H 23.5625 V 32 h -2.144531 z m 2.644531,0 h 2.144531 V 32 H 24.0625 Z m 2.644531,0 h 2.148438 V 32 h -2.148438 z m 2.648438,0 H 31.5 V 32 h -2.144531 z m 2.644531,0 h 2.144531 V 32 H 32 Z m 2.644531,0 h 2.148438 V 32 h -2.148438 z m 2.648438,0 H 39.4375 V 32 h -2.144531 z m 2.644531,0 h 2.144531 V 32 H 39.9375 Z m 2.644531,0 h 2.148438 V 32 h -2.148438 z m 2.648438,0 H 47.375 V 32 h -2.144531 z m 2.644531,0 h 2.144531 V 32 H 47.875 Z m 2.644531,0 h 2.148438 V 32 h -2.148438 z m 2.648438,0 H 55.3125 V 32 H 53.167969 Z M 8.1875,32.5 h 2.144531 v 2.144531 H 8.1875 Z m 2.644531,0 h 2.148438 v 2.144531 h -2.148438 z m 2.648438,0 H 15.625 v 2.144531 h -2.144531 z m 2.644531,0 h 2.144531 v 2.144531 H 16.125 Z m 2.644531,0 h 2.148438 v 2.144531 h -2.148438 z m 2.648438,0 H 23.5625 v 2.144531 h -2.144531 z m 2.644531,0 h 2.144531 v 2.144531 H 24.0625 Z m 2.644531,0 h 2.148438 v 2.144531 h -2.148438 z m 2.648438,0 H 31.5 v 2.144531 H 29.355469 Z M 32,32.5 h 2.144531 v 2.144531 H 32 Z m 2.644531,0 h 2.148438 v 2.144531 h -2.148438 z m 2.648438,0 H 39.4375 v 2.144531 h -2.144531 z m 2.644531,0 h 2.144531 v 2.144531 H 39.9375 Z m 2.644531,0 h 2.148438 v 2.144531 h -2.148438 z m 2.648438,0 H 47.375 v 2.144531 h -2.144531 z m 2.644531,0 h 2.144531 v 2.144531 H 47.875 Z m 2.644531,0 h 2.148438 v 2.144531 h -2.148438 z m 2.648438,0 H 55.3125 v 2.144531 H 53.167969 Z M 8.1875,35.144531 h 2.144531 v 2.148438 H 8.1875 Z m 2.644531,0 h 2.148438 v 2.148438 h -2.148438 z m 2.648438,0 H 15.625 v 2.148438 h -2.144531 z m 2.644531,0 h 2.144531 v 2.148438 H 16.125 Z m 2.644531,0 h 2.148438 v 2.148438 h -2.148438 z m 2.648438,0 H 23.5625 v 2.148438 h -2.144531 z m 2.644531,0 h 2.144531 v 2.148438 H 24.0625 Z m 2.644531,0 h 2.148438 v 2.148438 h -2.148438 z m 2.648438,0 H 31.5 v 2.148438 h -2.144531 z m 2.644531,0 h 2.144531 v 2.148438 H 32 Z m 2.644531,0 h 2.148438 v 2.148438 h -2.148438 z m 2.648438,0 H 39.4375 v 2.148438 h -2.144531 z m 2.644531,0 h 2.144531 v 2.148438 H 39.9375 Z m 2.644531,0 h 2.148438 v 2.148438 h -2.148438 z m 2.648438,0 H 47.375 v 2.148438 h -2.144531 z m 2.644531,0 h 2.144531 v 2.148438 H 47.875 Z m 2.644531,0 h 2.148438 v 2.148438 h -2.148438 z m 2.648438,0 H 55.3125 v 2.148438 H 53.167969 Z M 8.1875,37.792969 h 2.144531 V 39.9375 H 8.1875 Z m 2.644531,0 h 2.148438 V 39.9375 h -2.148438 z m 2.648438,0 H 15.625 V 39.9375 h -2.144531 z m 2.644531,0 h 2.144531 V 39.9375 H 16.125 Z m 2.644531,0 h 2.148438 V 39.9375 h -2.148438 z m 2.648438,0 H 23.5625 V 39.9375 h -2.144531 z m 2.644531,0 h 2.144531 V 39.9375 H 24.0625 Z m 2.644531,0 h 2.148438 V 39.9375 h -2.148438 z m 2.648438,0 H 31.5 V 39.9375 h -2.144531 z m 2.644531,0 h 2.144531 V 39.9375 H 32 Z m 2.644531,0 h 2.148438 V 39.9375 h -2.148438 z m 2.648438,0 H 39.4375 V 39.9375 h -2.144531 z m 2.644531,0 h 2.144531 V 39.9375 H 39.9375 Z m 2.644531,0 h 2.148438 V 39.9375 h -2.148438 z m 2.648438,0 H 47.375 V 39.9375 h -2.144531 z m 2.644531,0 h 2.144531 V 39.9375 H 47.875 Z m 2.644531,0 h 2.148438 V 39.9375 h -2.148438 z m 2.648438,0 H 55.3125 V 39.9375 H 53.167969 Z M 8.1875,40.4375 h 2.144531 v 2.144531 H 8.1875 Z m 2.644531,0 h 2.148438 v 2.144531 h -2.148438 z m 2.648438,0 H 15.625 v 2.144531 h -2.144531 z m 2.644531,0 h 2.144531 v 2.144531 H 16.125 Z m 2.644531,0 h 2.148438 v 2.144531 h -2.148438 z m 2.648438,0 H 23.5625 v 2.144531 h -2.144531 z m 2.644531,0 h 2.144531 v 2.144531 H 24.0625 Z m 2.644531,0 h 2.148438 v 2.144531 h -2.148438 z m 2.648438,0 H 31.5 v 2.144531 h -2.144531 z m 2.644531,0 h 2.144531 v 2.144531 H 32 Z m 2.644531,0 h 2.148438 v 2.144531 h -2.148438 z m 2.648438,0 H 39.4375 v 2.144531 h -2.144531 z m 2.644531,0 h 2.144531 v 2.144531 H 39.9375 Z m 2.644531,0 h 2.148438 v 2.144531 h -2.148438 z m 2.648438,0 H 47.375 v 2.144531 h -2.144531 z m 2.644531,0 h 2.144531 v 2.144531 H 47.875 Z m 2.644531,0 h 2.148438 v 2.144531 h -2.148438 z m 2.648438,0 H 55.3125 v 2.144531 H 53.167969 Z M 8.1875,43.082031 h 2.144531 v 2.148438 H 8.1875 Z m 2.644531,0 h 2.148438 v 2.148438 h -2.148438 z m 2.648438,0 H 15.625 v 2.148438 h -2.144531 z m 2.644531,0 h 2.144531 v 2.148438 H 16.125 Z m 2.644531,0 h 2.148438 v 2.148438 h -2.148438 z m 2.648438,0 H 23.5625 v 2.148438 h -2.144531 z m 2.644531,0 h 2.144531 v 2.148438 H 24.0625 Z m 2.644531,0 h 2.148438 v 2.148438 h -2.148438 z m 2.648438,0 H 31.5 v 2.148438 h -2.144531 z m 2.644531,0 h 2.144531 v 2.148438 H 32 Z m 2.644531,0 h 2.148438 v 2.148438 h -2.148438 z m 2.648438,0 H 39.4375 v 2.148438 h -2.144531 z m 2.644531,0 h 2.144531 v 2.148438 H 39.9375 Z m 2.644531,0 h 2.148438 v 2.148438 h -2.148438 z m 2.648438,0 H 47.375 v 2.148438 h -2.144531 z m 2.644531,0 h 2.144531 v 2.148438 H 47.875 Z m 2.644531,0 h 2.148438 v 2.148438 h -2.148438 z m 2.648438,0 H 55.3125 v 2.148438 H 53.167969 Z M 8.1875,45.730469 h 2.144531 V 47.875 H 8.1875 Z m 2.644531,0 h 2.148438 V 47.875 h -2.148438 z m 2.648438,0 H 15.625 V 47.875 h -2.144531 z m 2.644531,0 h 2.144531 V 47.875 H 16.125 Z m 2.644531,0 h 2.148438 V 47.875 h -2.148438 z m 2.648438,0 H 23.5625 V 47.875 h -2.144531 z m 2.644531,0 h 2.144531 V 47.875 H 24.0625 Z m 2.644531,0 h 2.148438 V 47.875 h -2.148438 z m 2.648438,0 H 31.5 V 47.875 h -2.144531 z m 2.644531,0 h 2.144531 V 47.875 H 32 Z m 2.644531,0 h 2.148438 V 47.875 h -2.148438 z m 2.648438,0 H 39.4375 V 47.875 h -2.144531 z m 2.644531,0 h 2.144531 V 47.875 H 39.9375 Z m 2.644531,0 h 2.148438 V 47.875 h -2.148438 z m 2.648438,0 H 47.375 V 47.875 h -2.144531 z m 2.644531,0 h 2.144531 V 47.875 H 47.875 Z m 2.644531,0 h 2.148438 V 47.875 h -2.148438 z m 2.648438,0 H 55.3125 V 47.875 H 53.167969 Z M 8.1875,48.375 h 2.144531 v 2.144531 H 8.1875 Z m 2.644531,0 h 2.148438 v 2.144531 h -2.148438 z m 2.648438,0 H 15.625 v 2.144531 h -2.144531 z m 2.644531,0 h 2.144531 v 2.144531 H 16.125 Z m 2.644531,0 h 2.148438 v 2.144531 h -2.148438 z m 2.648438,0 H 23.5625 v 2.144531 h -2.144531 z m 2.644531,0 h 2.144531 v 2.144531 H 24.0625 Z m 2.644531,0 h 2.148438 v 2.144531 h -2.148438 z m 2.648438,0 H 31.5 v 2.144531 H 29.355469 Z M 32,48.375 h 2.144531 v 2.144531 H 32 Z m 2.644531,0 h 2.148438 v 2.144531 h -2.148438 z m 2.648438,0 H 39.4375 v 2.144531 h -2.144531 z m 2.644531,0 h 2.144531 v 2.144531 H 39.9375 Z m 2.644531,0 h 2.148438 v 2.144531 h -2.148438 z m 2.648438,0 H 47.375 v 2.144531 h -2.144531 z m 2.644531,0 h 2.144531 v 2.144531 H 47.875 Z m 2.644531,0 h 2.148438 v 2.144531 h -2.148438 z m 2.648438,0 H 55.3125 v 2.144531 H 53.167969 Z M 8.1875,51.019531 h 2.144531 v 2.148438 H 8.1875 Z m 2.644531,0 h 2.148438 v 2.148438 h -2.148438 z m 2.648438,0 H 15.625 v 2.148438 h -2.144531 z m 2.644531,0 h 2.144531 v 2.148438 H 16.125 Z m 2.644531,0 h 2.148438 v 2.148438 h -2.148438 z m 2.648438,0 H 23.5625 v 2.148438 h -2.144531 z m 2.644531,0 h 2.144531 v 2.148438 H 24.0625 Z m 2.644531,0 h 2.148438 v 2.148438 h -2.148438 z m 2.648438,0 H 31.5 v 2.148438 h -2.144531 z m 2.644531,0 h 2.144531 v 2.148438 H 32 Z m 2.644531,0 h 2.148438 v 2.148438 h -2.148438 z m 2.648438,0 H 39.4375 v 2.148438 h -2.144531 z m 2.644531,0 h 2.144531 v 2.148438 H 39.9375 Z m 2.644531,0 h 2.148438 v 2.148438 h -2.148438 z m 2.648438,0 H 47.375 v 2.148438 h -2.144531 z m 2.644531,0 h 2.144531 v 2.148438 H 47.875 Z m 2.644531,0 h 2.148438 v 2.148438 h -2.148438 z m 2.648438,0 H 55.3125 v 2.148438 H 53.167969 Z M 8.1875,53.667969 h 2.144531 V 55.8125 H 8.1875 Z m 2.644531,0 h 2.148438 V 55.8125 h -2.148438 z m 2.648438,0 H 15.625 V 55.8125 h -2.144531 z m 2.644531,0 h 2.144531 V 55.8125 H 16.125 Z m 2.644531,0 h 2.148438 V 55.8125 h -2.148438 z m 2.648438,0 H 23.5625 V 55.8125 h -2.144531 z m 2.644531,0 h 2.144531 V 55.8125 H 24.0625 Z m 2.644531,0 h 2.148438 V 55.8125 h -2.148438 z m 2.648438,0 H 31.5 V 55.8125 h -2.144531 z m 2.644531,0 h 2.144531 V 55.8125 H 32 Z m 2.644531,0 h 2.148438 V 55.8125 h -2.148438 z m 2.648438,0 H 39.4375 V 55.8125 h -2.144531 z m 2.644531,0 h 2.144531 V 55.8125 H 39.9375 Z m 2.644531,0 h 2.148438 V 55.8125 h -2.148438 z m 2.648438,0 H 47.375 V 55.8125 h -2.144531 z m 2.644531,0 h 2.144531 V 55.8125 H 47.875 Z m 2.644531,0 h 2.148438 V 55.8125 h -2.148438 z m 2.648438,0 H 55.3125 V 55.8125 h -2.144531 z m 0,0"
       id="path4"
       inkscape:connector-curvature="0" />
    <path
       style="fill:none;stroke:#eeeeee;stroke-width:6;stroke-linecap:round;stroke-linejoin:round;stroke-miterlimit:4;stroke-opacity:1"
       d="m 212.46875,-62.84375 c -46.90625,0 -84.65625,37.78125 -84.65625,84.6875 0,46.90625 37.75,84.65625 84.65625,84.65625 22.1875,0 42.34375,-8.46875 57.40625,-22.34375 11.625,13.6875 28.96875,22.34375 48.4375,22.34375 35.15625,0 63.5,-28.3125 63.5,-63.5 0,-35.1875 -28.34375,-63.5 -63.5,-63.5 -10.4375,0 -20.25,2.46875 -28.875,6.875 -13.375,-29.09375 -42.75,-49.21875 -76.96875,-49.21875 z m 0,0"
       transform="matrix(0.125,0,0,0.125,0,26.875)"
       id="path6"
       inkscape:connector-curvature="0" />
    <path
       style="fill:#dedede;fill-opacity:1;fill-rule:nonzero;stroke:none"
       d="m 36.074219,30.242188 -14.554688,25.207031 -0.351562,5.90625 4.9375,-3.261719 5.648437,-9.785156 c 2.71875,1.566406 5.878906,2.460937 9.257813,2.460937 3.375,0 6.535156,-0.894531 9.257812,-2.460937 l 5.648438,9.785156 4.9375,3.261719 L 60.5,55.449219 54.46875,45 c 3.140625,-3.316406 5.0625,-7.800781 5.0625,-12.75 0,-0.550781 -0.589844,-0.992188 -1.324219,-0.992188 -0.730469,0 -1.320312,0.441407 -1.320312,0.992188 0,3.957031 -1.433594,7.566406 -3.8125,10.339844 l -7.125,-12.347656 -4.585938,2.648437 7.582031,13.125 c -2.332031,1.34375 -5.042968,2.109375 -7.933593,2.109375 -2.894531,0 -5.601563,-0.765625 -7.933594,-2.109375 l 7.578125,-13.125 z m 0,0"
       id="path8"
       inkscape:connector-curvature="0" />
    <path
       style="fill:#3f3f3f;fill-opacity:1;fill-rule:nonzero;stroke:none"
       d="m 41.011719,11.082031 c -1.46875,0 -2.648438,1.179688 -2.648438,2.648438 V 24.3125 h -1.320312 c -0.730469,0 -1.324219,0.59375 -1.324219,1.324219 v 4.628906 c 0,0.394531 0.171875,0.765625 0.476562,1.015625 l 3.96875,3.308594 C 40.652344,35 41.367188,35 41.859375,34.589844 l 3.96875,-3.308594 c 0.300781,-0.25 0.476563,-0.621094 0.476563,-1.015625 v -4.628906 c 0,-0.730469 -0.59375,-1.324219 -1.324219,-1.324219 H 43.65625 V 13.730469 c 0,-1.46875 -1.179688,-2.648438 -2.644531,-2.648438 z m 0,0"
       id="path10"
       inkscape:connector-curvature="0" />
    <path
       style="fill:#eeeeee;fill-opacity:0.94347797;fill-rule:nonzero;stroke:none"
       d="m 41.011719,26.957031 c 1.09375,0 1.984375,0.890625 1.984375,1.984375 0,1.097656 -0.890625,1.984375 -1.984375,1.984375 -1.097657,0 -1.984375,-0.886719 -1.984375,-1.984375 0,-1.09375 0.886718,-1.984375 1.984375,-1.984375 z m 0,0"
       id="path12"
       inkscape:connector-curvature="0" />
    <path
       style="fill:#f5f5f5;fill-opacity:1;fill-rule:nonzero;stroke:none"
       d="m 10.582031,18.644531 v 0.75 h 15.875 v -0.75 z m 0,0"
       id="path14"
       inkscape:connector-curvature="0" />
    <path
       style="fill:#f5f5f5;fill-opacity:1;fill-rule:nonzero;stroke:none"
       d="m 10.582031,39.8125 v 0.75 h 15.875 v -0.75 z m 0,0"
       id="path16"
       inkscape:connector-curvature="0" />
    <path
       style="fill:#f5f5f5;fill-opacity:1;fill-rule:nonzero;stroke:none"
       d="m 12.855469,24.3125 v 14.550781 h 0.75 V 24.3125 Z m 0,0"
       id="path18"
       inkscape:connector-curvature="0" />
    <path
       style="fill:#f5f5f5;fill-opacity:1;fill-rule:evenodd;stroke:#f5f5f5;stroke-width:3;stroke-linecap:butt;stroke-linejoin:miter;stroke-miterlimit:4;stroke-opacity:1"
       d="m 105.84375,71.90625 -12,-12 12,42 12,-42 z m 0,0"
       transform="matrix(0.125,0,0,0.125,0,26.875)"
       id="path20"
       inkscape:connector-curvature="0" />
    <path
       style="fill:#eeeeee;fill-opacity:1;fill-rule:nonzero;stroke:none"
       d="m 12.855469,20.5 v 14.394531 h 0.75 V 20.5 Z m 0,0"
       id="path22"
       inkscape:connector-curvature="0" />
    <path
       style="fill:#eeeeee;fill-opacity:1;fill-rule:evenodd;stroke:#eeeeee;stroke-width:3;stroke-linecap:butt;stroke-linejoin:miter;stroke-miterlimit:4;stroke-opacity:1"
       d="m 105.84375,-27 12,12 -12,-42 -12,42 z m 0,0"
       transform="matrix(0.125,0,0,0.125,0,26.875)"
       id="path24"
       inkscape:connector-curvature="0" />
  </g>
</svg>
