<?xml version="1.0" encoding="UTF-8" standalone="no"?>
<svg
   xmlns:dc="http://purl.org/dc/elements/1.1/"
   xmlns:cc="http://creativecommons.org/ns#"
   xmlns:rdf="http://www.w3.org/1999/02/22-rdf-syntax-ns#"
   xmlns:svg="http://www.w3.org/2000/svg"
   xmlns="http://www.w3.org/2000/svg"
   xmlns:sodipodi="http://sodipodi.sourceforge.net/DTD/sodipodi-0.dtd"
   xmlns:inkscape="http://www.inkscape.org/namespaces/inkscape"
   width="48"
   height="48"
   version="1.1"
   id="svg10"
   sodipodi:docname="xfce-man.svg"
   inkscape:version="0.92.4 (5da689c313, 2019-01-14)">
  <metadata
     id="metadata16">
    <rdf:RDF>
      <cc:Work
         rdf:about="">
        <dc:format>image/svg+xml</dc:format>
        <dc:type
           rdf:resource="http://purl.org/dc/dcmitype/StillImage" />
        <dc:title></dc:title>
      </cc:Work>
    </rdf:RDF>
  </metadata>
  <defs
     id="defs14" />
  <sodipodi:namedview
     pagecolor="#ffffff"
     bordercolor="#666666"
     borderopacity="1"
     objecttolerance="10"
     gridtolerance="10"
     guidetolerance="10"
     inkscape:pageopacity="0"
     inkscape:pageshadow="2"
     inkscape:window-width="1280"
     inkscape:window-height="954"
     id="namedview12"
     showgrid="false"
     inkscape:zoom="7.375"
     inkscape:cx="18.641104"
     inkscape:cy="24.419439"
     inkscape:window-x="0"
     inkscape:window-y="0"
     inkscape:window-maximized="1"
     inkscape:current-layer="svg10" />
  <g
     transform="matrix(0.76706574,0,0,0.76706574,-0.35433725,-0.73787012)"
     id="surface1"
     style="opacity:0.97000002">
    <path
       inkscape:connector-curvature="0"
       style="fill:#eeeeee;fill-opacity:1;fill-rule:nonzero;stroke:none"
       d="m 31.40625,3.148438 c -0.01953,0 -0.04297,0 -0.0625,0 0.01953,0 0.04297,0 0.0625,0 z m 0.6875,0 c 0.01953,0 0.04297,0 0.0625,0 -0.01953,0 -0.04297,0 -0.0625,0 z m -1.082031,0.00781 c -0.01563,0 -0.03125,0 -0.04687,0 0.01563,0 0.03125,0 0.04687,0 z m 1.476562,0 c 0.01563,0 0.03125,0 0.04687,0 -0.01563,0 -0.03125,0 -0.04687,0 z m -1.828125,0.00781 c -0.01953,0.00391 -0.03906,0.00391 -0.05859,0.00391 0.01953,0 0.03906,0 0.05859,-0.00391 z m 2.179688,0 c 0.01953,0.00391 0.03906,0.00391 0.05859,0.00391 -0.01953,0 -0.03906,0 -0.05859,-0.00391 z m -2.5625,0.019532 c -0.02344,0 -0.04687,0 -0.07031,0.00391 0.02344,-0.00391 0.04687,-0.00391 0.07031,-0.00391 z m 2.945312,0 c 0.02344,0 0.04687,0 0.07031,0.00391 -0.02344,-0.00391 -0.04687,-0.00391 -0.07031,-0.00391 z m -3.332031,0.019531 c -0.0078,0 -0.01172,0 -0.01953,0 0.0078,0 0.01172,0 0.01953,0 z m 3.71875,0 c 0.0078,0 0.01172,0 0.01953,0 -0.0078,0 -0.01172,0 -0.01953,0 z m -4.066406,0.023437 c -0.02344,0.00391 -0.04687,0.00391 -0.07422,0.00781 0.02734,-0.00391 0.05078,-0.00391 0.07422,-0.00781 z m 4.414062,0 c 0.02344,0.00391 0.04687,0.00391 0.07422,0.00781 -0.02734,-0.00391 -0.05078,-0.00391 -0.07422,-0.00781 z m -4.804687,0.03125 c -0.01953,0.00391 -0.03906,0.00391 -0.0625,0.00781 0.02344,-0.00391 0.04297,-0.00391 0.0625,-0.00781 z m 5.195312,0 c 0.01953,0.00391 0.03906,0.00391 0.0625,0.00781 -0.02344,-0.00391 -0.04297,-0.00391 -0.0625,-0.00781 z m -5.539062,0.035157 c -0.02344,0 -0.04297,0.00391 -0.06641,0.00391 0.02344,0 0.04297,-0.00391 0.06641,-0.00391 z m 5.882812,0 c 0.02344,0 0.04297,0.00391 0.0625,0.00391 -0.01953,0 -0.03906,-0.00391 -0.0625,-0.00391 z m -6.257812,0.039062 c -0.02734,0.00391 -0.05859,0.00781 -0.08984,0.00781 0.03125,0 0.0625,-0.00391 0.08984,-0.00781 z m 6.632812,0 c 0.02734,0.00391 0.05859,0.00781 0.08984,0.00781 -0.03125,0 -0.0625,-0.00391 -0.08984,-0.00781 z M 28.074219,3.375 c -0.01563,0 -0.03516,0.00391 -0.05469,0.00391 0.01953,0 0.03906,-0.00391 0.05469,-0.00391 z m 7.351562,0 c 0.01563,0 0.03516,0.00391 0.05469,0.00391 -0.01953,0 -0.03906,-0.00391 -0.05469,-0.00391 z m -7.71875,0.046875 c -0.02344,0.00391 -0.05078,0.00781 -0.07422,0.011719 0.02344,-0.00391 0.05078,-0.00781 0.07422,-0.011719 z m 8.085938,0 c 0.02344,0.00391 0.05078,0.00781 0.07422,0.011719 -0.02344,-0.00391 -0.05078,-0.00781 -0.07422,-0.011719 z m -8.46875,0.054687 c -0.02344,0.00391 -0.04687,0.00781 -0.07422,0.011719 0.02734,-0.00391 0.05078,-0.00781 0.07422,-0.011719 z m 8.851562,0 c 0.02344,0.00391 0.04687,0.00781 0.07422,0.011719 -0.02734,-0.00391 -0.05078,-0.00781 -0.07422,-0.011719 z M 27,3.527344 C 26.97266,3.531254 26.94531,3.539062 26.91406,3.542969 26.945312,3.539062 26.972656,3.53125 27,3.527344 Z m 9.5,0 c 0.02734,0.00391 0.05469,0.011718 0.08594,0.015625 C 36.554688,3.539062 36.527344,3.53125 36.5,3.527344 Z M 26.617188,3.59375 c -0.02734,0.00391 -0.05469,0.00781 -0.08203,0.015625 0.02734,-0.00781 0.05469,-0.011719 0.08203,-0.015625 z m 10.265624,0 c 0.02734,0.00391 0.05469,0.00781 0.08203,0.015625 -0.02734,-0.00781 -0.05469,-0.011719 -0.08203,-0.015625 z m -10.605468,0.0625 c -0.02344,0.00391 -0.04687,0.00781 -0.07031,0.011719 0.02344,-0.00391 0.04687,-0.00781 0.07031,-0.011719 z m 10.945312,0 c 0.02344,0.00391 0.04687,0.00781 0.07031,0.011719 -0.02344,-0.00391 -0.04687,-0.00781 -0.07031,-0.011719 z M 25.921875,3.726562 c -0.03516,0.00391 -0.07031,0.011719 -0.105469,0.019532 0.03516,-0.00781 0.07031,-0.015625 0.105469,-0.019532 z m 11.65625,0 c 0.03516,0.00391 0.07031,0.011719 0.105469,0.019532 -0.03516,-0.00781 -0.07031,-0.015625 -0.105469,-0.019532 z M 25.53125,3.804688 c -0.02344,0.00781 -0.05078,0.011718 -0.07422,0.019531 0.02344,-0.00781 0.05078,-0.011719 0.07422,-0.019531 z m 12.4375,0 c 0.02344,0.00781 0.05078,0.011718 0.07422,0.019531 C 38.019531,3.816406 37.992188,3.8125 37.96875,3.804688 Z M 25.226562,3.875 c -0.03516,0.00781 -0.07422,0.015625 -0.109374,0.023438 0.03516,-0.00781 0.07422,-0.015626 0.109374,-0.023438 z m 13.046876,0 c 0.03516,0.00781 0.07422,0.015625 0.109374,0.023438 C 38.347656,3.890625 38.308594,3.882812 38.273438,3.875 Z M 24.847656,3.964844 c -0.03906,0.00781 -0.07422,0.015625 -0.109375,0.023437 0.03516,-0.00781 0.07031,-0.015625 0.109375,-0.023437 z m 13.804688,0 c 0.03906,0.00781 0.07422,0.015625 0.109375,0.023437 -0.03516,-0.00781 -0.07031,-0.015625 -0.109375,-0.023437 z M 24.539062,4.039062 c -0.03516,0.00781 -0.07422,0.019532 -0.109374,0.027344 0.03516,-0.00781 0.07422,-0.019531 0.109374,-0.027344 z m 14.421876,0 c 0.03516,0.00781 0.07422,0.019532 0.109374,0.027344 -0.03516,-0.00781 -0.07422,-0.019531 -0.109374,-0.027344 z M 24.167969,4.136719 c -0.03906,0.011719 -0.07813,0.019531 -0.117188,0.03125 0.03906,-0.011719 0.07813,-0.019531 0.117188,-0.03125 z m 15.164062,0 c 0.03906,0.011719 0.07813,0.019531 0.117188,0.03125 -0.03906,-0.011719 -0.07813,-0.019531 -0.117188,-0.03125 z M 23.808594,4.234375 c -0.03516,0.011719 -0.07422,0.019531 -0.109375,0.03125 0.03516,-0.011719 0.07422,-0.019531 0.109375,-0.03125 z m 15.882812,0 c 0.03516,0.011719 0.07422,0.019531 0.109375,0.03125 -0.03516,-0.011719 -0.07422,-0.019531 -0.109375,-0.03125 z M 23.496094,4.324219 c -0.04297,0.011719 -0.08984,0.027343 -0.132813,0.039062 0.04297,-0.011719 0.08984,-0.027343 0.132813,-0.039062 z m 16.507812,0 c 0.04297,0.011719 0.08984,0.027343 0.132813,0.039062 C 40.09375,4.351562 40.046875,4.335938 40.003906,4.324219 Z M 23.117188,4.4375 c -0.04297,0.011719 -0.08594,0.027344 -0.128907,0.039062 0.04297,-0.011718 0.08594,-0.027343 0.128907,-0.039062 z m 17.265624,0 c 0.04297,0.011719 0.08594,0.027344 0.128907,0.039062 C 40.46875,4.464844 40.425781,4.449219 40.382812,4.4375 Z M 22.828125,4.527344 c -0.04297,0.015625 -0.08594,0.027344 -0.128906,0.042968 0.04297,-0.015624 0.08594,-0.027343 0.128906,-0.042968 z m 17.84375,0 c 0.04297,0.015625 0.08594,0.027344 0.128906,0.042968 -0.04297,-0.015624 -0.08594,-0.027343 -0.128906,-0.042968 z m -18.21875,0.125 c -0.04297,0.011718 -0.08594,0.027344 -0.132813,0.042968 0.04688,-0.015624 0.08984,-0.03125 0.132813,-0.042968 z m 18.59375,0 c 0.04297,0.011718 0.08594,0.027344 0.132813,0.042968 -0.04688,-0.015624 -0.08984,-0.03125 -0.132813,-0.042968 z M 22.160156,4.75 C 22.089844,4.777344 22.019531,4.800781 21.949219,4.824219 22.019531,4.800781 22.089844,4.777344 22.160156,4.75 Z m 19.179688,0 c 0.07031,0.027344 0.140625,0.050781 0.210937,0.074219 C 41.480469,4.800781 41.410156,4.777344 41.339844,4.75 Z m -19.53125,0.125 c -0.05078,0.019531 -0.09766,0.035156 -0.144532,0.054688 0.04688,-0.019532 0.09375,-0.035157 0.144532,-0.054688 z m 19.882812,0 c 0.05078,0.019531 0.09766,0.035156 0.144532,0.054688 C 41.789062,4.910156 41.742188,4.894531 41.691406,4.875 Z M 21.429688,5.015625 c -0.04297,0.015625 -0.08984,0.035156 -0.136719,0.050781 0.04687,-0.015625 0.09375,-0.035156 0.136719,-0.050781 z m 20.640624,0 c 0.04297,0.015625 0.08984,0.035156 0.136719,0.050781 C 42.160156,5.050781 42.113281,5.03125 42.070312,5.015625 Z M 21.15625,5.121094 c -0.0625,0.023437 -0.125,0.046875 -0.1875,0.074218 0.0625,-0.027343 0.125,-0.050781 0.1875,-0.074218 z m 21.1875,0 c 0.0625,0.023437 0.125,0.046875 0.1875,0.074218 -0.0625,-0.027343 -0.125,-0.050781 -0.1875,-0.074218 z M 20.789062,5.265625 c -0.04687,0.019531 -0.09766,0.039063 -0.144531,0.058594 0.04687,-0.019531 0.09766,-0.039063 0.144531,-0.058594 z m 21.921876,0 c 0.04687,0.019531 0.09766,0.039063 0.144531,0.058594 -0.04687,-0.019531 -0.09766,-0.039063 -0.144531,-0.058594 z M 20.511719,5.378906 c -0.07422,0.03125 -0.148438,0.0625 -0.21875,0.09375 0.07031,-0.03125 0.144531,-0.0625 0.21875,-0.09375 z m 22.476562,0 c 0.07422,0.03125 0.148438,0.0625 0.21875,0.09375 -0.07031,-0.03125 -0.144531,-0.0625 -0.21875,-0.09375 z M 20.152344,5.53125 c -0.04687,0.023438 -0.09766,0.042969 -0.144532,0.066406 0.04688,-0.023437 0.09766,-0.042968 0.144532,-0.066406 z m 23.195312,0 c 0.04687,0.023438 0.09766,0.042969 0.144532,0.066406 -0.04688,-0.023437 -0.09766,-0.042968 -0.144532,-0.066406 z m -23.480468,0.125 c -0.07422,0.035156 -0.144532,0.066406 -0.21875,0.101562 0.07422,-0.035156 0.144531,-0.066406 0.21875,-0.101562 z m 23.765624,0 c 0.07422,0.035156 0.144532,0.066406 0.21875,0.101562 C 43.777344,5.722656 43.707031,5.691406 43.632812,5.65625 Z M 19.53125,5.808594 c -0.08984,0.042968 -0.179688,0.082031 -0.265625,0.125 0.08594,-0.042969 0.175781,-0.082032 0.265625,-0.125 z m 24.4375,0 c 0.08984,0.042968 0.179688,0.082031 0.265625,0.125 -0.08594,-0.042969 -0.175781,-0.082032 -0.265625,-0.125 z M 19.175781,5.976562 c -0.05469,0.027344 -0.105469,0.050782 -0.15625,0.074219 0.05078,-0.023437 0.101563,-0.046875 0.15625,-0.074219 z m 25.148438,0 c 0.05469,0.027344 0.105469,0.050782 0.15625,0.074219 -0.05078,-0.023437 -0.101563,-0.046875 -0.15625,-0.074219 z m -25.410157,0.125 C 18.828125,6.144531 18.738281,6.1875 18.652344,6.234375 18.738281,6.1875 18.828125,6.144531 18.914062,6.101562 Z m 25.671876,0 C 44.671875,6.144531 44.761719,6.1875 44.847656,6.234375 44.761719,6.1875 44.671875,6.144531 44.585938,6.101562 Z M 18.5625,6.277344 C 18.50781,6.304688 18.457031,6.332031 18.402344,6.359375 18.457034,6.332031 18.507812,6.304688 18.5625,6.277344 Z m 26.375,0 c 0.05469,0.027344 0.105469,0.054687 0.160156,0.082031 C 45.042969,6.332031 44.992188,6.304688 44.9375,6.277344 Z M 18.308594,6.410156 c -0.08594,0.042969 -0.167969,0.085938 -0.25,0.128906 0.08203,-0.042968 0.164062,-0.085937 0.25,-0.128906 z m 26.882812,0 c 0.08594,0.042969 0.167969,0.085938 0.25,0.128906 -0.08203,-0.042968 -0.164062,-0.085937 -0.25,-0.128906 z m -27.242187,0.1875 C 17.898438,6.625 17.851562,6.652344 17.804688,6.675781 17.851562,6.652344 17.898438,6.625 17.949219,6.597656 Z m 27.601562,0 C 45.601562,6.625 45.648438,6.652344 45.695312,6.675781 45.648438,6.652344 45.601562,6.625 45.550781,6.597656 Z m -27.75,0.082032 C 12.894531,9.351562 8.851562,13.394531 6.179688,18.300781 l 12.785156,6.976563 c 1.335937,-2.457032 3.355468,-4.476563 5.8125,-5.8125 z m 27.898438,0 -6.976563,12.785156 c 2.457032,1.335937 4.476563,3.355468 5.8125,5.8125 L 57.320312,18.300781 C 54.648438,13.394531 50.605469,9.351562 45.699219,6.679688 Z M 31.523438,17.699219 c -0.01172,0 -0.02344,0 -0.03906,0 0.01563,0 0.02734,0 0.03906,0 z m 0.453124,0 c 0.01172,0 0.02344,0 0.03906,0 -0.01563,0 -0.02734,0 -0.03906,0 z m -0.667968,0.0039 c -0.01953,0.0039 -0.04297,0.0039 -0.0625,0.0039 0.01953,0 0.04297,0 0.0625,-0.0039 z m 0.882812,0 c 0.01953,0.0039 0.04297,0.0039 0.0625,0.0039 -0.01953,0 -0.04297,0 -0.0625,-0.0039 z m -1.113281,0.01172 c -0.01563,0 -0.03125,0 -0.05078,0 0.01953,0 0.03516,0 0.05078,0 z m 1.34375,0 c 0.01563,0 0.03125,0 0.05078,0 -0.01953,0 -0.03516,0 -0.05078,0 z m 0.488281,0.02734 c 0.01563,0.0039 0.03125,0.0039 0.04297,0.0039 -0.01172,0 -0.02734,0 -0.04297,-0.0039 z m -2.320312,0 c -0.01563,0.0039 -0.02734,0.0039 -0.04297,0.0039 0.01563,0 0.02734,0 0.04297,-0.0039 z M 30.375,17.761719 c -0.01953,0 -0.03906,0.0039 -0.0625,0.0039 0.02344,0 0.04297,-0.0039 0.0625,-0.0039 z m 2.75,0 c 0.01953,0 0.03906,0.0039 0.0625,0.0039 -0.02344,0 -0.04297,-0.0039 -0.0625,-0.0039 z m -2.976562,0.02344 c -0.01563,0 -0.03125,0.0039 -0.04688,0.0039 0.01563,0 0.03125,-0.0039 0.04688,-0.0039 z m 3.203124,0 c 0.01563,0 0.03125,0.0039 0.04688,0.0039 -0.01563,0 -0.03125,-0.0039 -0.04688,-0.0039 z m -3.683593,0.05859 c -0.01172,0.0039 -0.02344,0.0039 -0.03516,0.0078 0.01172,-0.0039 0.02344,-0.0039 0.03516,-0.0078 z m 4.164062,0 c 0.01172,0.0039 0.02344,0.0039 0.03516,0.0078 -0.01172,-0.0039 -0.02344,-0.0039 -0.03516,-0.0078 z m -4.382812,0.03516 c -0.01172,0 -0.02734,0.0039 -0.03906,0.0039 0.01172,0 0.02734,-0.0039 0.03906,-0.0039 z m 4.601562,0 c 0.01172,0 0.02734,0.0039 0.03906,0.0039 -0.01172,0 -0.02734,-0.0039 -0.03906,-0.0039 z m -4.832031,0.03516 c -0.0078,0.0039 -0.01563,0.0039 -0.02344,0.0039 0.0078,0 0.01563,0 0.02344,-0.0039 z m 5.0625,0 c 0.0078,0.0039 0.01563,0.0039 0.02344,0.0039 -0.0078,0 -0.01563,0 -0.02344,-0.0039 z M 28.765625,18 c -0.01172,0.0039 -0.02344,0.0078 -0.03516,0.0078 0.01172,0 0.02344,-0.0039 0.03516,-0.0078 z m 5.96875,0 c 0.01172,0.0039 0.02344,0.0078 0.03516,0.0078 -0.01172,0 -0.02344,-0.0039 -0.03516,-0.0078 z m -6.183594,0.04687 c -0.01172,0.0039 -0.02344,0.0078 -0.03516,0.0078 0.01172,0 0.02344,-0.0039 0.03516,-0.0078 z m 6.398438,0 c 0.01172,0.0039 0.02344,0.0078 0.03516,0.0078 -0.01172,0 -0.02344,-0.0039 -0.03516,-0.0078 z m -7.066407,0.167969 c -0.01172,0 -0.01953,0.0039 -0.03125,0.0078 0.01172,-0.0039 0.01953,-0.0078 0.03125,-0.0078 z m 7.734376,0 c 0.01172,0 0.01953,0.0039 0.03125,0.0078 -0.01172,-0.0039 -0.01953,-0.0078 -0.03125,-0.0078 z m -7.933594,0.05469 c -0.01953,0.0039 -0.03516,0.01172 -0.05078,0.01563 0.01563,-0.0039 0.03125,-0.01172 0.05078,-0.01563 z m 8.132812,0 c 0.01953,0.0039 0.03516,0.01172 0.05078,0.01563 -0.01563,-0.0039 -0.03125,-0.01172 -0.05078,-0.01563 z m 21.507813,0.03516 c 0.02344,0.04687 0.05078,0.09375 0.07813,0.144531 -0.02734,-0.05078 -0.05469,-0.09766 -0.07813,-0.144531 z m -51.148438,0 C 6.152344,18.351562 6.125,18.398438 6.101562,18.441406 6.125,18.398438 6.152344,18.351562 6.175781,18.304688 Z m 20.847657,0.171874 c -0.0078,0.0039 -0.01953,0.0078 -0.03125,0.01172 0.01172,-0.0039 0.02344,-0.0078 0.03125,-0.01172 z m 9.453124,0 c 0.0078,0.0039 0.01953,0.0078 0.03125,0.01172 -0.01172,-0.0039 -0.02344,-0.0078 -0.03125,-0.01172 z m -9.660156,0.07422 c -0.0078,0 -0.01953,0.0039 -0.02734,0.0078 0.0078,-0.0039 0.01953,-0.0078 0.02734,-0.0078 z m 9.867188,0 c 0.0078,0 0.01953,0.0039 0.02734,0.0078 -0.0078,-0.0039 -0.01953,-0.0078 -0.02734,-0.0078 z m 20.777344,0.0078 c 0.04297,0.08203 0.08594,0.164062 0.128906,0.25 -0.04297,-0.08594 -0.08594,-0.167969 -0.128906,-0.25 z m -51.425782,0.0078 c -0.039062,0.07031 -0.074218,0.144532 -0.113281,0.214844 0.039063,-0.07031 0.074219,-0.144531 0.113281,-0.214844 z m 20.148438,0.226563 c -0.0078,0.0039 -0.01172,0.0039 -0.01953,0.0078 0.0078,-0.0039 0.01172,-0.0039 0.01953,-0.0078 z m 11.132812,0 c 0.0078,0.0039 0.01172,0.0039 0.01953,0.0078 -0.0078,-0.0039 -0.01172,-0.0039 -0.01953,-0.0078 z m -11.335937,0.08594 c -0.0039,0.0039 -0.01172,0.0039 -0.01563,0.0078 0.0039,-0.0039 0.01172,-0.0039 0.01563,-0.0078 z m 11.539062,0 c 0.0039,0.0039 0.01172,0.0039 0.01563,0.0078 -0.0039,-0.0039 -0.01172,-0.0039 -0.01563,-0.0078 z m 20.121094,0.02344 c 0.02734,0.05078 0.05469,0.105468 0.08203,0.160156 -0.02734,-0.05469 -0.05469,-0.109375 -0.08203,-0.160156 z m -51.78125,0.0039 C 5.832031,18.957006 5.804688,19.007788 5.78125,19.05857 5.804688,19.00779 5.832031,18.957007 5.859375,18.906226 Z m 51.90625,0.246094 c 0.04687,0.08594 0.08984,0.175781 0.132813,0.261718 -0.04297,-0.08594 -0.08594,-0.175781 -0.132813,-0.261718 z m -32.394531,0.0039 c -0.0039,0.0039 -0.01172,0.0078 -0.01563,0.0078 0.0039,0 0.01172,-0.0039 0.01563,-0.0078 z m 12.757812,0 c 0.0039,0.0039 0.01172,0.0078 0.01563,0.0078 -0.0039,0 -0.01172,-0.0039 -0.01563,-0.0078 z M 5.726562,19.16402 C 5.6875,19.246094 5.644531,19.324219 5.605469,19.40625 5.644531,19.324219 5.6875,19.246094 5.726562,19.164062 Z M 25.183594,19.25 c -0.0078,0.0039 -0.01953,0.0078 -0.02734,0.01172 0.0078,-0.0039 0.01953,-0.0078 0.02734,-0.01172 z m 13.132812,0 c 0.0078,0.0039 0.01953,0.0078 0.02734,0.01172 -0.0078,-0.0039 -0.01953,-0.0078 -0.02734,-0.01172 z m 19.632813,0.269531 c 0.02344,0.05078 0.04687,0.101563 0.07422,0.15625 -0.02734,-0.05469 -0.05078,-0.105469 -0.07422,-0.15625 z m -52.398438,0.0039 c -0.023437,0.04687 -0.046875,0.09766 -0.070312,0.148437 0.023437,-0.05078 0.046875,-0.101563 0.070312,-0.148437 z m 52.515625,0.242187 c 0.04297,0.08594 0.08203,0.175781 0.125,0.265625 -0.04297,-0.08984 -0.08203,-0.179688 -0.125,-0.265625 z M 5.414062,19.808588 C 5.378906,19.878898 5.347656,19.953119 5.3125,20.023432 5.347656,19.953122 5.378906,19.8789 5.414062,19.808588 Z m 52.828126,0.339844 c 0.03516,0.07422 0.06641,0.144531 0.101562,0.21875 -0.03516,-0.07422 -0.06641,-0.144532 -0.101562,-0.21875 z m -52.988282,0.0078 c -0.03125,0.0625 -0.058594,0.125 -0.085937,0.1875 0.027343,-0.0625 0.054687,-0.125 0.085937,-0.1875 z m 53.148438,0.351562 c 0.02344,0.04688 0.04297,0.09766 0.06641,0.144532 -0.02344,-0.04687 -0.04297,-0.09766 -0.06641,-0.144532 z m -53.308594,0 c -0.019531,0.04688 -0.039062,0.09375 -0.058594,0.140626 0.019532,-0.04688 0.039063,-0.09375 0.058594,-0.140626 z m 53.433594,0.285157 c 0.03125,0.07031 0.0625,0.144531 0.09375,0.21875 -0.03125,-0.07422 -0.0625,-0.148438 -0.09375,-0.21875 z M 4.96875,20.800781 C 4.941406,20.867188 4.910156,20.933594 4.882812,21 4.910156,20.933594 4.941406,20.867188 4.96875,20.800781 Z m 53.707031,0.34375 c 0.01953,0.04687 0.03906,0.09766 0.05859,0.144531 -0.01953,-0.04687 -0.03906,-0.09766 -0.05859,-0.144531 z m -53.851562,0.0039 c -0.019531,0.04687 -0.039063,0.08984 -0.058594,0.136718 0.019531,-0.04687 0.039063,-0.08984 0.058594,-0.136718 z m 53.980469,0.320312 c 0.02734,0.0625 0.05078,0.125 0.07422,0.1875 -0.02344,-0.0625 -0.04687,-0.125 -0.07422,-0.1875 z m -54.128907,0.04687 c -0.019531,0.04297 -0.035156,0.08984 -0.054687,0.136719 0.019531,-0.04687 0.035156,-0.09375 0.054687,-0.136719 z m 54.257813,0.277344 c 0.01563,0.04687 0.03516,0.09375 0.05078,0.136719 -0.01563,-0.04297 -0.03516,-0.08984 -0.05078,-0.136719 z m -54.367188,0.0078 c -0.019531,0.04297 -0.035156,0.08594 -0.050781,0.128907 0.015625,-0.04297 0.03125,-0.08594 0.050781,-0.128907 z m 54.503906,0.363281 c 0.01953,0.04688 0.03516,0.09375 0.05469,0.144532 -0.01953,-0.05078 -0.03516,-0.09766 -0.05469,-0.144532 z m -54.644531,0.0039 c -0.015625,0.04297 -0.03125,0.08594 -0.046875,0.128906 0.015625,-0.04297 0.03125,-0.08594 0.046875,-0.128906 z m 54.75,0.28125 c 0.02344,0.07031 0.04687,0.140625 0.07422,0.210937 -0.02734,-0.07031 -0.05078,-0.140625 -0.07422,-0.210937 z M 4.316406,22.46875 c -0.019531,0.0625 -0.042968,0.125 -0.0625,0.183594 0.019532,-0.05859 0.042969,-0.121094 0.0625,-0.183594 z m -0.121094,0.351562 c -0.015624,0.04688 -0.03125,0.08984 -0.042968,0.132813 0.011718,-0.04297 0.027344,-0.08594 0.042968,-0.132813 z m 55.109376,0 c 0.01562,0.04688 0.03125,0.08984 0.04297,0.132813 -0.01172,-0.04297 -0.02734,-0.08594 -0.04297,-0.132813 z m 0.125,0.378907 c 0.01562,0.04297 0.02734,0.08594 0.04297,0.128906 -0.01563,-0.04297 -0.02734,-0.08594 -0.04297,-0.128906 z m -55.359376,0 c -0.015624,0.04297 -0.027343,0.08203 -0.039062,0.125 0.011719,-0.04297 0.023438,-0.08203 0.039062,-0.125 z m 55.453126,0.289062 c 0.01172,0.04297 0.02734,0.08594 0.03906,0.128907 -0.01172,-0.04297 -0.02734,-0.08594 -0.03906,-0.128907 z m -55.546876,0.0078 c -0.011718,0.03906 -0.027343,0.07813 -0.039062,0.117187 0.011719,-0.03906 0.027344,-0.07813 0.039062,-0.117187 z m 55.660157,0.367187 c 0.01172,0.04297 0.02734,0.08984 0.03906,0.132813 -0.01172,-0.04297 -0.02734,-0.08984 -0.03906,-0.132813 z m -55.773438,0.0039 c -0.011719,0.04297 -0.027343,0.08203 -0.039062,0.125 0.011719,-0.04297 0.027343,-0.08203 0.039062,-0.125 z m 55.867188,0.316406 c 0.01563,0.05078 0.02734,0.101562 0.04297,0.148437 -0.01563,-0.04687 -0.02734,-0.09766 -0.04297,-0.148437 z m -55.96875,0.01953 c -0.00781,0.03516 -0.015625,0.06641 -0.023438,0.09766 0.00781,-0.03125 0.015625,-0.0625 0.023438,-0.09766 z m 56.070312,0.347656 c 0.01172,0.03906 0.01953,0.07813 0.03125,0.117188 -0.01172,-0.03906 -0.01953,-0.07813 -0.03125,-0.117188 z m -56.164062,0 c -0.011719,0.03906 -0.023438,0.07813 -0.03125,0.113281 0.00781,-0.03516 0.019531,-0.07422 0.03125,-0.113281 z m 56.265625,0.378907 c 0.0078,0.03516 0.01953,0.07422 0.02734,0.109374 -0.0078,-0.03516 -0.01953,-0.07422 -0.02734,-0.109374 z M 3.566406,24.9375 c -0.00781,0.02734 -0.015625,0.05469 -0.023437,0.08203 0.00781,-0.02734 0.015625,-0.05469 0.023437,-0.08203 z m 56.445313,0.300781 c 0.0078,0.03516 0.01563,0.07031 0.02344,0.109375 -0.0078,-0.03906 -0.01563,-0.07422 -0.02344,-0.109375 z M 3.488281,25.25 C 3.480469,25.28125 3.472656,25.3125 3.464844,25.34375 3.472656,25.3125 3.480469,25.28125 3.488281,25.25 Z m -0.089843,0.367188 c -0.00781,0.03516 -0.015626,0.07422 -0.023438,0.109374 0.00781,-0.03516 0.015625,-0.07422 0.023438,-0.109374 z m 56.703124,0 c 0.0078,0.03516 0.01563,0.07422 0.02344,0.109374 -0.0078,-0.03516 -0.01563,-0.07422 -0.02344,-0.109374 z m -41.339843,0.03906 c -0.0039,0.0078 -0.0078,0.01953 -0.01172,0.02734 0.0039,-0.0078 0.0078,-0.01953 0.01172,-0.02734 z m 25.976562,0 c 0.0039,0.0078 0.0078,0.01953 0.01172,0.02734 -0.0039,-0.0078 -0.0078,-0.01953 -0.01172,-0.02734 z m -26.074219,0.199219 c 0,0.0039 -0.0039,0.01172 -0.0078,0.01563 0.0039,-0.0039 0.0078,-0.01172 0.0078,-0.01563 z m 26.171876,0 c 0,0.0039 0.0039,0.01172 0.0078,0.01563 -0.0039,-0.0039 -0.0078,-0.01172 -0.0078,-0.01563 z m 15.339843,0.101562 c 0.0078,0.02344 0.01172,0.05078 0.01953,0.07422 -0.0078,-0.02344 -0.01172,-0.05078 -0.01953,-0.07422 z m -56.855469,0.0039 c -0.00391,0.02344 -0.00781,0.04687 -0.015624,0.07031 0.00781,-0.02344 0.011718,-0.04687 0.015624,-0.07031 z m 56.933594,0.355468 c 0.0078,0.03516 0.01563,0.07031 0.01953,0.105469 -0.0039,-0.03516 -0.01172,-0.07031 -0.01953,-0.105469 z m -57.007812,0.0039 c -0.00781,0.03516 -0.015625,0.06641 -0.019532,0.09766 0.00391,-0.03125 0.011719,-0.0625 0.019532,-0.09766 z m 15.140625,0.144532 c -0.0039,0.0039 -0.0039,0.01172 -0.0078,0.01563 0.0039,-0.0039 0.0039,-0.01172 0.0078,-0.01563 z m 26.726562,0 c 0.0039,0.0039 0.0039,0.01172 0.0078,0.01563 -0.0039,-0.0039 -0.0039,-0.01172 -0.0078,-0.01563 z m -26.8125,0.199218 c -0.0039,0.0078 -0.0039,0.01172 -0.0078,0.01953 0.0039,-0.0078 0.0039,-0.01172 0.0078,-0.01953 z m 26.898438,0 c 0.0039,0.0078 0.0039,0.01172 0.0078,0.01953 -0.0039,-0.0078 -0.0039,-0.01172 -0.0078,-0.01953 z m -42.03125,0.04297 c -0.00391,0.02344 -0.00781,0.04687 -0.011719,0.07031 0.00391,-0.02344 0.00781,-0.04687 0.011719,-0.07031 z m 57.164062,0 c 0.0039,0.02344 0.0078,0.04687 0.01172,0.07031 -0.0039,-0.02344 -0.0078,-0.04687 -0.01172,-0.07031 z M 3.109375,27.035156 c -0.00781,0.02734 -0.011719,0.05469 -0.015625,0.08203 0.00391,-0.02734 0.00781,-0.05469 0.015625,-0.08203 z m 57.28125,0 c 0.0078,0.02734 0.01172,0.05469 0.01563,0.08203 -0.0039,-0.02734 -0.0078,-0.05469 -0.01563,-0.08203 z m -42.332031,0.253906 c -0.0039,0.0078 -0.0078,0.01953 -0.01172,0.03125 0.0039,-0.01172 0.0078,-0.02344 0.01172,-0.03125 z m 27.382812,0 c 0.0039,0.0078 0.0078,0.01953 0.01172,0.03125 -0.0039,-0.01172 -0.0078,-0.02344 -0.01172,-0.03125 z m 15.015625,0.125 c 0.0039,0.02734 0.01172,0.05859 0.01563,0.08594 -0.0039,-0.02734 -0.01172,-0.05859 -0.01563,-0.08594 z m -57.414062,0.0039 c -0.00391,0.02344 -0.00781,0.04687 -0.011719,0.07422 0.00391,-0.02734 0.00781,-0.05078 0.011719,-0.07422 z m 14.949219,0.06641 c -0.0078,0.01563 -0.01172,0.03125 -0.01953,0.04687 0.0078,-0.01563 0.01172,-0.03125 0.01953,-0.04687 z m 27.515624,0 c 0.0078,0.01563 0.01172,0.03125 0.01953,0.04687 -0.0078,-0.01563 -0.01172,-0.03125 -0.01953,-0.04687 z M 60.511719,27.75 c 0.0039,0.02734 0.0078,0.05078 0.01172,0.07422 -0.0039,-0.02344 -0.0078,-0.04687 -0.01172,-0.07422 z M 2.984375,27.76953 c 0,0.01563 -0.00391,0.03125 -0.00781,0.05078 0.00391,-0.01953 0.00781,-0.03516 0.00781,-0.05078 z m 14.859375,0.164063 c -0.0039,0.0078 -0.0039,0.01563 -0.0078,0.02344 0.0039,-0.0078 0.0039,-0.01563 0.0078,-0.02344 z m 27.8125,0 c 0.0039,0.0078 0.0039,0.01563 0.0078,0.02344 -0.0039,-0.0078 -0.0039,-0.01563 -0.0078,-0.02344 z m -27.871094,0.199218 c -0.0039,0.01563 -0.01172,0.03516 -0.01563,0.05078 0.0039,-0.01563 0.01172,-0.03516 0.01563,-0.05078 z m 27.929688,0 c 0.0039,0.01563 0.01172,0.03516 0.01563,0.05078 -0.0039,-0.01563 -0.01172,-0.03516 -0.01563,-0.05078 z m 14.851562,0 c 0.0039,0.02344 0.0078,0.05078 0.01172,0.07422 -0.0039,-0.02344 -0.0078,-0.05078 -0.01172,-0.07422 z m -57.632812,0 c -0.00391,0.02344 -0.00781,0.04688 -0.011719,0.07031 0.00391,-0.02344 0.00781,-0.04687 0.011719,-0.07031 z m 14.792968,0.210938 c -0.0078,0.01563 -0.01172,0.02734 -0.01562,0.04297 0.0039,-0.01563 0.0078,-0.02734 0.01562,-0.04297 z m 28.046876,0 c 0.0078,0.01563 0.01172,0.02734 0.01562,0.04297 -0.0039,-0.01563 -0.0078,-0.02734 -0.01562,-0.04297 z m 14.847656,0.175781 c 0,0.01953 0.0039,0.03906 0.0039,0.05469 0,-0.01563 -0.0039,-0.03516 -0.0039,-0.05469 z m -57.742188,0 c 0,0.01953 -0.00391,0.03516 -0.00391,0.05469 0,-0.01953 0.00391,-0.03516 0.00391,-0.05469 z m -0.039062,0.32422 c 0,0.03125 -0.00391,0.0625 -0.00781,0.08984 0.00391,-0.02734 0.00781,-0.05859 0.00781,-0.08984 z m 57.820312,0 c 0,0.03125 0.0039,0.0625 0.0078,0.08984 -0.0039,-0.02734 -0.0078,-0.05859 -0.0078,-0.08984 z m -14.71875,0.164062 c 0.0039,0.01953 0.0078,0.03906 0.01172,0.05859 -0.0039,-0.01953 -0.0078,-0.03906 -0.01172,-0.05859 z m -28.382812,0 c -0.0039,0.01563 -0.0078,0.03516 -0.01172,0.05078 0.0039,-0.01563 0.0078,-0.03516 0.01172,-0.05078 z m 28.429687,0.207032 c 0.0039,0.01953 0.0078,0.03906 0.01172,0.05859 -0.0039,-0.01953 -0.0078,-0.03906 -0.01172,-0.05859 z m -28.476562,0.0039 c -0.0039,0.01953 -0.0078,0.03516 -0.01172,0.05469 0.0039,-0.01953 0.0078,-0.03516 0.01172,-0.05469 z m 43.191406,0.02344 c 0,0.02344 0.0039,0.04297 0.0039,0.06641 0,-0.02344 -0.0039,-0.04297 -0.0039,-0.06641 z m -57.90625,0.0039 c 0,0.01953 -0.00391,0.03906 -0.00391,0.05859 0,-0.01953 0.00391,-0.03906 0.00391,-0.05859 z m 57.9375,0.34375 c 0.0039,0.02344 0.0039,0.04297 0.0078,0.0625 -0.0039,-0.01953 -0.0039,-0.03906 -0.0078,-0.0625 z m -57.96875,0 c -0.00391,0.02344 -0.00391,0.04297 -0.00781,0.0625 0.00391,-0.01953 0.00391,-0.03906 0.00781,-0.0625 z m 14.65625,0.101562 c -0.0039,0.01563 -0.0078,0.03125 -0.0078,0.04297 0,-0.01172 0.0039,-0.02734 0.0078,-0.04297 z m 28.65625,0 c 0.0039,0.01563 0.0078,0.03125 0.0078,0.04297 0,-0.01172 -0.0039,-0.02734 -0.0078,-0.04297 z m 0.03516,0.207032 c 0.0039,0.02344 0.0078,0.04297 0.01172,0.06641 -0.0039,-0.02344 -0.0078,-0.04297 -0.01172,-0.06641 z m -28.726562,0.0039 c -0.0039,0.01953 -0.0078,0.03906 -0.01172,0.05859 0.0039,-0.01953 0.0078,-0.03906 0.01172,-0.05859 z m 43.378906,0.06641 c 0.0039,0.02734 0.0039,0.05078 0.0078,0.07422 -0.0039,-0.02344 -0.0039,-0.04687 -0.0078,-0.07422 z m -58.03125,0.0039 c -0.00391,0.02344 -0.00391,0.04687 -0.00781,0.07031 0.00391,-0.02344 0.00391,-0.04687 0.00781,-0.07031 z m 43.414063,0.140625 c 0.0039,0.01953 0.0039,0.04297 0.0078,0.0625 -0.0039,-0.01953 -0.0039,-0.04297 -0.0078,-0.0625 z m -28.796876,0.0078 c -0.0039,0.01563 -0.0039,0.03516 -0.0078,0.05469 0.0039,-0.01953 0.0039,-0.03906 0.0078,-0.05469 z m -14.648437,0.25 c 0,0.0078 0,0.01172 0,0.01953 0,-0.0078 0,-0.01172 0,-0.01953 z m 58.09375,0 c 0,0.0078 0,0.01172 0,0.01953 0,-0.0078 0,-0.01172 0,-0.01953 z M 17.289062,30.59375 c 0,0.02344 -0.0039,0.04687 -0.0078,0.06641 0.0039,-0.01953 0.0078,-0.04297 0.0078,-0.06641 z m 28.921876,0 c 0,0.02344 0.0039,0.04687 0.0078,0.06641 -0.0039,-0.01953 -0.0078,-0.04297 -0.0078,-0.06641 z M 2.6875,30.707031 c -0.00391,0.02344 -0.00391,0.04687 -0.00391,0.07031 0,-0.02344 0,-0.04687 0.00391,-0.07031 z m 58.125,0 c 0.0039,0.02344 0.0039,0.04687 0.0039,0.07031 0,-0.02344 0,-0.04687 -0.0039,-0.07031 z M 17.269531,30.8125 c -0.0039,0.02344 -0.0078,0.04297 -0.0078,0.06641 0,-0.02344 0.0039,-0.04297 0.0078,-0.06641 z m 28.960938,0 c 0.0039,0.02344 0.0078,0.04297 0.0078,0.06641 0,-0.02344 -0.0039,-0.04297 -0.0078,-0.06641 z m -28.984375,0.222656 c 0,0.01953 0,0.03906 -0.0039,0.05859 0.0039,-0.01953 0.0039,-0.03906 0.0039,-0.05859 z m 29.007812,0 c 0,0.01953 0,0.03906 0.0039,0.05859 -0.0039,-0.01953 -0.0039,-0.03906 -0.0039,-0.05859 z m -43.585937,0.06641 c 0,0.01953 0,0.03906 -0.00391,0.05859 0.00391,-0.01953 0.00391,-0.03906 0.00391,-0.05859 z m 58.164062,0 c 0,0.01953 0,0.03906 0.0039,0.05859 -0.0039,-0.01953 -0.0039,-0.03906 -0.0039,-0.05859 z M 2.65625,31.464844 c 0,0.01563 0,0.03125 0,0.04687 0,-0.01563 0,-0.03125 0,-0.04687 z m 58.1875,0 c 0,0.01563 0,0.03125 0,0.04687 0,-0.01563 0,-0.03125 0,-0.04687 z m -43.628906,0.05859 c 0,0.02344 0,0.04687 -0.0039,0.07031 0.0039,-0.02344 0.0039,-0.04687 0.0039,-0.07031 z m 29.070312,0 c 0,0.02344 0,0.04687 0.0039,0.07031 -0.0039,-0.02344 -0.0039,-0.04687 -0.0039,-0.07031 z m -29.078125,0.210937 c 0,0.02734 0,0.05469 -0.0039,0.08203 0.0039,-0.02734 0.0039,-0.05469 0.0039,-0.08203 z m 29.085938,0 c 0,0.02734 0,0.05469 0.0039,0.08203 -0.0039,-0.02734 -0.0039,-0.05469 -0.0039,-0.08203 z M 2.648438,31.84375 c 0,0.01953 0,0.04297 0,0.0625 0,-0.01953 0,-0.04297 0,-0.0625 z m 58.203124,0 c 0,0.01953 0,0.04297 0,0.0625 0,-0.01953 0,-0.04297 0,-0.0625 z m -43.652343,0.128906 c 0,0.01953 0,0.03906 0,0.05859 0,-0.01953 0,-0.03906 0,-0.05859 z m 29.101562,0 c 0,0.01953 0,0.03906 0,0.05859 0,-0.01953 0,-0.03906 0,-0.05859 z M 17.199219,32.46875 c 0,0.01953 0,0.03906 0,0.05859 0,-0.01953 0,-0.03906 0,-0.05859 z m 29.101562,0 c 0,0.01953 0,0.03906 0,0.05859 0,-0.01953 0,-0.03906 0,-0.05859 z m -43.652343,0.125 c 0,0.01953 0,0.04297 0,0.0625 0,-0.01953 0,-0.04297 0,-0.0625 z m 58.203124,0 c 0,0.01953 0,0.04297 0,0.0625 0,-0.01953 0,-0.04297 0,-0.0625 z m -43.648437,0.08984 c 0.0039,0.02734 0.0039,0.05469 0.0039,0.08203 0,-0.02734 0,-0.05469 -0.0039,-0.08203 z m 29.09375,0 c -0.0039,0.02734 -0.0039,0.05469 -0.0039,0.08203 0,-0.02734 0,-0.05469 0.0039,-0.08203 z m -29.085937,0.22266 c 0.0039,0.02344 0.0039,0.04687 0.0039,0.07031 0,-0.02344 0,-0.04687 -0.0039,-0.07031 z m 29.078124,0 c -0.0039,0.02344 -0.0039,0.04687 -0.0039,0.07031 0,-0.02344 0,-0.04687 0.0039,-0.07031 z M 2.65625,32.988281 c 0,0.01563 0,0.03125 0,0.04687 0,-0.01563 0,-0.03125 0,-0.04687 z m 58.1875,0 c 0,0.01563 0,0.03125 0,0.04687 0,-0.01563 0,-0.03125 0,-0.04687 z M 2.664062,33.335938 c 0.00391,0.02344 0.00391,0.04297 0.00391,0.0625 0,-0.01953 0,-0.03906 -0.00391,-0.0625 z m 58.171876,0 c -0.0039,0.02344 -0.0039,0.04297 -0.0039,0.0625 0,-0.01953 0,-0.03906 0.0039,-0.0625 z m -43.59375,0.07031 c 0.0039,0.01953 0.0039,0.03906 0.0039,0.05859 0,-0.01953 0,-0.03906 -0.0039,-0.05859 z m 29.015624,0 c -0.0039,0.01953 -0.0039,0.03906 -0.0039,0.05859 0,-0.01953 0,-0.03906 0.0039,-0.05859 z m -28.996093,0.214844 c 0,0.02344 0.0039,0.04297 0.0078,0.06641 -0.0039,-0.02344 -0.0078,-0.04297 -0.0078,-0.06641 z m 28.976562,0 c 0,0.02344 -0.0039,0.04297 -0.0078,0.06641 0.0039,-0.02344 0.0078,-0.04297 0.0078,-0.06641 z M 2.683594,33.722656 c 0,0.02344 0,0.04687 0.00391,0.07031 -0.00391,-0.02344 -0.00391,-0.04687 -0.00391,-0.07031 z m 58.132812,0 c 0,0.02344 0,0.04687 -0.0039,0.07031 0.0039,-0.02344 0.0039,-0.04687 0.0039,-0.07031 z M 17.28125,33.839844 c 0.0039,0.01953 0.0078,0.04297 0.0078,0.06641 0,-0.02344 -0.0039,-0.04687 -0.0078,-0.06641 z m 28.9375,0 c -0.0039,0.01953 -0.0078,0.04297 -0.0078,0.06641 0,-0.02344 0.0039,-0.04687 0.0078,-0.06641 z M 2.703125,34.109375 c 0,0.0078 0,0.01172 0,0.01953 0,-0.0078 0,-0.01172 0,-0.01953 z m 58.09375,0 c 0,0.0078 0,0.01172 0,0.01953 0,-0.0078 0,-0.01172 0,-0.01953 z M 46.15625,34.324219 c -0.0039,0.01953 -0.0039,0.04297 -0.0078,0.0625 0.0039,-0.01953 0.0039,-0.04297 0.0078,-0.0625 z m -28.8125,0 c 0.0039,0.01953 0.0039,0.03906 0.0078,0.05469 -0.0039,-0.01563 -0.0039,-0.03516 -0.0078,-0.05469 z m 43.429688,0.132812 c -0.0039,0.02344 -0.0039,0.04687 -0.0078,0.07031 0.0039,-0.02344 0.0039,-0.04687 0.0078,-0.07031 z m -58.046876,0 c 0.00391,0.02344 0.00391,0.04687 0.00781,0.07031 -0.00391,-0.02344 -0.00391,-0.04687 -0.00781,-0.07031 z M 46.125,34.535156 c -0.0039,0.02344 -0.0078,0.04297 -0.01172,0.06641 0.0039,-0.02344 0.0078,-0.04297 0.01172,-0.06641 z m -28.75,0.0039 c 0.0039,0.01953 0.0078,0.03906 0.01172,0.05859 -0.0039,-0.01953 -0.0078,-0.03906 -0.01172,-0.05859 z m 0.03906,0.226563 c 0,0.01172 0.0039,0.02734 0.0078,0.04297 -0.0039,-0.01563 -0.0078,-0.03125 -0.0078,-0.04297 z m 28.671876,0 c 0,0.01172 -0.0039,0.02734 -0.0078,0.04297 0.0039,-0.01563 0.0078,-0.03125 0.0078,-0.04297 z m 14.65625,0.08203 c -0.0039,0.01953 -0.0039,0.03906 -0.0078,0.0625 0.0039,-0.02344 0.0039,-0.04297 0.0078,-0.0625 z m -57.984376,0 c 0.00391,0.01953 0.00391,0.03906 0.00781,0.05859 -0.00391,-0.01953 -0.00391,-0.03906 -0.00781,-0.05859 z m 57.949219,0.34375 c 0,0.02344 -0.0039,0.04297 -0.0039,0.0625 0,-0.01953 0.0039,-0.03906 0.0039,-0.0625 z m -57.914062,0.0039 c 0,0.01953 0.00391,0.03906 0.00391,0.05859 0,-0.01953 -0.00391,-0.03906 -0.00391,-0.05859 z M 46,35.226562 c -0.0039,0.01953 -0.0078,0.03906 -0.01172,0.05859 0.0039,-0.01953 0.0078,-0.03906 0.01172,-0.05859 z m -28.5,0 c 0.0039,0.01953 0.0078,0.03516 0.01172,0.05078 -0.0039,-0.01563 -0.0078,-0.03125 -0.01172,-0.05078 z M 45.953125,35.4375 c -0.0039,0.01563 -0.0078,0.03516 -0.01172,0.05469 0.0039,-0.01953 0.0078,-0.03906 0.01172,-0.05469 z m -28.40625,0.0039 c 0.0039,0.01563 0.0078,0.03516 0.01172,0.05078 -0.0039,-0.01563 -0.0078,-0.03516 -0.01172,-0.05078 z m -14.714844,0.125 c 0.00391,0.02734 0.00781,0.05859 0.00781,0.08984 0,-0.03125 -0.00391,-0.0625 -0.00781,-0.08984 z m 57.835938,0 c -0.0039,0.02734 -0.0078,0.05859 -0.0078,0.08984 0,-0.03125 0.0039,-0.0625 0.0078,-0.08984 z M 60.625,35.925781 c 0,0.01563 -0.0039,0.03516 -0.0039,0.05469 0,-0.01953 0.0039,-0.03906 0.0039,-0.05469 z m -57.75,0 c 0,0.01953 0.00391,0.03516 0.00391,0.05469 0,-0.01953 -0.00391,-0.03516 -0.00391,-0.05469 z m 14.835938,0.1875 c 0.0039,0.01563 0.0078,0.02734 0.01562,0.04297 -0.0078,-0.01563 -0.01172,-0.02734 -0.01562,-0.04297 z m 28.078124,0 c -0.0039,0.01563 -0.0078,0.02734 -0.01562,0.04297 0.0078,-0.01563 0.01172,-0.02734 0.01562,-0.04297 z M 2.921875,36.292969 c 0.00391,0.02344 0.00781,0.05078 0.011719,0.07422 -0.00391,-0.02344 -0.00781,-0.05078 -0.011719,-0.07422 z m 57.65625,0 c -0.0039,0.02344 -0.0078,0.05078 -0.01172,0.07422 0.0039,-0.02344 0.0078,-0.05078 0.01172,-0.07422 z m -42.808594,0.02344 c 0.0039,0.01563 0.01172,0.03516 0.01563,0.05078 -0.0039,-0.01563 -0.01172,-0.03516 -0.01563,-0.05078 z m 27.960938,0 c -0.0039,0.01563 -0.01172,0.03516 -0.01563,0.05078 0.0039,-0.01563 0.01172,-0.03516 0.01563,-0.05078 z m -27.894531,0.226563 c 0.0039,0.0078 0.0039,0.01563 0.0078,0.02344 -0.0039,-0.0078 -0.0039,-0.01563 -0.0078,-0.02344 z m 27.828124,0 c -0.0039,0.0078 -0.0039,0.01563 -0.0078,0.02344 0.0039,-0.0078 0.0039,-0.01563 0.0078,-0.02344 z m 14.859376,0.132812 c -0.0039,0.02344 -0.0078,0.04687 -0.01172,0.07422 0.0039,-0.02734 0.0078,-0.05078 0.01172,-0.07422 z m -57.546876,0.0039 c 0.00391,0.01953 0.00781,0.03516 0.00781,0.05078 0,-0.01563 -0.00391,-0.03125 -0.00781,-0.05078 z m 14.996094,0.289062 c 0.0078,0.01563 0.01172,0.03125 0.01953,0.04687 -0.0078,-0.01563 -0.01172,-0.03125 -0.01953,-0.04687 z m 27.554688,0 c -0.0078,0.01563 -0.01172,0.03125 -0.01953,0.04687 0.0078,-0.01563 0.01172,-0.03125 0.01953,-0.04687 z M 60.472656,37 c -0.0039,0.02734 -0.01172,0.05469 -0.01563,0.08594 0.0039,-0.03125 0.01172,-0.05859 0.01563,-0.08594 z M 3.03125,37.0078 c 0.00391,0.02734 0.00781,0.05078 0.011719,0.07422 C 3.039059,37.05858 3.035159,37.03515 3.03125,37.0078 Z m 15.015625,0.171876 c 0.0039,0.01172 0.0078,0.02344 0.01172,0.03125 -0.0039,-0.0078 -0.0078,-0.01953 -0.01172,-0.03125 z m 27.40625,0 c -0.0039,0.01172 -0.0078,0.02344 -0.01172,0.03125 0.0039,-0.0078 0.0078,-0.01953 0.01172,-0.03125 z M 3.09375,37.382812 c 0.00391,0.02734 0.00781,0.05469 0.015625,0.08203 -0.00781,-0.02734 -0.011719,-0.05469 -0.015625,-0.08203 z m 57.3125,0 c -0.0039,0.02734 -0.0078,0.05469 -0.01563,0.08203 0.0078,-0.02734 0.01172,-0.05469 0.01563,-0.08203 z m -57.25,0.339844 c 0.00391,0.02344 0.00781,0.04687 0.011719,0.07031 -0.00391,-0.02344 -0.00781,-0.04687 -0.011719,-0.07031 z m 57.1875,0 c -0.0039,0.02344 -0.0078,0.04687 -0.01172,0.07031 0.0039,-0.02344 0.0078,-0.04687 0.01172,-0.07031 z m -42.050781,0.09375 c 0.0039,0.0078 0.0039,0.01172 0.0078,0.01953 -0.0039,-0.0078 -0.0039,-0.01172 -0.0078,-0.01953 z m 26.914062,0 c -0.0039,0.0078 -0.0039,0.01172 -0.0078,0.01953 0.0039,-0.0078 0.0039,-0.01172 0.0078,-0.01953 z m -26.828125,0.203125 c 0.0039,0.0039 0.0039,0.01172 0.0078,0.01563 -0.0039,-0.0039 -0.0039,-0.01172 -0.0078,-0.01563 z m 26.742188,0 c -0.0039,0.0039 -0.0039,0.01172 -0.0078,0.01563 0.0039,-0.0039 0.0039,-0.01172 0.0078,-0.01563 z m 15.152344,0.05859 c -0.0039,0.03516 -0.01172,0.07031 -0.01953,0.105469 0.0078,-0.03516 0.01563,-0.07031 0.01953,-0.105469 z m -57.046876,0.0039 c 0.00391,0.03125 0.011719,0.0625 0.019532,0.09766 -0.00781,-0.03516 -0.015625,-0.06641 -0.019532,-0.09766 z m 56.96875,0.386719 c -0.0078,0.02344 -0.01172,0.05078 -0.01953,0.07422 0.0078,-0.02344 0.01172,-0.05078 0.01953,-0.07422 z m -56.890624,0 c 0.00781,0.02344 0.011718,0.04687 0.015624,0.07031 -0.00391,-0.02344 -0.00781,-0.04687 -0.015624,-0.07031 z m 15.351562,0.160156 c 0.0039,0.0039 0.0078,0.0078 0.0078,0.01563 0,-0.0078 -0.0039,-0.01172 -0.0078,-0.01563 z m 26.1875,0 c -0.0039,0.0039 -0.0078,0.0078 -0.0078,0.01563 0,-0.0078 0.0039,-0.01172 0.0078,-0.01563 z M 3.375,38.769531 c 0.00781,0.03906 0.015625,0.07813 0.023438,0.113281 C 3.390625,38.847656 3.382812,38.808594 3.375,38.769531 Z m 56.75,0 c -0.0078,0.03906 -0.01563,0.07813 -0.02344,0.113281 0.0078,-0.03516 0.01563,-0.07422 0.02344,-0.113281 z m -41.375,0.04687 c 0.0039,0.0078 0.0078,0.01953 0.01172,0.02734 -0.0039,-0.0078 -0.0078,-0.01953 -0.01172,-0.02734 z m 26,0 c -0.0039,0.0078 -0.0078,0.01953 -0.01172,0.02734 0.0039,-0.0078 0.0078,-0.01953 0.01172,-0.02734 z m 15.285156,0.335938 c -0.0078,0.03906 -0.01563,0.07422 -0.02344,0.109375 0.0078,-0.03516 0.01563,-0.07031 0.02344,-0.109375 z M 3.464844,39.15625 C 3.472656,39.1875 3.480469,39.21875 3.488281,39.25 3.480469,39.21875 3.472656,39.1875 3.464844,39.15625 Z m 15.5,0.06641 -12.785156,6.976563 c 2.671874,4.90625 6.714843,8.949219 11.621093,11.621093 L 24.777344,45.03516 c -2.457032,-1.335937 -4.476563,-3.355468 -5.8125,-5.8125 z m 25.570312,0 c -1.335937,2.457032 -3.355468,4.476563 -5.8125,5.8125 l 6.976563,12.785156 c 4.90625,-2.671874 8.949219,-6.714843 11.621093,-11.621093 z m 15.425782,0.238282 c -0.0078,0.03516 -0.01953,0.07422 -0.02734,0.109374 0.0078,-0.03516 0.01953,-0.07422 0.02734,-0.109374 z m -56.417969,0.01953 c 0.00781,0.02734 0.015625,0.05469 0.023437,0.08203 -0.00781,-0.02734 -0.015625,-0.05469 -0.023437,-0.08203 z m 56.320312,0.351562 c -0.01172,0.03906 -0.01953,0.07813 -0.03125,0.117188 0.01172,-0.03906 0.01953,-0.07813 0.03125,-0.117188 z m -56.226562,0.0039 c 0.00781,0.03516 0.019531,0.07422 0.03125,0.113281 -0.011719,-0.03906 -0.023438,-0.07813 -0.03125,-0.113281 z m 56.136719,0.332031 c -0.01563,0.04687 -0.02734,0.09766 -0.04297,0.148437 0.01563,-0.05078 0.02734,-0.101562 0.04297,-0.148437 z m -56.035157,0.03125 c 0.00781,0.03125 0.015625,0.0625 0.023438,0.09766 -0.00781,-0.03516 -0.015625,-0.06641 -0.023438,-0.09766 z m 55.9375,0.304687 c -0.01172,0.04297 -0.02734,0.08984 -0.03906,0.132813 0.01172,-0.04297 0.02734,-0.08984 0.03906,-0.132813 z m -55.851562,0.0039 c 0.011719,0.04297 0.027343,0.08203 0.039062,0.125 -0.011719,-0.04297 -0.027343,-0.08203 -0.039062,-0.125 z m 55.738281,0.375 c -0.01172,0.04297 -0.02734,0.08594 -0.03906,0.128907 0.01172,-0.04297 0.02734,-0.08594 0.03906,-0.128907 z m -55.625,0 c 0.011719,0.04297 0.027344,0.08203 0.039062,0.121094 C 3.964844,40.964844 3.949219,40.925781 3.9375,40.882812 Z m 55.535156,0.289063 c -0.01563,0.04297 -0.02734,0.08594 -0.04297,0.128906 0.01562,-0.04297 0.02734,-0.08594 0.04297,-0.128906 z m -55.441406,0.0039 c 0.011719,0.04297 0.023438,0.08203 0.039062,0.125 -0.015624,-0.04297 -0.027343,-0.08203 -0.039062,-0.125 z m 0.121094,0.371094 c 0.011718,0.04297 0.027344,0.08594 0.042968,0.132813 -0.015624,-0.04688 -0.03125,-0.08984 -0.042968,-0.132813 z m 55.195312,0 c -0.01172,0.04297 -0.02734,0.08594 -0.04297,0.132813 0.01562,-0.04688 0.03125,-0.08984 0.04297,-0.132813 z M 59.25,41.839844 c -0.02734,0.07031 -0.05078,0.140625 -0.07422,0.210937 0.02344,-0.07031 0.04687,-0.140625 0.07422,-0.210937 z m -54.996094,0.0078 c 0.019532,0.05859 0.042969,0.121094 0.0625,0.183594 -0.019531,-0.0625 -0.042968,-0.125 -0.0625,-0.183594 z M 59.125,42.191406 c -0.01953,0.05078 -0.03516,0.09766 -0.05469,0.144532 0.01953,-0.04688 0.03516,-0.09375 0.05469,-0.144532 z m -54.746094,0.01172 c 0.015625,0.04297 0.03125,0.08594 0.046875,0.128906 -0.015625,-0.04297 -0.03125,-0.08594 -0.046875,-0.128906 z m 54.605469,0.367187 c -0.01563,0.04297 -0.03516,0.08984 -0.05078,0.136719 0.01563,-0.04687 0.03516,-0.09375 0.05078,-0.136719 z m -54.46875,0 c 0.015625,0.04297 0.03125,0.08594 0.050781,0.128907 C 4.546875,42.65625 4.53125,42.613281 4.515625,42.570313 Z m 54.363281,0.273438 c -0.02344,0.0625 -0.04687,0.125 -0.07422,0.1875 0.02734,-0.0625 0.05078,-0.125 0.07422,-0.1875 z m -54.257812,0.0039 c 0.019531,0.04687 0.035156,0.09375 0.054687,0.136719 C 4.65625,42.9414 4.640625,42.89453 4.621094,42.847651 Z m 54.113281,0.363282 c -0.01953,0.04687 -0.03906,0.09766 -0.05859,0.144531 0.01953,-0.04687 0.03906,-0.09766 0.05859,-0.144531 z m -53.96875,0.0039 c 0.019531,0.04687 0.039063,0.08984 0.058594,0.136718 -0.019531,-0.04687 -0.039063,-0.08984 -0.058594,-0.136718 z m 53.855469,0.273437 c -0.03125,0.07422 -0.0625,0.148438 -0.09375,0.21875 0.03125,-0.07031 0.0625,-0.144531 0.09375,-0.21875 z M 4.882812,43.5 C 4.910156,43.56641 4.941406,43.632812 4.96875,43.699219 4.941406,43.632812 4.910156,43.566406 4.882812,43.5 Z m 53.585938,0.347656 c -0.02344,0.04687 -0.04297,0.09766 -0.06641,0.144532 0.02344,-0.04688 0.04297,-0.09766 0.06641,-0.144532 z m -53.433594,0.0039 c 0.019532,0.04688 0.039063,0.09375 0.058594,0.140626 -0.019531,-0.04688 -0.039062,-0.09375 -0.058594,-0.140626 z m 53.308594,0.28125 c -0.03516,0.07422 -0.06641,0.144532 -0.101562,0.21875 0.03516,-0.07422 0.06641,-0.144531 0.101562,-0.21875 z M 5.167969,44.15625 c 0.027343,0.0625 0.054687,0.125 0.085937,0.1875 -0.03125,-0.0625 -0.058594,-0.125 -0.085937,-0.1875 z m 53.023437,0.3125 c -0.04297,0.08984 -0.08203,0.179688 -0.125,0.265625 0.04297,-0.08594 0.08203,-0.175781 0.125,-0.265625 z M 5.3125,44.476562 c 0.035156,0.07031 0.066406,0.144532 0.101562,0.214844 C 5.378906,44.621094 5.347656,44.546875 5.3125,44.476562 Z m 52.710938,0.347657 c -0.02734,0.05469 -0.05078,0.105469 -0.07422,0.15625 0.02344,-0.05078 0.04687,-0.101563 0.07422,-0.15625 z m -52.542969,0.0039 c 0.023437,0.05078 0.046875,0.101563 0.070312,0.148437 -0.023437,-0.04687 -0.046875,-0.09766 -0.070312,-0.148437 z m 52.417969,0.257813 c -0.04297,0.08594 -0.08594,0.175781 -0.132813,0.261718 0.04687,-0.08594 0.08984,-0.175781 0.132813,-0.261718 z M 5.605469,45.09375 C 5.644531,45.175781 5.6875,45.253906 5.726562,45.335938 5.6875,45.253906 5.644531,45.175781 5.605469,45.09375 Z m 19.550781,0.144531 c 0.0078,0.0039 0.01953,0.0078 0.02734,0.01172 -0.0078,-0.0039 -0.01953,-0.0078 -0.02734,-0.01172 z m 13.1875,0 c -0.0078,0.0039 -0.01953,0.0078 -0.02734,0.01172 0.0078,-0.0039 0.01953,-0.0078 0.02734,-0.01172 z m -12.992188,0.09375 c 0.0078,0.0039 0.01563,0.0078 0.02344,0.01172 -0.0078,-0.0039 -0.01563,-0.0078 -0.02344,-0.01172 z m 12.796876,0 c -0.0078,0.0039 -0.01563,0.0078 -0.02344,0.01172 0.0078,-0.0039 0.01563,-0.0078 0.02344,-0.01172 z M 57.722656,45.4375 c -0.02734,0.05469 -0.05469,0.105469 -0.08203,0.160156 0.02734,-0.05469 0.05469,-0.105468 0.08203,-0.160156 z M 5.78125,45.4414 c 0.023438,0.05078 0.050781,0.101563 0.078125,0.152344 C 5.832031,45.542969 5.804688,45.492188 5.78125,45.441406 Z m 20.175781,0.171875 c 0.01172,0.0039 0.02344,0.0078 0.03516,0.01172 -0.01172,-0.0039 -0.02344,-0.0078 -0.03516,-0.01172 z m 11.585938,0 c -0.01172,0.0039 -0.02344,0.0078 -0.03516,0.01172 0.01172,-0.0039 0.02344,-0.0078 0.03516,-0.01172 z m 20.046875,0.07813 c -0.04297,0.08594 -0.08594,0.167969 -0.128906,0.25 0.04297,-0.08203 0.08594,-0.164062 0.128906,-0.25 z m -31.429688,0.0039 c 0.0078,0.0039 0.01563,0.0078 0.02734,0.01172 -0.01172,-0.0039 -0.01953,-0.0078 -0.02734,-0.01172 z m 11.179688,0 c -0.0078,0.0039 -0.01563,0.0078 -0.02734,0.01172 0.01172,-0.0039 0.01953,-0.0078 0.02734,-0.01172 z M 5.921875,45.71875 c 0.039063,0.07031 0.074219,0.144531 0.113281,0.214844 C 5.996094,45.863281 5.960938,45.789062 5.921875,45.71875 Z m 20.664063,0.148438 c 0.0078,0 0.01172,0.0039 0.01953,0.0078 -0.0078,-0.0039 -0.01172,-0.0078 -0.01953,-0.0078 z m 10.328124,0 c -0.0078,0 -0.01172,0.0039 -0.01953,0.0078 0.0078,-0.0039 0.01172,-0.0078 0.01953,-0.0078 z M 26.785156,45.9375 c 0.01172,0.0078 0.02344,0.01172 0.03516,0.01563 -0.01172,-0.0039 -0.02344,-0.0078 -0.03516,-0.01563 z m 9.929688,0 c -0.01172,0.0078 -0.02344,0.01172 -0.03516,0.01563 0.01172,-0.0039 0.02344,-0.0078 0.03516,-0.01563 z m -9.730469,0.07031 c 0.01563,0.0078 0.03125,0.01172 0.04687,0.01953 -0.01563,-0.0078 -0.03125,-0.01172 -0.04687,-0.01953 z m 9.53125,0 c -0.01563,0.0078 -0.03125,0.01172 -0.04687,0.01953 0.01563,-0.0078 0.03125,-0.01172 0.04687,-0.01953 z m 20.886719,0.04297 c -0.02734,0.05078 -0.05469,0.09766 -0.07813,0.144531 0.02344,-0.04687 0.05078,-0.09375 0.07813,-0.144531 z M 6.101562,46.05858 C 6.125,46.101562 6.152344,46.148438 6.175781,46.195312 6.152344,46.148438 6.125,46.101562 6.101562,46.058594 Z m 21.332032,0.09766 c 0.0078,0.0039 0.01563,0.0039 0.02344,0.0078 -0.0078,-0.0039 -0.01563,-0.0039 -0.02344,-0.0078 z m 8.632812,0 c -0.0078,0.0039 -0.01563,0.0039 -0.02344,0.0078 0.0078,-0.0039 0.01563,-0.0039 0.02344,-0.0078 z m -8.4375,0.05859 c 0.01953,0.0039 0.03906,0.01172 0.05469,0.01563 -0.01563,-0.0039 -0.03516,-0.01172 -0.05469,-0.01563 z m 8.242188,0 c -0.01953,0.0039 -0.03906,0.01172 -0.05469,0.01563 0.01563,-0.0039 0.03516,-0.01172 0.05469,-0.01563 z m -8.027344,0.05859 c 0.01172,0.0078 0.02734,0.01172 0.04297,0.01562 -0.01563,-0.0039 -0.03125,-0.0078 -0.04297,-0.01562 z m 7.8125,0 c -0.01172,0.0078 -0.02734,0.01172 -0.04297,0.01562 0.01563,-0.0039 0.03125,-0.0078 0.04297,-0.01562 z m -7.351562,0.121093 c 0.0078,0.0039 0.01172,0.0039 0.01953,0.0039 -0.0078,0 -0.01172,0 -0.01953,-0.0039 z m 6.890624,0 c -0.0078,0.0039 -0.01172,0.0039 -0.01953,0.0039 0.0078,0 0.01172,0 0.01953,-0.0039 z m -6.6875,0.04687 c 0.01563,0.0039 0.03516,0.0078 0.05078,0.01172 -0.01563,-0.0039 -0.03516,-0.0078 -0.05078,-0.01172 z m 6.484376,0 c -0.01563,0.0039 -0.03516,0.0078 -0.05078,0.01172 0.01563,-0.0039 0.03516,-0.0078 0.05078,-0.01172 z m -6.273438,0.04687 c 0.01953,0.0039 0.03516,0.0078 0.05469,0.01172 -0.01953,-0.0039 -0.03516,-0.0078 -0.05469,-0.01172 z m 6.0625,0 c -0.01953,0.0039 -0.03516,0.0078 -0.05469,0.01172 0.01953,-0.0039 0.03516,-0.0078 0.05469,-0.01172 z m -5.59375,0.08984 c 0.01953,0.0039 0.03516,0.0078 0.05078,0.0078 -0.01563,0 -0.03125,-0.0039 -0.05078,-0.0078 z m 5.125,0 c -0.01953,0.0039 -0.03516,0.0078 -0.05078,0.0078 0.01563,0 0.03125,-0.0039 0.05078,-0.0078 z m -4.914062,0.03516 c 0.02344,0.0039 0.04297,0.0078 0.06641,0.01172 -0.02344,-0.0039 -0.04297,-0.0078 -0.06641,-0.01172 z m 4.703124,0 c -0.02344,0.0039 -0.04297,0.0078 -0.06641,0.01172 0.02344,-0.0039 0.04297,-0.0078 0.06641,-0.01172 z m -4.488281,0.03516 c 0.01953,0.0039 0.04297,0.0039 0.0625,0.0078 -0.01953,-0.0039 -0.04297,-0.0039 -0.0625,-0.0078 z m 4.273438,0 c -0.01953,0.0039 -0.04297,0.0039 -0.0625,0.0078 0.01953,-0.0039 0.04297,-0.0039 0.0625,-0.0078 z m -3.792969,0.0625 c 0.02344,0 0.04687,0.0039 0.06641,0.0039 -0.01953,0 -0.04297,-0.0039 -0.06641,-0.0039 z m 3.3125,0 c -0.02344,0 -0.04687,0.0039 -0.06641,0.0039 0.01953,0 0.04297,-0.0039 0.06641,-0.0039 z m -3.09375,0.01953 c 0.02344,0.0039 0.04297,0.0078 0.06641,0.0078 -0.02344,0 -0.04297,-0.0039 -0.06641,-0.0078 z m 2.875,0 c -0.02344,0.0039 -0.04297,0.0078 -0.06641,0.0078 0.02344,0 0.04297,-0.0039 0.06641,-0.0078 z m -0.222656,0.02344 c -0.01953,0 -0.03906,0 -0.05859,0.0039 0.01953,-0.0039 0.03906,-0.0039 0.05859,-0.0039 z m -2.429688,0 c 0.01953,0 0.03906,0 0.05859,0.0039 -0.01953,-0.0039 -0.03906,-0.0039 -0.05859,-0.0039 z m 0.488282,0.03125 c 0.02344,0 0.04687,0 0.07031,0.0039 -0.02344,-0.0039 -0.04687,-0.0039 -0.07031,-0.0039 z m 1.453124,0 c -0.02344,0 -0.04687,0 -0.07031,0.0039 0.02344,-0.0039 0.04687,-0.0039 0.07031,-0.0039 z m -1.242187,0.0078 c 0.02734,0 0.05469,0 0.08203,0.0039 -0.02734,-0.0039 -0.05469,-0.0039 -0.08203,-0.0039 z m 1.03125,0 c -0.02734,0 -0.05469,0 -0.08203,0.0039 0.02734,-0.0039 0.05469,-0.0039 0.08203,-0.0039 z m -0.792969,0.0078 c 0.01953,0 0.03906,0 0.05859,0 -0.01953,0 -0.03906,0 -0.05859,0 z m 0.554688,0 c -0.01953,0 -0.03906,0 -0.05859,0 0.01953,0 0.03906,0 0.05859,0 z M 17.804688,57.824219 c 0.04687,0.02344 0.09375,0.05078 0.144531,0.07813 -0.05078,-0.02734 -0.09766,-0.05469 -0.144531,-0.07813 z m 27.890624,0 c -0.04687,0.02344 -0.09375,0.05078 -0.144531,0.07813 0.05078,-0.02734 0.09766,-0.05469 0.144531,-0.07813 z m -27.636718,0.136719 c 0.08203,0.04297 0.164062,0.08594 0.25,0.128906 -0.08594,-0.04297 -0.167969,-0.08594 -0.25,-0.128906 z m 27.382812,0 c -0.08203,0.04297 -0.164062,0.08594 -0.25,0.128906 0.08594,-0.04297 0.167969,-0.08594 0.25,-0.128906 z m -27.039062,0.179687 c 0.05469,0.02734 0.105468,0.05469 0.160156,0.08203 -0.05469,-0.02734 -0.105469,-0.05469 -0.160156,-0.08203 z m 26.695312,0 c -0.05469,0.02734 -0.105468,0.05469 -0.160156,0.08203 0.05469,-0.02734 0.105469,-0.05469 0.160156,-0.08203 z m -26.445312,0.125 c 0.08594,0.04687 0.175781,0.08984 0.261718,0.132813 -0.08594,-0.04297 -0.175781,-0.08594 -0.261718,-0.132813 z m 26.195312,0 c -0.08594,0.04687 -0.175781,0.08984 -0.261718,0.132813 0.08594,-0.04297 0.175781,-0.08594 0.261718,-0.132813 z m -25.828125,0.183594 c 0.05078,0.02344 0.101563,0.04687 0.15625,0.07422 -0.05469,-0.02734 -0.105469,-0.05078 -0.15625,-0.07422 z m 25.460938,0 c -0.05078,0.02344 -0.101563,0.04687 -0.15625,0.07422 0.05469,-0.02734 0.105469,-0.05078 0.15625,-0.07422 z m -25.214844,0.117187 c 0.08594,0.04297 0.175781,0.08203 0.265625,0.125 -0.08984,-0.04297 -0.179688,-0.08203 -0.265625,-0.125 z m 24.96875,0 c -0.08594,0.04297 -0.175781,0.08203 -0.265625,0.125 0.08984,-0.04297 0.179688,-0.08203 0.265625,-0.125 z m -24.585937,0.175782 c 0.07422,0.03516 0.144531,0.06641 0.21875,0.101562 -0.07422,-0.03516 -0.144532,-0.06641 -0.21875,-0.101562 z m 24.203124,0 c -0.07422,0.03516 -0.144531,0.06641 -0.21875,0.101562 0.07422,-0.03516 0.144532,-0.06641 0.21875,-0.101562 z m -23.84375,0.160156 c 0.04688,0.02344 0.09766,0.04297 0.144532,0.06641 -0.04687,-0.02344 -0.09766,-0.04297 -0.144532,-0.06641 z m 23.484376,0 c -0.04688,0.02344 -0.09766,0.04297 -0.144532,0.06641 0.04687,-0.02344 0.09766,-0.04297 0.144532,-0.06641 z m -23.199219,0.125 c 0.07031,0.03125 0.144531,0.0625 0.21875,0.09375 -0.07422,-0.03125 -0.148438,-0.0625 -0.21875,-0.09375 z m 22.914062,0 c -0.07031,0.03125 -0.144531,0.0625 -0.21875,0.09375 0.07422,-0.03125 0.148438,-0.0625 0.21875,-0.09375 z m -22.5625,0.148437 c 0.04687,0.01953 0.09766,0.03906 0.144531,0.05859 -0.04687,-0.01953 -0.09766,-0.03906 -0.144531,-0.05859 z m 22.210938,0 c -0.04687,0.01953 -0.09766,0.03906 -0.144531,0.05859 0.04687,-0.01953 0.09766,-0.03906 0.144531,-0.05859 z M 20.96875,59.304688 c 0.0625,0.02734 0.125,0.05078 0.1875,0.07422 -0.0625,-0.02344 -0.125,-0.04687 -0.1875,-0.07422 z m 21.5625,0 c -0.0625,0.02734 -0.125,0.05078 -0.1875,0.07422 0.0625,-0.02344 0.125,-0.04687 0.1875,-0.07422 z m -21.238281,0.128906 c 0.04687,0.01563 0.09375,0.03516 0.136719,0.05078 -0.04297,-0.01563 -0.08984,-0.03516 -0.136719,-0.05078 z m 20.914062,0 c -0.04687,0.01563 -0.09375,0.03516 -0.136719,0.05078 0.04297,-0.01563 0.08984,-0.03516 0.136719,-0.05078 z m -20.542969,0.136718 c 0.04688,0.01953 0.09375,0.03516 0.144532,0.05469 -0.05078,-0.01953 -0.09766,-0.03516 -0.144532,-0.05469 z m 20.171876,0 c -0.04688,0.01953 -0.09375,0.03516 -0.144532,0.05469 0.05078,-0.01953 0.09766,-0.03516 0.144532,-0.05469 z m -19.886719,0.105469 c 0.07031,0.02344 0.140625,0.04687 0.210937,0.07422 -0.07031,-0.02734 -0.140625,-0.05078 -0.210937,-0.07422 z m 19.601562,0 c -0.07031,0.02344 -0.140625,0.04687 -0.210937,0.07422 0.07031,-0.02734 0.140625,-0.05078 0.210937,-0.07422 z m -19.230469,0.128907 c 0.04688,0.01562 0.08984,0.03125 0.132813,0.04297 -0.04297,-0.01172 -0.08594,-0.02734 -0.132813,-0.04297 z m 18.859376,0 c -0.04688,0.01562 -0.08984,0.03125 -0.132813,0.04297 0.04297,-0.01172 0.08594,-0.02734 0.132813,-0.04297 z m -18.480469,0.125 c 0.04297,0.01562 0.08594,0.02734 0.128906,0.04297 -0.04297,-0.01563 -0.08594,-0.02734 -0.128906,-0.04297 z m 18.101562,0 c -0.04297,0.01562 -0.08594,0.02734 -0.128906,0.04297 0.04297,-0.01563 0.08594,-0.02734 0.128906,-0.04297 z m -17.8125,0.09375 c 0.04297,0.01172 0.08594,0.02734 0.128907,0.03906 -0.04297,-0.01172 -0.08594,-0.02734 -0.128907,-0.03906 z m 17.523438,0 c -0.04297,0.01172 -0.08594,0.02734 -0.128907,0.03906 0.04297,-0.01172 0.08594,-0.02734 0.128907,-0.03906 z m -17.148438,0.113281 c 0.04297,0.01172 0.08984,0.02734 0.132813,0.03906 -0.04297,-0.01172 -0.08984,-0.02734 -0.132813,-0.03906 z m 16.773438,0 c -0.04297,0.01172 -0.08984,0.02734 -0.132813,0.03906 0.04297,-0.01172 0.08984,-0.02734 0.132813,-0.03906 z m -16.453125,0.09375 c 0.05078,0.01563 0.101562,0.02734 0.148437,0.04297 -0.04687,-0.01563 -0.09766,-0.02734 -0.148437,-0.04297 z m 16.132812,0 c -0.05078,0.01563 -0.101562,0.02734 -0.148437,0.04297 0.04687,-0.01563 0.09766,-0.02734 0.148437,-0.04297 z m -15.765625,0.101562 c 0.03906,0.01172 0.07813,0.01953 0.117188,0.03125 -0.03906,-0.01172 -0.07813,-0.01953 -0.117188,-0.03125 z m 15.398438,0 c -0.03906,0.01172 -0.07813,0.01953 -0.117188,0.03125 0.03906,-0.01172 0.07813,-0.01953 0.117188,-0.03125 z m -15.019531,0.101563 c 0.03516,0.0078 0.07422,0.01953 0.109374,0.02734 -0.03516,-0.0078 -0.07422,-0.01953 -0.109374,-0.02734 z m 14.640624,0 c -0.03516,0.0078 -0.07422,0.01953 -0.109374,0.02734 0.03516,-0.0078 0.07422,-0.01953 0.109374,-0.02734 z m -14.332031,0.07813 c 0.03516,0.0078 0.07031,0.01563 0.109375,0.02344 -0.03906,-0.0078 -0.07422,-0.01563 -0.109375,-0.02344 z m 14.023438,0 c -0.03516,0.0078 -0.07031,0.01563 -0.109375,0.02344 0.03906,-0.0078 0.07422,-0.01563 0.109375,-0.02344 z m -13.644531,0.08984 c 0.03516,0.0078 0.07422,0.01563 0.109374,0.02344 -0.03516,-0.0078 -0.07422,-0.01563 -0.109374,-0.02344 z m 13.265624,0 c -0.03516,0.0078 -0.07422,0.01563 -0.109374,0.02344 0.03516,-0.0078 0.07422,-0.01563 0.109374,-0.02344 z m -12.925781,0.07422 c 0.02344,0.0078 0.05078,0.01172 0.07422,0.01953 -0.02344,-0.0078 -0.05078,-0.01172 -0.07422,-0.01953 z m 12.585938,0 c -0.02344,0.0078 -0.05078,0.01172 -0.07422,0.01953 0.02344,-0.0078 0.05078,-0.01172 0.07422,-0.01953 z m -12.226563,0.07813 c 0.03516,0.0078 0.07031,0.01563 0.105469,0.01953 -0.03516,-0.0039 -0.07031,-0.01172 -0.105469,-0.01953 z m 11.867188,0 c -0.03516,0.0078 -0.07031,0.01563 -0.105469,0.01953 0.03516,-0.0039 0.07031,-0.01172 0.105469,-0.01953 z m -11.476563,0.07813 c 0.02344,0.0039 0.04687,0.0078 0.07031,0.01172 -0.02344,-0.0039 -0.04687,-0.0078 -0.07031,-0.01172 z m 11.085938,0 c -0.02344,0.0039 -0.04687,0.0078 -0.07031,0.01172 0.02344,-0.0039 0.04687,-0.0078 0.07031,-0.01172 z m -10.757813,0.05859 c 0.02734,0.0078 0.05469,0.01172 0.08203,0.01563 -0.02734,-0.0039 -0.05469,-0.0078 -0.08203,-0.01563 z m 10.429688,0 c -0.02734,0.0078 -0.05469,0.01172 -0.08203,0.01563 0.02734,-0.0039 0.05469,-0.0078 0.08203,-0.01563 z m -10.050782,0.06641 c 0.03125,0.0039 0.05859,0.0078 0.08594,0.01563 -0.02734,-0.0078 -0.05469,-0.01172 -0.08594,-0.01563 z m 9.671876,0 c -0.03125,0.0039 -0.05859,0.0078 -0.08594,0.01563 0.02734,-0.0078 0.05469,-0.01172 0.08594,-0.01563 z M 27.25,61.011719 c 0.02734,0.0039 0.05078,0.0078 0.07422,0.01172 -0.02344,-0.0039 -0.04687,-0.0078 -0.07422,-0.01172 z m 9,0 c -0.02734,0.0039 -0.05078,0.0078 -0.07422,0.01172 0.02344,-0.0039 0.04687,-0.0078 0.07422,-0.01172 z m -8.617188,0.05469 c 0.02344,0.0039 0.05078,0.0078 0.07422,0.01172 -0.02344,-0.0039 -0.05078,-0.0078 -0.07422,-0.01172 z m 8.234376,0 c -0.02344,0.0039 -0.05078,0.0078 -0.07422,0.01172 0.02344,-0.0039 0.05078,-0.0078 0.07422,-0.01172 z m -7.847657,0.05469 c 0.01953,0 0.03906,0.0039 0.05469,0.0039 -0.01563,0 -0.03516,-0.0039 -0.05469,-0.0039 z m 7.460938,0 c -0.01953,0 -0.03906,0.0039 -0.05469,0.0039 0.01563,0 0.03516,-0.0039 0.05469,-0.0039 z m -7.136719,0.03906 c 0.03125,0 0.0625,0.0039 0.08984,0.0078 -0.02734,-0.0039 -0.05859,-0.0078 -0.08984,-0.0078 z m 6.8125,0 c -0.03125,0 -0.0625,0.0039 -0.08984,0.0078 0.02734,-0.0039 0.05859,-0.0078 0.08984,-0.0078 z m -6.414062,0.04297 c 0.02344,0 0.04297,0.0039 0.06641,0.0039 -0.02344,0 -0.04297,-0.0039 -0.06641,-0.0039 z m 6.011718,0 c -0.01953,0 -0.03906,0.0039 -0.0625,0.0039 0.02344,0 0.04297,-0.0039 0.0625,-0.0039 z m -5.664062,0.03125 c 0.02344,0.0039 0.04297,0.0039 0.0625,0.0078 -0.01953,-0.0039 -0.03906,-0.0039 -0.0625,-0.0078 z m 5.320312,0 c -0.02344,0.0039 -0.04297,0.0039 -0.0625,0.0078 0.01953,-0.0039 0.03906,-0.0039 0.0625,-0.0078 z m -4.941406,0.03125 c 0.02734,0.0039 0.05078,0.0039 0.07422,0.0078 -0.02344,-0.0039 -0.04687,-0.0039 -0.07422,-0.0078 z m 4.5625,0 c -0.02734,0.0039 -0.05078,0.0039 -0.07422,0.0078 0.02344,-0.0039 0.04687,-0.0039 0.07422,-0.0078 z m -4.160156,0.03125 c 0.0078,0 0.01172,0 0.01953,0 -0.0078,0 -0.01172,0 -0.01953,0 z m 3.757812,0 c -0.0078,0 -0.01172,0 -0.01953,0 0.0078,0 0.01172,0 0.01953,0 z m -3.421875,0.01563 c 0.02344,0.0039 0.04687,0.0039 0.07031,0.0039 -0.02344,0 -0.04687,0 -0.07031,-0.0039 z m 3.085938,0 c -0.02344,0.0039 -0.04687,0.0039 -0.07031,0.0039 0.02344,0 0.04687,0 0.07031,-0.0039 z m -2.691407,0.01953 c 0.01953,0 0.03906,0 0.05859,0.0039 -0.01953,-0.0039 -0.03906,-0.0039 -0.05859,-0.0039 z m 2.296876,0 c -0.01953,0 -0.03906,0 -0.05859,0.0039 0.01953,-0.0039 0.03906,-0.0039 0.05859,-0.0039 z m -1.933594,0.01172 c 0.01563,0 0.03125,0 0.04687,0 -0.01563,0 -0.03125,0 -0.04687,0 z m 1.570312,0 c -0.01563,0 -0.03125,0 -0.04687,0 0.01563,0 0.03125,0 0.04687,0 z m -1.191406,0.0078 c 0.01953,0 0.04297,0 0.0625,0 -0.01953,0 -0.04297,0 -0.0625,0 z m 0.8125,0 c -0.01953,0 -0.04297,0 -0.0625,0 0.01953,0 0.04297,0 0.0625,0 z m 0,0"
       id="path2-3" />
    <path
       inkscape:connector-curvature="0"
       style="fill:#ee514f;fill-opacity:1;fill-rule:nonzero;stroke:none"
       d="m 31.75,3.144531 c -5.058594,0 -9.8125,1.28125 -13.949219,3.535157 l 6.976563,12.785156 C 26.84375,18.335938 29.21875,17.699219 31.75,17.699219 c 2.53125,0 4.90625,0.636719 6.972656,1.765625 L 45.699219,6.679688 C 41.5625,4.425781 36.808594,3.144531 31.75,3.144531 Z M 6.179688,18.300781 C 3.925781,22.4375 2.644531,27.1875 2.644531,32.25 c 0,5.058594 1.28125,9.8125 3.535157,13.949219 L 18.964844,39.222656 C 17.835938,37.15625 17.199219,34.78125 17.199219,32.25 c 0,-2.53125 0.636719,-4.90625 1.765625,-6.972656 z m 51.140624,0 -12.785156,6.976563 c 1.128906,2.066406 1.765625,4.441406 1.765625,6.972656 0,2.53125 -0.636719,4.90625 -1.765625,6.972656 l 12.785156,6.976563 C 59.574219,42.0625 60.855469,37.308594 60.855469,32.25 c 0,-5.0625 -1.28125,-9.8125 -3.535157,-13.949219 z M 24.777344,45.035156 17.800781,57.820312 c 4.136719,2.253907 8.890625,3.535157 13.949219,3.535157 5.058594,0 9.8125,-1.28125 13.949219,-3.535157 L 38.722656,45.035156 C 36.65625,46.164062 34.28125,46.800781 31.75,46.800781 c -2.53125,0 -4.90625,-0.636719 -6.972656,-1.765625 z m 0,0"
       id="path4-6" />
    <path
       inkscape:connector-curvature="0"
       style="fill:#ffb54c;fill-opacity:1;fill-rule:nonzero;stroke:none"
       d="M 13.960938,14.460938 C 9.417969,19.003906 6.613281,25.289062 6.613281,32.25 c 0,6.960938 2.804688,13.246094 7.347657,17.789062 l 0.9375,-0.9375 C 10.59375,44.800781 7.9375,38.847656 7.9375,32.25 c 0,-6.597656 2.65625,-12.550781 6.960938,-16.851562 z m 35.578124,0 -0.9375,0.9375 C 52.90625,19.699219 55.5625,25.652344 55.5625,32.25 c 0,6.597656 -2.65625,12.550781 -6.960938,16.851562 l 0.9375,0.9375 C 54.082031,45.496094 56.886719,39.210938 56.886719,32.25 c 0,-6.960938 -2.804688,-13.246094 -7.347657,-17.789062 z m 0,0"
       id="path6-7" />
    <path
       inkscape:connector-curvature="0"
       style="fill:#ffb54c;fill-opacity:1;fill-rule:nonzero;stroke:none"
       d="m 50.457031,13.542969 c 0.777344,0.773437 0.777344,2.03125 0,2.804687 -0.773437,0.773438 -2.03125,0.773438 -2.804687,0 -0.773438,-0.773437 -0.773438,-2.03125 0,-2.804687 0.773437,-0.777344 2.03125,-0.777344 2.804687,0 z m 0,0"
       id="path8" />
    <path
       inkscape:connector-curvature="0"
       style="fill:#ffb54c;fill-opacity:1;fill-rule:nonzero;stroke:none"
       d="m 15.847656,48.152344 c 0.773438,0.773437 0.773438,2.03125 0,2.804687 -0.773437,0.777344 -2.03125,0.777344 -2.804687,0 -0.777344,-0.773437 -0.777344,-2.03125 0,-2.804687 0.773437,-0.773438 2.03125,-0.773438 2.804687,0 z m 0,0"
       id="path10" />
    <path
       inkscape:connector-curvature="0"
       style="fill:#ffb54c;fill-opacity:1;fill-rule:nonzero;stroke:none"
       d="m 50.457031,50.957031 c -0.773437,0.777344 -2.03125,0.777344 -2.804687,0 -0.773438,-0.773437 -0.773438,-2.03125 0,-2.804687 0.773437,-0.773438 2.03125,-0.773438 2.804687,0 0.777344,0.773437 0.777344,2.03125 0,2.804687 z m 0,0"
       id="path12" />
    <path
       inkscape:connector-curvature="0"
       style="fill:#ffb54c;fill-opacity:1;fill-rule:nonzero;stroke:none"
       d="m 15.847656,16.347656 c -0.773437,0.773438 -2.03125,0.773438 -2.804687,0 -0.777344,-0.773437 -0.777344,-2.03125 0,-2.804687 0.773437,-0.777344 2.03125,-0.777344 2.804687,0 0.773438,0.773437 0.773438,2.03125 0,2.804687 z m 0,0"
       id="path14" />
  </g>
</svg>
