<?xml version="1.0" encoding="UTF-8" standalone="no"?>
<!-- Created with Inkscape (http://www.inkscape.org/) -->

<svg
   xmlns:dc="http://purl.org/dc/elements/1.1/"
   xmlns:cc="http://creativecommons.org/ns#"
   xmlns:rdf="http://www.w3.org/1999/02/22-rdf-syntax-ns#"
   xmlns:svg="http://www.w3.org/2000/svg"
   xmlns="http://www.w3.org/2000/svg"
   xmlns:sodipodi="http://sodipodi.sourceforge.net/DTD/sodipodi-0.dtd"
   xmlns:inkscape="http://www.inkscape.org/namespaces/inkscape"
   id="svg2"
   version="1.1"
   inkscape:version="0.92.4 (5da689c313, 2019-01-14)"
   width="48"
   height="48"
   sodipodi:docname="preferences-system-power.svg"
   viewBox="0 0 48 48">
  <metadata
     id="metadata8">
    <rdf:RDF>
      <cc:Work
         rdf:about="">
        <dc:format>image/svg+xml</dc:format>
        <dc:type
           rdf:resource="http://purl.org/dc/dcmitype/StillImage" />
        <dc:title />
      </cc:Work>
    </rdf:RDF>
  </metadata>
  <defs
     id="defs6" />
  <sodipodi:namedview
     pagecolor="#ffffff"
     bordercolor="#666666"
     borderopacity="1"
     objecttolerance="10"
     gridtolerance="10"
     guidetolerance="10"
     inkscape:pageopacity="0"
     inkscape:pageshadow="2"
     inkscape:window-width="1280"
     inkscape:window-height="954"
     id="namedview4"
     showgrid="false"
     inkscape:zoom="10.429825"
     inkscape:cx="18.794562"
     inkscape:cy="24.268509"
     inkscape:window-x="0"
     inkscape:window-y="0"
     inkscape:window-maximized="1"
     inkscape:current-layer="svg2"
     showguides="true"
     inkscape:guide-bbox="true"
     inkscape:document-units="px" />
  <path
     style="fill:#63a1d4;fill-opacity:0.99215686;fill-rule:evenodd;stroke:none;stroke-width:0.103852"
     d="m 13.428726,0.34566319 c -1.180458,0 -2.131069,0.95006491 -2.131069,2.13052341 V 5.275944 H 8.2511662 c -1.5909223,0 -2.8718121,1.2808883 -2.8718121,2.8718118 V 44.207251 c 0,1.590925 1.2808898,2.871813 2.8718121,2.871813 H 26.517549 c 1.590923,0 2.871811,-1.280888 2.871811,-2.871813 V 8.1477558 c 0,-1.5909235 -1.280888,-2.8718118 -2.871811,-2.8718118 H 23.516912 V 2.4761866 c 0,-1.1804585 -0.950065,-2.13052341 -2.130524,-2.13052341 z M 10.485405,24.630787 h 13.797906 c 0.572171,0 1.032782,0.460613 1.032782,1.032781 v 10.627506 1.772982 4.658434 c 0,0.296768 -0.23873,0.535498 -0.535496,0.535498 H 9.9881189 c -0.2967654,0 -0.5354952,-0.23873 -0.5354952,-0.535498 V 38.064056 36.291074 25.663568 c 0,-0.572168 0.4606107,-1.032781 1.0327813,-1.032781 z"
     id="rect3009"
     inkscape:connector-curvature="0" />
  <rect
     ry="1.6172544"
     y="7.9180384"
     x="8.5148878"
     height="8.0312128"
     width="17.535303"
     id="rect3751-6-7-5-6-7"
     style="fill:#3f3f3f;fill-opacity:1;stroke:none;stroke-width:0.10225427" />
  <rect
     style="fill:#419d45;fill-opacity:1;stroke:none;stroke-width:0.103852"
     id="rect3751"
     width="17.525963"
     height="20.306524"
     x="8.5488939"
     y="23.818329" />
  <rect
     style="fill:#3f3f3f;fill-opacity:1;stroke:none;stroke-width:0.08747867"
     id="rect3751-5"
     width="17.525963"
     height="14.408219"
     x="8.5251541"
     y="11.233574" />
  <g
     transform="matrix(0.47457702,0,0,0.47457702,16.524272,17.114572)"
     id="surface1">
    <path
       inkscape:connector-curvature="0"
       style="fill:#ffa623;fill-opacity:1;fill-rule:nonzero;stroke:none"
       d="m 31.75,3.144531 c 16.074219,0 29.105469,13.03125 29.105469,29.105469 0,16.074219 -13.03125,29.105469 -29.105469,29.105469 C 15.675781,61.355469 2.644531,48.324219 2.644531,32.25 2.644531,16.175781 15.675781,3.144531 31.75,3.144531 Z m 0,0"
       id="path2" />
    <path
       inkscape:connector-curvature="0"
       style="fill:#3f3f3f;fill-opacity:1;fill-rule:nonzero;stroke:none"
       d="m 21.167969,32.25 21.164062,-18.519531 -7.9375,15.875 7.9375,2.644531 -21.164062,18.519531 7.9375,-15.875 z m 0,0"
       id="path4" />
  </g>
</svg>
