<?xml version="1.0" encoding="UTF-8" standalone="no"?>
<svg
   xmlns:dc="http://purl.org/dc/elements/1.1/"
   xmlns:cc="http://creativecommons.org/ns#"
   xmlns:rdf="http://www.w3.org/1999/02/22-rdf-syntax-ns#"
   xmlns:svg="http://www.w3.org/2000/svg"
   xmlns="http://www.w3.org/2000/svg"
   xmlns:sodipodi="http://sodipodi.sourceforge.net/DTD/sodipodi-0.dtd"
   xmlns:inkscape="http://www.inkscape.org/namespaces/inkscape"
   width="48"
   height="48"
   version="1"
   id="svg24"
   sodipodi:docname="xplayer.svg"
   inkscape:version="0.92.4 (5da689c313, 2019-01-14)">
  <metadata
     id="metadata30">
    <rdf:RDF>
      <cc:Work
         rdf:about="">
        <dc:format>image/svg+xml</dc:format>
        <dc:type
           rdf:resource="http://purl.org/dc/dcmitype/StillImage" />
        <dc:title></dc:title>
      </cc:Work>
    </rdf:RDF>
  </metadata>
  <defs
     id="defs28" />
  <sodipodi:namedview
     pagecolor="#ffffff"
     bordercolor="#666666"
     borderopacity="1"
     objecttolerance="10"
     gridtolerance="10"
     guidetolerance="10"
     inkscape:pageopacity="0"
     inkscape:pageshadow="2"
     inkscape:window-width="1280"
     inkscape:window-height="954"
     id="namedview26"
     showgrid="false"
     inkscape:zoom="3.6875"
     inkscape:cx="27.254237"
     inkscape:cy="32"
     inkscape:window-x="0"
     inkscape:window-y="0"
     inkscape:window-maximized="1"
     inkscape:current-layer="svg24" />
  <g
     id="g3881"
     transform="matrix(0.77723971,0,0,0.77723971,-0.87167072,11.175545)">
    <path
       inkscape:connector-curvature="0"
       id="path2"
       d="m 8.6019673,-7.9996428 c -2.5483818,0 -4.6015671,2.0530938 -4.6015671,4.6013628 V 28.0001 H 60 V -3.39828 c 0,-2.548269 -2.053986,-4.6013628 -4.601967,-4.6013628 H 8.6023672 Z"
       style="fill:#5c5c9f" />
    <path
       inkscape:connector-curvature="0"
       id="path4"
       d="M 8.6015625,-8 C 6.0531807,-8 4,-5.985833 4,-3.487031 V -2.5 C 4,-4.998802 6.0531807,-7.0129689 8.6015625,-7.0129689 H 55.398438 C 57.946419,-7.0129689 60,-4.998802 60,-2.5 V -3.487031 C 60,-5.985833 57.946419,-8 55.398438,-8 Z"
       style="opacity:0.1;fill:#ffffff" />
    <path
       inkscape:connector-curvature="0"
       id="path6"
       d="m 8.6019673,40.000014 c -2.5483818,0 -4.6015671,-2.043935 -4.6015671,-4.579451 V 28.0001 H 60 v 7.420463 c 0,2.535516 -2.053986,4.579451 -4.601967,4.579451 z"
       style="fill:#cccccc" />
    <rect
       id="rect8"
       ry="2"
       y="32"
       x="40"
       height="4"
       width="16"
       style="fill:#999999" />
    <rect
       id="rect10"
       ry="2"
       y="32"
       x="8"
       height="4"
       width="32"
       style="fill:#5c5c9f" />
    <circle
       id="circle12"
       r="4"
       cy="35"
       cx="40"
       style="opacity:0.2" />
    <circle
       id="circle14"
       r="4"
       cy="34"
       cx="40"
       style="fill:#ffffff" />
    <rect
       id="rect16"
       y="28"
       x="4"
       height="2"
       width="56"
       style="opacity:0.2;fill:#ffffff" />
    <path
       inkscape:connector-curvature="0"
       id="path18"
       d="m 24.866851,1.000222 c -0.478657,-2.6e-4 -0.866768,0.398197 -0.866514,0.889633 v 18.21947 c -1.56e-4,0.675895 0.705199,1.104852 1.282437,0.779914 l 16.26732,-9.109734 c 0.600153,-0.337378 0.600153,-1.222432 0,-1.559809 L 26.907828,2.021354 25.281994,1.110961 C 25.154535,1.039161 25.011496,1.001362 24.866069,1.001362 Z"
       style="opacity:0.2" />
    <path
       inkscape:connector-curvature="0"
       id="path20"
       d="m 24.866851,3.78e-4 c -0.478657,-2.6e-4 -0.866768,0.398197 -0.866514,0.889634 v 18.219469 c -1.56e-4,0.675896 0.705199,1.104852 1.282437,0.779915 l 16.26732,-9.109735 c 0.600153,-0.337378 0.600153,-1.222431 0,-1.559809 L 26.907828,1.021511 25.281994,0.111117 C 25.154535,0.039317 25.011496,0.001518 24.866069,0.001518 Z"
       style="fill:#ffffff" />
    <path
       inkscape:connector-curvature="0"
       id="path22"
       d="m 4,35.400391 v 1 C 4,38.9476 6.0531807,41 8.6015625,41 H 55.398438 C 57.946419,41 60,38.9476 60,36.400391 v -1 C 60,37.9476 57.946419,40 55.398438,40 H 8.6015625 C 6.0531807,40 4,37.9476 4,35.400391 Z"
       style="opacity:0.2" />
  </g>
</svg>
