<?xml version="1.0" encoding="UTF-8" standalone="no"?>
<svg
   xmlns:dc="http://purl.org/dc/elements/1.1/"
   xmlns:cc="http://creativecommons.org/ns#"
   xmlns:rdf="http://www.w3.org/1999/02/22-rdf-syntax-ns#"
   xmlns:svg="http://www.w3.org/2000/svg"
   xmlns="http://www.w3.org/2000/svg"
   xmlns:sodipodi="http://sodipodi.sourceforge.net/DTD/sodipodi-0.dtd"
   xmlns:inkscape="http://www.inkscape.org/namespaces/inkscape"
   width="48"
   height="48"
   viewBox="0 0 48 48"
   version="1.1"
   id="svg17"
   sodipodi:docname="appcode.svg"
   inkscape:version="0.92.4 (5da689c313, 2019-01-14)">
  <metadata
     id="metadata23">
    <rdf:RDF>
      <cc:Work
         rdf:about="">
        <dc:format>image/svg+xml</dc:format>
        <dc:type
           rdf:resource="http://purl.org/dc/dcmitype/StillImage" />
        <dc:title></dc:title>
      </cc:Work>
    </rdf:RDF>
  </metadata>
  <defs
     id="defs21" />
  <sodipodi:namedview
     pagecolor="#ffffff"
     bordercolor="#666666"
     borderopacity="1"
     objecttolerance="10"
     gridtolerance="10"
     guidetolerance="10"
     inkscape:pageopacity="0"
     inkscape:pageshadow="2"
     inkscape:window-width="1280"
     inkscape:window-height="954"
     id="namedview19"
     showgrid="false"
     inkscape:zoom="3.6875"
     inkscape:cx="27.254237"
     inkscape:cy="32"
     inkscape:window-x="0"
     inkscape:window-y="0"
     inkscape:window-maximized="1"
     inkscape:current-layer="svg17" />
  <g
     id="surface1"
     transform="matrix(0.74377231,0,0,0.74377231,0.38522916,0.013343)">
    <path
       style="fill:#23a699;fill-opacity:1;fill-rule:nonzero;stroke:none"
       d="m 5.292969,3.144531 c -1.46875,0 -2.648438,1.179688 -2.648438,2.648438 V 32.25 H 31.75 V 3.144531 Z m 0,0"
       id="path2"
       inkscape:connector-curvature="0" />
    <path
       style="fill:#28b5f5;fill-opacity:1;fill-rule:nonzero;stroke:none"
       d="m 58.207031,3.144531 c 1.46875,0 2.648438,1.179688 2.648438,2.648438 V 32.25 H 31.75 V 3.144531 Z m 0,0"
       id="path4"
       inkscape:connector-curvature="0" />
    <path
       style="fill:#28b5f5;fill-opacity:1;fill-rule:nonzero;stroke:none"
       d="m 5.292969,61.355469 c -1.46875,0 -2.648438,-1.179688 -2.648438,-2.648438 V 32.25 H 31.75 v 29.105469 z m 0,0"
       id="path6"
       inkscape:connector-curvature="0" />
    <path
       style="fill:#23a699;fill-opacity:1;fill-rule:nonzero;stroke:none"
       d="m 58.207031,61.355469 c 1.46875,0 2.648438,-1.179688 2.648438,-2.648438 V 32.25 H 31.75 v 29.105469 z m 0,0"
       id="path8"
       inkscape:connector-curvature="0" />
    <path
       style="fill:#3f3f3f;fill-opacity:1;fill-rule:nonzero;stroke:none"
       d="m 15.792969,13.8125 h 31.914062 c 1.417969,0 2.5625,1.148438 2.5625,2.5625 v 33.074219 c 0,1.414062 -1.144531,2.5625 -2.5625,2.5625 H 15.792969 c -1.417969,0 -2.5625,-1.148438 -2.5625,-2.5625 V 16.375 c 0,-1.414062 1.144531,-2.5625 2.5625,-2.5625 z m 0,0"
       id="path10"
       inkscape:connector-curvature="0" />
    <path
       style="fill:#eeeeee;fill-opacity:1;fill-rule:nonzero;stroke:none"
       d="m 23.152344,21.667969 c -4.03125,0 -7.277344,2.949219 -7.277344,6.613281 v 13.890625 c 0,0.367187 0.296875,0.660156 0.660156,0.660156 h 1.324219 c 0.367187,0 0.660156,-0.292969 0.660156,-0.660156 V 36.21875 h 9.261719 v 5.953125 c 0,0.367187 0.296875,0.660156 0.660156,0.660156 h 1.324219 c 0.367187,0 0.660156,-0.292969 0.660156,-0.660156 V 28.28125 c 0,-3.664062 -3.242187,-6.613281 -7.273437,-6.613281 z m 0,2.644531 c 2.5625,0 4.628906,1.769531 4.628906,3.96875 v 5.292969 H 18.519531 V 28.28125 c 0,-2.199219 2.066407,-3.96875 4.632813,-3.96875 z m 0,0"
       id="path12"
       inkscape:connector-curvature="0" />
    <path
       style="fill:#eeeeee;fill-opacity:1;fill-rule:nonzero;stroke:none"
       d="m 39.6875,21.667969 c -3.664062,0 -6.613281,2.949219 -6.613281,6.613281 v 7.9375 c 0,3.664062 2.949219,6.613281 6.613281,6.613281 h 1.324219 c 3.664062,0 6.613281,-2.949219 6.613281,-6.613281 0,-0.367188 -0.296875,-0.660156 -0.660156,-0.660156 h -1.324219 c -0.367187,0 -0.660156,0.292968 -0.660156,0.660156 0,2.199219 -1.769531,3.96875 -3.96875,3.96875 H 39.6875 c -2.199219,0 -3.96875,-1.769531 -3.96875,-3.96875 v -7.9375 c 0,-2.199219 1.769531,-3.96875 3.96875,-3.96875 h 1.324219 c 2.199219,0 3.96875,1.769531 3.96875,3.96875 0,0.367188 0.292969,0.660156 0.660156,0.660156 h 1.324219 c 0.363281,0 0.660156,-0.292968 0.660156,-0.660156 0,-3.664062 -2.949219,-6.613281 -6.613281,-6.613281 z m 0,0"
       id="path14"
       inkscape:connector-curvature="0" />
  </g>
</svg>
