<?xml version="1.0" encoding="UTF-8" standalone="no"?>
<svg
   xmlns:dc="http://purl.org/dc/elements/1.1/"
   xmlns:cc="http://creativecommons.org/ns#"
   xmlns:rdf="http://www.w3.org/1999/02/22-rdf-syntax-ns#"
   xmlns:svg="http://www.w3.org/2000/svg"
   xmlns="http://www.w3.org/2000/svg"
   xmlns:sodipodi="http://sodipodi.sourceforge.net/DTD/sodipodi-0.dtd"
   xmlns:inkscape="http://www.inkscape.org/namespaces/inkscape"
   width="48"
   height="48"
   viewBox="0 0 48 48"
   version="1.1"
   id="svg64"
   sodipodi:docname="application-default-icon.svg"
   inkscape:version="0.92.4 (5da689c313, 2019-01-14)">
  <metadata
     id="metadata68">
    <rdf:RDF>
      <cc:Work
         rdf:about="">
        <dc:format>image/svg+xml</dc:format>
        <dc:type
           rdf:resource="http://purl.org/dc/dcmitype/StillImage" />
        <dc:title></dc:title>
      </cc:Work>
    </rdf:RDF>
  </metadata>
  <sodipodi:namedview
     pagecolor="#ffffff"
     bordercolor="#666666"
     borderopacity="1"
     objecttolerance="10"
     gridtolerance="10"
     guidetolerance="10"
     inkscape:pageopacity="0"
     inkscape:pageshadow="2"
     inkscape:window-width="1280"
     inkscape:window-height="954"
     id="namedview66"
     showgrid="false"
     inkscape:zoom="7.375"
     inkscape:cx="13.60707"
     inkscape:cy="29.889662"
     inkscape:window-x="0"
     inkscape:window-y="0"
     inkscape:window-maximized="1"
     inkscape:current-layer="svg64" />
  <defs
     id="defs7">
    <linearGradient
       id="linear0"
       gradientUnits="userSpaceOnUse"
       x1="381"
       y1="-41.666668"
       x2="381"
       y2="-62.833332"
       gradientTransform="matrix(0.03548964,0,0,-0.09122453,-0.42733542,22.129876)">
      <stop
         offset="0"
         style="stop-color:rgb(12.941177%,12.941177%,12.941177%);stop-opacity:0.392157;"
         id="stop2" />
      <stop
         offset="1"
         style="stop-color:rgb(49.411765%,34.117648%,76.078433%);stop-opacity:0;"
         id="stop4" />
    </linearGradient>
  </defs>
  <g
     transform="matrix(0.77145035,0,0,0.77145035,-0.49354861,-0.95855169)"
     id="surface1">
    <path
       inkscape:connector-curvature="0"
       style="fill:#ffa623;fill-opacity:1;fill-rule:nonzero;stroke:none"
       d="m 31.75,4.46875 c 3.058594,0 6.554688,16.496094 9.027344,18.292969 2.476562,1.800781 19.242187,0.02344 20.1875,2.933593 0.949218,2.910157 -13.660156,11.328126 -14.605469,14.238282 -0.945313,2.910156 5.921875,18.308594 3.449219,20.109375 -2.476563,1.796875 -15,-9.492188 -18.058594,-9.492188 -3.058594,0 -15.582031,11.289063 -18.058594,9.492188 C 11.21875,58.242188 18.085938,42.84375 17.140625,39.933594 16.195312,37.023438 1.585938,28.605469 2.535156,25.695312 3.480469,22.785156 20.246094,24.5625 22.722656,22.761719 25.195312,20.964844 28.691406,4.46875 31.75,4.46875 Z m 0,0"
       id="path2" />
  </g>
</svg>
