<?xml version="1.0" encoding="UTF-8" standalone="no"?>
<svg
   xmlns:dc="http://purl.org/dc/elements/1.1/"
   xmlns:cc="http://creativecommons.org/ns#"
   xmlns:rdf="http://www.w3.org/1999/02/22-rdf-syntax-ns#"
   xmlns:svg="http://www.w3.org/2000/svg"
   xmlns="http://www.w3.org/2000/svg"
   xmlns:sodipodi="http://sodipodi.sourceforge.net/DTD/sodipodi-0.dtd"
   xmlns:inkscape="http://www.inkscape.org/namespaces/inkscape"
   width="48"
   height="48"
   viewBox="0 0 48 48"
   version="1.1"
   id="svg5"
   sodipodi:docname="ardour.svg"
   inkscape:version="0.92.4 (5da689c313, 2019-01-14)">
  <metadata
     id="metadata11">
    <rdf:RDF>
      <cc:Work
         rdf:about="">
        <dc:format>image/svg+xml</dc:format>
        <dc:type
           rdf:resource="http://purl.org/dc/dcmitype/StillImage" />
        <dc:title></dc:title>
      </cc:Work>
    </rdf:RDF>
  </metadata>
  <defs
     id="defs9" />
  <sodipodi:namedview
     pagecolor="#ffffff"
     bordercolor="#666666"
     borderopacity="1"
     objecttolerance="10"
     gridtolerance="10"
     guidetolerance="10"
     inkscape:pageopacity="0"
     inkscape:pageshadow="2"
     inkscape:window-width="1280"
     inkscape:window-height="954"
     id="namedview7"
     showgrid="false"
     inkscape:zoom="3.6875"
     inkscape:cx="27.254237"
     inkscape:cy="32"
     inkscape:window-x="0"
     inkscape:window-y="0"
     inkscape:window-maximized="1"
     inkscape:current-layer="svg5" />
  <g
     id="surface1"
     transform="matrix(0.73907878,0,0,0.73907878,0.53424873,0.16472402)">
    <path
       style="fill:#ee514f;fill-opacity:1;fill-rule:nonzero;stroke:none"
       d="m 31.757812,3.148438 c -0.503906,-0.00391 -0.964843,0.28125 -1.1875,0.730468 l -27.78125,55.5625 c -0.441406,0.878906 0.199219,1.910156 1.179688,1.910156 h 10.582031 v -7.273437 c 0,-1.097656 0.589844,-1.984375 1.324219,-1.984375 0.734375,0 1.324219,0.886719 1.324219,1.984375 v 7.273437 H 19.84375 V 47.464844 c 0,-1.101563 0.589844,-1.984375 1.324219,-1.984375 0.730469,0 1.320312,0.882812 1.320312,1.984375 v 13.886718 h 2.648438 V 40.847656 c 0,-1.097656 0.589843,-1.984375 1.320312,-1.984375 0.734375,0 1.324219,0.886719 1.324219,1.984375 v 20.503906 h 2.644531 V 46.140625 c 0,-1.097656 0.589844,-1.984375 1.324219,-1.984375 0.734375,0 1.324219,0.886719 1.324219,1.984375 v 15.210937 h 2.644531 v -9.917968 c 0,-1.101563 0.589844,-1.984375 1.324219,-1.984375 0.730469,0 1.320312,0.882812 1.320312,1.984375 v 9.917968 h 2.648438 v -8.597656 c 0,-1.097656 0.589843,-1.984375 1.320312,-1.984375 0.734375,0 1.324219,0.886719 1.324219,1.984375 v 8.597656 h 2.644531 v -5.949218 c 0,-1.101563 0.589844,-1.984375 1.324219,-1.984375 0.734375,0 1.324219,0.882812 1.324219,1.984375 v 5.949218 H 59.53125 c 0.980469,0 1.621094,-1.03125 1.179688,-1.910156 L 32.929688,3.878906 C 32.710938,3.433594 32.257812,3.152344 31.757812,3.148438 Z m 0,0"
       id="path2"
       inkscape:connector-curvature="0" />
  </g>
</svg>
