<?xml version="1.0" encoding="UTF-8" standalone="no"?>
<svg
   xmlns:dc="http://purl.org/dc/elements/1.1/"
   xmlns:cc="http://creativecommons.org/ns#"
   xmlns:rdf="http://www.w3.org/1999/02/22-rdf-syntax-ns#"
   xmlns:svg="http://www.w3.org/2000/svg"
   xmlns="http://www.w3.org/2000/svg"
   xmlns:sodipodi="http://sodipodi.sourceforge.net/DTD/sodipodi-0.dtd"
   xmlns:inkscape="http://www.inkscape.org/namespaces/inkscape"
   width="48"
   height="48"
   viewBox="0 0 48 48"
   version="1.1"
   id="svg7"
   sodipodi:docname="arduino.svg"
   inkscape:version="0.92.4 (5da689c313, 2019-01-14)">
  <metadata
     id="metadata13">
    <rdf:RDF>
      <cc:Work
         rdf:about="">
        <dc:format>image/svg+xml</dc:format>
        <dc:type
           rdf:resource="http://purl.org/dc/dcmitype/StillImage" />
        <dc:title></dc:title>
      </cc:Work>
    </rdf:RDF>
  </metadata>
  <defs
     id="defs11" />
  <sodipodi:namedview
     pagecolor="#ffffff"
     bordercolor="#666666"
     borderopacity="1"
     objecttolerance="10"
     gridtolerance="10"
     guidetolerance="10"
     inkscape:pageopacity="0"
     inkscape:pageshadow="2"
     inkscape:window-width="1280"
     inkscape:window-height="954"
     id="namedview9"
     showgrid="false"
     inkscape:zoom="3.6875"
     inkscape:cx="27.254237"
     inkscape:cy="32"
     inkscape:window-x="0"
     inkscape:window-y="0"
     inkscape:window-maximized="1"
     inkscape:current-layer="svg7" />
  <g
     id="surface1"
     transform="matrix(0.73911362,0,0,0.73911362,0.53314257,0.16358575)">
    <path
       style="fill:#23a699;fill-opacity:1;fill-rule:nonzero;stroke:none"
       d="m 31.75,3.144531 c 16.074219,0 29.105469,13.03125 29.105469,29.105469 0,16.074219 -13.03125,29.105469 -29.105469,29.105469 C 15.675781,61.355469 2.644531,48.324219 2.644531,32.25 2.644531,16.175781 15.675781,3.144531 31.75,3.144531 Z m 0,0"
       id="path2"
       inkscape:connector-curvature="0" />
    <path
       style="fill:#eeeeee;fill-opacity:1;fill-rule:nonzero;stroke:none"
       d="m 20.285156,21.707031 c -5.953125,0 -10.882812,4.703125 -10.882812,10.535157 0,5.839843 4.929687,10.539062 10.882812,10.539062 3.363282,0.152344 6.078125,-1.113281 8.066406,-2.941406 1.355469,-1.253906 2.421876,-2.730469 3.398438,-4.238282 0.972656,1.507813 2.039062,2.984376 3.398438,4.238282 1.984374,1.828125 4.699218,3.09375 8.066406,2.941406 5.949218,0 10.882812,-4.699219 10.882812,-10.539062 0,-5.832032 -4.933594,-10.535157 -10.882812,-10.535157 -3.546875,0 -6.351563,1.378907 -8.417969,3.292969 C 33.601562,26.109375 32.628906,27.371094 31.75,28.660156 30.871094,27.371094 29.898438,26.109375 28.699219,25 26.632812,23.085938 23.828125,21.707031 20.285156,21.707031 Z m 0,3.722657 c 2.648438,0 4.335938,0.867187 5.890625,2.300781 1.230469,1.140625 2.3125,2.683593 3.382813,4.375 -1.222656,1.972656 -2.402344,3.777343 -3.726563,5 -1.460937,1.34375 -2.980469,2.089843 -5.453125,1.960937 l -0.04687,-0.0039 h -0.04687 c -4.019531,0 -7.164062,-3.070312 -7.164062,-6.820312 0,-3.746094 3.144531,-6.8125 7.164062,-6.8125 z m 22.929688,0 c 4.015625,0 7.160156,3.066406 7.160156,6.8125 0,3.75 -3.144531,6.820312 -7.160156,6.820312 h -0.04687 l -0.04687,0.0039 c -2.480469,0.128906 -3.992188,-0.617187 -5.453125,-1.960937 -1.328125,-1.222657 -2.507813,-3.027344 -3.730469,-5 1.074219,-1.691407 2.15625,-3.234375 3.382812,-4.375 1.554688,-1.433594 3.246094,-2.300781 5.894532,-2.300781 z M 42.929688,28.1875 c -0.75,0 -1.355469,0.601562 -1.355469,1.355469 v 1.351562 h -1.351563 c -0.753906,0 -1.355468,0.605469 -1.355468,1.355469 0,0.753906 0.601562,1.359375 1.355468,1.359375 h 1.351563 v 1.351563 c 0,0.753906 0.605469,1.355468 1.355469,1.355468 0.753906,0 1.359374,-0.601562 1.359374,-1.355468 v -1.351563 h 1.351563 c 0.753906,0 1.355469,-0.605469 1.355469,-1.359375 0,-0.75 -0.601563,-1.355469 -1.355469,-1.355469 h -1.351563 v -1.351562 c 0,-0.753907 -0.605468,-1.355469 -1.359374,-1.355469 z M 17.855469,30.894531 C 17.101562,30.894531 16.5,31.5 16.5,32.25 c 0,0.753906 0.601562,1.359375 1.355469,1.359375 h 5.421875 c 0.753906,0 1.355468,-0.605469 1.355468,-1.359375 0,-0.75 -0.601562,-1.355469 -1.355468,-1.355469 z m 0,0"
       id="path4"
       inkscape:connector-curvature="0" />
  </g>
</svg>
