<?xml version="1.0" encoding="UTF-8" standalone="no"?>
<svg
   xmlns:dc="http://purl.org/dc/elements/1.1/"
   xmlns:cc="http://creativecommons.org/ns#"
   xmlns:rdf="http://www.w3.org/1999/02/22-rdf-syntax-ns#"
   xmlns:svg="http://www.w3.org/2000/svg"
   xmlns="http://www.w3.org/2000/svg"
   xmlns:sodipodi="http://sodipodi.sourceforge.net/DTD/sodipodi-0.dtd"
   xmlns:inkscape="http://www.inkscape.org/namespaces/inkscape"
   width="48"
   height="48"
   viewBox="0 0 48 48"
   version="1.1"
   id="svg19"
   sodipodi:docname="audacity.svg"
   inkscape:version="0.92.4 (5da689c313, 2019-01-14)">
  <metadata
     id="metadata25">
    <rdf:RDF>
      <cc:Work
         rdf:about="">
        <dc:format>image/svg+xml</dc:format>
        <dc:type
           rdf:resource="http://purl.org/dc/dcmitype/StillImage" />
        <dc:title></dc:title>
      </cc:Work>
    </rdf:RDF>
  </metadata>
  <defs
     id="defs23" />
  <sodipodi:namedview
     pagecolor="#ffffff"
     bordercolor="#666666"
     borderopacity="1"
     objecttolerance="10"
     gridtolerance="10"
     guidetolerance="10"
     inkscape:pageopacity="0"
     inkscape:pageshadow="2"
     inkscape:window-width="1280"
     inkscape:window-height="954"
     id="namedview21"
     showgrid="false"
     inkscape:zoom="3.6875"
     inkscape:cx="27.254237"
     inkscape:cy="32"
     inkscape:window-x="0"
     inkscape:window-y="0"
     inkscape:window-maximized="1"
     inkscape:current-layer="svg19" />
  <g
     id="surface1"
     transform="matrix(0.76706592,0,0,0.76706592,-0.35434296,-0.73789343)">
    <path
       style="fill:#616161;fill-opacity:1;fill-rule:nonzero;stroke:none"
       d="m 31.75,3.144531 c -13.191406,0 -23.8125,10.621094 -23.8125,23.8125 v 3.96875 c 0,0.445313 0.011719,0.886719 0.035156,1.324219 h 2.664063 c -0.03516,-0.507812 -0.05469,-1.023438 -0.05469,-1.542969 v -3.527343 c 0,-11.726563 9.441407,-21.167969 21.167969,-21.167969 11.726562,0 21.167969,9.441406 21.167969,21.167969 v 3.527343 c 0,0.519531 -0.01953,1.035157 -0.05469,1.542969 h 2.664063 c 0.02344,-0.4375 0.03516,-0.878906 0.03516,-1.324219 v -3.96875 c 0,-13.191406 -10.621094,-23.8125 -23.8125,-23.8125 z m 0,0"
       id="path2"
       inkscape:connector-curvature="0" />
    <path
       style="fill:#ffa623;fill-opacity:1;fill-rule:nonzero;stroke:none"
       d="m 27.648438,15.054688 c -1.929688,0.0625 -3.566407,1.554687 -3.808594,3.472656 L 23.363281,22.34375 C 22.769531,21.941406 22.066406,21.695312 21.316406,21.667969 19.363281,21.59375 17.609375,23 17.257812,24.921875 c 0,0.0039 0,0.0039 0,0.0039 l -2.050781,11.289063 h -4.625 0.04297 c -2.183594,-0.03125 -4.03125,1.789062 -4.03125,3.972656 0,2.183594 1.847656,4.003906 4.03125,3.972656 h -0.04297 7.9375 c 0.203125,0 0.402344,-0.02344 0.597657,-0.05469 l 0.746093,7.082031 c 0,0 0,0 0,0.0039 0.210938,1.980469 1.917969,3.53125 3.910157,3.550782 1.476562,0.01172 2.804687,-0.816407 3.5,-2.046876 l 0.527343,5.097657 c 0,0.0039 0,0.0039 0,0.0039 0.207031,1.992187 1.925781,3.546875 3.925781,3.558594 2.003907,0.01172 3.734376,-1.523438 3.96875,-3.511719 0,0 0,-0.0039 0,-0.0039 l 0.714844,-6.1875 c 0.699219,1.03125 1.855469,1.722656 3.152344,1.765625 1.902344,0.05859 3.609375,-1.277344 4.007812,-3.136719 l 1.367188,-6.375 c 0.429688,0.160156 0.886719,0.253906 1.363281,0.253906 H 52.917969 52.875 c 2.183594,0.03125 4.035156,-1.789062 4.035156,-3.972656 0,-2.183594 -1.851562,-4.003906 -4.035156,-3.972656 h 0.04297 -3.621094 l -1.820313,-6.378906 c -0.0039,0 -0.0039,0 -0.0039,0 C 46.960938,28.039062 45.136719,26.90625 43.523438,26.957031 42.441406,26.996094 41.3125,27.578125 40.5625,28.5 l -0.917969,-6.101562 c -0.292969,-1.949219 -2.023437,-3.410157 -3.992187,-3.378907 -1.625,0.02734 -3.039063,1.074219 -3.617188,2.535157 l -0.304687,-2.941407 c 0,0 0,-0.0039 0,-0.0039 -0.214844,-2.046875 -2.023438,-3.625 -4.082031,-3.554687 z M 22.5,50.601562 v 0.0039 z m 0,0"
       id="path4"
       inkscape:connector-curvature="0" />
    <path
       style="fill:#ee514f;fill-opacity:1;fill-rule:nonzero;stroke:none"
       d="m 27.738281,17.699219 c -0.652343,0.01953 -1.1875,0.511719 -1.269531,1.15625 L 23.925781,39.195312 22.484375,25.496094 C 22.414062,24.84375 21.875,24.339844 21.214844,24.3125 20.558594,24.28906 19.980469,24.75 19.863281,25.398438 l -2.449219,13.464843 h -6.832031 c -0.476562,-0.0078 -0.921875,0.242188 -1.160156,0.65625 -0.242187,0.414063 -0.242187,0.921875 0,1.335938 0.238281,0.414062 0.683594,0.664062 1.160156,0.65625 h 7.9375 c 0.640625,0 1.1875,-0.457031 1.304688,-1.085938 l 0.992187,-5.46875 1.679688,15.953125 c 0.07031,0.667969 0.632812,1.175782 1.304687,1.183594 0.671875,0.0039 1.242188,-0.492188 1.324219,-1.160156 l 2.53125,-20.25 2.777344,26.839844 c 0.07031,0.667968 0.632812,1.179687 1.308594,1.183593 0.675781,0.0039 1.246093,-0.5 1.324218,-1.167969 l 2.824219,-24.484374 2.488281,16.589843 c 0.09375,0.632813 0.628906,1.105469 1.265625,1.125 0.640625,0.01953 1.203125,-0.417969 1.335938,-1.042969 l 2.859375,-13.339843 1.191406,4.164062 c 0.160156,0.570313 0.679688,0.960938 1.269531,0.960938 h 6.617188 c 0.476562,0.0078 0.921875,-0.242188 1.160156,-0.65625 0.242187,-0.414063 0.242187,-0.921875 0,-1.335938 -0.238281,-0.414062 -0.683594,-0.664062 -1.160156,-0.65625 H 47.300781 L 44.929688,30.5625 c -0.167969,-0.582031 -0.710938,-0.976562 -1.316407,-0.957031 -0.609375,0.01953 -1.125,0.449219 -1.25,1.042969 L 39.917969,42.058594 37.027344,22.792969 c -0.09766,-0.65625 -0.667969,-1.136719 -1.332032,-1.125 -0.664062,0.01172 -1.214843,0.511719 -1.292968,1.167969 L 31.820312,45.214844 29.097656,18.882812 c -0.07031,-0.6875 -0.664062,-1.207031 -1.359375,-1.183593 z m 0,0"
       id="path6"
       inkscape:connector-curvature="0" />
    <path
       style="fill:#616161;fill-opacity:1;fill-rule:nonzero;stroke:none"
       d="M 58.117188,34.753906 C 56.707031,34.375 55.257812,35.214844 54.878906,36.625 l -2.398437,8.945312 c -0.378907,1.410157 0.460937,2.859376 1.871093,3.238282 1.410157,0.378906 2.863282,-0.457032 3.242188,-1.871094 l 2.394531,-8.945312 c 0.378907,-1.410157 -0.457031,-2.859376 -1.871093,-3.238282 z m 0,0"
       id="path8"
       inkscape:connector-curvature="0" />
    <path
       style="fill:#5c68bf;fill-opacity:1;fill-rule:nonzero;stroke:none"
       d="m 56.957031,28.859375 -2.554687,-0.683594 c -1.410156,-0.378906 -2.863282,0.460938 -3.242188,1.871094 l -5.132812,19.167969 c -0.378906,1.410156 0.457031,2.863281 1.871094,3.238281 l 2.554687,0.6875 c 1.410156,0.378906 2.863281,-0.460937 3.238281,-1.871094 l 5.136719,-19.167969 c 0.378906,-1.410156 -0.457031,-2.863281 -1.871094,-3.242187 z m 0,0"
       id="path10"
       inkscape:connector-curvature="0" />
    <path
       style="fill:#5c68bf;fill-opacity:1;fill-rule:nonzero;stroke:none"
       d="m 31.75,3.144531 c -5.117188,0 -9.964844,1.363281 -13.089844,2.925781 -0.859375,0.414063 -1.433594,1.261719 -1.492187,2.214844 -0.0625,0.953125 0.394531,1.863282 1.191406,2.386719 0.800781,0.523437 1.820313,0.574219 2.667969,0.132813 C 23.195312,9.722656 27.644531,8.4375 31.75,8.4375 c 4.105469,0 8.554688,1.285156 10.722656,2.367188 0.847656,0.441406 1.867188,0.390624 2.667969,-0.132813 C 45.9375,10.148438 46.394531,9.238281 46.332031,8.285156 46.273438,7.332031 45.699219,6.484375 44.839844,6.070312 41.714844,4.507812 36.867188,3.144531 31.75,3.144531 Z m 0,0"
       id="path12"
       inkscape:connector-curvature="0" />
    <path
       style="fill:#616161;fill-opacity:1;fill-rule:nonzero;stroke:none"
       d="M 5.382812,34.753906 C 6.792969,34.375 8.242188,35.214844 8.621094,36.625 l 2.398437,8.945312 c 0.378907,1.410157 -0.460937,2.859376 -1.871093,3.238282 C 7.738281,49.1875 6.285156,48.351562 5.90625,46.9375 L 3.511719,37.992188 C 3.132812,36.582031 3.96875,35.132812 5.382812,34.753906 Z m 0,0"
       id="path14"
       inkscape:connector-curvature="0" />
    <path
       style="fill:#5c68bf;fill-opacity:1;fill-rule:nonzero;stroke:none"
       d="m 6.542969,28.859375 2.554687,-0.683594 c 1.410156,-0.378906 2.863282,0.460938 3.242188,1.871094 l 5.132812,19.167969 c 0.378906,1.410156 -0.457031,2.863281 -1.871094,3.238281 l -2.554687,0.6875 C 11.636719,53.519531 10.183594,52.679688 9.808594,51.269531 L 4.671875,32.101562 C 4.292969,30.691406 5.128906,29.238281 6.542969,28.859375 Z m 0,0"
       id="path16"
       inkscape:connector-curvature="0" />
  </g>
</svg>
