<?xml version="1.0" encoding="UTF-8" standalone="no"?>
<svg
   xmlns:dc="http://purl.org/dc/elements/1.1/"
   xmlns:cc="http://creativecommons.org/ns#"
   xmlns:rdf="http://www.w3.org/1999/02/22-rdf-syntax-ns#"
   xmlns:svg="http://www.w3.org/2000/svg"
   xmlns="http://www.w3.org/2000/svg"
   xmlns:sodipodi="http://sodipodi.sourceforge.net/DTD/sodipodi-0.dtd"
   xmlns:inkscape="http://www.inkscape.org/namespaces/inkscape"
   width="48"
   height="48"
   viewBox="0 0 48 48"
   version="1.1"
   id="svg47"
   sodipodi:docname="author.svg"
   inkscape:version="0.92.4 (5da689c313, 2019-01-14)">
  <metadata
     id="metadata53">
    <rdf:RDF>
      <cc:Work
         rdf:about="">
        <dc:format>image/svg+xml</dc:format>
        <dc:type
           rdf:resource="http://purl.org/dc/dcmitype/StillImage" />
        <dc:title></dc:title>
      </cc:Work>
    </rdf:RDF>
  </metadata>
  <defs
     id="defs51" />
  <sodipodi:namedview
     pagecolor="#ffffff"
     bordercolor="#666666"
     borderopacity="1"
     objecttolerance="10"
     gridtolerance="10"
     guidetolerance="10"
     inkscape:pageopacity="0"
     inkscape:pageshadow="2"
     inkscape:window-width="1280"
     inkscape:window-height="954"
     id="namedview49"
     showgrid="false"
     inkscape:zoom="3.6875"
     inkscape:cx="27.254237"
     inkscape:cy="32"
     inkscape:window-x="0"
     inkscape:window-y="0"
     inkscape:window-maximized="1"
     inkscape:current-layer="svg47" />
  <g
     id="surface1"
     transform="matrix(0.74210012,0,0,0.74210012,0.37599628,0.06727113)">
    <path
       style="fill:#d7ccc7;fill-opacity:1;fill-rule:nonzero;stroke:none"
       d="m 6.613281,3.144531 c -1.464843,0 -2.644531,1.179688 -2.644531,2.648438 v 7.9375 L 9.261719,16.375 H 3.96875 v 3.96875 l 2.644531,1.324219 H 3.96875 V 44.15625 l 2.644531,1.324219 H 3.96875 V 48.125 l 5.292969,2.644531 H 3.96875 v 1.324219 l 2.644531,1.324219 H 3.96875 v 5.289062 c 0,1.46875 1.179688,2.648438 2.644531,2.648438 h 42.335938 c 1.464843,0 2.644531,-1.179688 2.644531,-2.648438 V 45.480469 H 48.949219 L 51.59375,44.15625 V 37.542969 H 48.949219 L 51.59375,36.21875 V 26.957031 H 46.300781 L 51.59375,24.3125 V 21.667969 H 48.949219 L 51.59375,20.34375 V 5.792969 c 0,-1.46875 -1.179688,-2.648438 -2.644531,-2.648438 z m 0,0"
       id="path2"
       inkscape:connector-curvature="0" />
    <path
       style="fill:#3f3f3f;fill-opacity:1;fill-rule:nonzero;stroke:none"
       d="m 11.246094,19.683594 h 5.289062 c 0.367188,0 0.664063,0.292968 0.664063,0.660156 0,0.367188 -0.296875,0.660156 -0.664063,0.660156 h -5.289062 c -0.367188,0 -0.664063,-0.292968 -0.664063,-0.660156 0,-0.367188 0.296875,-0.660156 0.664063,-0.660156 z m 0,0"
       id="path4"
       inkscape:connector-curvature="0" />
    <path
       style="fill:#3f3f3f;fill-opacity:1;fill-rule:nonzero;stroke:none"
       d="m 19.183594,19.683594 h 2.644531 c 0.367187,0 0.660156,0.292968 0.660156,0.660156 0,0.367188 -0.292969,0.660156 -0.660156,0.660156 h -2.644531 c -0.367188,0 -0.664063,-0.292968 -0.664063,-0.660156 0,-0.367188 0.296875,-0.660156 0.664063,-0.660156 z m 0,0"
       id="path6"
       inkscape:connector-curvature="0" />
    <path
       style="fill:#3f3f3f;fill-opacity:1;fill-rule:nonzero;stroke:none"
       d="m 11.246094,23.652344 h 10.582031 c 0.367187,0 0.660156,0.292968 0.660156,0.660156 0,0.367188 -0.292969,0.660156 -0.660156,0.660156 H 11.246094 c -0.367188,0 -0.664063,-0.292968 -0.664063,-0.660156 0,-0.367188 0.296875,-0.660156 0.664063,-0.660156 z m 0,0"
       id="path8"
       inkscape:connector-curvature="0" />
    <path
       style="fill:#3f3f3f;fill-opacity:1;fill-rule:nonzero;stroke:none"
       d="m 24.472656,23.652344 h 11.90625 c 0.367188,0 0.664063,0.292968 0.664063,0.660156 0,0.367188 -0.296875,0.660156 -0.664063,0.660156 h -11.90625 c -0.363281,0 -0.660156,-0.292968 -0.660156,-0.660156 0,-0.367188 0.296875,-0.660156 0.660156,-0.660156 z m 0,0"
       id="path10"
       inkscape:connector-curvature="0" />
    <path
       style="fill:#3f3f3f;fill-opacity:1;fill-rule:nonzero;stroke:none"
       d="m 11.246094,27.621094 h 9.257812 c 0.367188,0 0.664063,0.292968 0.664063,0.660156 0,0.367188 -0.296875,0.660156 -0.664063,0.660156 h -9.257812 c -0.367188,0 -0.664063,-0.292968 -0.664063,-0.660156 0,-0.367188 0.296875,-0.660156 0.664063,-0.660156 z m 0,0"
       id="path12"
       inkscape:connector-curvature="0" />
    <path
       style="fill:#3f3f3f;fill-opacity:1;fill-rule:nonzero;stroke:none"
       d="m 23.152344,27.621094 h 5.289062 c 0.367188,0 0.664063,0.292968 0.664063,0.660156 0,0.367188 -0.296875,0.660156 -0.664063,0.660156 h -5.289062 c -0.367188,0 -0.664063,-0.292968 -0.664063,-0.660156 0,-0.367188 0.296875,-0.660156 0.664063,-0.660156 z m 0,0"
       id="path14"
       inkscape:connector-curvature="0" />
    <path
       style="fill:#3f3f3f;fill-opacity:1;fill-rule:nonzero;stroke:none"
       d="M 11.246094,31.589844 H 15.875 c 0.367188,0 0.660156,0.292968 0.660156,0.660156 0,0.367188 -0.292968,0.660156 -0.660156,0.660156 h -4.628906 c -0.367188,0 -0.664063,-0.292968 -0.664063,-0.660156 0,-0.367188 0.296875,-0.660156 0.664063,-0.660156 z m 0,0"
       id="path16"
       inkscape:connector-curvature="0" />
    <path
       style="fill:#3f3f3f;fill-opacity:1;fill-rule:nonzero;stroke:none"
       d="m 26.457031,31.589844 h 15.214844 c 0.367187,0 0.660156,0.292968 0.660156,0.660156 0,0.367188 -0.292969,0.660156 -0.660156,0.660156 H 26.457031 c -0.363281,0 -0.660156,-0.292968 -0.660156,-0.660156 0,-0.367188 0.296875,-0.660156 0.660156,-0.660156 z m 0,0"
       id="path18"
       inkscape:connector-curvature="0" />
    <path
       style="fill:#3f3f3f;fill-opacity:1;fill-rule:nonzero;stroke:none"
       d="M 14.550781,35.558594 H 31.75 c 0.367188,0 0.660156,0.292968 0.660156,0.660156 0,0.367188 -0.292968,0.660156 -0.660156,0.660156 H 14.550781 c -0.363281,0 -0.660156,-0.292968 -0.660156,-0.660156 0,-0.367188 0.296875,-0.660156 0.660156,-0.660156 z m 0,0"
       id="path20"
       inkscape:connector-curvature="0" />
    <path
       style="fill:#3f3f3f;fill-opacity:1;fill-rule:nonzero;stroke:none"
       d="m 34.394531,35.558594 h 7.277344 c 0.367187,0 0.660156,0.292968 0.660156,0.660156 0,0.367188 -0.292969,0.660156 -0.660156,0.660156 h -7.277344 c -0.363281,0 -0.660156,-0.292968 -0.660156,-0.660156 0,-0.367188 0.296875,-0.660156 0.660156,-0.660156 z m 0,0"
       id="path22"
       inkscape:connector-curvature="0" />
    <path
       style="fill:#3f3f3f;fill-opacity:1;fill-rule:nonzero;stroke:none"
       d="m 11.246094,39.527344 h 13.890625 c 0.363281,0 0.660156,0.292968 0.660156,0.660156 v 0.05859 c 0,0.367187 -0.296875,0.664062 -0.660156,0.664062 H 11.246094 c -0.367188,0 -0.664063,-0.296875 -0.664063,-0.664062 V 40.1875 c 0,-0.367188 0.296875,-0.660156 0.664063,-0.660156 z m 0,0"
       id="path24"
       inkscape:connector-curvature="0" />
    <path
       style="fill:#3f3f3f;fill-opacity:1;fill-rule:nonzero;stroke:none"
       d="m 27.78125,39.527344 h 13.890625 c 0.367187,0 0.660156,0.292968 0.660156,0.660156 0,0.367188 -0.292969,0.660156 -0.660156,0.660156 H 27.78125 c -0.367188,0 -0.660156,-0.292968 -0.660156,-0.660156 0,-0.367188 0.292968,-0.660156 0.660156,-0.660156 z m 0,0"
       id="path26"
       inkscape:connector-curvature="0" />
    <path
       style="fill:#3f3f3f;fill-opacity:1;fill-rule:nonzero;stroke:none"
       d="m 24.472656,19.683594 h 10.585938 c 0.363281,0 0.660156,0.292968 0.660156,0.660156 0,0.367188 -0.296875,0.660156 -0.660156,0.660156 H 24.472656 c -0.363281,0 -0.660156,-0.292968 -0.660156,-0.660156 0,-0.367188 0.296875,-0.660156 0.660156,-0.660156 z m 0,0"
       id="path28"
       inkscape:connector-curvature="0" />
    <path
       style="fill:#3f3f3f;fill-opacity:1;fill-rule:nonzero;stroke:none"
       d="m 31.089844,27.621094 h 5.289062 c 0.367188,0 0.664063,0.292968 0.664063,0.660156 0,0.367188 -0.296875,0.660156 -0.664063,0.660156 h -5.289062 c -0.367188,0 -0.664063,-0.292968 -0.664063,-0.660156 0,-0.367188 0.296875,-0.660156 0.664063,-0.660156 z m 0,0"
       id="path30"
       inkscape:connector-curvature="0" />
    <path
       style="fill:#3f3f3f;fill-opacity:1;fill-rule:nonzero;stroke:none"
       d="M 18.519531,31.589844 H 23.8125 c 0.367188,0 0.660156,0.292968 0.660156,0.660156 0,0.367188 -0.292968,0.660156 -0.660156,0.660156 h -5.292969 c -0.363281,0 -0.660156,-0.292968 -0.660156,-0.660156 0,-0.367188 0.296875,-0.660156 0.660156,-0.660156 z m 0,0"
       id="path32"
       inkscape:connector-curvature="0" />
    <path
       style="fill:#b866c7;fill-opacity:1;fill-rule:nonzero;stroke:none"
       d="m 59.699219,6.171875 c -2.234375,0 -6.15625,3.386719 -10.300781,8.1875 0.175781,0.765625 0.390624,1.519531 0.652343,2.25 0.0078,0.140625 -0.433593,-0.601563 -1.035156,-1.796875 -1.253906,1.476562 -2.519531,3.070312 -3.765625,4.734375 0.316406,0.621094 0.660156,1.222656 1.039062,1.796875 0.04297,0.128906 -0.515624,-0.433594 -1.335937,-1.394531 -3.699219,5.011719 -7.140625,10.597656 -9.234375,15.304687 -0.03125,2.359375 0.152344,4.441406 1.007812,6.144532 0,0 -1.089843,-1.074219 -2.296874,-2.296876 0,3.832032 0.765624,6.894532 2.296874,6.894532 3.578126,0.273437 8.992188,-1.34375 11.488282,-3.0625 -3.003906,-0.167969 -8.160156,0.136718 -7.660156,0 3.574218,-0.851563 6.71875,-2.027344 9.226562,-3.171875 3.992188,-5.203125 6.214844,-12.820313 7.582031,-19.570313 -3.175781,0.617188 -6.132812,0.746094 -5.90625,0.613282 2.183594,-0.519532 4.355469,-1.542969 6.308594,-2.71875 0.285156,-1.53125 0.523437,-3 0.730469,-4.363282 -1.957032,0.246094 -3.371094,0.28125 -3.214844,0.191406 1.136719,-0.273437 2.265625,-0.675781 3.367188,-1.167968 0.445312,-2.992188 0.75,-5.359375 1.050781,-6.574219 z m 0,0"
       id="path34"
       inkscape:connector-curvature="0" />
    <path
       style="fill:#cc91d7;fill-opacity:1;fill-rule:nonzero;stroke:none"
       d="M 32.898438,61.3125 C 35.195312,47.527344 40.554688,26.082031 54.339844,12.296875 42.851562,29.148438 37.492188,47.527344 35.957031,58.25 Z m 0,0"
       id="path36"
       inkscape:connector-curvature="0" />
    <path
       style="fill:#3f3f3f;fill-opacity:1;fill-rule:nonzero;stroke:none"
       d="m 14.550781,16.375 h 7.277344 c 0.367187,0 0.660156,0.296875 0.660156,0.660156 0,0.367188 -0.292969,0.664063 -0.660156,0.664063 h -7.277344 c -0.363281,0 -0.660156,-0.296875 -0.660156,-0.664063 0,-0.363281 0.296875,-0.660156 0.660156,-0.660156 z m 0,0"
       id="path38"
       inkscape:connector-curvature="0" />
    <path
       style="fill:#3f3f3f;fill-opacity:1;fill-rule:nonzero;stroke:none"
       d="m 24.472656,16.375 h 0.664063 c 0.363281,0 0.660156,0.296875 0.660156,0.660156 0,0.367188 -0.296875,0.664063 -0.660156,0.664063 h -0.664063 c -0.363281,0 -0.660156,-0.296875 -0.660156,-0.664063 0,-0.363281 0.296875,-0.660156 0.660156,-0.660156 z m 0,0"
       id="path40"
       inkscape:connector-curvature="0" />
    <path
       style="fill:#3f3f3f;fill-opacity:1;fill-rule:nonzero;stroke:none"
       d="m 27.78125,16.375 h 13.890625 c 0.367187,0 0.660156,0.296875 0.660156,0.660156 0,0.367188 -0.292969,0.664063 -0.660156,0.664063 H 27.78125 c -0.367188,0 -0.660156,-0.296875 -0.660156,-0.664063 0,-0.363281 0.292968,-0.660156 0.660156,-0.660156 z m 0,0"
       id="path42"
       inkscape:connector-curvature="0" />
    <path
       style="fill:#3f3f3f;fill-opacity:1;fill-rule:nonzero;stroke:none"
       d="M 39.027344,23.652344 H 39.6875 c 0.367188,0 0.660156,0.292968 0.660156,0.660156 0,0.367188 -0.292968,0.660156 -0.660156,0.660156 h -0.660156 c -0.367188,0 -0.664063,-0.292968 -0.664063,-0.660156 0,-0.367188 0.296875,-0.660156 0.664063,-0.660156 z m 0,0"
       id="path44"
       inkscape:connector-curvature="0" />
  </g>
</svg>
