<?xml version="1.0" encoding="UTF-8" standalone="no"?>
<svg
   xmlns:dc="http://purl.org/dc/elements/1.1/"
   xmlns:cc="http://creativecommons.org/ns#"
   xmlns:rdf="http://www.w3.org/1999/02/22-rdf-syntax-ns#"
   xmlns:svg="http://www.w3.org/2000/svg"
   xmlns="http://www.w3.org/2000/svg"
   xmlns:sodipodi="http://sodipodi.sourceforge.net/DTD/sodipodi-0.dtd"
   xmlns:inkscape="http://www.inkscape.org/namespaces/inkscape"
   width="48"
   height="48"
   viewBox="0 0 48 48"
   version="1.1"
   id="svg13"
   sodipodi:docname="calendar.svg"
   inkscape:version="0.92.4 (5da689c313, 2019-01-14)">
  <metadata
     id="metadata19">
    <rdf:RDF>
      <cc:Work
         rdf:about="">
        <dc:format>image/svg+xml</dc:format>
        <dc:type
           rdf:resource="http://purl.org/dc/dcmitype/StillImage" />
        <dc:title></dc:title>
      </cc:Work>
    </rdf:RDF>
  </metadata>
  <defs
     id="defs17" />
  <sodipodi:namedview
     pagecolor="#ffffff"
     bordercolor="#666666"
     borderopacity="1"
     objecttolerance="10"
     gridtolerance="10"
     guidetolerance="10"
     inkscape:pageopacity="0"
     inkscape:pageshadow="2"
     inkscape:window-width="1280"
     inkscape:window-height="954"
     id="namedview15"
     showgrid="false"
     inkscape:zoom="7.375"
     inkscape:cx="53.232587"
     inkscape:cy="43.062563"
     inkscape:window-x="0"
     inkscape:window-y="0"
     inkscape:window-maximized="1"
     inkscape:current-layer="svg13" />
  <g
     id="g3903"
     transform="matrix(0.74503549,0,0,0.74503549,0.87255366,-0.08240235)">
    <path
       sodipodi:nodetypes="cssscccscc"
       style="fill:#a1c4ff;fill-opacity:1;stroke-width:0.1296377"
       d="m 60.093843,47.779509 c 0.08245,0.06942 -2.833031,2.796581 -10.224379,9.137011 -2.662472,2.283913 -4.696897,4.471392 -4.795016,4.348882 -0.06944,-0.0867 -0.536554,-1.128196 -0.38662,-1.365849 l 0.388006,-0.615007 -0.100605,-5.838223 -0.01258,-5.774665 7.46029,0.03486 c 4.096224,0.01919 7.623585,0.04859 7.670896,0.08846 z"
       id="path2984-8"
       inkscape:connector-curvature="0" />
    <path
       sodipodi:nodetypes="ccssscssssscsscccssssscsssssscccsccsssssssssssssssssssscssssssssssssssssssssscsssssscc"
       style="fill:#3a82f1;stroke-width:0.1296377"
       d="M 18.836434,61.226523 7.3634988,61.158499 6.5188982,60.829146 C 4.3748983,59.993071 2.8947403,58.453682 2.1612248,56.297087 1.9278294,55.610888 1.9187127,54.704428 1.9187127,32.184479 V 8.7848578 L 2.2480693,7.9402566 C 3.0841402,5.7962562 4.6235349,4.3160983 6.780125,3.5825826 7.4663843,3.3491701 8.3757698,3.3400709 31.022379,3.3400709 c 22.646604,0 23.555989,0.00912 24.242248,0.2425117 2.156592,0.7335157 3.695983,2.2136736 4.532054,4.357674 l 0.32936,0.8446012 0.03379,16.9177212 c 0.01859,9.304743 -0.01062,17.530255 -0.06482,18.278911 l 0.0069,3.822118 -6.534417,-0.03667 -6.077384,-0.03667 -0.03429,-15.214036 C 47.43421,22.928109 47.3829,19.583854 47.270777,19.47175 c -0.201972,-0.201939 -1.187704,-0.303364 -1.904143,-0.195926 -0.543344,0.08149 -0.615965,0.142463 -1.138111,0.955814 -1.186649,1.848442 -3.867185,4.156091 -6.529801,5.62145 l -1.037098,0.570768 -0.03608,1.781028 c -0.03094,1.526183 -0.0068,1.792292 0.168947,1.859712 0.43986,0.168789 3.815571,-1.56868 5.573242,-2.868544 0.532254,-0.393616 0.997466,-0.715667 1.033805,-0.715667 0.03636,0 0.06737,4.623201 0.06896,10.273785 0.0033,11.5703 -0.06512,10.802894 0.9694,10.882221 l 0.518549,0.03977 v 6.805978 6.805976 l -7.324527,0.0032 c -4.028491,0.0016 -12.487355,-0.02744 -18.797469,-0.06484 z m 4.913998,-13.029238 c 3.24806,-0.683244 5.957419,-3.100144 6.905805,-6.160361 0.253883,-0.819213 0.300619,-1.247808 0.296843,-2.722389 -0.004,-1.476977 -0.05034,-1.881622 -0.298353,-2.592753 -0.6153,-1.764256 -2.029543,-3.333422 -3.578507,-3.970518 -0.324553,-0.133491 -0.57575,-0.280109 -0.558222,-0.325816 0.01756,-0.0457 0.340822,-0.32628 0.718426,-0.623493 1.556285,-1.224977 2.374771,-2.913563 2.390929,-4.932641 0.02791,-3.491539 -2.525143,-6.513615 -6.191959,-7.329404 -1.490052,-0.33151 -4.069096,-0.215224 -5.373389,0.242271 -1.19445,0.41897 -2.525188,1.312419 -3.388889,2.275275 -0.992573,1.106527 -2.059294,3.49192 -2.059294,4.604991 0,0.268397 0.08653,0.349022 0.486144,0.452975 0.871503,0.226718 2.857996,0.555862 3.083069,0.510843 0.152893,-0.0306 0.316078,-0.378973 0.536715,-1.145863 0.37871,-1.316341 0.756296,-1.998718 1.455481,-2.630394 0.89353,-0.80725 1.490198,-1.040724 2.819214,-1.103155 1.436939,-0.0675 2.219758,0.152782 3.146645,0.885448 1.218203,0.962933 1.732967,2.79906 1.250246,4.459558 -0.505393,1.738487 -2.696605,3.055499 -5.083654,3.055499 -0.444267,0 -0.846625,0.06289 -0.894134,0.139755 -0.04749,0.07686 -0.17079,0.786248 -0.273962,1.576399 -0.232623,1.781549 -0.177118,1.889732 0.855938,1.668177 0.997981,-0.214027 2.708212,-0.178752 3.452365,0.07121 2.3888,0.802413 3.74672,3.210497 3.310294,5.870367 -0.290685,1.771656 -1.345436,3.191111 -2.966546,3.992309 -0.962056,0.47547 -1.025157,0.488195 -2.420547,0.488195 -1.32676,0 -1.488139,-0.02807 -2.181725,-0.379286 -1.368056,-0.692779 -2.355605,-2.079554 -2.86209,-4.019093 -0.109038,-0.417548 -0.253883,-0.814811 -0.321878,-0.882807 -0.148157,-0.148156 -3.373564,0.25361 -3.618437,0.450723 -0.593435,0.47768 0.477653,3.578327 1.772734,5.131827 1.206577,1.447333 2.68588,2.377703 4.561616,2.868934 1.203892,0.31529 3.705265,0.351703 5.029122,0.07325 z M 16.631726,12.609786 C 18.09502,11.567826 18.348674,9.7316104 17.204288,8.4649135 16.619924,7.8180916 15.99944,7.534761 15.167474,7.5348447 c -0.84737,8.9e-5 -1.333869,0.182179 -1.88888,0.7070043 -0.883697,0.8356178 -1.157195,2.092784 -0.682188,3.135761 0.32482,0.713201 1.178969,1.456181 1.792203,1.558942 0.27163,0.04553 0.551186,0.09709 0.621235,0.114598 0.289695,0.07242 1.278067,-0.196548 1.621882,-0.441364 z m 30.238488,0.264302 c 0.241326,-0.01403 1.19842,-1.028859 1.41139,-1.496478 0.613667,-1.347428 -0.132892,-3.1768427 -1.508246,-3.6959169 -0.484851,-0.1829847 -1.57084,-0.1903182 -2.035018,-0.013764 -0.612581,0.2330424 -1.366892,1.0253256 -1.58466,1.6644343 -0.256227,0.7519896 -0.257468,1.1498736 -0.0058,1.8631816 0.459083,1.301183 1.745608,2.039106 3.106923,1.782074 0.285204,-0.05386 0.562137,-0.100454 0.615405,-0.103554 z"
       id="path2988"
       inkscape:connector-curvature="0" />
    <path
       sodipodi:nodetypes="cssscccsc"
       style="fill:#2656a0;stroke-width:0.1296377"
       d="m 30.211841,61.264937 c -0.0815,-0.0815 2.775665,-3.066924 10.081461,-10.506486 2.631646,-2.679828 3.413963,-3.406942 3.510947,-3.263192 0.06863,0.101731 0.415307,0.09926 0.726144,0.135944 l 0.427343,0.05039 0.09943,6.850288 0.01242,6.775713 -7.373943,-0.04099 c -4.04881,-0.02245 -7.437056,0.04508 -7.483814,-0.0016 z"
       id="path2984"
       inkscape:connector-curvature="0" />
    <path
       inkscape:connector-curvature="0"
       id="path3029"
       d="m 19.723721,48.238508 c -2.7725,-0.348085 -5.158883,-2.007797 -6.41955,-4.464746 -0.768613,-1.497971 -1.218126,-3.103438 -0.971906,-3.471248 0.0495,-0.07391 0.343653,-0.193359 0.653724,-0.265439 0.737117,-0.171345 2.693888,-0.386125 2.877152,-0.315798 0.07871,0.03021 0.287677,0.494421 0.464375,1.031602 0.176698,0.537179 0.480817,1.284353 0.675816,1.66039 0.449111,0.86605 1.37173,1.807137 2.156776,2.199948 0.572601,0.286507 0.656487,0.299574 2.120838,0.330285 l 1.524657,0.032 0.761755,-0.361758 c 2.150511,-1.021276 3.292492,-2.790145 3.297145,-5.107118 0.0028,-1.474044 -0.496148,-2.713313 -1.497865,-3.719124 -1.224352,-1.229351 -2.661957,-1.632062 -4.884551,-1.36829 -0.585231,0.06945 -1.133368,0.09968 -1.218093,0.06717 -0.110889,-0.04256 -0.15404,-0.19944 -0.15404,-0.560067 0,-0.740468 0.287084,-2.51941 0.41982,-2.601445 0.06325,-0.0391 0.498061,-0.102245 0.966245,-0.140331 1.085463,-0.08831 2.168044,-0.362635 2.817339,-0.713923 0.763773,-0.413214 1.613196,-1.247557 1.932944,-1.898618 0.256651,-0.522582 0.277284,-0.653394 0.277284,-1.757834 0,-1.135041 -0.01544,-1.225844 -0.316772,-1.861917 -0.624853,-1.319037 -1.833179,-2.127276 -3.336918,-2.232036 -1.582618,-0.110251 -2.723771,0.216146 -3.668366,1.049248 -0.633974,0.559144 -1.002723,1.176943 -1.417157,2.374307 -0.52308,1.511267 -0.474772,1.452886 -1.140012,1.377621 -0.792087,-0.08962 -2.614096,-0.460949 -2.83371,-0.577515 -0.153766,-0.08162 -0.173152,-0.169836 -0.118066,-0.537174 0.150523,-1.003759 0.953516,-2.848096 1.681673,-3.862504 0.684475,-0.953548 2.127595,-2.040527 3.429433,-2.583087 0.813956,-0.339228 1.470449,-0.453408 2.989032,-0.519853 2.864488,-0.125325 4.82688,0.583418 6.630198,2.394599 0.756698,0.759994 0.981095,1.063085 1.369531,1.849819 0.608761,1.232969 0.793367,2.116275 0.726558,3.476517 -0.05861,1.193202 -0.296,2.025694 -0.828856,2.906588 -0.344871,0.570117 -1.254219,1.549591 -1.886101,2.03155 -0.184701,0.14088 -0.335822,0.29672 -0.335822,0.346314 0,0.0496 0.346779,0.256821 0.770626,0.460499 1.350582,0.649021 2.6404,2.072738 3.268379,3.607681 0.321699,0.786326 0.451466,2.298331 0.336599,3.922097 -0.08561,1.210185 -0.227097,1.718017 -0.79627,2.857873 -0.611149,1.223909 -1.60875,2.388464 -2.816305,3.287607 -0.710202,0.52882 -2.18857,1.213206 -3.149497,1.458013 -0.975256,0.24845 -3.164426,0.347972 -4.358042,0.198113 z"
       style="fill:#f9f9f9;fill-opacity:1;fill-rule:nonzero;stroke:#f9f9f9;stroke-width:0.38891309;stroke-miterlimit:4;stroke-dasharray:none;stroke-opacity:1" />
    <path
       inkscape:connector-curvature="0"
       id="path3031"
       d="m 14.515244,12.905025 c -0.65401,-0.179126 -1.197504,-0.585243 -1.636766,-1.223026 -0.326577,-0.474173 -0.380438,-0.633661 -0.413879,-1.225493 -0.03199,-0.565867 0.0028,-0.7695121 0.206833,-1.2100541 0.524898,-1.1335349 1.563866,-1.7628342 2.714381,-1.6440924 0.674469,0.069612 1.200009,0.346209 1.710891,0.9004422 0.536996,0.5825736 0.720579,1.0405449 0.720579,1.7975623 0,1.696829 -1.705326,3.041998 -3.302039,2.604661 z"
       style="fill:#f9f9f9;fill-opacity:1;fill-rule:nonzero;stroke:#f9f9f9;stroke-width:0.38891309;stroke-miterlimit:4;stroke-dasharray:none;stroke-opacity:1" />
    <path
       inkscape:connector-curvature="0"
       id="path3033"
       d="m 44.614597,12.708997 c -0.905503,-0.421672 -1.568943,-1.439798 -1.568943,-2.407739 0,-0.9146765 0.691679,-2.0213653 1.569671,-2.5114736 0.418019,-0.2333448 1.863522,-0.2250995 2.310311,0.013195 0.480253,0.2561209 1.019839,0.8382289 1.253581,1.3523716 0.27201,0.5983133 0.290647,1.695964 0.03742,2.204312 -0.264326,0.530646 -1.143474,1.36886 -1.555856,1.483412 -0.633907,0.1761 -1.502317,0.1192 -2.046182,-0.134067 z"
       style="fill:#f9f9f9;fill-opacity:1;fill-rule:nonzero;stroke:#f9f9f9;stroke-width:0.38891309;stroke-miterlimit:4;stroke-dasharray:none;stroke-opacity:1" />
    <path
       inkscape:connector-curvature="0"
       id="path3035"
       d="m 44.340166,47.573484 c -0.734194,-0.07668 -0.711104,0.09262 -0.78297,-5.739964 -0.03507,-2.846357 -0.06864,-7.473227 -0.07458,-10.281935 -0.0094,-4.452293 -0.02959,-5.099546 -0.157177,-5.050572 -0.0805,0.03087 -0.494405,0.298185 -0.919784,0.593989 -1.803737,1.254308 -4.678233,2.795912 -5.349328,2.868874 l -0.296458,0.03222 -0.02713,-1.759467 -0.02713,-1.759474 0.474594,-0.270353 c 2.371745,-1.351074 3.720448,-2.335615 5.262959,-3.841904 0.610075,-0.595746 1.390331,-1.482105 1.7339,-1.969685 0.483358,-0.685946 0.702155,-0.912076 0.967135,-0.999525 0.421134,-0.138988 1.867705,-0.06891 2.035264,0.0986 0.138223,0.138167 0.242093,8.472152 0.259471,20.818313 l 0.0103,7.333415 -1.367243,-0.01673 c -0.75199,-0.0092 -1.535816,-0.03438 -1.741843,-0.05586 z"
       style="fill:#f9f9f9;fill-opacity:1;fill-rule:nonzero;stroke:#f9f9f9;stroke-width:0.38891309;stroke-miterlimit:4;stroke-dasharray:none;stroke-opacity:1" />
  </g>
</svg>
