<?xml version="1.0" encoding="UTF-8" standalone="no"?>
<svg
   xmlns:dc="http://purl.org/dc/elements/1.1/"
   xmlns:cc="http://creativecommons.org/ns#"
   xmlns:rdf="http://www.w3.org/1999/02/22-rdf-syntax-ns#"
   xmlns:svg="http://www.w3.org/2000/svg"
   xmlns="http://www.w3.org/2000/svg"
   xmlns:sodipodi="http://sodipodi.sourceforge.net/DTD/sodipodi-0.dtd"
   xmlns:inkscape="http://www.inkscape.org/namespaces/inkscape"
   width="48"
   height="48"
   viewBox="0 0 48 48"
   version="1.1"
   id="svg17"
   sodipodi:docname="cherrytree.svg"
   inkscape:version="0.92.4 (5da689c313, 2019-01-14)">
  <metadata
     id="metadata23">
    <rdf:RDF>
      <cc:Work
         rdf:about="">
        <dc:format>image/svg+xml</dc:format>
        <dc:type
           rdf:resource="http://purl.org/dc/dcmitype/StillImage" />
        <dc:title></dc:title>
      </cc:Work>
    </rdf:RDF>
  </metadata>
  <defs
     id="defs21" />
  <sodipodi:namedview
     pagecolor="#ffffff"
     bordercolor="#666666"
     borderopacity="1"
     objecttolerance="10"
     gridtolerance="10"
     guidetolerance="10"
     inkscape:pageopacity="0"
     inkscape:pageshadow="2"
     inkscape:window-width="1280"
     inkscape:window-height="954"
     id="namedview19"
     showgrid="false"
     inkscape:zoom="3.6875"
     inkscape:cx="27.254237"
     inkscape:cy="32"
     inkscape:window-x="0"
     inkscape:window-y="0"
     inkscape:window-maximized="1"
     inkscape:current-layer="svg17" />
  <g
     id="surface1"
     transform="matrix(0.75137562,0,0,0.75137562,1.3103075,-0.08109453)">
    <path
       style="fill:#429e45;fill-opacity:1;fill-rule:nonzero;stroke:none"
       d="m 46.300781,5.128906 c -23.8125,-7.273437 -21.164062,9.921875 -35.71875,8.601563 10.585938,10.582031 34.851563,4.863281 35.71875,-8.601563 z m 0,0"
       id="path2"
       inkscape:connector-curvature="0" />
    <path
       style="fill:#66ba68;fill-opacity:1;fill-rule:nonzero;stroke:none"
       d="M 39.6875,3.144531 C 45.558594,7.84375 23.898438,19.171875 21.828125,32.910156 21.777344,33.65625 23.25,33.902344 23.8125,33.574219 27.265625,21.359375 41.324219,15.117188 43.65625,5.792969 c 9.261719,6.613281 -0.535156,21.113281 -0.660156,29.765625 0,0.992187 2.570312,0.660156 2.644531,0 C 46.96875,24.9375 54.546875,13.695312 47.625,4.46875 Z m 0,0"
       id="path4"
       inkscape:connector-curvature="0" />
    <path
       style="fill:#e33833;fill-opacity:1;fill-rule:nonzero;stroke:none"
       d="M 19.03125,27.523438 C 14.449219,24.875 8.304688,26.996094 5.257812,32.273438 5.113281,32.519531 4.980469,32.769531 4.859375,33.019531 l -0.011719,-0.0039 c -4.394531,8.375 -2.304687,18.214844 4.890625,22.367187 7.191407,4.152344 16.757813,1.042969 21.8125,-6.949218 l -0.0078,-0.0039 c 0.15625,-0.234376 0.304687,-0.472657 0.445312,-0.722657 3.050781,-5.277343 1.8125,-11.65625 -2.773437,-14.304687 -1.921875,-1.109375 -4.121094,-1.382813 -6.25,-0.933594 -0.675782,-2.066406 -2.007813,-3.835938 -3.933594,-4.945312 z m 0,0"
       id="path6"
       inkscape:connector-curvature="0" />
    <path
       style="fill:#e37373;fill-opacity:1;fill-rule:nonzero;stroke:none"
       d="m 13.09375,28.839844 c 1.765625,-0.472656 3.347656,-0.285156 3.535156,0.421875 0.191406,0.703125 -1.085937,1.660156 -2.851562,2.132812 -1.765625,0.472657 -3.347656,0.285157 -3.535156,-0.421875 -0.191407,-0.707031 1.085937,-1.660156 2.851562,-2.132812 z m 0,0"
       id="path8"
       inkscape:connector-curvature="0" />
    <path
       style="fill:#ee514f;fill-opacity:1;fill-rule:nonzero;stroke:none"
       d="m 39.664062,31.171875 c -5.113281,-1.371094 -10.5,2.265625 -12.078124,8.152344 -0.07422,0.277343 -0.136719,0.550781 -0.191407,0.824219 h -0.01172 C 25.308594,49.375 29.875,58.339844 37.894531,60.488281 45.914062,62.636719 54.351562,57.15625 57.167969,48.128906 L 57.15625,48.125 c 0.08984,-0.265625 0.171875,-0.535156 0.246094,-0.808594 1.578125,-5.890625 -1.265625,-11.734375 -6.378906,-13.101562 -2.148438,-0.574219 -4.339844,-0.269532 -6.28125,0.714844 -1.1875,-1.820313 -2.933594,-3.183594 -5.078126,-3.757813 z m 0,0"
       id="path10"
       inkscape:connector-curvature="0" />
    <path
       style="fill:#e37373;fill-opacity:1;fill-rule:nonzero;stroke:none"
       d="m 35.9375,34.425781 c 1.582031,-0.914062 3.160156,-1.140625 3.523438,-0.507812 0.367187,0.632812 -0.617188,1.886719 -2.199219,2.800781 -1.582031,0.910156 -3.160157,1.140625 -3.527344,0.507812 -0.367187,-0.632812 0.621094,-1.886718 2.203125,-2.800781 z m 0,0"
       id="path12"
       inkscape:connector-curvature="0" />
    <path
       style="fill:#7fc782;fill-opacity:1;fill-rule:nonzero;stroke:none"
       d="m 46.300781,5.128906 c 9.453125,7.023438 8.800781,18.066406 8.421875,29 -3.742187,-13.097656 -15.902344,-17.773437 -8.421875,-29 z m 0,0"
       id="path14"
       inkscape:connector-curvature="0" />
  </g>
</svg>
