<?xml version="1.0" encoding="UTF-8" standalone="no"?>
<svg
   xmlns:dc="http://purl.org/dc/elements/1.1/"
   xmlns:cc="http://creativecommons.org/ns#"
   xmlns:rdf="http://www.w3.org/1999/02/22-rdf-syntax-ns#"
   xmlns:svg="http://www.w3.org/2000/svg"
   xmlns="http://www.w3.org/2000/svg"
   xmlns:sodipodi="http://sodipodi.sourceforge.net/DTD/sodipodi-0.dtd"
   xmlns:inkscape="http://www.inkscape.org/namespaces/inkscape"
   width="48"
   height="48"
   viewBox="0 0 48 48"
   version="1.1"
   id="svg23"
   sodipodi:docname="chrome.svg"
   inkscape:version="0.92.4 (5da689c313, 2019-01-14)">
  <metadata
     id="metadata29">
    <rdf:RDF>
      <cc:Work
         rdf:about="">
        <dc:format>image/svg+xml</dc:format>
        <dc:type
           rdf:resource="http://purl.org/dc/dcmitype/StillImage" />
        <dc:title></dc:title>
      </cc:Work>
    </rdf:RDF>
  </metadata>
  <defs
     id="defs27" />
  <sodipodi:namedview
     pagecolor="#ffffff"
     bordercolor="#666666"
     borderopacity="1"
     objecttolerance="10"
     gridtolerance="10"
     guidetolerance="10"
     inkscape:pageopacity="0"
     inkscape:pageshadow="2"
     inkscape:window-width="1280"
     inkscape:window-height="954"
     id="namedview25"
     showgrid="false"
     inkscape:zoom="3.6875"
     inkscape:cx="22.508474"
     inkscape:cy="32"
     inkscape:window-x="0"
     inkscape:window-y="0"
     inkscape:window-maximized="1"
     inkscape:current-layer="svg23" />
  <g
     transform="matrix(0.72513757,0,0,0.72513757,0.97688034,0.61431337)"
     id="surface1-3">
    <path
       inkscape:connector-curvature="0"
       style="fill:#66ba68;fill-opacity:1;fill-rule:nonzero;stroke:none"
       d="m 31.75,3.144531 c 16.074219,0 29.105469,13.03125 29.105469,29.105469 0,16.074219 -13.03125,29.105469 -29.105469,29.105469 C 15.675781,61.355469 2.644531,48.324219 2.644531,32.25 2.644531,16.175781 15.675781,3.144531 31.75,3.144531 Z m 0,0"
       id="path2-6" />
    <path
       inkscape:connector-curvature="0"
       style="fill:#ee514f;fill-opacity:1;fill-rule:nonzero;stroke:none"
       d="m 31.75,3.144531 c -11.128906,0 -20.761719,6.1875 -25.660156,15.320313 L 18.441406,32.25 h 0.07813 c 0,-7.328125 5.902344,-13.230469 13.230469,-13.230469 7.328125,0 13.230469,5.902344 13.230469,13.230469 h 15.875 C 60.855469,16.125 47.875,3.144531 31.75,3.144531 Z m 0,0"
       id="path4-7" />
    <path
       inkscape:connector-curvature="0"
       style="fill:#ffa623;fill-opacity:1;fill-rule:nonzero;stroke:none"
       d="m 39.707031,21.667969 c 3.207031,2.410156 5.273438,6.246093 5.273438,10.582031 0,4.976562 -2.722657,9.296875 -6.765625,11.554688 L 31.75,61.355469 c 16.125,0 29.105469,-12.980469 29.105469,-29.105469 0,-3.738281 -0.699219,-7.304688 -1.972657,-10.582031 z m 0,0"
       id="path6-5" />
    <path
       inkscape:connector-curvature="0"
       style="fill:#f5f5f5;fill-opacity:1;fill-rule:nonzero;stroke:none"
       d="m 31.75,19.019531 c 7.304688,0 13.230469,5.925781 13.230469,13.230469 0,7.304688 -5.925781,13.230469 -13.230469,13.230469 -7.304688,0 -13.230469,-5.925781 -13.230469,-13.230469 0,-7.304688 5.925781,-13.230469 13.230469,-13.230469 z m 0,0"
       id="path8-3" />
    <path
       inkscape:connector-curvature="0"
       style="fill:#28b5f5;fill-opacity:1;fill-rule:nonzero;stroke:none"
       d="m 31.75,21.667969 c 5.84375,0 10.582031,4.738281 10.582031,10.582031 0,5.84375 -4.738281,10.582031 -10.582031,10.582031 -5.84375,0 -10.582031,-4.738281 -10.582031,-10.582031 0,-5.84375 4.738281,-10.582031 10.582031,-10.582031 z m 0,0"
       id="path10-5" />
  </g>
</svg>
