<?xml version="1.0" encoding="UTF-8" standalone="no"?>
<svg
   xmlns:dc="http://purl.org/dc/elements/1.1/"
   xmlns:cc="http://creativecommons.org/ns#"
   xmlns:rdf="http://www.w3.org/1999/02/22-rdf-syntax-ns#"
   xmlns:svg="http://www.w3.org/2000/svg"
   xmlns="http://www.w3.org/2000/svg"
   xmlns:sodipodi="http://sodipodi.sourceforge.net/DTD/sodipodi-0.dtd"
   xmlns:inkscape="http://www.inkscape.org/namespaces/inkscape"
   width="48"
   height="48"
   version="1"
   id="svg16"
   sodipodi:docname="cmake-gui.svg"
   inkscape:version="0.92.4 (5da689c313, 2019-01-14)">
  <metadata
     id="metadata22">
    <rdf:RDF>
      <cc:Work
         rdf:about="">
        <dc:format>image/svg+xml</dc:format>
        <dc:type
           rdf:resource="http://purl.org/dc/dcmitype/StillImage" />
        <dc:title></dc:title>
      </cc:Work>
    </rdf:RDF>
  </metadata>
  <defs
     id="defs20" />
  <sodipodi:namedview
     pagecolor="#ffffff"
     bordercolor="#666666"
     borderopacity="1"
     objecttolerance="10"
     gridtolerance="10"
     guidetolerance="10"
     inkscape:pageopacity="0"
     inkscape:pageshadow="2"
     inkscape:window-width="1280"
     inkscape:window-height="954"
     id="namedview18"
     showgrid="false"
     inkscape:zoom="3.6875"
     inkscape:cx="27.254237"
     inkscape:cy="32"
     inkscape:window-x="0"
     inkscape:window-y="0"
     inkscape:window-maximized="1"
     inkscape:current-layer="svg16" />
  <g
     id="g3869"
     transform="matrix(0.71237509,0,0,0.71237509,1.2039259,12.428785)">
    <path
       inkscape:connector-curvature="0"
       id="path2"
       d="m 34.759,14.965 -14.074,11.688 1.644,0.63799 12.43,-10.326 1.964,15.88 0.258,0.102 z M 2.07,43 0.9996,45 h 62.001 l -1.124,-2 H 2.0696 Z"
       style="opacity:0.2" />
    <path
       inkscape:connector-curvature="0"
       id="path4"
       d="M 45.301,22.45 A 14.057,15.37 0 0 1 31.244,37.82 14.057,15.37 0 0 1 17.187,22.45 14.057,15.37 0 0 1 31.244,7.08 14.057,15.37 0 0 1 45.301,22.45 Z"
       style="fill:#ffffff" />
    <g
       id="g12"
       transform="matrix(1.5122,0,0,1.4872,-5.0484,-19.9496)">
      <path
         inkscape:connector-curvature="0"
         id="path6"
         d="M 4,43 24,5 26.5,24 Z"
         style="fill:#4a86d8" />
      <path
         inkscape:connector-curvature="0"
         id="path8"
         d="M 24,5 45,43 27.8,36.3 Z"
         style="fill:#dd3c3d" />
      <path
         inkscape:connector-curvature="0"
         id="path10"
         d="M 45,43 H 4 L 17,32 Z"
         style="fill:#339c33" />
    </g>
    <path
       inkscape:connector-curvature="0"
       id="path14"
       d="M 31.244,-12.5137 1,44.0003 h 0.5332 l 29.711,-55.514 31.195,55.514 h 0.561 z m -9.7363,40.482 -0.82226,0.68164 16.293,6.2949 -0.12891,-1.0488 z"
       style="opacity:0.2;fill:#ffffff" />
  </g>
</svg>
