<?xml version="1.0" encoding="UTF-8" standalone="no"?>
<!-- Created with Inkscape (http://www.inkscape.org/) -->

<svg
   xmlns:osb="http://www.openswatchbook.org/uri/2009/osb"
   xmlns:dc="http://purl.org/dc/elements/1.1/"
   xmlns:cc="http://creativecommons.org/ns#"
   xmlns:rdf="http://www.w3.org/1999/02/22-rdf-syntax-ns#"
   xmlns:svg="http://www.w3.org/2000/svg"
   xmlns="http://www.w3.org/2000/svg"
   xmlns:sodipodi="http://sodipodi.sourceforge.net/DTD/sodipodi-0.dtd"
   xmlns:inkscape="http://www.inkscape.org/namespaces/inkscape"
   width="48"
   height="48"
   id="svg2985"
   version="1.1"
   inkscape:version="0.92.4 (5da689c313, 2019-01-14)"
   sodipodi:docname="codelite.svg"
   viewBox="0 0 48 48">
  <defs
     id="defs2987">
    <linearGradient
       id="linearGradient5207"
       osb:paint="solid">
      <stop
         style="stop-color:#000015;stop-opacity:1;"
         offset="0"
         id="stop5209" />
    </linearGradient>
  </defs>
  <sodipodi:namedview
     id="base"
     pagecolor="#ffffff"
     bordercolor="#666666"
     borderopacity="1.0"
     inkscape:pageopacity="0.0"
     inkscape:pageshadow="2"
     inkscape:zoom="5.2149125"
     inkscape:cx="77.170725"
     inkscape:cy="15.610278"
     inkscape:current-layer="layer1"
     showgrid="true"
     inkscape:document-units="px"
     inkscape:grid-bbox="true"
     inkscape:window-width="1280"
     inkscape:window-height="954"
     inkscape:window-x="0"
     inkscape:window-y="0"
     inkscape:window-maximized="1"
     inkscape:snap-text-baseline="true" />
  <metadata
     id="metadata2990">
    <rdf:RDF>
      <cc:Work
         rdf:about="">
        <dc:format>image/svg+xml</dc:format>
        <dc:type
           rdf:resource="http://purl.org/dc/dcmitype/StillImage" />
        <dc:title></dc:title>
      </cc:Work>
    </rdf:RDF>
  </metadata>
  <g
     id="layer1"
     inkscape:label="Layer 1"
     inkscape:groupmode="layer"
     transform="translate(0,-16)">
    <g
       id="g3853"
       transform="matrix(0.71882651,0,0,0.71882651,1.2597619,16.300705)">
      <path
         sodipodi:nodetypes="csccccsc"
         inkscape:connector-curvature="0"
         id="path3009"
         d="m 33.184094,61.571208 c -0.05081,-0.05109 0,-6.155277 0,-13.538418 V 34.537036 l 13.789144,0.107364 13.888956,0.03551 c 0.01311,7.877332 -0.0452,26.909594 -0.0452,26.909594 0,0 -5.246091,0.01368 -16.937893,0.01594 -5.835556,0.0011 -10.644212,0.01685 -10.695012,-0.03423 z"
         style="fill:#45d03f;fill-opacity:1;stroke-width:0.12975021" />
      <path
         sodipodi:nodetypes="cccccccccc"
         inkscape:connector-curvature="0"
         id="path3025"
         d="M 2.4608256,21.094445 C 2.4620825,12.096374 2.5584076,4.3258031 2.5584076,4.3258031 L 19.287557,4.3908606 H 30.180528 V 18.199523 32.043734 H 16.31992 2.4609521 L 2.4608222,21.094442 Z"
         style="fill:#00bbf2;fill-opacity:1;stroke-width:0.12975021" />
      <path
         sodipodi:nodetypes="cscccsccc"
         inkscape:connector-curvature="0"
         id="path3009-2"
         d="m 30.180528,61.589502 c 0.0508,-0.05109 0,-7.31288 0,-13.58796 V 34.537036 l -13.838855,0.05863 -13.8889503,0.0355 -0.035537,10.21597 c -0.039266,11.288837 0.040665,16.742353 0.040665,16.742353 0.01546,0 12.3968643,9.65e-4 16.9779603,0.0022 5.835556,0.0011 10.693923,0.0489 10.744723,-0.0022 z"
         style="fill:#ffcc00;fill-opacity:1;stroke-width:0.12975021" />
    </g>
  </g>
</svg>
