<?xml version="1.0" encoding="UTF-8" standalone="no"?>
<svg
   xmlns:dc="http://purl.org/dc/elements/1.1/"
   xmlns:cc="http://creativecommons.org/ns#"
   xmlns:rdf="http://www.w3.org/1999/02/22-rdf-syntax-ns#"
   xmlns:svg="http://www.w3.org/2000/svg"
   xmlns="http://www.w3.org/2000/svg"
   xmlns:sodipodi="http://sodipodi.sourceforge.net/DTD/sodipodi-0.dtd"
   xmlns:inkscape="http://www.inkscape.org/namespaces/inkscape"
   width="48"
   height="48"
   viewBox="0 0 48 48"
   version="1.1"
   id="svg35"
   sodipodi:docname="cups.svg"
   inkscape:version="0.92.4 (5da689c313, 2019-01-14)">
  <metadata
     id="metadata41">
    <rdf:RDF>
      <cc:Work
         rdf:about="">
        <dc:format>image/svg+xml</dc:format>
        <dc:type
           rdf:resource="http://purl.org/dc/dcmitype/StillImage" />
        <dc:title></dc:title>
      </cc:Work>
    </rdf:RDF>
  </metadata>
  <defs
     id="defs39" />
  <sodipodi:namedview
     pagecolor="#ffffff"
     bordercolor="#666666"
     borderopacity="1"
     objecttolerance="10"
     gridtolerance="10"
     guidetolerance="10"
     inkscape:pageopacity="0"
     inkscape:pageshadow="2"
     inkscape:window-width="1280"
     inkscape:window-height="954"
     id="namedview37"
     showgrid="false"
     inkscape:zoom="3.6875"
     inkscape:cx="22.508474"
     inkscape:cy="32"
     inkscape:window-x="0"
     inkscape:window-y="0"
     inkscape:window-maximized="1"
     inkscape:current-layer="svg35" />
  <g
     id="g3874"
     transform="matrix(0.72513757,0,0,0.72513757,0.97688215,12.216514)">
    <path
       style="fill:#3f3f3f;fill-opacity:1;fill-rule:nonzero;stroke:none"
       d="m 13.230469,-8.886719 h 37.039062 c 1.460938,0 2.648438,1.1875 2.648438,2.648438 V 20.21875 c 0,1.460938 -1.1875,2.644531 -2.648438,2.644531 H 13.230469 c -1.460938,0 -2.648438,-1.183593 -2.648438,-2.644531 V -6.238281 c 0,-1.460938 1.1875,-2.648438 2.648438,-2.648438 z m 0,0"
       id="path2"
       inkscape:connector-curvature="0" />
    <path
       style="fill:#eeeeee;fill-opacity:1;fill-rule:nonzero;stroke:none"
       d="m 15.875,-12.855469 h 31.75 c 1.460938,0 2.644531,1.1875 2.644531,2.648438 v 31.75 c 0,1.460937 -1.183593,2.644531 -2.644531,2.644531 h -31.75 c -1.460938,0 -2.644531,-1.183594 -2.644531,-2.644531 v -31.75 c 0,-1.460938 1.183593,-2.648438 2.644531,-2.648438 z m 0,0"
       id="path4"
       inkscape:connector-curvature="0" />
    <path
       style="fill:#616161;fill-opacity:1;fill-rule:nonzero;stroke:none"
       d="m 5.292969,17.574219 h 52.914062 c 1.460938,0 2.648438,1.183593 2.648438,2.644531 v 18.519531 c 0,1.460938 -1.1875,2.648438 -2.648438,2.648438 H 5.292969 c -1.460938,0 -2.648438,-1.1875 -2.648438,-2.648438 V 20.21875 c 0,-1.460938 1.1875,-2.644531 2.648438,-2.644531 z m 0,0"
       id="path6"
       inkscape:connector-curvature="0" />
    <path
       style="fill:#3f3f3f;fill-opacity:1;fill-rule:nonzero;stroke:none"
       d="m 9.261719,17.574219 v 11.90625 c 0,2.199219 1.769531,3.96875 3.96875,3.96875 h 37.039062 c 2.199219,0 3.96875,-1.769531 3.96875,-3.96875 v -11.90625 z m 0,0"
       id="path8"
       inkscape:connector-curvature="0" />
    <path
       style="fill:#3f3f3f;fill-opacity:1;fill-rule:nonzero;stroke:none"
       d="m 10.582031,12.28125 h 2.648438 c 0.730469,0 1.320312,0.59375 1.320312,1.324219 v 5.289062 c 0,0.730469 -0.589843,1.324219 -1.320312,1.324219 h -2.648438 c -0.730469,0 -1.320312,-0.59375 -1.320312,-1.324219 v -5.289062 c 0,-0.730469 0.589843,-1.324219 1.320312,-1.324219 z m 0,0"
       id="path10"
       inkscape:connector-curvature="0" />
    <path
       style="fill:#3f3f3f;fill-opacity:1;fill-rule:nonzero;stroke:none"
       d="m 50.269531,12.28125 h 2.648438 c 0.730469,0 1.320312,0.59375 1.320312,1.324219 v 5.289062 c 0,0.730469 -0.589843,1.324219 -1.320312,1.324219 h -2.648438 c -0.730469,0 -1.320312,-0.59375 -1.320312,-1.324219 v -5.289062 c 0,-0.730469 0.589843,-1.324219 1.320312,-1.324219 z m 0,0"
       id="path12"
       inkscape:connector-curvature="0" />
    <path
       style="fill:#616161;fill-opacity:1;fill-rule:nonzero;stroke:none"
       d="m 10.582031,17.574219 v 11.90625 c 0,1.464843 1.179688,2.644531 2.648438,2.644531 h 37.039062 c 1.46875,0 2.648438,-1.179688 2.648438,-2.644531 v -11.90625 z m 0,0"
       id="path14"
       inkscape:connector-curvature="0" />
    <path
       style="fill:#737373;fill-opacity:1;fill-rule:nonzero;stroke:none"
       d="m 10.582031,24.847656 h 42.335938 v 0.664063 H 10.582031 Z m 0,0"
       id="path16"
       inkscape:connector-curvature="0" />
    <path
       style="fill:#3f3f3f;fill-opacity:1;fill-rule:nonzero;stroke:none"
       d="m 10.582031,25.511719 h 42.335938 v 0.660156 H 10.582031 Z m 0,0"
       id="path18"
       inkscape:connector-curvature="0" />
    <path
       style="fill:#eeeeee;fill-opacity:1;fill-rule:nonzero;stroke:none"
       d="m 25.136719,26.171875 v 1.464844 c 0,1.019531 1.179687,1.84375 2.644531,1.84375 h 7.9375 c 1.464844,0 2.644531,-0.824219 2.644531,-1.84375 v -1.464844 z m 0,0"
       id="path20"
       inkscape:connector-curvature="0" />
    <path
       style="fill:#3f3f3f;fill-opacity:1;fill-rule:nonzero;stroke:none"
       d="m 11.90625,34.769531 c -1.464844,0 -2.644531,1.179688 -2.644531,2.648438 v 3.96875 h 44.976562 v -3.96875 c 0,-1.46875 -1.179687,-2.648438 -2.644531,-2.648438 z m 0,0"
       id="path22"
       inkscape:connector-curvature="0" />
    <path
       style="fill:#ffa623;fill-opacity:1;fill-rule:nonzero;stroke:none"
       d="m 14.550781,36.09375 h 35.71875 c 0.730469,0 1.324219,0.59375 1.324219,1.324219 v 6.613281 c 0,0.730469 -0.59375,1.324219 -1.324219,1.324219 h -35.71875 c -0.730469,0 -1.320312,-0.59375 -1.320312,-1.324219 v -6.613281 c 0,-0.730469 0.589843,-1.324219 1.320312,-1.324219 z m 0,0"
       id="path24"
       inkscape:connector-curvature="0" />
    <path
       style="fill:#ab45ba;fill-opacity:1;fill-rule:nonzero;stroke:none"
       d="m 14.550781,36.09375 c -0.730469,0 -1.320312,0.589844 -1.320312,1.324219 v 6.613281 c 0,0.734375 0.589843,1.324219 1.320312,1.324219 H 28.441406 L 19.183594,36.09375 Z m 0,0"
       id="path26"
       inkscape:connector-curvature="0" />
    <path
       style="fill:#66ba68;fill-opacity:1;fill-rule:nonzero;stroke:none"
       d="m 50.269531,45.355469 c 0.734375,0 1.324219,-0.589844 1.324219,-1.324219 v -6.613281 c 0,-0.734375 -0.589844,-1.324219 -1.324219,-1.324219 H 36.378906 l 9.261719,9.261719 z m 0,0"
       id="path28"
       inkscape:connector-curvature="0" />
    <path
       style="fill:#000000;fill-opacity:0.15686298;fill-rule:nonzero;stroke:none"
       d="m 14.550781,36.09375 c -0.730469,0 -1.320312,0.589844 -1.320312,1.324219 v 1.320312 H 51.59375 v -1.320312 c 0,-0.734375 -0.589844,-1.324219 -1.324219,-1.324219 z m 0,0"
       id="path30"
       inkscape:connector-curvature="0" />
  </g>
</svg>
