<?xml version="1.0" encoding="UTF-8" standalone="no"?>
<svg
   xmlns:dc="http://purl.org/dc/elements/1.1/"
   xmlns:cc="http://creativecommons.org/ns#"
   xmlns:rdf="http://www.w3.org/1999/02/22-rdf-syntax-ns#"
   xmlns:svg="http://www.w3.org/2000/svg"
   xmlns="http://www.w3.org/2000/svg"
   xmlns:sodipodi="http://sodipodi.sourceforge.net/DTD/sodipodi-0.dtd"
   xmlns:inkscape="http://www.inkscape.org/namespaces/inkscape"
   width="48"
   height="48"
   viewBox="0 0 48 48"
   version="1.1"
   id="svg29"
   sodipodi:docname="cuttlefish.svg"
   inkscape:version="0.92.4 (5da689c313, 2019-01-14)">
  <metadata
     id="metadata35">
    <rdf:RDF>
      <cc:Work
         rdf:about="">
        <dc:format>image/svg+xml</dc:format>
        <dc:type
           rdf:resource="http://purl.org/dc/dcmitype/StillImage" />
        <dc:title></dc:title>
      </cc:Work>
    </rdf:RDF>
  </metadata>
  <defs
     id="defs33" />
  <sodipodi:namedview
     pagecolor="#ffffff"
     bordercolor="#666666"
     borderopacity="1"
     objecttolerance="10"
     gridtolerance="10"
     guidetolerance="10"
     inkscape:pageopacity="0"
     inkscape:pageshadow="2"
     inkscape:window-width="1280"
     inkscape:window-height="954"
     id="namedview31"
     showgrid="false"
     inkscape:zoom="3.6875"
     inkscape:cx="27.254237"
     inkscape:cy="32"
     inkscape:window-x="0"
     inkscape:window-y="0"
     inkscape:window-maximized="1"
     inkscape:current-layer="svg29" />
  <g
     id="surface1"
     transform="matrix(0.73903669,0,0,0.73903669,0.53558509,0.17240785)">
    <path
       style="fill:#a1877d;fill-opacity:1;fill-rule:nonzero;stroke:none"
       d="m 20.980469,39.09375 c 0,0.757812 0.347656,2.167969 0.386719,2.910156 0.214843,4.140625 -1.078126,9.238282 0.769531,13.082032 0.285156,0.59375 1.152343,0.972656 1.152343,0.386718 -0.757812,-3.988281 0.08594,-8.542968 0.28125,-12.929687 0.02344,-0.429688 0.347657,-0.769531 0.773438,-0.769531 0.421875,0 0.808594,0.347656 0.765625,0.769531 -0.484375,5.074219 -1.433594,9.851562 0.488281,14.851562 0.769532,1.921875 2.308594,2.695313 2.308594,1.777344 -1.671875,-4.632813 -2.003906,-9.628906 -0.605469,-15.203125 0.105469,-0.414062 0.347657,-0.769531 0.769531,-0.769531 0.425782,0 0.867188,0.355469 0.769532,0.769531 -1.089844,4.578125 -0.355469,9.46875 0.605468,14.96875 0.01563,2.035156 1.535157,3.074219 1.535157,1.921875 -0.34375,-5.300781 -1.539063,-10.832031 0,-15.609375 0.132812,-0.40625 0.347656,-0.769531 0.773437,-0.769531 0.425782,0 0.636719,0.363281 0.769532,0.769531 1.542968,4.777344 0.347656,10.308594 0,15.609375 0,1.152344 1.527343,0.113281 1.539062,-1.921875 0.964844,-5.5 1.691406,-10.390625 0.605469,-14.96875 -0.101563,-0.414062 0.339843,-0.769531 0.765625,-0.769531 0.429687,0 0.667968,0.355469 0.773437,0.769531 1.398438,5.574219 1.0625,10.570312 -0.605469,15.203125 0,0.917969 1.539063,0.144531 2.308594,-1.777344 1.921875,-5 0.972656,-9.777343 0.488282,-14.851562 -0.04297,-0.421875 0.339843,-0.769531 0.765624,-0.769531 0.429688,0 0.75,0.339843 0.769532,0.769531 0.195312,4.386719 1.039062,8.941406 0.285156,12.929687 0,0.585938 0.863281,0.207032 1.15625,-0.386718 1.84375,-3.84375 0.554688,-8.941407 0.765625,-13.082032 0.03906,-0.742187 0.386719,-2.152344 0.386719,-2.910156 z m 0,0"
       id="path2"
       inkscape:connector-curvature="0" />
    <path
       style="fill:#f57a00;fill-opacity:1;fill-rule:nonzero;stroke:none"
       d="m 31.75,3.144531 c 3.398438,0 6.15625,4.136719 6.15625,9.234375 0,5.097656 -2.757812,9.230469 -6.15625,9.230469 -3.398438,0 -6.15625,-4.132813 -6.15625,-9.230469 0,-5.097656 2.757812,-9.234375 6.15625,-9.234375 z m 0,0"
       id="path4"
       inkscape:connector-curvature="0" />
    <path
       style="fill:#ffa623;fill-opacity:1;fill-rule:nonzero;stroke:none"
       d="m 31.75,8.4375 c -6.613281,0 -14.550781,13.230469 -14.550781,22.488281 0,1.492188 0.21875,2.929688 0.632812,4.28125 -2.675781,0.84375 -4.601562,3.339844 -4.601562,6.304688 0,3.664062 2.949219,6.613281 6.613281,6.613281 2.6875,0 4.988281,-1.585938 6.027344,-3.875 1.796875,0.789062 3.785156,1.230469 5.878906,1.230469 2.09375,0 4.082031,-0.441407 5.878906,-1.230469 1.039063,2.289062 3.339844,3.875 6.027344,3.875 3.664062,0 6.613281,-2.949219 6.613281,-6.613281 0,-2.964844 -1.925781,-5.460938 -4.601562,-6.304688 0.414062,-1.351562 0.632812,-2.789062 0.632812,-4.28125 C 46.300781,21.667969 38.363281,8.4375 31.75,8.4375 Z m 0,0"
       id="path6"
       inkscape:connector-curvature="0" />
    <path
       style="fill:#28b5f5;fill-opacity:1;fill-rule:nonzero;stroke:none"
       d="m 19.511719,37.542969 c 2.375,0 4.300781,1.921875 4.300781,4.296875 0,2.375 -1.925781,4.300781 -4.300781,4.300781 -2.375,0 -4.296875,-1.925781 -4.296875,-4.300781 0,-2.375 1.921875,-4.296875 4.296875,-4.296875 z m 0,0"
       id="path8"
       inkscape:connector-curvature="0" />
    <path
       style="fill:#28b5f5;fill-opacity:1;fill-rule:nonzero;stroke:none"
       d="m 43.988281,37.542969 c 2.375,0 4.296875,1.921875 4.296875,4.296875 0,2.375 -1.921875,4.300781 -4.296875,4.300781 -2.375,0 -4.300781,-1.925781 -4.300781,-4.300781 0,-2.375 1.925781,-4.296875 4.300781,-4.296875 z m 0,0"
       id="path10"
       inkscape:connector-curvature="0" />
    <path
       style="fill:#1e1e1e;fill-opacity:1;fill-rule:nonzero;stroke:none"
       d="m 19.511719,39.855469 c 0.730469,0 1.324219,1.1875 1.324219,2.648437 0,1.460938 -0.59375,2.644532 -1.324219,2.644532 -0.730469,0 -1.320313,-1.183594 -1.320313,-2.644532 0,-1.460937 0.589844,-2.648437 1.320313,-2.648437 z m 0,0"
       id="path12"
       inkscape:connector-curvature="0" />
    <path
       style="fill:#1e1e1e;fill-opacity:1;fill-rule:nonzero;stroke:none"
       d="m 43.988281,39.855469 c 0.730469,0 1.320313,1.1875 1.320313,2.648437 0,1.460938 -0.589844,2.644532 -1.320313,2.644532 -0.730469,0 -1.324219,-1.183594 -1.324219,-2.644532 0,-1.460937 0.59375,-2.648437 1.324219,-2.648437 z m 0,0"
       id="path14"
       inkscape:connector-curvature="0" />
    <path
       style="fill:#ffcc7f;fill-opacity:1;fill-rule:nonzero;stroke:none"
       d="m 19.511719,37.542969 c -2.378907,0 -4.296875,1.917969 -4.296875,4.296875 0,0.359375 0.04297,0.707031 0.125,1.039062 0.964844,-1.238281 2.472656,-2.03125 4.171875,-2.03125 1.699219,0 3.207031,0.792969 4.175781,2.03125 0.08203,-0.332031 0.125,-0.679687 0.125,-1.039062 0,-2.378906 -1.917969,-4.296875 -4.300781,-4.296875 z m 0,0"
       id="path16"
       inkscape:connector-curvature="0" />
    <path
       style="fill:#ffcc7f;fill-opacity:1;fill-rule:nonzero;stroke:none"
       d="m 43.988281,37.542969 c -2.382812,0 -4.300781,1.917969 -4.300781,4.296875 0,0.359375 0.04297,0.707031 0.125,1.039062 0.96875,-1.238281 2.476562,-2.03125 4.175781,-2.03125 1.699219,0 3.207031,0.792969 4.171875,2.03125 0.08203,-0.332031 0.125,-0.679687 0.125,-1.039062 0,-2.378906 -1.917968,-4.296875 -4.296875,-4.296875 z m 0,0"
       id="path18"
       inkscape:connector-curvature="0" />
    <path
       style="fill:#ab45ba;fill-opacity:1;fill-rule:nonzero;stroke:none"
       d="m 31.769531,11.082031 c 0.902344,0 1.632813,1.1875 1.632813,2.648438 0,1.460937 -0.730469,2.644531 -1.632813,2.644531 -0.902343,0 -1.636719,-1.183594 -1.636719,-2.644531 0,-1.460938 0.734376,-2.648438 1.636719,-2.648438 z m 0,0"
       id="path20"
       inkscape:connector-curvature="0" />
    <path
       style="fill:#ab45ba;fill-opacity:1;fill-rule:nonzero;stroke:none"
       d="m 31.769531,19.019531 c 0.902344,0 1.632813,1.1875 1.632813,2.648438 0,1.460937 -0.730469,2.644531 -1.632813,2.644531 -0.902343,0 -1.636719,-1.183594 -1.636719,-2.644531 0,-1.460938 0.734376,-2.648438 1.636719,-2.648438 z m 0,0"
       id="path22"
       inkscape:connector-curvature="0" />
    <path
       style="fill:#ab45ba;fill-opacity:1;fill-rule:nonzero;stroke:none"
       d="m 36.730469,15.050781 c 0.902343,0 1.632812,1.1875 1.632812,2.648438 0,1.460937 -0.730469,2.644531 -1.632812,2.644531 -0.902344,0 -1.636719,-1.183594 -1.636719,-2.644531 0,-1.460938 0.734375,-2.648438 1.636719,-2.648438 z m 0,0"
       id="path24"
       inkscape:connector-curvature="0" />
    <path
       style="fill:#ab45ba;fill-opacity:1;fill-rule:nonzero;stroke:none"
       d="m 26.808594,15.050781 c 0.902344,0 1.632812,1.1875 1.632812,2.648438 0,1.460937 -0.730468,2.644531 -1.632812,2.644531 -0.902344,0 -1.636719,-1.183594 -1.636719,-2.644531 0,-1.460938 0.734375,-2.648438 1.636719,-2.648438 z m 0,0"
       id="path26"
       inkscape:connector-curvature="0" />
  </g>
</svg>
