<?xml version="1.0" encoding="UTF-8" standalone="no"?>
<svg
   xmlns:dc="http://purl.org/dc/elements/1.1/"
   xmlns:cc="http://creativecommons.org/ns#"
   xmlns:rdf="http://www.w3.org/1999/02/22-rdf-syntax-ns#"
   xmlns:svg="http://www.w3.org/2000/svg"
   xmlns="http://www.w3.org/2000/svg"
   xmlns:sodipodi="http://sodipodi.sourceforge.net/DTD/sodipodi-0.dtd"
   xmlns:inkscape="http://www.inkscape.org/namespaces/inkscape"
   width="48"
   height="48"
   viewBox="0 0 48 48"
   version="1.1"
   id="svg9"
   sodipodi:docname="disk-burner.svg"
   inkscape:version="0.92.4 (5da689c313, 2019-01-14)">
  <metadata
     id="metadata15">
    <rdf:RDF>
      <cc:Work
         rdf:about="">
        <dc:format>image/svg+xml</dc:format>
        <dc:type
           rdf:resource="http://purl.org/dc/dcmitype/StillImage" />
        <dc:title></dc:title>
      </cc:Work>
    </rdf:RDF>
  </metadata>
  <defs
     id="defs13" />
  <sodipodi:namedview
     pagecolor="#ffffff"
     bordercolor="#666666"
     borderopacity="1"
     objecttolerance="10"
     gridtolerance="10"
     guidetolerance="10"
     inkscape:pageopacity="0"
     inkscape:pageshadow="2"
     inkscape:window-width="1280"
     inkscape:window-height="954"
     id="namedview11"
     showgrid="false"
     inkscape:zoom="3.6875"
     inkscape:cx="27.254237"
     inkscape:cy="32"
     inkscape:window-x="0"
     inkscape:window-y="0"
     inkscape:window-maximized="1"
     inkscape:current-layer="svg9" />
  <g
     id="surface1"
     transform="matrix(0.72047886,0,0,0.72047886,1.1248002,0.76455821)">
    <path
       style="fill:#eeeeee;fill-opacity:1;fill-rule:nonzero;stroke:none"
       d="m 31.75,4.46875 c -15.390625,0 -27.78125,12.390625 -27.78125,27.78125 0,15.390625 12.390625,27.78125 27.78125,27.78125 15.390625,0 27.78125,-12.390625 27.78125,-27.78125 C 59.53125,16.859375 47.140625,4.46875 31.75,4.46875 Z m 0,19.84375 c 4.398438,0 7.9375,3.539062 7.9375,7.9375 0,4.398438 -3.539062,7.9375 -7.9375,7.9375 -4.398438,0 -7.9375,-3.539062 -7.9375,-7.9375 0,-4.398438 3.539062,-7.9375 7.9375,-7.9375 z m 0,0"
       id="path2"
       inkscape:connector-curvature="0" />
    <path
       style="fill:#ee514f;fill-opacity:1;fill-rule:nonzero;stroke:none"
       d="m 31.75,3.144531 c -12.019531,0 -22.296875,7.21875 -26.746094,17.570313 -0.046875,0.113281 -0.09375,0.222656 -0.140625,0.332031 -0.042969,0.113281 -0.089843,0.222656 -0.136719,0.335937 -0.042968,0.109376 -0.085937,0.222657 -0.128906,0.335938 0,0 0,0 -0.00391,0 -0.039062,0.113281 -0.082031,0.222656 -0.125,0.332031 0,0.0039 0,0.0078 -0.00391,0.01172 -0.039063,0.113281 -0.082032,0.222656 -0.121094,0.335938 -0.039062,0.113281 -0.078125,0.226562 -0.117188,0.339843 -0.00391,0 -0.00391,0.0039 -0.00391,0.0078 -0.039062,0.113281 -0.078125,0.226562 -0.113281,0.339844 0,0 0,0 -0.00391,0 C 4.070312,23.199219 4.035156,23.308594 4,23.421875 c -0.00391,0.0078 -0.00391,0.01172 -0.00781,0.01563 -0.035157,0.113281 -0.066407,0.222656 -0.101563,0.335938 0,0.0039 -0.00391,0.0078 -0.00391,0.01172 -0.03125,0.109375 -0.066407,0.21875 -0.097657,0.328125 0,0.01172 -0.00391,0.01953 -0.00781,0.02734 -0.03125,0.105466 -0.058594,0.214841 -0.089844,0.32031 -0.00391,0.01172 -0.00391,0.02344 -0.00781,0.03516 -0.027344,0.101562 -0.058594,0.207031 -0.085938,0.308594 -0.00391,0.01562 -0.00781,0.03516 -0.011718,0.05078 -0.023438,0.09766 -0.050782,0.199219 -0.078126,0.300781 -0.00391,0.01953 -0.00781,0.03516 -0.011718,0.05469 -0.023438,0.09766 -0.046875,0.195312 -0.070313,0.292968 -0.00391,0.02344 -0.011719,0.04687 -0.015625,0.06641 -0.023437,0.101563 -0.046875,0.199219 -0.070312,0.300782 -0.00391,0.01953 -0.00781,0.03516 -0.011719,0.05469 -0.019531,0.09766 -0.039063,0.195313 -0.0625,0.292969 -0.00391,0.02344 -0.00781,0.04687 -0.015625,0.07422 -0.019531,0.09375 -0.039062,0.191406 -0.054688,0.285156 -0.00781,0.02734 -0.011718,0.05078 -0.015624,0.07422 -0.019532,0.08984 -0.035157,0.179687 -0.050782,0.273437 -0.00781,0.03125 -0.011718,0.0625 -0.019531,0.09766 -0.015625,0.08594 -0.03125,0.175781 -0.046875,0.265624 -0.00391,0.03125 -0.00781,0.0625 -0.015625,0.09375 C 3.03125,27.472656 3.019531,27.566406 3.003906,27.65625 3,27.6875 2.992188,27.71875 2.988281,27.75 2.976562,27.835938 2.964844,27.917969 2.953125,28.003906 2.945312,28.042969 2.9375,28.082031 2.933594,28.125 c -0.011719,0.08203 -0.023438,0.164062 -0.03125,0.246094 -0.00781,0.03906 -0.011719,0.07813 -0.019532,0.117187 -0.011718,0.09375 -0.019531,0.183594 -0.03125,0.277344 -0.00391,0.02734 -0.00781,0.05859 -0.011718,0.08984 -0.00781,0.08594 -0.019532,0.175781 -0.027344,0.261719 -0.00391,0.03906 -0.00781,0.07812 -0.011719,0.117187 -0.011719,0.07813 -0.015625,0.160156 -0.023437,0.242187 -0.00391,0.04297 -0.011719,0.08594 -0.015625,0.128907 -0.00391,0.08203 -0.011719,0.160156 -0.019531,0.242187 -0.00391,0.04297 -0.00781,0.08984 -0.011719,0.132813 -0.00391,0.08203 -0.00781,0.160156 -0.015625,0.242187 -0.00391,0.04297 -0.00781,0.08984 -0.00781,0.132813 -0.00781,0.07813 -0.011719,0.15625 -0.015625,0.238281 0,0.04687 -0.00391,0.09375 -0.00781,0.140625 -0.00391,0.07813 -0.00781,0.160156 -0.011719,0.238281 0,0.04687 -0.00391,0.08984 -0.00391,0.136719 -0.00391,0.07813 -0.00391,0.152344 -0.00781,0.230469 0,0.05078 -0.00391,0.101562 -0.00391,0.152344 -0.00391,0.06641 -0.00391,0.132812 -0.00391,0.199218 0,0.05859 -0.00391,0.117188 -0.00391,0.179688 0,0.128906 -0.00391,0.253906 -0.00391,0.378906 0,16.125 12.980469,29.105469 29.105469,29.105469 0.125,0 0.25,-0.0039 0.378906,-0.0039 3.011719,-0.03906 5.914063,-0.527343 8.636719,-1.410156 C 52.449219,56.164062 60.855469,45.222656 60.855469,32.25 c 0,-0.125 -0.0039,-0.25 -0.0039,-0.378906 0,-0.07031 -0.0039,-0.140625 -0.0039,-0.210938 0,-0.05859 0,-0.113281 -0.0039,-0.167968 0,-0.02734 0,-0.05469 0,-0.07813 -0.0039,-0.101562 -0.0078,-0.199218 -0.01172,-0.300781 -0.0039,-0.125 -0.0078,-0.25 -0.01563,-0.371093 0,-0.0039 0,-0.0039 0,-0.0039 -0.0039,-0.03516 -0.0039,-0.07031 -0.0078,-0.101562 -0.0039,-0.08984 -0.0078,-0.179688 -0.01563,-0.269531 0,-0.05078 -0.0039,-0.105469 -0.0078,-0.15625 -0.0078,-0.07031 -0.01172,-0.144532 -0.01563,-0.214844 -0.0039,-0.04297 -0.0078,-0.08594 -0.01172,-0.128906 -0.0078,-0.08203 -0.01172,-0.164063 -0.01953,-0.246094 -0.0039,-0.02344 -0.0039,-0.04297 -0.0078,-0.06641 -0.0078,-0.101563 -0.01563,-0.203126 -0.02734,-0.304688 -0.0039,-0.02344 -0.0039,-0.04297 -0.0078,-0.06641 -0.01172,-0.101563 -0.01953,-0.203125 -0.03125,-0.300782 -0.0039,-0.02344 -0.0078,-0.04687 -0.0078,-0.07422 -0.01172,-0.09766 -0.02344,-0.195313 -0.03906,-0.296875 0,-0.01953 -0.0039,-0.04297 -0.0078,-0.06641 -0.01172,-0.09766 -0.02734,-0.195312 -0.03906,-0.292968 -0.0039,-0.03125 -0.0078,-0.05859 -0.01172,-0.08984 -0.01563,-0.09375 -0.02734,-0.1875 -0.04297,-0.28125 0,-0.0039 0,-0.0039 0,-0.0039 0,-0.0078 -0.0039,-0.01563 -0.0039,-0.02344 -0.01563,-0.113281 -0.03516,-0.222656 -0.05469,-0.335937 0,-0.01563 -0.0039,-0.02734 -0.0078,-0.04297 -0.01563,-0.105469 -0.03516,-0.210938 -0.05469,-0.316406 0,-0.01953 -0.0039,-0.03516 -0.0078,-0.05078 -0.01953,-0.105468 -0.03906,-0.210937 -0.05859,-0.316406 0,-0.0039 0,-0.0078 0,-0.01172 -0.02344,-0.113282 -0.04687,-0.230469 -0.07031,-0.34375 0,0 0,-0.0039 0,-0.0039 0,-0.0039 -0.0039,-0.01172 -0.0039,-0.01563 -0.02344,-0.113281 -0.04687,-0.226562 -0.07031,-0.339844 0,0 0,0 -0.0039,0 0,-0.0039 0,-0.0078 0,-0.0078 -0.02344,-0.117188 -0.05078,-0.234375 -0.07813,-0.347656 -0.02734,-0.117188 -0.05469,-0.238282 -0.08203,-0.355469 0,0 0,0 -0.0039,0 0,0 0,-0.0039 0,-0.0039 -0.02734,-0.117188 -0.05859,-0.230469 -0.08594,-0.347657 -0.03125,-0.117187 -0.0625,-0.234374 -0.09375,-0.351562 -0.316407,-1.164062 -0.703126,-2.300781 -1.152344,-3.402344 -0.04687,-0.109375 -0.09375,-0.21875 -0.140625,-0.328125 C 54.121094,10.414062 43.816406,3.144531 31.75,3.144531 Z m 0,1.324219 c 11.328125,0 21.027344,6.710938 25.363281,16.390625 0,0 -0.0039,0 -0.0039,0 0.0039,3.050781 0.832031,11.371094 -1.121094,9.566406 -2.75,-2.535156 -2.722656,-6.59375 -2.722656,-6.59375 0,0 -2.808594,8.417969 0.917969,13.976563 3.136718,4.683594 -0.160156,9.230468 -4.734375,4.65625 -1.796875,-1.796875 -2.730469,-4.601563 -2.730469,-4.601563 -3.0625,4.464844 -1.871094,7.484375 0,11.226563 1.871094,3.738281 -2.949219,9.488281 -5.613281,5.609375 -0.890625,-1.292969 2.578125,-4.140625 -2.742188,-7.898438 -0.328125,12.570313 -15.875,8.929688 -11.90625,-0.660156 -7.492187,2.539063 -1.527343,6.828125 -4.0625,8.558594 -3.886719,2.65625 -7.484375,-1.871094 -5.613281,-5.609375 1.871094,-3.742188 3.0625,-6.761719 0,-11.226563 0,0 -0.933594,2.804688 -2.730469,4.601563 -4.574219,4.574218 -7.871093,0.02734 -4.734375,-4.65625 3.726563,-5.558594 0.917969,-13.976563 0.917969,-13.976563 0,0 0.02734,4.058594 -2.722656,6.59375 -1.953125,1.804688 -1.125,-6.515625 -1.121094,-9.566406 0,0 -0.00391,0 -0.00391,0 C 10.722656,11.179688 20.421875,4.46875 31.75,4.46875 Z m 0,0"
       id="path4"
       inkscape:connector-curvature="0" />
    <path
       style="fill:#ff6e42;fill-opacity:1;fill-rule:nonzero;stroke:none"
       d="m 31.75,19.019531 c -7.328125,0 -13.230469,5.902344 -13.230469,13.230469 0,7.328125 5.902344,13.230469 13.230469,13.230469 7.328125,0 13.230469,-5.902344 13.230469,-13.230469 0,-7.328125 -5.902344,-13.230469 -13.230469,-13.230469 z m 0,9.261719 c 2.199219,0 3.96875,1.769531 3.96875,3.96875 0,2.199219 -1.769531,3.96875 -3.96875,3.96875 -2.199219,0 -3.96875,-1.769531 -3.96875,-3.96875 0,-2.199219 1.769531,-3.96875 3.96875,-3.96875 z m 0,0"
       id="path6"
       inkscape:connector-curvature="0" />
  </g>
</svg>
