<?xml version="1.0" encoding="UTF-8" standalone="no"?>
<!-- Created with Inkscape (http://www.inkscape.org/) -->

<svg
   xmlns:dc="http://purl.org/dc/elements/1.1/"
   xmlns:cc="http://creativecommons.org/ns#"
   xmlns:rdf="http://www.w3.org/1999/02/22-rdf-syntax-ns#"
   xmlns:svg="http://www.w3.org/2000/svg"
   xmlns="http://www.w3.org/2000/svg"
   xmlns:sodipodi="http://sodipodi.sourceforge.net/DTD/sodipodi-0.dtd"
   xmlns:inkscape="http://www.inkscape.org/namespaces/inkscape"
   id="svg2"
   version="1.1"
   inkscape:version="0.92.4 (5da689c313, 2019-01-14)"
   width="48"
   height="48"
   sodipodi:docname="dropbox.svg">
  <metadata
     id="metadata8">
    <rdf:RDF>
      <cc:Work
         rdf:about="">
        <dc:format>image/svg+xml</dc:format>
        <dc:type
           rdf:resource="http://purl.org/dc/dcmitype/StillImage" />
        <dc:title></dc:title>
      </cc:Work>
    </rdf:RDF>
  </metadata>
  <defs
     id="defs6" />
  <sodipodi:namedview
     pagecolor="#ffffff"
     bordercolor="#666666"
     borderopacity="1"
     objecttolerance="10"
     gridtolerance="10"
     guidetolerance="10"
     inkscape:pageopacity="0"
     inkscape:pageshadow="2"
     inkscape:window-width="1280"
     inkscape:window-height="954"
     id="namedview4"
     showgrid="false"
     inkscape:zoom="5.2149125"
     inkscape:cx="28.016426"
     inkscape:cy="44.892196"
     inkscape:window-x="0"
     inkscape:window-y="0"
     inkscape:window-maximized="1"
     inkscape:current-layer="svg2" />
  <path
     inkscape:connector-curvature="0"
     id="path2984"
     d="m 17.501648,40.634193 -6.453533,-3.916292 -0.02501,-1.18739 c -0.01376,-0.653063 0.0092,-1.18739 0.05093,-1.18739 0.04177,0 0.877932,0.504183 1.858148,1.120405 0.980215,0.616224 1.845129,1.120405 1.922029,1.120405 0.0769,0 2.156081,-1.692706 4.620397,-3.761572 2.464317,-2.068865 4.500744,-3.761572 4.525394,-3.761572 0.02465,0 2.061075,1.692707 4.525393,3.761572 2.464316,2.068866 4.543494,3.761572 4.620396,3.761572 0.0769,0 0.941814,-0.504181 1.922029,-1.120405 0.980215,-0.616222 1.816382,-1.120405 1.858149,-1.120405 0.04174,0 0.06469,0.53399 0.05092,1.186645 l -0.02502,1.186644 -6.453534,3.917091 c -3.549431,2.1544 -6.473688,3.917067 -6.498337,3.917037 -0.02465,-3e-5 -2.948908,-1.762385 -6.498353,-3.916345 z M 8.3846811,30.547422 c -3.4860998,-2.275225 -6.3397726,-4.16186 -6.3414952,-4.192527 -0.00416,-0.07406 8.6612981,-7.025207 8.7577801,-7.025207 0.111862,0 12.838353,7.877829 12.83951,7.947791 0.0015,0.09366 -8.726123,7.425277 -8.827467,7.415443 -0.04948,-0.0048 -2.942229,-1.870275 -6.4283279,-4.1455 z m 20.3434299,0.472999 c -2.403269,-2.026209 -4.369134,-3.710804 -4.368585,-3.743548 0.0012,-0.06957 12.728277,-7.947185 12.839508,-7.947185 0.09641,0 8.761908,6.951093 8.757888,7.025207 -0.0032,0.06214 -12.615029,8.288108 -12.764621,8.32574 -0.05203,0.01309 -2.06092,-1.634006 -4.46419,-3.660214 z M 6.3759706,15.333307 C 3.9665669,13.406437 1.9834914,11.798151 1.9691362,11.759337 1.9398523,11.680172 14.325403,3.5147287 14.572961,3.4499906 c 0.109183,-0.028553 1.528996,1.0983559 4.590881,3.6437915 2.438048,2.0268213 4.444516,3.7181839 4.45882,3.7585879 0.02254,0.06368 -12.69434,7.98434 -12.819127,7.98434 -0.02576,0 -2.0181616,-1.57653 -4.4275644,-3.503403 z m 24.3912794,-0.4385 c -3.500147,-2.165515 -6.363903,-3.977135 -6.363903,-4.025826 0,-0.0487 1.994765,-1.7471829 4.432813,-3.7744272 3.062072,-2.5461237 4.481691,-3.6731158 4.59088,-3.6445632 0.247558,0.064735 12.633107,8.2301814 12.603824,8.3093464 -0.03325,0.08991 -8.768375,7.078161 -8.843641,7.07507 -0.03083,-0.0012 -2.919827,-1.774088 -6.419973,-3.9396 z"
     style="fill:#00bbf2;fill-opacity:1;stroke-width:0.09791518" />
</svg>
