<?xml version="1.0" encoding="UTF-8" standalone="no"?>
<svg
   xmlns:dc="http://purl.org/dc/elements/1.1/"
   xmlns:cc="http://creativecommons.org/ns#"
   xmlns:rdf="http://www.w3.org/1999/02/22-rdf-syntax-ns#"
   xmlns:svg="http://www.w3.org/2000/svg"
   xmlns="http://www.w3.org/2000/svg"
   xmlns:sodipodi="http://sodipodi.sourceforge.net/DTD/sodipodi-0.dtd"
   xmlns:inkscape="http://www.inkscape.org/namespaces/inkscape"
   width="48"
   height="48"
   viewBox="0 0 48 48"
   version="1.1"
   id="svg11"
   sodipodi:docname="eclipse-cdt.svg"
   inkscape:version="0.92.4 (5da689c313, 2019-01-14)">
  <metadata
     id="metadata17">
    <rdf:RDF>
      <cc:Work
         rdf:about="">
        <dc:format>image/svg+xml</dc:format>
        <dc:type
           rdf:resource="http://purl.org/dc/dcmitype/StillImage" />
        <dc:title></dc:title>
      </cc:Work>
    </rdf:RDF>
  </metadata>
  <defs
     id="defs15" />
  <sodipodi:namedview
     pagecolor="#ffffff"
     bordercolor="#666666"
     borderopacity="1"
     objecttolerance="10"
     gridtolerance="10"
     guidetolerance="10"
     inkscape:pageopacity="0"
     inkscape:pageshadow="2"
     inkscape:window-width="1280"
     inkscape:window-height="954"
     id="namedview13"
     showgrid="false"
     inkscape:zoom="3.6875"
     inkscape:cx="27.254237"
     inkscape:cy="32"
     inkscape:window-x="0"
     inkscape:window-y="0"
     inkscape:window-maximized="1"
     inkscape:current-layer="svg11" />
  <g
     id="surface1"
     transform="matrix(0.72513757,0,0,0.72513757,0.97688215,0.61431337)">
    <path
       style="fill:#ff6e42;fill-opacity:1;fill-rule:nonzero;stroke:none"
       d="m 30.425781,3.144531 c -15.390625,0 -27.78125,12.390625 -27.78125,27.78125 0,6.285157 2.066407,12.070313 5.558594,16.714844 -1.867187,-3.847656 -2.910156,-8.167969 -2.910156,-12.746094 0,-16.121093 12.980469,-29.101562 29.101562,-29.101562 4.578125,0 8.898438,1.042969 12.746094,2.910156 C 42.496094,5.210938 36.710938,3.144531 30.425781,3.144531 Z m 0,0"
       id="path2"
       inkscape:connector-curvature="0" />
    <path
       style="fill:#7d57c2;fill-opacity:1;fill-rule:nonzero;stroke:none"
       d="M 34.394531,8.4375 C 19.738281,8.4375 7.9375,20.238281 7.9375,34.894531 c 0,14.660157 11.800781,26.460938 26.457031,26.460938 6.828125,0 13.035157,-2.5625 17.71875,-6.777344 L 46.796875,48.675781 C 43.519531,51.625 39.175781,53.417969 34.394531,53.417969 24.136719,53.417969 15.875,45.15625 15.875,34.894531 15.875,24.636719 24.136719,16.375 34.394531,16.375 c 4.183594,0 8.03125,1.371094 11.125,3.691406 l 4.765625,-6.355468 C 45.867188,10.398438 40.367188,8.4375 34.394531,8.4375 Z m 0,13.230469 c -7.328125,0 -13.226562,5.898437 -13.226562,13.226562 0,7.332031 5.898437,13.230469 13.226562,13.230469 3.414063,0 6.515625,-1.28125 8.859375,-3.386719 L 39.160156,40.1875 H 38.375 c -1.105469,0.832031 -2.484375,1.324219 -3.980469,1.324219 -3.664062,0 -6.613281,-2.953125 -6.613281,-6.617188 0,-3.664062 2.949219,-6.613281 6.613281,-6.613281 1.496094,0 2.867188,0.488281 3.972657,1.320312 l 3.972656,-5.296874 c -2.207032,-1.660157 -4.957032,-2.636719 -7.945313,-2.636719 z m 7.9375,7.9375 v 3.96875 h -3.96875 v 2.644531 h 3.96875 v 3.96875 h 2.648438 v -3.96875 h 3.96875 v -2.644531 h -3.96875 v -3.96875 z m 11.90625,0 v 3.96875 h -3.96875 v 2.644531 h 3.96875 v 3.96875 h 2.648438 v -3.96875 h 3.96875 v -2.644531 h -3.96875 v -3.96875 z m 0,0"
       id="path4"
       inkscape:connector-curvature="0" />
    <path
       style="fill:#cfc2e8;fill-opacity:1;fill-rule:nonzero;stroke:none"
       d="M 8.605469,28.941406 C 8.40625,29.808594 8.25,30.691406 8.140625,31.589844 h 8.027344 c 0.160156,-0.910156 0.390625,-1.792969 0.675781,-2.648438 z M 7.96875,33.574219 c -0.019531,0.4375 -0.03125,0.878906 -0.03125,1.320312 0,0.445313 0.011719,0.886719 0.03125,1.324219 h 7.953125 c -0.03125,-0.4375 -0.04687,-0.878906 -0.04687,-1.324219 0,-0.445312 0.01563,-0.882812 0.04687,-1.320312 z m 0.171875,4.628906 C 8.25,39.101562 8.40625,39.984375 8.605469,40.847656 h 8.238281 c -0.285156,-0.855468 -0.515625,-1.738281 -0.675781,-2.644531 z m 0,0"
       id="path6"
       inkscape:connector-curvature="0" />
    <path
       style="fill:#cfc2e8;fill-opacity:1;fill-rule:nonzero;stroke:none"
       d="m 22.570312,28.941406 c -0.417968,0.835938 -0.753906,1.722656 -0.988281,2.648438 h 7.078125 C 29.320312,30.445312 30.308594,29.519531 31.5,28.941406 Z m -1.339843,4.632813 c -0.04297,0.433593 -0.0625,0.875 -0.0625,1.320312 0,0.449219 0.01953,0.890625 0.0625,1.324219 h 6.683593 c -0.08594,-0.425781 -0.132812,-0.871094 -0.132812,-1.324219 0,-0.453125 0.04687,-0.894531 0.132812,-1.320312 z m 0.351562,4.628906 c 0.234375,0.925781 0.570313,1.8125 0.988281,2.644531 H 31.5 C 30.308594,40.269531 29.320312,39.34375 28.660156,38.203125 Z m 0,0"
       id="path8"
       inkscape:connector-curvature="0" />
  </g>
</svg>
