<?xml version="1.0" encoding="UTF-8" standalone="no"?>
<svg
   xmlns:dc="http://purl.org/dc/elements/1.1/"
   xmlns:cc="http://creativecommons.org/ns#"
   xmlns:rdf="http://www.w3.org/1999/02/22-rdf-syntax-ns#"
   xmlns:svg="http://www.w3.org/2000/svg"
   xmlns="http://www.w3.org/2000/svg"
   xmlns:sodipodi="http://sodipodi.sourceforge.net/DTD/sodipodi-0.dtd"
   xmlns:inkscape="http://www.inkscape.org/namespaces/inkscape"
   width="48"
   height="48"
   viewBox="0 0 48 48"
   version="1.1"
   id="svg31"
   sodipodi:docname="elisa.svg"
   inkscape:version="0.92.4 (5da689c313, 2019-01-14)">
  <metadata
     id="metadata37">
    <rdf:RDF>
      <cc:Work
         rdf:about="">
        <dc:format>image/svg+xml</dc:format>
        <dc:type
           rdf:resource="http://purl.org/dc/dcmitype/StillImage" />
        <dc:title></dc:title>
      </cc:Work>
    </rdf:RDF>
  </metadata>
  <defs
     id="defs35" />
  <sodipodi:namedview
     pagecolor="#ffffff"
     bordercolor="#666666"
     borderopacity="1"
     objecttolerance="10"
     gridtolerance="10"
     guidetolerance="10"
     inkscape:pageopacity="0"
     inkscape:pageshadow="2"
     inkscape:window-width="1280"
     inkscape:window-height="954"
     id="namedview33"
     showgrid="false"
     inkscape:zoom="3.6875"
     inkscape:cx="27.254237"
     inkscape:cy="32"
     inkscape:window-x="0"
     inkscape:window-y="0"
     inkscape:window-maximized="1"
     inkscape:current-layer="svg31" />
  <g
     id="surface1"
     transform="matrix(0.72667823,0,0,0.72667823,0.9279662,0.56462708)">
    <path
       style="fill:#3f3f3f;fill-opacity:1;fill-rule:nonzero;stroke:none"
       d="m 5.292969,8.4375 h 52.914062 c 1.460938,0 2.648438,1.183594 2.648438,2.644531 v 42.335938 c 0,1.460937 -1.1875,2.644531 -2.648438,2.644531 H 5.292969 c -1.460938,0 -2.648438,-1.183594 -2.648438,-2.644531 V 11.082031 c 0,-1.460937 1.1875,-2.644531 2.648438,-2.644531 z m 0,0"
       id="path2"
       inkscape:connector-curvature="0" />
    <path
       style="fill:#616161;fill-opacity:1;fill-rule:nonzero;stroke:none"
       d="m 13.890625,45.476562 c -0.625,0 -1.164063,0.4375 -1.292969,1.046876 l -1.984375,9.261718 c -0.01953,0.09375 -0.03125,0.1875 -0.03125,0.277344 h 42.335938 c 0,-0.08984 -0.01172,-0.183594 -0.03125,-0.277344 l -1.984375,-9.261718 c -0.128906,-0.609376 -0.667969,-1.046876 -1.292969,-1.046876 z m 0,0"
       id="path4"
       inkscape:connector-curvature="0" />
    <path
       style="fill:#66ba68;fill-opacity:1;fill-rule:nonzero;stroke:none"
       d="m 7.9375,12.40625 h 47.625 c 0.730469,0 1.324219,0.59375 1.324219,1.324219 v 15.875 c 0,0.730469 -0.59375,1.320312 -1.324219,1.320312 H 7.9375 c -0.730469,0 -1.324219,-0.589843 -1.324219,-1.320312 v -15.875 C 6.613281,13 7.207031,12.40625 7.9375,12.40625 Z m 0,0"
       id="path6"
       inkscape:connector-curvature="0" />
    <path
       style="fill:#eeeeee;fill-opacity:1;fill-rule:nonzero;stroke:none"
       d="M 6.613281,26.957031 V 40.1875 c 0,0.734375 0.589844,1.324219 1.324219,1.324219 h 47.625 c 0.734375,0 1.324219,-0.589844 1.324219,-1.324219 V 26.957031 Z m 0,0"
       id="path8"
       inkscape:connector-curvature="0" />
    <path
       style="fill:#616161;fill-opacity:1;fill-rule:nonzero;stroke:none"
       d="m 18.519531,19.019531 h 26.460938 c 4.382812,0 7.9375,3.554688 7.9375,7.9375 0,4.386719 -3.554688,7.9375 -7.9375,7.9375 H 18.519531 c -4.382812,0 -7.9375,-3.550781 -7.9375,-7.9375 0,-4.382812 3.554688,-7.9375 7.9375,-7.9375 z m 0,0"
       id="path10"
       inkscape:connector-curvature="0" />
    <path
       style="fill:#3f3f3f;fill-opacity:1;fill-rule:nonzero;stroke:none"
       d="m 18.519531,20.34375 h 26.460938 c 3.652343,0 6.613281,2.960938 6.613281,6.613281 0,3.65625 -2.960938,6.617188 -6.613281,6.617188 H 18.519531 c -3.652343,0 -6.613281,-2.960938 -6.613281,-6.617188 0,-3.652343 2.960938,-6.613281 6.613281,-6.613281 z m 0,0"
       id="path12"
       inkscape:connector-curvature="0" />
    <path
       style="fill:#eeeeee;fill-opacity:1;fill-rule:nonzero;stroke:none"
       d="m 18.519531,20.34375 c -3.664062,0 -6.613281,2.949219 -6.613281,6.613281 0,3.664063 2.949219,6.617188 6.613281,6.617188 3.664063,0 6.617188,-2.953125 6.617188,-6.617188 0,-3.664062 -2.953125,-6.613281 -6.617188,-6.613281 z m -1.164062,1.449219 0.261719,1.300781 c 0.289062,-0.07031 0.59375,-0.105469 0.902343,-0.105469 0.3125,0 0.617188,0.03516 0.90625,0.105469 L 19.6875,21.792969 c 0.597656,0.136719 1.160156,0.371093 1.664062,0.6875 l -0.738281,1.101562 c 0.519531,0.324219 0.960938,0.761719 1.28125,1.28125 L 23,24.128906 c 0.316406,0.503906 0.550781,1.0625 0.683594,1.664063 l -1.296875,0.261719 c 0.06641,0.289062 0.101562,0.59375 0.101562,0.902343 0,0.3125 -0.03516,0.617188 -0.101562,0.90625 L 23.683594,28.125 C 23.550781,28.722656 23.316406,29.285156 23,29.789062 l -1.105469,-0.738281 c -0.320312,0.519531 -0.761719,0.960938 -1.28125,1.28125 l 0.738281,1.105469 c -0.503906,0.316406 -1.066406,0.550781 -1.664062,0.683594 l -0.261719,-1.296875 c -0.289062,0.06641 -0.59375,0.101562 -0.90625,0.101562 -0.308593,0 -0.613281,-0.03516 -0.902343,-0.101562 l -0.261719,1.296875 C 16.753906,31.988281 16.195312,31.753906 15.691406,31.4375 l 0.734375,-1.105469 c -0.519531,-0.320312 -0.957031,-0.761719 -1.28125,-1.28125 l -1.101562,0.738281 C 13.726562,29.285156 13.492188,28.722656 13.355469,28.125 l 1.300781,-0.261719 c -0.07031,-0.289062 -0.105469,-0.59375 -0.105469,-0.90625 0,-0.308593 0.03516,-0.613281 0.105469,-0.902343 l -1.300781,-0.261719 c 0.136719,-0.601563 0.371093,-1.160157 0.6875,-1.664063 l 1.101562,0.734375 c 0.324219,-0.519531 0.761719,-0.957031 1.28125,-1.28125 l -0.734375,-1.101562 c 0.503906,-0.316407 1.0625,-0.550781 1.664063,-0.6875 z m 0,0"
       id="path14"
       inkscape:connector-curvature="0" />
    <path
       style="fill:#eeeeee;fill-opacity:1;fill-rule:nonzero;stroke:none"
       d="m 44.980469,20.34375 c -3.664063,0 -6.617188,2.949219 -6.617188,6.613281 0,3.664063 2.953125,6.617188 6.617188,6.617188 3.664062,0 6.613281,-2.953125 6.613281,-6.617188 0,-3.664062 -2.949219,-6.613281 -6.613281,-6.613281 z m -1.167969,1.449219 0.261719,1.300781 c 0.289062,-0.07031 0.59375,-0.105469 0.90625,-0.105469 0.3125,0 0.613281,0.03516 0.90625,0.105469 l 0.257812,-1.300781 c 0.601563,0.136719 1.160157,0.371093 1.664063,0.6875 l -0.734375,1.101562 c 0.519531,0.324219 0.957031,0.761719 1.28125,1.28125 l 1.101562,-0.734375 c 0.316407,0.503906 0.550781,1.0625 0.6875,1.664063 l -1.300781,0.261719 c 0.07031,0.289062 0.105469,0.59375 0.105469,0.902343 0,0.3125 -0.03516,0.617188 -0.105469,0.90625 L 50.144531,28.125 c -0.136719,0.597656 -0.371093,1.160156 -0.6875,1.664062 l -1.101562,-0.738281 c -0.324219,0.519531 -0.761719,0.960938 -1.28125,1.28125 l 0.734375,1.105469 c -0.503906,0.316406 -1.0625,0.550781 -1.664063,0.683594 l -0.257812,-1.296875 c -0.292969,0.06641 -0.59375,0.101562 -0.90625,0.101562 -0.3125,0 -0.617188,-0.03516 -0.90625,-0.101562 L 43.8125,32.121094 C 43.214844,31.988281 42.652344,31.753906 42.152344,31.4375 l 0.734375,-1.105469 c -0.519531,-0.320312 -0.960938,-0.761719 -1.28125,-1.28125 l -1.101563,0.738281 C 40.183594,29.285156 39.949219,28.722656 39.816406,28.125 l 1.296875,-0.261719 c -0.06641,-0.289062 -0.101562,-0.59375 -0.101562,-0.90625 0,-0.308593 0.03516,-0.613281 0.101562,-0.902343 l -1.296875,-0.261719 c 0.132813,-0.601563 0.367188,-1.160157 0.6875,-1.664063 l 1.101563,0.734375 c 0.320312,-0.519531 0.761719,-0.957031 1.28125,-1.28125 l -0.734375,-1.101562 c 0.5,-0.316407 1.0625,-0.550781 1.660156,-0.6875 z m 0,0"
       id="path16"
       inkscape:connector-curvature="0" />
    <path
       style="fill:#8c6e61;fill-opacity:1;fill-rule:nonzero;stroke:none"
       d="m 18.519531,20.34375 c 3.664063,0 6.617188,2.949219 6.617188,6.613281 0,3.664063 -2.953125,6.617188 -6.617188,6.617188 h 12.976563 c 1.007812,-1.984375 1.578125,-4.230469 1.578125,-6.617188 0,-2.382812 -0.570313,-4.628906 -1.578125,-6.613281 z m -4.085937,11.820312 c 0.08203,0.06641 0.167968,0.128907 0.253906,0.191407 -0.08594,-0.0625 -0.171875,-0.125 -0.253906,-0.191407 z m 0.382812,0.28125 c 0.308594,0.207032 0.636719,0.390626 0.976563,0.546876 -0.339844,-0.15625 -0.667969,-0.339844 -0.976563,-0.546876 z m 1.125,0.609376 c 0.148438,0.0625 0.300782,0.121093 0.453125,0.171874 -0.152343,-0.05078 -0.304687,-0.109374 -0.453125,-0.171874 z m 0.453125,0.171874 c 0.152344,0.05078 0.3125,0.09766 0.46875,0.140626 -0.15625,-0.04297 -0.316406,-0.08984 -0.46875,-0.140626 z m 0.789063,0.210938 c 0.269531,0.05469 0.546875,0.09375 0.828125,0.117188 -0.28125,-0.02344 -0.558594,-0.0625 -0.828125,-0.117188 z m 0.828125,0.117188 c 0.109375,0.0078 0.222656,0.01172 0.335937,0.01562 -0.113281,-0.0039 -0.226562,-0.0078 -0.335937,-0.01562 z m 0,0"
       id="path18"
       inkscape:connector-curvature="0" />
    <path
       style="fill:#8c6e61;fill-opacity:1;fill-rule:nonzero;stroke:none"
       d="m 40.578125,20.34375 c -2.132813,1.417969 -3.535156,3.847656 -3.535156,6.613281 0,2.769531 1.402343,5.195313 3.535156,6.617188 h 4.402344 c -3.664063,0 -6.617188,-2.953125 -6.617188,-6.617188 0,-3.664062 2.953125,-6.613281 6.617188,-6.613281 z m 8.488281,11.820312 c -0.08203,0.06641 -0.167968,0.128907 -0.253906,0.191407 0.08594,-0.0625 0.171875,-0.125 0.253906,-0.191407 z m -0.382812,0.28125 c -0.308594,0.207032 -0.636719,0.390626 -0.976563,0.546876 0.339844,-0.15625 0.667969,-0.339844 0.976563,-0.546876 z m -1.125,0.609376 c -0.148438,0.0625 -0.300782,0.121093 -0.453125,0.171874 0.152343,-0.05078 0.304687,-0.109374 0.453125,-0.171874 z m -0.453125,0.171874 c -0.152344,0.05078 -0.3125,0.09766 -0.46875,0.140626 0.15625,-0.04297 0.316406,-0.08984 0.46875,-0.140626 z M 46.316406,33.4375 c -0.269531,0.05469 -0.546875,0.09375 -0.828125,0.117188 0.28125,-0.02344 0.558594,-0.0625 0.828125,-0.117188 z m -0.828125,0.117188 c -0.109375,0.0078 -0.222656,0.01172 -0.335937,0.01562 0.113281,-0.0039 0.226562,-0.0078 0.335937,-0.01562 z m 0,0"
       id="path20"
       inkscape:connector-curvature="0" />
    <path
       style="fill:#3f3f3f;fill-opacity:1;fill-rule:nonzero;stroke:none"
       d="m 17.859375,50.109375 c 1.097656,0 1.984375,0.886719 1.984375,1.984375 0,1.097656 -0.886719,1.984375 -1.984375,1.984375 -1.097656,0 -1.984375,-0.886719 -1.984375,-1.984375 0,-1.097656 0.886719,-1.984375 1.984375,-1.984375 z m 0,0"
       id="path22"
       inkscape:connector-curvature="0" />
    <path
       style="fill:#3f3f3f;fill-opacity:1;fill-rule:nonzero;stroke:none"
       d="m 45.640625,50.109375 c 1.097656,0 1.984375,0.886719 1.984375,1.984375 0,1.097656 -0.886719,1.984375 -1.984375,1.984375 -1.097656,0 -1.984375,-0.886719 -1.984375,-1.984375 0,-1.097656 0.886719,-1.984375 1.984375,-1.984375 z m 0,0"
       id="path24"
       inkscape:connector-curvature="0" />
    <path
       style="fill:#3f3f3f;fill-opacity:1;fill-rule:nonzero;stroke:none"
       d="m 41.011719,48.785156 c 0.730469,0 1.320312,0.59375 1.320312,1.324219 0,0.730469 -0.589843,1.324219 -1.320312,1.324219 -0.730469,0 -1.324219,-0.59375 -1.324219,-1.324219 0,-0.730469 0.59375,-1.324219 1.324219,-1.324219 z m 0,0"
       id="path26"
       inkscape:connector-curvature="0" />
    <path
       style="fill:#3f3f3f;fill-opacity:1;fill-rule:nonzero;stroke:none"
       d="m 22.488281,48.785156 c 0.730469,0 1.324219,0.59375 1.324219,1.324219 0,0.730469 -0.59375,1.324219 -1.324219,1.324219 -0.730469,0 -1.320312,-0.59375 -1.320312,-1.324219 0,-0.730469 0.589843,-1.324219 1.320312,-1.324219 z m 0,0"
       id="path28"
       inkscape:connector-curvature="0" />
  </g>
</svg>
