<?xml version="1.0" encoding="UTF-8" standalone="no"?>
<svg
   xmlns:dc="http://purl.org/dc/elements/1.1/"
   xmlns:cc="http://creativecommons.org/ns#"
   xmlns:rdf="http://www.w3.org/1999/02/22-rdf-syntax-ns#"
   xmlns:svg="http://www.w3.org/2000/svg"
   xmlns="http://www.w3.org/2000/svg"
   xmlns:sodipodi="http://sodipodi.sourceforge.net/DTD/sodipodi-0.dtd"
   xmlns:inkscape="http://www.inkscape.org/namespaces/inkscape"
   width="48"
   height="48"
   viewBox="0 0 48 48"
   version="1.1"
   id="svg25"
   sodipodi:docname="gimp.svg"
   inkscape:version="0.92.4 (5da689c313, 2019-01-14)">
  <metadata
     id="metadata31">
    <rdf:RDF>
      <cc:Work
         rdf:about="">
        <dc:format>image/svg+xml</dc:format>
        <dc:type
           rdf:resource="http://purl.org/dc/dcmitype/StillImage" />
        <dc:title></dc:title>
      </cc:Work>
    </rdf:RDF>
  </metadata>
  <defs
     id="defs29" />
  <sodipodi:namedview
     pagecolor="#ffffff"
     bordercolor="#666666"
     borderopacity="1"
     objecttolerance="10"
     gridtolerance="10"
     guidetolerance="10"
     inkscape:pageopacity="0"
     inkscape:pageshadow="2"
     inkscape:window-width="1280"
     inkscape:window-height="954"
     id="namedview27"
     showgrid="false"
     inkscape:zoom="3.6875"
     inkscape:cx="27.254237"
     inkscape:cy="32"
     inkscape:window-x="0"
     inkscape:window-y="0"
     inkscape:window-maximized="1"
     inkscape:current-layer="svg25" />
  <g
     id="surface1"
     transform="matrix(0.74915481,0,0,0.74915481,0.50320726,-0.09732523)">
    <path
       style="fill:#8c6e61;fill-opacity:1;fill-rule:nonzero;stroke:none"
       d="M 51.773438,2.976562 C 51.242188,13.808594 43.015625,22.355469 32.875,22.355469 c -6.632812,0 -12.449219,-3.660157 -15.824219,-9.234375 C 15.453125,18.1875 15.578125,25.625 14.125,29.589844 c 2.660156,1.015625 4.496094,3.203125 4.496094,5.734375 0,3.121093 -2.78125,5.714843 -6.449219,6.242187 20.347656,19.492188 47.507813,6.699219 47.507813,-19.210937 0,-7.804688 -3.066407,-14.757813 -7.90625,-19.378907 z m 0,0"
       id="path2"
       inkscape:connector-curvature="0" />
    <path
       style="fill:#f5f5f5;fill-opacity:1;fill-rule:nonzero;stroke:none"
       d="m 44.429688,22.308594 c 3.09375,3.09375 3.480468,7.722656 0.859374,10.34375 -2.617187,2.617187 -7.25,2.234375 -10.34375,-0.859375 -3.097656,-3.097657 -3.480468,-7.730469 -0.863281,-10.347657 2.621094,-2.621093 7.25,-2.234374 10.347657,0.863282 z m 0,0"
       id="path4"
       inkscape:connector-curvature="0" />
    <path
       style="fill:#3f3f3f;fill-opacity:1;fill-rule:nonzero;stroke:none"
       d="m 10.609375,28.988281 h 0.183594 c 4.328125,0 7.828125,2.839844 7.828125,6.335938 0,3.5 -3.5,6.339843 -7.828125,6.339843 h -0.183594 c -4.320313,0 -7.828125,-2.839843 -7.828125,-6.339843 0,-3.496094 3.507812,-6.335938 7.828125,-6.335938 z m 0,0"
       id="path6"
       inkscape:connector-curvature="0" />
    <path
       style="fill:#f5f5f5;fill-opacity:1;fill-rule:nonzero;stroke:none"
       d="m 22.488281,22.375 c 3.164063,-1.824219 6.914063,-1.253906 8.375,1.277344 1.460938,2.53125 0.08203,6.0625 -3.082031,7.890625 -3.164062,1.824219 -6.914062,1.253906 -8.375,-1.277344 -1.460938,-2.53125 -0.08203,-6.0625 3.082031,-7.890625 z m 0,0"
       id="path8"
       inkscape:connector-curvature="0" />
    <path
       style="fill:#3f3f3f;fill-opacity:1;fill-rule:nonzero;stroke:none"
       d="m 27.78125,24.3125 c 1.632812,0 2.957031,1.320312 2.957031,2.957031 0,1.632813 -1.324219,2.953125 -2.957031,2.953125 -1.632812,0 -2.957031,-1.320312 -2.957031,-2.953125 0,-1.636719 1.324219,-2.957031 2.957031,-2.957031 z m 0,0"
       id="path10"
       inkscape:connector-curvature="0" />
    <path
       style="fill:#3f3f3f;fill-opacity:1;fill-rule:nonzero;stroke:none"
       d="m 35.71875,24.3125 c 1.632812,0 2.957031,1.320312 2.957031,2.957031 0,1.632813 -1.324219,2.953125 -2.957031,2.953125 -1.632812,0 -2.957031,-1.320312 -2.957031,-2.953125 0,-1.636719 1.324219,-2.957031 2.957031,-2.957031 z m 0,0"
       id="path12"
       inkscape:connector-curvature="0" />
    <path
       style="fill:#3f3f3f;fill-opacity:1;fill-rule:nonzero;stroke:none"
       d="m 45.230469,37.871094 c 0.167969,0.339844 0.261719,0.699218 0.261719,1.078125 v 0.378906 c 0,2.078125 -2.8125,3.75 -6.308594,3.75 -1.75,0 -3.328125,-0.421875 -4.46875,-1.101563 0.773437,1.550782 3.179687,2.679688 6.046875,2.679688 3.496093,0 6.308593,-1.671875 6.308593,-3.753906 v -0.382813 c 0,-1.03125 -0.703124,-1.972656 -1.839843,-2.648437 z m 0,0"
       id="path14"
       inkscape:connector-curvature="0" />
    <path
       style="fill:#ffa623;fill-opacity:1;fill-rule:nonzero;stroke:none"
       d="m 44.691406,41.160156 c -0.808594,0.863282 -2.171875,1.511719 -3.808594,1.78125 0.59375,0.578125 1.175782,1.144532 1.375,1.34375 l 0.09766,0.101563 c 4.601562,4.601562 8.578125,7.707031 9.398437,7.222656 0.382813,-0.226563 0.5,-0.34375 0.613282,-0.613281 C 52.75,49.945312 49.746094,46.199219 45.144531,41.597656 L 45.046875,41.5 c -0.02344,-0.01953 -0.25,-0.242188 -0.355469,-0.339844 z m 0,0"
       id="path16"
       inkscape:connector-curvature="0" />
    <path
       style="fill:#3f3f3f;fill-opacity:1;fill-rule:nonzero;stroke:none"
       d="M 59.695312,61.355469 C 58.523438,58.613281 56.960938,58.648438 54.5,57.019531 c -1.613281,-1.328125 -3.058594,-3.390625 -3.070312,-5.421875 0,-0.5 0.757812,-0.761718 0.992187,-0.992187 5.722656,-0.625 8.398437,7.363281 7.273437,10.75 z m 0,0"
       id="path18"
       inkscape:connector-curvature="0" />
    <path
       style="fill:#616161;fill-opacity:1;fill-rule:nonzero;stroke:none"
       d="m 7.121094,32.539062 0.046875,-0.03516 c 1.238281,-0.714844 2.640625,-0.605468 3.136719,0.25 0.488281,0.84375 -0.117188,2.109375 -1.363282,2.828125 l -0.046875,0.03125 C 7.65625,36.328125 6.253906,36.21875 5.765625,35.375 5.269531,34.519531 5.882812,33.253906 7.121094,32.539062 Z m 0,0"
       id="path20"
       inkscape:connector-curvature="0" />
    <path
       style="fill:#bdbdbd;fill-opacity:1;fill-rule:nonzero;stroke:none"
       d="m 52.367188,50.996094 c 0.21875,-0.886719 -0.902344,-2.457032 -3.1875,-5.121094 -0.246094,0.550781 -0.585938,1.09375 -1.019532,1.527344 -0.433594,0.433594 -0.945312,0.773437 -1.496094,1.019531 2.664063,2.285156 4.433594,3.507813 5.089844,3.1875 0.335938,-0.175781 0.5,-0.34375 0.613282,-0.613281 z m 0,0"
       id="path22"
       inkscape:connector-curvature="0" />
  </g>
</svg>
