<?xml version="1.0" encoding="UTF-8" standalone="no"?>
<svg
   xmlns:dc="http://purl.org/dc/elements/1.1/"
   xmlns:cc="http://creativecommons.org/ns#"
   xmlns:rdf="http://www.w3.org/1999/02/22-rdf-syntax-ns#"
   xmlns:svg="http://www.w3.org/2000/svg"
   xmlns="http://www.w3.org/2000/svg"
   xmlns:sodipodi="http://sodipodi.sourceforge.net/DTD/sodipodi-0.dtd"
   xmlns:inkscape="http://www.inkscape.org/namespaces/inkscape"
   width="48"
   height="48"
   viewBox="0 0 48 48"
   version="1.1"
   id="svg21"
   sodipodi:docname="indicator-sensors.svg"
   inkscape:version="0.92.4 (5da689c313, 2019-01-14)">
  <metadata
     id="metadata27">
    <rdf:RDF>
      <cc:Work
         rdf:about="">
        <dc:format>image/svg+xml</dc:format>
        <dc:type
           rdf:resource="http://purl.org/dc/dcmitype/StillImage" />
        <dc:title></dc:title>
      </cc:Work>
    </rdf:RDF>
  </metadata>
  <defs
     id="defs25" />
  <sodipodi:namedview
     pagecolor="#ffffff"
     bordercolor="#666666"
     borderopacity="1"
     objecttolerance="10"
     gridtolerance="10"
     guidetolerance="10"
     inkscape:pageopacity="0"
     inkscape:pageshadow="2"
     inkscape:window-width="1280"
     inkscape:window-height="954"
     id="namedview23"
     showgrid="false"
     inkscape:zoom="3.6875"
     inkscape:cx="22.508474"
     inkscape:cy="32"
     inkscape:window-x="0"
     inkscape:window-y="0"
     inkscape:window-maximized="1"
     inkscape:current-layer="svg21" />
  <g
     transform="matrix(0.72513757,0,0,0.72513757,0.97688215,0.61431337)"
     id="surface1">
    <path
       inkscape:connector-curvature="0"
       style="fill:#616161;fill-opacity:0.99576302;fill-rule:nonzero;stroke:none"
       d="M 21.230469,48.125 H 47.5625 c 0.765625,0 1.386719,0.621094 1.386719,1.386719 v 5.164062 c 0,0.765625 -0.621094,1.386719 -1.386719,1.386719 H 21.230469 c -0.765625,0 -1.386719,-0.621094 -1.386719,-1.386719 v -5.164062 c 0,-0.765625 0.621094,-1.386719 1.386719,-1.386719 z m 0,0"
       id="path2" />
    <path
       inkscape:connector-curvature="0"
       style="fill:#737373;fill-opacity:0.99576302;fill-rule:nonzero;stroke:none"
       d="M 6.613281,13.730469 H 59.53125 c 0.730469,0 1.324219,0.589843 1.324219,1.320312 v 34.398438 c 0,0.730469 -0.59375,1.320312 -1.324219,1.320312 H 6.613281 c -0.730469,0 -1.320312,-0.589843 -1.320312,-1.320312 V 15.050781 c 0,-0.730469 0.589843,-1.320312 1.320312,-1.320312 z m 0,0"
       id="path4" />
    <path
       inkscape:connector-curvature="0"
       style="fill:#3f3f3f;fill-opacity:0.99576302;fill-rule:nonzero;stroke:none"
       d="m 6.613281,37.542969 h 5.292969 c 0.730469,0 1.324219,0.589843 1.324219,1.320312 v 5.292969 c 0,0.730469 -0.59375,1.324219 -1.324219,1.324219 H 6.613281 c -0.730469,0 -1.320312,-0.59375 -1.320312,-1.324219 v -5.292969 c 0,-0.730469 0.589843,-1.320312 1.320312,-1.320312 z m 0,0"
       id="path6" />
    <path
       inkscape:connector-curvature="0"
       style="fill:#3f3f3f;fill-opacity:0.99576302;fill-rule:nonzero;stroke:none"
       d="m 6.613281,28.28125 h 5.292969 c 0.730469,0 1.324219,0.59375 1.324219,1.324219 v 5.289062 c 0,0.730469 -0.59375,1.324219 -1.324219,1.324219 H 6.613281 c -0.730469,0 -1.320312,-0.59375 -1.320312,-1.324219 v -5.289062 c 0,-0.730469 0.589843,-1.324219 1.320312,-1.324219 z m 0,0"
       id="path8" />
    <path
       inkscape:connector-curvature="0"
       style="fill:#3f3f3f;fill-opacity:0.99576302;fill-rule:nonzero;stroke:none"
       d="m 6.613281,19.019531 h 5.292969 c 0.730469,0 1.324219,0.59375 1.324219,1.324219 v 5.292969 c 0,0.730469 -0.59375,1.320312 -1.324219,1.320312 H 6.613281 c -0.730469,0 -1.320312,-0.589843 -1.320312,-1.320312 V 20.34375 c 0,-0.730469 0.589843,-1.324219 1.320312,-1.324219 z m 0,0"
       id="path10" />
    <path
       inkscape:connector-curvature="0"
       style="fill:#bdbdbd;fill-opacity:0.99576302;fill-rule:nonzero;stroke:none"
       d="m 6.613281,3.144531 c 0.730469,0 1.324219,0.59375 1.324219,1.324219 v 55.5625 c 0,0.730469 -0.59375,1.324219 -1.324219,1.324219 -0.730469,0 -1.320312,-0.59375 -1.320312,-1.324219 V 4.46875 c 0,-0.730469 0.589843,-1.324219 1.320312,-1.324219 z m 0,0"
       id="path12" />
    <path
       inkscape:connector-curvature="0"
       style="fill:#bdbdbd;fill-opacity:0.99576302;fill-rule:nonzero;stroke:none"
       d="m 3.96875,3.144531 h 2.644531 c 0.730469,0 1.324219,0.59375 1.324219,1.324219 0,0.730469 -0.59375,1.324219 -1.324219,1.324219 H 3.96875 c -0.730469,0 -1.324219,-0.59375 -1.324219,-1.324219 0,-0.730469 0.59375,-1.324219 1.324219,-1.324219 z m 0,0"
       id="path14" />
    <path
       inkscape:connector-curvature="0"
       style="fill:#eeeeee;fill-opacity:0.99576302;fill-rule:nonzero;stroke:none"
       d="m 24.472656,17.035156 c 0.367188,0 0.664063,0.296875 0.664063,0.664063 v 1.984375 c 0,0.363281 -0.296875,0.660156 -0.664063,0.660156 -0.363281,0 -0.660156,-0.296875 -0.660156,-0.660156 v -1.984375 c 0,-0.367188 0.296875,-0.664063 0.660156,-0.664063 z m 0,0"
       id="path16" />
    <path
       inkscape:connector-curvature="0"
       style="fill:#eeeeee;fill-opacity:0.99576302;fill-rule:nonzero;stroke:none"
       d="m 27.78125,17.035156 c 0.367188,0 0.660156,0.296875 0.660156,0.664063 v 1.984375 c 0,0.363281 -0.292968,0.660156 -0.660156,0.660156 -0.367188,0 -0.660156,-0.296875 -0.660156,-0.660156 v -1.984375 c 0,-0.367188 0.292968,-0.664063 0.660156,-0.664063 z m 0,0"
       id="path18" />
    <path
       inkscape:connector-curvature="0"
       style="fill:#eeeeee;fill-opacity:0.99576302;fill-rule:nonzero;stroke:none"
       d="m 31.089844,17.035156 c 0.363281,0 0.660156,0.296875 0.660156,0.664063 v 1.984375 c 0,0.363281 -0.296875,0.660156 -0.660156,0.660156 -0.367188,0 -0.664063,-0.296875 -0.664063,-0.660156 v -1.984375 c 0,-0.367188 0.296875,-0.664063 0.664063,-0.664063 z m 0,0"
       id="path20" />
    <path
       inkscape:connector-curvature="0"
       style="fill:#eeeeee;fill-opacity:0.99576302;fill-rule:nonzero;stroke:none"
       d="m 34.394531,17.035156 c 0.367188,0 0.664063,0.296875 0.664063,0.664063 v 1.984375 c 0,0.363281 -0.296875,0.660156 -0.664063,0.660156 -0.363281,0 -0.660156,-0.296875 -0.660156,-0.660156 v -1.984375 c 0,-0.367188 0.296875,-0.664063 0.660156,-0.664063 z m 0,0"
       id="path22" />
    <path
       inkscape:connector-curvature="0"
       style="fill:#eeeeee;fill-opacity:0.99576302;fill-rule:nonzero;stroke:none"
       d="m 37.703125,17.035156 c 0.367187,0 0.660156,0.296875 0.660156,0.664063 v 1.984375 c 0,0.363281 -0.292969,0.660156 -0.660156,0.660156 -0.367187,0 -0.660156,-0.296875 -0.660156,-0.660156 v -1.984375 c 0,-0.367188 0.292969,-0.664063 0.660156,-0.664063 z m 0,0"
       id="path24" />
    <path
       inkscape:connector-curvature="0"
       style="fill:#eeeeee;fill-opacity:0.99576302;fill-rule:nonzero;stroke:none"
       d="m 41.011719,17.035156 c 0.363281,0 0.660156,0.296875 0.660156,0.664063 v 1.984375 c 0,0.363281 -0.296875,0.660156 -0.660156,0.660156 -0.367188,0 -0.664063,-0.296875 -0.664063,-0.660156 v -1.984375 c 0,-0.367188 0.296875,-0.664063 0.664063,-0.664063 z m 0,0"
       id="path26" />
    <path
       inkscape:connector-curvature="0"
       style="fill:#eeeeee;fill-opacity:0.99576302;fill-rule:nonzero;stroke:none"
       d="m 44.316406,17.035156 c 0.367188,0 0.664063,0.296875 0.664063,0.664063 v 1.984375 c 0,0.363281 -0.296875,0.660156 -0.664063,0.660156 -0.363281,0 -0.660156,-0.296875 -0.660156,-0.660156 v -1.984375 c 0,-0.367188 0.296875,-0.664063 0.660156,-0.664063 z m 0,0"
       id="path28" />
    <path
       inkscape:connector-curvature="0"
       style="fill:#eeeeee;fill-opacity:0.99576302;fill-rule:nonzero;stroke:none"
       d="m 24.472656,44.15625 c 0.367188,0 0.664063,0.296875 0.664063,0.660156 v 1.984375 c 0,0.367188 -0.296875,0.664063 -0.664063,0.664063 -0.363281,0 -0.660156,-0.296875 -0.660156,-0.664063 v -1.984375 c 0,-0.363281 0.296875,-0.660156 0.660156,-0.660156 z m 0,0"
       id="path30" />
    <path
       inkscape:connector-curvature="0"
       style="fill:#eeeeee;fill-opacity:0.99576302;fill-rule:nonzero;stroke:none"
       d="m 27.78125,44.15625 c 0.367188,0 0.660156,0.296875 0.660156,0.660156 v 1.984375 c 0,0.367188 -0.292968,0.664063 -0.660156,0.664063 -0.367188,0 -0.660156,-0.296875 -0.660156,-0.664063 v -1.984375 c 0,-0.363281 0.292968,-0.660156 0.660156,-0.660156 z m 0,0"
       id="path32" />
    <path
       inkscape:connector-curvature="0"
       style="fill:#eeeeee;fill-opacity:0.99576302;fill-rule:nonzero;stroke:none"
       d="m 31.089844,44.15625 c 0.363281,0 0.660156,0.296875 0.660156,0.660156 v 1.984375 c 0,0.367188 -0.296875,0.664063 -0.660156,0.664063 -0.367188,0 -0.664063,-0.296875 -0.664063,-0.664063 v -1.984375 c 0,-0.363281 0.296875,-0.660156 0.664063,-0.660156 z m 0,0"
       id="path34" />
    <path
       inkscape:connector-curvature="0"
       style="fill:#eeeeee;fill-opacity:0.99576302;fill-rule:nonzero;stroke:none"
       d="m 34.394531,44.15625 c 0.367188,0 0.664063,0.296875 0.664063,0.660156 v 1.984375 c 0,0.367188 -0.296875,0.664063 -0.664063,0.664063 -0.363281,0 -0.660156,-0.296875 -0.660156,-0.664063 v -1.984375 c 0,-0.363281 0.296875,-0.660156 0.660156,-0.660156 z m 0,0"
       id="path36" />
    <path
       inkscape:connector-curvature="0"
       style="fill:#eeeeee;fill-opacity:0.99576302;fill-rule:nonzero;stroke:none"
       d="m 37.703125,44.15625 c 0.367187,0 0.660156,0.296875 0.660156,0.660156 v 1.984375 c 0,0.367188 -0.292969,0.664063 -0.660156,0.664063 -0.367187,0 -0.660156,-0.296875 -0.660156,-0.664063 v -1.984375 c 0,-0.363281 0.292969,-0.660156 0.660156,-0.660156 z m 0,0"
       id="path38" />
    <path
       inkscape:connector-curvature="0"
       style="fill:#eeeeee;fill-opacity:0.99576302;fill-rule:nonzero;stroke:none"
       d="m 41.011719,44.15625 c 0.363281,0 0.660156,0.296875 0.660156,0.660156 v 1.984375 c 0,0.367188 -0.296875,0.664063 -0.660156,0.664063 -0.367188,0 -0.664063,-0.296875 -0.664063,-0.664063 v -1.984375 c 0,-0.363281 0.296875,-0.660156 0.664063,-0.660156 z m 0,0"
       id="path40" />
    <path
       inkscape:connector-curvature="0"
       style="fill:#eeeeee;fill-opacity:0.99576302;fill-rule:nonzero;stroke:none"
       d="m 44.316406,44.15625 c 0.367188,0 0.664063,0.296875 0.664063,0.660156 v 1.984375 c 0,0.367188 -0.296875,0.664063 -0.664063,0.664063 -0.363281,0 -0.660156,-0.296875 -0.660156,-0.664063 v -1.984375 c 0,-0.363281 0.296875,-0.660156 0.660156,-0.660156 z m 0,0"
       id="path42" />
    <path
       inkscape:connector-curvature="0"
       style="fill:#eeeeee;fill-opacity:0.99576302;fill-rule:nonzero;stroke:none"
       d="m 22.488281,22.328125 c 0,0.367187 -0.292969,0.660156 -0.660156,0.660156 H 19.84375 c -0.367188,0 -0.660156,-0.292969 -0.660156,-0.660156 0,-0.367187 0.292968,-0.660156 0.660156,-0.660156 h 1.984375 c 0.367187,0 0.660156,0.292969 0.660156,0.660156 z m 0,0"
       id="path44" />
    <path
       inkscape:connector-curvature="0"
       style="fill:#eeeeee;fill-opacity:0.99576302;fill-rule:nonzero;stroke:none"
       d="m 22.488281,25.636719 c 0,0.363281 -0.292969,0.660156 -0.660156,0.660156 H 19.84375 c -0.367188,0 -0.660156,-0.296875 -0.660156,-0.660156 0,-0.367188 0.292968,-0.664063 0.660156,-0.664063 h 1.984375 c 0.367187,0 0.660156,0.296875 0.660156,0.664063 z m 0,0"
       id="path46" />
    <path
       inkscape:connector-curvature="0"
       style="fill:#eeeeee;fill-opacity:0.99576302;fill-rule:nonzero;stroke:none"
       d="m 22.488281,28.941406 c 0,0.367188 -0.292969,0.664063 -0.660156,0.664063 H 19.84375 c -0.367188,0 -0.660156,-0.296875 -0.660156,-0.664063 0,-0.363281 0.292968,-0.660156 0.660156,-0.660156 h 1.984375 c 0.367187,0 0.660156,0.296875 0.660156,0.660156 z m 0,0"
       id="path48" />
    <path
       inkscape:connector-curvature="0"
       style="fill:#eeeeee;fill-opacity:0.99576302;fill-rule:nonzero;stroke:none"
       d="m 22.488281,32.25 c 0,0.367188 -0.292969,0.660156 -0.660156,0.660156 H 19.84375 c -0.367188,0 -0.660156,-0.292968 -0.660156,-0.660156 0,-0.367188 0.292968,-0.660156 0.660156,-0.660156 h 1.984375 c 0.367187,0 0.660156,0.292968 0.660156,0.660156 z m 0,0"
       id="path50" />
    <path
       inkscape:connector-curvature="0"
       style="fill:#eeeeee;fill-opacity:0.99576302;fill-rule:nonzero;stroke:none"
       d="m 22.488281,35.558594 c 0,0.363281 -0.292969,0.660156 -0.660156,0.660156 H 19.84375 c -0.367188,0 -0.660156,-0.296875 -0.660156,-0.660156 0,-0.367188 0.292968,-0.664063 0.660156,-0.664063 h 1.984375 c 0.367187,0 0.660156,0.296875 0.660156,0.664063 z m 0,0"
       id="path52" />
    <path
       inkscape:connector-curvature="0"
       style="fill:#eeeeee;fill-opacity:0.99576302;fill-rule:nonzero;stroke:none"
       d="m 22.488281,38.863281 c 0,0.367188 -0.292969,0.664063 -0.660156,0.664063 H 19.84375 c -0.367188,0 -0.660156,-0.296875 -0.660156,-0.664063 0,-0.363281 0.292968,-0.660156 0.660156,-0.660156 h 1.984375 c 0.367187,0 0.660156,0.296875 0.660156,0.660156 z m 0,0"
       id="path54" />
    <path
       inkscape:connector-curvature="0"
       style="fill:#eeeeee;fill-opacity:0.99576302;fill-rule:nonzero;stroke:none"
       d="m 22.488281,42.171875 c 0,0.367187 -0.292969,0.660156 -0.660156,0.660156 H 19.84375 c -0.367188,0 -0.660156,-0.292969 -0.660156,-0.660156 0,-0.367187 0.292968,-0.660156 0.660156,-0.660156 h 1.984375 c 0.367187,0 0.660156,0.292969 0.660156,0.660156 z m 0,0"
       id="path56" />
    <path
       inkscape:connector-curvature="0"
       style="fill:#eeeeee;fill-opacity:0.99576302;fill-rule:nonzero;stroke:none"
       d="m 49.609375,22.328125 c 0,0.367187 -0.296875,0.660156 -0.660156,0.660156 h -1.984375 c -0.367188,0 -0.664063,-0.292969 -0.664063,-0.660156 0,-0.367187 0.296875,-0.660156 0.664063,-0.660156 h 1.984375 c 0.363281,0 0.660156,0.292969 0.660156,0.660156 z m 0,0"
       id="path58" />
    <path
       inkscape:connector-curvature="0"
       style="fill:#eeeeee;fill-opacity:0.99576302;fill-rule:nonzero;stroke:none"
       d="m 49.609375,25.636719 c 0,0.363281 -0.296875,0.660156 -0.660156,0.660156 h -1.984375 c -0.367188,0 -0.664063,-0.296875 -0.664063,-0.660156 0,-0.367188 0.296875,-0.664063 0.664063,-0.664063 h 1.984375 c 0.363281,0 0.660156,0.296875 0.660156,0.664063 z m 0,0"
       id="path60" />
    <path
       inkscape:connector-curvature="0"
       style="fill:#eeeeee;fill-opacity:0.99576302;fill-rule:nonzero;stroke:none"
       d="m 49.609375,28.941406 c 0,0.367188 -0.296875,0.664063 -0.660156,0.664063 h -1.984375 c -0.367188,0 -0.664063,-0.296875 -0.664063,-0.664063 0,-0.363281 0.296875,-0.660156 0.664063,-0.660156 h 1.984375 c 0.363281,0 0.660156,0.296875 0.660156,0.660156 z m 0,0"
       id="path62" />
    <path
       inkscape:connector-curvature="0"
       style="fill:#eeeeee;fill-opacity:0.99576302;fill-rule:nonzero;stroke:none"
       d="m 49.609375,32.25 c 0,0.367188 -0.296875,0.660156 -0.660156,0.660156 h -1.984375 c -0.367188,0 -0.664063,-0.292968 -0.664063,-0.660156 0,-0.367188 0.296875,-0.660156 0.664063,-0.660156 h 1.984375 c 0.363281,0 0.660156,0.292968 0.660156,0.660156 z m 0,0"
       id="path64" />
    <path
       inkscape:connector-curvature="0"
       style="fill:#eeeeee;fill-opacity:0.99576302;fill-rule:nonzero;stroke:none"
       d="m 49.609375,35.558594 c 0,0.363281 -0.296875,0.660156 -0.660156,0.660156 h -1.984375 c -0.367188,0 -0.664063,-0.296875 -0.664063,-0.660156 0,-0.367188 0.296875,-0.664063 0.664063,-0.664063 h 1.984375 c 0.363281,0 0.660156,0.296875 0.660156,0.664063 z m 0,0"
       id="path66" />
    <path
       inkscape:connector-curvature="0"
       style="fill:#eeeeee;fill-opacity:0.99576302;fill-rule:nonzero;stroke:none"
       d="m 49.609375,38.863281 c 0,0.367188 -0.296875,0.664063 -0.660156,0.664063 h -1.984375 c -0.367188,0 -0.664063,-0.296875 -0.664063,-0.664063 0,-0.363281 0.296875,-0.660156 0.664063,-0.660156 h 1.984375 c 0.363281,0 0.660156,0.296875 0.660156,0.660156 z m 0,0"
       id="path68" />
    <path
       inkscape:connector-curvature="0"
       style="fill:#eeeeee;fill-opacity:0.99576302;fill-rule:nonzero;stroke:none"
       d="m 49.609375,42.171875 c 0,0.367187 -0.296875,0.660156 -0.660156,0.660156 h -1.984375 c -0.367188,0 -0.664063,-0.292969 -0.664063,-0.660156 0,-0.367187 0.296875,-0.660156 0.664063,-0.660156 h 1.984375 c 0.363281,0 0.660156,0.292969 0.660156,0.660156 z m 0,0"
       id="path70" />
    <path
       inkscape:connector-curvature="0"
       style="fill:#3f3f3f;fill-opacity:0.99576302;fill-rule:nonzero;stroke:none"
       d="m 23.8125,19.019531 h 21.167969 c 1.460937,0 2.644531,1.1875 2.644531,2.648438 v 21.164062 c 0,1.460938 -1.183594,2.648438 -2.644531,2.648438 H 23.8125 c -1.460938,0 -2.644531,-1.1875 -2.644531,-2.648438 V 21.667969 c 0,-1.460938 1.183593,-2.648438 2.644531,-2.648438 z m 0,0"
       id="path72" />
    <path
       inkscape:connector-curvature="0"
       style="fill:#ffa623;fill-opacity:0.99576302;fill-rule:nonzero;stroke:none"
       d="m 41.703125,53.417969 h 1.261719 c 0.382812,0 0.691406,0.308593 0.691406,0.691406 v 1.921875 c 0,0.382812 -0.308594,0.691406 -0.691406,0.691406 h -1.261719 c -0.382813,0 -0.691406,-0.308594 -0.691406,-0.691406 v -1.921875 c 0,-0.382813 0.308593,-0.691406 0.691406,-0.691406 z m 0,0"
       id="path74" />
    <path
       inkscape:connector-curvature="0"
       style="fill:#ffa623;fill-opacity:0.99576302;fill-rule:nonzero;stroke:none"
       d="m 41.703125,53.417969 h 1.261719 c 0.382812,0 0.691406,0.308593 0.691406,0.691406 v 1.921875 c 0,0.382812 -0.308594,0.691406 -0.691406,0.691406 h -1.261719 c -0.382813,0 -0.691406,-0.308594 -0.691406,-0.691406 v -1.921875 c 0,-0.382813 0.308593,-0.691406 0.691406,-0.691406 z m 0,0"
       id="path76" />
    <path
       inkscape:connector-curvature="0"
       style="fill:#ffa623;fill-opacity:0.99576302;fill-rule:nonzero;stroke:none"
       d="m 37.734375,53.417969 h 1.261719 c 0.382812,0 0.691406,0.308593 0.691406,0.691406 v 1.921875 c 0,0.382812 -0.308594,0.691406 -0.691406,0.691406 h -1.261719 c -0.382813,0 -0.691406,-0.308594 -0.691406,-0.691406 v -1.921875 c 0,-0.382813 0.308593,-0.691406 0.691406,-0.691406 z m 0,0"
       id="path78" />
    <path
       inkscape:connector-curvature="0"
       style="fill:#ffa623;fill-opacity:0.99576302;fill-rule:nonzero;stroke:none"
       d="m 29.796875,53.417969 h 1.261719 c 0.382812,0 0.691406,0.308593 0.691406,0.691406 v 1.921875 c 0,0.382812 -0.308594,0.691406 -0.691406,0.691406 h -1.261719 c -0.382813,0 -0.691406,-0.308594 -0.691406,-0.691406 v -1.921875 c 0,-0.382813 0.308593,-0.691406 0.691406,-0.691406 z m 0,0"
       id="path80" />
    <path
       inkscape:connector-curvature="0"
       style="fill:#ffa623;fill-opacity:0.99576302;fill-rule:nonzero;stroke:none"
       d="m 25.828125,53.417969 h 1.261719 c 0.382812,0 0.691406,0.308593 0.691406,0.691406 v 1.921875 c 0,0.382812 -0.308594,0.691406 -0.691406,0.691406 h -1.261719 c -0.382813,0 -0.691406,-0.308594 -0.691406,-0.691406 v -1.921875 c 0,-0.382813 0.308593,-0.691406 0.691406,-0.691406 z m 0,0"
       id="path82" />
    <path
       inkscape:connector-curvature="0"
       style="fill:#ffa623;fill-opacity:0.99576302;fill-rule:nonzero;stroke:none"
       d="m 21.859375,53.417969 h 1.261719 c 0.382812,0 0.691406,0.308593 0.691406,0.691406 v 1.921875 c 0,0.382812 -0.308594,0.691406 -0.691406,0.691406 h -1.261719 c -0.382813,0 -0.691406,-0.308594 -0.691406,-0.691406 v -1.921875 c 0,-0.382813 0.308593,-0.691406 0.691406,-0.691406 z m 0,0"
       id="path84" />
    <path
       inkscape:connector-curvature="0"
       style="fill:#ffa623;fill-opacity:0.99576302;fill-rule:nonzero;stroke:none"
       d="m 33.765625,53.417969 h 1.261719 c 0.382812,0 0.691406,0.308593 0.691406,0.691406 v 1.921875 c 0,0.382812 -0.308594,0.691406 -0.691406,0.691406 h -1.261719 c -0.382813,0 -0.691406,-0.308594 -0.691406,-0.691406 v -1.921875 c 0,-0.382813 0.308593,-0.691406 0.691406,-0.691406 z m 0,0"
       id="path86" />
    <path
       inkscape:connector-curvature="0"
       style="fill:#ffa623;fill-opacity:0.99576302;fill-rule:nonzero;stroke:none"
       d="m 45.671875,53.417969 h 1.261719 c 0.382812,0 0.691406,0.308593 0.691406,0.691406 v 1.921875 c 0,0.382812 -0.308594,0.691406 -0.691406,0.691406 h -1.261719 c -0.382813,0 -0.691406,-0.308594 -0.691406,-0.691406 v -1.921875 c 0,-0.382813 0.308593,-0.691406 0.691406,-0.691406 z m 0,0"
       id="path88" />
    <path
       inkscape:connector-curvature="0"
       style="fill:#b0bdc5;fill-opacity:1;fill-rule:nonzero;stroke:none"
       d="m 46.300781,32.25 c 8.039063,0 14.554688,6.515625 14.554688,14.550781 0,8.039063 -6.515625,14.554688 -14.554688,14.554688 C 38.265625,61.355469 31.75,54.839844 31.75,46.800781 31.75,38.765625 38.265625,32.25 46.300781,32.25 Z m 0,0"
       id="path90" />
    <path
       inkscape:connector-curvature="0"
       style="fill:#b0bdc5;fill-opacity:1;fill-rule:nonzero;stroke:none"
       d="m 39.6875,4.46875 h 13.230469 v 31.75 H 39.6875 Z m 0,0"
       id="path92" />
    <path
       inkscape:connector-curvature="0"
       style="fill:#ee514f;fill-opacity:1;fill-rule:nonzero;stroke:none"
       d="m 46.300781,34.894531 c 6.578125,0 11.90625,5.332031 11.90625,11.90625 0,6.578125 -5.328125,11.90625 -11.90625,11.90625 -6.574219,0 -11.90625,-5.328125 -11.90625,-11.90625 0,-6.574219 5.332031,-11.90625 11.90625,-11.90625 z m 0,0"
       id="path94" />
    <path
       inkscape:connector-curvature="0"
       style="fill:#cfd7dc;fill-opacity:1;fill-rule:nonzero;stroke:none"
       d="m 39.6875,3.144531 h 13.230469 c 0.730469,0 1.320312,0.59375 1.320312,1.324219 0,0.730469 -0.589843,1.324219 -1.320312,1.324219 H 39.6875 c -0.730469,0 -1.324219,-0.59375 -1.324219,-1.324219 0,-0.730469 0.59375,-1.324219 1.324219,-1.324219 z m 0,0"
       id="path96" />
    <path
       inkscape:connector-curvature="0"
       style="fill:#ee514f;fill-opacity:1;fill-rule:nonzero;stroke:none"
       d="m 42.332031,30.925781 h 7.9375 v 6.617188 h -7.9375 z m 0,0"
       id="path98" />
    <path
       inkscape:connector-curvature="0"
       style="fill:#66ba68;fill-opacity:1;fill-rule:nonzero;stroke:none"
       d="m 42.332031,5.792969 h 7.9375 v 13.226562 h -7.9375 z m 0,0"
       id="path100" />
    <path
       inkscape:connector-curvature="0"
       style="fill:#ffa623;fill-opacity:1;fill-rule:nonzero;stroke:none"
       d="m 42.332031,19.019531 h 7.9375 v 11.90625 h -7.9375 z m 0,0"
       id="path102" />
  </g>
</svg>
