<?xml version="1.0" encoding="UTF-8" standalone="no"?>
<svg
   xmlns:dc="http://purl.org/dc/elements/1.1/"
   xmlns:cc="http://creativecommons.org/ns#"
   xmlns:rdf="http://www.w3.org/1999/02/22-rdf-syntax-ns#"
   xmlns:svg="http://www.w3.org/2000/svg"
   xmlns="http://www.w3.org/2000/svg"
   xmlns:sodipodi="http://sodipodi.sourceforge.net/DTD/sodipodi-0.dtd"
   xmlns:inkscape="http://www.inkscape.org/namespaces/inkscape"
   width="48"
   height="48"
   viewBox="0 0 48 48"
   version="1.1"
   id="svg21"
   sodipodi:docname="indicator-cpufreq.svg"
   inkscape:version="0.92.4 (5da689c313, 2019-01-14)">
  <metadata
     id="metadata27">
    <rdf:RDF>
      <cc:Work
         rdf:about="">
        <dc:format>image/svg+xml</dc:format>
        <dc:type
           rdf:resource="http://purl.org/dc/dcmitype/StillImage" />
        <dc:title></dc:title>
      </cc:Work>
    </rdf:RDF>
  </metadata>
  <defs
     id="defs25" />
  <sodipodi:namedview
     pagecolor="#ffffff"
     bordercolor="#666666"
     borderopacity="1"
     objecttolerance="10"
     gridtolerance="10"
     guidetolerance="10"
     inkscape:pageopacity="0"
     inkscape:pageshadow="2"
     inkscape:window-width="1280"
     inkscape:window-height="954"
     id="namedview23"
     showgrid="false"
     inkscape:zoom="3.6875"
     inkscape:cx="27.254237"
     inkscape:cy="32"
     inkscape:window-x="0"
     inkscape:window-y="0"
     inkscape:window-maximized="1"
     inkscape:current-layer="svg21" />
  <g
     id="surface1"
     transform="matrix(0.72513757,0,0,0.72513757,0.97688215,0.61431337)">
    <path
       style="fill:#bdbdbd;fill-opacity:1;fill-rule:nonzero;stroke:none"
       d="m 10.582031,3.144531 c -0.730469,0 -1.320312,0.589844 -1.320312,1.324219 V 9.761719 H 3.96875 c -0.734375,0 -1.324219,0.589843 -1.324219,1.320312 0,0.734375 0.589844,1.324219 1.324219,1.324219 h 5.292969 v 2.644531 H 3.96875 c -0.734375,0 -1.324219,0.589844 -1.324219,1.324219 0,0.734375 0.589844,1.324219 1.324219,1.324219 H 9.261719 V 20.34375 H 3.96875 c -0.734375,0 -1.324219,0.589844 -1.324219,1.324219 0,0.730469 0.589844,1.320312 1.324219,1.320312 h 5.292969 v 2.648438 H 3.96875 c -0.734375,0 -1.324219,0.589843 -1.324219,1.320312 0,0.734375 0.589844,1.324219 1.324219,1.324219 h 5.292969 v 2.644531 H 3.96875 c -0.734375,0 -1.324219,0.589844 -1.324219,1.324219 0,0.734375 0.589844,1.324219 1.324219,1.324219 H 9.261719 V 36.21875 H 3.96875 c -0.734375,0 -1.324219,0.589844 -1.324219,1.324219 0,0.730469 0.589844,1.320312 1.324219,1.320312 h 5.292969 v 2.648438 H 3.96875 c -0.734375,0 -1.324219,0.589843 -1.324219,1.320312 0,0.734375 0.589844,1.324219 1.324219,1.324219 h 5.292969 v 2.644531 H 3.96875 c -0.734375,0 -1.324219,0.589844 -1.324219,1.324219 0,0.734375 0.589844,1.324219 1.324219,1.324219 H 9.261719 V 52.09375 H 3.96875 c -0.734375,0 -1.324219,0.589844 -1.324219,1.324219 0,0.730469 0.589844,1.320312 1.324219,1.320312 h 5.292969 v 5.292969 c 0,0.734375 0.589843,1.324219 1.320312,1.324219 0.734375,0 1.324219,-0.589844 1.324219,-1.324219 v -5.292969 h 2.644531 v 5.292969 c 0,0.734375 0.589844,1.324219 1.324219,1.324219 0.734375,0 1.324219,-0.589844 1.324219,-1.324219 v -5.292969 h 2.644531 v 5.292969 c 0,0.734375 0.589844,1.324219 1.324219,1.324219 0.730469,0 1.320312,-0.589844 1.320312,-1.324219 v -5.292969 h 2.648438 v 5.292969 c 0,0.734375 0.589843,1.324219 1.320312,1.324219 0.734375,0 1.324219,-0.589844 1.324219,-1.324219 v -5.292969 h 2.644531 v 5.292969 c 0,0.734375 0.589844,1.324219 1.324219,1.324219 0.734375,0 1.324219,-0.589844 1.324219,-1.324219 v -5.292969 h 2.644531 v 5.292969 c 0,0.734375 0.589844,1.324219 1.324219,1.324219 0.730469,0 1.320312,-0.589844 1.320312,-1.324219 v -5.292969 h 2.648438 v 5.292969 c 0,0.734375 0.589843,1.324219 1.320312,1.324219 0.734375,0 1.324219,-0.589844 1.324219,-1.324219 v -5.292969 h 2.644531 v 5.292969 c 0,0.734375 0.589844,1.324219 1.324219,1.324219 0.734375,0 1.324219,-0.589844 1.324219,-1.324219 v -5.292969 h 2.644531 v 5.292969 c 0,0.734375 0.589844,1.324219 1.324219,1.324219 0.730469,0 1.320312,-0.589844 1.320312,-1.324219 v -5.292969 h 5.292969 c 0.734375,0 1.324219,-0.589843 1.324219,-1.320312 0,-0.734375 -0.589844,-1.324219 -1.324219,-1.324219 h -5.292969 v -2.644531 h 5.292969 c 0.734375,0 1.324219,-0.589844 1.324219,-1.324219 0,-0.734375 -0.589844,-1.324219 -1.324219,-1.324219 H 54.238281 V 44.15625 h 5.292969 c 0.734375,0 1.324219,-0.589844 1.324219,-1.324219 0,-0.730469 -0.589844,-1.320312 -1.324219,-1.320312 h -5.292969 v -2.648438 h 5.292969 c 0.734375,0 1.324219,-0.589843 1.324219,-1.320312 0,-0.734375 -0.589844,-1.324219 -1.324219,-1.324219 h -5.292969 v -2.644531 h 5.292969 c 0.734375,0 1.324219,-0.589844 1.324219,-1.324219 0,-0.734375 -0.589844,-1.324219 -1.324219,-1.324219 H 54.238281 V 28.28125 h 5.292969 c 0.734375,0 1.324219,-0.589844 1.324219,-1.324219 0,-0.730469 -0.589844,-1.320312 -1.324219,-1.320312 h -5.292969 v -2.648438 h 5.292969 c 0.734375,0 1.324219,-0.589843 1.324219,-1.320312 0,-0.734375 -0.589844,-1.324219 -1.324219,-1.324219 h -5.292969 v -2.644531 h 5.292969 c 0.734375,0 1.324219,-0.589844 1.324219,-1.324219 0,-0.734375 -0.589844,-1.324219 -1.324219,-1.324219 H 54.238281 V 12.40625 h 5.292969 c 0.734375,0 1.324219,-0.589844 1.324219,-1.324219 0,-0.730469 -0.589844,-1.320312 -1.324219,-1.320312 H 54.238281 V 4.46875 c 0,-0.734375 -0.589843,-1.324219 -1.320312,-1.324219 -0.734375,0 -1.324219,0.589844 -1.324219,1.324219 V 9.761719 H 48.949219 V 4.46875 c 0,-0.734375 -0.589844,-1.324219 -1.324219,-1.324219 -0.734375,0 -1.324219,0.589844 -1.324219,1.324219 V 9.761719 H 43.65625 V 4.46875 c 0,-0.734375 -0.589844,-1.324219 -1.324219,-1.324219 -0.730469,0 -1.320312,0.589844 -1.320312,1.324219 V 9.761719 H 38.363281 V 4.46875 c 0,-0.734375 -0.589843,-1.324219 -1.320312,-1.324219 -0.734375,0 -1.324219,0.589844 -1.324219,1.324219 V 9.761719 H 33.074219 V 4.46875 c 0,-0.734375 -0.589844,-1.324219 -1.324219,-1.324219 -0.734375,0 -1.324219,0.589844 -1.324219,1.324219 V 9.761719 H 27.78125 V 4.46875 c 0,-0.734375 -0.589844,-1.324219 -1.324219,-1.324219 -0.730469,0 -1.320312,0.589844 -1.320312,1.324219 V 9.761719 H 22.488281 V 4.46875 c 0,-0.734375 -0.589843,-1.324219 -1.320312,-1.324219 -0.734375,0 -1.324219,0.589844 -1.324219,1.324219 V 9.761719 H 17.199219 V 4.46875 c 0,-0.734375 -0.589844,-1.324219 -1.324219,-1.324219 -0.734375,0 -1.324219,0.589844 -1.324219,1.324219 V 9.761719 H 11.90625 V 4.46875 c 0,-0.734375 -0.589844,-1.324219 -1.324219,-1.324219 z m 1.324219,9.261719 h 2.644531 v 2.644531 H 11.90625 Z m 5.292969,0 h 2.644531 v 2.644531 h -2.644531 z m 5.289062,0 h 2.648438 v 2.644531 h -2.648438 z m 5.292969,0 h 2.644531 v 2.644531 H 27.78125 Z m 5.292969,0 h 2.644531 v 2.644531 h -2.644531 z m 5.289062,0 h 2.648438 v 2.644531 h -2.648438 z m 5.292969,0 h 2.644531 v 2.644531 H 43.65625 Z m 5.292969,0 h 2.644531 v 2.644531 H 48.949219 Z M 11.90625,17.699219 h 2.644531 V 20.34375 H 11.90625 Z m 5.292969,0 h 2.644531 v 2.644531 h -2.644531 z m 5.289062,0 h 2.648438 v 2.644531 h -2.648438 z m 5.292969,0 h 2.644531 V 20.34375 H 27.78125 Z m 5.292969,0 h 2.644531 v 2.644531 h -2.644531 z m 5.289062,0 h 2.648438 v 2.644531 h -2.648438 z m 5.292969,0 h 2.644531 V 20.34375 H 43.65625 Z m 5.292969,0 H 51.59375 V 20.34375 H 48.949219 Z M 11.90625,22.988281 h 2.644531 v 2.648438 H 11.90625 Z m 5.292969,0 h 2.644531 v 2.648438 h -2.644531 z m 5.289062,0 h 2.648438 v 2.648438 h -2.648438 z m 5.292969,0 h 2.644531 v 2.648438 H 27.78125 Z m 5.292969,0 h 2.644531 v 2.648438 h -2.644531 z m 5.289062,0 h 2.648438 v 2.648438 h -2.648438 z m 5.292969,0 h 2.644531 v 2.648438 H 43.65625 Z m 5.292969,0 h 2.644531 v 2.648438 H 48.949219 Z M 11.90625,28.28125 h 2.644531 v 2.644531 H 11.90625 Z m 5.292969,0 h 2.644531 v 2.644531 h -2.644531 z m 5.289062,0 h 2.648438 v 2.644531 h -2.648438 z m 5.292969,0 h 2.644531 v 2.644531 H 27.78125 Z m 5.292969,0 h 2.644531 v 2.644531 h -2.644531 z m 5.289062,0 h 2.648438 v 2.644531 h -2.648438 z m 5.292969,0 h 2.644531 v 2.644531 H 43.65625 Z m 5.292969,0 h 2.644531 v 2.644531 H 48.949219 Z M 11.90625,33.574219 h 2.644531 V 36.21875 H 11.90625 Z m 5.292969,0 h 2.644531 v 2.644531 h -2.644531 z m 5.289062,0 h 2.648438 v 2.644531 h -2.648438 z m 5.292969,0 h 2.644531 V 36.21875 H 27.78125 Z m 5.292969,0 h 2.644531 v 2.644531 h -2.644531 z m 5.289062,0 h 2.648438 v 2.644531 h -2.648438 z m 5.292969,0 h 2.644531 V 36.21875 H 43.65625 Z m 5.292969,0 H 51.59375 V 36.21875 H 48.949219 Z M 11.90625,38.863281 h 2.644531 v 2.648438 H 11.90625 Z m 5.292969,0 h 2.644531 v 2.648438 h -2.644531 z m 5.289062,0 h 2.648438 v 2.648438 h -2.648438 z m 5.292969,0 h 2.644531 v 2.648438 H 27.78125 Z m 5.292969,0 h 2.644531 v 2.648438 h -2.644531 z m 5.289062,0 h 2.648438 v 2.648438 h -2.648438 z m 5.292969,0 h 2.644531 v 2.648438 H 43.65625 Z m 5.292969,0 h 2.644531 v 2.648438 H 48.949219 Z M 11.90625,44.15625 h 2.644531 v 2.644531 H 11.90625 Z m 5.292969,0 h 2.644531 v 2.644531 h -2.644531 z m 5.289062,0 h 2.648438 v 2.644531 h -2.648438 z m 5.292969,0 h 2.644531 v 2.644531 H 27.78125 Z m 5.292969,0 h 2.644531 v 2.644531 h -2.644531 z m 5.289062,0 h 2.648438 v 2.644531 h -2.648438 z m 5.292969,0 h 2.644531 v 2.644531 H 43.65625 Z m 5.292969,0 h 2.644531 v 2.644531 H 48.949219 Z M 11.90625,49.449219 h 2.644531 V 52.09375 H 11.90625 Z m 5.292969,0 h 2.644531 v 2.644531 h -2.644531 z m 5.289062,0 h 2.648438 v 2.644531 h -2.648438 z m 5.292969,0 h 2.644531 V 52.09375 H 27.78125 Z m 5.292969,0 h 2.644531 v 2.644531 h -2.644531 z m 5.289062,0 h 2.648438 v 2.644531 h -2.648438 z m 5.292969,0 h 2.644531 V 52.09375 H 43.65625 Z m 5.292969,0 h 2.644531 v 2.644531 h -2.644531 z m 0,0"
       id="path2"
       inkscape:connector-curvature="0" />
    <path
       style="fill:#3f3f3f;fill-opacity:1;fill-rule:nonzero;stroke:none"
       d="m 7.9375,5.792969 h 47.625 c 1.460938,0 2.644531,1.183593 2.644531,2.644531 v 47.625 c 0,1.460938 -1.183593,2.644531 -2.644531,2.644531 H 7.9375 c -1.460938,0 -2.644531,-1.183593 -2.644531,-2.644531 V 8.4375 c 0,-1.460938 1.183593,-2.644531 2.644531,-2.644531 z m 0,0"
       id="path4"
       inkscape:connector-curvature="0" />
    <path
       style="fill:#b0bdc5;fill-opacity:1;fill-rule:nonzero;stroke:none"
       d="m 31.75,25.636719 c 8.035156,0 14.550781,6.515625 14.550781,14.550781 0,8.035156 -6.515625,14.550781 -14.550781,14.550781 -8.035156,0 -14.550781,-6.515625 -14.550781,-14.550781 0,-8.035156 6.515625,-14.550781 14.550781,-14.550781 z m 0,0"
       id="path6"
       inkscape:connector-curvature="0" />
    <path
       style="fill:#b0bdc5;fill-opacity:1;fill-rule:nonzero;stroke:none"
       d="M 25.136719,11.082031 H 38.363281 V 36.21875 H 25.136719 Z m 0,0"
       id="path8"
       inkscape:connector-curvature="0" />
    <path
       style="fill:#ffa623;fill-opacity:1;fill-rule:nonzero;stroke:none"
       d="m 27.78125,19.019531 h 7.9375 v 11.90625 h -7.9375 z m 0,0"
       id="path10"
       inkscape:connector-curvature="0" />
    <path
       style="fill:#ee514f;fill-opacity:1;fill-rule:nonzero;stroke:none"
       d="m 31.75,28.28125 c 6.574219,0 11.90625,5.332031 11.90625,11.90625 0,6.574219 -5.332031,11.90625 -11.90625,11.90625 -6.574219,0 -11.90625,-5.332031 -11.90625,-11.90625 0,-6.574219 5.332031,-11.90625 11.90625,-11.90625 z m 0,0"
       id="path12"
       inkscape:connector-curvature="0" />
    <path
       style="fill:#cfd7dc;fill-opacity:1;fill-rule:nonzero;stroke:none"
       d="m 25.136719,8.4375 h 13.226562 c 0.730469,0 1.324219,0.59375 1.324219,1.324219 0,0.730469 -0.59375,1.320312 -1.324219,1.320312 H 25.136719 c -0.730469,0 -1.324219,-0.589843 -1.324219,-1.320312 0,-0.730469 0.59375,-1.324219 1.324219,-1.324219 z m 0,0"
       id="path14"
       inkscape:connector-curvature="0" />
    <path
       style="fill:#66ba68;fill-opacity:1;fill-rule:nonzero;stroke:none"
       d="m 27.78125,11.082031 h 7.9375 v 7.9375 h -7.9375 z m 0,0"
       id="path16"
       inkscape:connector-curvature="0" />
    <path
       style="fill:#ee514f;fill-opacity:1;fill-rule:nonzero;stroke:none"
       d="m 27.78125,26.957031 h 7.9375 v 6.617188 h -7.9375 z m 0,0"
       id="path18"
       inkscape:connector-curvature="0" />
  </g>
</svg>
