<?xml version="1.0" encoding="UTF-8" standalone="no"?>
<svg
   xmlns:dc="http://purl.org/dc/elements/1.1/"
   xmlns:cc="http://creativecommons.org/ns#"
   xmlns:rdf="http://www.w3.org/1999/02/22-rdf-syntax-ns#"
   xmlns:svg="http://www.w3.org/2000/svg"
   xmlns="http://www.w3.org/2000/svg"
   xmlns:sodipodi="http://sodipodi.sourceforge.net/DTD/sodipodi-0.dtd"
   xmlns:inkscape="http://www.inkscape.org/namespaces/inkscape"
   width="48"
   height="48"
   viewBox="0 0 48 48"
   version="1.1"
   id="svg25"
   sodipodi:docname="internet-mail.svg"
   inkscape:version="0.92.4 (5da689c313, 2019-01-14)">
  <metadata
     id="metadata31">
    <rdf:RDF>
      <cc:Work
         rdf:about="">
        <dc:format>image/svg+xml</dc:format>
        <dc:type
           rdf:resource="http://purl.org/dc/dcmitype/StillImage" />
        <dc:title></dc:title>
      </cc:Work>
    </rdf:RDF>
  </metadata>
  <defs
     id="defs29" />
  <sodipodi:namedview
     pagecolor="#ffffff"
     bordercolor="#666666"
     borderopacity="1"
     objecttolerance="10"
     gridtolerance="10"
     guidetolerance="10"
     inkscape:pageopacity="0"
     inkscape:pageshadow="2"
     inkscape:window-width="1280"
     inkscape:window-height="954"
     id="namedview27"
     showgrid="false"
     inkscape:zoom="3.6875"
     inkscape:cx="27.254237"
     inkscape:cy="32"
     inkscape:window-x="0"
     inkscape:window-y="0"
     inkscape:window-maximized="1"
     inkscape:current-layer="svg25" />
  <g
     id="surface1"
     transform="matrix(0.73349816,0,0,0.73349816,0.71143342,0.34468434)">
    <path
       style="fill:#3847ab;fill-opacity:1;fill-rule:nonzero;stroke:none"
       d="m 5.292969,16.375 h 52.914062 c 1.460938,0 2.648438,1.183594 2.648438,2.644531 V 56.0625 c 0,1.460938 -1.1875,2.644531 -2.648438,2.644531 H 5.292969 c -1.460938,0 -2.648438,-1.183593 -2.648438,-2.644531 V 19.019531 c 0,-1.460937 1.1875,-2.644531 2.648438,-2.644531 z m 0,0"
       id="path2"
       inkscape:connector-curvature="0" />
    <path
       style="fill:#eeeeee;fill-opacity:0.99576302;fill-rule:nonzero;stroke:none"
       d="m 10.582031,5.792969 h 42.335938 c 1.460937,0 2.644531,1.183593 2.644531,2.644531 v 31.75 c 0,1.460938 -1.183594,2.644531 -2.644531,2.644531 H 10.582031 C 9.121094,42.832031 7.9375,41.648438 7.9375,40.1875 v -31.75 c 0,-1.460938 1.183594,-2.644531 2.644531,-2.644531 z m 0,0"
       id="path4"
       inkscape:connector-curvature="0" />
    <path
       style="fill:#5c68bf;fill-opacity:1;fill-rule:nonzero;stroke:none"
       d="M 31.75,37.542969 3.601562,58.101562 c 0.457032,0.378907 1.046876,0.605469 1.691407,0.605469 h 52.914062 c 0.644531,0 1.234375,-0.226562 1.691407,-0.605469 z m 0,0"
       id="path6"
       inkscape:connector-curvature="0" />
    <path
       style="fill:#3f3f3f;fill-opacity:1;fill-rule:nonzero;stroke:none"
       d="m 15.214844,21.667969 h 33.070312 c 0.367188,0 0.664063,0.292969 0.664063,0.660156 0,0.367187 -0.296875,0.660156 -0.664063,0.660156 H 15.214844 c -0.367188,0 -0.664063,-0.292969 -0.664063,-0.660156 0,-0.367187 0.296875,-0.660156 0.664063,-0.660156 z m 0,0"
       id="path8"
       inkscape:connector-curvature="0" />
    <path
       style="fill:#3f3f3f;fill-opacity:1;fill-rule:nonzero;stroke:none"
       d="m 15.214844,33.574219 h 33.070312 c 0.367188,0 0.664063,0.292969 0.664063,0.660156 0,0.367187 -0.296875,0.660156 -0.664063,0.660156 H 15.214844 c -0.367188,0 -0.664063,-0.292969 -0.664063,-0.660156 0,-0.367187 0.296875,-0.660156 0.664063,-0.660156 z m 0,0"
       id="path10"
       inkscape:connector-curvature="0" />
    <path
       style="fill:#3f3f3f;fill-opacity:1;fill-rule:nonzero;stroke:none"
       d="m 15.214844,25.636719 h 33.070312 c 0.367188,0 0.664063,0.292969 0.664063,0.660156 0,0.367187 -0.296875,0.660156 -0.664063,0.660156 H 15.214844 c -0.367188,0 -0.664063,-0.292969 -0.664063,-0.660156 0,-0.367187 0.296875,-0.660156 0.664063,-0.660156 z m 0,0"
       id="path12"
       inkscape:connector-curvature="0" />
    <path
       style="fill:#3f3f3f;fill-opacity:1;fill-rule:nonzero;stroke:none"
       d="m 15.214844,29.605469 h 33.070312 c 0.367188,0 0.664063,0.292969 0.664063,0.660156 0,0.367187 -0.296875,0.660156 -0.664063,0.660156 H 15.214844 c -0.367188,0 -0.664063,-0.292969 -0.664063,-0.660156 0,-0.367187 0.296875,-0.660156 0.664063,-0.660156 z m 0,0"
       id="path14"
       inkscape:connector-curvature="0" />
    <path
       style="fill:#7885ca;fill-opacity:1;fill-rule:nonzero;stroke:none"
       d="M 3.5,17.074219 C 2.972656,17.554688 2.644531,18.25 2.644531,19.019531 V 56.0625 c 0,0.820312 0.371094,1.554688 0.957031,2.039062 L 31.75,37.542969 Z m 0,0"
       id="path16"
       inkscape:connector-curvature="0" />
    <path
       style="fill:#7885ca;fill-opacity:1;fill-rule:nonzero;stroke:none"
       d="m 60,17.074219 c 0.527344,0.480469 0.855469,1.175781 0.855469,1.945312 V 56.0625 c 0,0.820312 -0.371094,1.554688 -0.957031,2.039062 L 31.75,37.542969 Z m 0,0"
       id="path18"
       inkscape:connector-curvature="0" />
    <path
       style="fill:#3f3f3f;fill-opacity:1;fill-rule:nonzero;stroke:none"
       d="m 15.214844,13.730469 h 33.070312 c 0.367188,0 0.664063,0.292969 0.664063,0.660156 0,0.367187 -0.296875,0.660156 -0.664063,0.660156 H 15.214844 c -0.367188,0 -0.664063,-0.292969 -0.664063,-0.660156 0,-0.367187 0.296875,-0.660156 0.664063,-0.660156 z m 0,0"
       id="path20"
       inkscape:connector-curvature="0" />
    <path
       style="fill:#3f3f3f;fill-opacity:1;fill-rule:nonzero;stroke:none"
       d="m 15.214844,17.699219 h 33.070312 c 0.367188,0 0.664063,0.292969 0.664063,0.660156 0,0.367187 -0.296875,0.660156 -0.664063,0.660156 H 15.214844 c -0.367188,0 -0.664063,-0.292969 -0.664063,-0.660156 0,-0.367187 0.296875,-0.660156 0.664063,-0.660156 z m 0,0"
       id="path22"
       inkscape:connector-curvature="0" />
  </g>
</svg>
