<?xml version="1.0" encoding="UTF-8" standalone="no"?>
<svg
   xmlns:dc="http://purl.org/dc/elements/1.1/"
   xmlns:cc="http://creativecommons.org/ns#"
   xmlns:rdf="http://www.w3.org/1999/02/22-rdf-syntax-ns#"
   xmlns:svg="http://www.w3.org/2000/svg"
   xmlns="http://www.w3.org/2000/svg"
   xmlns:sodipodi="http://sodipodi.sourceforge.net/DTD/sodipodi-0.dtd"
   xmlns:inkscape="http://www.inkscape.org/namespaces/inkscape"
   width="48"
   height="48"
   viewBox="0 0 48 48"
   version="1.1"
   id="svg31"
   sodipodi:docname="kompare.svg"
   inkscape:version="0.92.4 (5da689c313, 2019-01-14)">
  <metadata
     id="metadata37">
    <rdf:RDF>
      <cc:Work
         rdf:about="">
        <dc:format>image/svg+xml</dc:format>
        <dc:type
           rdf:resource="http://purl.org/dc/dcmitype/StillImage" />
        <dc:title></dc:title>
      </cc:Work>
    </rdf:RDF>
  </metadata>
  <defs
     id="defs35" />
  <sodipodi:namedview
     pagecolor="#ffffff"
     bordercolor="#666666"
     borderopacity="1"
     objecttolerance="10"
     gridtolerance="10"
     guidetolerance="10"
     inkscape:pageopacity="0"
     inkscape:pageshadow="2"
     inkscape:window-width="1280"
     inkscape:window-height="954"
     id="namedview33"
     showgrid="false"
     inkscape:zoom="3.6875"
     inkscape:cx="27.254237"
     inkscape:cy="32"
     inkscape:window-x="0"
     inkscape:window-y="0"
     inkscape:window-maximized="1"
     inkscape:current-layer="svg31" />
  <g
     id="surface1"
     transform="matrix(0.72047888,0,0,0.72047888,1.1247956,0.76455612)">
    <path
       style="fill:#dedede;fill-opacity:1;fill-rule:nonzero;stroke:none"
       d="m 10.582031,3.144531 h 42.335938 c 1.460937,0 2.644531,1.1875 2.644531,2.648438 V 40.1875 c 0,1.460938 -1.183594,2.644531 -2.644531,2.644531 H 10.582031 C 9.121094,42.832031 7.9375,41.648438 7.9375,40.1875 V 5.792969 c 0,-1.460938 1.183594,-2.648438 2.644531,-2.648438 z m 0,0"
       id="path2"
       inkscape:connector-curvature="0" />
    <path
       style="fill:#eeeeee;fill-opacity:1;fill-rule:nonzero;stroke:none"
       d="m 5.292969,40.1875 h 52.914062 c 1.460938,0 2.648438,1.183594 2.648438,2.644531 v 15.875 c 0,1.460938 -1.1875,2.648438 -2.648438,2.648438 H 5.292969 c -1.460938,0 -2.648438,-1.1875 -2.648438,-2.648438 v -15.875 c 0,-1.460937 1.1875,-2.644531 2.648438,-2.644531 z m 0,0"
       id="path4"
       inkscape:connector-curvature="0" />
    <path
       style="fill:#23a699;fill-opacity:1;fill-rule:nonzero;stroke:none"
       d="m 12.566406,7.113281 h 15.875 c 0.367188,0 0.664063,0.296875 0.664063,0.664063 v 1.320312 c 0,0.367188 -0.296875,0.664063 -0.664063,0.664063 h -15.875 c -0.363281,0 -0.660156,-0.296875 -0.660156,-0.664063 V 7.777344 c 0,-0.367188 0.296875,-0.664063 0.660156,-0.664063 z m 0,0"
       id="path6"
       inkscape:connector-curvature="0" />
    <path
       style="fill:#3fa3f5;fill-opacity:1;fill-rule:nonzero;stroke:none"
       d="m 35.058594,7.113281 h 15.875 c 0.363281,0 0.660156,0.296875 0.660156,0.664063 v 1.320312 c 0,0.367188 -0.296875,0.664063 -0.660156,0.664063 h -15.875 c -0.367188,0 -0.664063,-0.296875 -0.664063,-0.664063 V 7.777344 c 0,-0.367188 0.296875,-0.664063 0.664063,-0.664063 z m 0,0"
       id="path8"
       inkscape:connector-curvature="0" />
    <path
       style="fill:#23a699;fill-opacity:1;fill-rule:nonzero;stroke:none"
       d="m 7.9375,52.09375 c 0,-0.734375 0.589844,-1.324219 1.324219,-1.324219 h 15.875 v -3.96875 l 7.9375,6.617188 -7.9375,6.613281 V 56.0625 h -15.875 C 8.527344,56.0625 7.9375,55.472656 7.9375,54.738281 Z m 0,0"
       id="path10"
       inkscape:connector-curvature="0" />
    <path
       style="fill:#9c9c9c;fill-opacity:1;fill-rule:nonzero;stroke:none"
       d="m 12.566406,13.730469 h 15.875 c 0.367188,0 0.664063,0.292969 0.664063,0.660156 v 1.324219 c 0,0.363281 -0.296875,0.660156 -0.664063,0.660156 h -15.875 c -0.363281,0 -0.660156,-0.296875 -0.660156,-0.660156 v -1.324219 c 0,-0.367187 0.296875,-0.660156 0.660156,-0.660156 z m 0,0"
       id="path12"
       inkscape:connector-curvature="0" />
    <path
       style="fill:#9c9c9c;fill-opacity:1;fill-rule:nonzero;stroke:none"
       d="m 35.058594,13.730469 h 15.875 c 0.363281,0 0.660156,0.292969 0.660156,0.660156 v 1.324219 c 0,0.363281 -0.296875,0.660156 -0.660156,0.660156 h -15.875 c -0.367188,0 -0.664063,-0.296875 -0.664063,-0.660156 v -1.324219 c 0,-0.367187 0.296875,-0.660156 0.664063,-0.660156 z m 0,0"
       id="path14"
       inkscape:connector-curvature="0" />
    <path
       style="fill:#9c9c9c;fill-opacity:1;fill-rule:nonzero;stroke:none"
       d="m 12.566406,20.34375 h 15.875 c 0.367188,0 0.664063,0.296875 0.664063,0.660156 v 1.324219 c 0,0.367187 -0.296875,0.660156 -0.664063,0.660156 h -15.875 c -0.363281,0 -0.660156,-0.292969 -0.660156,-0.660156 v -1.324219 c 0,-0.363281 0.296875,-0.660156 0.660156,-0.660156 z m 0,0"
       id="path16"
       inkscape:connector-curvature="0" />
    <path
       style="fill:#9c9c9c;fill-opacity:1;fill-rule:nonzero;stroke:none"
       d="m 35.058594,20.34375 h 15.875 c 0.363281,0 0.660156,0.296875 0.660156,0.660156 v 1.324219 c 0,0.367187 -0.296875,0.660156 -0.660156,0.660156 h -15.875 c -0.367188,0 -0.664063,-0.292969 -0.664063,-0.660156 v -1.324219 c 0,-0.363281 0.296875,-0.660156 0.664063,-0.660156 z m 0,0"
       id="path18"
       inkscape:connector-curvature="0" />
    <path
       style="fill:#9c9c9c;fill-opacity:1;fill-rule:nonzero;stroke:none"
       d="m 12.566406,26.957031 h 15.875 c 0.367188,0 0.664063,0.296875 0.664063,0.664063 v 1.320312 c 0,0.367188 -0.296875,0.664063 -0.664063,0.664063 h -15.875 c -0.363281,0 -0.660156,-0.296875 -0.660156,-0.664063 v -1.320312 c 0,-0.367188 0.296875,-0.664063 0.660156,-0.664063 z m 0,0"
       id="path20"
       inkscape:connector-curvature="0" />
    <path
       style="fill:#9c9c9c;fill-opacity:1;fill-rule:nonzero;stroke:none"
       d="m 35.058594,26.957031 h 15.875 c 0.363281,0 0.660156,0.296875 0.660156,0.664063 v 1.320312 c 0,0.367188 -0.296875,0.664063 -0.660156,0.664063 h -15.875 c -0.367188,0 -0.664063,-0.296875 -0.664063,-0.664063 v -1.320312 c 0,-0.367188 0.296875,-0.664063 0.664063,-0.664063 z m 0,0"
       id="path22"
       inkscape:connector-curvature="0" />
    <path
       style="fill:#9c9c9c;fill-opacity:1;fill-rule:nonzero;stroke:none"
       d="m 12.566406,33.574219 h 15.875 c 0.367188,0 0.664063,0.292969 0.664063,0.660156 v 1.324219 c 0,0.363281 -0.296875,0.660156 -0.664063,0.660156 h -15.875 c -0.363281,0 -0.660156,-0.296875 -0.660156,-0.660156 v -1.324219 c 0,-0.367187 0.296875,-0.660156 0.660156,-0.660156 z m 0,0"
       id="path24"
       inkscape:connector-curvature="0" />
    <path
       style="fill:#9c9c9c;fill-opacity:1;fill-rule:nonzero;stroke:none"
       d="m 35.058594,33.574219 h 15.875 c 0.363281,0 0.660156,0.292969 0.660156,0.660156 v 1.324219 c 0,0.363281 -0.296875,0.660156 -0.660156,0.660156 h -15.875 c -0.367188,0 -0.664063,-0.296875 -0.664063,-0.660156 v -1.324219 c 0,-0.367187 0.296875,-0.660156 0.664063,-0.660156 z m 0,0"
       id="path26"
       inkscape:connector-curvature="0" />
    <path
       style="fill:#3fa3f5;fill-opacity:1;fill-rule:nonzero;stroke:none"
       d="m 55.5625,46.800781 c 0,-0.730469 -0.589844,-1.324219 -1.324219,-1.320312 h -15.875 v -3.96875 l -7.9375,6.613281 7.9375,6.613281 v -3.96875 h 15.875 c 0.734375,0 1.324219,-0.589843 1.324219,-1.320312 z m 0,0"
       id="path28"
       inkscape:connector-curvature="0" />
  </g>
</svg>
