<?xml version="1.0" encoding="UTF-8" standalone="no"?>
<svg
   xmlns:dc="http://purl.org/dc/elements/1.1/"
   xmlns:cc="http://creativecommons.org/ns#"
   xmlns:rdf="http://www.w3.org/1999/02/22-rdf-syntax-ns#"
   xmlns:svg="http://www.w3.org/2000/svg"
   xmlns="http://www.w3.org/2000/svg"
   xmlns:sodipodi="http://sodipodi.sourceforge.net/DTD/sodipodi-0.dtd"
   xmlns:inkscape="http://www.inkscape.org/namespaces/inkscape"
   width="48"
   height="48"
   viewBox="0 0 48 48"
   version="1.1"
   id="svg11"
   sodipodi:docname="openvpn.svg"
   inkscape:version="0.92.4 (5da689c313, 2019-01-14)">
  <metadata
     id="metadata17">
    <rdf:RDF>
      <cc:Work
         rdf:about="">
        <dc:format>image/svg+xml</dc:format>
        <dc:type
           rdf:resource="http://purl.org/dc/dcmitype/StillImage" />
        <dc:title></dc:title>
      </cc:Work>
    </rdf:RDF>
  </metadata>
  <defs
     id="defs15" />
  <sodipodi:namedview
     pagecolor="#ffffff"
     bordercolor="#666666"
     borderopacity="1"
     objecttolerance="10"
     gridtolerance="10"
     guidetolerance="10"
     inkscape:pageopacity="0"
     inkscape:pageshadow="2"
     inkscape:window-width="1280"
     inkscape:window-height="954"
     id="namedview13"
     showgrid="false"
     inkscape:zoom="3.6875"
     inkscape:cx="27.254237"
     inkscape:cy="32"
     inkscape:window-x="0"
     inkscape:window-y="0"
     inkscape:window-maximized="1"
     inkscape:current-layer="svg11" />
  <g
     id="surface1"
     transform="matrix(0.72979625,0,0,0.72979625,0.82896906,0.46407094)">
    <path
       style="fill:#eeeeee;fill-opacity:1;fill-rule:nonzero;stroke:none"
       d="m 31.75,4.46875 c 15.34375,0 27.78125,12.4375 27.78125,27.78125 0,15.34375 -12.4375,27.78125 -27.78125,27.78125 C 16.40625,60.03125 3.96875,47.59375 3.96875,32.25 3.96875,16.90625 16.40625,4.46875 31.75,4.46875 Z m 0,0"
       id="path2"
       inkscape:connector-curvature="0" />
    <path
       style="fill:#ff6e42;fill-opacity:1;fill-rule:nonzero;stroke:none"
       d="M 31.75,3.144531 C 15.625,3.144531 2.644531,16.125 2.644531,32.25 c 0,11.761719 6.90625,21.847656 16.898438,26.445312 l 0.757812,-5.542968 C 12.921875,49.117188 7.9375,41.285156 7.9375,32.25 7.9375,19.058594 18.558594,8.4375 31.75,8.4375 c 13.191406,0 23.8125,10.621094 23.8125,23.8125 0,9.035156 -4.984375,16.867188 -12.363281,20.902344 l 0.757812,5.542968 C 53.949219,54.097656 60.855469,44.011719 60.855469,32.25 60.855469,16.125 47.875,3.144531 31.75,3.144531 Z m 0,0"
       id="path4"
       inkscape:connector-curvature="0" />
    <path
       style="fill:#3fa3f5;fill-opacity:1;fill-rule:nonzero;stroke:none"
       d="m 31.75,20.34375 c 6.574219,0 11.90625,5.332031 11.90625,11.90625 0,6.574219 -5.332031,11.90625 -11.90625,11.90625 -6.574219,0 -11.90625,-5.332031 -11.90625,-11.90625 0,-6.574219 5.332031,-11.90625 11.90625,-11.90625 z m 0,0"
       id="path6"
       inkscape:connector-curvature="0" />
    <path
       style="fill:#3fa3f5;fill-opacity:1;fill-rule:nonzero;stroke:none"
       d="m 26.457031,32.25 -3.96875,29.105469 H 41.011719 L 37.042969,32.25 Z m 0,0"
       id="path8"
       inkscape:connector-curvature="0" />
  </g>
</svg>
