<?xml version="1.0" encoding="UTF-8" standalone="no"?>
<svg
   xmlns:dc="http://purl.org/dc/elements/1.1/"
   xmlns:cc="http://creativecommons.org/ns#"
   xmlns:rdf="http://www.w3.org/1999/02/22-rdf-syntax-ns#"
   xmlns:svg="http://www.w3.org/2000/svg"
   xmlns="http://www.w3.org/2000/svg"
   xmlns:sodipodi="http://sodipodi.sourceforge.net/DTD/sodipodi-0.dtd"
   xmlns:inkscape="http://www.inkscape.org/namespaces/inkscape"
   width="48"
   height="48"
   viewBox="0 0 48 48"
   version="1.1"
   id="svg14"
   sodipodi:docname="qemu.svg"
   inkscape:version="0.92.4 (5da689c313, 2019-01-14)">
  <metadata
     id="metadata18">
    <rdf:RDF>
      <cc:Work
         rdf:about="">
        <dc:format>image/svg+xml</dc:format>
        <dc:type
           rdf:resource="http://purl.org/dc/dcmitype/StillImage" />
        <dc:title></dc:title>
      </cc:Work>
    </rdf:RDF>
  </metadata>
  <sodipodi:namedview
     pagecolor="#ffffff"
     bordercolor="#666666"
     borderopacity="1"
     objecttolerance="10"
     gridtolerance="10"
     guidetolerance="10"
     inkscape:pageopacity="0"
     inkscape:pageshadow="2"
     inkscape:window-width="1280"
     inkscape:window-height="954"
     id="namedview16"
     showgrid="false"
     inkscape:zoom="3.6875"
     inkscape:cx="27.254237"
     inkscape:cy="32"
     inkscape:window-x="0"
     inkscape:window-y="0"
     inkscape:window-maximized="1"
     inkscape:current-layer="svg14" />
  <defs
     id="defs7">
    <linearGradient
       id="linear0"
       gradientUnits="userSpaceOnUse"
       x1="31.753048"
       y1="56.067867"
       x2="31.753046"
       y2="3.146122"
       gradientTransform="matrix(1.148584,0,0,1.148584,-6.497351,-3.471998)">
      <stop
         offset="0"
         style="stop-color:rgb(100%,43.921569%,26.274511%);stop-opacity:1;"
         id="stop2" />
      <stop
         offset="1"
         style="stop-color:rgb(100%,54.11765%,39.607844%);stop-opacity:1;"
         id="stop4" />
    </linearGradient>
  </defs>
  <g
     id="surface1"
     transform="matrix(0.73911362,0,0,0.73911362,0.53314257,0.16358575)">
    <path
       style="fill:#3f3f3f;fill-opacity:1;fill-rule:nonzero;stroke:none"
       d="M 31.75,3.144531 C 15.625,3.144531 2.644531,16.125 2.644531,32.25 c 0,16.125 12.980469,29.105469 29.105469,29.105469 5.0625,0 9.8125,-1.28125 13.949219,-3.535157 L 47.625,61.355469 H 60.855469 L 52.347656,52.847656 C 57.609375,47.585938 60.855469,40.3125 60.855469,32.25 60.855469,16.125 47.875,3.144531 31.75,3.144531 Z m 0,0"
       id="path9"
       inkscape:connector-curvature="0" />
    <path
       style="fill:url(#linear0);fill-rule:nonzero;stroke:none"
       d="m 23.933594,12.804688 c -0.02734,0.949218 -2.46875,-1.058594 -1.394532,0.417968 -1.832031,-0.816406 0.140626,1.246094 -0.04297,1.441406 h -0.01172 l -0.136719,-0.01562 c -0.08984,-0.03125 -0.214844,-0.08203 -0.410156,-0.199219 -0.382812,0.304687 -0.65625,0.710937 -0.886719,1.164062 -3.46875,6.007813 -3.617187,11.25 -3.519531,16.992188 0.07422,0.894531 0.292969,1.730469 1.023438,2.296875 5.515624,5.332031 10.71875,12.085937 13.8125,18.527344 C 32.152344,52.039062 31.871094,49.828125 31.738281,48.125 30.5625,42.109375 28.152344,38.933594 27.875,32.210938 c -0.0625,-1.660157 1.726562,-5.019532 3.734375,-6.78125 3.023437,-2.660157 5.210937,-1.992188 9.070313,-1.421876 0.01953,0.0039 0.05078,0.01172 0.07031,0.01563 0.128906,0.01953 0.265625,0.04297 0.394531,0.07031 1.035157,0.08984 3.105469,0.492188 3.472657,-0.21875 -2.523438,-1.019531 -9.53125,-2.707031 -14.34375,-3.644531 -0.09766,-0.08594 -0.203126,-0.175781 -0.300782,-0.242188 5.90625,-0.07031 11.417969,1.632813 16.050782,4.164063 -0.191407,-1.875 -2.199219,-3.390625 -3.753907,-3.941406 C 38.28125,18.804688 38.625,18.621094 36.628906,15.976562 34.375,13.8125 31.339844,12.804688 28.515625,12.804688 c -1.410156,0 -1.410156,-0.355469 -2.820313,-0.707032 -1.394531,-0.542968 -2.722656,0.332032 -3.527343,-0.351562 z m 7.839844,2.617187 c 0.386718,-0.01172 0.820312,0.07422 1.261718,0.265625 1.171875,0.5 1.933594,1.5625 1.707032,2.375 -0.226563,0.808594 -1.359376,1.050781 -2.527344,0.542969 -1.171875,-0.5 -1.933594,-1.550781 -1.710938,-2.359375 0.140625,-0.507813 0.632813,-0.800782 1.269532,-0.824219 z m 0,0"
       id="path11"
       inkscape:connector-curvature="0" />
  </g>
</svg>
