<?xml version="1.0" encoding="UTF-8" standalone="no"?>
<svg
   xmlns:dc="http://purl.org/dc/elements/1.1/"
   xmlns:cc="http://creativecommons.org/ns#"
   xmlns:rdf="http://www.w3.org/1999/02/22-rdf-syntax-ns#"
   xmlns:svg="http://www.w3.org/2000/svg"
   xmlns="http://www.w3.org/2000/svg"
   xmlns:sodipodi="http://sodipodi.sourceforge.net/DTD/sodipodi-0.dtd"
   xmlns:inkscape="http://www.inkscape.org/namespaces/inkscape"
   width="48"
   height="48"
   viewBox="0 0 48 48"
   version="1.1"
   id="svg31"
   sodipodi:docname="qtassistant.svg"
   inkscape:version="0.92.4 (5da689c313, 2019-01-14)">
  <metadata
     id="metadata37">
    <rdf:RDF>
      <cc:Work
         rdf:about="">
        <dc:format>image/svg+xml</dc:format>
        <dc:type
           rdf:resource="http://purl.org/dc/dcmitype/StillImage" />
        <dc:title></dc:title>
      </cc:Work>
    </rdf:RDF>
  </metadata>
  <defs
     id="defs35" />
  <sodipodi:namedview
     pagecolor="#ffffff"
     bordercolor="#666666"
     borderopacity="1"
     objecttolerance="10"
     gridtolerance="10"
     guidetolerance="10"
     inkscape:pageopacity="0"
     inkscape:pageshadow="2"
     inkscape:window-width="1280"
     inkscape:window-height="954"
     id="namedview33"
     showgrid="false"
     inkscape:zoom="7.375"
     inkscape:cx="23.006882"
     inkscape:cy="29.142505"
     inkscape:window-x="0"
     inkscape:window-y="0"
     inkscape:window-maximized="1"
     inkscape:current-layer="svg31" />
  <g
     id="g3862"
     transform="matrix(0.73123487,0,0,0.73123487,0.60048405,11.507037)">
    <path
       id="path2"
       d="m 9.181818,-9.9152544 h 48.96104 c 0,0 2.857142,0 2.857142,2.8235288 V 29.614157 l -8.181818,8.470588 H 3.857143 c 0,0 -2.8571427,0 -2.8571427,-2.82353 V -1.444667 Z"
       style="opacity:0.2"
       inkscape:connector-curvature="0" />
    <path
       id="path4"
       d="m 9.181818,-10.915254 h 48.96104 c 0,0 2.857142,0 2.857142,2.8235286 V 28.614157 l -8.181818,8.470588 H 3.857143 c 0,0 -2.8571427,0 -2.8571427,-2.82353 V -2.444667 Z"
       style="fill:#00cc5c"
       inkscape:connector-curvature="0" />
    <path
       id="path6"
       d="m 39,1.084745 v 6 h -4 v 3 h 4 v 8.234376 c 0,5.647058 1.998402,7.765624 5.585938,7.765624 H 49 v -4 H 45.03125 C 43.101676,22.084745 43,20.744215 43,17.920683 v -7.835938 h 6 v -3 h -6 v -6 z M 23.050782,0.127705 C 15.109896,0.127713 13,4.614157 13,13.084745 c 0,8.470588 2.072781,13.054688 10.050782,13.054688 h 2.265624 l 3.300782,5.64453 3.824218,-1.410156 -3.117188,-5.648438 C 32.292774,23.313605 33,18.731803 33,13.084745 33,4.614157 30.991668,0.127713 23.050782,0.127713 Z m -0.03516,3.95704 c 4.844012,0 5.984388,3.51398 5.984376,9.308594 0,5.794612 -1.10366,8.691406 -5.984376,8.691406 -4.880712,0 -6.015624,-2.896794 -6.015624,-8.691406 0,-5.794614 1.171617,-9.308594 6.015624,-9.308594 z"
       style="opacity:0.2"
       inkscape:connector-curvature="0" />
    <path
       id="path8"
       d="m 39,0.084745 v 6 h -4 v 3 h 4 v 8.234376 c 0,5.647058 1.998402,7.765624 5.585938,7.765624 H 49 v -4 H 45.03125 C 43.101676,21.084745 43,19.744215 43,16.920683 V 9.084745 h 6 v -3 h -6 v -6 z M 23.050782,-0.872285 C 15.109896,-0.872286 13,3.614157 13,12.084745 c 0,8.470588 2.072781,13.054688 10.050782,13.054688 h 2.265624 l 3.300782,5.64453 3.824218,-1.410156 -3.117188,-5.648438 C 32.292774,22.313605 33,17.731803 33,12.084745 33,3.614157 30.991668,-0.872286 23.050782,-0.872287 Z m -0.03516,3.95703 c 4.844012,0 5.984388,3.51398 5.984376,9.308594 0,5.794612 -1.10366,8.691406 -5.984376,8.691406 -4.880712,0 -6.015624,-2.896794 -6.015624,-8.691406 0,-5.794614 1.171617,-9.308594 6.015624,-9.308594 z"
       style="fill:#ffffff"
       inkscape:connector-curvature="0" />
    <path
       id="path10"
       d="m 9.183594,-10.915254 -8.1835937,8.468749 v 1 L 9.183594,-9.9152544 h 48.960937 c 0,0 2.855469,6.9e-4 2.855469,2.8242188 v -0.9999998 c 0,-2.8235286 -2.855469,-2.8242186 -2.855469,-2.8242186 z"
       style="opacity:0.2;fill:#ffffff"
       inkscape:connector-curvature="0" />
    <circle
       id="circle12"
       r="16"
       cy="29.084747"
       cx="47"
       style="opacity:0.2" />
    <circle
       id="circle14"
       r="16"
       cy="28.084747"
       cx="47"
       style="fill:#4f4f4f" />
    <g
       id="g18"
       transform="matrix(1.4285714,0,0,1.4285714,-703.97417,550.49794)"
       style="fill:#ffffff;enable-background:new">
      <path
         id="path16"
         d="M 47.714844,38 C 44.557701,38 42,40.557701 42,43.714844 h 2.857422 c 0,-1.571429 1.285993,-2.857422 2.857422,-2.857422 1.571428,0 2.857422,1.285993 2.857422,2.857422 0,0.785714 -0.315179,1.499386 -0.84375,2.013672 l -1.771485,1.800781 c -1.028571,1.042857 -1.671875,2.47154 -1.671875,4.042969 V 52 h 2.869141 c 0.05794,-1.926685 0.680728,-2.764781 1.660156,-3.757812 l 1.285156,-1.314454 c 0.814286,-0.814285 1.328125,-1.955747 1.328125,-3.21289 C 53.427734,40.557701 50.871987,38 47.714844,38 Z M 46.285156,55.142578 V 58 h 2.857422 v -2.857422 z"
         transform="matrix(0.70000001,0,0,0.70000001,492.08193,-398.58925)"
         style="fill:#ffffff"
         inkscape:connector-curvature="0" />
    </g>
  </g>
</svg>
