<?xml version="1.0" encoding="UTF-8" standalone="no"?>
<svg
   xmlns:dc="http://purl.org/dc/elements/1.1/"
   xmlns:cc="http://creativecommons.org/ns#"
   xmlns:rdf="http://www.w3.org/1999/02/22-rdf-syntax-ns#"
   xmlns:svg="http://www.w3.org/2000/svg"
   xmlns="http://www.w3.org/2000/svg"
   xmlns:sodipodi="http://sodipodi.sourceforge.net/DTD/sodipodi-0.dtd"
   xmlns:inkscape="http://www.inkscape.org/namespaces/inkscape"
   width="48"
   height="48"
   viewBox="0 0 48 48"
   version="1.1"
   id="svg31"
   sodipodi:docname="skype.svg"
   inkscape:version="0.92.4 (5da689c313, 2019-01-14)">
  <metadata
     id="metadata37">
    <rdf:RDF>
      <cc:Work
         rdf:about="">
        <dc:format>image/svg+xml</dc:format>
        <dc:type
           rdf:resource="http://purl.org/dc/dcmitype/StillImage" />
        <dc:title></dc:title>
      </cc:Work>
    </rdf:RDF>
  </metadata>
  <defs
     id="defs35" />
  <sodipodi:namedview
     pagecolor="#ffffff"
     bordercolor="#666666"
     borderopacity="1"
     objecttolerance="10"
     gridtolerance="10"
     guidetolerance="10"
     inkscape:pageopacity="0"
     inkscape:pageshadow="2"
     inkscape:window-width="1280"
     inkscape:window-height="954"
     id="namedview33"
     showgrid="false"
     inkscape:zoom="3.6875"
     inkscape:cx="-8.1355932"
     inkscape:cy="32"
     inkscape:window-x="0"
     inkscape:window-y="0"
     inkscape:window-maximized="1"
     inkscape:current-layer="svg31" />
  <g
     transform="matrix(0.72047888,0,0,0.72047888,1.1247956,0.76455612)"
     id="surface1-3">
    <path
       inkscape:connector-curvature="0"
       style="fill:#1e94f3;fill-opacity:1;fill-rule:nonzero;stroke:none"
       d="m 43.65625,26.957031 c 9.5,0 17.199219,7.699219 17.199219,17.199219 0,9.5 -7.699219,17.199219 -17.199219,17.199219 -9.5,0 -17.199219,-7.699219 -17.199219,-17.199219 0,-9.5 7.699219,-17.199219 17.199219,-17.199219 z m 0,0"
       id="path2-6" />
    <path
       inkscape:connector-curvature="0"
       style="fill:#1e94f3;fill-opacity:1;fill-rule:nonzero;stroke:none"
       d="m 19.84375,3.144531 c 9.5,0 17.199219,7.699219 17.199219,17.199219 0,9.5 -7.699219,17.199219 -17.199219,17.199219 -9.5,0 -17.199219,-7.699219 -17.199219,-17.199219 0,-9.5 7.699219,-17.199219 17.199219,-17.199219 z m 0,0"
       id="path4-7" />
    <path
       inkscape:connector-curvature="0"
       style="fill:#3fa3f5;fill-opacity:1;fill-rule:nonzero;stroke:none"
       d="m 31.75,5.792969 c 14.613281,0 26.457031,11.84375 26.457031,26.457031 0,14.613281 -11.84375,26.457031 -26.457031,26.457031 C 17.136719,58.707031 5.292969,46.863281 5.292969,32.25 5.292969,17.636719 17.136719,5.792969 31.75,5.792969 Z m 0,0"
       id="path6-5" />
    <path
       inkscape:connector-curvature="0"
       style="fill:#f5f5f5;fill-opacity:1;fill-rule:nonzero;stroke:none"
       d="m 31.761719,13.730469 c -3.085938,-0.05469 -6.023438,0.714843 -8.28125,2.53125 -2.261719,1.820312 -3.648438,4.734375 -3.648438,8.050781 0,3.527344 2.074219,6.230469 4.367188,7.6875 2.289062,1.457031 4.800781,2.125 6.703125,2.757812 2.066406,0.691407 4.1875,1.347657 5.53125,2.203126 1.347656,0.855468 1.917968,1.460937 1.917968,3.226562 0,1.984375 -0.601562,3.046875 -1.652343,3.886719 -1.050781,0.839843 -2.757813,1.40625 -4.960938,1.40625 -2.207031,0 -4.007812,-0.578125 -5.101562,-1.339844 -1.089844,-0.765625 -1.515625,-1.527344 -1.515625,-2.628906 0.01172,-0.957031 -0.488282,-1.84375 -1.3125,-2.324219 -0.824219,-0.480469 -1.84375,-0.480469 -2.667969,0 -0.820313,0.480469 -1.324219,1.367188 -1.308594,2.324219 0,2.863281 1.558594,5.410156 3.773438,6.960937 2.214843,1.550782 5.042969,2.296875 8.132812,2.296875 3.085938,0 6.007813,-0.757812 8.265625,-2.5625 2.257813,-1.808593 3.640625,-4.710937 3.640625,-8.019531 0,-3.527344 -2.078125,-6.230469 -4.367187,-7.6875 -2.292969,-1.460938 -4.804688,-2.125 -6.703125,-2.761719 -2.070313,-0.6875 -4.191407,-1.34375 -5.535157,-2.203125 -1.347656,-0.855468 -1.917968,-1.460937 -1.917968,-3.222656 0,-1.976562 0.621094,-3.082031 1.675781,-3.929688 1.054687,-0.851562 2.742187,-1.40625 4.890625,-1.363281 0.01563,0 0.03125,0 0.05078,0 2.203125,0 4.003907,0.574219 5.097657,1.339844 1.089843,0.765625 1.515624,1.527344 1.515624,2.628906 -0.01172,0.953125 0.488282,1.839844 1.3125,2.320313 0.824219,0.480468 1.84375,0.480468 2.667969,0 0.824219,-0.480469 1.324219,-1.367188 1.3125,-2.320313 0,-2.867187 -1.558593,-5.410156 -3.777343,-6.964843 -2.207032,-1.546876 -5.027344,-2.289063 -8.105468,-2.292969 z m 0,0"
       id="path8-3" />
  </g>
</svg>
