<?xml version="1.0" encoding="UTF-8" standalone="no"?>
<svg
   xmlns:dc="http://purl.org/dc/elements/1.1/"
   xmlns:cc="http://creativecommons.org/ns#"
   xmlns:rdf="http://www.w3.org/1999/02/22-rdf-syntax-ns#"
   xmlns:svg="http://www.w3.org/2000/svg"
   xmlns="http://www.w3.org/2000/svg"
   xmlns:sodipodi="http://sodipodi.sourceforge.net/DTD/sodipodi-0.dtd"
   xmlns:inkscape="http://www.inkscape.org/namespaces/inkscape"
   xml:space="preserve"
   enable-background="new 0 0 48 48"
   viewBox="0 0 48 48"
   y="0px"
   x="0px"
   version="1.1"
   width="48"
   height="48"
   id="svg2"
   inkscape:version="0.92.4 (5da689c313, 2019-01-14)"
   sodipodi:docname="Slack.svg"><metadata
     id="metadata24"><rdf:RDF><cc:Work
         rdf:about=""><dc:format>image/svg+xml</dc:format><dc:type
           rdf:resource="http://purl.org/dc/dcmitype/StillImage" /><dc:title></dc:title></cc:Work></rdf:RDF></metadata><defs
     id="defs22" /><sodipodi:namedview
     pagecolor="#ffffff"
     bordercolor="#666666"
     borderopacity="1"
     objecttolerance="10"
     gridtolerance="10"
     guidetolerance="10"
     inkscape:pageopacity="0"
     inkscape:pageshadow="2"
     inkscape:window-width="1280"
     inkscape:window-height="954"
     id="namedview20"
     showgrid="false"
     inkscape:zoom="6.9532166"
     inkscape:cx="12.824496"
     inkscape:cy="24.190111"
     inkscape:window-x="0"
     inkscape:window-y="0"
     inkscape:window-maximized="1"
     inkscape:current-layer="svg2" /><g
     id="g3860"
     transform="matrix(0.09991152,0,0,0.09991152,-1.0182508,44.182127)"><path
       style="fill:#ffb300"
       inkscape:connector-curvature="0"
       id="path4"
       d="m 331.31091,-353.26715 -73.90962,25.75638 -15.6778,-48.15324 c -6.71905,-20.15717 3.35953,-42.55402 24.63654,-49.27308 20.15717,-6.71905 42.55403,3.35953 49.27308,24.63654 z m -22.39685,179.17483 73.90961,-25.75638 -25.75638,-79.50883 -73.90962,25.75638 z m 38.07465,114.22396 c 5.59921,15.6778 21.27701,26.87622 36.95481,26.87622 4.47937,0 8.95874,-1.11984 12.31827,-2.23968 20.15717,-6.71906 31.35559,-29.11591 24.63654,-49.27308 l -13.43812,-40.31434 -73.90961,25.75638 z" /><path
       style="fill:#00bfa5"
       inkscape:connector-curvature="0"
       id="path6"
       d="m 174.53293,-298.39486 -73.90962,25.75638 -15.677796,-47.03339 c -6.719056,-20.15717 3.359529,-42.55403 24.636536,-49.27308 20.15717,-6.71906 42.55402,3.35953 49.27308,24.63654 z m 15.6778,294.51863 C 195.80994,11.80157 211.48774,23 227.16554,23 c 4.47937,0 8.95874,-1.11984 12.31827,-2.23969 20.15717,-6.71905 31.35559,-29.11591 24.63654,-49.27308 l -13.43812,-41.43418 -73.90962,25.75639 z m 8.95874,-219.48917 -73.90962,25.75638 25.75638,79.50884 73.90962,-25.75639 z" /><path
       style="fill:#00bcd4"
       inkscape:connector-curvature="0"
       id="path8"
       d="m 355.94745,-278.23769 -24.63654,-73.90962 45.91355,-15.6778 c 20.15717,-6.71906 42.55402,3.35953 49.27308,24.63654 6.71906,20.15717 -3.35953,42.55402 -24.63654,49.27308 z m -73.90962,25.75638 -24.63654,-73.90962 -82.86836,29.11591 24.63654,73.90962 z m -228.447912,-3.35953 c -20.157169,6.71906 -31.355596,29.11591 -24.636539,49.27308 5.599213,16.79764 21.277011,26.87623 36.954809,26.87623 4.479371,0 8.958742,-1.11984 12.31827,-2.23969 l 45.913552,-15.6778 -24.63654,-73.90962 z" /><path
       style="fill:#e91e63"
       inkscape:connector-curvature="0"
       id="path10"
       d="m 151.01623,-119.22003 24.63654,73.90962 -52.63261,17.91749 c -4.47936,1.11984 -8.95873,2.23968 -12.31826,2.23968 -16.797644,0 -31.355599,-10.07858 -36.954813,-26.87622 -6.719056,-20.15717 3.359528,-42.55403 24.63654,-49.27308 z m 320.27502,-69.43024 c -6.71906,-20.15717 -29.11591,-31.3556 -49.27308,-24.63654 l -39.1945,13.43811 24.63654,75.02946 40.31434,-13.43811 c 20.15717,-7.8389 31.3556,-30.23575 23.5167,-50.39292 z m -246.3654,43.67386 24.63654,73.90962 82.86836,-29.11591 -24.63654,-73.90962 z" /><polygon
       transform="matrix(11.198427,0,0,11.198427,-18.080016,-471.97048)"
       style="fill:#388e3c"
       id="polygon12"
       points="26.8,19.6 33.4,17.3 31.2,10.6 24.6,12.9 " /><polygon
       transform="matrix(11.198427,0,0,11.198427,-18.080016,-471.97048)"
       style="fill:#00897b"
       id="polygon14"
       points="19.4,22.2 17.2,15.5 10.6,17.8 12.8,24.5 " /><polygon
       transform="matrix(11.198427,0,0,11.198427,-18.080016,-471.97048)"
       style="fill:#bf360c"
       id="polygon16"
       points="35.8,24.3 29.2,26.6 31.4,33.3 38,31 " /><polygon
       transform="matrix(11.198427,0,0,11.198427,-18.080016,-471.97048)"
       style="fill:#4e342e"
       id="polygon18"
       points="21.7,29.2 15.1,31.5 17.3,38.2 23.9,35.9 " /></g></svg>