<?xml version="1.0" encoding="UTF-8" standalone="no"?>
<svg
   xmlns:dc="http://purl.org/dc/elements/1.1/"
   xmlns:cc="http://creativecommons.org/ns#"
   xmlns:rdf="http://www.w3.org/1999/02/22-rdf-syntax-ns#"
   xmlns:svg="http://www.w3.org/2000/svg"
   xmlns="http://www.w3.org/2000/svg"
   xmlns:sodipodi="http://sodipodi.sourceforge.net/DTD/sodipodi-0.dtd"
   xmlns:inkscape="http://www.inkscape.org/namespaces/inkscape"
   width="48"
   height="48"
   version="1"
   id="svg50"
   sodipodi:docname="thermal-monitor.svg"
   inkscape:version="0.92.4 (5da689c313, 2019-01-14)">
  <metadata
     id="metadata56">
    <rdf:RDF>
      <cc:Work
         rdf:about="">
        <dc:format>image/svg+xml</dc:format>
        <dc:type
           rdf:resource="http://purl.org/dc/dcmitype/StillImage" />
        <dc:title></dc:title>
      </cc:Work>
    </rdf:RDF>
  </metadata>
  <defs
     id="defs54" />
  <sodipodi:namedview
     pagecolor="#ffffff"
     bordercolor="#666666"
     borderopacity="1"
     objecttolerance="10"
     gridtolerance="10"
     guidetolerance="10"
     inkscape:pageopacity="0"
     inkscape:pageshadow="2"
     inkscape:window-width="1280"
     inkscape:window-height="954"
     id="namedview52"
     showgrid="false"
     inkscape:zoom="3.6875"
     inkscape:cx="27.254237"
     inkscape:cy="32"
     inkscape:window-x="0"
     inkscape:window-y="0"
     inkscape:window-maximized="1"
     inkscape:current-layer="svg50" />
  <g
     id="g3920"
     transform="matrix(0.82268579,0,0,0.82268579,-2.3259453,10.837027)">
    <g
       id="g18"
       transform="matrix(2,0,0,2,0,-16)"
       style="fill:#8e8e8e">
      <rect
         id="rect2"
         transform="rotate(90)"
         y="-29"
         x="20"
         height="26"
         width="1" />
      <rect
         id="rect4"
         transform="rotate(90)"
         y="-29"
         x="23"
         height="26"
         width="1" />
      <rect
         id="rect6"
         transform="rotate(90)"
         y="-29"
         x="26"
         height="26"
         width="1" />
      <rect
         id="rect8"
         transform="rotate(90)"
         y="-29"
         x="11"
         height="26"
         width="1" />
      <rect
         id="rect10"
         transform="rotate(90)"
         y="-29"
         x="14"
         height="26"
         width="1" />
      <rect
         id="rect12"
         transform="rotate(90)"
         y="-29"
         x="17"
         height="26"
         width="1" />
      <rect
         id="rect14"
         transform="rotate(90)"
         y="-29"
         x="8"
         height="26"
         width="1" />
      <rect
         id="rect16"
         transform="rotate(90)"
         y="-29"
         x="5"
         height="26"
         width="1" />
    </g>
    <g
       id="g36"
       transform="matrix(0,2,-2,0,64,-16)"
       style="fill:#8e8e8e">
      <rect
         id="rect20"
         transform="rotate(90)"
         y="-29"
         x="20"
         height="26"
         width="1" />
      <rect
         id="rect22"
         transform="rotate(90)"
         y="-29"
         x="23"
         height="26"
         width="1" />
      <rect
         id="rect24"
         transform="rotate(90)"
         y="-29"
         x="26"
         height="26"
         width="1" />
      <rect
         id="rect26"
         transform="rotate(90)"
         y="-29"
         x="11"
         height="26"
         width="1" />
      <rect
         id="rect28"
         transform="rotate(90)"
         y="-29"
         x="14"
         height="26"
         width="1" />
      <rect
         id="rect30"
         transform="rotate(90)"
         y="-29"
         x="17"
         height="26"
         width="1" />
      <rect
         id="rect32"
         transform="rotate(90)"
         y="-29"
         x="8"
         height="26"
         width="1" />
      <rect
         id="rect34"
         transform="rotate(90)"
         y="-29"
         x="5"
         height="26"
         width="1" />
    </g>
    <path
       inkscape:connector-curvature="0"
       id="path38"
       d="m 8,36.602 v 2 C 8,39.932 9.338,41 11,41 h 42 c 1.662,0 3,-1.068 3,-2.398 v -2 C 56,37.932 54.662,39 53,39 H 11 C 9.338,39 8,37.932 8,36.602 Z"
       style="opacity:0.2" />
    <rect
       id="rect40"
       transform="matrix(0,-1,-1,0,0,0)"
       ry="3"
       rx="2.4000001"
       y="-56"
       x="-40"
       height="48"
       width="48"
       style="fill:#b7b7b7" />
    <path
       inkscape:connector-curvature="0"
       id="path42"
       d="m 11,-8 c -1.662,0 -3,1.0688375 -3,2.398438 v 1 C 8,-5.931163 9.338,-7 11,-7 h 42 c 1.662,0 3,1.068838 3,2.398438 v -1 C 56,-6.9311625 54.662,-8 53,-8 Z"
       style="opacity:0.2;fill:#ffffff" />
    <path
       inkscape:connector-curvature="0"
       id="path44"
       d="m 32,-3 c -2.77,0 -5,2.23 -5,5 V 16.355469 A 10,10 0 0 0 22,25 10,10 0 0 0 32,35 10,10 0 0 0 42,25 10,10 0 0 0 37,16.349609 V 2 c 0,-2.77 -2.23,-5 -5,-5 z m 0,3 c 1.159892,0 2,0.840108 2,2 v 16.082031 l 1.5,0.865235 c 2.167254,1.251263 3.49684,3.552265 3.5,6.054687 C 38.998938,28.902536 35.900858,32 32,32 28.09981,32 25.002123,28.903545 25,25.003906 v -0.002 c 0.0046,-2.500942 1.334025,-4.798306 3.5,-6.048828 L 30,18.087891 V 2 c 0,-1.159892 0.840108,-2 2,-2 z"
       style="opacity:0.5" />
    <path
       inkscape:connector-curvature="0"
       id="path46"
       d="m 30,10 v 9.087891 l -1.5,0.865234 c -2.165975,1.250522 -3.4954,3.547886 -3.5,6.048828 v 0.002 C 25.002123,29.903545 28.09981,33 32,33 c 3.900858,0 6.998938,-3.097464 7,-6.998047 -0.0032,-2.502422 -1.332746,-4.803424 -3.5,-6.054687 L 34,19.082031 V 10 Z"
       style="opacity:0.2" />
    <path
       inkscape:connector-curvature="0"
       id="path48"
       d="m 30,9 v 9.087891 l -1.5,0.865234 c -2.165975,1.250522 -3.4954,3.547886 -3.5,6.048828 v 0.002 C 25.002123,28.903545 28.09981,32 32,32 c 3.900858,0 6.998938,-3.097464 7,-6.998047 -0.0032,-2.502422 -1.332746,-4.803424 -3.5,-6.054687 L 34,18.082031 V 9 Z"
       style="fill:#f75f5f" />
  </g>
</svg>
