<?xml version="1.0" encoding="UTF-8" standalone="no"?>
<svg
   xmlns:dc="http://purl.org/dc/elements/1.1/"
   xmlns:cc="http://creativecommons.org/ns#"
   xmlns:rdf="http://www.w3.org/1999/02/22-rdf-syntax-ns#"
   xmlns:svg="http://www.w3.org/2000/svg"
   xmlns="http://www.w3.org/2000/svg"
   xmlns:sodipodi="http://sodipodi.sourceforge.net/DTD/sodipodi-0.dtd"
   xmlns:inkscape="http://www.inkscape.org/namespaces/inkscape"
   width="48"
   height="48"
   viewBox="0 0 48 48"
   version="1.1"
   id="svg9"
   sodipodi:docname="tomato.svg"
   inkscape:version="0.92.4 (5da689c313, 2019-01-14)">
  <metadata
     id="metadata15">
    <rdf:RDF>
      <cc:Work
         rdf:about="">
        <dc:format>image/svg+xml</dc:format>
        <dc:type
           rdf:resource="http://purl.org/dc/dcmitype/StillImage" />
        <dc:title></dc:title>
      </cc:Work>
    </rdf:RDF>
  </metadata>
  <defs
     id="defs13" />
  <sodipodi:namedview
     pagecolor="#ffffff"
     bordercolor="#666666"
     borderopacity="1"
     objecttolerance="10"
     gridtolerance="10"
     guidetolerance="10"
     inkscape:pageopacity="0"
     inkscape:pageshadow="2"
     inkscape:window-width="1280"
     inkscape:window-height="954"
     id="namedview11"
     showgrid="false"
     inkscape:zoom="3.6875"
     inkscape:cx="27.254237"
     inkscape:cy="32"
     inkscape:window-x="0"
     inkscape:window-y="0"
     inkscape:window-maximized="1"
     inkscape:current-layer="svg9" />
  <g
     id="surface1"
     transform="matrix(0.74615739,0,0,0.74615739,0.30950287,0.14047756)">
    <path
       style="fill:#ee514f;fill-opacity:1;fill-rule:nonzero;stroke:none"
       d="m 31.75,9.761719 c 14.246094,0 25.796875,11.546875 25.796875,25.796875 0,14.246094 -11.550781,25.796875 -25.796875,25.796875 -14.246094,0 -25.796875,-11.550781 -25.796875,-25.796875 0,-14.25 11.550781,-25.796875 25.796875,-25.796875 z m 0,0"
       id="path2"
       inkscape:connector-curvature="0" />
    <path
       style="fill:#66ba68;fill-opacity:1;fill-rule:nonzero;stroke:none"
       d="M 30.492188,2.597656 C 29.140625,2.609375 27.316406,3.539062 27.78125,4.46875 29.25,6.042969 30.460938,7.699219 30.425781,9.761719 23.8125,8.4375 18.519531,12.40625 15.875,15.050781 c 4.066406,-1.015625 6.621094,-2.890625 9.753906,-1.648437 -2.242187,1.4375 -3.167968,3.609375 -3.140625,5.617187 2.328125,-1.160156 3.652344,-3.390625 6.707031,-3.875 1.601563,1.679688 1.441407,8.058594 1.230469,10.492188 2.523438,-1.78125 4.183594,-7.753907 4.898438,-10.25 2.363281,0.753906 4.960937,5.253906 7.007812,6.28125 0.03906,-2.558594 -1.320312,-9.261719 -5.289062,-9.261719 l 11.90625,3.96875 c -4.75,-4.109375 -7.9375,-9.261719 -15.875,-6.613281 L 31.75,3.144531 C 31.554688,2.753906 31.066406,2.59375 30.492188,2.597656 Z m 0,0"
       id="path4"
       inkscape:connector-curvature="0" />
    <path
       style="fill:#e37373;fill-opacity:1;fill-rule:nonzero;stroke:none"
       d="m 20.386719,19.5625 c 1.160156,1.160156 0.425781,3.78125 -1.640625,5.847656 -2.066406,2.066406 -4.683594,2.796875 -5.84375,1.636719 -1.164063,-1.164063 -0.429688,-3.78125 1.636718,-5.847656 2.066407,-2.066407 4.683594,-2.800781 5.847657,-1.636719 z m 0,0"
       id="path6"
       inkscape:connector-curvature="0" />
  </g>
</svg>
