<?xml version="1.0" encoding="UTF-8" standalone="no"?>
<svg
   xmlns:dc="http://purl.org/dc/elements/1.1/"
   xmlns:cc="http://creativecommons.org/ns#"
   xmlns:rdf="http://www.w3.org/1999/02/22-rdf-syntax-ns#"
   xmlns:svg="http://www.w3.org/2000/svg"
   xmlns="http://www.w3.org/2000/svg"
   xmlns:sodipodi="http://sodipodi.sourceforge.net/DTD/sodipodi-0.dtd"
   xmlns:inkscape="http://www.inkscape.org/namespaces/inkscape"
   width="48"
   height="48"
   viewBox="0 0 48 48"
   version="1.1"
   id="svg29"
   sodipodi:docname="tor.svg"
   inkscape:version="0.92.4 (5da689c313, 2019-01-14)">
  <metadata
     id="metadata33">
    <rdf:RDF>
      <cc:Work
         rdf:about="">
        <dc:format>image/svg+xml</dc:format>
        <dc:type
           rdf:resource="http://purl.org/dc/dcmitype/StillImage" />
        <dc:title></dc:title>
      </cc:Work>
    </rdf:RDF>
  </metadata>
  <sodipodi:namedview
     pagecolor="#ffffff"
     bordercolor="#666666"
     borderopacity="1"
     objecttolerance="10"
     gridtolerance="10"
     guidetolerance="10"
     inkscape:pageopacity="0"
     inkscape:pageshadow="2"
     inkscape:window-width="1280"
     inkscape:window-height="954"
     id="namedview31"
     showgrid="false"
     inkscape:zoom="3.6875"
     inkscape:cx="27.254237"
     inkscape:cy="32"
     inkscape:window-x="0"
     inkscape:window-y="0"
     inkscape:window-maximized="1"
     inkscape:current-layer="svg29" />
  <defs
     id="defs12">
    <linearGradient
       id="linear0"
       gradientUnits="userSpaceOnUse"
       x1="275.16666"
       y1="-20.499998"
       x2="275.16666"
       y2="106.5"
       gradientTransform="matrix(0.125,0,0,0.125,0,26.874999)">
      <stop
         offset="0"
         style="stop-color:rgb(87.843138%,87.843138%,87.843138%);stop-opacity:1;"
         id="stop2" />
      <stop
         offset="1"
         style="stop-color:rgb(93.333334%,93.333334%,93.333334%);stop-opacity:1;"
         id="stop4" />
    </linearGradient>
    <linearGradient
       id="linear1"
       gradientUnits="userSpaceOnUse"
       x1="269.875"
       y1="-20.500025"
       x2="269.875"
       y2="106.50002"
       gradientTransform="matrix(0.25,0,0,0.25,-31.749978,21.500005)">
      <stop
         offset="0"
         style="stop-color:rgb(87.843138%,87.843138%,87.843138%);stop-opacity:1;"
         id="stop7" />
      <stop
         offset="1"
         style="stop-color:rgb(93.333334%,93.333334%,93.333334%);stop-opacity:1;"
         id="stop9" />
    </linearGradient>
  </defs>
  <g
     id="surface1"
     transform="matrix(0.72513757,0,0,0.72513757,0.97688215,0.61431337)">
    <path
       style="fill:#ab45ba;fill-opacity:1;fill-rule:nonzero;stroke:none"
       d="m 31.75,3.144531 c 16.074219,0 29.105469,13.03125 29.105469,29.105469 0,16.074219 -13.03125,29.105469 -29.105469,29.105469 C 15.675781,61.355469 2.644531,48.324219 2.644531,32.25 2.644531,16.175781 15.675781,3.144531 31.75,3.144531 Z m 0,0"
       id="path14"
       inkscape:connector-curvature="0" />
    <path
       style="fill:url(#linear0);fill-rule:nonzero;stroke:none"
       d="m 31.75,24.3125 v 15.875 c 4.398438,0 7.9375,-3.539062 7.9375,-7.9375 0,-4.398438 -3.539062,-7.9375 -7.9375,-7.9375 z m 0,0"
       id="path16"
       inkscape:connector-curvature="0" />
    <path
       style="fill:#eeeeee;fill-opacity:1;fill-rule:nonzero;stroke:none"
       d="m 31.75,8.4375 v 3.96875 c 10.992188,0 19.84375,8.851562 19.84375,19.84375 0,10.992188 -8.851562,19.84375 -19.84375,19.84375 V 56.0625 C 44.941406,56.0625 55.5625,45.441406 55.5625,32.25 55.5625,19.058594 44.941406,8.4375 31.75,8.4375 Z m 0,0"
       id="path18"
       inkscape:connector-curvature="0" />
    <path
       style="fill:url(#linear1);fill-rule:nonzero;stroke:none"
       d="m 31.75,16.375 v 3.96875 c 6.597656,0 11.90625,5.308594 11.90625,11.90625 0,6.597656 -5.308594,11.90625 -11.90625,11.90625 V 48.125 c 8.792969,0 15.875,-7.082031 15.875,-15.875 0,-8.792969 -7.082031,-15.875 -15.875,-15.875 z m 0,0"
       id="path20"
       inkscape:connector-curvature="0" />
    <path
       style="fill:#eeeeee;fill-opacity:0.07843137;fill-rule:nonzero;stroke:none"
       d="m 31.75,24.3125 v 15.875 c -4.398438,0 -7.9375,-3.539062 -7.9375,-7.9375 0,-4.398438 3.539062,-7.9375 7.9375,-7.9375 z m 0,0"
       id="path22"
       inkscape:connector-curvature="0" />
    <path
       style="fill:#eeeeee;fill-opacity:0.07843137;fill-rule:nonzero;stroke:none"
       d="m 31.75,8.4375 v 3.96875 c -10.992188,0 -19.84375,8.851562 -19.84375,19.84375 0,10.992188 8.851562,19.84375 19.84375,19.84375 V 56.0625 C 18.558594,56.0625 7.9375,45.441406 7.9375,32.25 7.9375,19.058594 18.558594,8.4375 31.75,8.4375 Z m 0,0"
       id="path24"
       inkscape:connector-curvature="0" />
    <path
       style="fill:#eeeeee;fill-opacity:0.07843137;fill-rule:nonzero;stroke:none"
       d="m 31.75,16.375 v 3.96875 c -6.597656,0 -11.90625,5.308594 -11.90625,11.90625 0,6.597656 5.308594,11.90625 11.90625,11.90625 V 48.125 c -8.792969,0 -15.875,-7.082031 -15.875,-15.875 0,-8.792969 7.082031,-15.875 15.875,-15.875 z m 0,0"
       id="path26"
       inkscape:connector-curvature="0" />
  </g>
</svg>
