<?xml version="1.0" encoding="UTF-8" standalone="no"?>
<svg
   xmlns:dc="http://purl.org/dc/elements/1.1/"
   xmlns:cc="http://creativecommons.org/ns#"
   xmlns:rdf="http://www.w3.org/1999/02/22-rdf-syntax-ns#"
   xmlns:svg="http://www.w3.org/2000/svg"
   xmlns="http://www.w3.org/2000/svg"
   xmlns:sodipodi="http://sodipodi.sourceforge.net/DTD/sodipodi-0.dtd"
   xmlns:inkscape="http://www.inkscape.org/namespaces/inkscape"
   width="48"
   height="48"
   viewBox="0 0 48 48"
   version="1.1"
   id="svg5"
   sodipodi:docname="vivaldi.svg"
   inkscape:version="0.92.4 (5da689c313, 2019-01-14)">
  <metadata
     id="metadata11">
    <rdf:RDF>
      <cc:Work
         rdf:about="">
        <dc:format>image/svg+xml</dc:format>
        <dc:type
           rdf:resource="http://purl.org/dc/dcmitype/StillImage" />
        <dc:title></dc:title>
      </cc:Work>
    </rdf:RDF>
  </metadata>
  <defs
     id="defs9" />
  <sodipodi:namedview
     pagecolor="#ffffff"
     bordercolor="#666666"
     borderopacity="1"
     objecttolerance="10"
     gridtolerance="10"
     guidetolerance="10"
     inkscape:pageopacity="0"
     inkscape:pageshadow="2"
     inkscape:window-width="1280"
     inkscape:window-height="954"
     id="namedview7"
     showgrid="false"
     inkscape:zoom="3.6875"
     inkscape:cx="27.254237"
     inkscape:cy="32"
     inkscape:window-x="0"
     inkscape:window-y="0"
     inkscape:window-maximized="1"
     inkscape:current-layer="svg5" />
  <g
     id="surface1"
     transform="matrix(0.71614958,0,0,0.71614958,0.82268974,1.4149822)">
    <path
       style="fill:#ee514f;fill-opacity:1;fill-rule:nonzero;stroke:none"
       d="M 10.824219,3.074219 C 9.484375,3.078125 8.125,3.421875 6.875,4.144531 3.066406,6.34375 1.769531,11.179688 3.96875,14.988281 l 24.472656,42.390625 c 2.199219,3.808594 7.035156,5.101563 10.84375,2.902344 1.207032,-0.695312 2.160156,-1.65625 2.828125,-2.761719 5.753907,-13.792969 11.28125,-28.371093 16.757813,-42.46875 0.660156,-1.984375 1.984375,-1.984375 1.984375,-5.289062 0,-3.664063 -2.953125,-6.617188 -6.617188,-6.617188 -3.664062,0 -6.613281,2.953125 -6.613281,6.617188 0,2.144531 1.011719,4.046875 2.585938,5.253906 l -6.691407,17.222656 c -0.558593,2.664063 -2.796875,4.640625 -5.484375,4.640625 -3.308594,0 -5.292968,-3.636718 -5.769531,-4.628906 L 17.71875,7.050781 C 16.238281,4.492188 13.570312,3.066406 10.824219,3.074219 Z m 0,0"
       id="path2"
       inkscape:connector-curvature="0" />
  </g>
</svg>
