<?xml version="1.0" encoding="UTF-8" standalone="no"?>
<!-- Created with Inkscape (http://www.inkscape.org/) -->

<svg
   xmlns:dc="http://purl.org/dc/elements/1.1/"
   xmlns:cc="http://creativecommons.org/ns#"
   xmlns:rdf="http://www.w3.org/1999/02/22-rdf-syntax-ns#"
   xmlns:svg="http://www.w3.org/2000/svg"
   xmlns="http://www.w3.org/2000/svg"
   xmlns:sodipodi="http://sodipodi.sourceforge.net/DTD/sodipodi-0.dtd"
   xmlns:inkscape="http://www.inkscape.org/namespaces/inkscape"
   width="48"
   height="48"
   id="svg2"
   version="1.1"
   inkscape:version="0.92.4 (5da689c313, 2019-01-14)"
   sodipodi:docname="accessories-archiver.svg">
  <defs
     id="defs4">
    <linearGradient
       id="linearGradient1142"
       x1="-59.707001"
       x2="-24.212999"
       y1="-182.27"
       y2="-182.27"
       gradientTransform="matrix(1.0000071,0,0,1.0000071,144.49123,1210.4549)"
       gradientUnits="userSpaceOnUse">
      <stop
         stop-color="#1496ff"
         offset="0"
         id="stop7" />
      <stop
         stop-color="#0a78ff"
         offset="1"
         id="stop9" />
    </linearGradient>
    <linearGradient
       id="linearGradient1150"
       x1="-56.875"
       x2="-56.875"
       y1="-185.88"
       y2="-160.88"
       gradientUnits="userSpaceOnUse">
      <stop
         stop-color="#0a82ff"
         offset="0"
         id="stop12" />
      <stop
         stop-color="#0564c8"
         offset="1"
         id="stop14" />
    </linearGradient>
    <linearGradient
       id="linearGradient1164"
       x1="-27.625"
       x2="-27.625"
       y1="-188"
       y2="-160.75"
       gradientUnits="userSpaceOnUse">
      <stop
         stop-color="#004bb9"
         offset="0"
         id="stop17" />
      <stop
         stop-color="#0546b4"
         offset="1"
         id="stop19" />
    </linearGradient>
  </defs>
  <sodipodi:namedview
     id="base"
     pagecolor="#ffffff"
     bordercolor="#666666"
     borderopacity="1.0"
     inkscape:pageopacity="0.0"
     inkscape:pageshadow="2"
     inkscape:zoom="7.9195959"
     inkscape:cx="61.945537"
     inkscape:cy="32.798757"
     inkscape:document-units="px"
     inkscape:current-layer="layer1"
     showgrid="false"
     inkscape:window-width="1920"
     inkscape:window-height="1052"
     inkscape:window-x="1280"
     inkscape:window-y="0"
     inkscape:window-maximized="1" />
  <metadata
     id="metadata7">
    <rdf:RDF>
      <cc:Work
         rdf:about="">
        <dc:format>image/svg+xml</dc:format>
        <dc:type
           rdf:resource="http://purl.org/dc/dcmitype/StillImage" />
        <dc:title></dc:title>
      </cc:Work>
    </rdf:RDF>
  </metadata>
  <g
     inkscape:label="Layer 1"
     inkscape:groupmode="layer"
     id="layer1"
     transform="translate(0,-1004.3622)">
    <g
       id="g3874"
       transform="matrix(0.75386819,0,0,0.75386819,-0.1237821,259.14361)">
      <g
         transform="matrix(0.13236538,0,0,0.13236538,-1.8477188,913.67841)"
         id="g4142">
        <path
           style="fill:#62a1d3;fill-opacity:1;stroke:none"
           d="m 323.78153,666.84953 18.03389,6.21168 v 8.01507 l -15.429,4.40827 v 24.8467 l 33.46288,-9.21731 -19.03577,9.81845 0.40075,18.63502 -14.42711,4.60866 v 23.64443 l 31.05838,-7.61429 -16.03013,9.4177 v 17.8335 l -15.82975,5.41018 1.00189,22.44218 33.66327,-9.21732 -18.83541,10.82032 -0.40075,17.43277 -14.82786,4.40829 0.40075,22.2418 32.66138,-8.41582 -20.63879,13.02448 -0.60114,7.21356 h 52.09793 l -0.60114,-24.44595 15.02825,-3.20602 -0.40075,-24.24557 -35.26629,7.81468 20.43843,-8.61618 0.20041,-17.2324 15.62938,-4.60866 v -24.64632 l -27.25122,7.81468 11.0207,-7.21354 0.20041,-18.03391 14.6275,-4.20791 v -24.8467 l -32.06027,7.8147 16.23052,-8.41581 0.8015,-20.23805 14.82786,-2.20413 0.8015,-24.44596 -29.45536,6.61243 15.22863,-11.82222 v -7.61432 l -65.32276,1.80341 z"
           id="path3941"
           inkscape:connector-curvature="0" />
        <path
           style="fill:#62a1d3;fill-opacity:1;stroke:none"
           d="m 327.69161,916.28877 0.28338,51.00755 h -14.73551 v 18.4194 l -26.35392,0.56675 -0.28336,-16.1524 -34.85517,0.28338 -0.56676,56.95845 h 35.70529 v -14.7355 l 26.63729,-0.2834 v 18.4194 l 105.13224,-0.2834 0.28337,-17.8526 h 27.77079 v 15.5856 h 34.00504 l -0.28338,-58.94204 -33.72166,0.28336 v 17.28591 h -28.05416 l -1.13351,-20.11966 -12.18514,0.28338 v -51.29093 z"
           id="path3943"
           inkscape:connector-curvature="0" />
        <path
           style="fill:#1875c5;fill-opacity:1;stroke:none"
           d="m 91.935038,898.50154 -0.8015,14.02636 31.659502,29.65575 165.91182,1.60302 21.64068,-24.0452 113.41317,-1.20225 V 852.01418 H 312.75006 l -44.08286,46.88813 z"
           id="path3921"
           inkscape:connector-curvature="0" />
        <path
           style="fill:#1875c5;fill-opacity:1;stroke:none"
           d="m 92.038481,626.4715 -0.8015,-14.02636 31.659499,-29.65575 165.91182,-1.60302 21.64068,24.0452 113.41317,1.20225 v 66.52504 H 312.85351 l -44.08286,-46.88813 z"
           id="path3921-3"
           inkscape:connector-curvature="0" />
        <rect
           style="fill:#62a1d3;fill-opacity:1;stroke:none"
           id="rect3945"
           width="238.03526"
           height="272.60706"
           x="30.714285"
           y="626.11243" />
        <rect
           style="fill:#1394ff;fill-opacity:1;stroke:none"
           id="rect3945-6"
           width="199.56294"
           height="105.0922"
           x="48.470131"
           y="650.37122" />
        <rect
           style="fill:#1392ff;fill-opacity:1;stroke:none"
           id="rect3945-6-7"
           width="199.56294"
           height="105.0922"
           x="50.073128"
           y="772.60095" />
        <rect
           style="fill:#394050;fill-opacity:1;stroke:none"
           id="rect3945-6-7-5"
           width="80.138489"
           height="25.743069"
           x="110.98764"
           y="691.6488" />
        <rect
           style="fill:#394050;fill-opacity:1;stroke:none"
           id="rect3945-6-7-5-3"
           width="80.138489"
           height="25.743069"
           x="110.58685"
           y="810.67249" />
      </g>
    </g>
  </g>
</svg>
