<?xml version="1.0" encoding="UTF-8" standalone="no"?>
<svg
   xmlns:dc="http://purl.org/dc/elements/1.1/"
   xmlns:cc="http://creativecommons.org/ns#"
   xmlns:rdf="http://www.w3.org/1999/02/22-rdf-syntax-ns#"
   xmlns:svg="http://www.w3.org/2000/svg"
   xmlns="http://www.w3.org/2000/svg"
   xmlns:sodipodi="http://sodipodi.sourceforge.net/DTD/sodipodi-0.dtd"
   xmlns:inkscape="http://www.inkscape.org/namespaces/inkscape"
   width="48"
   height="48"
   viewBox="0 0 48 48"
   version="1.1"
   id="svg27"
   sodipodi:docname="accessories-notes.svg"
   inkscape:version="0.92.4 (5da689c313, 2019-01-14)">
  <metadata
     id="metadata33">
    <rdf:RDF>
      <cc:Work
         rdf:about="">
        <dc:format>image/svg+xml</dc:format>
        <dc:type
           rdf:resource="http://purl.org/dc/dcmitype/StillImage" />
        <dc:title></dc:title>
      </cc:Work>
    </rdf:RDF>
  </metadata>
  <defs
     id="defs31">
    <linearGradient
       id="linearGradient1142"
       x1="-59.707001"
       x2="-24.212999"
       y1="-182.27"
       y2="-182.27"
       gradientTransform="matrix(1.0000071,0,0,1.0000071,3.4522703,222.81932)"
       gradientUnits="userSpaceOnUse">
      <stop
         stop-color="#1496ff"
         offset="0"
         id="stop7" />
      <stop
         stop-color="#0a78ff"
         offset="1"
         id="stop9" />
    </linearGradient>
    <linearGradient
       id="linearGradient1150"
       x1="-56.875"
       x2="-56.875"
       y1="-185.88"
       y2="-160.88"
       gradientUnits="userSpaceOnUse">
      <stop
         stop-color="#0a82ff"
         offset="0"
         id="stop12" />
      <stop
         stop-color="#0564c8"
         offset="1"
         id="stop14" />
    </linearGradient>
    <linearGradient
       id="linearGradient1164"
       x1="-27.625"
       x2="-27.625"
       y1="-188"
       y2="-160.75"
       gradientUnits="userSpaceOnUse">
      <stop
         stop-color="#004bb9"
         offset="0"
         id="stop17" />
      <stop
         stop-color="#0546b4"
         offset="1"
         id="stop19" />
    </linearGradient>
    <filter
       style="color-interpolation-filters:sRGB"
       id="filter914">
      <feFlood
         flood-color="rgb(0,0,0)"
         flood-opacity=".19608"
         result="flood"
         id="feFlood6" />
      <feComposite
         in="flood"
         in2="SourceGraphic"
         operator="in"
         result="composite1"
         id="feComposite8" />
      <feGaussianBlur
         in="composite1"
         result="blur"
         stdDeviation="1"
         id="feGaussianBlur10" />
      <feOffset
         dx="0"
         dy="1"
         result="offset"
         id="feOffset12" />
      <feComposite
         in="SourceGraphic"
         in2="offset"
         result="composite2"
         id="feComposite14" />
    </filter>
    <filter
       style="color-interpolation-filters:sRGB"
       id="filter914-3">
      <feFlood
         flood-color="rgb(0,0,0)"
         flood-opacity=".19608"
         result="flood"
         id="feFlood6-6" />
      <feComposite
         in="flood"
         in2="SourceGraphic"
         operator="in"
         result="composite1"
         id="feComposite8-7" />
      <feGaussianBlur
         in="composite1"
         result="blur"
         stdDeviation="1"
         id="feGaussianBlur10-5" />
      <feOffset
         dx="0"
         dy="1"
         result="offset"
         id="feOffset12-3" />
      <feComposite
         in="SourceGraphic"
         in2="offset"
         result="composite2"
         id="feComposite14-5" />
    </filter>
    <filter
       style="color-interpolation-filters:sRGB"
       id="filter3957">
      <feFlood
         flood-color="rgb(0,0,0)"
         flood-opacity=".19608"
         result="flood"
         id="feFlood3947" />
      <feComposite
         in="flood"
         in2="SourceGraphic"
         operator="in"
         result="composite1"
         id="feComposite3949" />
      <feGaussianBlur
         in="composite1"
         result="blur"
         stdDeviation="1"
         id="feGaussianBlur3951" />
      <feOffset
         dx="0"
         dy="1"
         result="offset"
         id="feOffset3953" />
      <feComposite
         in="SourceGraphic"
         in2="offset"
         result="composite2"
         id="feComposite3955" />
    </filter>
    <filter
       style="color-interpolation-filters:sRGB"
       id="filter914-1">
      <feFlood
         flood-color="rgb(0,0,0)"
         flood-opacity=".19608"
         result="flood"
         id="feFlood6-2" />
      <feComposite
         in="flood"
         in2="SourceGraphic"
         operator="in"
         result="composite1"
         id="feComposite8-70" />
      <feGaussianBlur
         in="composite1"
         result="blur"
         stdDeviation="1"
         id="feGaussianBlur10-9" />
      <feOffset
         dx="0"
         dy="1"
         result="offset"
         id="feOffset12-36" />
      <feComposite
         in="SourceGraphic"
         in2="offset"
         result="composite2"
         id="feComposite14-0" />
    </filter>
    <filter
       style="color-interpolation-filters:sRGB"
       id="filter4031">
      <feFlood
         flood-color="rgb(0,0,0)"
         flood-opacity=".19608"
         result="flood"
         id="feFlood4021" />
      <feComposite
         in="flood"
         in2="SourceGraphic"
         operator="in"
         result="composite1"
         id="feComposite4023" />
      <feGaussianBlur
         in="composite1"
         result="blur"
         stdDeviation="1"
         id="feGaussianBlur4025" />
      <feOffset
         dx="0"
         dy="1"
         result="offset"
         id="feOffset4027" />
      <feComposite
         in="SourceGraphic"
         in2="offset"
         result="composite2"
         id="feComposite4029" />
    </filter>
    <filter
       style="color-interpolation-filters:sRGB"
       id="filter4043">
      <feFlood
         flood-color="rgb(0,0,0)"
         flood-opacity=".19608"
         result="flood"
         id="feFlood4033" />
      <feComposite
         in="flood"
         in2="SourceGraphic"
         operator="in"
         result="composite1"
         id="feComposite4035" />
      <feGaussianBlur
         in="composite1"
         result="blur"
         stdDeviation="1"
         id="feGaussianBlur4037" />
      <feOffset
         dx="0"
         dy="1"
         result="offset"
         id="feOffset4039" />
      <feComposite
         in="SourceGraphic"
         in2="offset"
         result="composite2"
         id="feComposite4041" />
    </filter>
    <filter
       style="color-interpolation-filters:sRGB"
       id="filter4055">
      <feFlood
         flood-color="rgb(0,0,0)"
         flood-opacity=".19608"
         result="flood"
         id="feFlood4045" />
      <feComposite
         in="flood"
         in2="SourceGraphic"
         operator="in"
         result="composite1"
         id="feComposite4047" />
      <feGaussianBlur
         in="composite1"
         result="blur"
         stdDeviation="1"
         id="feGaussianBlur4049" />
      <feOffset
         dx="0"
         dy="1"
         result="offset"
         id="feOffset4051" />
      <feComposite
         in="SourceGraphic"
         in2="offset"
         result="composite2"
         id="feComposite4053" />
    </filter>
    <filter
       style="color-interpolation-filters:sRGB"
       id="filter4067">
      <feFlood
         flood-color="rgb(0,0,0)"
         flood-opacity=".19608"
         result="flood"
         id="feFlood4057" />
      <feComposite
         in="flood"
         in2="SourceGraphic"
         operator="in"
         result="composite1"
         id="feComposite4059" />
      <feGaussianBlur
         in="composite1"
         result="blur"
         stdDeviation="1"
         id="feGaussianBlur4061" />
      <feOffset
         dx="0"
         dy="1"
         result="offset"
         id="feOffset4063" />
      <feComposite
         in="SourceGraphic"
         in2="offset"
         result="composite2"
         id="feComposite4065" />
    </filter>
    <filter
       style="color-interpolation-filters:sRGB"
       id="filter4079">
      <feFlood
         flood-color="rgb(0,0,0)"
         flood-opacity=".19608"
         result="flood"
         id="feFlood4069" />
      <feComposite
         in="flood"
         in2="SourceGraphic"
         operator="in"
         result="composite1"
         id="feComposite4071" />
      <feGaussianBlur
         in="composite1"
         result="blur"
         stdDeviation="1"
         id="feGaussianBlur4073" />
      <feOffset
         dx="0"
         dy="1"
         result="offset"
         id="feOffset4075" />
      <feComposite
         in="SourceGraphic"
         in2="offset"
         result="composite2"
         id="feComposite4077" />
    </filter>
    <filter
       style="color-interpolation-filters:sRGB"
       id="filter4091">
      <feFlood
         flood-color="rgb(0,0,0)"
         flood-opacity=".19608"
         result="flood"
         id="feFlood4081" />
      <feComposite
         in="flood"
         in2="SourceGraphic"
         operator="in"
         result="composite1"
         id="feComposite4083" />
      <feGaussianBlur
         in="composite1"
         result="blur"
         stdDeviation="1"
         id="feGaussianBlur4085" />
      <feOffset
         dx="0"
         dy="1"
         result="offset"
         id="feOffset4087" />
      <feComposite
         in="SourceGraphic"
         in2="offset"
         result="composite2"
         id="feComposite4089" />
    </filter>
    <filter
       style="color-interpolation-filters:sRGB"
       id="filter4103">
      <feFlood
         flood-color="rgb(0,0,0)"
         flood-opacity=".19608"
         result="flood"
         id="feFlood4093" />
      <feComposite
         in="flood"
         in2="SourceGraphic"
         operator="in"
         result="composite1"
         id="feComposite4095" />
      <feGaussianBlur
         in="composite1"
         result="blur"
         stdDeviation="1"
         id="feGaussianBlur4097" />
      <feOffset
         dx="0"
         dy="1"
         result="offset"
         id="feOffset4099" />
      <feComposite
         in="SourceGraphic"
         in2="offset"
         result="composite2"
         id="feComposite4101" />
    </filter>
    <filter
       style="color-interpolation-filters:sRGB"
       id="filter4115">
      <feFlood
         flood-color="rgb(0,0,0)"
         flood-opacity=".19608"
         result="flood"
         id="feFlood4105" />
      <feComposite
         in="flood"
         in2="SourceGraphic"
         operator="in"
         result="composite1"
         id="feComposite4107" />
      <feGaussianBlur
         in="composite1"
         result="blur"
         stdDeviation="1"
         id="feGaussianBlur4109" />
      <feOffset
         dx="0"
         dy="1"
         result="offset"
         id="feOffset4111" />
      <feComposite
         in="SourceGraphic"
         in2="offset"
         result="composite2"
         id="feComposite4113" />
    </filter>
    <linearGradient
       id="a-3"
       x1="23.983"
       x2="23.983"
       y1="43.000999"
       y2="6.0170002"
       gradientUnits="userSpaceOnUse"
       gradientTransform="matrix(1.1143747,0,0,1.4559937,4.6095283,-1.4346802)">
      <stop
         stop-color="#e8e8e8"
         offset="0"
         id="stop4" />
      <stop
         stop-color="#fff"
         offset="1"
         id="stop6" />
    </linearGradient>
    <filter
       style="color-interpolation-filters:sRGB"
       id="a">
      <feFlood
         flood-color="#908B78"
         flood-opacity=".498"
         result="flood"
         id="feFlood24" />
      <feComposite
         in="flood"
         in2="SourceGraphic"
         operator="in"
         result="composite1"
         id="feComposite26" />
      <feGaussianBlur
         in="composite1"
         result="blur"
         stdDeviation="5"
         id="feGaussianBlur28" />
      <feOffset
         dx="0"
         dy="5"
         result="offset"
         id="feOffset30" />
      <feComposite
         in="SourceGraphic"
         in2="offset"
         result="composite2"
         id="feComposite32" />
    </filter>
    <linearGradient
       id="b"
       x1="47.061001"
       x2="47.061001"
       y1="431.38"
       y2="478.28"
       gradientTransform="scale(2.132,0.46904)"
       gradientUnits="userSpaceOnUse">
      <stop
         stop-color="#CCA46B"
         offset="0"
         id="stop4-3" />
      <stop
         stop-color="#D7B672"
         offset="1"
         id="stop6-6" />
    </linearGradient>
    <filter
       style="color-interpolation-filters:sRGB"
       id="filter3955">
      <feFlood
         flood-color="#908B78"
         flood-opacity=".498"
         result="flood"
         id="feFlood3945" />
      <feComposite
         in="flood"
         in2="SourceGraphic"
         operator="in"
         result="composite1"
         id="feComposite3947" />
      <feGaussianBlur
         in="composite1"
         result="blur"
         stdDeviation="5"
         id="feGaussianBlur3949" />
      <feOffset
         dx="0"
         dy="5"
         result="offset"
         id="feOffset3951" />
      <feComposite
         in="SourceGraphic"
         in2="offset"
         result="composite2"
         id="feComposite3953" />
    </filter>
    <filter
       style="color-interpolation-filters:sRGB"
       id="filter3967">
      <feFlood
         flood-color="#908B78"
         flood-opacity=".498"
         result="flood"
         id="feFlood3957" />
      <feComposite
         in="flood"
         in2="SourceGraphic"
         operator="in"
         result="composite1"
         id="feComposite3959" />
      <feGaussianBlur
         in="composite1"
         result="blur"
         stdDeviation="5"
         id="feGaussianBlur3961" />
      <feOffset
         dx="0"
         dy="5"
         result="offset"
         id="feOffset3963" />
      <feComposite
         in="SourceGraphic"
         in2="offset"
         result="composite2"
         id="feComposite3965" />
    </filter>
    <filter
       style="color-interpolation-filters:sRGB"
       id="c">
      <feFlood
         flood-color="#908B78"
         flood-opacity=".498"
         result="flood"
         id="feFlood35" />
      <feComposite
         in="flood"
         in2="SourceGraphic"
         operator="in"
         result="composite1"
         id="feComposite37" />
      <feGaussianBlur
         in="composite1"
         result="blur"
         stdDeviation="5"
         id="feGaussianBlur39" />
      <feOffset
         dx="0"
         dy="5"
         result="offset"
         id="feOffset41" />
      <feComposite
         in="SourceGraphic"
         in2="offset"
         result="composite2"
         id="feComposite43" />
    </filter>
    <linearGradient
       id="d"
       x1="114.36"
       x2="114.36"
       y1="27.250999"
       y2="114.96"
       gradientTransform="scale(1.0094,0.99069)"
       gradientUnits="userSpaceOnUse">
      <stop
         stop-color="#3E2409"
         offset="0"
         id="stop9-7" />
      <stop
         stop-color="#765720"
         offset="1"
         id="stop11" />
    </linearGradient>
    <linearGradient
       id="e"
       x1="168.60001"
       x2="102.33"
       y1="4.0700002"
       y2="143.69"
       gradientTransform="scale(1.0094,0.99069)"
       gradientUnits="userSpaceOnUse">
      <stop
         stop-color="#351C03"
         offset="0"
         id="stop14-5" />
      <stop
         stop-color="#5B410F"
         offset="1"
         id="stop16" />
    </linearGradient>
    <linearGradient
       id="f"
       x1="164.00999"
       x2="0.86199999"
       y1="11.967"
       y2="175.11"
       gradientTransform="scale(0.97817,1.0223)"
       gradientUnits="userSpaceOnUse">
      <stop
         stop-color="#241400"
         offset="0"
         id="stop19-3" />
      <stop
         stop-color="#53402E"
         offset="1"
         id="stop21" />
    </linearGradient>
  </defs>
  <sodipodi:namedview
     pagecolor="#ffffff"
     bordercolor="#666666"
     borderopacity="1"
     objecttolerance="10"
     gridtolerance="10"
     guidetolerance="10"
     inkscape:pageopacity="0"
     inkscape:pageshadow="2"
     inkscape:window-width="1280"
     inkscape:window-height="954"
     id="namedview29"
     showgrid="false"
     inkscape:zoom="5.828125"
     inkscape:cx="-0.11621407"
     inkscape:cy="14.160832"
     inkscape:window-x="0"
     inkscape:window-y="0"
     inkscape:window-maximized="1"
     inkscape:current-layer="svg27" />
  <g
     transform="matrix(0.19002515,0,0,0.19002515,-0.65556295,-0.24379688)"
     style="fill-rule:evenodd"
     id="g82">
    <g
       style="filter:url(#a)"
       transform="translate(27.667,15.667)"
       id="g52">
      <path
         style="fill:url(#b)"
         inkscape:connector-curvature="0"
         d="m 0.333,180.33 h 200 v 39 a 5,5 0 0 1 -5,5 h -190 a 5,5 0 0 1 -5,-5 z"
         id="path48" />
      <path
         style="fill:#fbe9a9"
         inkscape:connector-curvature="0"
         d="m 5.333,0.333 h 190 a 5,5 0 0 1 5,5 v 165 c 0,13.178 -1.307,22.511 -3.921,28 -9.19,2.376 -22.261,3.71 -39.216,4 H 5.336 a 5,5 0 0 1 -5,-5 v -192 a 5,5 0 0 1 5,-5 z"
         id="path50" />
    </g>
    <g
       style="fill:#c69857;filter:url(#a)"
       id="g70">
      <path
         inkscape:connector-curvature="0"
         d="m 228,215 v 20 a 5,5 0 0 1 -5,5 H 33 a 5,5 0 0 1 -5,-5 v -20 19 a 5,5 0 0 0 5,5 h 190 a 5,5 0 0 0 5,-5 z"
         id="path54" />
      <path
         inkscape:connector-curvature="0"
         d="m 228,212 v 20 a 5,5 0 0 1 -5,5 H 33 a 5,5 0 0 1 -5,-5 v -20 19 a 5,5 0 0 0 5,5 h 190 a 5,5 0 0 0 5,-5 z"
         id="path56" />
      <path
         inkscape:connector-curvature="0"
         d="m 228,209 v 20 a 5,5 0 0 1 -5,5 H 33 a 5,5 0 0 1 -5,-5 v -20 19 a 5,5 0 0 0 5,5 h 190 a 5,5 0 0 0 5,-5 z"
         id="path58" />
      <path
         inkscape:connector-curvature="0"
         d="m 228,206 v 20 a 5,5 0 0 1 -5,5 H 33 a 5,5 0 0 1 -5,-5 v -20 19 a 5,5 0 0 0 5,5 h 190 a 5,5 0 0 0 5,-5 z"
         id="path60" />
      <path
         inkscape:connector-curvature="0"
         d="m 228,203 v 20 a 5,5 0 0 1 -5,5 H 33 a 5,5 0 0 1 -5,-5 v -20 19 a 5,5 0 0 0 5,5 h 190 a 5,5 0 0 0 5,-5 z"
         id="path62" />
      <path
         inkscape:connector-curvature="0"
         d="m 228,200 v 20 a 5,5 0 0 1 -5,5 H 33 a 5,5 0 0 1 -5,-5 v -20 19 a 5,5 0 0 0 5,5 h 190 a 5,5 0 0 0 5,-5 z"
         id="path64" />
      <path
         inkscape:connector-curvature="0"
         d="m 228,197 v 20 a 5,5 0 0 1 -5,5 H 33 a 5,5 0 0 1 -5,-5 v -20 19 a 5,5 0 0 0 5,5 h 190 a 5,5 0 0 0 5,-5 z"
         id="path66" />
      <path
         inkscape:connector-curvature="0"
         d="m 228,104 v 83 c 0,13.178 -1.307,22.511 -3.922,28 -9.189,2.376 -22.26,3.709 -39.216,4 H 33.002 a 5,5 0 0 1 -5,-5 V 117.5 213 a 5,5 0 0 0 5,5 h 151.86 c 16.955,-0.291 30.026,-1.624 39.216,-4 2.615,-5.489 3.922,-14.822 3.922,-28 z"
         id="path68" />
    </g>
    <path
       style="fill:#eccf87;filter:url(#a)"
       inkscape:connector-curvature="0"
       d="m 54.925,137.51 h 10 v 4 h -20 v -4 z m 106,28 h 4 v 4 h -4 z m -12,0 h 4 v 4 h -4 z m -12,0 h 12 v 4 h -12 z m -8,0 h 4 v 4 h -4 z m -12,0 h 4 v 4 h -4 z m -12,0 h 12 v 4 h -12 z m -8,0 h 4 v 4 h -4 z m -20,0 h 12 v 4 h -12 z m -12,0 h 4 v 4 h -4 z m -12,0 h 4 v 4 h -4 z m -8,0 h 4 v 4 h -4 z m -12,0 h 4 v 4 h -4 z m -12,0 h 12 v 4 h -12 z m -8,0 h 4 v 4 h -4 z m -12,0 h 4 v 4 h -4 z m 160,-14 h 4 v 4 h -4 z m -12,0 h 12 v 4 h -12 z m -12,0 h 4 v 4 h -4 z m -8,0 h 4 v 4 h -4 z m -12,0 h 12 v 4 h -12 z m -12,0 h 4 v 4 h -4 z m -8,0 h 4 v 4 h -4 z m -20,0 h 12 v 4 h -12 z m -24,0 h 20 v 4 h -20 z m -8,0 h 4 v 4 h -4 z m -12,0 h 4 v 4 h -4 z m -12,0 h 12 v 4 h -12 z m -8,0 h 4 v 4 h -4 z m -12,0 h 4 v 4 h -4 z m 160,-14 h 4 v 4 h -4 z m -12,0 h 4 v 4 h -4 z m -12,0 h 12 v 4 h -12 z m -8,0 h 4 v 4 h -4 z m -12,0 h 12 v 4 h -12 z m -12,0 h 4 v 4 h -4 z m -8,0 h 4 v 4 h -4 z m -12,0 h 12 v 4 h -12 z m -8,0 h 4 v 4 h -4 z m -12,0 h 4 v 4 h -4 z m -32,0 h 4 v 4 h -4 z m -12,0 h 4 v 4 h -4 z m -8,0 h 4 v 4 h -4 z m -12,0 h 12 v 4 h -12 z m 160,-14 h 4 v 4 h -4 z m -24,0 h 20 v 4 h -20 z m -8,0 h 4 v 4 h -4 z m -12,0 h 4 v 4 h -4 z m -12,0 h 4 v 4 h -4 z m -8,0 h 4 v 4 h -4 z m -12,0 h 12 v 4 h -12 z m -8,0 h 4 v 4 h -4 z m -12,0 h 12 v 4 h -12 z m -12,0 h 4 v 4 h -4 z m -8,0 h 4 v 4 h -4 z m -12,0 h 4 v 4 h -4 z m -20,0 h 12 v 4 h -12 z m -12,0 h 4 v 4 h -4 z m 160,-16 h 4 v 4 h -4 z m -12,0 h 4 v 4 h -4 z m -12,0 h 4 v 4 h -4 z m -20,0 h 20 v 4 h -20 z m -12,0 h 12 v 4 h -12 z m -8,0 h 4 v 4 h -4 z m -12,0 h 4 v 4 h -4 z m -8,0 h 4 v 4 h -4 z m -12,0 h 4 v 4 h -4 z m -12,0 h 4 v 4 h -4 z m -8,0 h 4 v 4 h -4 z m -12,0 h 12 v 4 h -12 z m -12,0 h 4 v 4 h -4 z m -8,0 h 4 v 4 h -4 z m -12,0 h 12 v 4 h -12 z m 160,-16 h 4 v 4 h -4 z m -12,0 h 4 v 4 h -4 z m -20,0 h 12 v 4 h -12 z m -12,0 h 4 v 4 h -4 z m -12,0 h 4 v 4 h -4 z m -8,0 h 4 v 4 h -4 z m -12,0 h 4 v 4 h -4 z m -8,0 h 4 v 4 h -4 z m -12,0 h 4 v 4 h -4 z m -12,0 h 4 v 4 h -4 z m -8,0 h 4 v 4 h -4 z m -12,0 h 4 v 4 h -4 z m -12,0 h 12 v 4 h -12 z m -8,0 h 4 v 4 h -4 z m -12,0 h 4 v 4 h -4 z m 160,-16 h 4 v 4 h -4 z m -24,0 h 20 v 4 h -20 z m -8,0 h 4 v 4 h -4 z m -12,0 h 4 v 4 h -4 z m -12,0 h 4 v 4 h -4 z m -8,0 h 4 v 4 h -4 z m -12,0 h 4 v 4 h -4 z m -8,0 h 4 v 4 h -4 z m -12,0 h 4 v 4 h -4 z m -12,0 h 4 v 4 h -4 z m -8,0 h 4 v 4 h -4 z m -12,0 h 12 v 4 h -12 z m -20,0 h 12 v 4 h -12 z m -12,0 h 4 v 4 h -4 z m 160,-16 h 4 v 4 h -4 z m -12,0 h 12 v 4 h -12 z m -12,0 h 4 v 4 h -4 z m -8,0 h 4 v 4 h -4 z m -12,0 h 4 v 4 h -4 z m -12,0 h 4 v 4 h -4 z m -8,0 h 4 v 4 h -4 z m -12,0 h 4 v 4 h -4 z m -8,0 h 4 v 4 h -4 z m -12,0 h 4 v 4 h -4 z m -12,0 h 4 v 4 h -4 z m -8,0 h 4 v 4 h -4 z m -24,0 h 20 v 4 h -20 z m -8,0 h 4 v 4 h -4 z m -12,0 h 12 v 4 h -12 z m 160,-14 h 4 v 4 h -4 z m -12,0 h 4 v 4 h -4 z m -12,0 h 4 v 4 h -4 z m -8,0 h 4 v 4 h -4 z m -12,0 h 4 v 4 h -4 z m -12,0 h 4 v 4 h -4 z m -8,0 h 4 v 4 h -4 z m -12,0 h 4 v 4 h -4 z m -8,0 h 4 v 4 h -4 z m -32,0 h 32 v 4 h -32 z m -12,0 h 4 v 4 h -4 z m -20,0 h 12 v 4 h -12 z m -12,0 h 12 v 4 h -12 z m 160,-14 h 4 v 4 h -4 z m -12,0 h 4 v 4 h -4 z m -12,0 h 4 v 4 h -4 z m -8,0 h 4 v 4 h -4 z m -12,0 h 4 v 4 h -4 z m -12,0 h 4 v 4 h -4 z m -20,0 h 12 v 4 h -12 z m -8,0 h 4 v 4 h -4 z m -12,0 h 4 v 4 h -4 z m -12,0 h 12 v 4 h -12 z m -20,0 h 4 v 4 h -4 z m -12,0 h 12 v 4 h -12 z m -8,0 h 4 v 4 h -4 z m -12,0 h 12 v 4 h -12 z m 160,-14 h 4 v 4 h -4 z m -12,0 h 4 v 4 h -4 z m -12,0 h 4 v 4 h -4 z m -8,0 h 4 v 4 h -4 z m -12,0 h 4 v 4 h -4 z m -40,0 h 32 v 4 h -32 z m -12,0 h 12 v 4 h -12 z m -20,0 h 12 v 4 h -12 z m -12,0 h 4 v 4 h -4 z m -20,0 h 12 v 4 h -12 z m -12,0 h 12 v 4 h -12 z m 160,-16 h 4 v 4 h -4 z m -12,0 h 4 v 4 h -4 z m -12,0 h 4 v 4 h -4 z m -8,0 h 4 v 4 h -4 z m -12,0 h 4 v 4 h -4 z m -12,0 h 4 v 4 h -4 z m -20,0 h 20 v 4 h -20 z m -8,0 h 4 v 4 h -4 z m -12,0 h 12 v 4 h -12 z m -20,0 h 12 v 4 h -12 z m -12,0 h 4 v 4 h -4 z m -20,0 h 12 v 4 h -12 z m -12,0 h 4 v 4 h -4 z"
       transform="translate(43.075,32.487)"
       id="path72" />
    <g
       style="filter:url(#c)"
       transform="translate(58.188,10.667)"
       id="g80">
      <path
         style="fill:url(#d)"
         inkscape:connector-curvature="0"
         d="m 30.767,137.46 c -0.015,-10.468 0.798,-17.983 2.439,-22.545 -0.032,2.039 0.81,4.198 2.525,6.476 2.574,3.419 2.158,-25.987 12.943,-33.777 0.11,9.21 1.363,15.03 3.76,17.458 3.597,3.64 -6.919,-15.152 5.467,-26.591 12.386,-11.44 63.455,-67.96 94.287,-73.941 30.832,-5.983 23.754,-5.39 20.704,-2.013 -3.05,3.377 3.264,16.47 -4.37,25.128 -7.636,8.659 -14.788,8.659 -14.788,8.659 l 6.295,1.882 c -6.516,18.926 -20.66,37.134 -42.433,54.625 -10.738,10.881 -24.377,14.975 -40.918,12.28 9.027,4.774 15.583,6.955 19.665,6.542 -3.376,6.748 -7.78,12.008 -13.214,15.782 -12.364,0.124 -19.62,-0.17 -21.768,-0.883 8.426,2.51 14.382,3.64 17.867,3.393 5.227,-0.37 -18.141,12.684 -24.347,12.42 -4.138,-0.176 -12.176,-1.808 -24.114,-4.895 z"
         id="path74" />
      <path
         style="fill:url(#e);fill-rule:nonzero"
         inkscape:connector-curvature="0"
         d="m 62.719,126.93 c 1.702,0.564 3.642,1.096 7.394,1.938 2.602,0.456 7.533,1.178 9.115,1.065 5.228,-0.37 -18.14,12.684 -24.347,12.42 -4.137,-0.176 -12.176,-1.808 -24.114,-4.895 -0.015,-10.468 0.798,-17.983 2.439,-22.545 -0.026,1.668 0.533,3.417 1.677,5.246 0.268,0.427 0.545,0.827 0.849,1.23 0.516,0.686 0.912,0.051 1.302,-1.464 1.572,-6.272 3.067,-26.122 11.64,-32.313 0.077,6.433 0.711,11.211 1.903,14.336 0.2,0.955 0.612,2.906 0.645,3.193 0.066,-0.41 0.198,-0.74 0.45,-1.014 0.24,0.357 0.494,0.672 0.763,0.943 1.002,1.015 0.908,0.288 0.52,-1.537 0.244,-0.016 0.471,0.018 0.677,0.087 -0.279,-0.465 -0.731,-1.219 -1.126,-2.212 -1.121,-5.595 -2.408,-15.72 5.395,-22.929 12.386,-11.44 63.455,-67.959 94.287,-73.94 30.832,-5.984 23.754,-5.39 20.704,-2.013 -3.05,3.377 3.265,16.47 -4.37,25.128 -4.063,4.607 -7.99,6.763 -10.774,7.771 l -3.44,-1.029 -0.279,1.902 c -0.128,0.01 -0.226,0.681 -0.295,2.014 0.334,0 0.868,-0.043 1.575,-0.164 a 17.635,17.635 0 0 0 2.482,-0.622 l 2.238,0.67 c -6.515,18.925 -20.66,37.133 -42.433,54.624 -9.449,9.576 -21.145,13.895 -35.088,12.957 -2.27,-0.241 -4.106,-0.45 -5.506,-0.625 -0.227,0 2.856,1.598 4.995,2.594 6.332,2.924 11.114,4.223 14.346,3.896 -3.376,6.748 -7.78,12.008 -13.214,15.782 -3.82,0.038 -7.154,0.037 -9.999,-0.005 -4.254,-0.077 -7.725,-0.24 -10.411,-0.488 z m -28.585,-4.338 a 20.347,20.347 0 0 1 -0.494,-0.685 c -0.538,3.724 -0.83,8.396 -0.869,14 10.976,2.803 18.415,4.287 22.195,4.448 2.295,0.098 8.835,-2.492 15.434,-6.016 a 81.945,81.945 0 0 0 4.543,-2.6 c -3.605,-0.444 -8.31,-1.592 -14.157,-3.333 l 0.604,-1.856 0.541,-1.806 c 1.803,0.597 8.878,0.79 20.553,0.686 4.168,-3.005 7.69,-6.969 10.57,-11.907 -4.351,-0.604 -9.913,-2.602 -17.14,-6.423 l -10.958,-5.936 12.042,1.962 c 15.918,2.593 28.904,-1.304 39.344,-11.866 20.74,-16.66 34.421,-33.919 41.09,-51.755 l -4.272,-1.278 -13.092,-3.916 h 13.666 c 0.113,0 0.421,-0.025 0.899,-0.107 a 14.732,14.732 0 0 0 2.897,-0.836 c 3.135,-1.237 6.36,-3.489 9.49,-7.038 1.9,-2.155 2.927,-4.752 3.3,-7.922 0.262,-2.228 0.213,-4.262 -0.076,-7.87 -0.328,-4.109 -0.411,-6.127 0.061,-7.55 -5.31,1.047 -13.385,2.668 -17.737,3.512 -9.365,1.817 -21.446,8.695 -35.696,19.79 -6.478,5.044 -13.294,10.871 -20.483,17.443 -11.302,10.332 -37.443,36.502 -37.132,36.214 -2.548,2.354 -4.148,5.161 -4.96,8.387 -0.957,3.802 -0.793,7.756 0.11,12.384 0.049,0.247 0.722,3.388 0.788,3.966 0.04,0.346 0.048,0.64 0.003,0.948 -0.117,0.793 -0.55,1.524 -1.524,1.811 -0.78,0.23 -1.375,0.032 -1.934,-0.344 a 4.783,4.783 0 0 1 -0.73,-0.625 c -2.374,-2.404 -3.7,-7.04 -4.16,-14.025 -1.876,2.783 -3.413,6.742 -4.675,11.746 -1.016,4.03 -2.988,15.34 -3.14,15.965 -0.275,1.133 -0.541,1.886 -0.955,2.456 -1.053,1.449 -2.906,1.359 -3.947,-0.024 z"
         id="path76" />
      <path
         style="fill:url(#f)"
         inkscape:connector-curvature="0"
         d="M 0.843,178.41 C 26.886,126.8 80.082,71.41 160.433,12.23 84.059,75.421 38.533,121.5 23.843,150.46 c -5.608,11.06 -11.43,22.788 -13.752,24.585 -4.764,3.685 -7.846,4.805 -9.247,3.36 z"
         id="path78" />
    </g>
  </g>
</svg>
