<?xml version="1.0" encoding="UTF-8" standalone="no"?>
<svg
   xmlns:dc="http://purl.org/dc/elements/1.1/"
   xmlns:cc="http://creativecommons.org/ns#"
   xmlns:rdf="http://www.w3.org/1999/02/22-rdf-syntax-ns#"
   xmlns:svg="http://www.w3.org/2000/svg"
   xmlns="http://www.w3.org/2000/svg"
   xmlns:sodipodi="http://sodipodi.sourceforge.net/DTD/sodipodi-0.dtd"
   xmlns:inkscape="http://www.inkscape.org/namespaces/inkscape"
   version="1.1"
   id="Layer_1"
   x="0px"
   y="0px"
   width="48"
   height="48"
   viewBox="0 0 48 48"
   enable-background="new 0 0 100 100"
   xml:space="preserve"
   inkscape:version="0.92.4 (5da689c313, 2019-01-14)"
   sodipodi:docname="accessories-painting.svg"><metadata
     id="metadata8"><rdf:RDF><cc:Work
         rdf:about=""><dc:format>image/svg+xml</dc:format><dc:type
           rdf:resource="http://purl.org/dc/dcmitype/StillImage" /><dc:title></dc:title></cc:Work></rdf:RDF></metadata><defs
     id="defs6" /><sodipodi:namedview
     pagecolor="#ffffff"
     bordercolor="#666666"
     borderopacity="1"
     objecttolerance="10"
     gridtolerance="10"
     guidetolerance="10"
     inkscape:pageopacity="0"
     inkscape:pageshadow="2"
     inkscape:window-width="1280"
     inkscape:window-height="954"
     id="namedview4"
     showgrid="false"
     inkscape:zoom="4"
     inkscape:cx="31.625856"
     inkscape:cy="36.265359"
     inkscape:window-x="0"
     inkscape:window-y="0"
     inkscape:window-maximized="1"
     inkscape:current-layer="Layer_1" /><g
     id="g3904"
     transform="matrix(0.7220217,0,0,0.7220217,0.86461843,12.511591)"><g
       transform="translate(70.415999,-98.644553)"
       id="g3918"><path
         id="Palette_1_"
         d="m -16.592351,133.9157 c -0.102171,-2.41959 -3.73941,-9.61426 -3.65356,-12.40627 0.09795,-3.16565 2.012692,-7.06468 5.999383,0.55744 2.388749,4.5677 6.0556141,1.7255 6.5005981,-0.49698 1.344008,-6.72308 -0.651755,-14.78715 -7.0078511,-22.688586 -10.993932,-13.664428 -30.317957,-17.417137 -43.150458,-8.380882 -12.831896,9.03747 -13.090057,29.388088 -1.380288,41.182508 10.613643,10.6868 25.250857,15.38389 37.489044,10.23335 1.265415,-0.53506 5.452829,-2.17412 5.203132,-8.00058 z M -50.968339,94.294249 c 2.315593,-1.63059 5.513894,-1.076176 7.145694,1.240628 1.631797,2.316197 1.075571,5.515103 -1.240024,7.145693 -2.317407,1.6318 -5.515103,1.07618 -7.146901,-1.24002 -1.631799,-2.3162 -1.076782,-5.513899 1.241231,-7.146301 z m -9.998771,20.842161 c -1.630589,-2.3162 -1.074363,-5.51511 1.24123,-7.1457 2.314385,-1.63058 5.515105,-1.07738 7.145694,1.23882 1.631798,2.3168 1.074364,5.51631 -1.240022,7.1469 -2.315595,1.6312 -5.515708,1.0786 -7.146902,-1.24002 z m 24.894146,-13.34882 c -1.633007,-2.316206 -1.076781,-5.516321 1.240022,-7.14691 2.316198,-1.630588 5.513894,-1.075573 7.146902,1.241231 1.63059,2.315593 1.074968,5.513899 -1.241231,7.145699 -2.316198,1.63119 -5.514499,1.07678 -7.145693,-1.24002 z m -17.348817,26.43888 c -1.63059,-2.31801 -1.076175,-5.51813 1.239417,-7.14872 2.3162,-1.63059 5.516313,-1.07557 7.146903,1.24002 1.630588,2.31681 1.076176,5.51692 -1.240022,7.14751 -2.315594,1.6318 -5.515105,1.07557 -7.146298,-1.23881 z"
         inkscape:connector-curvature="0"
         style="fill:#1875c5;fill-opacity:1;stroke-width:0.1343545" /><path
         id="Palette_1_-3"
         d="m -18.183341,132.76665 c -0.10217,-2.41959 -3.73941,-9.61425 -3.65356,-12.40627 0.0979,-3.16565 2.01269,-7.06467 5.99938,0.55744 2.38875,4.56771 6.0556197,1.72551 6.5005997,-0.49697 1.34401,-6.72309 -0.65176,-14.78716 -7.0078497,-22.688591 -10.99393,-13.664428 -30.317962,-17.417137 -43.150462,-8.380882 -12.831896,9.03747 -13.090057,29.388093 -1.380288,41.182503 10.613642,10.6868 25.25086,15.38389 37.48905,10.23335 1.26541,-0.53506 5.45283,-2.17412 5.20313,-8.00058 z M -52.559334,93.145204 c 2.315593,-1.63059 5.513894,-1.076176 7.145694,1.240628 1.631797,2.316197 1.075571,5.515099 -1.240024,7.145688 -2.317407,1.6318 -5.515103,1.07618 -7.146901,-1.24002 -1.631799,-2.316195 -1.076782,-5.513894 1.241231,-7.146296 z m -9.998771,20.842156 c -1.630588,-2.31619 -1.074362,-5.5151 1.241231,-7.14569 2.314385,-1.63059 5.515104,-1.07739 7.145693,1.23881 1.631798,2.3168 1.074364,5.51631 -1.240022,7.1469 -2.315595,1.6312 -5.515707,1.0786 -7.146902,-1.24002 z m 24.894144,-13.34882 c -1.633005,-2.316201 -1.07678,-5.516316 1.24003,-7.146905 2.3162,-1.630588 5.51389,-1.075573 7.1469,1.241231 1.63059,2.315593 1.07497,5.513894 -1.24123,7.145694 -2.3162,1.63119 -5.5145,1.07678 -7.1457,-1.24002 z m -17.348815,26.43888 c -1.63059,-2.31801 -1.076175,-5.51813 1.239417,-7.14871 2.3162,-1.63059 5.516313,-1.07558 7.146903,1.24002 1.630588,2.3168 1.076176,5.51692 -1.240022,7.1475 -2.315594,1.6318 -5.515105,1.07558 -7.146298,-1.23881 z"
         inkscape:connector-curvature="0"
         style="fill:#62a1d3;fill-opacity:1;stroke-width:0.1343545" /></g><g
       transform="matrix(0.13435451,0,0,0.13435451,-21.335823,28.935714)"
       id="g3344" /><g
       transform="matrix(0.13435451,0,0,0.13435451,-21.335823,28.935714)"
       id="g3346" /><g
       transform="matrix(0.13435451,0,0,0.13435451,-21.335823,28.935714)"
       id="g3348" /><g
       transform="matrix(0.13435451,0,0,0.13435451,-21.335823,28.935714)"
       id="g3350" /><g
       transform="matrix(0.13435451,0,0,0.13435451,-21.335823,28.935714)"
       id="g3352" /><g
       transform="matrix(0.13435451,0,0,0.13435451,-21.335823,28.935714)"
       id="g3354" /><g
       transform="matrix(0.13435451,0,0,0.13435451,-21.335823,28.935714)"
       id="g3356" /><g
       transform="matrix(0.13435451,0,0,0.13435451,-21.335823,28.935714)"
       id="g3358" /><g
       transform="matrix(0.13435451,0,0,0.13435451,-21.335823,28.935714)"
       id="g3360" /><g
       transform="matrix(0.13435451,0,0,0.13435451,-21.335823,28.935714)"
       id="g3362" /><g
       transform="matrix(0.13435451,0,0,0.13435451,-21.335823,28.935714)"
       id="g3364" /><g
       transform="matrix(0.13435451,0,0,0.13435451,-21.335823,28.935714)"
       id="g3366" /><g
       transform="matrix(0.13435451,0,0,0.13435451,-21.335823,28.935714)"
       id="g3368" /><g
       transform="matrix(0.13435451,0,0,0.13435451,-21.335823,28.935714)"
       id="g3370" /><g
       transform="matrix(0.13435451,0,0,0.13435451,-21.335823,28.935714)"
       id="g3372" /><g
       transform="translate(-1.2499999,-16.25)"
       id="g3914"><path
         style="fill:#ffcc00;fill-opacity:1;stroke:none;stroke-width:0.1343545"
         d="m 20.235275,20.440583 c -2.623238,-0.821037 -4.402411,-3.804293 -3.8381,-6.435584 0.282289,-1.316268 0.822653,-2.28746 1.761153,-3.165318 1.242041,-1.1617821 2.143872,-1.5126241 3.888203,-1.5126241 1.748617,0 2.646051,0.3507373 3.900991,1.5245861 3.117572,2.916124 2.001206,8.155486 -2.04164,9.58188 -0.857858,0.302672 -2.714716,0.306244 -3.670607,0.007 z"
         id="path4250"
         inkscape:connector-curvature="0" /><path
         style="fill:#00bbf2;fill-opacity:1;stroke:none;stroke-width:0.1343545"
         d="m 36.23347,20.745379 c -2.518732,-0.788331 -4.227026,-3.652735 -3.685195,-6.1792 0.271041,-1.263825 0.789879,-2.196331 1.690991,-3.039218 1.19256,-1.1155 2.058461,-1.452361 3.733302,-1.452361 1.678956,0 2.540636,0.336766 3.745582,1.463851 2.993372,2.799945 1.921478,7.830578 -1.960305,9.200155 -0.823681,0.290609 -2.606565,0.294035 -3.524375,0.0068 z"
         id="path4250-8"
         inkscape:connector-curvature="0" /><path
         style="fill:#45d03f;fill-opacity:1;stroke:none;stroke-width:0.1343545"
         d="M 11.69666,34.14278 C 9.1779304,33.35445 7.469636,30.490045 8.0114655,27.963581 c 0.2710421,-1.26383 0.7898799,-2.196331 1.6909919,-3.039218 1.1925596,-1.1155 2.0584606,-1.45236 3.7333006,-1.45236 1.678956,0 2.540639,0.33676 3.745584,1.463844 2.993372,2.799952 1.92148,7.830583 -1.960305,9.200155 -0.823681,0.290614 -2.606565,0.294041 -3.524377,0.0068 z"
         id="path4250-0"
         inkscape:connector-curvature="0" /><path
         style="fill:#c83771;fill-opacity:1;stroke:none;stroke-width:0.1343545"
         d="m 18.922225,47.239113 c -2.518731,-0.78833 -4.227025,-3.652736 -3.685195,-6.179199 0.271041,-1.263827 0.789879,-2.196333 1.69099,-3.039219 1.192561,-1.115499 2.058464,-1.452359 3.733305,-1.452359 1.678953,0 2.540636,0.33676 3.74558,1.463849 2.993371,2.799947 1.921479,7.830578 -1.960305,9.200151 -0.823681,0.290612 -2.606565,0.294039 -3.524375,0.0068 z"
         id="path4250-5"
         inkscape:connector-curvature="0" /></g><path
       style="fill:#cccccc;stroke-width:0.1343545"
       d="m 22.726066,45.969904 c -0.799366,-0.08727 -1.650102,-0.258782 -2.445596,-0.493055 -0.158567,-0.04673 -0.288304,-0.09914 -0.288304,-0.116534 0,-0.01739 0.17779,-0.135836 0.395084,-0.263228 2.117483,-1.241311 3.609958,-2.573665 4.446919,-3.969805 0.308028,-0.513823 0.70844,-1.417546 1.257302,-2.837697 1.036708,-2.682422 1.420691,-3.435307 2.221286,-4.355313 0.736386,-0.846223 1.925904,-1.670631 3.10326,-2.150753 0.475419,-0.193875 1.206578,-0.412764 1.516341,-0.453941 0.251192,-0.03341 0.244339,-0.0219 0.688188,-1.151945 0.784668,-1.997714 1.787829,-4.167915 2.760338,-5.971594 0.701834,-1.301662 0.982542,-1.777944 1.03968,-1.764034 0.03987,0.0097 3.824299,2.305661 4.579687,2.778429 0.193844,0.121317 0.224171,0.04823 -0.382077,0.920639 -1.26421,1.819187 -2.936049,3.913882 -4.667691,5.848283 -0.365102,0.40785 -0.680193,0.77082 -0.700199,0.806611 -0.0231,0.04135 0.0031,0.184667 0.07148,0.392844 0.211833,0.643687 0.262643,0.997991 0.26187,1.826028 -8.37e-4,0.96281 -0.08829,1.465817 -0.412744,2.375795 -0.256829,0.720304 -0.648059,1.401848 -1.57267,2.739658 -0.612681,0.886481 -1.925479,2.271095 -2.897796,3.05633 -1.388113,1.121012 -2.958085,1.959661 -4.502641,2.405224 -1.383742,0.399174 -3.014976,0.537084 -4.471721,0.378058 z m 13.002812,-13.40002 c 0.03769,-0.01451 0.319003,-0.306514 0.625149,-0.648941 0.451591,-0.505098 0.546114,-0.632594 0.500901,-0.675656 -0.111098,-0.105798 -2.321401,-1.615832 -2.393633,-1.63527 -0.08569,-0.02306 -0.122676,0.05339 -0.508481,1.051115 l -0.253179,0.654724 0.13941,0.262147 c 0.332611,0.625433 0.930953,0.98962 1.664636,1.013198 0.08617,0.003 0.187509,-0.0068 0.225197,-0.02131 z m 2.222635,-2.488328 c 0.411683,-0.488406 0.742123,-0.907385 0.734314,-0.931053 -0.02003,-0.06068 -3.32351,-1.612347 -3.383529,-1.589266 -0.06456,0.02482 -0.744678,1.563799 -0.718788,1.626474 0.02552,0.06179 2.497352,1.774494 2.567083,1.778694 0.02881,0.0019 0.389238,-0.396445 0.80092,-0.884849 z m 1.419975,-1.733927 c 0.585556,-0.744109 0.908708,-1.17897 0.908708,-1.222834 0,-0.04849 -3.365732,-2.539241 -3.46727,-2.565879 -0.05681,-0.01492 -0.205525,0.250114 -0.716557,1.277019 -0.45786,0.920066 -0.631648,1.309196 -0.59931,1.341919 0.04354,0.04406 3.406809,1.643801 3.466594,1.648896 0.01591,0.0015 0.199404,-0.214253 0.407835,-0.479121 z m 1.535418,-2.054743 c 0.58148,-0.823565 0.544694,-0.760246 0.478624,-0.82373 -0.0324,-0.03115 -0.902381,-0.57037 -1.933313,-1.198321 -1.545645,-0.941475 -1.883984,-1.131757 -1.928975,-1.084847 -0.03002,0.03131 -0.165459,0.256243 -0.300998,0.499896 -0.175126,0.314825 -0.234908,0.460429 -0.2066,0.503209 0.05409,0.08177 3.444547,2.58186 3.504,2.583819 0.02598,9.43e-4 0.200248,-0.215157 0.387262,-0.480026 z"
       id="path3373"
       inkscape:connector-curvature="0" /><path
       sodipodi:nodetypes="ssssssssscsssccsss"
       style="fill:#f03916;fill-opacity:1;stroke-width:0.1343545"
       d="m 22.844832,46.01015 c -0.502479,-0.05093 -1.145413,-0.151616 -1.626249,-0.254706 -0.488817,-0.104794 -1.305281,-0.339677 -1.305281,-0.375499 0,-0.01502 0.200457,-0.19067 0.43866,-0.334731 2.039667,-1.233586 3.523648,-2.418521 4.355208,-3.765356 0.310533,-0.502946 0.66255,-1.237594 0.985602,-2.056922 1.09408,-2.774826 1.448088,-3.606835 1.534665,-3.606835 0.04053,0 0.117845,0.230601 0.384456,1.146718 0.238224,0.818565 0.523074,1.379481 0.83223,1.638768 0.253469,0.21259 0.570058,0.326079 0.903264,0.323798 0.418811,-0.0025 0.778025,-0.101565 1.672003,-0.459369 0.920378,-0.36837 1.193221,-0.443386 1.612816,-0.443386 0.42447,0 0.668799,0.121101 1.03447,0.51271 0.405429,0.434192 0.729048,1.107616 0.819417,1.705131 0.02501,0.165168 0.01412,0.218679 -0.06842,0.336538 -0.247822,0.450711 -0.954236,1.198036 -1.530817,1.780679 -2.155192,2.177843 -4.567414,3.36493 -7.260288,3.774951 -0.642619,0.09784 -2.163051,0.140214 -2.78174,0.07752 z"
       id="path3367"
       inkscape:connector-curvature="0" /><path
       id="path3375"
       d="m 61.531271,-11.390011 c -0.199394,2.67e-4 -0.331049,0.02858 -0.501315,0.107861 -0.560203,0.260769 -0.964043,0.626955 -2.290867,2.076668 -5.488203,5.996518 -9.370391,10.975106 -12.804846,16.421919 -2.254696,3.575791 -4.172749,6.978356 -7.427085,13.175517 -0.594408,1.131907 -1.115187,2.096072 -1.157585,2.14275 -0.04239,0.04667 -0.22825,0.352314 -0.413206,0.679057 -1.265572,2.23568 -2.41985,4.655849 -3.359581,7.044257 -0.447686,1.137831 -0.368483,1.03558 -0.894774,1.151506 -1.535381,0.338217 -3.15794,1.241031 -4.210301,2.342517 -0.871904,0.912617 -1.282965,1.690598 -2.365305,4.476913 -0.647745,1.667526 -0.779265,1.973744 -1.093019,2.549118 -0.874933,1.604485 -2.178184,2.818981 -4.517929,4.210303 -0.249554,0.148392 -0.464355,0.287408 -0.477767,0.309149 -0.01069,0.01723 0.05082,0.04868 0.151153,0.08659 0.05387,-0.03387 0.10109,-0.06541 0.165587,-0.103293 2.109615,-1.239176 3.596727,-2.568948 4.430575,-3.962686 0.306886,-0.512934 0.705706,-1.414734 1.252533,-2.832437 1.032852,-2.6778 1.41577,-3.429364 2.213389,-4.347783 0.733649,-0.844764 1.918468,-1.668013 3.091451,-2.147306 0.495559,-0.202496 1.226309,-0.418582 1.541169,-0.455745 0.124054,-0.01462 0.243128,-0.04828 0.26433,-0.07444 0.02123,-0.02618 0.181691,-0.413564 0.357,-0.861357 0.663852,-1.69564 1.352065,-3.236212 2.203515,-4.93341 0.496435,-0.989551 1.486984,-2.829679 1.573071,-2.922067 0.03539,-0.03798 4.679714,2.775304 4.679714,2.834718 0,0.05142 -0.862774,1.287208 -1.455339,2.085023 -0.49995,0.673118 -1.095749,1.430468 -1.724223,2.198196 0.242576,-0.290709 0.523144,-0.621209 0.694248,-0.83401 0.863184,-1.073532 2.470178,-3.291754 2.588618,-3.573023 0.03138,-0.07452 0.480092,-0.723443 0.997315,-1.442421 1.80041,-2.502727 4.301913,-6.027221 5.295728,-7.460504 5.222358,-7.531717 8.414717,-13.267992 11.736131,-21.089486 0.727085,-1.7122005 1.711365,-4.1547981 1.870063,-4.6409744 0.342093,-1.0479356 0.348032,-1.7217956 0.01749,-2.0523616 -0.151264,-0.151273 -0.173866,-0.15914 -0.429913,-0.158753 z M 37.408818,23.288193 c -0.02941,0.01135 -0.183242,0.255142 -0.341805,0.542329 -0.220284,0.398975 -0.278227,0.538439 -0.2461,0.590949 0.05176,0.0846 3.506259,2.651962 3.569981,2.653183 0.02516,4.03e-4 0.08513,-0.04205 0.132926,-0.09495 0.178634,-0.197623 0.870557,-1.230043 0.855277,-1.276078 -8.37e-4,-0.0021 -0.05949,-0.03828 -0.06532,-0.04331 -0.01384,0.06144 -0.115931,0.206344 -0.498278,0.74666 -0.185798,0.26256 -0.359278,0.476344 -0.3851,0.47549 -0.05906,-0.0021 -3.427367,-2.480207 -3.481117,-2.561271 -0.02812,-0.04241 0.03111,-0.186203 0.205087,-0.498279 0.134657,-0.241525 0.269442,-0.464985 0.299271,-0.495999 0.0031,-0.0036 0.01233,-0.0025 0.01899,-0.003 -0.006,-0.0025 -0.06231,-0.03627 -0.06381,-0.03572 z m -0.746657,1.402926 c -0.08597,0.01884 -0.200116,0.238374 -0.790712,1.430269 -0.343293,0.692802 -0.569704,1.198346 -0.561323,1.254053 0.01428,0.09484 0.281518,0.228673 2.821047,1.412042 l 0.721593,0.336493 0.101025,-0.09496 c 0.05538,-0.05219 0.347327,-0.416797 0.649433,-0.81046 0.658455,-0.858024 0.673545,-0.871519 0.573475,-0.963132 -0.02107,0.06744 -0.324523,0.476272 -0.886417,1.188723 -0.207072,0.262561 -0.389821,0.476095 -0.40561,0.474733 -0.0594,-0.005 -3.400633,-1.590924 -3.443894,-1.634593 -0.03213,-0.03246 0.140626,-0.417979 0.595503,-1.330007 0.454572,-0.911421 0.614847,-1.202246 0.685134,-1.245699 -0.0015,-5.38e-4 -0.02193,-0.01572 -0.0228,-0.01593 -0.01241,-0.0036 -0.02419,-0.004 -0.03644,-0.0015 z m -1.478882,2.983593 c -0.08618,-9.43e-4 -0.78759,1.577253 -0.765648,1.72271 0.01522,0.100874 2.528675,1.866224 2.638751,1.853352 0.04008,-0.0045 0.418647,-0.420959 0.841603,-0.925157 0.422948,-0.504206 0.763309,-0.94602 0.756532,-0.981365 -4.03e-4,-0.0025 -0.07605,-0.03954 -0.08735,-0.04707 -0.05121,0.08875 -0.320073,0.429424 -0.688171,0.865154 -0.409003,0.48414 -0.766647,0.879054 -0.795269,0.877301 -0.06928,-0.004 -2.525287,-1.701699 -2.550642,-1.762964 -0.02493,-0.06026 0.599734,-1.473188 0.696527,-1.582181 -0.0048,-0.0015 -0.04398,-0.01974 -0.04633,-0.01974 z m -0.859077,2.074386 c -0.09828,-0.0025 -0.129629,0.05614 -0.432954,0.808945 -0.179934,0.446565 -0.328758,0.870738 -0.330415,0.94263 -0.0039,0.161408 0.234223,0.570254 0.478531,0.822612 0.390926,0.403834 1.100758,0.623376 1.614087,0.49828 0.05266,-0.01281 0.335617,-0.293923 0.628168,-0.624368 0.588778,-0.665043 0.602129,-0.683709 0.56056,-0.74742 -0.0031,-0.0044 -0.05662,-0.04164 -0.06685,-0.05089 -0.04464,0.08554 -0.177448,0.246055 -0.483087,0.587145 -0.304152,0.339437 -0.583879,0.628991 -0.621327,0.64336 -0.03745,0.01436 -0.137707,0.02402 -0.223314,0.02125 -0.728905,-0.02337 -1.323902,-0.38494 -1.654347,-1.004914 l -0.13824,-0.259769 0.25142,-0.648676 c 0.257141,-0.6635 0.354835,-0.90002 0.41928,-0.987439 -8.4e-5,-4e-6 -0.0015,-5.37e-4 -0.0015,-5.37e-4 z m 4.031802,0.600062 c -0.06711,0.08059 -0.134512,0.160355 -0.202046,0.240784 0.07617,-0.08958 0.126572,-0.151496 0.202046,-0.240784 z m -2.157941,2.518738 c -0.07582,0.09994 -0.119657,0.167694 -0.113174,0.186855 0.01252,0.03703 0.07068,0.202346 0.128368,0.366871 0.203219,0.579537 0.258268,0.965304 0.257495,1.794871 -8.37e-4,0.961149 -0.08768,1.462964 -0.410927,2.371375 -0.0459,0.12899 -0.103466,0.259164 -0.160271,0.389664 0.128843,-0.272728 0.240178,-0.538698 0.322058,-0.789195 0.258866,-0.791971 0.340341,-1.309685 0.338007,-2.156425 -0.0023,-0.805337 -0.07191,-1.254033 -0.286359,-1.84348 -0.05258,-0.144542 -0.08014,-0.271591 -0.07519,-0.320536 z"
       style="fill:#d38d5f;stroke-width:0.1343545"
       inkscape:connector-curvature="0" /><path
       inkscape:connector-curvature="0"
       id="path3389"
       d="m 34.967252,32.621913 c -0.27771,-0.07658 -0.602609,-0.265552 -0.80575,-0.468637 -0.175395,-0.175351 -0.466424,-0.623645 -0.467459,-0.720067 -0.0012,-0.100529 0.632725,-1.643426 0.68303,-1.662728 0.07846,-0.0301 2.351446,1.50676 2.394532,1.619048 0.02341,0.06101 -0.164846,0.297953 -0.723871,0.911024 l -0.347475,0.381071 -0.271596,-0.0035 c -0.149376,-0.0019 -0.357015,-0.02722 -0.461411,-0.05603 z"
       style="fill:#999999;fill-opacity:1;stroke:#999999;stroke-width:0.35001019;stroke-miterlimit:4;stroke-dasharray:none;stroke-dashoffset:0;stroke-opacity:1" /><path
       inkscape:connector-curvature="0"
       id="path4199"
       d="m 36.369976,30.430912 c -0.990738,-0.679051 -1.675094,-1.166845 -1.730217,-1.233258 -0.03267,-0.03933 0.01606,-0.194633 0.187388,-0.597365 0.127338,-0.2993 0.286132,-0.652367 0.35288,-0.784597 0.113397,-0.224631 0.128061,-0.237859 0.223478,-0.201586 0.226609,0.08615 1.536914,0.693253 2.377292,1.101457 l 0.893456,0.433984 -0.231836,0.293247 c -0.337701,0.427153 -1.052523,1.263756 -1.192281,1.395406 l -0.12042,0.11344 z"
       style="fill:#999999;fill-opacity:1;stroke:#999999;stroke-width:0.03707735;stroke-miterlimit:4;stroke-dasharray:none;stroke-dashoffset:0;stroke-opacity:1" /><path
       inkscape:connector-curvature="0"
       id="path4201"
       d="m 37.999663,28.363575 c -1.614083,-0.763431 -2.492422,-1.195071 -2.492422,-1.224844 0,-0.05564 0.629427,-1.355706 0.894418,-1.847388 0.147901,-0.274426 0.296331,-0.550871 0.329856,-0.614325 0.07382,-0.13975 -0.04658,-0.209836 1.181309,0.687697 1.358236,0.992816 2.330712,1.730448 2.331435,1.768414 8.37e-4,0.04185 -0.942263,1.285148 -1.147115,1.512327 l -0.14995,0.166282 z"
       style="fill:#999999;fill-opacity:1;stroke:#999999;stroke-width:0.03707735;stroke-miterlimit:4;stroke-dasharray:none;stroke-dashoffset:0;stroke-opacity:1" /><path
       inkscape:connector-curvature="0"
       id="path4203"
       d="M 39.499989,26.023836 C 38.096981,25.00591 37.03153,24.19687 37.03153,24.149432 c 0,-0.112655 0.485271,-0.943378 0.55056,-0.942494 0.108421,0.0015 3.816331,2.249772 3.816331,2.314041 0,0.03894 -0.717509,1.051824 -0.820588,1.158399 -0.06894,0.07127 -0.112999,0.04446 -1.077844,-0.655542 z"
       style="fill:#999999;fill-opacity:1;stroke:#999999;stroke-width:0.07583554;stroke-miterlimit:4;stroke-dasharray:none;stroke-dashoffset:0;stroke-opacity:1" /></g></svg>