<?xml version="1.0" encoding="UTF-8" standalone="no"?>
<svg
   xmlns:dc="http://purl.org/dc/elements/1.1/"
   xmlns:cc="http://creativecommons.org/ns#"
   xmlns:rdf="http://www.w3.org/1999/02/22-rdf-syntax-ns#"
   xmlns:svg="http://www.w3.org/2000/svg"
   xmlns="http://www.w3.org/2000/svg"
   xmlns:sodipodi="http://sodipodi.sourceforge.net/DTD/sodipodi-0.dtd"
   xmlns:inkscape="http://www.inkscape.org/namespaces/inkscape"
   viewBox="0 0 47.999999 47.999999"
   height="48"
   width="48"
   version="1.1"
   id="svg2"
   inkscape:version="0.92.4 (5da689c313, 2019-01-14)"
   sodipodi:docname="agenda.svg">
  <sodipodi:namedview
     pagecolor="#ffffff"
     bordercolor="#666666"
     borderopacity="1"
     objecttolerance="10"
     gridtolerance="10"
     guidetolerance="10"
     inkscape:pageopacity="0"
     inkscape:pageshadow="2"
     inkscape:window-width="1280"
     inkscape:window-height="954"
     id="namedview18"
     showgrid="false"
     inkscape:zoom="6.4999999"
     inkscape:cx="18.644418"
     inkscape:cy="22.036157"
     inkscape:window-x="0"
     inkscape:window-y="0"
     inkscape:window-maximized="1"
     inkscape:current-layer="svg2" />
  <metadata
     id="metadata8">
    <rdf:RDF>
      <cc:Work
         rdf:about="">
        <dc:format>image/svg+xml</dc:format>
        <dc:type
           rdf:resource="http://purl.org/dc/dcmitype/StillImage" />
        <dc:title></dc:title>
      </cc:Work>
    </rdf:RDF>
  </metadata>
  <defs
     id="defs6">
    <filter
       height="1.096"
       y="-0.048"
       width="1.096"
       x="-0.048"
       id="filter4329"
       style="color-interpolation-filters:sRGB">
      <feGaussianBlur
         id="feGaussianBlur4331"
         stdDeviation="2.1324205" />
    </filter>
    <filter
       height="1.0327445"
       y="-0.016372267"
       width="1.0399742"
       x="-0.019987123"
       id="filter4376"
       style="color-interpolation-filters:sRGB">
      <feGaussianBlur
         id="feGaussianBlur4378"
         stdDeviation="1.1736058" />
    </filter>
    <filter
       height="1.0570984"
       y="-0.0285492"
       width="1.0632123"
       x="-0.031606145"
       id="filter4436"
       style="color-interpolation-filters:sRGB">
      <feGaussianBlur
         id="feGaussianBlur4438"
         stdDeviation="0.63519096" />
    </filter>
    <clipPath
       id="clipPath13429">
      <path
         inkscape:connector-curvature="0"
         d="m 481,318 h 22 v 22 h -22 z"
         id="path2" />
    </clipPath>
    <clipPath
       id="clipPath13465">
      <path
         inkscape:connector-curvature="0"
         d="m 507,318 h 22 v 22 h -22 z"
         id="path5" />
    </clipPath>
    <clipPath
       id="clipPath13501">
      <path
         inkscape:connector-curvature="0"
         d="m 530,318 h 22 v 22 h -22 z"
         id="path8" />
    </clipPath>
    <clipPath
       id="clipPath13753">
      <path
         inkscape:connector-curvature="0"
         d="m 672,1064 c 0,-1.105 4.925,-2 11,-2 6.075,0 11,0.895 11,2 0,1.105 -4.925,2 -11,2 -6.075,0 -11,-0.895 -11,-2"
         id="path11" />
    </clipPath>
    <clipPath
       id="clipPath13771">
      <path
         inkscape:connector-curvature="0"
         d="m 660,1057 h 51 v 65.001 h -51 z"
         id="path14" />
    </clipPath>
    <clipPath
       id="clipPath14035">
      <path
         inkscape:connector-curvature="0"
         d="m 659,517 h 53 v 18 h -53 z"
         id="path17" />
    </clipPath>
    <clipPath
       id="clipPath14127">
      <path
         inkscape:connector-curvature="0"
         d="m 659,500 h 53 v 18 h -53 z"
         id="path20" />
    </clipPath>
    <clipPath
       id="clipPath14445">
      <path
         inkscape:connector-curvature="0"
         d="m 648,112 h 73 v 60 h -73 z"
         id="path23" />
    </clipPath>
    <clipPath
       id="clipPath14609">
      <path
         inkscape:connector-curvature="0"
         d="m 826,1056 h 59 v 60 h -59 z"
         id="path26" />
    </clipPath>
    <clipPath
       id="clipPath15305">
      <path
         inkscape:connector-curvature="0"
         d="M 805,276 H 905 V 376 H 805 Z"
         id="path29" />
    </clipPath>
    <clipPath
       id="clipPath15341">
      <path
         inkscape:connector-curvature="0"
         d="m 145,1063.8 h 74.152 v 45.21 H 145 Z"
         id="path32" />
    </clipPath>
    <clipPath
       id="clipPath15715">
      <path
         inkscape:connector-curvature="0"
         d="m 151,667 h 57 v 57 h -57 z"
         id="path35" />
    </clipPath>
    <clipPath
       id="clipPath15807">
      <path
         inkscape:connector-curvature="0"
         d="m 154,697 h 51 v 51 h -51 z"
         id="path38" />
    </clipPath>
    <clipPath
       id="clipPath16001">
      <path
         inkscape:connector-curvature="0"
         d="m 500.04,864.45 h 36.012 v 67.52 H 500.04 Z"
         id="path41" />
    </clipPath>
    <clipPath
       id="clipPath16093">
      <path
         inkscape:connector-curvature="0"
         d="m 836,870.54 h 47 v 55.539 h -47 z"
         id="path44" />
    </clipPath>
    <clipPath
       id="clipPath16477">
      <path
         inkscape:connector-curvature="0"
         d="m 318.03,702.35 h 62.848 v 37.991 H 318.03 Z"
         id="path47" />
    </clipPath>
    <clipPath
       id="clipPath16579">
      <path
         inkscape:connector-curvature="0"
         d="m 485.03,133.35 h 62.847 v 37.991 H 485.03 Z"
         id="path50" />
    </clipPath>
    <clipPath
       id="clipPath16709">
      <path
         inkscape:connector-curvature="0"
         d="m 493.37,677.93 h 45.643 v 68.067 H 493.37 Z"
         id="path53" />
    </clipPath>
    <clipPath
       id="clipPath24218">
      <path
         inkscape:connector-curvature="0"
         d="m 144.34,1018.2 h 71.467 v 78 H 144.34 Z"
         id="path56" />
    </clipPath>
    <clipPath
       id="clipPath24382">
      <path
         inkscape:connector-curvature="0"
         d="m 293.21,1068.6 66.323,-38.292 36.047,62.435 -66.323,38.292 z"
         id="path59" />
    </clipPath>
    <clipPath
       id="clipPath24650">
      <path
         inkscape:connector-curvature="0"
         d="m 488.86,1054.5 h 10 v 10.706 h -10 z"
         id="path62" />
    </clipPath>
    <clipPath
       id="clipPath24700">
      <path
         inkscape:connector-curvature="0"
         d="m 508,1066.8 h 10.001 v 10.705 H 508 Z"
         id="path65" />
    </clipPath>
    <clipPath
       id="clipPath24750">
      <path
         inkscape:connector-curvature="0"
         d="m 525,1045.8 h 10 v 10.706 h -10 z"
         id="path68" />
    </clipPath>
    <clipPath
       id="clipPath24864">
      <path
         inkscape:connector-curvature="0"
         d="m 836,1043.7 h 25.5 v 31.5 H 836 Z"
         id="path71" />
    </clipPath>
    <clipPath
       id="clipPath24896">
      <path
         inkscape:connector-curvature="0"
         d="m 838,1062.2 h 24 v 24 h -24 z"
         id="path74" />
    </clipPath>
    <clipPath
       id="clipPath25070">
      <path
         inkscape:connector-curvature="0"
         d="m 134,489.24 h 7 v 6 h -7 z"
         id="path77" />
    </clipPath>
    <clipPath
       id="clipPath25100">
      <path
         inkscape:connector-curvature="0"
         d="m 216,489.24 h 7 v 6 h -7 z"
         id="path80" />
    </clipPath>
    <clipPath
       id="clipPath25502">
      <path
         inkscape:connector-curvature="0"
         d="m 838,477.24 h 22 v 22 h -22 z"
         id="path83" />
    </clipPath>
    <clipPath
       id="clipPath25686">
      <path
         inkscape:connector-curvature="0"
         d="m 704,1061.2 h 25 v 25 h -25 z"
         id="path86" />
    </clipPath>
    <clipPath
       id="clipPath25788">
      <path
         inkscape:connector-curvature="0"
         d="m 663.04,1078.6 -1.808,-3.514 -21.07,-47.453 c 13.336,-18.439 48.336,-26.938 73.836,-3.439 0.842,0 6.476,6.246 6,7 l -18.386,25.895 c -0.483,0.765 -1.453,0.946 -2.177,0.431 l -15.505,-11.011 c -0.359,-0.255 -0.847,-0.153 -1.07,0.238 l -18.272,31.869 c -0.218,0.384 -0.502,0.578 -0.782,0.578 -0.282,0 -0.561,-0.197 -0.766,-0.594"
         id="path89" />
    </clipPath>
    <clipPath
       id="clipPath26420">
      <path
         inkscape:connector-curvature="0"
         d="m 127,820.24 h 100 v 100 H 127 Z"
         id="path92" />
    </clipPath>
    <clipPath
       id="clipPath26860">
      <path
         inkscape:connector-curvature="0"
         d="m 809,680.24 c 0,-22.092 17.908,-40 40,-40 22.092,0 40,17.908 40,40 0,22.091 -17.908,40 -40,40 -22.092,0 -40,-17.909 -40,-40"
         id="path95" />
    </clipPath>
    <clipPath
       id="clipPath27506">
      <path
         inkscape:connector-curvature="0"
         d="m 658,469.24 h 44 v 45 h -44 z"
         id="path98" />
    </clipPath>
    <clipPath
       id="clipPath27772">
      <path
         inkscape:connector-curvature="0"
         d="m 651,271.24 h 58 v 58 h -58 z"
         id="path101" />
    </clipPath>
    <clipPath
       id="clipPath27864">
      <path
         inkscape:connector-curvature="0"
         d="m 662,307.24 h 38 v 8 h -38 z"
         id="path104" />
    </clipPath>
    <clipPath
       id="clipPath28028">
      <path
         inkscape:connector-curvature="0"
         d="m 858.98,137.24 c 0.013,-0.101 0.021,-0.203 0.021,-0.307 v -6.693 h 15.75 c 1.237,0 2.25,-1.013 2.25,-2.25 v -11.25 l -27,-4.5 -27,4.5 v -2.25 l 27,-4.5 27,4.5 v -27 c 0,-1.237 -1.013,-2.25 -2.25,-2.25 h -49.5 c -1.237,0 -2.25,1.013 -2.25,2.25 v -4.25 h 54 v 54 z m -35.979,0 v -9.25 c 0,1.237 1.013,2.25 2.25,2.25 h 15.75 v 6.693 c 0,0.104 0.007,0.207 0.02,0.307 z m 22.5,-7 h 9 v 4.5 h -9 z m 1.125,-9 c -0.62,0 -1.125,-0.506 -1.125,-1.125 v -2.25 c 0,-0.619 0.505,-1.125 1.125,-1.125 h 6.75 c 0.619,0 1.125,0.506 1.125,1.125 v 2.25 c 0,0.619 -0.506,1.125 -1.125,1.125 z"
         id="path107" />
    </clipPath>
    <clipPath
       id="clipPath28200">
      <path
         inkscape:connector-curvature="0"
         d="m 531.27,136.24 c 6.325,-2.29 10.727,-8.277 10.727,-15.484 0,-11.316 -10.2,-20.563 -25.65,-34.575 l -4.35,-3.941 -4.35,3.941 c -15.45,14.012 -25.65,23.259 -25.65,34.575 V 81.24 h 60 v 55 z m -26.983,0 c 2.995,-1.052 5.686,-2.883 7.71,-5.25 2.024,2.367 4.715,4.198 7.71,5.25 z m -22.29,0 v -15.484 c 0,7.207 4.402,13.194 10.727,15.484 z"
         id="path110" />
    </clipPath>
    <clipPath
       id="clipPath28364">
      <path
         inkscape:connector-curvature="0"
         d="m 648,79.241 h 64 v 64 h -64 z"
         id="path113" />
    </clipPath>
    <clipPath
       id="clipPath28984">
      <path
         inkscape:connector-curvature="0"
         d="m 500,691.74 c 0,-3.037 2.463,-5.5 5.5,-5.5 3.037,0 5.5,2.463 5.5,5.5 0,3.037 -2.463,5.5 -5.5,5.5 -3.037,0 -5.5,-2.463 -5.5,-5.5"
         id="path116" />
    </clipPath>
    <clipPath
       id="clipPath29012">
      <path
         inkscape:connector-curvature="0"
         d="m 500,669.74 c 0,-3.037 2.463,-5.5 5.5,-5.5 3.037,0 5.5,2.463 5.5,5.5 0,3.038 -2.463,5.5 -5.5,5.5 -3.037,0 -5.5,-2.462 -5.5,-5.5"
         id="path119" />
    </clipPath>
    <clipPath
       id="clipPath29040">
      <path
         inkscape:connector-curvature="0"
         d="m 494,680.74 c 0,-3.037 2.462,-5.5 5.5,-5.5 3.038,0 5.5,2.463 5.5,5.5 0,3.038 -2.462,5.5 -5.5,5.5 -3.038,0 -5.5,-2.462 -5.5,-5.5"
         id="path122" />
    </clipPath>
    <clipPath
       id="clipPath29068">
      <path
         inkscape:connector-curvature="0"
         d="m 513,691.74 c 0,-3.037 2.463,-5.5 5.5,-5.5 3.037,0 5.5,2.463 5.5,5.5 0,3.037 -2.463,5.5 -5.5,5.5 -3.037,0 -5.5,-2.463 -5.5,-5.5"
         id="path125" />
    </clipPath>
    <clipPath
       id="clipPath29096">
      <path
         inkscape:connector-curvature="0"
         d="m 513,669.74 c 0,-3.037 2.463,-5.5 5.5,-5.5 3.037,0 5.5,2.463 5.5,5.5 0,3.038 -2.463,5.5 -5.5,5.5 -3.037,0 -5.5,-2.462 -5.5,-5.5"
         id="path128" />
    </clipPath>
    <clipPath
       id="clipPath29124">
      <path
         inkscape:connector-curvature="0"
         d="m 507,680.74 c 0,-3.037 2.463,-5.5 5.5,-5.5 3.037,0 5.5,2.463 5.5,5.5 0,3.038 -2.463,5.5 -5.5,5.5 -3.037,0 -5.5,-2.462 -5.5,-5.5"
         id="path131" />
    </clipPath>
    <clipPath
       id="clipPath29152">
      <path
         inkscape:connector-curvature="0"
         d="m 520,680.74 c 0,-3.037 2.463,-5.5 5.5,-5.5 3.037,0 5.5,2.463 5.5,5.5 0,3.038 -2.463,5.5 -5.5,5.5 -3.037,0 -5.5,-2.462 -5.5,-5.5"
         id="path134" />
    </clipPath>
    <clipPath
       id="clipPath29252">
      <path
         inkscape:connector-curvature="0"
         d="m 321,322.24 c -4.97,0 -9,-4.029 -9,-9 0,-4.97 4.03,-9 9,-9 h 45 c 4.971,0 9,4.03 9,9 0,4.971 -4.029,9 -9,9 z"
         id="path137" />
    </clipPath>
    <clipPath
       id="clipPath29280">
      <path
         inkscape:connector-curvature="0"
         d="m 322,297.24 c -4.971,0 -9,-4.029 -9,-9 0,-4.97 4.029,-9 9,-9 h 45 c 4.971,0 9,4.03 9,9 0,4.971 -4.029,9 -9,9 z"
         id="path140" />
    </clipPath>
    <clipPath
       id="clipPath29400">
      <path
         inkscape:connector-curvature="0"
         d="m 155,83.24 h 44 v 53 h -44 z"
         id="path143" />
    </clipPath>
    <clipPath
       id="clipPath13429-3">
      <path
         inkscape:connector-curvature="0"
         d="m 481,318 h 22 v 22 h -22 z"
         id="path2-5" />
    </clipPath>
    <clipPath
       id="clipPath13465-6">
      <path
         inkscape:connector-curvature="0"
         d="m 507,318 h 22 v 22 h -22 z"
         id="path5-2" />
    </clipPath>
    <clipPath
       id="clipPath13501-9">
      <path
         inkscape:connector-curvature="0"
         d="m 530,318 h 22 v 22 h -22 z"
         id="path8-1" />
    </clipPath>
    <clipPath
       id="clipPath13753-2">
      <path
         inkscape:connector-curvature="0"
         d="m 672,1064 c 0,-1.105 4.925,-2 11,-2 6.075,0 11,0.895 11,2 0,1.105 -4.925,2 -11,2 -6.075,0 -11,-0.895 -11,-2"
         id="path11-7" />
    </clipPath>
    <clipPath
       id="clipPath13771-0">
      <path
         inkscape:connector-curvature="0"
         d="m 660,1057 h 51 v 65.001 h -51 z"
         id="path14-9" />
    </clipPath>
    <clipPath
       id="clipPath14035-3">
      <path
         inkscape:connector-curvature="0"
         d="m 659,517 h 53 v 18 h -53 z"
         id="path17-6" />
    </clipPath>
    <clipPath
       id="clipPath14127-0">
      <path
         inkscape:connector-curvature="0"
         d="m 659,500 h 53 v 18 h -53 z"
         id="path20-6" />
    </clipPath>
    <clipPath
       id="clipPath14445-2">
      <path
         inkscape:connector-curvature="0"
         d="m 648,112 h 73 v 60 h -73 z"
         id="path23-6" />
    </clipPath>
    <clipPath
       id="clipPath14609-1">
      <path
         inkscape:connector-curvature="0"
         d="m 826,1056 h 59 v 60 h -59 z"
         id="path26-8" />
    </clipPath>
    <clipPath
       id="clipPath15305-7">
      <path
         inkscape:connector-curvature="0"
         d="M 805,276 H 905 V 376 H 805 Z"
         id="path29-9" />
    </clipPath>
    <clipPath
       id="clipPath15341-2">
      <path
         inkscape:connector-curvature="0"
         d="m 145,1063.8 h 74.152 v 45.21 H 145 Z"
         id="path32-0" />
    </clipPath>
    <clipPath
       id="clipPath15715-2">
      <path
         inkscape:connector-curvature="0"
         d="m 151,667 h 57 v 57 h -57 z"
         id="path35-3" />
    </clipPath>
    <clipPath
       id="clipPath15807-7">
      <path
         inkscape:connector-curvature="0"
         d="m 154,697 h 51 v 51 h -51 z"
         id="path38-5" />
    </clipPath>
    <clipPath
       id="clipPath16001-9">
      <path
         inkscape:connector-curvature="0"
         d="m 500.04,864.45 h 36.012 v 67.52 H 500.04 Z"
         id="path41-2" />
    </clipPath>
    <clipPath
       id="clipPath16093-2">
      <path
         inkscape:connector-curvature="0"
         d="m 836,870.54 h 47 v 55.539 h -47 z"
         id="path44-8" />
    </clipPath>
    <clipPath
       id="clipPath16477-9">
      <path
         inkscape:connector-curvature="0"
         d="m 318.03,702.35 h 62.848 v 37.991 H 318.03 Z"
         id="path47-7" />
    </clipPath>
    <clipPath
       id="clipPath16579-3">
      <path
         inkscape:connector-curvature="0"
         d="m 485.03,133.35 h 62.847 v 37.991 H 485.03 Z"
         id="path50-6" />
    </clipPath>
    <clipPath
       id="clipPath16709-1">
      <path
         inkscape:connector-curvature="0"
         d="m 493.37,677.93 h 45.643 v 68.067 H 493.37 Z"
         id="path53-2" />
    </clipPath>
    <clipPath
       id="clipPath24218-9">
      <path
         inkscape:connector-curvature="0"
         d="m 144.34,1018.2 h 71.467 v 78 H 144.34 Z"
         id="path56-3" />
    </clipPath>
    <clipPath
       id="clipPath24382-1">
      <path
         inkscape:connector-curvature="0"
         d="m 293.21,1068.6 66.323,-38.292 36.047,62.435 -66.323,38.292 z"
         id="path59-9" />
    </clipPath>
    <clipPath
       id="clipPath24650-4">
      <path
         inkscape:connector-curvature="0"
         d="m 488.86,1054.5 h 10 v 10.706 h -10 z"
         id="path62-7" />
    </clipPath>
    <clipPath
       id="clipPath24700-8">
      <path
         inkscape:connector-curvature="0"
         d="m 508,1066.8 h 10.001 v 10.705 H 508 Z"
         id="path65-4" />
    </clipPath>
    <clipPath
       id="clipPath24750-5">
      <path
         inkscape:connector-curvature="0"
         d="m 525,1045.8 h 10 v 10.706 h -10 z"
         id="path68-0" />
    </clipPath>
    <clipPath
       id="clipPath24864-3">
      <path
         inkscape:connector-curvature="0"
         d="m 836,1043.7 h 25.5 v 31.5 H 836 Z"
         id="path71-6" />
    </clipPath>
    <clipPath
       id="clipPath24896-1">
      <path
         inkscape:connector-curvature="0"
         d="m 838,1062.2 h 24 v 24 h -24 z"
         id="path74-0" />
    </clipPath>
    <clipPath
       id="clipPath25070-6">
      <path
         inkscape:connector-curvature="0"
         d="m 134,489.24 h 7 v 6 h -7 z"
         id="path77-3" />
    </clipPath>
    <clipPath
       id="clipPath25100-2">
      <path
         inkscape:connector-curvature="0"
         d="m 216,489.24 h 7 v 6 h -7 z"
         id="path80-0" />
    </clipPath>
    <clipPath
       id="clipPath25502-6">
      <path
         inkscape:connector-curvature="0"
         d="m 838,477.24 h 22 v 22 h -22 z"
         id="path83-1" />
    </clipPath>
    <clipPath
       id="clipPath25686-5">
      <path
         inkscape:connector-curvature="0"
         d="m 704,1061.2 h 25 v 25 h -25 z"
         id="path86-5" />
    </clipPath>
    <clipPath
       id="clipPath25788-4">
      <path
         inkscape:connector-curvature="0"
         d="m 663.04,1078.6 -1.808,-3.514 -21.07,-47.453 c 13.336,-18.439 48.336,-26.938 73.836,-3.439 0.842,0 6.476,6.246 6,7 l -18.386,25.895 c -0.483,0.765 -1.453,0.946 -2.177,0.431 l -15.505,-11.011 c -0.359,-0.255 -0.847,-0.153 -1.07,0.238 l -18.272,31.869 c -0.218,0.384 -0.502,0.578 -0.782,0.578 -0.282,0 -0.561,-0.197 -0.766,-0.594"
         id="path89-7" />
    </clipPath>
    <clipPath
       id="clipPath26420-6">
      <path
         inkscape:connector-curvature="0"
         d="m 127,820.24 h 100 v 100 H 127 Z"
         id="path92-5" />
    </clipPath>
    <clipPath
       id="clipPath26860-6">
      <path
         inkscape:connector-curvature="0"
         d="m 809,680.24 c 0,-22.092 17.908,-40 40,-40 22.092,0 40,17.908 40,40 0,22.091 -17.908,40 -40,40 -22.092,0 -40,-17.909 -40,-40"
         id="path95-9" />
    </clipPath>
    <clipPath
       id="clipPath27506-3">
      <path
         inkscape:connector-curvature="0"
         d="m 658,469.24 h 44 v 45 h -44 z"
         id="path98-7" />
    </clipPath>
    <clipPath
       id="clipPath27772-4">
      <path
         inkscape:connector-curvature="0"
         d="m 651,271.24 h 58 v 58 h -58 z"
         id="path101-5" />
    </clipPath>
    <clipPath
       id="clipPath27864-2">
      <path
         inkscape:connector-curvature="0"
         d="m 662,307.24 h 38 v 8 h -38 z"
         id="path104-5" />
    </clipPath>
    <clipPath
       id="clipPath28028-4">
      <path
         inkscape:connector-curvature="0"
         d="m 858.98,137.24 c 0.013,-0.101 0.021,-0.203 0.021,-0.307 v -6.693 h 15.75 c 1.237,0 2.25,-1.013 2.25,-2.25 v -11.25 l -27,-4.5 -27,4.5 v -2.25 l 27,-4.5 27,4.5 v -27 c 0,-1.237 -1.013,-2.25 -2.25,-2.25 h -49.5 c -1.237,0 -2.25,1.013 -2.25,2.25 v -4.25 h 54 v 54 z m -35.979,0 v -9.25 c 0,1.237 1.013,2.25 2.25,2.25 h 15.75 v 6.693 c 0,0.104 0.007,0.207 0.02,0.307 z m 22.5,-7 h 9 v 4.5 h -9 z m 1.125,-9 c -0.62,0 -1.125,-0.506 -1.125,-1.125 v -2.25 c 0,-0.619 0.505,-1.125 1.125,-1.125 h 6.75 c 0.619,0 1.125,0.506 1.125,1.125 v 2.25 c 0,0.619 -0.506,1.125 -1.125,1.125 z"
         id="path107-7" />
    </clipPath>
    <clipPath
       id="clipPath28200-4">
      <path
         inkscape:connector-curvature="0"
         d="m 531.27,136.24 c 6.325,-2.29 10.727,-8.277 10.727,-15.484 0,-11.316 -10.2,-20.563 -25.65,-34.575 l -4.35,-3.941 -4.35,3.941 c -15.45,14.012 -25.65,23.259 -25.65,34.575 V 81.24 h 60 v 55 z m -26.983,0 c 2.995,-1.052 5.686,-2.883 7.71,-5.25 2.024,2.367 4.715,4.198 7.71,5.25 z m -22.29,0 v -15.484 c 0,7.207 4.402,13.194 10.727,15.484 z"
         id="path110-4" />
    </clipPath>
    <clipPath
       id="clipPath28364-3">
      <path
         inkscape:connector-curvature="0"
         d="m 648,79.241 h 64 v 64 h -64 z"
         id="path113-0" />
    </clipPath>
    <clipPath
       id="clipPath28984-7">
      <path
         inkscape:connector-curvature="0"
         d="m 500,691.74 c 0,-3.037 2.463,-5.5 5.5,-5.5 3.037,0 5.5,2.463 5.5,5.5 0,3.037 -2.463,5.5 -5.5,5.5 -3.037,0 -5.5,-2.463 -5.5,-5.5"
         id="path116-8" />
    </clipPath>
    <clipPath
       id="clipPath29012-6">
      <path
         inkscape:connector-curvature="0"
         d="m 500,669.74 c 0,-3.037 2.463,-5.5 5.5,-5.5 3.037,0 5.5,2.463 5.5,5.5 0,3.038 -2.463,5.5 -5.5,5.5 -3.037,0 -5.5,-2.462 -5.5,-5.5"
         id="path119-8" />
    </clipPath>
    <clipPath
       id="clipPath29040-8">
      <path
         inkscape:connector-curvature="0"
         d="m 494,680.74 c 0,-3.037 2.462,-5.5 5.5,-5.5 3.038,0 5.5,2.463 5.5,5.5 0,3.038 -2.462,5.5 -5.5,5.5 -3.038,0 -5.5,-2.462 -5.5,-5.5"
         id="path122-4" />
    </clipPath>
    <clipPath
       id="clipPath29068-3">
      <path
         inkscape:connector-curvature="0"
         d="m 513,691.74 c 0,-3.037 2.463,-5.5 5.5,-5.5 3.037,0 5.5,2.463 5.5,5.5 0,3.037 -2.463,5.5 -5.5,5.5 -3.037,0 -5.5,-2.463 -5.5,-5.5"
         id="path125-1" />
    </clipPath>
    <clipPath
       id="clipPath29096-4">
      <path
         inkscape:connector-curvature="0"
         d="m 513,669.74 c 0,-3.037 2.463,-5.5 5.5,-5.5 3.037,0 5.5,2.463 5.5,5.5 0,3.038 -2.463,5.5 -5.5,5.5 -3.037,0 -5.5,-2.462 -5.5,-5.5"
         id="path128-9" />
    </clipPath>
    <clipPath
       id="clipPath29124-2">
      <path
         inkscape:connector-curvature="0"
         d="m 507,680.74 c 0,-3.037 2.463,-5.5 5.5,-5.5 3.037,0 5.5,2.463 5.5,5.5 0,3.038 -2.463,5.5 -5.5,5.5 -3.037,0 -5.5,-2.462 -5.5,-5.5"
         id="path131-0" />
    </clipPath>
    <clipPath
       id="clipPath29152-6">
      <path
         inkscape:connector-curvature="0"
         d="m 520,680.74 c 0,-3.037 2.463,-5.5 5.5,-5.5 3.037,0 5.5,2.463 5.5,5.5 0,3.038 -2.463,5.5 -5.5,5.5 -3.037,0 -5.5,-2.462 -5.5,-5.5"
         id="path134-8" />
    </clipPath>
    <clipPath
       id="clipPath29252-9">
      <path
         inkscape:connector-curvature="0"
         d="m 321,322.24 c -4.97,0 -9,-4.029 -9,-9 0,-4.97 4.03,-9 9,-9 h 45 c 4.971,0 9,4.03 9,9 0,4.971 -4.029,9 -9,9 z"
         id="path137-2" />
    </clipPath>
    <clipPath
       id="clipPath29280-6">
      <path
         inkscape:connector-curvature="0"
         d="m 322,297.24 c -4.971,0 -9,-4.029 -9,-9 0,-4.97 4.029,-9 9,-9 h 45 c 4.971,0 9,4.03 9,9 0,4.971 -4.029,9 -9,9 z"
         id="path140-6" />
    </clipPath>
    <clipPath
       id="clipPath29400-4">
      <path
         inkscape:connector-curvature="0"
         d="m 155,83.24 h 44 v 53 h -44 z"
         id="path143-9" />
    </clipPath>
  </defs>
  <g
     id="g4166"
     transform="matrix(0.10675996,0,0,0.10675996,-1.1596003,-1.6141782)">
    <rect
       ry="9.2080431"
       rx="10.211414"
       y="76.728607"
       x="400"
       height="65.271393"
       width="31.330271"
       id="rect3025"
       style="fill:#3f8bcd;fill-opacity:1;stroke:none" />
    <rect
       ry="9.2080431"
       rx="10.211414"
       y="156.72861"
       x="400"
       height="65.271393"
       width="31.330271"
       id="rect3025-3"
       style="fill:#3f8bcd;fill-opacity:1;stroke:none" />
    <rect
       ry="9.2080431"
       rx="10.211414"
       y="233.97697"
       x="400"
       height="65.271393"
       width="31.330271"
       id="rect3025-6"
       style="fill:#3f8bcd;fill-opacity:1;stroke:none" />
    <rect
       ry="9.2080431"
       rx="10.211414"
       y="313.97696"
       x="400"
       height="65.271393"
       width="31.330271"
       id="rect3025-3-7"
       style="fill:#3f8bcd;fill-opacity:1;stroke:none" />
    <rect
       rx="28.399258"
       ry="32.089348"
       y="37.000042"
       x="67.83326"
       height="405.81046"
       width="343.78052"
       id="rect3003"
       style="fill:#62a1d3;fill-opacity:1;stroke:none" />
    <path
       sodipodi:nodetypes="cczcczcccc"
       inkscape:connector-curvature="0"
       id="path3064"
       d="m 156.15384,442.76923 -60.461532,0.15385 c 0,0 -9.835596,-0.32006 -18.615385,-8.46154 C 68.297134,426.32005 67.692308,412 67.692308,412 L 68,68.307691 c 0,0 -0.158223,-12.325608 7.846154,-21.538461 8.004377,-9.212852 21.846154,-9.846154 21.846154,-9.846154 H 156 v 0 z"
       style="fill:#1875c5;fill-opacity:1;stroke:none;stroke-width:1px;stroke-linecap:butt;stroke-linejoin:miter;stroke-opacity:1" />
    <ellipse
       transform="matrix(5.2625817,0,0,5.0233736,-1484.5174,-1450.1687)"
       id="path3777"
       style="fill:#394050;fill-opacity:1;stroke:none"
       cx="302.9231"
       cy="305.15384"
       rx="3.2307694"
       ry="3.3846154" />
    <path
       sodipodi:nodetypes="cczcczc"
       inkscape:connector-curvature="0"
       id="path3779"
       d="m 48.597345,93.382725 h 61.656245 c 0,0 9.06775,-0.782829 8.8748,-9.715584 -0.19285,-8.932707 -9.34187,-10.089147 -9.34187,-10.089147 l -61.936543,0.373562 c 0,0 -8.022652,1.736458 -7.847141,10.089196 0.175365,8.352737 8.594509,9.34207 8.594509,9.34207 z"
       style="fill:#cccccc;fill-opacity:1;stroke:none" />
    <ellipse
       transform="matrix(5.2625817,0,0,5.0233736,-1484.1253,-1406.5866)"
       id="path3777-3"
       style="fill:#394050;fill-opacity:1;stroke:none"
       cx="302.9231"
       cy="305.15384"
       rx="3.2307694"
       ry="3.3846154" />
    <path
       sodipodi:nodetypes="cczcczc"
       inkscape:connector-curvature="0"
       id="path3779-6"
       d="m 48.989367,136.96482 h 61.656243 c 0,0 9.06776,-0.78283 8.87481,-9.71558 -0.19286,-8.93271 -9.34188,-10.08915 -9.34188,-10.08915 l -61.936541,0.37356 c 0,0 -8.022652,1.73646 -7.847141,10.0892 0.175365,8.35274 8.594509,9.34207 8.594509,9.34207 z"
       style="fill:#cccccc;fill-opacity:1;stroke:none" />
    <ellipse
       transform="matrix(5.2625817,0,0,5.0233736,-1483.7929,-1363.3777)"
       id="path3777-7"
       style="fill:#394050;fill-opacity:1;stroke:none"
       cx="302.9231"
       cy="305.15384"
       rx="3.2307694"
       ry="3.3846154" />
    <path
       sodipodi:nodetypes="cczcczc"
       inkscape:connector-curvature="0"
       id="path3779-5"
       d="m 49.321784,180.17374 h 61.656246 c 0,0 9.06775,-0.78283 8.8748,-9.71558 -0.19285,-8.93271 -9.34187,-10.08915 -9.34187,-10.08915 l -61.936544,0.37357 c 0,0 -8.022652,1.73645 -7.847141,10.08919 0.175365,8.35274 8.594509,9.34207 8.594509,9.34207 z"
       style="fill:#cccccc;fill-opacity:1;stroke:none" />
    <ellipse
       transform="matrix(5.2625817,0,0,5.0233736,-1483.4008,-1319.7955)"
       id="path3777-3-3"
       style="fill:#394050;fill-opacity:1;stroke:none"
       cx="302.9231"
       cy="305.15384"
       rx="3.2307694"
       ry="3.3846154" />
    <path
       sodipodi:nodetypes="cczcczc"
       inkscape:connector-curvature="0"
       id="path3779-6-5"
       d="m 49.713806,223.75584 h 61.656244 c 0,0 9.06776,-0.78283 8.8748,-9.71558 -0.19285,-8.93271 -9.34187,-10.08915 -9.34187,-10.08915 l -61.936542,0.37356 c 0,0 -8.022652,1.73646 -7.847141,10.0892 0.175365,8.35273 8.594509,9.34207 8.594509,9.34207 z"
       style="fill:#cccccc;fill-opacity:1;stroke:none" />
    <ellipse
       transform="matrix(5.2625817,0,0,5.0233736,-1483.5934,-1276.3109)"
       id="path3777-6"
       style="fill:#394050;fill-opacity:1;stroke:none"
       cx="302.9231"
       cy="305.15384"
       rx="3.2307694"
       ry="3.3846154" />
    <path
       sodipodi:nodetypes="cczcczc"
       inkscape:connector-curvature="0"
       id="path3779-2"
       d="m 49.521244,267.24054 h 61.656246 c 0,0 9.06775,-0.78283 8.8748,-9.71559 -0.19285,-8.9327 -9.34187,-10.08914 -9.34187,-10.08914 l -61.936544,0.37356 c 0,0 -8.022652,1.73646 -7.847141,10.08919 0.175365,8.35274 8.594509,9.34208 8.594509,9.34208 z"
       style="fill:#cccccc;fill-opacity:1;stroke:none" />
    <ellipse
       transform="matrix(5.2625817,0,0,5.0233736,-1483.2013,-1232.7287)"
       id="path3777-3-9"
       style="fill:#394050;fill-opacity:1;stroke:none"
       cx="302.9231"
       cy="305.15384"
       rx="3.2307694"
       ry="3.3846154" />
    <path
       sodipodi:nodetypes="cczcczc"
       inkscape:connector-curvature="0"
       id="path3779-6-1"
       d="m 49.913265,310.82263 h 61.656245 c 0,0 9.06776,-0.78283 8.8748,-9.71558 -0.19285,-8.93271 -9.34187,-10.08915 -9.34187,-10.08915 l -61.936542,0.37357 c 0,0 -8.022652,1.73645 -7.847141,10.08919 0.175365,8.35274 8.594508,9.34207 8.594508,9.34207 z"
       style="fill:#cccccc;fill-opacity:1;stroke:none" />
    <ellipse
       transform="matrix(5.2625817,0,0,5.0233736,-1482.8689,-1189.5198)"
       id="path3777-7-2"
       style="fill:#394050;fill-opacity:1;stroke:none"
       cx="302.9231"
       cy="305.15384"
       rx="3.2307694"
       ry="3.3846154" />
    <path
       sodipodi:nodetypes="cczcczc"
       inkscape:connector-curvature="0"
       id="path3779-5-7"
       d="m 50.245683,354.03156 h 61.656247 c 0,0 9.06775,-0.78283 8.8748,-9.71559 -0.19285,-8.9327 -9.34187,-10.08914 -9.34187,-10.08914 l -61.936545,0.37356 c 0,0 -8.022652,1.73646 -7.847141,10.08919 0.175365,8.35274 8.594509,9.34207 8.594509,9.34207 z"
       style="fill:#cccccc;fill-opacity:1;stroke:none" />
    <ellipse
       transform="matrix(5.2625817,0,0,5.0233736,-1482.4768,-1145.9377)"
       id="path3777-3-3-0"
       style="fill:#394050;fill-opacity:1;stroke:none"
       cx="302.9231"
       cy="305.15384"
       rx="3.2307694"
       ry="3.3846154" />
    <path
       sodipodi:nodetypes="cczcczc"
       inkscape:connector-curvature="0"
       id="path3779-6-5-9"
       d="m 50.637704,397.61365 h 61.656246 c 0,0 9.06775,-0.78283 8.8748,-9.71558 -0.19285,-8.93271 -9.34187,-10.08915 -9.34187,-10.08915 l -61.936543,0.37356 c 0,0 -8.022652,1.73646 -7.847141,10.0892 0.175365,8.35274 8.594508,9.34207 8.594508,9.34207 z"
       style="fill:#cccccc;fill-opacity:1;stroke:none" />
    <rect
       ry="9.2080431"
       rx="10.211414"
       y="92.522491"
       x="181.01933"
       height="73.103966"
       width="194.94391"
       id="rect3008"
       style="fill:#ffffff;fill-opacity:1;stroke:none" />
    <g
       style="fill:#ffffff;fill-opacity:1"
       transform="matrix(4.4432767,0,0,4.4432767,-630.29388,-2852.8954)"
       id="g4281">
      <rect
         style="fill:#ffffff;fill-opacity:1;fill-rule:evenodd;stroke:none"
         id="rect3284"
         width="2.3999994"
         height="5.2367983"
         x="-362.37311"
         y="645.69183"
         transform="rotate(-45)" />
      <g
         style="fill:#ffffff;fill-opacity:1"
         id="g4277">
        <path
           id="path3304"
           d="m 203.03309,704.81251 c -2.35636,1.4e-4 -4.69714,0.97062 -6.36211,2.63672 -1.66496,1.66609 -2.63437,4.00727 -2.63437,6.36328 0,2.356 0.96941,4.69718 2.63437,6.36328 1.66497,1.66609 4.00575,2.63657 6.36211,2.63671 2.35636,1.4e-4 4.69853,-0.96944 6.36562,-2.63554 1.66709,-1.66611 2.63789,-4.00819 2.63789,-6.36445 h -2.4 c 0,1.72792 -0.71223,3.44576 -1.93476,4.66757 -1.22253,1.22181 -2.94075,1.93253 -4.66875,1.93242 -1.728,-10e-5 -3.44426,-0.71178 -4.66523,-1.93359 -1.22098,-1.2218 -1.93125,-2.93867 -1.93125,-4.6664 0,-1.72774 0.71027,-3.4446 1.93125,-4.66641 1.22097,-1.2218 2.93723,-1.93349 4.66523,-1.93359 0.001,0 0.002,0 0.004,0 v -2.4 c -0.001,0 -0.002,0 -0.004,0 z"
           style="fill:#ffffff;fill-opacity:1;fill-rule:evenodd;stroke:none"
           inkscape:connector-curvature="0" />
        <path
           id="path4149"
           d="m 212.73973,704.81251 -10.19999,10.2 1.69687,1.69687 10.19999,-10.2 z"
           style="fill:#ffffff;fill-opacity:1;fill-rule:evenodd;stroke:none"
           inkscape:connector-curvature="0" />
      </g>
    </g>
  </g>
</svg>
