<?xml version="1.0" encoding="UTF-8" standalone="no"?>
<svg
   xmlns:dc="http://purl.org/dc/elements/1.1/"
   xmlns:cc="http://creativecommons.org/ns#"
   xmlns:rdf="http://www.w3.org/1999/02/22-rdf-syntax-ns#"
   xmlns:svg="http://www.w3.org/2000/svg"
   xmlns="http://www.w3.org/2000/svg"
   xmlns:sodipodi="http://sodipodi.sourceforge.net/DTD/sodipodi-0.dtd"
   xmlns:inkscape="http://www.inkscape.org/namespaces/inkscape"
   width="48"
   height="48"
   viewBox="0 0 48 48"
   version="1.1"
   id="svg37"
   sodipodi:docname="alacarte.svg"
   inkscape:version="0.92.4 (5da689c313, 2019-01-14)">
  <metadata
     id="metadata43">
    <rdf:RDF>
      <cc:Work
         rdf:about="">
        <dc:format>image/svg+xml</dc:format>
        <dc:type
           rdf:resource="http://purl.org/dc/dcmitype/StillImage" />
        <dc:title></dc:title>
      </cc:Work>
    </rdf:RDF>
  </metadata>
  <defs
     id="defs41" />
  <sodipodi:namedview
     pagecolor="#ffffff"
     bordercolor="#666666"
     borderopacity="1"
     objecttolerance="10"
     gridtolerance="10"
     guidetolerance="10"
     inkscape:pageopacity="0"
     inkscape:pageshadow="2"
     inkscape:window-width="1280"
     inkscape:window-height="954"
     id="namedview39"
     showgrid="false"
     inkscape:zoom="3.6875"
     inkscape:cx="27.254237"
     inkscape:cy="32"
     inkscape:window-x="0"
     inkscape:window-y="0"
     inkscape:window-maximized="1"
     inkscape:current-layer="svg37" />
  <g
     id="surface1"
     transform="matrix(0.75379233,0,0,0.75379233,0.06709352,-0.37241568)">
    <path
       style="fill:#bdbdbd;fill-opacity:1;fill-rule:nonzero;stroke:none"
       d="m 41.695312,48.488281 c -0.722656,0 -1.3125,0.585938 -1.3125,1.3125 v 10.40625 c 0,1 1.074219,1.632813 1.949219,1.148438 l 11.90625,-7.761719 c 0.417969,-0.234375 0.675781,-0.671875 0.675781,-1.148438 v -2.644531 c 0,-0.726562 -0.585937,-1.3125 -1.3125,-1.3125 z m 0,0"
       id="path2"
       inkscape:connector-curvature="0" />
    <path
       style="fill:#dedede;fill-opacity:1;fill-rule:nonzero;stroke:none"
       d="m 10.582031,3.144531 h 42.335938 c 1.460937,0 2.644531,1.1875 2.644531,2.648438 v 47.625 c 0,1.460937 -1.183594,2.644531 -2.644531,2.644531 H 10.582031 C 9.121094,56.0625 7.9375,54.878906 7.9375,53.417969 v -47.625 c 0,-1.460938 1.183594,-2.648438 2.644531,-2.648438 z m 0,0"
       id="path4"
       inkscape:connector-curvature="0" />
    <path
       style="fill:#9c9c9c;fill-opacity:1;fill-rule:nonzero;stroke:none"
       d="m 25.136719,20.34375 h 21.164062 c 0.730469,0 1.324219,0.570312 1.324219,1.269531 0,0.703125 -0.59375,1.269531 -1.324219,1.269531 H 25.136719 c -0.730469,0 -1.324219,-0.566406 -1.324219,-1.269531 0,-0.699219 0.59375,-1.269531 1.324219,-1.269531 z m 0,0"
       id="path6"
       inkscape:connector-curvature="0" />
    <path
       style="fill:#9c9c9c;fill-opacity:1;fill-rule:nonzero;stroke:none"
       d="m 25.136719,15.050781 h 21.164062 c 0.730469,0 1.324219,0.59375 1.324219,1.324219 0,0.730469 -0.59375,1.324219 -1.324219,1.324219 H 25.136719 c -0.730469,0 -1.324219,-0.59375 -1.324219,-1.324219 0,-0.730469 0.59375,-1.324219 1.324219,-1.324219 z m 0,0"
       id="path8"
       inkscape:connector-curvature="0" />
    <path
       style="fill:#9c9c9c;fill-opacity:1;fill-rule:nonzero;stroke:none"
       d="m 25.136719,30.925781 h 21.164062 c 0.730469,0 1.324219,0.59375 1.324219,1.324219 0,0.730469 -0.59375,1.324219 -1.324219,1.324219 H 25.136719 c -0.730469,0 -1.324219,-0.59375 -1.324219,-1.324219 0,-0.730469 0.59375,-1.324219 1.324219,-1.324219 z m 0,0"
       id="path10"
       inkscape:connector-curvature="0" />
    <path
       style="fill:#9c9c9c;fill-opacity:1;fill-rule:nonzero;stroke:none"
       d="m 25.136719,41.511719 h 21.164062 c 0.730469,0 1.324219,0.589843 1.324219,1.320312 0,0.730469 -0.59375,1.324219 -1.324219,1.324219 H 25.136719 c -0.730469,0 -1.324219,-0.59375 -1.324219,-1.324219 0,-0.730469 0.59375,-1.320312 1.324219,-1.320312 z m 0,0"
       id="path12"
       inkscape:connector-curvature="0" />
    <path
       style="fill:#ff6e42;fill-opacity:1;fill-rule:nonzero;stroke:none"
       d="m 25.082031,25.742188 h 21.273438 c 0.699219,0 1.269531,0.566406 1.269531,1.269531 0,0.699219 -0.570312,1.269531 -1.269531,1.269531 H 25.082031 c -0.699219,0 -1.269531,-0.570312 -1.269531,-1.269531 0,-0.703125 0.570312,-1.269531 1.269531,-1.269531 z m 0,0"
       id="path14"
       inkscape:connector-curvature="0" />
    <path
       style="fill:#9c9c9c;fill-opacity:1;fill-rule:nonzero;stroke:none"
       d="m 25.136719,36.21875 h 21.164062 c 0.730469,0 1.324219,0.59375 1.324219,1.324219 0,0.730469 -0.59375,1.320312 -1.324219,1.320312 H 25.136719 c -0.730469,0 -1.324219,-0.589843 -1.324219,-1.320312 0,-0.730469 0.59375,-1.324219 1.324219,-1.324219 z m 0,0"
       id="path16"
       inkscape:connector-curvature="0" />
    <path
       style="fill:#9c9c9c;fill-opacity:1;fill-rule:nonzero;stroke:none"
       d="m 18.519531,14.390625 c 1.097657,0 1.984375,0.886719 1.984375,1.984375 0,1.097656 -0.886718,1.984375 -1.984375,1.984375 -1.09375,0 -1.984375,-0.886719 -1.984375,-1.984375 0,-1.097656 0.890625,-1.984375 1.984375,-1.984375 z m 0,0"
       id="path18"
       inkscape:connector-curvature="0" />
    <path
       style="fill:#9c9c9c;fill-opacity:1;fill-rule:nonzero;stroke:none"
       d="m 18.519531,19.683594 c 1.097657,0 1.984375,0.886718 1.984375,1.984375 0,1.09375 -0.886718,1.984375 -1.984375,1.984375 -1.09375,0 -1.984375,-0.890625 -1.984375,-1.984375 0,-1.097657 0.890625,-1.984375 1.984375,-1.984375 z m 0,0"
       id="path20"
       inkscape:connector-curvature="0" />
    <path
       style="fill:#ff6e42;fill-opacity:1;fill-rule:nonzero;stroke:none"
       d="m 18.519531,24.972656 c 1.097657,0 1.984375,0.890625 1.984375,1.984375 0,1.097657 -0.886718,1.984375 -1.984375,1.984375 -1.09375,0 -1.984375,-0.886718 -1.984375,-1.984375 0,-1.09375 0.890625,-1.984375 1.984375,-1.984375 z m 0,0"
       id="path22"
       inkscape:connector-curvature="0" />
    <path
       style="fill:#9c9c9c;fill-opacity:1;fill-rule:nonzero;stroke:none"
       d="m 18.519531,30.265625 c 1.097657,0 1.984375,0.886719 1.984375,1.984375 0,1.097656 -0.886718,1.984375 -1.984375,1.984375 -1.09375,0 -1.984375,-0.886719 -1.984375,-1.984375 0,-1.097656 0.890625,-1.984375 1.984375,-1.984375 z m 0,0"
       id="path24"
       inkscape:connector-curvature="0" />
    <path
       style="fill:#9c9c9c;fill-opacity:1;fill-rule:nonzero;stroke:none"
       d="m 18.519531,35.558594 c 1.097657,0 1.984375,0.886718 1.984375,1.984375 0,1.09375 -0.886718,1.984375 -1.984375,1.984375 -1.09375,0 -1.984375,-0.890625 -1.984375,-1.984375 0,-1.097657 0.890625,-1.984375 1.984375,-1.984375 z m 0,0"
       id="path26"
       inkscape:connector-curvature="0" />
    <path
       style="fill:#9c9c9c;fill-opacity:1;fill-rule:nonzero;stroke:none"
       d="m 18.519531,40.847656 c 1.097657,0 1.984375,0.890625 1.984375,1.984375 0,1.097657 -0.886718,1.984375 -1.984375,1.984375 -1.09375,0 -1.984375,-0.886718 -1.984375,-1.984375 0,-1.09375 0.890625,-1.984375 1.984375,-1.984375 z m 0,0"
       id="path28"
       inkscape:connector-curvature="0" />
    <path
       style="fill:#3f3f3f;fill-opacity:1;fill-rule:nonzero;stroke:none"
       d="m 24.875,33.984375 6.875,3.96875 -2.644531,4.582031 -6.875,-3.96875 z m 0,0"
       id="path30"
       inkscape:connector-curvature="0" />
    <path
       style="fill:#616161;fill-opacity:1;fill-rule:nonzero;stroke:none"
       d="M 23.222656,36.847656 C 22.90625,36.664062 22.5,36.773438 22.320312,37.089844 l -0.664062,1.144531 -9.921875,17.1875 c -0.730469,1.269531 -0.300781,2.878906 0.96875,3.613281 l 3.4375,1.984375 c 1.269531,0.734375 2.882813,0.300781 3.613281,-0.96875 l 9.921875,-17.183593 0.664063,-1.144532 C 30.523438,41.402344 30.414062,41 30.097656,40.816406 Z m 0,0"
       id="path32"
       inkscape:connector-curvature="0" />
    <path
       style="fill:#616161;fill-opacity:1;fill-rule:nonzero;stroke:none"
       d="m 33.941406,26.234375 c -0.433594,-0.253906 -0.976562,-0.238281 -1.394531,0.03906 -2.542969,1.675781 -6.699219,4.707031 -8.90625,8.527343 l 8.019531,4.628907 c 2.207032,-3.820313 2.75,-8.933594 2.933594,-11.972657 0.03125,-0.5 -0.222656,-0.96875 -0.652344,-1.222656 z m 0,0"
       id="path34"
       inkscape:connector-curvature="0" />
  </g>
</svg>
