<?xml version="1.0" encoding="UTF-8" standalone="no"?>
<svg
   xmlns:dc="http://purl.org/dc/elements/1.1/"
   xmlns:cc="http://creativecommons.org/ns#"
   xmlns:rdf="http://www.w3.org/1999/02/22-rdf-syntax-ns#"
   xmlns:svg="http://www.w3.org/2000/svg"
   xmlns="http://www.w3.org/2000/svg"
   xmlns:xlink="http://www.w3.org/1999/xlink"
   xmlns:sodipodi="http://sodipodi.sourceforge.net/DTD/sodipodi-0.dtd"
   xmlns:inkscape="http://www.inkscape.org/namespaces/inkscape"
   width="48"
   height="48"
   viewBox="0 0 48 48"
   version="1.1"
   id="svg37"
   sodipodi:docname="alarm-clock.svg"
   inkscape:version="0.92.4 (5da689c313, 2019-01-14)">
  <metadata
     id="metadata43">
    <rdf:RDF>
      <cc:Work
         rdf:about="">
        <dc:format>image/svg+xml</dc:format>
        <dc:type
           rdf:resource="http://purl.org/dc/dcmitype/StillImage" />
        <dc:title></dc:title>
      </cc:Work>
    </rdf:RDF>
  </metadata>
  <defs
     id="defs41">
    <linearGradient
       inkscape:collect="always"
       xlink:href="#linearGradient3962"
       id="linearGradient4097"
       gradientUnits="userSpaceOnUse"
       x1="24.0625"
       y1="-377"
       x2="377.9375"
       y2="-101" />
    <linearGradient
       inkscape:collect="always"
       id="linearGradient3962">
      <stop
         style="stop-color:#000000;stop-opacity:1;"
         offset="0"
         id="stop3964" />
      <stop
         style="stop-color:#000000;stop-opacity:0;"
         offset="1"
         id="stop3966" />
    </linearGradient>
    <clipPath
       clipPathUnits="userSpaceOnUse"
       id="clipPath4017">
      <path
         inkscape:connector-curvature="0"
         id="path4019"
         d="m 210.4472,-78.1875 a 11.851185,11.851185 0 0 0 -9.15625,4.03125 l -26.375,29.21875 a 11.851185,11.851185 0 1 0 17.5625,15.875 l 26.40625,-29.21875 a 11.851185,11.851185 0 0 0 -8.4375,-19.90625 z m 154.96875,0 a 11.851185,11.851185 0 0 0 -8.09375,19.90625 l 26.40625,29.21875 a 11.851185,11.851185 0 1 0 17.59375,-15.875 l -26.40625,-29.21875 a 11.851185,11.851185 0 0 0 -9.5,-4.03125 z"
         style="color:#000000;font-style:normal;font-variant:normal;font-weight:normal;font-stretch:normal;font-size:medium;line-height:normal;font-family:Sans;-inkscape-font-specification:Sans;text-indent:0;text-align:start;text-decoration:none;text-decoration-line:none;letter-spacing:normal;word-spacing:normal;text-transform:none;writing-mode:lr-tb;direction:ltr;baseline-shift:baseline;text-anchor:start;display:inline;overflow:visible;visibility:visible;fill:#3c3f50;fill-opacity:1;stroke:none;stroke-width:23.70000076;marker:none;enable-background:accumulate" />
    </clipPath>
    <linearGradient
       inkscape:collect="always"
       xlink:href="#linearGradient3952"
       id="linearGradient4099"
       gradientUnits="userSpaceOnUse"
       x1="31.819817"
       y1="40.221016"
       x2="387.14096"
       y2="332.96323" />
    <linearGradient
       inkscape:collect="always"
       id="linearGradient3952">
      <stop
         style="stop-color:#000000;stop-opacity:0.57391304"
         offset="0"
         id="stop3954" />
      <stop
         style="stop-color:#000000;stop-opacity:0;"
         offset="1"
         id="stop3956" />
    </linearGradient>
    <clipPath
       clipPathUnits="userSpaceOnUse"
       id="clipPath3995">
      <path
         id="path3997"
         d="m 281.13848,179.04473 a 5.4005401,5.4005401 0 0 0 -5.3125,5.46875 v 75.3125 h -19.875 a 5.40625,5.40625 0 1 0 0,10.8125 h 19.875 v 21.875 a 5.40625,5.40625 0 0 0 10.8125,0 v -21.875 h 50.3125 a 5.40625,5.40625 0 0 0 0,-10.8125 h -50.3125 v -75.3125 a 5.4005401,5.4005401 0 0 0 -5.5,-5.46875 z"
         style="color:#000000;font-style:normal;font-variant:normal;font-weight:normal;font-stretch:normal;font-size:medium;line-height:normal;font-family:Sans;-inkscape-font-specification:Sans;text-indent:0;text-align:start;text-decoration:none;text-decoration-line:none;letter-spacing:normal;word-spacing:normal;text-transform:none;writing-mode:lr-tb;direction:ltr;baseline-shift:baseline;text-anchor:start;display:inline;overflow:visible;visibility:visible;fill:#464a5e;fill-opacity:1;stroke:none;stroke-width:10.80000019;marker:none;enable-background:accumulate"
         inkscape:connector-curvature="0" />
    </clipPath>
    <linearGradient
       id="linearGradient1142"
       x1="-59.707001"
       x2="-24.212999"
       y1="-182.27"
       y2="-182.27"
       gradientTransform="matrix(1.0000071,0,0,1.0000071,0.7328238,225.03671)"
       gradientUnits="userSpaceOnUse">
      <stop
         stop-color="#1496ff"
         offset="0"
         id="stop7" />
      <stop
         stop-color="#0a78ff"
         offset="1"
         id="stop9" />
    </linearGradient>
    <linearGradient
       id="linearGradient1150"
       x1="-56.875"
       x2="-56.875"
       y1="-185.88"
       y2="-160.88"
       gradientUnits="userSpaceOnUse">
      <stop
         stop-color="#0a82ff"
         offset="0"
         id="stop12" />
      <stop
         stop-color="#0564c8"
         offset="1"
         id="stop14" />
    </linearGradient>
    <linearGradient
       id="linearGradient1164"
       x1="-27.625"
       x2="-27.625"
       y1="-188"
       y2="-160.75"
       gradientUnits="userSpaceOnUse">
      <stop
         stop-color="#004bb9"
         offset="0"
         id="stop17" />
      <stop
         stop-color="#0546b4"
         offset="1"
         id="stop19" />
    </linearGradient>
  </defs>
  <sodipodi:namedview
     pagecolor="#ffffff"
     bordercolor="#666666"
     borderopacity="1"
     objecttolerance="10"
     gridtolerance="10"
     guidetolerance="10"
     inkscape:pageopacity="0"
     inkscape:pageshadow="2"
     inkscape:window-width="1280"
     inkscape:window-height="954"
     id="namedview39"
     showgrid="false"
     inkscape:zoom="3.6875"
     inkscape:cx="31.278694"
     inkscape:cy="12.669005"
     inkscape:window-x="0"
     inkscape:window-y="0"
     inkscape:window-maximized="1"
     inkscape:current-layer="svg37" />
  <g
     id="g4076"
     transform="matrix(0.13023206,0,0,0.13023206,-13.314466,49.165593)">
    <path
       inkscape:connector-curvature="0"
       id="path4052"
       d="m 286.52289,-356.02026 c -16.75589,0 -31.02973,10.61145 -36.5,25.46875 h 73 c -5.47018,-14.85746 -19.744,-25.46875 -36.5,-25.46875 z"
       style="fill:#1875c5;fill-opacity:1;fill-rule:evenodd;stroke:none" />
    <g
       id="g4057">
      <path
         style="fill:none;stroke:#2d384c;stroke-width:12.60000038;stroke-linecap:butt;stroke-linejoin:miter;stroke-miterlimit:4;stroke-dasharray:none;stroke-opacity:1"
         d="m 404.46508,140.76894 -20.85965,20.85965"
         id="path4048"
         inkscape:connector-curvature="0"
         transform="translate(0,-448)" />
      <path
         style="fill:none;stroke:#2d384c;stroke-width:12.60000038;stroke-linecap:butt;stroke-linejoin:miter;stroke-miterlimit:4;stroke-dasharray:none;stroke-opacity:1"
         d="m 164.75588,141.47605 24.39518,24.39518"
         id="path4050"
         inkscape:connector-curvature="0"
         transform="translate(0,-448)" />
      <g
         id="g4029"
         transform="translate(-1.4771114)">
        <path
           inkscape:connector-curvature="0"
           id="path3999"
           d="m 210.4472,-78.1875 a 11.851185,11.851185 0 0 0 -9.15625,4.03125 l -26.375,29.21875 a 11.851185,11.851185 0 1 0 17.5625,15.875 l 26.40625,-29.21875 a 11.851185,11.851185 0 0 0 -8.4375,-19.90625 z m 154.96875,0 a 11.851185,11.851185 0 0 0 -8.09375,19.90625 l 26.40625,29.21875 a 11.851185,11.851185 0 1 0 17.59375,-15.875 l -26.40625,-29.21875 a 11.851185,11.851185 0 0 0 -9.5,-4.03125 z"
           style="color:#000000;font-style:normal;font-variant:normal;font-weight:normal;font-stretch:normal;font-size:medium;line-height:normal;font-family:Sans;-inkscape-font-specification:Sans;text-indent:0;text-align:start;text-decoration:none;text-decoration-line:none;letter-spacing:normal;word-spacing:normal;text-transform:none;writing-mode:lr-tb;direction:ltr;baseline-shift:baseline;text-anchor:start;display:inline;overflow:visible;visibility:visible;fill:#62a1d3;fill-opacity:1;stroke:none;stroke-width:23.70000076;marker:none;enable-background:accumulate" />
        <circle
           r="138"
           cy="262"
           cx="288"
           style="fill:#ffeec9;fill-opacity:1;fill-rule:evenodd;stroke:none"
           id="path3932"
           transform="translate(0,-448)" />
        <path
           style="color:#000000;font-style:normal;font-variant:normal;font-weight:normal;font-stretch:normal;font-size:medium;line-height:normal;font-family:Sans;-inkscape-font-specification:Sans;text-indent:0;text-align:start;text-decoration:none;text-decoration-line:none;letter-spacing:normal;word-spacing:normal;text-transform:none;writing-mode:lr-tb;direction:ltr;baseline-shift:baseline;text-anchor:start;display:inline;overflow:visible;visibility:visible;fill:url(#linearGradient4097);fill-opacity:1;fill-rule:evenodd;stroke:none;stroke-width:26.89999962;marker:none;enable-background:accumulate"
           d="m 288,-330.9375 c -79.90091,0 -144.9375,65.03659 -144.9375,144.9375 0,79.90091 65.03659,144.9375 144.9375,144.9375 79.90091,0 144.9375,-65.03659 144.9375,-144.9375 0,-79.90091 -65.03659,-144.9375 -144.9375,-144.9375 z m 0,25.72148 c 65.98706,0 119.21602,53.22896 119.21602,119.21602 0,65.98706 -53.22896,119.216028 -119.21602,119.216028 -65.98706,0 -119.21602,-53.228968 -119.21602,-119.216028 0,-65.98706 53.22896,-119.21602 119.21602,-119.21602 z"
           id="path3960"
           inkscape:connector-curvature="0" />
        <path
           clip-path="url(#clipPath4017)"
           style="color:#000000;font-style:normal;font-variant:normal;font-weight:normal;font-stretch:normal;font-size:medium;line-height:normal;font-family:Sans;-inkscape-font-specification:Sans;text-indent:0;text-align:start;text-decoration:none;text-decoration-line:none;letter-spacing:normal;word-spacing:normal;text-transform:none;writing-mode:lr-tb;direction:ltr;baseline-shift:baseline;text-anchor:start;display:inline;overflow:visible;visibility:visible;fill:#000000;fill-opacity:0.56999966;fill-rule:evenodd;stroke:none;stroke-width:26.89999962;marker:none;enable-background:accumulate"
           d="m 288,-334.4375 c -83.48421,0 -151.4375,67.95329 -151.4375,151.4375 0,83.48421 67.95329,151.4375 151.4375,151.4375 83.48421,0 151.4375,-67.95329 151.4375,-151.4375 0,-83.48421 -67.95329,-151.4375 -151.4375,-151.4375 z m 0,26.875 c 68.94638,0 124.5625,55.61612 124.5625,124.5625 0,68.94638 -55.61612,124.5625 -124.5625,124.5625 -68.94638,0 -124.5625,-55.61612 -124.5625,-124.5625 0,-68.94638 55.61612,-124.5625 124.5625,-124.5625 z"
           id="path4012"
           inkscape:connector-curvature="0" />
        <path
           inkscape:connector-curvature="0"
           id="path3930"
           d="m 288,-337.4375 c -83.48421,0 -151.4375,67.95329 -151.4375,151.4375 0,83.48421 67.95329,151.4375 151.4375,151.4375 83.48421,0 151.4375,-67.95329 151.4375,-151.4375 0,-83.48421 -67.95329,-151.4375 -151.4375,-151.4375 z m 0,26.875 c 68.94638,0 124.5625,55.61612 124.5625,124.5625 0,68.94638 -55.61612,124.5625 -124.5625,124.5625 -68.94638,0 -124.5625,-55.61612 -124.5625,-124.5625 0,-68.94638 55.61612,-124.5625 124.5625,-124.5625 z"
           style="color:#000000;font-style:normal;font-variant:normal;font-weight:normal;font-stretch:normal;font-size:medium;line-height:normal;font-family:Sans;-inkscape-font-specification:Sans;text-indent:0;text-align:start;text-decoration:none;text-decoration-line:none;letter-spacing:normal;word-spacing:normal;text-transform:none;writing-mode:lr-tb;direction:ltr;baseline-shift:baseline;text-anchor:start;display:inline;overflow:visible;visibility:visible;fill:#62a1d3;fill-opacity:1;fill-rule:evenodd;stroke:none;stroke-width:26.89999962;marker:none;enable-background:accumulate" />
        <path
           sodipodi:nodetypes="cccccccccc"
           transform="translate(0,-448)"
           inkscape:connector-curvature="0"
           id="path3946"
           d="m 434.51712,322.14183 -145.31045,-145.31044 -2.47487,94.75231 -22.92767,-5.06066 -4.59619,0.35355 24.34188,23.09188 3.35876,4.5962 35.35533,35.35533 72.90804,72.90804 z"
           style="fill:url(#linearGradient4099);fill-opacity:1;stroke:none" />
        <path
           id="path3942"
           transform="translate(0,-448)"
           d="m 287.90625,175.8125 a 5.4005401,5.4005401 0 0 0 -5.3125,5.46875 v 75.3125 h -19.875 a 5.40625,5.40625 0 0 0 0,10.8125 h 19.875 v 21.875 a 5.40625,5.40625 0 0 0 10.8125,0 v -21.875 h 50.3125 a 5.40625,5.40625 0 0 0 0,-10.8125 h -50.3125 v -75.3125 a 5.4005401,5.4005401 0 0 0 -5.5,-5.46875 z"
           style="color:#000000;font-style:normal;font-variant:normal;font-weight:normal;font-stretch:normal;font-size:medium;line-height:normal;font-family:Sans;-inkscape-font-specification:Sans;text-indent:0;text-align:start;text-decoration:none;text-decoration-line:none;letter-spacing:normal;word-spacing:normal;text-transform:none;writing-mode:lr-tb;direction:ltr;baseline-shift:baseline;text-anchor:start;display:inline;overflow:visible;visibility:visible;fill:#464a5e;fill-opacity:1;stroke:none;stroke-width:10.80000019;marker:none;enable-background:accumulate"
           inkscape:connector-curvature="0" />
        <circle
           r="18"
           cy="267"
           cx="283"
           clip-path="url(#clipPath3995)"
           style="fill:#000000;fill-opacity:0.11499999;fill-rule:evenodd;stroke:none"
           id="path3978"
           transform="translate(6.7677669,-451.23223)" />
        <circle
           r="18"
           cy="267"
           cx="283"
           transform="translate(5,-453)"
           id="path3940"
           style="fill:#e77860;fill-opacity:1;fill-rule:evenodd;stroke:none" />
        <path
           inkscape:connector-curvature="0"
           id="path3970"
           d="m 288,-295.91735 v 17.67767"
           style="fill:none;stroke:#e77860;stroke-width:10.19999981;stroke-linecap:round;stroke-linejoin:miter;stroke-miterlimit:4;stroke-dasharray:none;stroke-opacity:1" />
        <path
           style="fill:none;stroke:#e77860;stroke-width:10.19999981;stroke-linecap:round;stroke-linejoin:miter;stroke-miterlimit:4;stroke-dasharray:none;stroke-opacity:1"
           d="m 288,-100.04877 v 17.677671"
           id="path3972"
           inkscape:connector-curvature="0" />
        <path
           inkscape:connector-curvature="0"
           id="path3974"
           d="M 200.46477,-186 H 182.78709"
           style="fill:none;stroke:#e77860;stroke-width:10.19999981;stroke-linecap:round;stroke-linejoin:miter;stroke-miterlimit:4;stroke-dasharray:none;stroke-opacity:1" />
        <path
           style="fill:none;stroke:#e77860;stroke-width:10.19999981;stroke-linecap:round;stroke-linejoin:miter;stroke-miterlimit:4;stroke-dasharray:none;stroke-opacity:1"
           d="M 396.33335,-186 H 378.65567"
           id="path3976"
           inkscape:connector-curvature="0" />
      </g>
      <path
         style="fill:#1875c5;fill-opacity:1;fill-rule:evenodd;stroke:none"
         d="m 171.9375,-361.75 c -14.62615,0.17708 -29.23349,5.58997 -40.78125,16.34375 -24.63523,22.9414 -26.03515,61.48977 -3.09375,86.125 0.69521,0.74655 1.43317,1.4837 2.15625,2.1875 l 89.09375,-82.96875 c -0.65062,-0.77129 -1.33604,-1.53471 -2.03125,-2.28125 -12.18762,-13.08747 -28.76744,-19.60694 -45.34375,-19.40625 z m 229.1875,0 c -16.57631,-0.20069 -33.18738,6.31878 -45.375,19.40625 -0.69521,0.74654 -1.38063,1.50996 -2.03125,2.28125 l 89.125,82.96875 c 0.72308,-0.7038 1.42979,-1.44095 2.125,-2.1875 22.9414,-24.63523 21.57273,-63.1836 -3.0625,-86.125 -11.54776,-10.75378 -26.1551,-16.16667 -40.78125,-16.34375 z"
         id="path4021"
         inkscape:connector-curvature="0" />
    </g>
  </g>
</svg>
