<?xml version="1.0" encoding="UTF-8" standalone="no"?>
<svg
   xmlns:dc="http://purl.org/dc/elements/1.1/"
   xmlns:cc="http://creativecommons.org/ns#"
   xmlns:rdf="http://www.w3.org/1999/02/22-rdf-syntax-ns#"
   xmlns:svg="http://www.w3.org/2000/svg"
   xmlns="http://www.w3.org/2000/svg"
   xmlns:sodipodi="http://sodipodi.sourceforge.net/DTD/sodipodi-0.dtd"
   xmlns:inkscape="http://www.inkscape.org/namespaces/inkscape"
   width="48"
   height="48"
   viewBox="0 0 48 48"
   version="1.1"
   id="svg11"
   sodipodi:docname="androidstudio.svg"
   inkscape:version="0.92.4 (5da689c313, 2019-01-14)">
  <metadata
     id="metadata17">
    <rdf:RDF>
      <cc:Work
         rdf:about="">
        <dc:format>image/svg+xml</dc:format>
        <dc:type
           rdf:resource="http://purl.org/dc/dcmitype/StillImage" />
        <dc:title></dc:title>
      </cc:Work>
    </rdf:RDF>
  </metadata>
  <defs
     id="defs15" />
  <sodipodi:namedview
     pagecolor="#ffffff"
     bordercolor="#666666"
     borderopacity="1"
     objecttolerance="10"
     gridtolerance="10"
     guidetolerance="10"
     inkscape:pageopacity="0"
     inkscape:pageshadow="2"
     inkscape:window-width="1280"
     inkscape:window-height="954"
     id="namedview13"
     showgrid="false"
     inkscape:zoom="3.6875"
     inkscape:cx="27.254237"
     inkscape:cy="32"
     inkscape:window-x="0"
     inkscape:window-y="0"
     inkscape:window-maximized="1"
     inkscape:current-layer="svg11" />
  <g
     id="surface1"
     transform="matrix(0.75308968,0,0,0.75308968,0.08940266,-0.28714218)">
    <path
       style="fill:#9ccc63;fill-opacity:1;fill-rule:nonzero;stroke:none"
       d="m 31.75,3.144531 c 16.074219,0 29.105469,13.03125 29.105469,29.105469 0,16.074219 -13.03125,29.105469 -29.105469,29.105469 C 15.675781,61.355469 2.644531,48.324219 2.644531,32.25 2.644531,16.175781 15.675781,3.144531 31.75,3.144531 Z m 0,0"
       id="path2"
       inkscape:connector-curvature="0" />
    <path
       style="fill:#eeeeee;fill-opacity:1;fill-rule:nonzero;stroke:none"
       d="m 26.8125,30.242188 -14.550781,25.207031 -0.355469,5.90625 4.9375,-3.261719 5.648438,-9.785156 C 25.214844,49.875 28.375,50.769531 31.75,50.769531 c 3.375,0 6.535156,-0.894531 9.257812,-2.460937 l 5.648438,9.785156 4.9375,3.261719 -0.355469,-5.90625 L 45.207031,45 c 3.140625,-3.316406 5.0625,-7.800781 5.0625,-12.75 0,-0.550781 -0.589843,-0.992188 -1.320312,-0.992188 -0.734375,0 -1.324219,0.441407 -1.324219,0.992188 0,3.957031 -1.433594,7.566406 -3.808594,10.339844 L 36.6875,30.242188 l -4.582031,2.648437 7.578125,13.125 C 37.351562,47.359375 34.644531,48.125 31.75,48.125 c -2.894531,0 -5.601562,-0.765625 -7.933594,-2.109375 l 7.578125,-13.125 z m 0,0"
       id="path4"
       inkscape:connector-curvature="0" />
    <path
       style="fill:#3f3f3f;fill-opacity:1;fill-rule:nonzero;stroke:none"
       d="m 31.75,11.082031 c -1.464844,0 -2.644531,1.179688 -2.644531,2.648438 V 24.3125 H 27.78125 c -0.730469,0 -1.324219,0.59375 -1.324219,1.324219 v 4.628906 c 0,0.394531 0.175781,0.765625 0.476563,1.015625 l 3.96875,3.308594 C 31.394531,35 32.105469,35 32.597656,34.589844 l 3.96875,-3.308594 c 0.300782,-0.25 0.476563,-0.621094 0.476563,-1.015625 v -4.628906 c 0,-0.730469 -0.59375,-1.324219 -1.324219,-1.324219 H 34.394531 V 13.730469 c 0,-1.46875 -1.179687,-2.648438 -2.644531,-2.648438 z m 0,0"
       id="path6"
       inkscape:connector-curvature="0" />
    <path
       style="fill:#eeeeee;fill-opacity:0.94347797;fill-rule:nonzero;stroke:none"
       d="m 31.75,26.957031 c 1.097656,0 1.984375,0.890625 1.984375,1.984375 0,1.097656 -0.886719,1.984375 -1.984375,1.984375 -1.097656,0 -1.984375,-0.886719 -1.984375,-1.984375 0,-1.09375 0.886719,-1.984375 1.984375,-1.984375 z m 0,0"
       id="path8"
       inkscape:connector-curvature="0" />
  </g>
</svg>
