<?xml version="1.0" encoding="UTF-8" standalone="no"?>
<svg
   xmlns:dc="http://purl.org/dc/elements/1.1/"
   xmlns:cc="http://creativecommons.org/ns#"
   xmlns:rdf="http://www.w3.org/1999/02/22-rdf-syntax-ns#"
   xmlns:svg="http://www.w3.org/2000/svg"
   xmlns="http://www.w3.org/2000/svg"
   xmlns:sodipodi="http://sodipodi.sourceforge.net/DTD/sodipodi-0.dtd"
   xmlns:inkscape="http://www.inkscape.org/namespaces/inkscape"
   width="48"
   height="48"
   viewBox="0 0 48 48"
   version="1.1"
   id="svg7"
   sodipodi:docname="anjuta.svg"
   inkscape:version="0.92.4 (5da689c313, 2019-01-14)">
  <metadata
     id="metadata13">
    <rdf:RDF>
      <cc:Work
         rdf:about="">
        <dc:format>image/svg+xml</dc:format>
        <dc:type
           rdf:resource="http://purl.org/dc/dcmitype/StillImage" />
        <dc:title></dc:title>
      </cc:Work>
    </rdf:RDF>
  </metadata>
  <defs
     id="defs11" />
  <sodipodi:namedview
     pagecolor="#ffffff"
     bordercolor="#666666"
     borderopacity="1"
     objecttolerance="10"
     gridtolerance="10"
     guidetolerance="10"
     inkscape:pageopacity="0"
     inkscape:pageshadow="2"
     inkscape:window-width="1280"
     inkscape:window-height="954"
     id="namedview9"
     showgrid="false"
     inkscape:zoom="3.6875"
     inkscape:cx="27.254237"
     inkscape:cy="32"
     inkscape:window-x="0"
     inkscape:window-y="0"
     inkscape:window-maximized="1"
     inkscape:current-layer="svg7" />
  <g
     id="surface1"
     transform="matrix(0.72979625,0,0,0.72979625,0.82896906,0.46407094)">
    <path
       style="fill:#eeeeee;fill-opacity:1;fill-rule:nonzero;stroke:none"
       d="m 31.75,3.144531 c 16.074219,0 29.105469,13.03125 29.105469,29.105469 0,16.074219 -13.03125,29.105469 -29.105469,29.105469 C 15.675781,61.355469 2.644531,48.324219 2.644531,32.25 2.644531,16.175781 15.675781,3.144531 31.75,3.144531 Z m 0,0"
       id="path2"
       inkscape:connector-curvature="0" />
    <path
       style="fill:#7d57c2;fill-opacity:1;fill-rule:nonzero;stroke:none"
       d="m 37.988281,12.433594 c -1.382812,0.0078 -3.730469,2.960937 -3.96875,4.265625 -2.28125,2.480469 -5.921875,2.867187 -8.78125,4.476562 -6.816406,3.1875 -13.371093,7.277344 -18.1875,13.164063 -1.5625,1.667968 2.210938,2.539062 -1.757812,3.203125 0.039062,0.820312 -0.222657,4.289062 -0.863281,4.796875 C 8.5,53.414062 19.085938,61.285156 31.589844,61.351562 31.875,55.175781 30.058594,48.902344 31.75,42.832031 c 1.542969,-3.117187 4.386719,2.058594 4.675781,3.988281 -0.09375,4.058594 5.136719,4.953126 7.589844,3.210938 2.78125,-2.570312 3.601563,-7.054688 1.894531,-10.453125 -0.757812,-3.175781 -2.042968,-6.902344 -0.167968,-9.941406 0.960937,-3.351563 -1.078126,-6.503907 -1.484376,-9.734375 0.757813,-1.347656 2.613282,-4.308594 2.042969,-4.1875 -2.910156,-0.324219 -4.488281,1.203125 -5.953125,1.320312 -2.503906,-0.117187 -1.601562,-4.257812 -2.359375,-4.601562 z m 0,0"
       id="path4"
       inkscape:connector-curvature="0" />
  </g>
</svg>
