<?xml version="1.0" encoding="UTF-8" standalone="no"?>
<svg
   xmlns:dc="http://purl.org/dc/elements/1.1/"
   xmlns:cc="http://creativecommons.org/ns#"
   xmlns:rdf="http://www.w3.org/1999/02/22-rdf-syntax-ns#"
   xmlns:svg="http://www.w3.org/2000/svg"
   xmlns="http://www.w3.org/2000/svg"
   xmlns:sodipodi="http://sodipodi.sourceforge.net/DTD/sodipodi-0.dtd"
   xmlns:inkscape="http://www.inkscape.org/namespaces/inkscape"
   width="48"
   height="48"
   viewBox="0 0 48 48"
   version="1.1"
   id="svg11"
   sodipodi:docname="appimagekit-gravit-designer.svg"
   inkscape:version="0.92.4 (5da689c313, 2019-01-14)">
  <metadata
     id="metadata17">
    <rdf:RDF>
      <cc:Work
         rdf:about="">
        <dc:format>image/svg+xml</dc:format>
        <dc:type
           rdf:resource="http://purl.org/dc/dcmitype/StillImage" />
        <dc:title></dc:title>
      </cc:Work>
    </rdf:RDF>
  </metadata>
  <defs
     id="defs15" />
  <sodipodi:namedview
     pagecolor="#ffffff"
     bordercolor="#666666"
     borderopacity="1"
     objecttolerance="10"
     gridtolerance="10"
     guidetolerance="10"
     inkscape:pageopacity="0"
     inkscape:pageshadow="2"
     inkscape:window-width="1280"
     inkscape:window-height="954"
     id="namedview13"
     showgrid="false"
     inkscape:zoom="3.6875"
     inkscape:cx="27.254237"
     inkscape:cy="32"
     inkscape:window-x="0"
     inkscape:window-y="0"
     inkscape:window-maximized="1"
     inkscape:current-layer="svg11" />
  <g
     id="surface1"
     transform="matrix(0.74850245,0,0,0.74850245,0.23504717,-0.13920388)">
    <path
       style="fill:#ffa623;fill-opacity:1;fill-rule:nonzero;stroke:#333333;stroke-width:0.164717;stroke-linecap:round;stroke-linejoin:miter;stroke-miterlimit:4;stroke-opacity:1"
       d="m 296.34988,-272.31036 c 160.10019,0 289.89222,129.79204 289.89222,289.892225 0,160.100185 -129.79203,289.892225 -289.89222,289.892225 -160.13909,0 -289.970033,-129.79204 -289.970033,-289.892225 0,-160.100185 129.830943,-289.892225 289.970033,-289.892225 z m 0,0"
       transform="matrix(0.100401,0,0,0.100401,2.000082,30.484763)"
       id="path2"
       inkscape:connector-curvature="0" />
    <path
       style="fill:#eb3f78;fill-opacity:1;fill-rule:nonzero;stroke:none"
       d="m 24.910156,3.941406 c -0.808594,0.195313 -1.59375,0.421875 -2.371094,0.675782 L 2.679688,30.75 c -0.023438,0.496094 -0.039063,0.996094 -0.039063,1.5 0,1.097656 0.0625,2.179688 0.183594,3.246094 z m 0,0"
       id="path4"
       inkscape:connector-curvature="0" />
    <path
       style="fill:#66ba68;fill-opacity:1;fill-rule:nonzero;stroke:none"
       d="M 60.664062,35.628906 C 49.921875,37.6875 40.03125,49.445312 39.441406,60.339844 50.757812,57.269531 59.300781,47.570312 60.664062,35.628906 Z m 0,0"
       id="path6"
       inkscape:connector-curvature="0" />
    <path
       style="fill:#eb3f78;fill-opacity:1;fill-rule:nonzero;stroke:none"
       d="m 31.753906,3.140625 c -0.585937,0 -1.167968,0.019531 -1.742187,0.050781 L 6.730469,47.171875 c 5.152343,8.65625 14.421875,14.023437 24.492187,14.179687 C 27.734375,39.410156 33.703125,16.289062 43.21875,5.472656 39.59375,3.925781 35.695312,3.136719 31.753906,3.140625 Z m 0,0"
       id="path8"
       inkscape:connector-curvature="0" />
  </g>
</svg>
