<?xml version="1.0" encoding="UTF-8" standalone="no"?>
<svg
   xmlns:dc="http://purl.org/dc/elements/1.1/"
   xmlns:cc="http://creativecommons.org/ns#"
   xmlns:rdf="http://www.w3.org/1999/02/22-rdf-syntax-ns#"
   xmlns:svg="http://www.w3.org/2000/svg"
   xmlns="http://www.w3.org/2000/svg"
   xmlns:sodipodi="http://sodipodi.sourceforge.net/DTD/sodipodi-0.dtd"
   xmlns:inkscape="http://www.inkscape.org/namespaces/inkscape"
   width="48"
   height="48"
   viewBox="0 0 48 48"
   version="1.1"
   id="svg64"
   sodipodi:docname="ark.svg"
   inkscape:version="0.92.4 (5da689c313, 2019-01-14)">
  <metadata
     id="metadata68">
    <rdf:RDF>
      <cc:Work
         rdf:about="">
        <dc:format>image/svg+xml</dc:format>
        <dc:type
           rdf:resource="http://purl.org/dc/dcmitype/StillImage" />
        <dc:title></dc:title>
      </cc:Work>
    </rdf:RDF>
  </metadata>
  <sodipodi:namedview
     pagecolor="#ffffff"
     bordercolor="#666666"
     borderopacity="1"
     objecttolerance="10"
     gridtolerance="10"
     guidetolerance="10"
     inkscape:pageopacity="0"
     inkscape:pageshadow="2"
     inkscape:window-width="1280"
     inkscape:window-height="954"
     id="namedview66"
     showgrid="false"
     inkscape:zoom="7.375"
     inkscape:cx="18.352832"
     inkscape:cy="29.889662"
     inkscape:window-x="0"
     inkscape:window-y="0"
     inkscape:window-maximized="1"
     inkscape:current-layer="svg64" />
  <defs
     id="defs7">
    <linearGradient
       id="linear0"
       gradientUnits="userSpaceOnUse"
       x1="381"
       y1="-41.666668"
       x2="381"
       y2="-62.833332"
       gradientTransform="matrix(0.03548964,0,0,-0.09122453,-0.42733542,22.129876)">
      <stop
         offset="0"
         style="stop-color:rgb(12.941177%,12.941177%,12.941177%);stop-opacity:0.392157;"
         id="stop2" />
      <stop
         offset="1"
         style="stop-color:rgb(49.411765%,34.117648%,76.078433%);stop-opacity:0;"
         id="stop4" />
    </linearGradient>
  </defs>
  <g
     id="g3926"
     transform="matrix(1.0877803,0,0,1.0877803,-2.1067273,-2.4017182)">
    <path
       style="fill:#63a1d4;fill-opacity:0.99215686;fill-rule:nonzero;stroke:none;stroke-width:0.69885904"
       d="M 6.2940731,3.0301243 H 41.705927 c 0.977709,0 1.772423,0.866633 1.772423,1.9328201 V 43.579428 c 0,1.066187 -0.794714,1.93282 -1.772423,1.93282 H 6.2940731 c -0.977708,0 -1.772423,-0.866633 -1.772423,-1.93282 V 4.9629444 c 0,-1.0661871 0.794715,-1.9328201 1.772423,-1.9328201 z m 0,0"
       id="path9"
       inkscape:connector-curvature="0" />
    <g
       transform="matrix(1.0551655,0,0,1.0551655,9.8861899,0.39017473)"
       id="g3898">
      <path
         inkscape:connector-curvature="0"
         id="path11"
         d="M 9.8336895,2.7589379 V 24 c 0,1.069038 0.7894865,1.929969 1.7724225,1.929969 h 3.539617 c 0.982937,0 1.772423,-0.860931 1.772423,-1.929969 V 2.7589379 Z m 0,0"
         style="fill:#000000;fill-opacity:0.235294;fill-rule:nonzero;stroke:none;stroke-width:0.69885904" />
      <path
         inkscape:connector-curvature="0"
         id="path13"
         d="m 10.719901,2.7589379 h 5.31204 V 24.96641 h -5.31204 z m 0,0"
         style="fill:#000000;fill-opacity:0.31372603;fill-rule:nonzero;stroke:none;stroke-width:0.69885904" />
      <path
         inkscape:connector-curvature="0"
         id="path15"
         d="m 10.942107,16.516738 c -0.245734,0 -0.444412,0.216658 -0.444412,0.48463 v 0.481779 c 0,0.267973 0.198678,0.48178 0.444412,0.48178 h 1.32801 c 0.243121,0 0.441798,-0.213807 0.441798,-0.48178 h 0.279719 c 0.07843,0.145389 0.219592,0.242316 0.384287,0.242316 0.245734,0 0.441798,-0.216658 0.441798,-0.484631 0,-0.265121 -0.196064,-0.481779 -0.441798,-0.481779 -0.164695,0 -0.305861,0.09693 -0.384287,0.242315 h -0.279719 c 0,-0.267972 -0.198677,-0.48463 -0.441798,-0.48463 z m 0,0"
         style="fill:#dedede;fill-opacity:1;fill-rule:nonzero;stroke:none;stroke-width:0.69885904" />
      <path
         inkscape:connector-curvature="0"
         id="path17"
         d="m 10.942107,18.931337 c -0.245734,0 -0.444412,0.216658 -0.444412,0.48178 v 0.48463 c 0,0.265122 0.198678,0.481779 0.444412,0.481779 h 1.32801 c 0.243121,0 0.441798,-0.216657 0.441798,-0.481779 h 0.279719 c 0.07843,0.142538 0.219592,0.239464 0.384287,0.239464 0.245734,0 0.441798,-0.213808 0.441798,-0.481779 0,-0.267972 -0.196064,-0.48178 -0.441798,-0.48178 -0.164695,0 -0.305861,0.09693 -0.384287,0.239465 h -0.279719 c 0,-0.265122 -0.198677,-0.48178 -0.441798,-0.48178 z m 0,0"
         style="fill:#dedede;fill-opacity:1;fill-rule:nonzero;stroke:none;stroke-width:0.69885904" />
      <path
         inkscape:connector-curvature="0"
         id="path19"
         d="m 10.942107,21.345936 c -0.245734,0 -0.444412,0.213808 -0.444412,0.48178 v 0.48178 c 0,0.267971 0.198678,0.48463 0.444412,0.48463 h 1.32801 c 0.243121,0 0.441798,-0.216659 0.441798,-0.48463 h 0.279719 c 0.07843,0.145388 0.219592,0.242315 0.384287,0.242315 0.245734,0 0.441798,-0.216659 0.441798,-0.48178 0,-0.267972 -0.196064,-0.48463 -0.441798,-0.48463 -0.164695,0 -0.305861,0.09693 -0.384287,0.242315 h -0.279719 c 0,-0.267972 -0.198677,-0.48178 -0.441798,-0.48178 z m 0,0"
         style="fill:#dedede;fill-opacity:1;fill-rule:nonzero;stroke:none;stroke-width:0.69885904" />
      <path
         inkscape:connector-curvature="0"
         id="path21"
         d="m 10.942107,14.104989 c -0.245734,0 -0.444412,0.213808 -0.444412,0.481779 v 0.48178 c 0,0.267972 0.198678,0.48463 0.444412,0.48463 h 1.32801 c 0.243121,0 0.441798,-0.216658 0.441798,-0.48463 h 0.279719 c 0.07843,0.14539 0.219592,0.242315 0.384287,0.242315 0.245734,0 0.441798,-0.216658 0.441798,-0.481779 0,-0.267972 -0.196064,-0.484631 -0.441798,-0.484631 -0.164695,0 -0.305861,0.09693 -0.384287,0.242315 h -0.279719 c 0,-0.267971 -0.198677,-0.481779 -0.441798,-0.481779 z m 0,0"
         style="fill:#dedede;fill-opacity:1;fill-rule:nonzero;stroke:none;stroke-width:0.69885904" />
      <path
         inkscape:connector-curvature="0"
         id="path23"
         d="m 10.942107,11.690389 c -0.245734,0 -0.444412,0.216659 -0.444412,0.481781 v 0.48463 c 0,0.265121 0.198678,0.48178 0.444412,0.48178 h 1.32801 c 0.243121,0 0.441798,-0.216659 0.441798,-0.48178 h 0.279719 c 0.07843,0.142538 0.219592,0.239464 0.384287,0.239464 0.245734,0 0.441798,-0.213807 0.441798,-0.481779 0,-0.267973 -0.196064,-0.48178 -0.441798,-0.48178 -0.164695,0 -0.305861,0.09693 -0.384287,0.239465 h -0.279719 c 0,-0.265122 -0.198677,-0.481781 -0.441798,-0.481781 z m 0,0"
         style="fill:#dedede;fill-opacity:1;fill-rule:nonzero;stroke:none;stroke-width:0.69885904" />
      <path
         inkscape:connector-curvature="0"
         id="path25"
         d="m 10.942107,9.2757907 c -0.245734,0 -0.444412,0.2166582 -0.444412,0.4846299 v 0.4817804 c 0,0.267971 0.198678,0.481779 0.444412,0.481779 h 1.32801 c 0.243121,0 0.441798,-0.213808 0.441798,-0.481779 h 0.279719 c 0.07843,0.145388 0.219592,0.242315 0.384287,0.242315 0.245734,0 0.441798,-0.216659 0.441798,-0.484631 0,-0.2651211 -0.196064,-0.4817793 -0.441798,-0.4817793 -0.164695,0 -0.305861,0.096926 -0.384287,0.2423149 h -0.279719 c 0,-0.2679717 -0.198677,-0.4846299 -0.441798,-0.4846299 z m 0,0"
         style="fill:#dedede;fill-opacity:1;fill-rule:nonzero;stroke:none;stroke-width:0.69885904" />
      <path
         inkscape:connector-curvature="0"
         id="path27"
         d="m 10.942107,6.8640418 c -0.245734,0 -0.444412,0.2138077 -0.444412,0.4817801 v 0.4817794 c 0,0.2679716 0.198678,0.4846299 0.444412,0.4846299 h 1.32801 c 0.243121,0 0.441798,-0.2166583 0.441798,-0.4846299 h 0.279719 c 0.07843,0.1453885 0.219592,0.2423149 0.384287,0.2423149 0.245734,0 0.441798,-0.2166582 0.441798,-0.4817793 0,-0.2679725 -0.196064,-0.4846307 -0.441798,-0.4846307 -0.164695,0 -0.305861,0.096926 -0.384287,0.2423157 h -0.279719 c 0,-0.2679724 -0.198677,-0.4817801 -0.441798,-0.4817801 z m 0,0"
         style="fill:#dedede;fill-opacity:1;fill-rule:nonzero;stroke:none;stroke-width:0.69885904" />
      <path
         inkscape:connector-curvature="0"
         id="path29"
         d="m 10.942107,4.449443 c -0.245734,0 -0.444412,0.2166575 -0.444412,0.4817794 v 0.4846299 c 0,0.2651219 0.198678,0.4817794 0.444412,0.4817794 h 1.32801 c 0.243121,0 0.441798,-0.2166575 0.441798,-0.4817794 h 0.279719 c 0.07843,0.1425387 0.219592,0.2394644 0.384287,0.2394644 0.245734,0 0.441798,-0.2138076 0.441798,-0.4817793 0,-0.2679717 -0.196064,-0.4817794 -0.441798,-0.4817794 -0.164695,0 -0.305861,0.096926 -0.384287,0.2394644 h -0.279719 c 0,-0.2651219 -0.198677,-0.4817794 -0.441798,-0.4817794 z m 0,0"
         style="fill:#dedede;fill-opacity:1;fill-rule:nonzero;stroke:none;stroke-width:0.69885904" />
      <path
         inkscape:connector-curvature="0"
         id="path31"
         d="m 15.809734,15.310863 c 0.245734,0 0.444413,0.216659 0.444413,0.48178 v 0.48463 c 0,0.265122 -0.198679,0.48178 -0.444413,0.48178 h -1.32801 c -0.24312,0 -0.441798,-0.216658 -0.441798,-0.48178 h -0.279719 c -0.07843,0.142538 -0.219592,0.239465 -0.384286,0.239465 -0.245735,0 -0.441799,-0.213808 -0.441799,-0.48178 0,-0.267972 0.196064,-0.48178 0.441799,-0.48178 0.164694,0 0.30586,0.09693 0.384286,0.239465 h 0.279719 c 0,-0.265121 0.198678,-0.48178 0.441798,-0.48178 z m 0,0"
         style="fill:#dedede;fill-opacity:1;fill-rule:nonzero;stroke:none;stroke-width:0.69885904" />
      <path
         inkscape:connector-curvature="0"
         id="path33"
         d="m 15.809734,17.725463 c 0.245734,0 0.444413,0.213807 0.444413,0.481779 v 0.48178 c 0,0.267972 -0.198679,0.48463 -0.444413,0.48463 h -1.32801 c -0.24312,0 -0.441798,-0.216658 -0.441798,-0.48463 h -0.279719 c -0.07843,0.145389 -0.219592,0.242315 -0.384286,0.242315 -0.245735,0 -0.441799,-0.216659 -0.441799,-0.48178 0,-0.267971 0.196064,-0.48463 0.441799,-0.48463 0.164694,0 0.30586,0.09693 0.384286,0.242315 h 0.279719 c 0,-0.267972 0.198678,-0.481779 0.441798,-0.481779 z m 0,0"
         style="fill:#dedede;fill-opacity:1;fill-rule:nonzero;stroke:none;stroke-width:0.69885904" />
      <path
         inkscape:connector-curvature="0"
         id="path35"
         d="m 15.809734,20.137211 c 0.245734,0 0.444413,0.216658 0.444413,0.484631 v 0.481779 c 0,0.267973 -0.198679,0.48178 -0.444413,0.48178 h -1.32801 c -0.24312,0 -0.441798,-0.213807 -0.441798,-0.48178 h -0.279719 c -0.07843,0.145389 -0.219592,0.242315 -0.384286,0.242315 -0.245735,0 -0.441799,-0.216658 -0.441799,-0.48463 0,-0.265121 0.196064,-0.48178 0.441799,-0.48178 0.164694,0 0.30586,0.09693 0.384286,0.242316 h 0.279719 c 0,-0.267973 0.198678,-0.484631 0.441798,-0.484631 z m 0,0"
         style="fill:#dedede;fill-opacity:1;fill-rule:nonzero;stroke:none;stroke-width:0.69885904" />
      <path
         inkscape:connector-curvature="0"
         id="path37"
         d="m 15.809734,22.551811 c 0.245734,0 0.444413,0.216658 0.444413,0.481779 v 0.484631 C 16.254147,23.783342 16.055468,24 15.809734,24 h -1.32801 c -0.24312,0 -0.441798,-0.216658 -0.441798,-0.481779 h -0.279719 c -0.07843,0.142538 -0.219592,0.239464 -0.384286,0.239464 -0.245735,0 -0.441799,-0.213808 -0.441799,-0.48178 0,-0.267972 0.196064,-0.481779 0.441799,-0.481779 0.164694,0 0.30586,0.09693 0.384286,0.239464 h 0.279719 c 0,-0.265121 0.198678,-0.481779 0.441798,-0.481779 z m 0,0"
         style="fill:#dedede;fill-opacity:1;fill-rule:nonzero;stroke:none;stroke-width:0.69885904" />
      <path
         inkscape:connector-curvature="0"
         id="path39"
         d="m 15.809734,12.896264 c 0.245734,0 0.444413,0.216658 0.444413,0.484631 v 0.481779 c 0,0.267972 -0.198679,0.481779 -0.444413,0.481779 h -1.32801 c -0.24312,0 -0.441798,-0.213807 -0.441798,-0.481779 h -0.279719 c -0.07843,0.145389 -0.219592,0.242315 -0.384286,0.242315 -0.245735,0 -0.441799,-0.216658 -0.441799,-0.48463 0,-0.265122 0.196064,-0.481779 0.441799,-0.481779 0.164694,0 0.30586,0.09693 0.384286,0.242315 h 0.279719 c 0,-0.267973 0.198678,-0.484631 0.441798,-0.484631 z m 0,0"
         style="fill:#dedede;fill-opacity:1;fill-rule:nonzero;stroke:none;stroke-width:0.69885904" />
      <path
         inkscape:connector-curvature="0"
         id="path41"
         d="m 15.809734,10.484516 c 0.245734,0 0.444413,0.213807 0.444413,0.481779 v 0.481779 c 0,0.267973 -0.198679,0.484631 -0.444413,0.484631 h -1.32801 c -0.24312,0 -0.441798,-0.216658 -0.441798,-0.484631 h -0.279719 c -0.07843,0.14539 -0.219592,0.242315 -0.384286,0.242315 -0.245735,0 -0.441799,-0.216657 -0.441799,-0.481779 0,-0.267972 0.196064,-0.48463 0.441799,-0.48463 0.164694,0 0.30586,0.09693 0.384286,0.242315 h 0.279719 c 0,-0.267972 0.198678,-0.481779 0.441798,-0.481779 z m 0,0"
         style="fill:#dedede;fill-opacity:1;fill-rule:nonzero;stroke:none;stroke-width:0.69885904" />
      <path
         inkscape:connector-curvature="0"
         id="path43"
         d="m 15.809734,8.0699162 c 0.245734,0 0.444413,0.2166583 0.444413,0.4817794 v 0.4846307 c 0,0.2651211 -0.198679,0.4817794 -0.444413,0.4817794 h -1.32801 c -0.24312,0 -0.441798,-0.2166583 -0.441798,-0.4817794 h -0.279719 c -0.07843,0.142538 -0.219592,0.2394644 -0.384286,0.2394644 -0.245735,0 -0.441799,-0.2138077 -0.441799,-0.4817801 0,-0.2679717 0.196064,-0.4817794 0.441799,-0.4817794 0.164694,0 0.30586,0.096926 0.384286,0.2394644 h 0.279719 c 0,-0.2651211 0.198678,-0.4817794 0.441798,-0.4817794 z m 0,0"
         style="fill:#dedede;fill-opacity:1;fill-rule:nonzero;stroke:none;stroke-width:0.69885904" />
      <path
         inkscape:connector-curvature="0"
         id="path45"
         d="m 15.809734,5.6553167 c 0.245734,0 0.444413,0.2166583 0.444413,0.4846307 v 0.4817794 c 0,0.2679724 -0.198679,0.4817794 -0.444413,0.4817794 h -1.32801 c -0.24312,0 -0.441798,-0.213807 -0.441798,-0.4817794 h -0.279719 c -0.07843,0.1453893 -0.219592,0.242315 -0.384286,0.242315 -0.245735,0 -0.441799,-0.2166583 -0.441799,-0.48463 0,-0.2651211 0.196064,-0.4817801 0.441799,-0.4817801 0.164694,0 0.30586,0.096926 0.384286,0.2423157 h 0.279719 c 0,-0.2679724 0.198678,-0.4846307 0.441798,-0.4846307 z m 0,0"
         style="fill:#dedede;fill-opacity:1;fill-rule:nonzero;stroke:none;stroke-width:0.69885904" />
      <path
         inkscape:connector-curvature="0"
         id="path47"
         d="m 15.809734,3.2435686 c 0.245734,0 0.444413,0.2138069 0.444413,0.4817793 v 0.4817794 c 0,0.2679724 -0.198679,0.4846307 -0.444413,0.4846307 h -1.32801 c -0.24312,0 -0.441798,-0.2166583 -0.441798,-0.4846307 h -0.279719 c -0.07843,0.1453893 -0.219592,0.2423157 -0.384286,0.2423157 -0.245735,0 -0.441799,-0.216659 -0.441799,-0.4817801 0,-0.2679717 0.196064,-0.4846299 0.441799,-0.4846299 0.164694,0 0.30586,0.096926 0.384286,0.2423149 h 0.279719 c 0,-0.2679724 0.198678,-0.4817793 0.441798,-0.4817793 z m 0,0"
         style="fill:#dedede;fill-opacity:1;fill-rule:nonzero;stroke:none;stroke-width:0.69885904" />
      <path
         inkscape:connector-curvature="0"
         id="path49"
         d="m 10.497695,2.7589379 v 0.242315 c 0,0.2679724 0.198678,0.4817801 0.444412,0.4817801 h 1.32801 c 0.243121,0 0.441798,-0.2138077 0.441798,-0.4817801 h 0.279719 c 0.07843,0.1453892 0.219592,0.2423157 0.384287,0.2423157 0.245734,0 0.441798,-0.2166583 0.441798,-0.4846307 z m 0,0"
         style="fill:#dedede;fill-opacity:1;fill-rule:nonzero;stroke:none;stroke-width:0.69885904" />
      <path
         inkscape:connector-curvature="0"
         id="path51"
         d="m 10.278103,27.862789 h 6.195636 V 24.96641 h -6.195636 z m 0,0"
         style="fill:url(#linear0);fill-rule:nonzero;stroke:none;stroke-width:0.69885904" />
      <path
         inkscape:connector-curvature="0"
         id="path53"
         d="m 13.375921,22.551811 c 1.712296,0 3.097818,1.188769 3.097818,2.654063 0,1.468145 -1.385522,2.656915 -3.097818,2.656915 -1.712297,0 -3.097818,-1.18877 -3.097818,-2.656915 0,-1.465294 1.385521,-2.654063 3.097818,-2.654063 z m 0,0"
         style="fill:#bdbdbd;fill-opacity:1;fill-rule:nonzero;stroke:none;stroke-width:0.69885904" />
      <path
         inkscape:connector-curvature="0"
         id="path55"
         d="m 13.375921,24.96641 c -0.980323,0 -1.769809,0.860931 -1.769809,1.929969 l -0.886211,7.722726 v 1.932821 c 0,1.604981 1.184229,2.896378 2.65602,2.896378 1.47179,0 2.65602,-1.291397 2.65602,-2.896378 v -1.932821 l -0.886212,-7.722726 c 0,-1.069038 -0.789486,-1.929969 -1.769808,-1.929969 z m 0,0.963559 c 0.491468,0 0.886211,0.430466 0.886211,0.96641 0,0.535944 -0.394743,0.96641 -0.886211,0.96641 -0.491468,0 -0.886212,-0.430466 -0.886212,-0.96641 0,-0.535944 0.394744,-0.96641 0.886212,-0.96641 z m 0,3.862789 c 0.734588,0 1.32801,0.647124 1.32801,1.448189 v 0.96641 c 0,0.801065 -0.593422,1.44819 -1.32801,1.44819 -0.734588,0 -1.32801,-0.647125 -1.32801,-1.44819 v -0.96641 c 0,-0.801065 0.593422,-1.448189 1.32801,-1.448189 z m 0,4.826347 c 0.980322,0 1.769808,0.860932 1.769808,1.932821 0,1.069036 -0.789486,1.929968 -1.769808,1.929968 -0.980323,0 -1.769809,-0.860932 -1.769809,-1.929968 0,-1.071889 0.789486,-1.932821 1.769809,-1.932821 z m 0,0"
         style="fill:#dedede;fill-opacity:1;fill-rule:nonzero;stroke:none;stroke-width:0.69885904" />
      <path
         inkscape:connector-curvature="0"
         id="path57"
         d="m 12.934122,23.03359 h 0.883597 c 0.245735,0 0.444413,0.216658 0.444413,0.484631 v 3.378158 c 0,0.267972 -0.198678,0.481779 -0.444413,0.481779 h -0.883597 c -0.245734,0 -0.444413,-0.213807 -0.444413,-0.481779 v -3.378158 c 0,-0.267973 0.198679,-0.484631 0.444413,-0.484631 z m 0,0"
         style="fill:#dedede;fill-opacity:1;fill-rule:nonzero;stroke:none;stroke-width:0.69885904" />
    </g>
  </g>
</svg>
