<?xml version="1.0" encoding="UTF-8" standalone="no"?>
<svg
   xmlns:dc="http://purl.org/dc/elements/1.1/"
   xmlns:cc="http://creativecommons.org/ns#"
   xmlns:rdf="http://www.w3.org/1999/02/22-rdf-syntax-ns#"
   xmlns:svg="http://www.w3.org/2000/svg"
   xmlns="http://www.w3.org/2000/svg"
   xmlns:sodipodi="http://sodipodi.sourceforge.net/DTD/sodipodi-0.dtd"
   xmlns:inkscape="http://www.inkscape.org/namespaces/inkscape"
   width="48"
   height="48"
   viewBox="0 0 48 48"
   version="1.1"
   id="svg11"
   sodipodi:docname="atom.svg"
   inkscape:version="0.92.4 (5da689c313, 2019-01-14)">
  <metadata
     id="metadata17">
    <rdf:RDF>
      <cc:Work
         rdf:about="">
        <dc:format>image/svg+xml</dc:format>
        <dc:type
           rdf:resource="http://purl.org/dc/dcmitype/StillImage" />
        <dc:title></dc:title>
      </cc:Work>
    </rdf:RDF>
  </metadata>
  <defs
     id="defs15" />
  <sodipodi:namedview
     pagecolor="#ffffff"
     bordercolor="#666666"
     borderopacity="1"
     objecttolerance="10"
     gridtolerance="10"
     guidetolerance="10"
     inkscape:pageopacity="0"
     inkscape:pageshadow="2"
     inkscape:window-width="1280"
     inkscape:window-height="954"
     id="namedview13"
     showgrid="false"
     inkscape:zoom="3.6875"
     inkscape:cx="27.254237"
     inkscape:cy="32"
     inkscape:window-x="0"
     inkscape:window-y="0"
     inkscape:window-maximized="1"
     inkscape:current-layer="svg11" />
  <g
     id="surface1"
     transform="matrix(0.74843099,0,0,0.74843099,0.23731607,-0.13689943)">
    <path
       style="fill:#785447;fill-opacity:1;fill-rule:nonzero;stroke:none"
       d="m 31.75,3.144531 c 16.074219,0 29.105469,13.03125 29.105469,29.105469 0,16.074219 -13.03125,29.105469 -29.105469,29.105469 C 15.675781,61.355469 2.644531,48.324219 2.644531,32.25 2.644531,16.175781 15.675781,3.144531 31.75,3.144531 Z m 0,0"
       id="path2"
       inkscape:connector-curvature="0" />
    <path
       style="fill:#8c6e61;fill-opacity:1;fill-rule:nonzero;stroke:none"
       d="m 31.75,7.113281 c 13.882812,0 25.136719,11.253907 25.136719,25.136719 0,13.882812 -11.253907,25.136719 -25.136719,25.136719 C 17.867188,57.386719 6.613281,46.132812 6.613281,32.25 6.613281,18.367188 17.867188,7.113281 31.75,7.113281 Z m 0,0"
       id="path4"
       inkscape:connector-curvature="0" />
    <path
       style="fill:#dedede;fill-opacity:1;fill-rule:nonzero;stroke:none"
       d="m 22.09375,15.527344 c -1.050781,0.605468 -1.648438,1.742187 -1.890625,3.089844 -0.242187,1.34375 -0.167969,2.953124 0.160156,4.761718 0.15625,0.847656 0.367188,1.738282 0.632813,2.664063 -0.933594,0.230469 -1.8125,0.492187 -2.621094,0.78125 -1.082031,0.386719 -2.046875,0.820312 -2.875,1.308593 -0.492188,0.292969 -0.941406,0.601563 -1.332031,0.933594 C 13.125,29.953125 12.4375,31.035156 12.4375,32.25 c 0,1.269531 0.75,2.394531 1.878906,3.304688 1.132813,0.910156 2.679688,1.667968 4.550782,2.292968 0.417968,0.140625 0.871093,-0.08203 1.007812,-0.5 C 20.015625,36.929688 19.78516,36.480469 19.367188,36.34375 17.613281,35.761719 16.21875,35.054688 15.308594,34.324219 14.402344,33.59375 14.019531,32.898438 14.019531,32.25 c 0,-0.617188 0.34375,-1.277344 1.171875,-1.976562 0.824219,-0.699219 2.101563,-1.382813 3.714844,-1.960938 0.78125,-0.277344 1.640625,-0.53125 2.566406,-0.757812 0.507813,1.503906 1.148438,3.082031 1.917969,4.695312 -1.519531,3.195312 -2.546875,6.246094 -3.027344,8.871094 -0.328125,1.808594 -0.402343,3.417968 -0.160156,4.761718 0.242187,1.347657 0.839844,2.484376 1.890625,3.089844 1.027344,0.59375 2.277344,0.558594 3.53125,0.125 1.253906,-0.429687 2.570312,-1.25 3.9375,-2.382812 0.34375,-0.277344 0.394531,-0.78125 0.113281,-1.121094 -0.285156,-0.339844 -0.789062,-0.382812 -1.125,-0.09766 -1.265625,1.050781 -2.457031,1.769531 -3.441406,2.109375 -0.984375,0.335937 -1.703125,0.300781 -2.222656,0 -0.539063,-0.308594 -0.933594,-0.9375 -1.128907,-2.003907 -0.191406,-1.066406 -0.144531,-2.511718 0.160157,-4.199218 0.390625,-2.140625 1.199219,-4.660156 2.378906,-7.335938 0.328125,0.625 0.675781,1.253906 1.039063,1.886719 2.605468,4.507813 5.59375,8.207031 8.402343,10.59375 1.402344,1.191406 2.757813,2.058594 4.046875,2.519531 1.285156,0.460938 2.570313,0.515625 3.621094,-0.09375 1.050781,-0.605468 1.648438,-1.742187 1.890625,-3.089844 0.242187,-1.34375 0.167969,-2.953124 -0.160156,-4.761718 -0.660157,-3.625 -2.371094,-8.066406 -4.972657,-12.574219 -0.214843,-0.382813 -0.703124,-0.519531 -1.085937,-0.296875 -0.382813,0.21875 -0.507813,0.710938 -0.285156,1.089844 2.527343,4.375 4.171875,8.691406 4.789062,12.0625 0.304688,1.6875 0.351563,3.132812 0.160157,4.199218 -0.195313,1.066407 -0.589844,1.695313 -1.128907,2.003907 -0.535156,0.308593 -1.277343,0.339843 -2.296875,-0.02734 -1.015625,-0.363281 -2.25,-1.128906 -3.554687,-2.238281 -2.613281,-2.21875 -5.527344,-5.800782 -8.054688,-10.179688 -0.566406,-0.976562 -1.085937,-1.949218 -1.558593,-2.910156 0.472656,-0.960938 0.992187,-1.933594 1.558593,-2.910156 0.5625,-0.980469 1.148438,-1.914063 1.742188,-2.808594 1.070312,-0.07031 2.171875,-0.105469 3.300781,-0.105469 5.054688,0 9.613281,0.734375 12.84375,1.886719 1.613281,0.578125 2.890625,1.261719 3.714844,1.960938 0.828125,0.699218 1.171875,1.359374 1.171875,1.976562 0,0.605469 -0.328125,1.242188 -1.113281,1.925781 -0.785157,0.683594 -2,1.355469 -3.542969,1.925781 -0.417969,0.148438 -0.632813,0.609376 -0.476563,1.019532 0.152344,0.414062 0.613282,0.625 1.023438,0.464844 1.664062,-0.617188 3.035156,-1.347657 4.035156,-2.21875 1,-0.867188 1.65625,-1.933594 1.65625,-3.117188 0,-1.214844 -0.6875,-2.296875 -1.730469,-3.183594 -1.042969,-0.882812 -2.472656,-1.625 -4.207031,-2.242187 -3.46875,-1.238281 -8.167969,-1.980469 -13.375,-1.980469 -0.726562,0 -1.445312,0.01563 -2.152344,0.04297 1.726563,-2.359375 3.507813,-4.320313 5.164063,-5.726563 1.304687,-1.109375 2.539062,-1.875 3.554687,-2.238281 1.019532,-0.367187 1.761719,-0.335937 2.296875,-0.02734 0.566407,0.328125 0.976563,1.011719 1.15625,2.171875 0.175781,1.164063 0.08594,2.742188 -0.292969,4.566406 -0.09766,0.433594 0.175782,0.859376 0.609376,0.949219 0.433593,0.08984 0.855468,-0.191406 0.9375,-0.625 0.40625,-1.949219 0.53125,-3.683593 0.308593,-5.128906 -0.21875,-1.445313 -0.820312,-2.664063 -1.925781,-3.300781 -1.050781,-0.609375 -2.335938,-0.554688 -3.621094,-0.09375 -0.484375,0.171875 -0.976562,0.402344 -1.476562,0.6875 -0.835938,0.46875 -1.695313,1.089844 -2.570313,1.832031 -2.03125,1.726563 -4.160156,4.144531 -6.167969,7.054687 -1.78125,0.144532 -3.46875,0.378907 -5.027343,0.6875 -0.265625,-0.914062 -0.476563,-1.785156 -0.625,-2.597656 -0.304688,-1.6875 -0.351563,-3.132812 -0.160157,-4.199218 0.195313,-1.066407 0.589844,-1.695313 1.128907,-2.003907 0.527343,-0.304687 1.257812,-0.335937 2.257812,0.01172 1,0.351562 2.210938,1.09375 3.496094,2.171875 0.335937,0.289063 0.839844,0.25 1.125,-0.08984 C 30.046875,18.648438 30,18.144531 29.65625,17.867188 28.273438,16.707031 26.9375,15.863281 25.667969,15.417969 24.398438,14.96875 23.132812,14.925781 22.09375,15.527344 Z m 0.933594,11.6875 c 1.078125,-0.207032 2.222656,-0.378906 3.421875,-0.511719 -0.375,0.597656 -0.75,1.214844 -1.113281,1.84375 C 24.972656,29.179688 24.625,29.808594 24.296875,30.433594 23.808594,29.328125 23.386719,28.25 23.027344,27.214844 Z m 0,0"
       id="path6"
       inkscape:connector-curvature="0" />
    <path
       style="fill:#dedede;fill-opacity:1;fill-rule:nonzero;stroke:none"
       d="m 31.75,30.265625 c 1.097656,0 1.984375,0.886719 1.984375,1.984375 0,1.097656 -0.886719,1.984375 -1.984375,1.984375 -1.097656,0 -1.984375,-0.886719 -1.984375,-1.984375 0,-1.097656 0.886719,-1.984375 1.984375,-1.984375 z m 0,0"
       id="path8"
       inkscape:connector-curvature="0" />
  </g>
</svg>
