<?xml version="1.0" encoding="UTF-8" standalone="no"?>
<svg
   xmlns:dc="http://purl.org/dc/elements/1.1/"
   xmlns:cc="http://creativecommons.org/ns#"
   xmlns:rdf="http://www.w3.org/1999/02/22-rdf-syntax-ns#"
   xmlns:svg="http://www.w3.org/2000/svg"
   xmlns="http://www.w3.org/2000/svg"
   xmlns:sodipodi="http://sodipodi.sourceforge.net/DTD/sodipodi-0.dtd"
   xmlns:inkscape="http://www.inkscape.org/namespaces/inkscape"
   width="48"
   height="48"
   viewBox="0 0 48 48"
   version="1.1"
   id="svg11"
   sodipodi:docname="audacious.svg"
   inkscape:version="0.92.4 (5da689c313, 2019-01-14)">
  <metadata
     id="metadata17">
    <rdf:RDF>
      <cc:Work
         rdf:about="">
        <dc:format>image/svg+xml</dc:format>
        <dc:type
           rdf:resource="http://purl.org/dc/dcmitype/StillImage" />
        <dc:title></dc:title>
      </cc:Work>
    </rdf:RDF>
  </metadata>
  <defs
     id="defs15" />
  <sodipodi:namedview
     pagecolor="#ffffff"
     bordercolor="#666666"
     borderopacity="1"
     objecttolerance="10"
     gridtolerance="10"
     guidetolerance="10"
     inkscape:pageopacity="0"
     inkscape:pageshadow="2"
     inkscape:window-width="1280"
     inkscape:window-height="954"
     id="namedview13"
     showgrid="false"
     inkscape:zoom="3.6875"
     inkscape:cx="27.254237"
     inkscape:cy="32"
     inkscape:window-x="0"
     inkscape:window-y="0"
     inkscape:window-maximized="1"
     inkscape:current-layer="svg11" />
  <g
     id="surface1"
     transform="matrix(0.71116151,0,0,0.71116151,1.4206221,1.0650413)">
    <path
       style="fill:#bdbdbd;fill-opacity:1;fill-rule:nonzero;stroke:none"
       d="m 31.75,3.144531 c -6.625,0 -12.71875,2.191407 -17.601562,5.894531 L 13.042969,7.929688 C 11.488281,6.375 8.984375,6.375 7.429688,7.929688 5.875,9.484375 5.875,11.988281 7.429688,13.542969 l 1.109374,1.105469 C 4.835938,19.53125 2.644531,25.625 2.644531,32.25 c 0,6.625 2.191407,12.71875 5.894531,17.601562 l -1.109374,1.105469 c -1.554688,1.554688 -1.554688,4.058594 0,5.613281 1.554687,1.554688 4.058593,1.554688 5.613281,0 l 1.105469,-1.109374 C 19.03125,59.164062 25.125,61.355469 31.75,61.355469 c 6.625,0 12.71875,-2.191407 17.601562,-5.894531 l 1.105469,1.109374 c 1.554688,1.554688 4.058594,1.554688 5.613281,0 1.554688,-1.554687 1.554688,-4.058593 0,-5.613281 L 54.960938,49.851562 C 58.664062,44.96875 60.855469,38.875 60.855469,32.25 c 0,-6.625 -2.191407,-12.71875 -5.894531,-17.601562 l 1.109374,-1.105469 c 1.554688,-1.554688 1.554688,-4.058594 0,-5.613281 -1.554687,-1.554688 -4.058593,-1.554688 -5.613281,0 L 49.351562,9.039062 C 44.46875,5.335938 38.375,3.144531 31.75,3.144531 Z m 22.449219,5.332031 c 0.339843,0 0.679687,0.128907 0.9375,0.386719 0.519531,0.519531 0.519531,1.351563 0,1.871094 -0.519531,0.519531 -1.351563,0.519531 -1.871094,0 -0.519531,-0.519531 -0.519531,-1.351563 0,-1.871094 0.257813,-0.257812 0.597656,-0.386719 0.933594,-0.386719 z M 10.234375,9.410156 c 0.339844,0 0.675781,0.128906 0.9375,0.390625 0.453125,0.453125 0.507813,1.15625 0.164063,1.671875 -0.125,0.117188 -0.246094,0.238282 -0.363282,0.363282 -0.515625,0.34375 -1.21875,0.289062 -1.671875,-0.164063 -0.519531,-0.519531 -0.519531,-1.355469 0,-1.871094 0.257813,-0.261719 0.597657,-0.390625 0.933594,-0.390625 z m 0,43.03125 c 0.257813,0 0.515625,0.07422 0.738281,0.222656 0.117188,0.125 0.238282,0.246094 0.363282,0.363282 0.34375,0.515625 0.289062,1.21875 -0.164063,1.671875 -0.519531,0.519531 -1.355469,0.519531 -1.871094,0 -0.519531,-0.515625 -0.519531,-1.351563 0,-1.871094 0.257813,-0.257813 0.597657,-0.386719 0.933594,-0.386719 z M 54.199219,53.375 c 0.339843,0 0.679687,0.132812 0.9375,0.390625 0.519531,0.519531 0.519531,1.351563 0,1.871094 -0.519531,0.519531 -1.351563,0.519531 -1.871094,0 -0.519531,-0.519531 -0.519531,-1.351563 0,-1.871094 C 53.523438,53.507812 53.863281,53.375 54.199219,53.375 Z m 0,0"
       id="path2"
       inkscape:connector-curvature="0" />
    <path
       style="fill:#3f3f3f;fill-opacity:1;fill-rule:nonzero;stroke:none"
       d="m 31.75,5.792969 c 14.613281,0 26.457031,11.84375 26.457031,26.457031 0,14.613281 -11.84375,26.457031 -26.457031,26.457031 C 17.136719,58.707031 5.292969,46.863281 5.292969,32.25 5.292969,17.636719 17.136719,5.792969 31.75,5.792969 Z m 0,0"
       id="path4"
       inkscape:connector-curvature="0" />
    <path
       style="fill:#dedede;fill-opacity:1;fill-rule:nonzero;stroke:none"
       d="m 31.75,8.4375 c 13.152344,0 23.8125,10.660156 23.8125,23.8125 0,13.152344 -10.660156,23.8125 -23.8125,23.8125 C 18.597656,56.0625 7.9375,45.402344 7.9375,32.25 7.9375,19.097656 18.597656,8.4375 31.75,8.4375 Z m 0,0"
       id="path6"
       inkscape:connector-curvature="0" />
    <path
       style="fill:#3f3f3f;fill-opacity:1;fill-rule:nonzero;stroke:none"
       d="m 31.75,16.375 c -2.667969,0 -5.101562,0.863281 -6.996094,2.296875 -0.05078,0.02734 -0.09766,0.0625 -0.144531,0.101563 l -1.304687,1.089843 c -0.480469,0.40625 -0.542969,1.117188 -0.140626,1.597657 l 1.09375,1.304687 c 0.402344,0.484375 1.113282,0.546875 1.597657,0.144531 l 0.632812,-0.53125 0.01172,0.01172 c 0.07422,-0.07031 0.148438,-0.144531 0.230469,-0.214844 l 0.324219,-0.273437 C 28.289062,20.933594 29.9375,20.34375 31.75,20.34375 c 3.847656,0 6.945312,2.65625 6.945312,5.957031 v 4.214844 C 36.8125,29.105469 34.394531,28.261719 31.75,28.261719 c -6.046875,0 -10.917969,4.425781 -10.917969,9.921875 0,5.5 4.871094,9.925781 10.917969,9.925781 2.644531,0 5.0625,-0.847656 6.945312,-2.257813 v 1.265626 c 0,0.550781 0.445313,0.992187 0.996094,0.992187 h 1.984375 c 0.546875,0 0.992188,-0.441406 0.992188,-0.992187 V 26.300781 c 0,-5.5 -4.871094,-9.925781 -10.917969,-9.925781 z m 0,15.855469 c 3.847656,0 6.945312,2.65625 6.945312,5.953125 0,3.300781 -3.097656,5.957031 -6.945312,5.957031 -3.847656,0 -6.945312,-2.65625 -6.945312,-5.957031 0,-3.296875 3.097656,-5.953125 6.945312,-5.953125 z m 0,0"
       id="path8"
       inkscape:connector-curvature="0" />
  </g>
</svg>
