<?xml version="1.0" encoding="UTF-8" standalone="no"?>
<svg
   xmlns:dc="http://purl.org/dc/elements/1.1/"
   xmlns:cc="http://creativecommons.org/ns#"
   xmlns:rdf="http://www.w3.org/1999/02/22-rdf-syntax-ns#"
   xmlns:svg="http://www.w3.org/2000/svg"
   xmlns="http://www.w3.org/2000/svg"
   xmlns:sodipodi="http://sodipodi.sourceforge.net/DTD/sodipodi-0.dtd"
   xmlns:inkscape="http://www.inkscape.org/namespaces/inkscape"
   width="48"
   height="48"
   viewBox="0 0 48 48"
   version="1.1"
   id="svg25"
   sodipodi:docname="avidemux.svg"
   inkscape:version="0.92.4 (5da689c313, 2019-01-14)">
  <metadata
     id="metadata31">
    <rdf:RDF>
      <cc:Work
         rdf:about="">
        <dc:format>image/svg+xml</dc:format>
        <dc:type
           rdf:resource="http://purl.org/dc/dcmitype/StillImage" />
        <dc:title></dc:title>
      </cc:Work>
    </rdf:RDF>
  </metadata>
  <defs
     id="defs29" />
  <sodipodi:namedview
     pagecolor="#ffffff"
     bordercolor="#666666"
     borderopacity="1"
     objecttolerance="10"
     gridtolerance="10"
     guidetolerance="10"
     inkscape:pageopacity="0"
     inkscape:pageshadow="2"
     inkscape:window-width="1280"
     inkscape:window-height="954"
     id="namedview27"
     showgrid="false"
     inkscape:zoom="3.6875"
     inkscape:cx="27.254237"
     inkscape:cy="32"
     inkscape:window-x="0"
     inkscape:window-y="0"
     inkscape:window-maximized="1"
     inkscape:current-layer="svg25" />
  <g
     id="surface1"
     transform="matrix(0.73911362,0,0,0.73911362,0.53314257,0.31566702)">
    <path
       style="fill:#3f3f3f;fill-opacity:1;fill-rule:nonzero;stroke:none"
       d="m 2.644531,32.25 v 26.457031 c 0,1.46875 1.179688,2.648438 2.648438,2.648438 h 52.914062 c 1.46875,0 2.648438,-1.179688 2.648438,-2.648438 V 32.25 Z m 0,0"
       id="path2"
       inkscape:connector-curvature="0" />
    <path
       style="fill:#1e1e1e;fill-opacity:1;fill-rule:nonzero;stroke:none"
       d="M 2.644531,24.3125 H 60.855469 V 32.25 H 2.644531 Z m 0,0"
       id="path4"
       inkscape:connector-curvature="0" />
    <path
       style="fill:#3fa3f5;fill-opacity:1;fill-rule:nonzero;stroke:none"
       d="m 11.179688,38.996094 h 41.140624 c 0.328126,0 0.597657,0.265625 0.597657,0.597656 0,0.328125 -0.269531,0.59375 -0.597657,0.59375 H 11.179688 c -0.328126,0 -0.597657,-0.265625 -0.597657,-0.59375 0,-0.332031 0.269531,-0.597656 0.597657,-0.597656 z m 0,0"
       id="path6"
       inkscape:connector-curvature="0" />
    <path
       style="fill:#3fa3f5;fill-opacity:1;fill-rule:nonzero;stroke:none"
       d="m 11.210938,46.867188 h 41.078124 c 0.347657,0 0.628907,0.28125 0.628907,0.628906 0,0.347656 -0.28125,0.628906 -0.628907,0.628906 H 11.210938 c -0.347657,0 -0.628907,-0.28125 -0.628907,-0.628906 0,-0.347656 0.28125,-0.628906 0.628907,-0.628906 z m 0,0"
       id="path8"
       inkscape:connector-curvature="0" />
    <path
       style="fill:#1e1e1e;fill-opacity:1;fill-rule:nonzero;stroke:none"
       d="M 2.644531,24.3125 H 60.855469 V 32.25 H 2.644531 Z m 0,0"
       id="path10"
       inkscape:connector-curvature="0" />
    <path
       style="fill:#eeeeee;fill-opacity:1;fill-rule:nonzero;stroke:none"
       d="M 7.910156,24.3125 3.328125,32.25 h 7.636719 l 4.582031,-7.9375 z m 15.875,0 -4.582031,7.9375 h 7.636719 l 4.582031,-7.9375 z m 16.3125,0 -4.582031,7.9375 h 7.636719 l 4.582031,-7.9375 z m 15.4375,0 -4.582031,7.9375 h 7.636719 l 2.265625,-3.921875 V 24.3125 Z m 0,0"
       id="path12"
       inkscape:connector-curvature="0" />
    <path
       style="fill:#1e1e1e;fill-opacity:1;fill-rule:nonzero;stroke:none"
       d="M 55.789062,2.824219 C 57.207031,2.445312 58.652344,3.28125 59.03125,4.695312 L 60.402344,9.808594 4.175781,24.871094 2.804688,19.761719 C 2.425781,18.34375 3.261719,16.898438 4.675781,16.519531 Z m 0,0"
       id="path14"
       inkscape:connector-curvature="0" />
    <path
       style="fill:#eeeeee;fill-opacity:1;fill-rule:nonzero;stroke:none"
       d="M 4.675781,16.519531 C 4.078125,16.679688 3.585938,17.03125 3.242188,17.492188 l 6.019531,6.019531 7.375,-1.980469 -6.480469,-6.480469 z m 13.4375,-3.597656 6.480469,6.480469 7.378906,-1.976563 -6.480468,-6.484375 z m 15.757813,-4.222656 6.480468,6.480469 7.375,-1.976563 -6.480468,-6.480469 z m 14.910156,-3.996094 6.480469,6.480469 5.140625,-1.375 L 59.359375,5.925781 56.183594,2.75 c -0.128906,0.015625 -0.261719,0.039062 -0.394532,0.074219 z m 0,0"
       id="path16"
       inkscape:connector-curvature="0" />
    <path
       style="fill:#616161;fill-opacity:1;fill-rule:nonzero;stroke:none"
       d="m 7.277344,16.375 c -2.566406,0 -4.632813,2.066406 -4.632813,4.628906 v 10.585938 c 0,0.222656 0.015625,0.445312 0.046875,0.660156 h 9.167969 c 0.03125,-0.214844 0.04687,-0.4375 0.04687,-0.660156 V 21.003906 c 0,-2.5625 -2.066406,-4.628906 -4.628906,-4.628906 z m 0,0"
       id="path18"
       inkscape:connector-curvature="0" />
    <path
       style="fill:#1e1e1e;fill-opacity:1;fill-rule:nonzero;stroke:none"
       d="m 7.277344,18.359375 c 1.09375,0 1.984375,0.886719 1.984375,1.984375 0,1.097656 -0.890625,1.984375 -1.984375,1.984375 -1.097656,0 -1.984375,-0.886719 -1.984375,-1.984375 0,-1.097656 0.886719,-1.984375 1.984375,-1.984375 z m 0,0"
       id="path20"
       inkscape:connector-curvature="0" />
    <path
       style="fill:#1e1e1e;fill-opacity:1;fill-rule:nonzero;stroke:none"
       d="m 7.277344,26.296875 c 1.09375,0 1.984375,0.886719 1.984375,1.984375 0,1.097656 -0.890625,1.984375 -1.984375,1.984375 -1.097656,0 -1.984375,-0.886719 -1.984375,-1.984375 0,-1.097656 0.886719,-1.984375 1.984375,-1.984375 z m 0,0"
       id="path22"
       inkscape:connector-curvature="0" />
  </g>
</svg>
