<?xml version="1.0" encoding="UTF-8" standalone="no"?>
<svg
   xmlns:dc="http://purl.org/dc/elements/1.1/"
   xmlns:cc="http://creativecommons.org/ns#"
   xmlns:rdf="http://www.w3.org/1999/02/22-rdf-syntax-ns#"
   xmlns:svg="http://www.w3.org/2000/svg"
   xmlns="http://www.w3.org/2000/svg"
   xmlns:sodipodi="http://sodipodi.sourceforge.net/DTD/sodipodi-0.dtd"
   xmlns:inkscape="http://www.inkscape.org/namespaces/inkscape"
   width="48"
   height="48"
   viewBox="0 0 48 48"
   version="1.1"
   id="svg11"
   sodipodi:docname="blender.svg"
   inkscape:version="0.92.4 (5da689c313, 2019-01-14)">
  <metadata
     id="metadata17">
    <rdf:RDF>
      <cc:Work
         rdf:about="">
        <dc:format>image/svg+xml</dc:format>
        <dc:type
           rdf:resource="http://purl.org/dc/dcmitype/StillImage" />
        <dc:title></dc:title>
      </cc:Work>
    </rdf:RDF>
  </metadata>
  <defs
     id="defs15" />
  <sodipodi:namedview
     pagecolor="#ffffff"
     bordercolor="#666666"
     borderopacity="1"
     objecttolerance="10"
     gridtolerance="10"
     guidetolerance="10"
     inkscape:pageopacity="0"
     inkscape:pageshadow="2"
     inkscape:window-width="1280"
     inkscape:window-height="954"
     id="namedview13"
     showgrid="false"
     inkscape:zoom="3.6875"
     inkscape:cx="27.254237"
     inkscape:cy="32"
     inkscape:window-x="0"
     inkscape:window-y="0"
     inkscape:window-maximized="1"
     inkscape:current-layer="svg11" />
  <g
     id="surface1"
     transform="matrix(0.74373999,0,0,0.74373999,0.38625532,0.01149776)">
    <path
       style="fill:#ff6e42;fill-opacity:1;fill-rule:nonzero;stroke:none"
       d="M 22.445312,3.152344 C 21.203125,3.160156 19.988281,3.75 19.21875,4.847656 17.957031,6.648438 18.390625,9.113281 20.191406,10.375 L 32.53125,19.019531 H 6.613281 c -2.199219,0 -3.96875,1.769531 -3.96875,3.96875 0,2.199219 1.769531,3.96875 3.96875,3.96875 h 16.367188 l -17.90625,17.90625 c -1.554688,1.554688 -1.554688,4.058594 0,5.613281 1.554687,1.554688 4.058593,1.554688 5.613281,0 l 7.960938,-7.957031 C 19.800781,53.140625 28.75,61.355469 39.6875,61.355469 c 11.726562,0 21.167969,-9.441407 21.167969,-21.167969 0,-7.519531 -3.886719,-14.101562 -9.765625,-17.855469 L 24.746094,3.875 C 24.042969,3.382812 23.238281,3.148438 22.445312,3.152344 Z m 0,0"
       id="path2"
       inkscape:connector-curvature="0" />
    <path
       style="fill:#f5f5f5;fill-opacity:1;fill-rule:nonzero;stroke:none"
       d="m 39.6875,26.957031 c 7.304688,0 13.230469,5.925781 13.230469,13.230469 0,7.304688 -5.925781,13.230469 -13.230469,13.230469 -7.304688,0 -13.230469,-5.925781 -13.230469,-13.230469 0,-7.304688 5.925781,-13.230469 13.230469,-13.230469 z m 0,0"
       id="path4"
       inkscape:connector-curvature="0" />
    <path
       style="fill:#3fa3f5;fill-opacity:1;fill-rule:nonzero;stroke:none"
       d="m 39.6875,34.894531 c 2.921875,0 5.292969,2.371094 5.292969,5.292969 0,2.921875 -2.371094,5.292969 -5.292969,5.292969 -2.921875,0 -5.292969,-2.371094 -5.292969,-5.292969 0,-2.921875 2.371094,-5.292969 5.292969,-5.292969 z m 0,0"
       id="path6"
       inkscape:connector-curvature="0" />
    <path
       style="fill:#3fa3f5;fill-opacity:1;fill-rule:nonzero;stroke:none"
       d="m 39.6875,34.894531 c 2.921875,0 5.292969,2.371094 5.292969,5.292969 0,2.921875 -2.371094,5.292969 -5.292969,5.292969 -2.921875,0 -5.292969,-2.371094 -5.292969,-5.292969 0,-2.921875 2.371094,-5.292969 5.292969,-5.292969 z m 0,0"
       id="path8"
       inkscape:connector-curvature="0" />
  </g>
</svg>
