<?xml version="1.0" encoding="UTF-8" standalone="no"?>
<svg
   xmlns:dc="http://purl.org/dc/elements/1.1/"
   xmlns:cc="http://creativecommons.org/ns#"
   xmlns:rdf="http://www.w3.org/1999/02/22-rdf-syntax-ns#"
   xmlns:svg="http://www.w3.org/2000/svg"
   xmlns="http://www.w3.org/2000/svg"
   xmlns:sodipodi="http://sodipodi.sourceforge.net/DTD/sodipodi-0.dtd"
   xmlns:inkscape="http://www.inkscape.org/namespaces/inkscape"
   width="48"
   height="48"
   viewBox="0 0 48 48"
   version="1.1"
   id="svg23"
   sodipodi:docname="bluefish.svg"
   inkscape:version="0.92.4 (5da689c313, 2019-01-14)">
  <metadata
     id="metadata29">
    <rdf:RDF>
      <cc:Work
         rdf:about="">
        <dc:format>image/svg+xml</dc:format>
        <dc:type
           rdf:resource="http://purl.org/dc/dcmitype/StillImage" />
        <dc:title></dc:title>
      </cc:Work>
    </rdf:RDF>
  </metadata>
  <defs
     id="defs27" />
  <sodipodi:namedview
     pagecolor="#ffffff"
     bordercolor="#666666"
     borderopacity="1"
     objecttolerance="10"
     gridtolerance="10"
     guidetolerance="10"
     inkscape:pageopacity="0"
     inkscape:pageshadow="2"
     inkscape:window-width="1280"
     inkscape:window-height="954"
     id="namedview25"
     showgrid="false"
     inkscape:zoom="3.6875"
     inkscape:cx="27.254237"
     inkscape:cy="32"
     inkscape:window-x="0"
     inkscape:window-y="0"
     inkscape:window-maximized="1"
     inkscape:current-layer="svg23" />
  <g
     id="surface1"
     transform="matrix(0.72981835,0,0,0.72981835,0.82765959,0.46162118)">
    <path
       style="fill:#1c87e3;fill-opacity:1;fill-rule:nonzero;stroke:none"
       d="M 37.042969,29.605469 C 36.65625,29.59375 36.28125,29.496094 35.9375,29.324219 L 25.351562,24.035156 c -1.949218,-0.976562 -1.949218,-3.761718 0,-4.738281 L 35.9375,14.007812 C 37.695312,13.125 39.765625,14.40625 39.765625,16.375 v 10.582031 c 0,1.492188 -1.230469,2.691407 -2.722656,2.648438 z m 0,0"
       id="path2"
       inkscape:connector-curvature="0" />
    <path
       style="fill:#1c87e3;fill-opacity:1;fill-rule:nonzero;stroke:none"
       d="m 37.042969,45.480469 c -0.386719,0.0078 -0.761719,0.105469 -1.105469,0.277343 l -10.585938,5.289063 c -1.949218,0.976563 -1.949218,3.761719 0,4.738281 L 35.9375,61.078125 c 1.757812,0.878906 3.828125,-0.402344 3.828125,-2.371094 V 48.125 c 0,-1.492188 -1.230469,-2.691406 -2.722656,-2.644531 z m 0,0"
       id="path4"
       inkscape:connector-curvature="0" />
    <path
       style="fill:#3fa3f5;fill-opacity:1;fill-rule:nonzero;stroke:none"
       d="m 58.335938,16.375 c -0.644532,-0.03125 -1.277344,0.175781 -1.78125,0.578125 l -11.449219,9.160156 c -8.03125,-6.957031 -16.179688,-7.09375 -18.648438,-7.09375 -14.285156,0 -23.8125,8.820313 -23.8125,18.523438 0,5.144531 3.253907,9.714843 7.671875,13.03125 4.421875,3.316406 10.1875,5.488281 16.140625,5.488281 2.46875,0 10.617188,-0.136719 18.648438,-7.09375 l 11.449219,9.160156 c 0.898437,0.71875 2.160156,0.773438 3.121093,0.136719 0.957031,-0.636719 1.394531,-1.824219 1.078125,-2.929687 L 55.671875,37.542969 60.753906,19.75 c 0.46875,-1.640625 -0.714844,-3.289062 -2.417968,-3.375 z m 0,0"
       id="path6"
       inkscape:connector-curvature="0" />
    <path
       style="fill:#63b3f5;fill-opacity:1;fill-rule:nonzero;stroke:none"
       d="M 22.605469,19.242188 C 10.484375,20.664062 2.644531,28.738281 2.644531,37.542969 c 0,5.144531 3.253907,9.714843 7.671875,13.03125 3.46875,2.597656 7.757813,4.496093 12.320313,5.195312 2.457031,-5.566406 3.820312,-11.730469 3.820312,-18.226562 0,-6.527344 -1.375,-12.714844 -3.851562,-18.300781 z m 0,0"
       id="path8"
       inkscape:connector-curvature="0" />
    <path
       style="fill:#f5f5f5;fill-opacity:1;fill-rule:nonzero;stroke:none"
       d="m 16.582031,29.605469 c 2.53125,1.460937 3.546875,4.441406 2.269531,6.65625 C 17.574219,38.472656 14.484375,39.085938 11.953125,37.625 9.421875,36.164062 8.40625,33.183594 9.6875,30.96875 c 1.277344,-2.214844 4.367188,-2.824219 6.894531,-1.363281 z m 0,0"
       id="path10"
       inkscape:connector-curvature="0" />
    <path
       style="fill:#3f3f3f;fill-opacity:1;fill-rule:nonzero;stroke:none"
       d="m 11.246094,32.25 c 1.09375,0 1.984375,0.886719 1.984375,1.984375 0,1.097656 -0.890625,1.984375 -1.984375,1.984375 -1.097656,0 -1.984375,-0.886719 -1.984375,-1.984375 0,-1.097656 0.886719,-1.984375 1.984375,-1.984375 z m 0,0"
       id="path12"
       inkscape:connector-curvature="0" />
    <path
       style="fill:#7fd4fa;fill-opacity:1;fill-rule:nonzero;stroke:none"
       d="m 7.9375,17.699219 c 1.097656,0 1.984375,0.886719 1.984375,1.984375 0,1.09375 -0.886719,1.984375 -1.984375,1.984375 -1.097656,0 -1.984375,-0.890625 -1.984375,-1.984375 0,-1.097656 0.886719,-1.984375 1.984375,-1.984375 z m 0,0"
       id="path14"
       inkscape:connector-curvature="0" />
    <path
       style="fill:#7fd4fa;fill-opacity:1;fill-rule:nonzero;stroke:none"
       d="m 13.230469,12.40625 c 1.460937,0 2.644531,1.183594 2.644531,2.644531 0,1.460938 -1.183594,2.648438 -2.644531,2.648438 -1.460938,0 -2.648438,-1.1875 -2.648438,-2.648438 0,-1.460937 1.1875,-2.644531 2.648438,-2.644531 z m 0,0"
       id="path16"
       inkscape:connector-curvature="0" />
    <path
       style="fill:#7fd4fa;fill-opacity:1;fill-rule:nonzero;stroke:none"
       d="m 22.488281,7.113281 c 2.191407,0 3.96875,1.777344 3.96875,3.96875 0,2.191407 -1.777343,3.96875 -3.96875,3.96875 -2.191406,0 -3.96875,-1.777343 -3.96875,-3.96875 0,-2.191406 1.777344,-3.96875 3.96875,-3.96875 z m 0,0"
       id="path18"
       inkscape:connector-curvature="0" />
    <path
       style="fill:#7fd4fa;fill-opacity:1;fill-rule:nonzero;stroke:none"
       d="m 11.246094,3.144531 c 1.824218,0 3.304687,1.480469 3.304687,3.308594 0,1.828125 -1.480469,3.308594 -3.304687,3.308594 C 9.417969,9.761719 7.9375,8.28125 7.9375,6.453125 7.9375,4.625 9.417969,3.144531 11.246094,3.144531 Z m 0,0"
       id="path20"
       inkscape:connector-curvature="0" />
  </g>
</svg>
