<?xml version="1.0" encoding="UTF-8" standalone="no"?>
<svg
   xmlns:dc="http://purl.org/dc/elements/1.1/"
   xmlns:cc="http://creativecommons.org/ns#"
   xmlns:rdf="http://www.w3.org/1999/02/22-rdf-syntax-ns#"
   xmlns:svg="http://www.w3.org/2000/svg"
   xmlns="http://www.w3.org/2000/svg"
   xmlns:sodipodi="http://sodipodi.sourceforge.net/DTD/sodipodi-0.dtd"
   xmlns:inkscape="http://www.inkscape.org/namespaces/inkscape"
   width="48"
   height="48"
   viewBox="0 0 48 48"
   version="1.1"
   id="svg25"
   sodipodi:docname="brasero.svg"
   inkscape:version="0.92.4 (5da689c313, 2019-01-14)">
  <metadata
     id="metadata29">
    <rdf:RDF>
      <cc:Work
         rdf:about="">
        <dc:format>image/svg+xml</dc:format>
        <dc:type
           rdf:resource="http://purl.org/dc/dcmitype/StillImage" />
        <dc:title></dc:title>
      </cc:Work>
    </rdf:RDF>
  </metadata>
  <sodipodi:namedview
     pagecolor="#ffffff"
     bordercolor="#666666"
     borderopacity="1"
     objecttolerance="10"
     gridtolerance="10"
     guidetolerance="10"
     inkscape:pageopacity="0"
     inkscape:pageshadow="2"
     inkscape:window-width="1280"
     inkscape:window-height="954"
     id="namedview27"
     showgrid="false"
     inkscape:zoom="3.6875"
     inkscape:cx="27.254237"
     inkscape:cy="32"
     inkscape:window-x="0"
     inkscape:window-y="0"
     inkscape:window-maximized="1"
     inkscape:current-layer="svg25" />
  <defs
     id="defs12">
    <linearGradient
       id="linear0"
       gradientUnits="userSpaceOnUse"
       x1="84.518761"
       y1="85.406731"
       x2="400.64682"
       y2="85.406731"
       gradientTransform="matrix(0.125,0,0,0.125,0,26.875)">
      <stop
         offset="0"
         style="stop-color:rgb(100%,65.490198%,14.901961%);stop-opacity:1;"
         id="stop2" />
      <stop
         offset="1"
         style="stop-color:rgb(100%,65.490198%,14.901961%);stop-opacity:0;"
         id="stop4" />
    </linearGradient>
    <radialGradient
       id="radial0"
       gradientUnits="userSpaceOnUse"
       cx="111.125"
       cy="-31.091059"
       fx="111.125"
       fy="-31.091059"
       r="27.716444"
       gradientTransform="matrix(0.125,0,0,0.12397,0,25.960032)">
      <stop
         offset="0"
         style="stop-color:rgb(100%,43.921569%,26.274511%);stop-opacity:1;"
         id="stop7" />
      <stop
         offset="1"
         style="stop-color:rgb(100%,79.215688%,15.686275%);stop-opacity:1;"
         id="stop9" />
    </radialGradient>
  </defs>
  <g
     id="surface1"
     transform="matrix(0.72979625,0,0,0.72979625,0.82896906,0.46407094)">
    <path
       style="fill:#dedede;fill-opacity:1;fill-rule:nonzero;stroke:none"
       d="M 31.75,3.144531 C 15.625,3.144531 2.644531,16.125 2.644531,32.25 2.644531,48.375 15.625,61.355469 31.75,61.355469 47.875,61.355469 60.855469,48.375 60.855469,32.25 60.855469,16.125 47.875,3.144531 31.75,3.144531 Z m 0,21.167969 c 4.398438,0 7.9375,3.539062 7.9375,7.9375 0,4.398438 -3.539062,7.9375 -7.9375,7.9375 -4.398438,0 -7.9375,-3.539062 -7.9375,-7.9375 0,-4.398438 3.539062,-7.9375 7.9375,-7.9375 z m 0,0"
       id="path14"
       inkscape:connector-curvature="0" />
    <path
       style="fill:#f5f5f5;fill-opacity:1;fill-rule:nonzero;stroke:none"
       d="m 31.75,4.46875 c -15.390625,0 -27.78125,12.390625 -27.78125,27.78125 0,15.390625 12.390625,27.78125 27.78125,27.78125 15.390625,0 27.78125,-12.390625 27.78125,-27.78125 C 59.53125,16.859375 47.140625,4.46875 31.75,4.46875 Z m 0,19.84375 c 4.398438,0 7.9375,3.539062 7.9375,7.9375 0,4.398438 -3.539062,7.9375 -7.9375,7.9375 -4.398438,0 -7.9375,-3.539062 -7.9375,-7.9375 0,-4.398438 3.539062,-7.9375 7.9375,-7.9375 z m 0,0"
       id="path16"
       inkscape:connector-curvature="0" />
    <path
       style="fill:#bdbdbd;fill-opacity:1;fill-rule:nonzero;stroke:none"
       d="m 31.75,19.019531 c -7.328125,0 -13.230469,5.902344 -13.230469,13.230469 0,7.328125 5.902344,13.230469 13.230469,13.230469 7.328125,0 13.230469,-5.902344 13.230469,-13.230469 0,-7.328125 -5.902344,-13.230469 -13.230469,-13.230469 z m 0,9.261719 c 2.199219,0 3.96875,1.769531 3.96875,3.96875 0,2.199219 -1.769531,3.96875 -3.96875,3.96875 -2.199219,0 -3.96875,-1.769531 -3.96875,-3.96875 0,-2.199219 1.769531,-3.96875 3.96875,-3.96875 z m 0,0"
       id="path18"
       inkscape:connector-curvature="0" />
    <path
       style="fill:url(#linear0);fill-rule:nonzero;stroke:none"
       d="m 13.417969,21.667969 c -5.863281,10.152343 -2.40625,23.050781 7.75,28.914062 10.152343,5.863281 23.050781,2.40625 28.914062,-7.75 L 48.933594,42.171875 C 43.4375,51.691406 31.347656,54.933594 21.828125,49.433594 12.308594,43.9375 9.066406,31.847656 14.566406,22.328125 Z m 0,0"
       id="path20"
       inkscape:connector-curvature="0" />
    <path
       style="fill:url(#radial0);fill-rule:nonzero;stroke:none"
       d="m 15.65625,19.019531 c 0.191406,0.113281 -0.09766,1.667969 0.02734,1.851563 0.125,0.183594 1.679687,0.484375 1.714844,0.703125 0.03125,0.21875 -1.367188,0.964843 -1.433594,1.175781 -0.0625,0.214844 0.671875,1.617188 0.519531,1.777344 -0.148437,0.164062 -1.601563,-0.464844 -1.808594,-0.382813 -0.207031,0.07813 -0.847656,1.53125 -1.066406,1.511719 C 13.386719,25.640625 12.972656,24.113281 12.78125,24 c -0.195312,-0.109375 -1.726562,0.296875 -1.851562,0.113281 -0.125,-0.183593 0.8125,-1.460937 0.78125,-1.679687 -0.03516,-0.222656 -1.304688,-1.164063 -1.242188,-1.378906 0.06641,-0.210938 1.648438,-0.273438 1.800781,-0.4375 0.152344,-0.164063 0.09766,-1.746094 0.304688,-1.828126 0.207031,-0.08203 1.242187,1.117188 1.464843,1.132813 0.21875,0.01563 1.425782,-1.011719 1.617188,-0.902344 z m 0,0"
       id="path22"
       inkscape:connector-curvature="0" />
  </g>
</svg>
