<?xml version="1.0" encoding="UTF-8" standalone="no"?>
<svg
   xmlns:dc="http://purl.org/dc/elements/1.1/"
   xmlns:cc="http://creativecommons.org/ns#"
   xmlns:rdf="http://www.w3.org/1999/02/22-rdf-syntax-ns#"
   xmlns:svg="http://www.w3.org/2000/svg"
   xmlns="http://www.w3.org/2000/svg"
   xmlns:sodipodi="http://sodipodi.sourceforge.net/DTD/sodipodi-0.dtd"
   xmlns:inkscape="http://www.inkscape.org/namespaces/inkscape"
   width="48"
   height="48"
   viewBox="0 0 48 48"
   version="1.1"
   id="svg7"
   sodipodi:docname="brave.svg"
   inkscape:version="0.92.4 (5da689c313, 2019-01-14)">
  <metadata
     id="metadata13">
    <rdf:RDF>
      <cc:Work
         rdf:about="">
        <dc:format>image/svg+xml</dc:format>
        <dc:type
           rdf:resource="http://purl.org/dc/dcmitype/StillImage" />
        <dc:title></dc:title>
      </cc:Work>
    </rdf:RDF>
  </metadata>
  <defs
     id="defs11" />
  <sodipodi:namedview
     pagecolor="#ffffff"
     bordercolor="#666666"
     borderopacity="1"
     objecttolerance="10"
     gridtolerance="10"
     guidetolerance="10"
     inkscape:pageopacity="0"
     inkscape:pageshadow="2"
     inkscape:window-width="1280"
     inkscape:window-height="954"
     id="namedview9"
     showgrid="false"
     inkscape:zoom="3.6875"
     inkscape:cx="27.254237"
     inkscape:cy="32"
     inkscape:window-x="0"
     inkscape:window-y="0"
     inkscape:window-maximized="1"
     inkscape:current-layer="svg7" />
  <g
     id="surface1"
     transform="matrix(0.74841411,0,0,0.74841411,0.23748725,-0.1348933)">
    <path
       style="fill:#ff6e42;fill-opacity:1;fill-rule:nonzero;stroke:none"
       d="m 19.488281,3.144531 c -1.097656,0 -2.105469,0.589844 -2.648437,1.539063 L 14.65625,8.507812 H 8.757812 c -1.070312,0 -2.0625,0.566407 -2.613281,1.484376 L 3.84375,13.824219 C 3.28125,14.769531 3.265625,15.945312 3.8125,16.90625 l 3.023438,5.285156 -2.257813,3.945313 c -0.472656,0.832031 -0.527344,1.835937 -0.152344,2.71875 l 9.195313,21.453125 c 0.253906,0.59375 0.683594,1.085937 1.234375,1.414062 l 15.324219,9.195313 c 0.964843,0.578125 2.171874,0.578125 3.140624,0 l 15.324219,-9.195313 c 0.550781,-0.328125 0.984375,-0.820312 1.234375,-1.414062 l 9.195313,-21.453125 c 0.378906,-0.882813 0.320312,-1.886719 -0.15625,-2.71875 L 56.664062,22.191406 59.6875,16.90625 c 0.546875,-0.960938 0.535156,-2.136719 -0.03516,-3.082031 L 57.351562,9.992188 C 56.804688,9.074219 55.808594,8.507812 54.738281,8.507812 h -5.890625 l -2.1875,-3.824218 C 46.117188,3.734375 45.105469,3.144531 44.007812,3.144531 Z m 0,0"
       id="path2"
       inkscape:connector-curvature="0" />
    <path
       style="fill:#eeeeee;fill-opacity:1;fill-rule:nonzero;stroke:none"
       d="m 34.21875,50.679688 c 1.917969,-1.628907 2.460938,-2.21875 4.847656,-3.917969 1.339844,-0.957031 1.550782,-1.199219 1.332032,-1.539063 -0.175782,-0.265625 -4.285157,-2.175781 -6.355469,-3.003906 -2.175781,-0.875 -2.40625,-0.875 -4.515625,-0.01563 -1.890625,0.765625 -5.9375,2.648437 -6.292969,2.992187 -0.371094,0.351563 -0.1875,0.679688 0.746094,1.304688 1.914062,1.292969 3.640625,2.761719 5.371093,4.234375 2.496094,2.117187 2.308594,2.121094 4.867188,-0.05078 z M 24.179688,42.632812 c 2.597656,-1.210937 2.984374,-1.464843 4.972656,-3.214843 1.664062,-1.476563 1.976562,-1.914063 1.738281,-2.472657 -0.08203,-0.1875 -1.335937,-1.339843 -2.789063,-2.558593 -3.429687,-2.882813 -3.289062,-2.476563 -1.980468,-5.609375 0.777344,-1.859375 0.976562,-2.476563 0.976562,-2.992188 -0.0039,-0.78125 -0.292968,-1.363281 -0.878906,-1.765625 -0.234375,-0.164062 -2.3125,-1 -4.609375,-1.855469 -2.296875,-0.855468 -4.167969,-1.609374 -4.148437,-1.679687 0.03516,-0.15625 2.570312,-0.433594 4.410156,-0.480469 l 1.394531,-0.02734 2.554687,0.890626 c 2.238282,0.773437 2.585938,0.933593 2.753907,1.246093 0.109375,0.199219 0.191406,0.46875 0.1875,0.597657 0,0.128906 -0.414063,1.972656 -0.917969,4.101562 -0.882812,3.730469 -0.910156,3.882812 -0.679688,4.109375 0.363282,0.359375 3.933594,1.03125 5.050782,0.945313 1.273437,-0.09766 3.875,-0.703126 4.136718,-0.960938 0.210938,-0.207031 0.171876,-0.449219 -0.691406,-4.09375 -0.507812,-2.128906 -0.925781,-3.972656 -0.925781,-4.101562 0,-0.128907 0.08594,-0.398438 0.191406,-0.597657 0.167969,-0.316406 0.496094,-0.46875 2.484375,-1.160156 3.207032,-1.117187 3.144532,-1.109375 6.054688,-0.851563 1.363281,0.117188 2.523437,0.265626 2.59375,0.328126 0.07031,0.07031 -0.01563,0.164062 -0.199219,0.238281 -0.179687,0.0625 -2.050781,0.769531 -4.164063,1.554687 -2.117187,0.792969 -4.066406,1.578125 -4.339843,1.757813 -0.636719,0.410156 -0.949219,0.996093 -0.949219,1.800781 -0.0039,0.511719 0.195312,1.128906 0.949219,2.925781 0.523437,1.253907 0.960937,2.398438 0.960937,2.542969 0,0.578125 -0.441406,1.050781 -2.851562,3.074219 -1.386719,1.160156 -2.617188,2.285156 -2.738282,2.492187 -0.117187,0.207032 -0.179687,0.527344 -0.148437,0.710938 0.0625,0.308594 1.722656,1.910156 3.414063,3.285156 0.710937,0.578125 5.015624,2.691406 5.703124,2.800781 0.574219,0.08984 1.195313,-0.195312 2.203126,-1.03125 0.992187,-0.816406 1.578124,-1.632812 1.980468,-2.746093 0.378906,-1.042969 0.28125,-1.742188 -0.460937,-3.429688 -0.570313,-1.292969 -0.71875,-2 -0.527344,-2.480469 0.04297,-0.113281 1.578125,-1.5625 3.410156,-3.222656 3.996094,-3.617187 4.636719,-4.261719 4.855469,-4.910156 0.246094,-0.714844 0.07422,-1.660157 -0.476562,-2.609375 -1.300782,-2.273438 -6.492188,-9.636719 -6.953126,-9.636719 -2.371093,0.382813 -4.28125,1.449219 -6.777343,1.84375 -0.195313,0 -1.03125,-0.203125 -1.855469,-0.453125 -3.519531,-1.0625 -4.660156,-1.351562 -5.34375,-1.351562 -0.683594,0 -1.824219,0.289062 -5.34375,1.351562 -0.824219,0.25 -1.671875,0.453125 -1.878906,0.453125 C 22.070312,15.023438 20.085938,13.9375 17.535156,13.625 c -0.398437,0.269531 -3.765625,5.25 -5.230468,7.355469 -1.714844,2.476562 -1.886719,2.796875 -2.027344,3.742187 -0.191406,1.316406 -0.01172,1.535156 5.121094,6.171875 1.722656,1.554688 3.171874,2.921875 3.214843,3.03125 0.191407,0.488281 0.03906,1.226563 -0.519531,2.515625 -0.769531,1.769532 -0.835938,2.261719 -0.464844,3.328125 0.402344,1.167969 1.085938,2.105469 2.117188,2.917969 0.957031,0.757812 1.332031,0.941406 1.898437,0.957031 0.203125,0.0039 1.34375,-0.453125 2.535157,-1.007812 z m 0,0"
       id="path4"
       inkscape:connector-curvature="0" />
  </g>
</svg>
