<?xml version="1.0" encoding="UTF-8" standalone="no"?>
<svg
   xmlns:dc="http://purl.org/dc/elements/1.1/"
   xmlns:cc="http://creativecommons.org/ns#"
   xmlns:rdf="http://www.w3.org/1999/02/22-rdf-syntax-ns#"
   xmlns:svg="http://www.w3.org/2000/svg"
   xmlns="http://www.w3.org/2000/svg"
   xmlns:sodipodi="http://sodipodi.sourceforge.net/DTD/sodipodi-0.dtd"
   xmlns:inkscape="http://www.inkscape.org/namespaces/inkscape"
   width="48"
   height="48"
   viewBox="0 0 48 48"
   version="1.1"
   id="svg13"
   sodipodi:docname="cantata.svg"
   inkscape:version="0.92.4 (5da689c313, 2019-01-14)">
  <metadata
     id="metadata19">
    <rdf:RDF>
      <cc:Work
         rdf:about="">
        <dc:format>image/svg+xml</dc:format>
        <dc:type
           rdf:resource="http://purl.org/dc/dcmitype/StillImage" />
        <dc:title></dc:title>
      </cc:Work>
    </rdf:RDF>
  </metadata>
  <defs
     id="defs17" />
  <sodipodi:namedview
     pagecolor="#ffffff"
     bordercolor="#666666"
     borderopacity="1"
     objecttolerance="10"
     gridtolerance="10"
     guidetolerance="10"
     inkscape:pageopacity="0"
     inkscape:pageshadow="2"
     inkscape:window-width="1280"
     inkscape:window-height="954"
     id="namedview15"
     showgrid="false"
     inkscape:zoom="3.6875"
     inkscape:cx="27.254237"
     inkscape:cy="32"
     inkscape:window-x="0"
     inkscape:window-y="0"
     inkscape:window-maximized="1"
     inkscape:current-layer="svg13" />
  <g
     id="surface1"
     transform="matrix(0.73445494,0,0,0.73445494,0.68105566,0.31382818)">
    <path
       style="fill:#3f3f3f;fill-opacity:1;fill-rule:nonzero;stroke:none"
       d="m 31.75,3.144531 c 16.074219,0 29.105469,13.03125 29.105469,29.105469 0,16.074219 -13.03125,29.105469 -29.105469,29.105469 C 15.675781,61.355469 2.644531,48.324219 2.644531,32.25 2.644531,16.175781 15.675781,3.144531 31.75,3.144531 Z m 0,0"
       id="path2"
       inkscape:connector-curvature="0" />
    <path
       style="fill:#5c68bf;fill-opacity:1;fill-rule:nonzero;stroke:none"
       d="M 31.75,32.25 11.738281,53.417969 C 6.132812,48.117188 2.644531,40.605469 2.644531,32.25 c 0,-8.355469 3.488281,-15.867188 9.09375,-21.167969 z m 0,0"
       id="path4"
       inkscape:connector-curvature="0" />
    <path
       style="fill:#5c68bf;fill-opacity:1;fill-rule:nonzero;stroke:none"
       d="m 31.75,32.25 20.011719,21.167969 c 5.605469,-5.300781 9.09375,-12.8125 9.09375,-21.167969 0,-8.355469 -3.488281,-15.867188 -9.09375,-21.167969 z m 0,0"
       id="path6"
       inkscape:connector-curvature="0" />
    <path
       style="fill:#f5f5f5;fill-opacity:1;fill-rule:nonzero;stroke:none"
       d="m 31.75,7.113281 c 13.882812,0 25.136719,11.253907 25.136719,25.136719 0,13.882812 -11.253907,25.136719 -25.136719,25.136719 C 17.867188,57.386719 6.613281,46.132812 6.613281,32.25 6.613281,18.367188 17.867188,7.113281 31.75,7.113281 Z m 0,0"
       id="path8"
       inkscape:connector-curvature="0" />
    <path
       style="fill:#5c68bf;fill-opacity:1;fill-rule:nonzero;stroke:none"
       d="m 37.042969,11.082031 c -1.324219,0 -2.648438,1.324219 -2.648438,2.648438 v 26.339843 c -2.183593,-1.519531 -5.453125,-2.035156 -8.796875,-1.140624 -5.191406,1.390624 -8.527344,5.644531 -7.484375,9.539062 1.042969,3.894531 6.0625,5.90625 11.253907,4.515625 4.625,-1.238281 7.777343,-4.75 7.675781,-8.253906 V 19.019531 c 2.746093,-0.25 5.886719,0.164063 7.785156,2.378907 2.148437,2.5625 2.191406,6.160156 1.851563,9.324218 -0.472657,3.714844 -1.511719,7.363282 -3.023438,10.789063 5.5,-7.574219 10.0625,-21.320313 0,-26.460938 -1.957031,-1.058593 -4.886719,-1.421875 -6.269531,-3.261719 -0.207031,-0.402343 -0.3125,-0.660156 -0.34375,-0.535156 z m 0,0"
       id="path10"
       inkscape:connector-curvature="0" />
  </g>
</svg>
