<?xml version="1.0" encoding="UTF-8" standalone="no"?>
<svg
   xmlns:dc="http://purl.org/dc/elements/1.1/"
   xmlns:cc="http://creativecommons.org/ns#"
   xmlns:rdf="http://www.w3.org/1999/02/22-rdf-syntax-ns#"
   xmlns:svg="http://www.w3.org/2000/svg"
   xmlns="http://www.w3.org/2000/svg"
   xmlns:sodipodi="http://sodipodi.sourceforge.net/DTD/sodipodi-0.dtd"
   xmlns:inkscape="http://www.inkscape.org/namespaces/inkscape"
   width="48"
   height="48"
   viewBox="0 0 48 48"
   version="1.1"
   id="svg37"
   sodipodi:docname="cinelerra.svg"
   inkscape:version="0.92.4 (5da689c313, 2019-01-14)">
  <metadata
     id="metadata43">
    <rdf:RDF>
      <cc:Work
         rdf:about="">
        <dc:format>image/svg+xml</dc:format>
        <dc:type
           rdf:resource="http://purl.org/dc/dcmitype/StillImage" />
        <dc:title></dc:title>
      </cc:Work>
    </rdf:RDF>
  </metadata>
  <defs
     id="defs41" />
  <sodipodi:namedview
     pagecolor="#ffffff"
     bordercolor="#666666"
     borderopacity="1"
     objecttolerance="10"
     gridtolerance="10"
     guidetolerance="10"
     inkscape:pageopacity="0"
     inkscape:pageshadow="2"
     inkscape:window-width="1280"
     inkscape:window-height="954"
     id="namedview39"
     showgrid="false"
     inkscape:zoom="3.6875"
     inkscape:cx="27.254237"
     inkscape:cy="32"
     inkscape:window-x="0"
     inkscape:window-y="0"
     inkscape:window-maximized="1"
     inkscape:current-layer="svg37" />
  <g
     id="surface1"
     transform="matrix(0.73445494,0,0,0.73445494,0.68105565,0.31382818)">
    <path
       style="fill:#66ba68;fill-opacity:1;fill-rule:nonzero;stroke:none"
       d="m 7.9375,3.144531 h 47.625 c 1.460938,0 2.644531,1.1875 2.644531,2.648438 v 52.914062 c 0,1.460938 -1.183593,2.648438 -2.644531,2.648438 H 7.9375 c -1.460938,0 -2.644531,-1.1875 -2.644531,-2.648438 V 5.792969 c 0,-1.460938 1.183593,-2.648438 2.644531,-2.648438 z m 0,0"
       id="path2"
       inkscape:connector-curvature="0" />
    <path
       style="fill:#3f3f3f;fill-opacity:1;fill-rule:nonzero;stroke:none"
       d="m 9.261719,5.792969 h 2.644531 c 0.730469,0 1.324219,0.589843 1.324219,1.320312 v 2.648438 c 0,0.730469 -0.59375,1.320312 -1.324219,1.320312 H 9.261719 C 8.53125,11.082031 7.9375,10.492188 7.9375,9.761719 V 7.113281 c 0,-0.730469 0.59375,-1.320312 1.324219,-1.320312 z m 0,0"
       id="path4"
       inkscape:connector-curvature="0" />
    <path
       style="fill:#3f3f3f;fill-opacity:1;fill-rule:nonzero;stroke:none"
       d="m 9.261719,13.730469 h 2.644531 c 0.730469,0 1.324219,0.589843 1.324219,1.320312 v 2.648438 c 0,0.730469 -0.59375,1.320312 -1.324219,1.320312 H 9.261719 c -0.730469,0 -1.324219,-0.589843 -1.324219,-1.320312 v -2.648438 c 0,-0.730469 0.59375,-1.320312 1.324219,-1.320312 z m 0,0"
       id="path6"
       inkscape:connector-curvature="0" />
    <path
       style="fill:#3f3f3f;fill-opacity:1;fill-rule:nonzero;stroke:none"
       d="m 9.261719,21.667969 h 2.644531 c 0.730469,0 1.324219,0.589843 1.324219,1.320312 v 2.648438 c 0,0.730469 -0.59375,1.320312 -1.324219,1.320312 H 9.261719 c -0.730469,0 -1.324219,-0.589843 -1.324219,-1.320312 v -2.648438 c 0,-0.730469 0.59375,-1.320312 1.324219,-1.320312 z m 0,0"
       id="path8"
       inkscape:connector-curvature="0" />
    <path
       style="fill:#3f3f3f;fill-opacity:1;fill-rule:nonzero;stroke:none"
       d="m 9.261719,29.605469 h 2.644531 c 0.730469,0 1.324219,0.589843 1.324219,1.320312 v 2.648438 c 0,0.730469 -0.59375,1.320312 -1.324219,1.320312 H 9.261719 c -0.730469,0 -1.324219,-0.589843 -1.324219,-1.320312 v -2.648438 c 0,-0.730469 0.59375,-1.320312 1.324219,-1.320312 z m 0,0"
       id="path10"
       inkscape:connector-curvature="0" />
    <path
       style="fill:#3f3f3f;fill-opacity:1;fill-rule:nonzero;stroke:none"
       d="m 9.261719,37.542969 h 2.644531 c 0.730469,0 1.324219,0.589843 1.324219,1.320312 v 2.648438 c 0,0.730469 -0.59375,1.320312 -1.324219,1.320312 H 9.261719 c -0.730469,0 -1.324219,-0.589843 -1.324219,-1.320312 v -2.648438 c 0,-0.730469 0.59375,-1.320312 1.324219,-1.320312 z m 0,0"
       id="path12"
       inkscape:connector-curvature="0" />
    <path
       style="fill:#3f3f3f;fill-opacity:1;fill-rule:nonzero;stroke:none"
       d="m 51.59375,5.792969 h 2.644531 c 0.730469,0 1.324219,0.589843 1.324219,1.320312 v 2.648438 c 0,0.730469 -0.59375,1.320312 -1.324219,1.320312 H 51.59375 c -0.730469,0 -1.324219,-0.589843 -1.324219,-1.320312 V 7.113281 c 0,-0.730469 0.59375,-1.320312 1.324219,-1.320312 z m 0,0"
       id="path14"
       inkscape:connector-curvature="0" />
    <path
       style="fill:#3f3f3f;fill-opacity:1;fill-rule:nonzero;stroke:none"
       d="m 51.59375,13.730469 h 2.644531 c 0.730469,0 1.324219,0.589843 1.324219,1.320312 v 2.648438 c 0,0.730469 -0.59375,1.320312 -1.324219,1.320312 H 51.59375 c -0.730469,0 -1.324219,-0.589843 -1.324219,-1.320312 v -2.648438 c 0,-0.730469 0.59375,-1.320312 1.324219,-1.320312 z m 0,0"
       id="path16"
       inkscape:connector-curvature="0" />
    <path
       style="fill:#3f3f3f;fill-opacity:1;fill-rule:nonzero;stroke:none"
       d="m 51.59375,21.667969 h 2.644531 c 0.730469,0 1.324219,0.589843 1.324219,1.320312 v 2.648438 c 0,0.730469 -0.59375,1.320312 -1.324219,1.320312 H 51.59375 c -0.730469,0 -1.324219,-0.589843 -1.324219,-1.320312 v -2.648438 c 0,-0.730469 0.59375,-1.320312 1.324219,-1.320312 z m 0,0"
       id="path18"
       inkscape:connector-curvature="0" />
    <path
       style="fill:#3f3f3f;fill-opacity:1;fill-rule:nonzero;stroke:none"
       d="m 51.59375,29.605469 h 2.644531 c 0.730469,0 1.324219,0.589843 1.324219,1.320312 v 2.648438 c 0,0.730469 -0.59375,1.320312 -1.324219,1.320312 H 51.59375 c -0.730469,0 -1.324219,-0.589843 -1.324219,-1.320312 v -2.648438 c 0,-0.730469 0.59375,-1.320312 1.324219,-1.320312 z m 0,0"
       id="path20"
       inkscape:connector-curvature="0" />
    <path
       style="fill:#3f3f3f;fill-opacity:1;fill-rule:nonzero;stroke:none"
       d="m 51.59375,37.542969 h 2.644531 c 0.730469,0 1.324219,0.589843 1.324219,1.320312 v 2.648438 c 0,0.730469 -0.59375,1.320312 -1.324219,1.320312 H 51.59375 c -0.730469,0 -1.324219,-0.589843 -1.324219,-1.320312 v -2.648438 c 0,-0.730469 0.59375,-1.320312 1.324219,-1.320312 z m 0,0"
       id="path22"
       inkscape:connector-curvature="0" />
    <path
       style="fill:#3f3f3f;fill-opacity:1;fill-rule:nonzero;stroke:none"
       d="m 9.261719,45.480469 h 2.644531 c 0.730469,0 1.324219,0.589843 1.324219,1.320312 v 2.648438 c 0,0.730469 -0.59375,1.320312 -1.324219,1.320312 H 9.261719 c -0.730469,0 -1.324219,-0.589843 -1.324219,-1.320312 v -2.648438 c 0,-0.730469 0.59375,-1.320312 1.324219,-1.320312 z m 0,0"
       id="path24"
       inkscape:connector-curvature="0" />
    <path
       style="fill:#3f3f3f;fill-opacity:1;fill-rule:nonzero;stroke:none"
       d="m 9.261719,53.417969 h 2.644531 c 0.730469,0 1.324219,0.589843 1.324219,1.320312 v 2.648438 c 0,0.730469 -0.59375,1.320312 -1.324219,1.320312 H 9.261719 c -0.730469,0 -1.324219,-0.589843 -1.324219,-1.320312 v -2.648438 c 0,-0.730469 0.59375,-1.320312 1.324219,-1.320312 z m 0,0"
       id="path26"
       inkscape:connector-curvature="0" />
    <path
       style="fill:#3f3f3f;fill-opacity:1;fill-rule:nonzero;stroke:none"
       d="m 51.59375,45.480469 h 2.644531 c 0.730469,0 1.324219,0.589843 1.324219,1.320312 v 2.648438 c 0,0.730469 -0.59375,1.320312 -1.324219,1.320312 H 51.59375 c -0.730469,0 -1.324219,-0.589843 -1.324219,-1.320312 v -2.648438 c 0,-0.730469 0.59375,-1.320312 1.324219,-1.320312 z m 0,0"
       id="path28"
       inkscape:connector-curvature="0" />
    <path
       style="fill:#3f3f3f;fill-opacity:1;fill-rule:nonzero;stroke:none"
       d="m 51.59375,53.417969 h 2.644531 c 0.730469,0 1.324219,0.589843 1.324219,1.320312 v 2.648438 c 0,0.730469 -0.59375,1.320312 -1.324219,1.320312 H 51.59375 c -0.730469,0 -1.324219,-0.589843 -1.324219,-1.320312 v -2.648438 c 0,-0.730469 0.59375,-1.320312 1.324219,-1.320312 z m 0,0"
       id="path30"
       inkscape:connector-curvature="0" />
    <path
       style="fill:#3f3f3f;fill-opacity:1;fill-rule:nonzero;stroke:none"
       d="m 17.199219,5.792969 h 29.101562 c 0.730469,0 1.324219,0.589843 1.324219,1.320312 V 28.28125 c 0,0.730469 -0.59375,1.324219 -1.324219,1.324219 H 17.199219 c -0.730469,0 -1.324219,-0.59375 -1.324219,-1.324219 V 7.113281 c 0,-0.730469 0.59375,-1.320312 1.324219,-1.320312 z m 0,0"
       id="path32"
       inkscape:connector-curvature="0" />
    <path
       style="fill:#3f3f3f;fill-opacity:1;fill-rule:nonzero;stroke:none"
       d="m 17.199219,34.894531 h 29.101562 c 0.730469,0 1.324219,0.59375 1.324219,1.324219 v 21.167969 c 0,0.730469 -0.59375,1.320312 -1.324219,1.320312 H 17.199219 c -0.730469,0 -1.324219,-0.589843 -1.324219,-1.320312 V 36.21875 c 0,-0.730469 0.59375,-1.324219 1.324219,-1.324219 z m 0,0"
       id="path34"
       inkscape:connector-curvature="0" />
  </g>
</svg>
