<?xml version="1.0" encoding="UTF-8" standalone="no"?>
<svg
   xmlns:dc="http://purl.org/dc/elements/1.1/"
   xmlns:cc="http://creativecommons.org/ns#"
   xmlns:rdf="http://www.w3.org/1999/02/22-rdf-syntax-ns#"
   xmlns:svg="http://www.w3.org/2000/svg"
   xmlns="http://www.w3.org/2000/svg"
   xmlns:sodipodi="http://sodipodi.sourceforge.net/DTD/sodipodi-0.dtd"
   xmlns:inkscape="http://www.inkscape.org/namespaces/inkscape"
   width="48"
   height="48"
   viewBox="0 0 48 48"
   version="1.1"
   id="svg23"
   sodipodi:docname="clementine.svg"
   inkscape:version="0.92.4 (5da689c313, 2019-01-14)">
  <metadata
     id="metadata29">
    <rdf:RDF>
      <cc:Work
         rdf:about="">
        <dc:format>image/svg+xml</dc:format>
        <dc:type
           rdf:resource="http://purl.org/dc/dcmitype/StillImage" />
        <dc:title></dc:title>
      </cc:Work>
    </rdf:RDF>
  </metadata>
  <defs
     id="defs27" />
  <sodipodi:namedview
     pagecolor="#ffffff"
     bordercolor="#666666"
     borderopacity="1"
     objecttolerance="10"
     gridtolerance="10"
     guidetolerance="10"
     inkscape:pageopacity="0"
     inkscape:pageshadow="2"
     inkscape:window-width="1280"
     inkscape:window-height="954"
     id="namedview25"
     showgrid="false"
     inkscape:zoom="3.6875"
     inkscape:cx="27.254237"
     inkscape:cy="32"
     inkscape:window-x="0"
     inkscape:window-y="0"
     inkscape:window-maximized="1"
     inkscape:current-layer="svg23" />
  <g
     id="surface1"
     transform="matrix(0.73445494,0,0,0.73445494,0.68105566,0.31382818)">
    <path
       style="fill:#ff6e42;fill-opacity:1;fill-rule:nonzero;stroke:none"
       d="m 31.75,3.144531 c 16.074219,0 29.105469,13.03125 29.105469,29.105469 0,16.074219 -13.03125,29.105469 -29.105469,29.105469 C 15.675781,61.355469 2.644531,48.324219 2.644531,32.25 2.644531,16.175781 15.675781,3.144531 31.75,3.144531 Z m 0,0"
       id="path2"
       inkscape:connector-curvature="0" />
    <path
       style="fill:#ffdeb0;fill-opacity:1;fill-rule:nonzero;stroke:none"
       d="m 31.75,5.792969 c 14.613281,0 26.457031,11.84375 26.457031,26.457031 0,14.613281 -11.84375,26.457031 -26.457031,26.457031 C 17.136719,58.707031 5.292969,46.863281 5.292969,32.25 5.292969,17.636719 17.136719,5.792969 31.75,5.792969 Z m 0,0"
       id="path4"
       inkscape:connector-curvature="0" />
    <path
       style="fill:#ff6e42;fill-opacity:1;fill-rule:nonzero;stroke:none"
       d="m 31.75,8.4375 c -2.878906,0 -5.371094,1.601562 -6.636719,3.96875 h 0.02344 L 31.75,29.605469 38.363281,12.40625 h 0.02344 C 37.121094,10.039062 34.628906,8.4375 31.75,8.4375 Z m 0,0"
       id="path6"
       inkscape:connector-curvature="0" />
    <path
       style="fill:#ff6e42;fill-opacity:1;fill-rule:nonzero;stroke:none"
       d="m 31.75,56.0625 c -2.878906,0 -5.371094,-1.601562 -6.636719,-3.96875 h 0.02344 L 31.75,34.894531 38.363281,52.09375 h 0.02344 C 37.121094,54.460938 34.628906,56.0625 31.75,56.0625 Z m 0,0"
       id="path8"
       inkscape:connector-curvature="0" />
    <path
       style="fill:#ff6e42;fill-opacity:1;fill-rule:nonzero;stroke:none"
       d="m 48.589844,15.410156 c -2.039063,-2.035156 -4.933594,-2.664062 -7.5,-1.886718 l 0.01563,0.01953 -7.484375,16.835937 16.835937,-7.484375 0.01953,0.01563 c 0.777344,-2.566406 0.148438,-5.460937 -1.886718,-7.5 z m 0,0"
       id="path10"
       inkscape:connector-curvature="0" />
    <path
       style="fill:#ff6e42;fill-opacity:1;fill-rule:nonzero;stroke:none"
       d="m 14.910156,49.089844 c -2.035156,-2.039063 -2.664062,-4.933594 -1.886718,-7.5 l 0.01953,0.01563 16.835937,-7.484375 -7.484375,16.835937 0.01563,0.01953 c -2.566406,0.777344 -5.460937,0.148438 -7.5,-1.886718 z m 0,0"
       id="path12"
       inkscape:connector-curvature="0" />
    <path
       style="fill:#ff6e42;fill-opacity:1;fill-rule:nonzero;stroke:none"
       d="m 55.5625,32.25 c 0,-2.878906 -1.601562,-5.371094 -3.96875,-6.636719 v 0.02344 L 34.394531,32.25 51.59375,38.863281 v 0.02344 C 53.960938,37.621094 55.5625,35.128906 55.5625,32.25 Z m 0,0"
       id="path14"
       inkscape:connector-curvature="0" />
    <path
       style="fill:#ff6e42;fill-opacity:1;fill-rule:nonzero;stroke:none"
       d="m 7.9375,32.25 c 0,-2.878906 1.601562,-5.371094 3.96875,-6.636719 v 0.02344 L 29.105469,32.25 11.90625,38.863281 v 0.02344 C 9.539062,37.621094 7.9375,35.128906 7.9375,32.25 Z m 0,0"
       id="path16"
       inkscape:connector-curvature="0" />
    <path
       style="fill:#ff6e42;fill-opacity:1;fill-rule:nonzero;stroke:none"
       d="m 48.589844,49.089844 c 2.035156,-2.039063 2.664062,-4.933594 1.886718,-7.5 l -0.01953,0.01563 -16.835937,-7.484375 7.484375,16.835937 -0.01563,0.01953 c 2.566406,0.777344 5.460937,0.148438 7.5,-1.886718 z m 0,0"
       id="path18"
       inkscape:connector-curvature="0" />
    <path
       style="fill:#ff6e42;fill-opacity:1;fill-rule:nonzero;stroke:none"
       d="m 14.910156,15.410156 c 2.039063,-2.035156 4.933594,-2.664062 7.5,-1.886718 l -0.01563,0.01953 7.484375,16.835937 -16.835937,-7.484375 -0.01953,0.01563 c -0.777344,-2.566406 -0.148438,-5.460937 1.886718,-7.5 z m 0,0"
       id="path20"
       inkscape:connector-curvature="0" />
  </g>
</svg>
