<?xml version="1.0" encoding="UTF-8" standalone="no"?>
<svg
   xmlns:dc="http://purl.org/dc/elements/1.1/"
   xmlns:cc="http://creativecommons.org/ns#"
   xmlns:rdf="http://www.w3.org/1999/02/22-rdf-syntax-ns#"
   xmlns:svg="http://www.w3.org/2000/svg"
   xmlns="http://www.w3.org/2000/svg"
   xmlns:sodipodi="http://sodipodi.sourceforge.net/DTD/sodipodi-0.dtd"
   xmlns:inkscape="http://www.inkscape.org/namespaces/inkscape"
   width="48"
   height="48"
   version="1.1"
   id="svg24"
   sodipodi:docname="cockos-reaper.svg"
   inkscape:version="0.92.4 (5da689c313, 2019-01-14)">
  <metadata
     id="metadata30">
    <rdf:RDF>
      <cc:Work
         rdf:about="">
        <dc:format>image/svg+xml</dc:format>
        <dc:type
           rdf:resource="http://purl.org/dc/dcmitype/StillImage" />
        <dc:title></dc:title>
      </cc:Work>
    </rdf:RDF>
  </metadata>
  <defs
     id="defs28" />
  <sodipodi:namedview
     pagecolor="#ffffff"
     bordercolor="#666666"
     borderopacity="1"
     objecttolerance="10"
     gridtolerance="10"
     guidetolerance="10"
     inkscape:pageopacity="0"
     inkscape:pageshadow="2"
     inkscape:window-width="1280"
     inkscape:window-height="954"
     id="namedview26"
     showgrid="false"
     inkscape:zoom="3.6875"
     inkscape:cx="27.254237"
     inkscape:cy="32"
     inkscape:window-x="0"
     inkscape:window-y="0"
     inkscape:window-maximized="1"
     inkscape:current-layer="svg24" />
  <g
     id="g3881"
     transform="matrix(0.76211716,0,0,0.76211716,-0.00669109,11.425067)">
    <path
       inkscape:connector-curvature="0"
       id="path2"
       d="m 31.499833,-11.499976 c -3.592573,0 -8.875436,0.937945 -13.748963,3.2065396 -0.295925,0.1377506 -0.595843,0.2630967 -0.888238,0.4108883 -1.240303,0.6269813 -2.442444,1.3446848 -3.574356,2.1618621 -0.0326,0.02353 -0.06383,0.04882 -0.09631,0.07251 -0.174248,0.1269 -0.345745,0.25487 -0.516356,0.386718 -0.09484,0.07329 -0.184624,0.153353 -0.278242,0.228272 -0.193972,0.15486 -0.383959,0.314065 -0.572541,0.47534 -0.08234,0.07057 -0.170202,0.135117 -0.251488,0.206788 -0.02565,0.02261 -0.05204,0.04439 -0.07759,0.06714 -0.09857,0.08778 -0.189362,0.184306 -0.286269,0.273925 -0.178209,0.164832 -0.352145,0.33374 -0.524383,0.504882 -0.183891,0.182615 -0.363787,0.368693 -0.540433,0.558592 -0.179777,0.193378 -0.355275,0.389792 -0.527057,0.590821 -0.08031,0.09397 -0.1676684,0.180951 -0.2461381,0.276609 -0.071066,0.08666 -0.139147,0.177831 -0.2086828,0.26587 -0.032848,0.04158 -0.061053,0.08708 -0.09364,0.128907 -0.1270501,0.163811 -0.2503072,0.330897 -0.3718837,0.499511 -0.082737,0.11378 -0.1717992,0.222039 -0.251488,0.338378 -0.1457084,0.212722 -0.2860362,0.427009 -0.4227161,0.647216 0,0 0,0.0027 0,0.0027 0,0 -0.00274,0 -0.00274,0 C 7.7469571,0.243907 7.4924294,0.699521 7.2578243,1.170435 7.0571631,1.573216 6.8766067,1.988248 6.7066882,2.413842 6.6779502,2.485832 6.6462242,2.556032 6.6184032,2.628686 6.5223652,2.879478 6.4303443,3.135341 6.3455105,3.394065 6.2858965,3.575873 6.2335282,3.761521 6.1796356,3.947286 c -0.02289,0.07889 -0.050396,0.156719 -0.072231,0.23633 -0.3525282,1.285233 -0.5712408,2.66094 -0.6233718,4.138423 -0.053683,1.528234 0.090312,3.113095 0.3932871,4.723869 1.5329577,8.157422 7.2277171,17.014362 12.9837951,22.934546 2.33247,2.39924 6.519189,6.176482 10.58127,7.229481 0.426854,0.110729 0.849129,0.196587 1.270822,0.241701 0.2633,0.02808 0.52695,0.04834 0.786572,0.04834 4.637585,0 9.910922,-4.710664 12.641342,-7.519523 5.538829,-5.697242 11.020311,-14.114817 12.791214,-22.010784 0.204394,-0.91202 0.360557,-1.819347 0.460172,-2.7124 0.110969,-0.995582 0.157139,-1.976115 0.123064,-2.935298 C 56.988592,-6.6542723 39.760773,-11.499976 31.499833,-11.499976 Z m -2.014588,9.377917 c 0.802002,-0.01347 1.582293,0.01279 2.354366,0.05909 -0.771626,-0.04623 -1.552837,-0.07253 -2.354366,-0.05909 z m 0,0 c -0.754573,0.01265 -1.525492,0.05779 -2.308885,0.12353 0.782192,-0.06548 1.555311,-0.110894 2.308885,-0.12353 z m 2.98844,0.107428 c 0.589567,0.04839 1.170844,0.117564 1.744371,0.201416 -0.574005,-0.08393 -1.154294,-0.153005 -1.744371,-0.201416 z m -5.907318,0.08057 c -0.584464,0.05863 -1.177697,0.129897 -1.779153,0.21753 0.602302,-0.08767 1.193875,-0.158923 1.779153,-0.21753 z m 8.259008,0.209474 c 0.715066,0.121246 1.421167,0.265831 2.113578,0.443114 -0.692683,-0.177424 -1.398219,-0.321779 -2.113578,-0.443114 z m -10.816707,0.128905 c -0.603567,0.09917 -1.216593,0.213396 -1.838011,0.341065 0.620848,-0.12749 1.23501,-0.242055 1.838011,-0.341065 z m 13.409185,0.451172 c 0.550348,0.152357 1.094472,0.322068 1.632005,0.510254 C 38.51261,-0.82237 37.967904,-0.992189 37.417853,-1.14451 Z m -15.916049,0.02417 c -0.783275,0.171995 -1.581596,0.366399 -2.394498,0.582762 0.813363,-0.2165 1.610899,-0.410769 2.394498,-0.582762 z m 18.227608,0.735838 c 0.558064,0.213129 1.110187,0.44585 1.656084,0.698242 -0.546348,-0.252648 -1.097549,-0.484921 -1.656084,-0.698242 z m 1.998537,0.848632 c 0.66112,0.316894 1.31259,0.66714 1.958404,1.041991 C 43.040406,1.131124 42.389207,0.781151 41.727949,0.46413 Z m 2.493487,1.369628 C 44.702011,2.126397 45.179179,2.435232 45.652784,2.76027 45.179265,2.435258 44.70192,2.126389 44.221436,1.833758 Z m 2.035992,1.345456 c 0.62373,0.448738 1.244999,0.915228 1.859414,1.420653 C 47.502285,4.094325 46.881297,3.62806 46.257428,3.179214 Z m -20.105752,6.93139 c 0.701816,0.774176 1.395566,1.542812 2.046694,2.322995 -0.652737,-0.782126 -1.343096,-1.546924 -2.046694,-2.322995 z m 2.405199,2.758052 c 0.227101,0.280997 0.444686,0.570443 0.660828,0.859374 -0.216254,-0.289034 -0.43402,-0.577865 -0.660828,-0.859374 z m 1.067491,1.412596 c 0.21155,0.300201 0.410244,0.613107 0.60732,0.926512 -0.197334,-0.313778 -0.395467,-0.625955 -0.60732,-0.926512 z m 0.960474,1.487791 c 0.296999,0.511261 0.577973,1.03879 0.82938,1.5979 -0.251403,-0.559101 -0.532332,-1.086604 -0.82938,-1.5979 z m 0.866836,1.699949 c 0.234123,0.529622 0.447543,1.084423 0.634073,1.667723 -0.186455,-0.582941 -0.400069,-1.138409 -0.634073,-1.667723 z m 0.802625,2.304198 c 0.119364,0.428311 0.234881,0.862487 0.326399,1.323972 -0.09162,-0.461682 -0.20655,-0.896005 -0.326399,-1.323972 z m 0.583239,2.943356 c 0.0096,0.0843 0.01802,0.172405 0.02675,0.257811 -0.0086,-0.08539 -0.01715,-0.173675 -0.02675,-0.257811 z m 0.101668,4.176019 c -0.02801,0.600857 -0.08198,1.236188 -0.147148,1.885252 0.06532,-0.649579 0.119009,-1.283983 0.147148,-1.885252 z m -0.254165,2.932614 c -0.0931,0.732781 -0.225752,1.513676 -0.366532,2.309568 0.140639,-0.794934 0.273366,-1.577458 0.366532,-2.309568 z m -0.540433,3.33276 c -0.228904,1.163155 -0.499138,2.381247 -0.832055,3.684565 0.333011,-1.303689 0.60311,-2.520934 0.832055,-3.684565 z"
       style="fill:#465051" />
    <path
       inkscape:connector-curvature="0"
       id="path4"
       d="m 31.500048,-10.999996 c -3.657892,0 -9.036807,0.954998 -13.998943,3.2648399 -0.301305,0.1402552 -0.606677,0.2678803 -0.904388,0.418359 -1.262854,0.6383809 -2.486852,1.3691331 -3.639344,2.2011691 -0.03319,0.02395 -0.06499,0.0497 -0.09806,0.07383 -0.177416,0.129208 -0.352031,0.259505 -0.525744,0.39375 -0.09656,0.07462 -0.187981,0.156141 -0.283301,0.232422 -0.197499,0.157676 -0.39094,0.319775 -0.582951,0.483983 -0.08384,0.07185 -0.173296,0.137573 -0.25606,0.210547 -0.02612,0.02302 -0.05299,0.0452 -0.079,0.06836 -0.100364,0.08938 -0.192805,0.187657 -0.291474,0.278906 -0.181449,0.167828 -0.358547,0.339807 -0.533917,0.514061 -0.187235,0.185935 -0.3704023,0.375397 -0.5502593,0.568748 -0.183046,0.196894 -0.3617338,0.396879 -0.5366398,0.601563 -0.08177,0.09568 -0.170717,0.184241 -0.250613,0.281639 -0.07236,0.08823 -0.141677,0.181064 -0.212477,0.270704 -0.03345,0.04234 -0.06216,0.08866 -0.09534,0.13125 -0.12936,0.16679 -0.254859,0.336914 -0.378645,0.508593 -0.08424,0.115849 -0.174923,0.226076 -0.256061,0.344531 -0.148358,0.216589 -0.291237,0.434772 -0.430402,0.658983 0,0 0,0.0028 0,0.0028 0,0 -0.0028,0 -0.0028,0 -0.278331,0.448422 -0.537487,0.91232 -0.776357,1.391796 -0.20431,0.410104 -0.388149,0.832682 -0.561157,1.266014 -0.02926,0.0733 -0.06156,0.144775 -0.08989,0.21875 -0.09778,0.255352 -0.191478,0.515867 -0.277854,0.779295 -0.0607,0.185114 -0.114019,0.374137 -0.168891,0.56328 -0.02331,0.08032 -0.05131,0.159567 -0.07354,0.240625 -0.358938,1.308602 -0.581627,2.709321 -0.634706,4.213667 -0.05466,1.556021 0.09195,3.169698 0.400438,4.809757 1.560829,8.305739 7.3591301,17.323713 13.2198631,23.351536 2.374878,2.442863 6.637719,6.288781 10.773656,7.360927 0.434615,0.112742 0.864568,0.20016 1.293928,0.246094 C 30.967206,44.97937 31.23565,45 31.499992,45 c 4.721907,0 10.091117,-4.796312 12.871187,-7.656241 5.63953,-5.800828 11.22068,-14.371449 13.02378,-22.410978 0.20811,-0.928602 0.36711,-1.852426 0.46854,-2.761716 0.11298,-1.013684 0.15999,-2.012044 0.1253,-2.988667 C 57.452242,-6.0661891 39.911182,-10.999996 31.500048,-10.999996 Z m -2.051217,9.548424 c 0.816584,-0.01372 1.611062,0.01302 2.397173,0.06016 -0.785656,-0.04707 -1.581071,-0.07385 -2.397173,-0.06016 z m 0,0 c -0.768292,0.01288 -1.553228,0.05884 -2.350864,0.125776 0.796413,-0.06667 1.583589,-0.11291 2.350864,-0.125776 z m 3.042775,0.109382 c 0.600287,0.04927 1.192132,0.1197 1.776087,0.205078 -0.584442,-0.08546 -1.175281,-0.155787 -1.776087,-0.205078 z m -6.014723,0.08203 c -0.595091,0.0597 -1.19911,0.132258 -1.811501,0.221484 0.613253,-0.08926 1.215582,-0.161813 1.811501,-0.221484 z m 8.409171,0.213282 c 0.728067,0.123451 1.447008,0.270664 2.152008,0.451171 -0.70528,-0.18065 -1.423643,-0.32763 -2.152008,-0.451171 z m -11.013373,0.131249 c -0.614541,0.100968 -1.238713,0.217276 -1.87143,0.347266 0.632136,-0.129808 1.257465,-0.246456 1.87143,-0.347266 z m 13.652991,0.459375 c 0.56035,0.155127 1.11437,0.327924 1.66167,0.519531 -0.54701,-0.191534 -1.10162,-0.364441 -1.66167,-0.519531 z m -16.205435,0.02461 c -0.797516,0.175123 -1.610352,0.373061 -2.438034,0.593358 0.828152,-0.220437 1.640188,-0.418237 2.438034,-0.593358 z m 18.559015,0.749217 c 0.56821,0.217004 1.13038,0.453957 1.6862,0.710937 -0.55628,-0.257241 -1.11751,-0.493738 -1.6862,-0.710937 z m 2.03488,0.864062 c 0.67314,0.322655 1.33645,0.67927 1.99401,1.060936 -0.65769,-0.381815 -1.32073,-0.738151 -1.99401,-1.060936 z m 2.53882,1.39453 c 0.48931,0.29796 0.97516,0.61241 1.45737,0.943358 -0.48213,-0.330922 -0.96815,-0.645406 -1.45737,-0.943358 z m 2.07301,1.369919 c 0.63507,0.456897 1.26764,0.931868 1.89322,1.446483 -0.62573,-0.514734 -1.25801,-0.989476 -1.89322,-1.446483 z m -20.47131,7.057414 c 0.714576,0.788252 1.42094,1.570863 2.083907,2.365231 -0.664605,-0.796346 -1.367516,-1.575049 -2.083907,-2.365231 z m 2.44893,2.808199 c 0.23123,0.286106 0.452771,0.580814 0.672843,0.874998 -0.220186,-0.294289 -0.441911,-0.588371 -0.672843,-0.874998 z m 1.0869,1.438279 c 0.215396,0.305659 0.417703,0.624254 0.618362,0.943358 -0.200922,-0.319483 -0.402658,-0.637336 -0.618362,-0.943358 z m 0.977937,1.514842 c 0.302399,0.520556 0.588481,1.057677 0.844459,1.626952 -0.255974,-0.569266 -0.54201,-1.10636 -0.844459,-1.626952 z m 0.882596,1.730857 c 0.23838,0.539251 0.45568,1.104139 0.645602,1.698045 -0.189845,-0.59354 -0.407343,-1.159108 -0.645602,-1.698045 z m 0.817218,2.346092 c 0.121535,0.436098 0.239152,0.878168 0.332334,1.348044 -0.09329,-0.470076 -0.210306,-0.912296 -0.332334,-1.348044 z m 0.593844,2.996871 c 0.0098,0.08583 0.01835,0.17554 0.02724,0.262499 -0.0088,-0.08694 -0.01746,-0.176833 -0.02724,-0.262499 z m 0.103516,4.251947 c -0.02852,0.611781 -0.08347,1.258664 -0.149823,1.919529 0.06651,-0.66139 0.121173,-1.307328 0.149823,-1.919529 z m -0.258786,2.985934 c -0.09479,0.746104 -0.229856,1.541197 -0.373196,2.351559 0.143196,-0.809387 0.278336,-1.606138 0.373196,-2.351559 z m -0.550259,3.393355 c -0.233066,1.184303 -0.508213,2.424542 -0.847183,3.751557 0.339066,-1.327393 0.614075,-2.566769 0.847183,-3.751557 z"
       style="opacity:0.2" />
    <path
       inkscape:connector-curvature="0"
       id="path6"
       d="m 33.842693,-0.099979 c -1.591219,-0.0184 -3.190808,0.121044 -4.816139,0.418359 -8.91e-4,1.63e-4 -0.0018,-1.63e-4 -0.0028,0 -2.708064,0.495648 -5.485274,1.430068 -8.398276,2.80273 0.398846,0.655541 0.811238,1.275088 1.234,1.864841 0.422763,0.589768 0.856754,1.148087 1.293928,1.687109 3.060556,3.773843 6.356166,6.486228 8.259349,10.718736 3.37e-4,7.52e-4 -3.38e-4,0.002 0,0.0028 0.950866,2.115463 1.553741,4.610453 1.604471,7.806631 1.4e-5,9.38e-4 -1.5e-5,0.0018 0,0.0028 0.05077,3.197439 -0.450436,7.094446 -1.707986,12.017562 -0.507664,1.988216 -1.136315,4.14003 -1.904117,6.483194 0.434615,0.112742 0.864568,0.200161 1.293928,0.246095 0.268087,0.02858 0.536597,0.04909 0.800939,0.04909 4.721904,0 10.09112,-4.796314 12.871183,-7.65624 C 50.010656,30.54297 55.591801,21.972349 57.394902,13.93282 54.405677,10.073826 52.056682,7.058717 48.419125,4.392597 43.621565,0.876262 38.651693,-0.044374 33.842682,-0.099975 Z"
       style="fill:#e45e3e" />
    <path
       inkscape:connector-curvature="0"
       id="path8"
       d="M 5.6470006,3.967609 C 5.2880622,5.276211 5.0647191,6.676824 5.0116403,8.18117 4.9569853,9.737191 5.1024353,11.351068 5.4109216,12.991128 9.7534687,9.581452 13.721764,6.839603 17.442729,4.761796 16.623949,3.479809 15.834684,2.011392 15.096311,0.285205 15.096212,0.28484 7.2136428,-1.42872 5.6470006,3.967609 Z"
       style="fill:#519c26" />
    <path
       inkscape:connector-curvature="0"
       id="path10"
       d="M 57.988553,8.182391 C 57.451985,-7.0661987 39.910779,-11.99995 31.499641,-11.99995 c -3.880002,0 -9.702371,1.053877 -14.903035,3.6825662 -1.262854,0.638381 -2.486291,1.3707184 -3.638783,2.2027538 C 9.5833824,-3.679073 6.8401058,-0.382251 5.6466227,3.968449 9.0058229,2.484983 12.14903,1.25259 15.096212,0.28484 c 1.218184,-0.400359 2.402732,-0.75426 3.558376,-1.066404 12.532886,-3.38817 21.507921,-1.618137 29.764553,5.173861 3.041254,2.501848 5.986861,5.680705 8.976086,9.539699 0.20811,-0.928602 0.36577,-1.850417 0.467197,-2.759706 0.112986,-1.013684 0.160814,-2.013276 0.126124,-2.989899 z"
       style="fill:#2194cd" />
    <path
       inkscape:connector-curvature="0"
       id="path12"
       d="m 17.442729,4.761796 c -3.720965,2.077807 -7.6892603,4.819656 -12.0318074,8.229332 1.5608298,8.305739 7.3586544,17.32363 13.2193864,23.351451 2.374879,2.442864 6.638495,6.289598 10.774431,7.361743 0.76766,-2.342794 1.397458,-4.493977 1.905053,-6.481921 8.4e-5,-3.33e-4 -8.3e-5,-5.21e-4 0,-10e-4 0,0 0,-10e-4 0,-10e-4 0.04646,-0.749666 0.08278,-1.473521 0.10982,-2.173554 0,0 0,-10e-4 0,-10e-4 0.02706,-0.699985 0.04504,-1.376075 0.05338,-2.028789 0,0 0,-10e-4 0,-10e-4 0.0084,-0.652662 0.0075,-1.282394 -0.0021,-1.890135 0,0 0,-0.001 0,-0.001 -0.01918,-1.215743 -0.07356,-2.343804 -0.160123,-3.393885 0,0 0,-0.001 0,-0.001 -0.04325,-0.524819 -0.09497,-1.030043 -0.153966,-1.517003 0,0 0,-0.001 0,-0.001 -0.118049,-0.97417 -0.266839,-1.87508 -0.443417,-2.711845 -0.794788,-3.766381 -2.153193,-6.236158 -3.804973,-8.267056 0,0 0,-10e-4 0,-10e-4 -0.183556,-0.225667 -0.371007,-0.445639 -0.561456,-0.66165 C 25.966058,14.138462 25.572658,13.724027 25.168616,13.316511 24.360548,12.501503 23.511889,11.71606 22.646678,10.886044 22.213905,10.470872 21.777216,10.044607 21.339008,9.597407 21.120312,9.374245 20.90104,9.145942 20.682093,8.911285 c 0,0 -0.0011,-10e-4 -0.0011,-10e-4 C 20.02315,8.20519 19.366316,7.443209 18.719486,6.591959 18.288265,6.024463 17.861555,5.417964 17.442607,4.761977 Z"
       style="fill:#65c32f" />
    <path
       inkscape:connector-curvature="0"
       id="path14"
       d="m 12.958258,-6.1141393 c -0.210903,0.1522193 -0.419349,0.3069083 -0.625095,0.4659083 -0.383558,0.296406 -0.757453,0.606295 -1.120862,0.926718 -0.02613,0.02302 -0.05302,0.04515 -0.07903,0.06831 -3.6e-4,3.19e-4 -6.84e-4,5.22e-4 -0.0011,0.001 -0.775959,0.691054 -1.5024358,1.437767 -2.1637143,2.243903 -1.644e-4,1.97e-4 1.652e-4,10e-4 0,10e-4 -0.072364,0.08823 -0.1416702,0.179504 -0.2124709,0.269144 -0.2526601,0.3199 -0.4981417,0.646644 -0.7297915,0.984829 -0.1483572,0.216589 -0.2919345,0.436421 -0.4311001,0.660632 -1.513e-4,2.47e-4 1.513e-4,5.23e-4 0,0.001 -0.2781557,0.448192 -0.5382688,0.9124 -0.7770074,1.391608 -0.2043101,0.410104 -0.389476,0.833893 -0.5624831,1.267225 -0.029267,0.0733 -0.061994,0.144197 -0.090326,0.218171 -1.134e-4,2.99e-4 1.131e-4,5.23e-4 0,10e-4 C 6.0674937,2.641661 5.9755434,2.900756 5.889168,3.164184 5.82847,3.349299 5.7736574,3.53882 5.7187811,3.727963 c -0.023307,0.08032 -0.049616,0.158521 -0.07185,0.239579 -8.73e-5,3.18e-4 8.66e-5,5.21e-4 0,10e-4 C 9.0061312,2.485076 12.14906,1.252871 15.096242,0.285121 14.318032,-1.534256 13.596648,-3.640991 12.958189,-6.1142242 Z"
       style="fill:#465051" />
    <path
       inkscape:connector-curvature="0"
       id="path16"
       d="m 17.501059,-8.7351242 c -0.301306,0.1402552 -0.606678,0.2678803 -0.904389,0.4183589 -1.262853,0.638381 -2.486852,1.3691336 -3.639344,2.201169 -0.03364,0.02428 -0.06477,0.051829 -0.09806,0.076562 0.03315,-0.024147 0.06478,-0.04981 0.09806,-0.073827 0.638459,2.4732333 1.360177,4.5790543 2.138387,6.3984303 1.218183,-0.400359 2.40198,-0.754262 3.557622,-1.066405 0.07762,-0.02099 0.15148,-0.03683 0.228821,-0.05743 -0.856991,-2.510477 -1.306661,-5.144225 -1.381097,-7.8968594 z"
       style="opacity:0.2" />
    <path
       inkscape:connector-curvature="0"
       id="path18"
       d="m 29.448784,-1.451126 c -3.308287,0.0555 -6.878922,0.611898 -10.795449,1.670702 -1.15564,0.312143 -2.339439,0.666046 -3.557622,1.066405 0.738372,1.726186 1.52936,3.194178 2.34814,4.476165 0.418948,0.655988 0.843639,1.261799 1.27486,1.829295 0.646829,0.85125 1.303479,1.613652 1.961324,2.318747 h 0.0028 c 0.218947,0.234657 0.437802,0.463164 0.656498,0.686327 0.438208,0.4472 0.874776,0.875451 1.307549,1.290623 0.865211,0.830016 1.71441,1.613115 2.52248,2.428122 0.404038,0.407516 0.795892,0.823056 1.176793,1.255078 0.190448,0.216011 0.3776,0.43605 0.561156,0.661717 1.651779,2.030898 3.010724,4.502359 3.805512,8.268739 0.176578,0.836765 0.325972,1.738326 0.444021,2.712497 0.059,0.48696 0.112024,0.992757 0.155271,1.517576 0.08657,1.050081 0.138816,2.177611 0.157997,3.393354 v 0.0028 c 0.0096,0.60774 0.01116,1.236788 0.0028,1.889451 -0.0084,0.652714 -0.02742,1.328919 -0.05448,2.028904 v 0.0028 c -0.02706,0.700032 -0.0625,1.424158 -0.108969,2.173824 0.339536,-1.329233 0.613866,-2.570749 0.847183,-3.757026 0.07105,-0.361232 0.115385,-0.687598 0.177063,-1.036327 0.143521,-0.811222 0.278301,-1.610152 0.373196,-2.357028 0.04647,-0.36616 0.07368,-0.709437 0.10897,-1.060936 0.06651,-0.66139 0.121173,-1.307328 0.149823,-1.919529 0.03006,-0.644621 0.06113,-1.289772 0.05176,-1.883982 -1.4e-5,-8.83e-4 1.4e-5,-0.0018 0,-0.0028 0,0 0,-0.0028 0,-0.0028 -0.01171,-0.737428 -0.06004,-1.427803 -0.128035,-2.094528 -0.0091,-0.08861 -0.01727,-0.180536 -0.02724,-0.267968 -0.06554,-0.574224 -0.157186,-1.116556 -0.261509,-1.643358 -0.09688,-0.489144 -0.21568,-0.950108 -0.343231,-1.402733 -0.05463,-0.193917 -0.09808,-0.400124 -0.157995,-0.58789 -0.190682,-0.597543 -0.408601,-1.166725 -0.648327,-1.708982 -0.01425,-0.03224 -0.02372,-0.06912 -0.03813,-0.101178 0,0 0,-0.0028 0,-0.0028 -0.255974,-0.569266 -0.54201,-1.10636 -0.844459,-1.626952 -0.113977,-0.196206 -0.239777,-0.380971 -0.359575,-0.571484 -0.200922,-0.319483 -0.402658,-0.637336 -0.618363,-0.943358 -0.134353,-0.190647 -0.274604,-0.376865 -0.414057,-0.563281 -0.22912,-0.30623 -0.458911,-0.612992 -0.700083,-0.910544 -0.108007,-0.13328 -0.219497,-0.264454 -0.329611,-0.396485 C 27.479701,12.5801 26.774249,11.797456 26.054767,11.003863 25.821998,10.747095 25.600871,10.488105 25.365579,10.2273 24.629084,9.411024 23.88538,8.578313 23.153644,7.676133 c -4.45e-4,-5.49e-4 4.44e-4,-0.0022 0,-0.0028 C 22.71647,7.134311 22.282479,6.575992 21.859716,5.986224 21.436954,5.396471 21.024562,4.776924 20.625716,4.121383 21.299802,3.803742 21.9649,3.517049 22.625176,3.246384 22.796893,3.175994 22.96644,3.111257 23.137299,3.044041 23.625095,2.852152 24.110699,2.671365 24.591947,2.50537 24.800345,2.43348 25.008494,2.364597 25.215757,2.297558 25.665779,2.15202 26.113619,2.020991 26.558718,1.89834 26.7604,1.84276 26.962708,1.78242 27.16346,1.731543 c 0.598141,-0.151586 1.193365,-0.286601 1.784259,-0.396484 0.02522,-0.0046 0.05107,-0.01176 0.07628,-0.01641 0,0 0.0028,0 0.0028,0 0.711944,-0.130228 1.415527,-0.21746 2.11932,-0.287109 0.199852,-0.01981 0.399969,-0.03704 0.599292,-0.05195 0.701033,-0.05236 1.401419,-0.08734 2.097528,-0.0793 4.80901,0.05559 9.778882,0.976237 14.576442,4.492571 C 42.742948,0.723363 36.727261,-1.573364 29.44903,-1.451271 Z"
       style="opacity:0.2" />
    <path
       inkscape:connector-curvature="0"
       id="path20"
       d="m 29.448784,-2.451539 c -3.308287,0.0555 -6.878922,0.611898 -10.795449,1.670702 -1.15564,0.312143 -2.339439,0.666046 -3.557622,1.066405 0.738372,1.726186 1.52936,3.194178 2.34814,4.476165 0.418948,0.655988 0.843639,1.261799 1.27486,1.829295 0.646829,0.85125 1.303479,1.613652 1.961324,2.318747 h 0.0028 c 0.218947,0.234657 0.437802,0.463164 0.656498,0.686327 0.438208,0.4472 0.874776,0.875451 1.307549,1.290623 0.865211,0.830016 1.71441,1.613115 2.52248,2.428122 0.404038,0.407516 0.795892,0.823056 1.176793,1.255078 0.190448,0.216011 0.3776,0.43605 0.561156,0.661717 1.651779,2.030898 3.010724,4.502359 3.805512,8.268739 0.176578,0.836765 0.325972,1.738326 0.444021,2.712497 0.059,0.48696 0.112024,0.992757 0.155271,1.517576 0.08657,1.050081 0.138816,2.177611 0.157997,3.393354 v 0.0028 c 0.0096,0.60774 0.01116,1.236788 0.0028,1.889451 -0.0084,0.652714 -0.02742,1.328919 -0.05448,2.028904 v 0.0028 c -0.02706,0.700032 -0.0625,1.424158 -0.108969,2.173824 0.339536,-1.329233 0.613866,-2.570749 0.847183,-3.757026 0.07105,-0.361232 0.115385,-0.687598 0.177063,-1.036327 0.143521,-0.811222 0.278301,-1.610152 0.373196,-2.357028 0.04647,-0.36616 0.07368,-0.709437 0.10897,-1.060936 0.06651,-0.66139 0.121173,-1.307328 0.149823,-1.919529 0.03006,-0.644621 0.06113,-1.289772 0.05176,-1.883982 -1.4e-5,-8.83e-4 1.4e-5,-0.0018 0,-0.0028 0,0 0,-0.0028 0,-0.0028 -0.01171,-0.737428 -0.06004,-1.427803 -0.128035,-2.094528 -0.0091,-0.08861 -0.01727,-0.180536 -0.02724,-0.267968 -0.06554,-0.574224 -0.157186,-1.116556 -0.261509,-1.643358 -0.09688,-0.489144 -0.21568,-0.950108 -0.343231,-1.402733 -0.05463,-0.193917 -0.09808,-0.400124 -0.157995,-0.58789 -0.190682,-0.597543 -0.408601,-1.166725 -0.648327,-1.708982 -0.01425,-0.03224 -0.02372,-0.06912 -0.03813,-0.101178 0,0 0,-0.0028 0,-0.0028 -0.255974,-0.569266 -0.54201,-1.10636 -0.844459,-1.626952 -0.113977,-0.196206 -0.239777,-0.380971 -0.359575,-0.571484 -0.200922,-0.319483 -0.402658,-0.637336 -0.618363,-0.943358 -0.134353,-0.190647 -0.274604,-0.376865 -0.414057,-0.563281 -0.22912,-0.30623 -0.458911,-0.612992 -0.700083,-0.910544 -0.108007,-0.13328 -0.219497,-0.264454 -0.329611,-0.396485 C 27.479701,11.579687 26.774249,10.797043 26.054767,10.00345 25.821998,9.746682 25.600871,9.487692 25.365579,9.226887 24.629084,8.410611 23.88538,7.5779 23.153644,6.67572 c -4.45e-4,-5.49e-4 4.44e-4,-0.0022 0,-0.0028 -0.437174,-0.539022 -0.871165,-1.097341 -1.293928,-1.687109 -0.422762,-0.589753 -0.835154,-1.2093 -1.234,-1.864841 0.674086,-0.317641 1.339184,-0.604334 1.99946,-0.874999 0.171717,-0.07039 0.341264,-0.135127 0.512123,-0.202343 0.487796,-0.191889 0.9734,-0.372676 1.454648,-0.538671 0.208398,-0.07189 0.416547,-0.140773 0.62381,-0.207812 0.450022,-0.145538 0.897862,-0.276567 1.342961,-0.399218 0.201682,-0.05558 0.40399,-0.11592 0.604742,-0.166797 0.598141,-0.151586 1.193365,-0.286601 1.784259,-0.396484 0.02522,-0.0046 0.05107,-0.01176 0.07628,-0.01641 0,0 0.0028,0 0.0028,0 0.711944,-0.130228 1.415527,-0.21746 2.11932,-0.287109 0.199852,-0.01981 0.399969,-0.03704 0.599292,-0.05195 0.701033,-0.05236 1.401419,-0.08734 2.097528,-0.0793 4.80901,0.05559 9.778882,0.976237 14.576442,4.492571 C 42.742948,-0.27705 36.727261,-2.573777 29.44903,-2.451684 Z"
       style="fill:#ffffff" />
    <path
       inkscape:connector-curvature="0"
       id="path22"
       d="m 31.5,-12 c -3.657892,0 -9.035911,0.955783 -13.998047,3.265625 -0.301305,0.1402552 -0.606586,0.2674901 -0.904297,0.4179688 -1.262854,0.6383808 -2.488133,1.3691363 -3.640625,2.2011718 -0.03319,0.023955 -0.06459,0.050097 -0.09766,0.074219 -0.177416,0.1292074 -0.351678,0.2583334 -0.525391,0.3925774 -0.09656,0.07462 -0.187883,0.156141 -0.283203,0.232422 -0.197499,0.157676 -0.391973,0.320167 -0.583984,0.484375 -0.08384,0.07185 -0.173096,0.137964 -0.255859,0.210938 -0.02612,0.02302 -0.05212,0.0452 -0.07813,0.06836 -0.100364,0.08938 -0.194299,0.188048 -0.292968,0.279297 -0.181449,0.167828 -0.357833,0.339418 -0.533203,0.513672 -0.187235,0.185935 -0.3709246,0.375008 -0.5507816,0.568359 -0.183046,0.196894 -0.3602503,0.396879 -0.5351563,0.601563 -0.08177,0.09568 -0.1720571,0.183852 -0.2519531,0.28125 -0.07236,0.08823 -0.1401375,0.181844 -0.2109375,0.271484 -0.03345,0.04234 -0.062523,0.08827 -0.095703,0.13086 -0.12936,0.16679 -0.2551203,0.336133 -0.3789063,0.507812 -0.08424,0.115849 -0.1747214,0.227248 -0.2558593,0.345703 -0.148358,0.216589 -0.2924757,0.433992 -0.4316407,0.658203 v 0.0039 H 7.59375 C 7.315419,-0.041818 7.0552762,0.420909 6.8164062,0.900385 6.6120962,1.310489 6.4288674,1.732678 6.2558594,2.16601 6.2265994,2.23931 6.1943454,2.310785 6.1660154,2.38476 6.0682354,2.640112 5.9750477,2.900628 5.8886717,3.164056 5.8279717,3.34917 5.7736218,3.539367 5.7187498,3.72851 5.6954398,3.80883 5.6687138,3.887686 5.6464838,3.968744 5.2875458,5.277346 5.0647971,6.677289 5.0117182,8.181635 c -0.01429,0.406788 -0.012518,0.818311 0,1.232421 0.00172,-0.07704 -0.0027,-0.155653 0,-0.232421 C 5.0647972,7.677289 5.2875458,6.277346 5.6464838,4.968744 5.6687138,4.887684 5.6954398,4.80883 5.7187498,4.72851 5.7736218,4.539367 5.8279717,4.34917 5.8886717,4.164056 5.9750477,3.900629 6.0682354,3.640112 6.1660154,3.38476 6.1943454,3.31078 6.2265994,3.23931 6.2558594,3.16601 6.4288674,2.732678 6.6120962,2.310489 6.8164062,1.900385 7.0552762,1.420909 7.315419,0.958182 7.59375,0.50976 H 7.5957 V 0.50586 C 7.734865,0.281649 7.8789827,0.064246 8.0273407,-0.152343 8.1084787,-0.270798 8.19896,-0.382197 8.2832,-0.498046 c 0.123786,-0.171679 0.2495463,-0.341022 0.3789063,-0.507812 0.03318,-0.04259 0.062253,-0.08852 0.095703,-0.13086 0.0708,-0.08964 0.1385775,-0.183254 0.2109375,-0.271484 0.079896,-0.0974 0.1701831,-0.18557 0.2519531,-0.28125 0.174906,-0.204684 0.3521103,-0.404669 0.5351563,-0.601563 0.179857,-0.193351 0.3635468,-0.382424 0.5507818,-0.568359 0.17537,-0.174254 0.351754,-0.345844 0.533203,-0.513672 0.09867,-0.09125 0.192604,-0.189917 0.292968,-0.279297 0.02601,-0.02316 0.05201,-0.04534 0.07813,-0.06836 0.08276,-0.07297 0.172019,-0.139088 0.255859,-0.210938 0.192011,-0.164208 0.386485,-0.326699 0.583984,-0.484375 0.09532,-0.07628 0.186643,-0.157802 0.283203,-0.232422 0.173713,-0.134244 0.347975,-0.26337 0.525391,-0.392578 0.03307,-0.02413 0.06447,-0.05027 0.09766,-0.07422 1.152487,-0.832034 2.377766,-1.5627894 3.64062,-2.2011702 0.297711,-0.1504788 0.602992,-0.2777136 0.904297,-0.4179688 C 22.464089,-10.044217 27.842108,-11 31.5,-11 c 8.40122,0 25.908449,4.9225711 26.484375,20.128906 0.0051,-0.316682 0.015,-0.634823 0.0039,-0.947265 C 57.451724,-7.0669465 39.911134,-12 31.5,-12 Z"
       style="opacity:0.2;fill:#ffffff" />
  </g>
</svg>
