<?xml version="1.0" encoding="UTF-8" standalone="no"?>
<!-- Created with Inkscape (http://www.inkscape.org/) -->

<svg
   xmlns:dc="http://purl.org/dc/elements/1.1/"
   xmlns:cc="http://creativecommons.org/ns#"
   xmlns:rdf="http://www.w3.org/1999/02/22-rdf-syntax-ns#"
   xmlns:svg="http://www.w3.org/2000/svg"
   xmlns="http://www.w3.org/2000/svg"
   xmlns:sodipodi="http://sodipodi.sourceforge.net/DTD/sodipodi-0.dtd"
   xmlns:inkscape="http://www.inkscape.org/namespaces/inkscape"
   id="svg2"
   version="1.1"
   inkscape:version="0.92.4 (5da689c313, 2019-01-14)"
   width="48"
   height="48"
   sodipodi:docname="codeblocks.svg">
  <metadata
     id="metadata8">
    <rdf:RDF>
      <cc:Work
         rdf:about="">
        <dc:format>image/svg+xml</dc:format>
        <dc:type
           rdf:resource="http://purl.org/dc/dcmitype/StillImage" />
        <dc:title></dc:title>
      </cc:Work>
    </rdf:RDF>
  </metadata>
  <defs
     id="defs6" />
  <sodipodi:namedview
     pagecolor="#ffffff"
     bordercolor="#666666"
     borderopacity="1"
     objecttolerance="10"
     gridtolerance="10"
     guidetolerance="10"
     inkscape:pageopacity="0"
     inkscape:pageshadow="2"
     inkscape:window-width="1280"
     inkscape:window-height="954"
     id="namedview4"
     showgrid="false"
     inkscape:zoom="5.6568542"
     inkscape:cx="23.246675"
     inkscape:cy="33.724898"
     inkscape:window-x="0"
     inkscape:window-y="0"
     inkscape:window-maximized="1"
     inkscape:current-layer="svg2"
     showguides="true"
     inkscape:guide-bbox="true" />
  <g
     id="g3857"
     transform="matrix(0.10115817,0,0,0.10115817,-1.9599091,43.266495)">
    <path
       sodipodi:nodetypes="csccccsc"
       inkscape:connector-curvature="0"
       id="path3009"
       d="m 267.69385,14.05669 c -0.36324,-0.36532 0,-44.01304 0,-96.80587 V -179.25 l 98.59868,0.76772 99.31238,0.25389 c 0.0937,56.32653 -0.32317,192.41589 -0.32317,192.41589 0,0 -37.51195,0.0978 -121.11367,0.11403 -41.72689,0.008 -76.11098,0.1205 -76.47422,-0.24484 z"
       style="fill:#00bbf2;fill-opacity:1" />
    <path
       sodipodi:nodetypes="cccccccccc"
       inkscape:connector-curvature="0"
       id="path3025"
       d="m 48.008439,-275.37066 c 0.009,-64.34031 0.697754,-119.90345 0.697754,-119.90345 l 119.621067,0.46522 h 77.88972 v 98.73825 98.99243 H 147.1073 48.009344 l -9.39e-4,-78.29244 z"
       style="fill:#f03916;fill-opacity:1" />
    <path
       sodipodi:nodetypes="ccccscccc"
       inkscape:connector-curvature="0"
       id="path2986"
       d="m 267.94745,-295.90387 0.25359,-98.89304 73.63564,-0.27119 123.7848,0.10868 c 0,0 0.073,71.34059 -0.11966,123.21232 l 0.0681,74.66889 -99.10989,-0.18653 -98.76615,0.18653 z"
       style="fill:#45d03f;fill-opacity:1" />
    <path
       sodipodi:nodetypes="cscccsccc"
       inkscape:connector-curvature="0"
       id="path3009-2"
       d="m 246.21698,14.1875 c 0.36324,-0.36532 0,-52.29043 0,-97.16012 V -179.25 l -98.95413,0.41928 -99.312352,0.25389 -0.25412,73.04886 c -0.28078,80.72033 0.290746,119.71547 0.290746,119.71547 0.110536,0 88.643256,0.007 121.400186,0.0156 41.72688,0.008 76.46643,0.34975 76.82967,-0.0156 z"
       style="fill:#ffcc00;fill-opacity:1" />
  </g>
</svg>
