<?xml version="1.0" encoding="UTF-8" standalone="no"?>
<svg
   xmlns:dc="http://purl.org/dc/elements/1.1/"
   xmlns:cc="http://creativecommons.org/ns#"
   xmlns:rdf="http://www.w3.org/1999/02/22-rdf-syntax-ns#"
   xmlns:svg="http://www.w3.org/2000/svg"
   xmlns="http://www.w3.org/2000/svg"
   xmlns:sodipodi="http://sodipodi.sourceforge.net/DTD/sodipodi-0.dtd"
   xmlns:inkscape="http://www.inkscape.org/namespaces/inkscape"
   width="48"
   height="48"
   viewBox="0 0 48 48"
   version="1.1"
   id="svg9"
   sodipodi:docname="computerjanitor.svg"
   inkscape:version="0.92.4 (5da689c313, 2019-01-14)">
  <metadata
     id="metadata15">
    <rdf:RDF>
      <cc:Work
         rdf:about="">
        <dc:format>image/svg+xml</dc:format>
        <dc:type
           rdf:resource="http://purl.org/dc/dcmitype/StillImage" />
        <dc:title></dc:title>
      </cc:Work>
    </rdf:RDF>
  </metadata>
  <defs
     id="defs13" />
  <sodipodi:namedview
     pagecolor="#ffffff"
     bordercolor="#666666"
     borderopacity="1"
     objecttolerance="10"
     gridtolerance="10"
     guidetolerance="10"
     inkscape:pageopacity="0"
     inkscape:pageshadow="2"
     inkscape:window-width="1280"
     inkscape:window-height="954"
     id="namedview11"
     showgrid="false"
     inkscape:zoom="3.6875"
     inkscape:cx="27.254237"
     inkscape:cy="32"
     inkscape:window-x="0"
     inkscape:window-y="0"
     inkscape:window-maximized="1"
     inkscape:current-layer="svg9" />
  <g
     id="surface1"
     transform="matrix(0.75285534,0,0,0.75285534,0.09684295,-0.27958208)">
    <path
       style="fill:#ffa623;fill-opacity:1;fill-rule:nonzero;stroke:none"
       d="m 21.167969,37.542969 -6.425781,21.667969 c 1.4375,0.367187 2.890624,0.691406 4.367187,0.96875 L 21.167969,56.0625 v 4.472656 c 2.324219,0.363282 4.6875,0.609375 7.082031,0.730469 l 2.175781,-6.527344 1.105469,6.613281 c 0.07031,0 0.144531,0.0039 0.21875,0.0039 2.6875,0 5.335938,-0.15625 7.9375,-0.460938 V 56.0625 l 2.265625,4.53125 c 2.308594,-0.347656 4.578125,-0.8125 6.804687,-1.382812 L 42.332031,37.542969 Z m 0,0"
       id="path2"
       inkscape:connector-curvature="0" />
    <path
       style="fill:#ff6e42;fill-opacity:1;fill-rule:nonzero;stroke:none"
       d="m 31.75,3.144531 c 1.460938,0 2.644531,1.1875 2.644531,2.648438 v 29.101562 c 0,1.460938 -1.183593,2.648438 -2.644531,2.648438 -1.460938,0 -2.644531,-1.1875 -2.644531,-2.648438 V 5.792969 c 0,-1.460938 1.183593,-2.648438 2.644531,-2.648438 z m 0,0"
       id="path4"
       inkscape:connector-curvature="0" />
    <path
       style="fill:#ab45ba;fill-opacity:1;fill-rule:nonzero;stroke:none"
       d="m 31.75,26.957031 c -5.863281,0 -10.582031,4.722657 -10.582031,10.585938 h 21.164062 c 0,-5.863281 -4.71875,-10.585938 -10.582031,-10.585938 z m 0,0"
       id="path6"
       inkscape:connector-curvature="0" />
  </g>
</svg>
