<?xml version="1.0" encoding="UTF-8" standalone="no"?>
<svg
   xmlns:dc="http://purl.org/dc/elements/1.1/"
   xmlns:cc="http://creativecommons.org/ns#"
   xmlns:rdf="http://www.w3.org/1999/02/22-rdf-syntax-ns#"
   xmlns:svg="http://www.w3.org/2000/svg"
   xmlns="http://www.w3.org/2000/svg"
   xmlns:sodipodi="http://sodipodi.sourceforge.net/DTD/sodipodi-0.dtd"
   xmlns:inkscape="http://www.inkscape.org/namespaces/inkscape"
   width="48"
   height="48"
   viewBox="0 0 48 48"
   version="1.1"
   id="svg19"
   sodipodi:docname="darktable.svg"
   inkscape:version="0.92.4 (5da689c313, 2019-01-14)">
  <metadata
     id="metadata25">
    <rdf:RDF>
      <cc:Work
         rdf:about="">
        <dc:format>image/svg+xml</dc:format>
        <dc:type
           rdf:resource="http://purl.org/dc/dcmitype/StillImage" />
        <dc:title></dc:title>
      </cc:Work>
    </rdf:RDF>
  </metadata>
  <defs
     id="defs23" />
  <sodipodi:namedview
     pagecolor="#ffffff"
     bordercolor="#666666"
     borderopacity="1"
     objecttolerance="10"
     gridtolerance="10"
     guidetolerance="10"
     inkscape:pageopacity="0"
     inkscape:pageshadow="2"
     inkscape:window-width="1280"
     inkscape:window-height="954"
     id="namedview21"
     showgrid="false"
     inkscape:zoom="3.6875"
     inkscape:cx="27.254237"
     inkscape:cy="32"
     inkscape:window-x="0"
     inkscape:window-y="0"
     inkscape:window-maximized="1"
     inkscape:current-layer="svg19" />
  <g
     id="surface1"
     transform="matrix(0.72513757,0,0,0.72513757,0.93581,0.61431337)">
    <path
       style="fill:#3f3f3f;fill-opacity:0.97887304;fill-rule:nonzero;stroke:none"
       d="m 31.714844,6.207031 c 13.527344,0 24.492187,11.652344 24.492187,26.027344 0,14.375 -10.964843,26.027344 -24.492187,26.027344 -13.53125,0 -24.496094,-11.652344 -24.496094,-26.027344 0,-14.375 10.964844,-26.027344 24.496094,-26.027344 z m 0,0"
       id="path2"
       inkscape:connector-curvature="0" />
    <path
       style="fill:#ee514f;fill-opacity:1;fill-rule:nonzero;stroke:none"
       d="M 31.582031,3.144531 C 22.46875,3.183594 14.375,7.371094 9.074219,13.925781 l 15.472656,15.472657 z m 0,0"
       id="path4"
       inkscape:connector-curvature="0" />
    <path
       style="fill:#ff6e42;fill-opacity:1;fill-rule:nonzero;stroke:none"
       d="m 36.304688,3.492188 -5.660157,21.121093 26.28125,-7.042969 C 52.613281,10.164062 45.128906,4.863281 36.304688,3.492188 Z m 0,0"
       id="path6"
       inkscape:connector-curvature="0" />
    <path
       style="fill:#ffa623;fill-opacity:1;fill-rule:nonzero;stroke:none"
       d="M 58.925781,21.78125 37.792969,27.445312 57.03125,46.6875 c 2.425781,-4.253906 3.816406,-9.1875 3.816406,-14.453125 0,-3.683594 -0.679687,-7.210937 -1.921875,-10.453125 z m 0,0"
       id="path8"
       inkscape:connector-curvature="0" />
    <path
       style="fill:#66ba68;fill-opacity:1;fill-rule:nonzero;stroke:none"
       d="m 31.925781,61.355469 c 9.113281,-0.03906 17.207031,-4.226563 22.507813,-10.78125 L 38.960938,35.101562 Z m 0,0"
       id="path10"
       inkscape:connector-curvature="0" />
    <path
       style="fill:#28b5f5;fill-opacity:1;fill-rule:nonzero;stroke:none"
       d="m 27.203125,61.007812 5.65625,-21.117187 -26.28125,7.039063 c 4.3125,7.40625 11.800781,12.710937 20.625,14.078124 z m 0,0"
       id="path12"
       inkscape:connector-curvature="0" />
    <path
       style="fill:#7d57c2;fill-opacity:1;fill-rule:nonzero;stroke:none"
       d="M 4.6875,42.71875 25.820312,37.054688 6.578125,17.820312 C 4.152344,22.066406 2.765625,27 2.765625,32.265625 c 0,3.6875 0.675781,7.210937 1.921875,10.453125 z m 0,0"
       id="path14"
       inkscape:connector-curvature="0" />
    <path
       style="fill:#eeeeee;fill-opacity:1;fill-rule:nonzero;stroke:none"
       d="m 31.714844,26.957031 c 2.90625,0 5.273437,2.363281 5.273437,5.277344 0,2.914063 -2.367187,5.277344 -5.273437,5.277344 -2.917969,0 -5.277344,-2.363281 -5.277344,-5.277344 0,-2.914063 2.359375,-5.277344 5.277344,-5.277344 z m 0,0"
       id="path16"
       inkscape:connector-curvature="0" />
  </g>
</svg>
