<?xml version="1.0" encoding="UTF-8" standalone="no"?>
<svg
   xmlns:dc="http://purl.org/dc/elements/1.1/"
   xmlns:cc="http://creativecommons.org/ns#"
   xmlns:rdf="http://www.w3.org/1999/02/22-rdf-syntax-ns#"
   xmlns:svg="http://www.w3.org/2000/svg"
   xmlns="http://www.w3.org/2000/svg"
   xmlns:sodipodi="http://sodipodi.sourceforge.net/DTD/sodipodi-0.dtd"
   xmlns:inkscape="http://www.inkscape.org/namespaces/inkscape"
   width="48"
   height="48"
   viewBox="0 0 48 48"
   version="1.1"
   id="svg11"
   sodipodi:docname="eclipse.svg"
   inkscape:version="0.92.4 (5da689c313, 2019-01-14)">
  <metadata
     id="metadata17">
    <rdf:RDF>
      <cc:Work
         rdf:about="">
        <dc:format>image/svg+xml</dc:format>
        <dc:type
           rdf:resource="http://purl.org/dc/dcmitype/StillImage" />
        <dc:title></dc:title>
      </cc:Work>
    </rdf:RDF>
  </metadata>
  <defs
     id="defs15" />
  <sodipodi:namedview
     pagecolor="#ffffff"
     bordercolor="#666666"
     borderopacity="1"
     objecttolerance="10"
     gridtolerance="10"
     guidetolerance="10"
     inkscape:pageopacity="0"
     inkscape:pageshadow="2"
     inkscape:window-width="1280"
     inkscape:window-height="954"
     id="namedview13"
     showgrid="false"
     inkscape:zoom="3.6875"
     inkscape:cx="27.254237"
     inkscape:cy="32"
     inkscape:window-x="0"
     inkscape:window-y="0"
     inkscape:window-maximized="1"
     inkscape:current-layer="svg11" />
  <g
     id="surface1"
     transform="matrix(0.72979625,0,0,0.72979625,0.82896797,0.46407094)">
    <path
       style="fill:#ff6e42;fill-opacity:1;fill-rule:nonzero;stroke:none"
       d="m 30.425781,3.144531 c -15.390625,0 -27.78125,12.390625 -27.78125,27.78125 0,6.285157 2.066407,12.070313 5.558594,16.714844 -1.867187,-3.847656 -2.910156,-8.167969 -2.910156,-12.746094 0,-16.121093 12.980469,-29.101562 29.101562,-29.101562 4.578125,0 8.898438,1.042969 12.746094,2.910156 C 42.496094,5.210938 36.710938,3.144531 30.425781,3.144531 Z m 0,0"
       id="path2"
       inkscape:connector-curvature="0" />
    <path
       style="fill:#7d57c2;fill-opacity:1;fill-rule:nonzero;stroke:none"
       d="m 34.394531,8.4375 c 14.613281,0 26.460938,11.847656 26.460938,26.457031 0,14.613281 -11.847657,26.460938 -26.460938,26.460938 C 19.785156,61.355469 7.9375,49.507812 7.9375,34.894531 7.9375,20.285156 19.785156,8.4375 34.394531,8.4375 Z m 0,0"
       id="path4"
       inkscape:connector-curvature="0" />
    <path
       style="fill:#eeeeee;fill-opacity:1;fill-rule:nonzero;stroke:none"
       d="m 9.140625,26.957031 c -0.269531,0.863281 -0.496094,1.746094 -0.679687,2.648438 h 51.867187 c -0.179687,-0.902344 -0.40625,-1.785157 -0.675781,-2.648438 z M 7.96875,33.574219 c -0.019531,0.4375 -0.03125,0.878906 -0.03125,1.320312 0,0.445313 0.011719,0.886719 0.03125,1.324219 h 52.851562 c 0.02344,-0.4375 0.03516,-0.878906 0.03516,-1.324219 0,-0.441406 -0.01172,-0.882812 -0.03516,-1.320312 z M 8.460938,40.1875 c 0.183593,0.898438 0.410156,1.78125 0.679687,2.644531 h 50.511719 c 0.269531,-0.863281 0.496094,-1.746093 0.675781,-2.644531 z m 0,0"
       id="path6"
       inkscape:connector-curvature="0" />
    <path
       style="fill:#9473cc;fill-opacity:1;fill-rule:nonzero;stroke:none"
       d="m 25.289062,13.882812 c 0.644532,0.644532 -0.507812,2.84375 -2.574218,4.910157 -2.066406,2.066406 -4.261719,3.21875 -4.910156,2.574219 -0.644532,-0.648438 0.507812,-2.84375 2.574218,-4.910157 2.066406,-2.066406 4.265625,-3.21875 4.910156,-2.574219 z m 0,0"
       id="path8"
       inkscape:connector-curvature="0" />
  </g>
</svg>
