<?xml version="1.0" encoding="UTF-8" standalone="no"?>
<svg
   xmlns:dc="http://purl.org/dc/elements/1.1/"
   xmlns:cc="http://creativecommons.org/ns#"
   xmlns:rdf="http://www.w3.org/1999/02/22-rdf-syntax-ns#"
   xmlns:svg="http://www.w3.org/2000/svg"
   xmlns="http://www.w3.org/2000/svg"
   xmlns:sodipodi="http://sodipodi.sourceforge.net/DTD/sodipodi-0.dtd"
   xmlns:inkscape="http://www.inkscape.org/namespaces/inkscape"
   width="48"
   height="48"
   viewBox="0 0 48 48"
   version="1.1"
   id="svg11"
   sodipodi:docname="falkon.svg"
   inkscape:version="0.92.4 (5da689c313, 2019-01-14)">
  <metadata
     id="metadata17">
    <rdf:RDF>
      <cc:Work
         rdf:about="">
        <dc:format>image/svg+xml</dc:format>
        <dc:type
           rdf:resource="http://purl.org/dc/dcmitype/StillImage" />
        <dc:title></dc:title>
      </cc:Work>
    </rdf:RDF>
  </metadata>
  <defs
     id="defs15" />
  <sodipodi:namedview
     pagecolor="#ffffff"
     bordercolor="#666666"
     borderopacity="1"
     objecttolerance="10"
     gridtolerance="10"
     guidetolerance="10"
     inkscape:pageopacity="0"
     inkscape:pageshadow="2"
     inkscape:window-width="1280"
     inkscape:window-height="954"
     id="namedview13"
     showgrid="false"
     inkscape:zoom="3.6875"
     inkscape:cx="112.54237"
     inkscape:cy="32"
     inkscape:window-x="0"
     inkscape:window-y="0"
     inkscape:window-maximized="1"
     inkscape:current-layer="svg11" />
  <g
     id="surface1"
     transform="matrix(0.72047888,0,0,0.72047888,1.1247956,0.76455612)">
    <path
       style="fill:#7d57c2;fill-opacity:1;fill-rule:nonzero;stroke:none"
       d="m 31.75,3.144531 c 16.074219,0 29.105469,13.03125 29.105469,29.105469 0,16.074219 -13.03125,29.105469 -29.105469,29.105469 C 15.675781,61.355469 2.644531,48.324219 2.644531,32.25 2.644531,16.175781 15.675781,3.144531 31.75,3.144531 Z m 0,0"
       id="path2"
       inkscape:connector-curvature="0" />
    <path
       style="fill:#eeeeee;fill-opacity:1;fill-rule:evenodd;stroke:none"
       d="m 28.144531,16.820312 c -3.855469,0.0078 -7.722656,0.773438 -11.285156,2.269532 2.886719,0.339844 5.984375,0.335937 8.609375,1.707031 -1.601562,0.105469 -5.417969,0.207031 -7.242188,2.132813 -4.613281,3.882812 -6.582031,9.992187 -7.519531,15.757812 -0.125,0.988281 -0.511719,2.945312 0.535157,1.128906 1.613281,-1.875 3.050781,-4.003906 5.097656,-5.425781 1.988281,-0.199219 -1.089844,2.207031 -1.226563,3.335937 -2.339843,4.4375 -3.027343,9.507813 -3.898437,14.390626 0.0039,0.238281 -0.01563,0.488281 -0.05078,0.746093 5.261719,5.25 12.53125,8.492188 20.585938,8.492188 7.234375,0 13.832031,-2.613281 18.914062,-6.949219 C 46.632812,52.335938 43.089844,49.125 41.894531,44.664062 41.09375,41.910156 41.46875,38.484375 44,36.75 c 3.355469,-2.621094 7.808594,-2.425781 11.832031,-2.378906 1.203125,-0.703125 -0.785156,-3.5625 -1.703125,-4.667969 -1.863281,-2.125 -4.503906,-3.457031 -7.246094,-4.027344 -3.066406,-3.121093 -6.488281,-6.082031 -10.703124,-7.519531 -2.449219,-0.894531 -5.058594,-1.328125 -7.664063,-1.335938 -0.125,0 -0.246094,0 -0.371094,0 z m 0,0"
       id="path4"
       inkscape:connector-curvature="0" />
    <path
       style="fill:#ffa623;fill-opacity:1;fill-rule:evenodd;stroke:none"
       d="m 20.25,18.761719 c -1.546875,0.0039 -2.957031,0.101562 -3.746094,0.359375 0,0 6.976563,0.347656 8.960938,1.671875 0.664062,-0.332031 1.65625,-1.324219 1.730468,-1.464844 C 26.652344,19.101562 23.207031,18.757812 20.25,18.761719 Z m -3.746094,0.359375 c 0,0 -0.0039,0 -0.0039,0 0,0 0.0039,0 0.0039,0 z m 19.386719,10.710937 c 0,0 -23.488281,1.003907 -25.355469,7.285157 -0.613281,2.527343 -0.28125,4.226562 -0.28125,4.226562 0,0 9.300782,-10.351562 25.636719,-11.511719 z M 45.425781,34.25 c -6.59375,-0.0039 -27.089843,2.808594 -38.460937,20.820312 0.640625,3.425782 1.964844,6.070313 1.964844,6.070313 0,0 13.789062,-25.714844 39.707031,-26.691406 0,0 -1.191407,-0.199219 -3.210938,-0.199219 z m 0,0"
       id="path6"
       inkscape:connector-curvature="0" />
    <path
       style="fill:#3f3f3f;fill-opacity:1;fill-rule:evenodd;stroke:none"
       d="M 38.589844,23.335938 C 37.546875,23.371094 36.75,23.65625 36.75,23.65625 l -0.1875,0.0625 0.03516,0.195312 c 0,0 0.210938,1.132813 1.125,2.191407 0.917969,1.058593 2.566406,2.042969 5.335938,1.789062 l 0.238281,-0.02344 -0.03125,-0.234375 C 43.082031,26.167969 42.585938,25.164062 41.929688,24.5 c -0.65625,-0.664062 -1.460938,-0.976562 -2.230469,-1.101562 -0.382813,-0.0625 -0.757813,-0.07422 -1.109375,-0.0625 z m 0,0"
       id="path8"
       inkscape:connector-curvature="0" />
  </g>
</svg>
