<?xml version="1.0" encoding="UTF-8" standalone="no"?>
<svg
   xmlns:dc="http://purl.org/dc/elements/1.1/"
   xmlns:cc="http://creativecommons.org/ns#"
   xmlns:rdf="http://www.w3.org/1999/02/22-rdf-syntax-ns#"
   xmlns:svg="http://www.w3.org/2000/svg"
   xmlns="http://www.w3.org/2000/svg"
   xmlns:sodipodi="http://sodipodi.sourceforge.net/DTD/sodipodi-0.dtd"
   xmlns:inkscape="http://www.inkscape.org/namespaces/inkscape"
   width="48"
   height="48"
   viewBox="0 0 48 48"
   version="1.1"
   id="svg9"
   sodipodi:docname="filezilla.svg"
   inkscape:version="0.92.4 (5da689c313, 2019-01-14)">
  <metadata
     id="metadata15">
    <rdf:RDF>
      <cc:Work
         rdf:about="">
        <dc:format>image/svg+xml</dc:format>
        <dc:type
           rdf:resource="http://purl.org/dc/dcmitype/StillImage" />
        <dc:title />
      </cc:Work>
    </rdf:RDF>
  </metadata>
  <defs
     id="defs13">
    <clipPath
       id="clipPath-411038796">
      <g
         transform="translate(0,-1004.3622)"
         id="g17">
        <path
           d="m -24,13 c 0,1.105 -0.672,2 -1.5,2 -0.828,0 -1.5,-0.895 -1.5,-2 0,-1.105 0.672,-2 1.5,-2 0.828,0 1.5,0.895 1.5,2 z"
           transform="matrix(15.333333,0,0,11.5,414.99999,878.8622)"
           id="path19"
           inkscape:connector-curvature="0"
           style="fill:#1890d0" />
      </g>
    </clipPath>
  </defs>
  <sodipodi:namedview
     pagecolor="#ffffff"
     bordercolor="#666666"
     borderopacity="1"
     objecttolerance="10"
     gridtolerance="10"
     guidetolerance="10"
     inkscape:pageopacity="0"
     inkscape:pageshadow="2"
     inkscape:window-width="1280"
     inkscape:window-height="954"
     id="namedview11"
     showgrid="false"
     inkscape:zoom="5.2149125"
     inkscape:cx="37.900985"
     inkscape:cy="46.798249"
     inkscape:window-x="0"
     inkscape:window-y="0"
     inkscape:window-maximized="1"
     inkscape:current-layer="svg9" />
  <path
     inkscape:connector-curvature="0"
     id="path2"
     d="m 4.3219914,2.3521581 c -1.0924155,0 -1.9698348,0.8774193 -1.9698348,1.9698348 v 0.049391 L 2.9041755,4.923402 c 0.3864128,0.3835084 0.5781662,0.8861356 0.5781662,1.3887628 0,0.5055331 -0.1917534,1.0081603 -0.5781662,1.3916679 L 2.3521566,8.2558508 v 1.9698352 l 0.5520189,0.552018 c 0.7728255,0.76992 0.7728255,2.010509 0,2.78043 l -0.5520189,0.552019 v 2.019225 l 0.5520189,0.552018 c 0.7728255,0.769921 0.7728255,2.01051 0,2.780431 l -0.5520189,0.552018 v 2.019226 l 0.5520189,0.552018 c 0.7728255,0.769921 0.7728255,2.01051 0,2.780431 l -0.5520189,0.552018 v 2.118008 l 0.5520189,0.552019 c 0.7728255,0.76992 0.7728255,2.010509 0,2.780429 l -0.5520189,0.552019 v 2.019225 l 0.5520189,0.552019 c 0.7728255,0.769921 0.7728255,2.01051 0,2.78043 l -0.5520189,0.552019 v 2.019225 l 0.5520189,0.552019 c 0.7728255,0.76992 0.7728255,2.010509 0,2.78043 l -0.549113,0.552019 c 0.023243,1.069172 0.8919452,1.920443 1.9669289,1.920443 h 0.098782 l 0.4764792,-0.479384 c 0.3864135,-0.383509 0.8890407,-0.578167 1.3916679,-0.578167 0.5026272,0 1.0052544,0.194658 1.3916679,0.578167 l 0.4764791,0.479384 h 2.1180075 l 0.476479,-0.479384 c 0.769921,-0.769922 2.013415,-0.769922 2.783336,0 l 0.476478,0.479384 h 2.1674 l 0.476479,-0.479384 c 0.76992,-0.769922 2.013415,-0.769922 2.783336,0 l 0.476478,0.479384 h 2.1674 l 0.476479,-0.479384 c 0.76992,-0.769922 2.013414,-0.769922 2.783335,0 l 0.476479,0.479384 h 2.266182 l 0.476478,-0.479384 c 0.769921,-0.769922 2.013416,-0.769922 2.783336,0 l 0.476479,0.479384 h 2.1674 l 0.476478,-0.479384 c 0.769921,-0.769922 2.013415,-0.769922 2.783336,0 l 0.476479,0.479384 h 2.167399 L 40.3688,45.168458 c 0.769921,-0.769922 2.013415,-0.769922 2.783335,0 l 0.47648,0.479384 h 0.04939 c 1.092415,0 1.969834,-0.877419 1.969834,-1.969835 l -0.50263,-0.502627 c -0.772826,-0.769921 -0.772826,-2.01051 0,-2.78043 l 0.502627,-0.502627 v -2.118009 l -0.502627,-0.502627 c -0.772826,-0.76992 -0.772826,-2.010509 0,-2.78043 L 45.64784,33.98863 v -2.118008 l -0.502627,-0.502628 c -0.772826,-0.76992 -0.772826,-2.010509 0,-2.780429 l 0.502627,-0.502628 v -2.21679 L 45.145213,25.36552 c -0.772826,-0.769921 -0.772826,-2.01051 0,-2.780431 l 0.502627,-0.502627 v -2.118008 l -0.502627,-0.502627 c -0.772826,-0.769921 -0.772826,-2.01051 0,-2.780431 l 0.502627,-0.502627 v -2.118007 l -0.502627,-0.502628 c -0.772826,-0.769921 -0.772826,-2.01051 0,-2.78043 L 45.64784,10.275077 V 8.2064599 L 45.145213,7.7038327 c -0.772826,-0.7699204 -0.772826,-2.0105096 0,-2.7804307 L 45.64784,4.4207748 v -0.098782 c 0,-1.0749838 -0.85127,-1.943686 -1.920443,-1.9669289 l -0.575262,0.575261 c -0.76992,0.7699204 -2.013414,0.7699204 -2.783335,0 L 39.793539,2.3521581 H 37.823705 L 37.248443,2.930325 c -0.769921,0.7699204 -2.013415,0.7699204 -2.783336,0 L 33.889846,2.3521581 H 31.920012 L 31.34475,2.930325 c -0.76992,0.7699204 -2.013415,0.7699204 -2.783336,0 L 27.986153,2.3521581 H 25.917536 L 25.342275,2.930325 c -0.769921,0.7699204 -2.013415,0.7699204 -2.783335,0 L 21.983678,2.3521581 H 20.013844 L 19.438583,2.930325 c -0.769921,0.7699204 -2.013416,0.7699204 -2.783336,0 L 16.079985,2.3521581 H 14.110151 L 13.53489,2.930325 c -0.769921,0.7699204 -2.013415,0.7699204 -2.783336,0 L 10.176292,2.3521581 H 8.2558493 L 7.6805883,2.930325 c -0.7699204,0.7699204 -2.0134155,0.7699204 -2.7833358,0 z m 0,0"
     style="fill:#e33833;fill-opacity:1;fill-rule:nonzero;stroke:none;stroke-width:0.74377233" />
  <path
     inkscape:connector-curvature="0"
     id="path4"
     d="m 7.0036395,5.3040044 c -0.9413376,0 -1.6996365,0.758299 -1.6996365,1.6996365 v 0.04358 L 5.7804821,7.5237 c 0.3341166,0.3341167 0.499722,0.7670152 0.499722,1.2028197 0,0.4328985 -0.1656054,0.8687022 -0.499722,1.1999137 L 5.304003,10.402912 v 1.699636 l 0.4764791,0.476479 c 0.6653281,0.665328 0.6653281,1.737406 0,2.402734 L 5.304003,15.45824 v 1.743216 l 0.4764791,0.476479 c 0.6653281,0.665328 0.6653281,1.737406 0,2.402734 L 5.304003,20.557148 v 1.743216 l 0.4764791,0.476479 c 0.6653281,0.665328 0.6653281,1.737406 0,2.402734 L 5.304003,25.656055 v 1.827473 l 0.4764791,0.476479 c 0.6653281,0.665327 0.6653281,1.737405 0,2.405638 L 5.304003,30.842124 v 1.740311 l 0.4764791,0.47648 c 0.6653281,0.665327 0.6653281,1.737405 0,2.402732 L 5.304003,35.938126 v 1.743217 l 0.4764791,0.476479 c 0.6653281,0.665328 0.6653281,1.737406 0,2.402733 l -0.4735732,0.476479 c 0.020337,0.923906 0.7699203,1.658962 1.6967306,1.658962 h 0.08716 l 0.4125608,-0.412562 c 0.3312115,-0.334117 0.7670152,-0.499722 1.1999145,-0.499722 0.4358037,0 0.8687023,0.165605 1.2028189,0.499722 l 0.4125623,0.412562 h 1.827471 l 0.412562,-0.412562 c 0.665327,-0.665327 1.737405,-0.665327 2.402733,0 l 0.412561,0.412562 h 1.871052 l 0.412561,-0.412562 c 0.665328,-0.665327 1.737406,-0.665327 2.402734,0 l 0.41256,0.412562 h 1.871053 l 0.412561,-0.412562 c 0.665328,-0.665327 1.737405,-0.665327 2.402734,0 l 0.41256,0.412562 h 1.955309 l 0.41256,-0.412562 c 0.665328,-0.665327 1.737406,-0.665327 2.402734,0 l 0.412561,0.412562 h 1.871052 l 0.412561,-0.412562 c 0.665328,-0.665327 1.737406,-0.665327 2.402733,0 l 0.412562,0.412562 h 1.871052 l 0.412561,-0.412562 c 0.665328,-0.665327 1.737406,-0.665327 2.402733,0 l 0.412562,0.412562 h 0.04358 c 0.941338,0 1.699637,-0.758299 1.699637,-1.699637 L 42.26019,40.560555 c -0.665327,-0.665327 -0.665327,-1.737405 0,-2.402733 l 0.435805,-0.432899 V 35.897452 L 42.26019,35.461647 c -0.665327,-0.665327 -0.665327,-1.737405 0,-2.402732 l 0.435805,-0.4329 V 30.798544 L 42.26019,30.365645 c -0.665327,-0.668233 -0.665327,-1.740311 0,-2.405638 l 0.435805,-0.432899 V 25.61538 L 42.26019,25.179577 c -0.665327,-0.665328 -0.665327,-1.737406 0,-2.402734 l 0.435805,-0.432898 V 20.516472 L 42.26019,20.080669 c -0.665327,-0.665328 -0.665327,-1.737406 0,-2.402734 l 0.435805,-0.432898 V 15.417565 L 42.26019,14.981761 c -0.665328,-0.665328 -0.665328,-1.737406 0,-2.402734 l 0.435804,-0.432898 V 10.362237 L 42.26019,9.9264333 c -0.665328,-0.6653274 -0.665328,-1.7374052 0,-2.4027334 l 0.435804,-0.4328985 v -0.087161 c 0,-0.9268102 -0.735056,-1.6763936 -1.658961,-1.6967305 L 40.540216,5.803726 c -0.665327,0.6653281 -1.737405,0.6653281 -2.402733,0 L 37.637761,5.3040044 h -1.699636 l -0.496817,0.4997221 c -0.665327,0.6653281 -1.737405,0.6653281 -2.402733,0 L 32.541759,5.3040044 h -1.699636 l -0.499722,0.4997221 c -0.665328,0.6653281 -1.737406,0.6653281 -2.402734,0 L 27.442851,5.3040044 h -1.786797 l -0.496816,0.4997221 c -0.665329,0.6653281 -1.737406,0.6653281 -2.402734,0 L 22.256782,5.3040044 H 20.557146 L 20.06033,5.8037265 c -0.665328,0.6653281 -1.737406,0.6653281 -2.402734,0 L 17.157874,5.3040044 h -1.699636 l -0.496816,0.4997221 c -0.665328,0.6653281 -1.737406,0.6653281 -2.402733,0 L 12.061872,5.3040044 H 10.402911 L 9.9060941,5.8037265 c -0.6653274,0.6653281 -1.7374052,0.6653281 -2.4027334,0 z m 0,0"
     style="fill:#ee514f;fill-opacity:1;fill-rule:nonzero;stroke:none;stroke-width:0.74377233" />
  <g
     id="g47"
     transform="matrix(1.0677938,0,0,1.0677938,-1.6233139,-1.6190427)">
    <g
       clip-path="url(#clipPath-411038796)"
       id="g49">
      <!-- color: #bb0000 -->
      <g
         id="g51">
        <path
           d="M 16.867,12 12,33.578 h 3.953 l 2.293,-9.656 h 10.793 l -10.11,9.04 2.633,3.03 1.348,-0.695 c 2.551,-1.309 3.621,-0.543 5.555,-0.008 1.883,0.52 3.656,1.078 7.328,-1.035 l -0.73,-3.734 c -4,2.848 -5.273,0.309 -8.129,0.203 l 8.172,-6.914 0.887,-3.695 h -17.12 l 1.105,-4.426 h 11.223 l 0.773,-3.695 h -15.11 m 0.008,0.004"
           id="path53"
           inkscape:connector-curvature="0"
           style="fill:#ffffff;fill-opacity:1;fill-rule:nonzero;stroke:none" />
      </g>
    </g>
  </g>
</svg>
