<?xml version="1.0" encoding="UTF-8" standalone="no"?>
<svg
   xmlns:dc="http://purl.org/dc/elements/1.1/"
   xmlns:cc="http://creativecommons.org/ns#"
   xmlns:rdf="http://www.w3.org/1999/02/22-rdf-syntax-ns#"
   xmlns:svg="http://www.w3.org/2000/svg"
   xmlns="http://www.w3.org/2000/svg"
   xmlns:sodipodi="http://sodipodi.sourceforge.net/DTD/sodipodi-0.dtd"
   xmlns:inkscape="http://www.inkscape.org/namespaces/inkscape"
   width="48"
   height="48"
   viewBox="0 0 48 48"
   version="1.1"
   id="svg11"
   sodipodi:docname="filelight.svg"
   inkscape:version="0.92.4 (5da689c313, 2019-01-14)">
  <metadata
     id="metadata17">
    <rdf:RDF>
      <cc:Work
         rdf:about="">
        <dc:format>image/svg+xml</dc:format>
        <dc:type
           rdf:resource="http://purl.org/dc/dcmitype/StillImage" />
        <dc:title></dc:title>
      </cc:Work>
    </rdf:RDF>
  </metadata>
  <defs
     id="defs15" />
  <sodipodi:namedview
     pagecolor="#ffffff"
     bordercolor="#666666"
     borderopacity="1"
     objecttolerance="10"
     gridtolerance="10"
     guidetolerance="10"
     inkscape:pageopacity="0"
     inkscape:pageshadow="2"
     inkscape:window-width="1280"
     inkscape:window-height="954"
     id="namedview13"
     showgrid="false"
     inkscape:zoom="3.6875"
     inkscape:cx="27.254237"
     inkscape:cy="32"
     inkscape:window-x="0"
     inkscape:window-y="0"
     inkscape:window-maximized="1"
     inkscape:current-layer="svg11" />
  <g
     id="surface1"
     transform="matrix(0.73911362,0,0,0.73911362,0.53314257,0.16358575)">
    <path
       style="fill:#3f3f3f;fill-opacity:1;fill-rule:nonzero;stroke:none"
       d="m 31.75,4.46875 c 15.34375,0 27.78125,12.4375 27.78125,27.78125 0,15.34375 -12.4375,27.78125 -27.78125,27.78125 C 16.40625,60.03125 3.96875,47.59375 3.96875,32.25 3.96875,16.90625 16.40625,4.46875 31.75,4.46875 Z m 0,0"
       id="path2"
       inkscape:connector-curvature="0" />
    <path
       style="fill:#616161;fill-opacity:1;fill-rule:nonzero;stroke:none"
       d="M 31.75,3.144531 V 8.4375 c 13.191406,0 23.8125,10.621094 23.8125,23.8125 0,13.191406 -10.621094,23.8125 -23.8125,23.8125 C 18.558594,56.0625 7.9375,45.441406 7.9375,32.25 H 2.644531 C 2.644531,48.375 15.625,61.355469 31.75,61.355469 47.875,61.355469 60.855469,48.375 60.855469,32.25 60.855469,16.125 47.875,3.144531 31.75,3.144531 Z m 0,0"
       id="path4"
       inkscape:connector-curvature="0" />
    <path
       style="fill:#788f9c;fill-opacity:1;fill-rule:nonzero;stroke:none"
       d="m 48.589844,15.410156 c -9.332032,-9.328125 -24.347656,-9.328125 -33.679688,0 -9.328125,9.332032 -9.328125,24.347656 0,33.679688 9.332032,9.328125 24.347656,9.328125 33.679688,0 l -3.742188,-3.742188 c -7.257812,7.253906 -18.9375,7.253906 -26.195312,0 -7.253906,-7.257812 -7.253906,-18.9375 0,-26.195312 7.257812,-7.253906 18.9375,-7.253906 26.195312,0 z m 0,0"
       id="path6"
       inkscape:connector-curvature="0" />
    <path
       style="fill:#66ba68;fill-opacity:1;fill-rule:nonzero;stroke:none"
       d="m 31.75,13.730469 c -10.261719,0 -18.519531,8.257812 -18.519531,18.519531 0,10.261719 8.257812,18.519531 18.519531,18.519531 10.261719,0 18.519531,-8.257812 18.519531,-18.519531 0,-10.261719 -8.257812,-18.519531 -18.519531,-18.519531 z m 0,5.289062 c 7.328125,0 13.230469,5.902344 13.230469,13.230469 0,7.328125 -5.902344,13.230469 -13.230469,13.230469 -7.328125,0 -13.230469,-5.902344 -13.230469,-13.230469 0,-7.328125 5.902344,-13.230469 13.230469,-13.230469 z m 0,0"
       id="path8"
       inkscape:connector-curvature="0" />
  </g>
</svg>
