<?xml version="1.0" encoding="UTF-8" standalone="no"?>
<svg
   xmlns:dc="http://purl.org/dc/elements/1.1/"
   xmlns:cc="http://creativecommons.org/ns#"
   xmlns:rdf="http://www.w3.org/1999/02/22-rdf-syntax-ns#"
   xmlns:svg="http://www.w3.org/2000/svg"
   xmlns="http://www.w3.org/2000/svg"
   xmlns:sodipodi="http://sodipodi.sourceforge.net/DTD/sodipodi-0.dtd"
   xmlns:inkscape="http://www.inkscape.org/namespaces/inkscape"
   width="48"
   height="48"
   viewBox="0 0 48 48"
   version="1.1"
   id="svg23"
   sodipodi:docname="gcm.svg"
   inkscape:version="0.92.4 (5da689c313, 2019-01-14)">
  <metadata
     id="metadata29">
    <rdf:RDF>
      <cc:Work
         rdf:about="">
        <dc:format>image/svg+xml</dc:format>
        <dc:type
           rdf:resource="http://purl.org/dc/dcmitype/StillImage" />
        <dc:title></dc:title>
      </cc:Work>
    </rdf:RDF>
  </metadata>
  <defs
     id="defs27" />
  <sodipodi:namedview
     pagecolor="#ffffff"
     bordercolor="#666666"
     borderopacity="1"
     objecttolerance="10"
     gridtolerance="10"
     guidetolerance="10"
     inkscape:pageopacity="0"
     inkscape:pageshadow="2"
     inkscape:window-width="1280"
     inkscape:window-height="954"
     id="namedview25"
     showgrid="false"
     inkscape:zoom="3.6875"
     inkscape:cx="27.254237"
     inkscape:cy="32"
     inkscape:window-x="0"
     inkscape:window-y="0"
     inkscape:window-maximized="1"
     inkscape:current-layer="svg23" />
  <g
     id="surface1"
     transform="matrix(0.73445494,0,0,0.73445494,0.68105566,0.31382818)">
    <path
       style="fill:#5c68bf;fill-opacity:1;fill-rule:nonzero;stroke:none"
       d="m 31.75,3.144531 c 4.382812,0 7.9375,5.925781 7.9375,13.230469 0,7.304688 -3.554688,13.230469 -7.9375,13.230469 -4.382812,0 -7.9375,-5.925781 -7.9375,-13.230469 0,-7.304688 3.554688,-13.230469 7.9375,-13.230469 z m 0,0"
       id="path2"
       inkscape:connector-curvature="0" />
    <path
       style="fill:#7d57c2;fill-opacity:1;fill-rule:nonzero;stroke:none"
       d="m 52.328125,11.671875 c 3.101563,3.097656 1.425781,9.800781 -3.738281,14.964844 -5.167969,5.167969 -11.871094,6.84375 -14.96875,3.742187 -3.101563,-3.097656 -1.425782,-9.800781 3.742187,-14.96875 5.164063,-5.164062 11.867188,-6.839844 14.964844,-3.738281 z m 0,0"
       id="path4"
       inkscape:connector-curvature="0" />
    <path
       style="fill:#eb3f78;fill-opacity:1;fill-rule:nonzero;stroke:none"
       d="m 60.855469,32.25 c 0,4.382812 -5.925781,7.9375 -13.230469,7.9375 -7.304688,0 -13.230469,-3.554688 -13.230469,-7.9375 0,-4.382812 5.925781,-7.9375 13.230469,-7.9375 7.304688,0 13.230469,3.554688 13.230469,7.9375 z m 0,0"
       id="path6"
       inkscape:connector-curvature="0" />
    <path
       style="fill:#ee514f;fill-opacity:1;fill-rule:nonzero;stroke:none"
       d="m 52.328125,52.828125 c -3.097656,3.101563 -9.800781,1.425781 -14.964844,-3.738281 -5.167969,-5.167969 -6.84375,-11.867188 -3.742187,-14.96875 3.097656,-3.101563 9.800781,-1.425782 14.96875,3.742187 5.164062,5.164063 6.839844,11.867188 3.738281,14.964844 z m 0,0"
       id="path8"
       inkscape:connector-curvature="0" />
    <path
       style="fill:#ff6e42;fill-opacity:1;fill-rule:nonzero;stroke:none"
       d="m 31.75,34.894531 c 4.382812,0 7.9375,5.925781 7.9375,13.230469 0,7.304688 -3.554688,13.230469 -7.9375,13.230469 -4.382812,0 -7.9375,-5.925781 -7.9375,-13.230469 0,-7.304688 3.554688,-13.230469 7.9375,-13.230469 z m 0,0"
       id="path10"
       inkscape:connector-curvature="0" />
    <path
       style="fill:#ffa623;fill-opacity:1;fill-rule:nonzero;stroke:none"
       d="m 29.878906,34.121094 c 3.101563,3.101562 1.425782,9.800781 -3.742187,14.96875 -5.164063,5.164062 -11.867188,6.839844 -14.964844,3.738281 -3.101563,-3.097656 -1.425781,-9.800781 3.738281,-14.964844 5.167969,-5.167969 11.871094,-6.84375 14.96875,-3.742187 z m 0,0"
       id="path12"
       inkscape:connector-curvature="0" />
    <path
       style="fill:#9ccc63;fill-opacity:1;fill-rule:nonzero;stroke:none"
       d="m 29.105469,32.25 c 0,4.382812 -5.925781,7.9375 -13.230469,7.9375 -7.304688,0 -13.230469,-3.554688 -13.230469,-7.9375 0,-4.382812 5.925781,-7.9375 13.230469,-7.9375 7.304688,0 13.230469,3.554688 13.230469,7.9375 z m 0,0"
       id="path14"
       inkscape:connector-curvature="0" />
    <path
       style="fill:#23a699;fill-opacity:1;fill-rule:nonzero;stroke:none"
       d="M 29.878906,30.378906 C 26.78125,33.480469 20.078125,31.804688 14.910156,26.636719 9.746094,21.472656 8.070312,14.769531 11.171875,11.671875 c 3.097656,-3.101563 9.800781,-1.425781 14.964844,3.738281 5.167969,5.167969 6.84375,11.871094 3.742187,14.96875 z m 0,0"
       id="path16"
       inkscape:connector-curvature="0" />
    <path
       style="fill:#5c68bf;fill-opacity:1;fill-rule:nonzero;stroke:none"
       d="m 31.75,3.144531 c -4.398438,0 -7.9375,5.902344 -7.9375,13.230469 0,7.328125 3.539062,13.230469 7.9375,13.230469 z m 0,0"
       id="path18"
       inkscape:connector-curvature="0" />
    <path
       style="fill:#dedede;fill-opacity:1;fill-rule:nonzero;stroke:none"
       d="m 31.75,26.957031 c 2.921875,0 5.292969,2.371094 5.292969,5.292969 0,2.921875 -2.371094,5.292969 -5.292969,5.292969 -2.921875,0 -5.292969,-2.371094 -5.292969,-5.292969 0,-2.921875 2.371094,-5.292969 5.292969,-5.292969 z m 0,0"
       id="path20"
       inkscape:connector-curvature="0" />
  </g>
</svg>
