<?xml version="1.0" encoding="UTF-8" standalone="no"?>
<svg
   xmlns:dc="http://purl.org/dc/elements/1.1/"
   xmlns:cc="http://creativecommons.org/ns#"
   xmlns:rdf="http://www.w3.org/1999/02/22-rdf-syntax-ns#"
   xmlns:svg="http://www.w3.org/2000/svg"
   xmlns="http://www.w3.org/2000/svg"
   xmlns:sodipodi="http://sodipodi.sourceforge.net/DTD/sodipodi-0.dtd"
   xmlns:inkscape="http://www.inkscape.org/namespaces/inkscape"
   width="48"
   height="48"
   viewBox="0 0 48 48"
   version="1.1"
   id="svg7"
   sodipodi:docname="git.svg"
   inkscape:version="0.92.4 (5da689c313, 2019-01-14)">
  <metadata
     id="metadata13">
    <rdf:RDF>
      <cc:Work
         rdf:about="">
        <dc:format>image/svg+xml</dc:format>
        <dc:type
           rdf:resource="http://purl.org/dc/dcmitype/StillImage" />
        <dc:title></dc:title>
      </cc:Work>
    </rdf:RDF>
  </metadata>
  <defs
     id="defs11" />
  <sodipodi:namedview
     pagecolor="#ffffff"
     bordercolor="#666666"
     borderopacity="1"
     objecttolerance="10"
     gridtolerance="10"
     guidetolerance="10"
     inkscape:pageopacity="0"
     inkscape:pageshadow="2"
     inkscape:window-width="1280"
     inkscape:window-height="954"
     id="namedview9"
     showgrid="false"
     inkscape:zoom="3.6875"
     inkscape:cx="27.254237"
     inkscape:cy="32"
     inkscape:window-x="0"
     inkscape:window-y="0"
     inkscape:window-maximized="1"
     inkscape:current-layer="svg7" />
  <g
     id="surface1"
     transform="matrix(0.73498845,0,0,0.73498845,0.66411671,0.29662249)">
    <path
       style="fill:#ee514f;fill-opacity:1;fill-rule:nonzero;stroke:none"
       d="M 33.90625,3.976562 60.023438,30.09375 c 1.1875,1.191406 1.1875,3.121094 0,4.3125 L 33.90625,60.523438 c -1.191406,1.1875 -3.121094,1.1875 -4.3125,0 L 3.476562,34.40625 c -1.1875,-1.191406 -1.1875,-3.121094 0,-4.3125 L 29.59375,3.976562 c 1.191406,-1.1875 3.121094,-1.1875 4.3125,0 z m 0,0"
       id="path2"
       inkscape:connector-curvature="0" />
    <path
       style="fill:#eeeeee;fill-opacity:1;fill-rule:nonzero;stroke:none"
       d="m 34.5,20.089844 c -1.554688,-1.554688 -4.054688,-1.554688 -5.609375,0 -1.554687,1.554687 -1.554687,4.058594 0,5.613281 0.605469,0.605469 1.359375,0.976563 2.144531,1.109375 v 10.875 c -0.785156,0.132812 -1.539062,0.503906 -2.144531,1.109375 -1.554687,1.554687 -1.554687,4.058594 0,5.613281 1.554687,1.554688 4.054687,1.554688 5.609375,0 1.554688,-1.554687 1.554688,-4.058594 0,-5.613281 -0.605469,-0.605469 -1.359375,-0.976563 -2.144531,-1.109375 v -10.875 c 0.578125,-0.09766 1.140625,-0.324219 1.640625,-0.679688 l 3.816406,3.816407 c -1.105469,1.554687 -0.964844,3.710937 0.429688,5.105469 1.554687,1.554687 4.058593,1.554687 5.613281,0 C 45.410156,33.5 45.410156,31 43.855469,29.445312 42.460938,28.046875 40.300781,27.90625 38.75,29.015625 L 34.929688,25.195312 C 36.039062,23.644531 35.898438,21.484375 34.5,20.089844 Z m 0,0"
       id="path4"
       inkscape:connector-curvature="0" />
  </g>
</svg>
