<?xml version="1.0" encoding="UTF-8" standalone="no"?>
<svg
   xmlns:dc="http://purl.org/dc/elements/1.1/"
   xmlns:cc="http://creativecommons.org/ns#"
   xmlns:rdf="http://www.w3.org/1999/02/22-rdf-syntax-ns#"
   xmlns:svg="http://www.w3.org/2000/svg"
   xmlns="http://www.w3.org/2000/svg"
   xmlns:sodipodi="http://sodipodi.sourceforge.net/DTD/sodipodi-0.dtd"
   xmlns:inkscape="http://www.inkscape.org/namespaces/inkscape"
   width="48"
   height="48"
   viewBox="0 0 48 48"
   version="1.1"
   id="svg23"
   sodipodi:docname="gmail.svg"
   inkscape:version="0.92.4 (5da689c313, 2019-01-14)">
  <metadata
     id="metadata29">
    <rdf:RDF>
      <cc:Work
         rdf:about="">
        <dc:format>image/svg+xml</dc:format>
        <dc:type
           rdf:resource="http://purl.org/dc/dcmitype/StillImage" />
        <dc:title></dc:title>
      </cc:Work>
    </rdf:RDF>
  </metadata>
  <defs
     id="defs27" />
  <sodipodi:namedview
     pagecolor="#ffffff"
     bordercolor="#666666"
     borderopacity="1"
     objecttolerance="10"
     gridtolerance="10"
     guidetolerance="10"
     inkscape:pageopacity="0"
     inkscape:pageshadow="2"
     inkscape:window-width="1280"
     inkscape:window-height="954"
     id="namedview25"
     showgrid="false"
     inkscape:zoom="3.6875"
     inkscape:cx="27.254237"
     inkscape:cy="32"
     inkscape:window-x="0"
     inkscape:window-y="0"
     inkscape:window-maximized="1"
     inkscape:current-layer="svg23" />
  <g
     id="surface1"
     transform="matrix(0.72837312,0,0,0.72837312,0.87415344,0.50996688)">
    <path
       style="fill:#737373;fill-opacity:1;fill-rule:nonzero;stroke:none"
       d="m 5.292969,16.375 h 52.914062 c 1.460938,0 2.648438,1.183594 2.648438,2.644531 V 56.0625 c 0,1.460938 -1.1875,2.644531 -2.648438,2.644531 H 5.292969 c -1.460938,0 -2.648438,-1.183593 -2.648438,-2.644531 V 19.019531 c 0,-1.460937 1.1875,-2.644531 2.648438,-2.644531 z m 0,0"
       id="path2"
       inkscape:connector-curvature="0" />
    <path
       style="fill:#3fa3f5;fill-opacity:0.99576302;fill-rule:nonzero;stroke:none"
       d="m 10.582031,5.792969 h 42.335938 c 1.460937,0 2.644531,1.183593 2.644531,2.644531 v 31.75 c 0,1.460938 -1.183594,2.644531 -2.644531,2.644531 H 10.582031 C 9.121094,42.832031 7.9375,41.648438 7.9375,40.1875 v -31.75 c 0,-1.460938 1.183594,-2.644531 2.644531,-2.644531 z m 0,0"
       id="path4"
       inkscape:connector-curvature="0" />
    <path
       style="fill:#eeeeee;fill-opacity:1;fill-rule:nonzero;stroke:none"
       d="m 15.214844,21.667969 h 33.070312 c 0.367188,0 0.664063,0.292969 0.664063,0.660156 0,0.367187 -0.296875,0.660156 -0.664063,0.660156 H 15.214844 c -0.367188,0 -0.664063,-0.292969 -0.664063,-0.660156 0,-0.367187 0.296875,-0.660156 0.664063,-0.660156 z m 0,0"
       id="path6"
       inkscape:connector-curvature="0" />
    <path
       style="fill:#eeeeee;fill-opacity:1;fill-rule:nonzero;stroke:none"
       d="m 15.214844,33.574219 h 33.070312 c 0.367188,0 0.664063,0.292969 0.664063,0.660156 0,0.367187 -0.296875,0.660156 -0.664063,0.660156 H 15.214844 c -0.367188,0 -0.664063,-0.292969 -0.664063,-0.660156 0,-0.367187 0.296875,-0.660156 0.664063,-0.660156 z m 0,0"
       id="path8"
       inkscape:connector-curvature="0" />
    <path
       style="fill:#eeeeee;fill-opacity:1;fill-rule:nonzero;stroke:none"
       d="m 15.214844,25.636719 h 33.070312 c 0.367188,0 0.664063,0.292969 0.664063,0.660156 0,0.367187 -0.296875,0.660156 -0.664063,0.660156 H 15.214844 c -0.367188,0 -0.664063,-0.292969 -0.664063,-0.660156 0,-0.367187 0.296875,-0.660156 0.664063,-0.660156 z m 0,0"
       id="path10"
       inkscape:connector-curvature="0" />
    <path
       style="fill:#eeeeee;fill-opacity:1;fill-rule:nonzero;stroke:none"
       d="m 15.214844,29.605469 h 33.070312 c 0.367188,0 0.664063,0.292969 0.664063,0.660156 0,0.367187 -0.296875,0.660156 -0.664063,0.660156 H 15.214844 c -0.367188,0 -0.664063,-0.292969 -0.664063,-0.660156 0,-0.367187 0.296875,-0.660156 0.664063,-0.660156 z m 0,0"
       id="path12"
       inkscape:connector-curvature="0" />
    <path
       style="fill:#eeeeee;fill-opacity:1;fill-rule:nonzero;stroke:none"
       d="m 15.214844,13.730469 h 33.070312 c 0.367188,0 0.664063,0.292969 0.664063,0.660156 0,0.367187 -0.296875,0.660156 -0.664063,0.660156 H 15.214844 c -0.367188,0 -0.664063,-0.292969 -0.664063,-0.660156 0,-0.367187 0.296875,-0.660156 0.664063,-0.660156 z m 0,0"
       id="path14"
       inkscape:connector-curvature="0" />
    <path
       style="fill:#eeeeee;fill-opacity:1;fill-rule:nonzero;stroke:none"
       d="m 15.214844,17.699219 h 33.070312 c 0.367188,0 0.664063,0.292969 0.664063,0.660156 0,0.367187 -0.296875,0.660156 -0.664063,0.660156 H 15.214844 c -0.367188,0 -0.664063,-0.292969 -0.664063,-0.660156 0,-0.367187 0.296875,-0.660156 0.664063,-0.660156 z m 0,0"
       id="path16"
       inkscape:connector-curvature="0" />
    <path
       style="fill:#dedede;fill-opacity:1;fill-rule:nonzero;stroke:none"
       d="M 3.546875,17.03125 C 2.992188,17.515625 2.644531,18.226562 2.644531,19.019531 V 56.0625 c 0,1.464844 1.179688,2.644531 2.648438,2.644531 h 52.914062 c 1.46875,0 2.648438,-1.179687 2.648438,-2.644531 V 19.019531 c 0,-0.792969 -0.347657,-1.503906 -0.902344,-1.988281 L 31.75,37.542969 Z m 0,0"
       id="path18"
       inkscape:connector-curvature="0" />
    <path
       style="fill:#ee514f;fill-opacity:1;fill-rule:nonzero;stroke:none"
       d="m 5.292969,16.375 c -1.46875,0 -2.648438,1.179688 -2.648438,2.644531 V 56.0625 c 0,1.464844 1.179688,2.644531 2.648438,2.644531 H 7.9375 V 24.105469 L 31.75,40.773438 55.5625,24.105469 v 34.601562 h 2.644531 c 1.46875,0 2.648438,-1.179687 2.648438,-2.644531 V 19.019531 c 0,-1.464843 -1.179688,-2.644531 -2.648438,-2.644531 H 57.371094 L 31.75,34.308594 6.128906,16.375 Z m 0,0"
       id="path20"
       inkscape:connector-curvature="0" />
  </g>
</svg>
