<?xml version="1.0" encoding="UTF-8" standalone="no"?>
<svg
   xmlns:dc="http://purl.org/dc/elements/1.1/"
   xmlns:cc="http://creativecommons.org/ns#"
   xmlns:rdf="http://www.w3.org/1999/02/22-rdf-syntax-ns#"
   xmlns:svg="http://www.w3.org/2000/svg"
   xmlns="http://www.w3.org/2000/svg"
   xmlns:sodipodi="http://sodipodi.sourceforge.net/DTD/sodipodi-0.dtd"
   xmlns:inkscape="http://www.inkscape.org/namespaces/inkscape"
   width="48"
   height="48"
   viewBox="0 0 48 48"
   version="1.1"
   id="svg105"
   sodipodi:docname="gpick.svg"
   inkscape:version="0.92.4 (5da689c313, 2019-01-14)">
  <metadata
     id="metadata109">
    <rdf:RDF>
      <cc:Work
         rdf:about="">
        <dc:format>image/svg+xml</dc:format>
        <dc:type
           rdf:resource="http://purl.org/dc/dcmitype/StillImage" />
        <dc:title></dc:title>
      </cc:Work>
    </rdf:RDF>
  </metadata>
  <sodipodi:namedview
     pagecolor="#ffffff"
     bordercolor="#666666"
     borderopacity="1"
     objecttolerance="10"
     gridtolerance="10"
     guidetolerance="10"
     inkscape:pageopacity="0"
     inkscape:pageshadow="2"
     inkscape:window-width="1280"
     inkscape:window-height="954"
     id="namedview107"
     showgrid="false"
     inkscape:zoom="3.6875"
     inkscape:cx="27.254237"
     inkscape:cy="32"
     inkscape:window-x="0"
     inkscape:window-y="0"
     inkscape:window-maximized="1"
     inkscape:current-layer="svg105" />
  <defs
     id="defs72">
    <linearGradient
       id="linear0"
       gradientUnits="userSpaceOnUse"
       x1="254"
       y1="244.08333"
       x2="254"
       y2="254.66667"
       gradientTransform="matrix(0.00625,0,0,0.125,30.162502,30.843751)">
      <stop
         offset="0"
         style="stop-color:rgb(12.941177%,12.941177%,12.941177%);stop-opacity:0.392157;"
         id="stop2" />
      <stop
         offset="1"
         style="stop-color:rgb(49.411765%,34.117648%,76.078433%);stop-opacity:0;"
         id="stop4" />
    </linearGradient>
    <radialGradient
       id="radial0"
       gradientUnits="userSpaceOnUse"
       cx="41.451393"
       cy="228.90112"
       fx="41.451393"
       fy="228.90112"
       r="10.583335"
       gradientTransform="matrix(-0.25,-3.65798e-8,2.28624e-8,-0.15625,40.789922,96.789254)">
      <stop
         offset="0"
         style="stop-color:rgb(12.941177%,12.941177%,12.941177%);stop-opacity:0.392157;"
         id="stop7" />
      <stop
         offset="1"
         style="stop-color:rgb(12.941177%,12.941177%,12.941177%);stop-opacity:0;"
         id="stop9" />
    </radialGradient>
    <radialGradient
       id="radial1"
       gradientUnits="userSpaceOnUse"
       cx="41.451393"
       cy="228.90112"
       fx="41.451393"
       fy="228.90112"
       r="10.583335"
       gradientTransform="matrix(0.25,-3.65798e-8,-2.28624e-8,-0.15625,22.710073,96.789254)">
      <stop
         offset="0"
         style="stop-color:rgb(12.941177%,12.941177%,12.941177%);stop-opacity:0.392157;"
         id="stop12" />
      <stop
         offset="1"
         style="stop-color:rgb(12.941177%,12.941177%,12.941177%);stop-opacity:0;"
         id="stop14" />
    </radialGradient>
    <linearGradient
       id="linear1"
       gradientUnits="userSpaceOnUse"
       x1="254"
       y1="74.75"
       x2="254"
       y2="-31.083334"
       gradientTransform="matrix(0.25,0,0,0.25,-31.749964,10.916724)">
      <stop
         offset="0"
         style="stop-color:rgb(36.078432%,41.960785%,75.294119%);stop-opacity:1;"
         id="stop17" />
      <stop
         offset="1"
         style="stop-color:rgb(47.450981%,52.549022%,79.607844%);stop-opacity:1;"
         id="stop19" />
    </linearGradient>
    <linearGradient
       id="linear2"
       gradientUnits="userSpaceOnUse"
       x1="283.93417"
       y1="55.399151"
       x2="224.06581"
       y2="-4.4692249"
       gradientTransform="matrix(0.176777,0.176777,-0.176777,0.176777,1.933684,-27.736148)">
      <stop
         offset="0"
         style="stop-color:rgb(67.058825%,27.843139%,73.725492%);stop-opacity:1;"
         id="stop22" />
      <stop
         offset="1"
         style="stop-color:rgb(72.941178%,40.784314%,78.431374%);stop-opacity:1;"
         id="stop24" />
    </linearGradient>
    <linearGradient
       id="linear3"
       gradientUnits="userSpaceOnUse"
       x1="285.75"
       y1="21.83334"
       x2="222.25"
       y2="21.83334"
       gradientTransform="matrix(0,0.25,-0.25,0,53.083324,-31.249916)">
      <stop
         offset="0"
         style="stop-color:rgb(92.54902%,25.098041%,47.843137%);stop-opacity:1;"
         id="stop27" />
      <stop
         offset="1"
         style="stop-color:rgb(94.117647%,38.431373%,57.254905%);stop-opacity:1;"
         id="stop29" />
    </linearGradient>
    <linearGradient
       id="linear4"
       gradientUnits="userSpaceOnUse"
       x1="276.45062"
       y1="-11.952759"
       x2="216.58226"
       y2="47.915615"
       gradientTransform="matrix(-0.176777,0.176777,-0.176777,-0.176777,91.736194,2.433731)">
      <stop
         offset="0"
         style="stop-color:rgb(93.725491%,32.549021%,31.37255%);stop-opacity:1;"
         id="stop32" />
      <stop
         offset="1"
         style="stop-color:rgb(89.803922%,45.09804%,45.09804%);stop-opacity:1;"
         id="stop34" />
    </linearGradient>
    <linearGradient
       id="linear5"
       gradientUnits="userSpaceOnUse"
       x1="254"
       y1="85.333336"
       x2="254"
       y2="-20.500023"
       gradientTransform="matrix(0.25,0,0,0.25,-31.749964,40.02088)">
      <stop
         offset="0"
         style="stop-color:rgb(100%,43.921569%,26.274511%);stop-opacity:1;"
         id="stop37" />
      <stop
         offset="1"
         style="stop-color:rgb(100%,54.11765%,39.607844%);stop-opacity:1;"
         id="stop39" />
    </linearGradient>
    <linearGradient
       id="linear6"
       gradientUnits="userSpaceOnUse"
       x1="276.45062"
       y1="66.202751"
       x2="216.58226"
       y2="6.3343792"
       gradientTransform="matrix(0.176777,0.176777,-0.176777,0.176777,-18.646064,-7.156401)">
      <stop
         offset="0"
         style="stop-color:rgb(100%,65.490198%,14.901961%);stop-opacity:1;"
         id="stop42" />
      <stop
         offset="1"
         style="stop-color:rgb(100%,71.764708%,30.19608%);stop-opacity:1;"
         id="stop44" />
    </linearGradient>
    <linearGradient
       id="linear7"
       gradientUnits="userSpaceOnUse"
       x1="285.75"
       y1="32.416649"
       x2="222.25"
       y2="32.416649"
       gradientTransform="matrix(0,0.25,-0.25,0,23.979168,-31.249916)">
      <stop
         offset="0"
         style="stop-color:rgb(61.176473%,80.000001%,39.607844%);stop-opacity:1;"
         id="stop47" />
      <stop
         offset="1"
         style="stop-color:rgb(68.235296%,83.529413%,50.588238%);stop-opacity:1;"
         id="stop49" />
    </linearGradient>
    <linearGradient
       id="linear8"
       gradientUnits="userSpaceOnUse"
       x1="254"
       y1="85.333336"
       x2="254"
       y2="-20.500023"
       gradientTransform="matrix(-0.176777,0.176777,-0.176777,-0.176777,71.156446,-18.146017)">
      <stop
         offset="0"
         style="stop-color:rgb(14.901961%,65.098041%,60.392159%);stop-opacity:1;"
         id="stop52" />
      <stop
         offset="1"
         style="stop-color:rgb(30.19608%,71.372551%,67.450982%);stop-opacity:1;"
         id="stop54" />
    </linearGradient>
    <linearGradient
       id="linear9"
       gradientUnits="userSpaceOnUse"
       x1="254"
       y1="74.75"
       x2="254"
       y2="-31.083334"
       gradientTransform="matrix(0.25,0,0,0.25,-31.749964,10.916724)">
      <stop
         offset="0"
         style="stop-color:rgb(36.078432%,41.960785%,75.294119%);stop-opacity:1;"
         id="stop57" />
      <stop
         offset="1"
         style="stop-color:rgb(47.450981%,52.549022%,79.607844%);stop-opacity:1;"
         id="stop59" />
    </linearGradient>
    <linearGradient
       id="linear10"
       gradientUnits="userSpaceOnUse"
       x1="254"
       y1="106.5"
       x2="254"
       y2="43"
       gradientTransform="matrix(0.358694,0,0,0.358694,-59.358391,3.970884)">
      <stop
         offset="0"
         style="stop-color:rgb(16.078432%,71.372551%,96.470588%);stop-opacity:1;"
         id="stop62" />
      <stop
         offset="1"
         style="stop-color:rgb(30.980393%,76.47059%,96.862745%);stop-opacity:1;"
         id="stop64" />
    </linearGradient>
    <linearGradient
       id="linear11"
       gradientUnits="userSpaceOnUse"
       x1="254"
       y1="106.5"
       x2="254"
       y2="45.645714"
       gradientTransform="matrix(0.358694,0,0,0.358694,-59.358391,3.970884)">
      <stop
         offset="0"
         style="stop-color:rgb(16.078432%,71.372551%,96.470588%);stop-opacity:1;"
         id="stop67" />
      <stop
         offset="1"
         style="stop-color:rgb(30.980393%,76.47059%,96.862745%);stop-opacity:1;"
         id="stop69" />
    </linearGradient>
  </defs>
  <g
     id="surface1"
     transform="matrix(0.73578896,0,0,0.73578896,0.63870052,-0.21492946)">
    <path
       style="fill:url(#linear0);fill-rule:nonzero;stroke:none"
       d="m 30.425781,60.691406 h 2.648438 v 1.984375 h -2.648438 z m 0,0"
       id="path74"
       inkscape:connector-curvature="0" />
    <path
       style="fill:url(#radial0);fill-rule:nonzero;stroke:none"
       d="m 27.78125,60.03125 h 2.644531 v 2.644531 H 27.78125 Z m 0,0"
       id="path76"
       inkscape:connector-curvature="0" />
    <path
       style="fill:url(#radial1);fill-rule:nonzero;stroke:none"
       d="m 35.71875,60.03125 h -2.644531 v 2.644531 h 2.644531 z m 0,0"
       id="path78"
       inkscape:connector-curvature="0" />
    <path
       style="fill:url(#linear1);fill-rule:nonzero;stroke:none"
       d="m 31.75,3.144531 c 4.382812,0 7.9375,5.925781 7.9375,13.230469 0,7.304688 -3.554688,13.230469 -7.9375,13.230469 -4.382812,0 -7.9375,-5.925781 -7.9375,-13.230469 0,-7.304688 3.554688,-13.230469 7.9375,-13.230469 z m 0,0"
       id="path80"
       inkscape:connector-curvature="0" />
    <path
       style="fill:url(#linear2);fill-rule:nonzero;stroke:none"
       d="m 52.328125,11.671875 c 3.101563,3.097656 1.425781,9.800781 -3.738281,14.964844 -5.167969,5.167969 -11.871094,6.84375 -14.96875,3.742187 -3.101563,-3.097656 -1.425782,-9.800781 3.742187,-14.96875 5.164063,-5.164062 11.867188,-6.839844 14.964844,-3.738281 z m 0,0"
       id="path82"
       inkscape:connector-curvature="0" />
    <path
       style="fill:url(#linear3);fill-rule:nonzero;stroke:none"
       d="m 60.855469,32.25 c 0,4.382812 -5.925781,7.9375 -13.230469,7.9375 -7.304688,0 -13.230469,-3.554688 -13.230469,-7.9375 0,-4.382812 5.925781,-7.9375 13.230469,-7.9375 7.304688,0 13.230469,3.554688 13.230469,7.9375 z m 0,0"
       id="path84"
       inkscape:connector-curvature="0" />
    <path
       style="fill:url(#linear4);fill-rule:nonzero;stroke:none"
       d="m 52.328125,52.828125 c -3.097656,3.101563 -9.800781,1.425781 -14.964844,-3.738281 -5.167969,-5.167969 -6.84375,-11.867188 -3.742187,-14.96875 3.097656,-3.101563 9.800781,-1.425782 14.96875,3.742187 5.164062,5.164063 6.839844,11.867188 3.738281,14.964844 z m 0,0"
       id="path86"
       inkscape:connector-curvature="0" />
    <path
       style="fill:url(#linear5);fill-rule:nonzero;stroke:none"
       d="m 31.75,34.894531 c 4.382812,0 7.9375,5.925781 7.9375,13.230469 0,7.304688 -3.554688,13.230469 -7.9375,13.230469 -4.382812,0 -7.9375,-5.925781 -7.9375,-13.230469 0,-7.304688 3.554688,-13.230469 7.9375,-13.230469 z m 0,0"
       id="path88"
       inkscape:connector-curvature="0" />
    <path
       style="fill:url(#linear6);fill-rule:nonzero;stroke:none"
       d="m 29.878906,34.121094 c 3.101563,3.101562 1.425782,9.800781 -3.742187,14.96875 -5.164063,5.164062 -11.867188,6.839844 -14.964844,3.738281 -3.101563,-3.097656 -1.425781,-9.800781 3.738281,-14.964844 5.167969,-5.167969 11.871094,-6.84375 14.96875,-3.742187 z m 0,0"
       id="path90"
       inkscape:connector-curvature="0" />
    <path
       style="fill:url(#linear7);fill-rule:nonzero;stroke:none"
       d="m 29.105469,32.25 c 0,4.382812 -5.925781,7.9375 -13.230469,7.9375 -7.304688,0 -13.230469,-3.554688 -13.230469,-7.9375 0,-4.382812 5.925781,-7.9375 13.230469,-7.9375 7.304688,0 13.230469,3.554688 13.230469,7.9375 z m 0,0"
       id="path92"
       inkscape:connector-curvature="0" />
    <path
       style="fill:url(#linear8);fill-rule:nonzero;stroke:none"
       d="M 29.878906,30.378906 C 26.78125,33.480469 20.078125,31.804688 14.910156,26.636719 9.746094,21.472656 8.070312,14.769531 11.171875,11.671875 c 3.097656,-3.101563 9.800781,-1.425781 14.964844,3.738281 5.167969,5.167969 6.84375,11.871094 3.742187,14.96875 z m 0,0"
       id="path94"
       inkscape:connector-curvature="0" />
    <path
       style="fill:url(#linear9);fill-rule:nonzero;stroke:none"
       d="m 31.75,3.144531 c -4.398438,0 -7.9375,5.902344 -7.9375,13.230469 0,7.328125 3.539062,13.230469 7.9375,13.230469 z m 0,0"
       id="path96"
       inkscape:connector-curvature="0" />
    <path
       style="fill:url(#linear10);fill-rule:nonzero;stroke:none"
       d="m 31.75,20.34375 c -3.796875,4.746094 -7.59375,8.542969 -7.59375,14.234375 0,4.207031 3.386719,7.59375 7.59375,7.59375 4.207031,0 7.59375,-3.386719 7.59375,-7.59375 0,-5.691406 -3.796875,-9.488281 -7.59375,-14.234375 z m 0,0"
       id="path98"
       inkscape:connector-curvature="0" />
    <path
       style="fill:url(#linear11);fill-rule:nonzero;stroke:none"
       d="m 31.75,20.34375 c -3.796875,4.746094 -7.59375,8.542969 -7.59375,14.234375 0,4.207031 3.386719,7.59375 7.59375,7.59375 4.207031,0 7.59375,-3.386719 7.59375,-7.59375 0,-5.691406 -3.796875,-9.488281 -7.59375,-14.234375 z m 0,0"
       id="path100"
       inkscape:connector-curvature="0" />
    <path
       style="fill:#ffffff;fill-opacity:0.31372603;fill-rule:nonzero;stroke:none"
       d="m 31.75,20.34375 c -3.796875,4.746094 -7.59375,8.542969 -7.59375,14.234375 0,0.605469 0.07031,1.191406 0.203125,1.753906 1.636719,0.773438 3.46875,1.210938 5.40625,1.210938 3.804687,0 7.199219,-1.671875 9.5,-4.324219 C 38.71875,28.257812 35.234375,24.699219 31.75,20.34375 Z m 0,0"
       id="path102"
       inkscape:connector-curvature="0" />
  </g>
</svg>
