<?xml version="1.0" encoding="UTF-8" standalone="no"?>
<svg
   xmlns:dc="http://purl.org/dc/elements/1.1/"
   xmlns:cc="http://creativecommons.org/ns#"
   xmlns:rdf="http://www.w3.org/1999/02/22-rdf-syntax-ns#"
   xmlns:svg="http://www.w3.org/2000/svg"
   xmlns="http://www.w3.org/2000/svg"
   xmlns:sodipodi="http://sodipodi.sourceforge.net/DTD/sodipodi-0.dtd"
   xmlns:inkscape="http://www.inkscape.org/namespaces/inkscape"
   viewBox="0 0 48 48"
   id="svg2"
   version="1.1"
   inkscape:version="0.92.4 (5da689c313, 2019-01-14)"
   sodipodi:docname="idle.svg"
   width="48"
   height="48">
  <metadata
     id="metadata73">
    <rdf:RDF>
      <cc:Work
         rdf:about="">
        <dc:format>image/svg+xml</dc:format>
        <dc:type
           rdf:resource="http://purl.org/dc/dcmitype/StillImage" />
        <dc:title></dc:title>
      </cc:Work>
    </rdf:RDF>
  </metadata>
  <sodipodi:namedview
     pagecolor="#ffffff"
     bordercolor="#666666"
     borderopacity="1"
     objecttolerance="10"
     gridtolerance="10"
     guidetolerance="10"
     inkscape:pageopacity="0"
     inkscape:pageshadow="2"
     inkscape:window-width="1280"
     inkscape:window-height="954"
     id="namedview71"
     showgrid="false"
     inkscape:zoom="2.4583333"
     inkscape:cx="-58.429381"
     inkscape:cy="39.54886"
     inkscape:window-x="0"
     inkscape:window-y="0"
     inkscape:window-maximized="1"
     inkscape:current-layer="svg2" />
  <defs
     id="defs4">
    <linearGradient
       id="linearGradient3764"
       x1="1"
       x2="47"
       gradientUnits="userSpaceOnUse"
       gradientTransform="rotate(-90,23.999998,24)">
      <stop
         stop-color="#acacac"
         stop-opacity="1"
         id="stop7" />
      <stop
         offset="1"
         stop-color="#b6b6b6"
         stop-opacity="1"
         id="stop9" />
    </linearGradient>
    <clipPath
       id="clipPath-593073577">
      <g
         transform="translate(0,-1004.3622)"
         id="g12">
        <path
           d="m -24,13 c 0,1.105 -0.672,2 -1.5,2 -0.828,0 -1.5,-0.895 -1.5,-2 0,-1.105 0.672,-2 1.5,-2 0.828,0 1.5,0.895 1.5,2 z"
           transform="matrix(15.333333,0,0,11.5,414.99999,878.8622)"
           id="path14"
           inkscape:connector-curvature="0"
           style="fill:#1890d0" />
      </g>
    </clipPath>
    <clipPath
       id="clipPath-601783356">
      <g
         transform="translate(0,-1004.3622)"
         id="g17">
        <path
           d="m -24,13 c 0,1.105 -0.672,2 -1.5,2 -0.828,0 -1.5,-0.895 -1.5,-2 0,-1.105 0.672,-2 1.5,-2 0.828,0 1.5,0.895 1.5,2 z"
           transform="matrix(15.333333,0,0,11.5,414.99999,878.8622)"
           id="path19"
           inkscape:connector-curvature="0"
           style="fill:#1890d0" />
      </g>
    </clipPath>
  </defs>
  <g
     id="g3859"
     transform="matrix(0.33864539,0,0,0.33864539,2.3554903,29.33669)">
    <g
       id="g33" />
    <path
       d="m 63.194358,-75.7283 c -4.937615,0.01999 -9.665331,0.449782 -13.823322,1.169435 -12.239088,2.148962 -14.468011,6.616803 -14.468011,14.877813 v 10.914727 h 28.931024 v 3.633245 h -39.78578 c -8.415935,0 -15.7723811,4.997586 -18.0762682,14.502994 -2.653718,10.894737 -2.7936504,17.706446 0,29.065959 C 8.021011,6.906781 12.923643,12.938867 21.33458,12.938867 h 8.510888 V -1.544137 c 0,-9.430444 8.276002,-17.706446 18.096258,-17.706446 h 30.28537 c 8.041116,0 15.657437,-6.56183 15.657437,-14.542975 v -25.827523 c 0,-7.751256 -7.791237,-13.588436 -15.657437,-14.877813 -4.957605,-0.819604 -10.110116,-1.189426 -15.042733,-1.169435 m -15.637446,8.705794 c 2.988556,0 5.427378,2.458812 5.427378,5.487349 0,3.008547 -2.438822,5.427378 -5.427378,5.427378 -3.008547,0 -5.447368,-2.418831 -5.447368,-5.427378 0,-3.023539 2.418831,-5.487349 5.447368,-5.487349 m 0,0"
       id="path61"
       inkscape:connector-curvature="0"
       style="fill:#00bbf2;fill-opacity:1;fill-rule:nonzero;stroke:none" />
    <path
       d="m 98.002543,-45.143075 v 12.70886 c 0,9.840247 -8.450917,16.966804 -18.076267,16.966804 H 48.181611 c -7.906181,0 -14.468011,7.886191 -14.468011,15.717408 V 27.50183 c 0,7.75126 6.811709,12.29906 14.468011,14.52299 9.155577,2.65371 19.130758,3.16347 30.085466,0 7.281483,-2.08899 14.468011,-6.28697 14.468011,-14.52299 V 16.587104 H 63.844044 V 12.95386 h 43.379046 c 8.39594,0 11.53942,-5.81719 14.46801,-14.502994 3.02354,-8.960672 2.86861,-17.591502 0,-29.065959 -2.08899,-8.295993 -6.05208,-14.502994 -14.46801,-14.502994 M 80.106189,23.87358 c 2.988556,0 5.427378,2.41884 5.427378,5.42738 0,3.00855 -2.418832,5.48735 -5.427378,5.48735 -3.008547,0 -5.447369,-2.4788 -5.447369,-5.48735 0,-3.00854 2.438822,-5.42738 5.447369,-5.42738 m 0,0"
       id="path65"
       inkscape:connector-curvature="0"
       style="fill:#ffd42a;fill-opacity:1;fill-rule:nonzero;stroke:none" />
  </g>
</svg>
