<?xml version="1.0" encoding="UTF-8" standalone="no"?>
<svg
   xmlns:dc="http://purl.org/dc/elements/1.1/"
   xmlns:cc="http://creativecommons.org/ns#"
   xmlns:rdf="http://www.w3.org/1999/02/22-rdf-syntax-ns#"
   xmlns:svg="http://www.w3.org/2000/svg"
   xmlns="http://www.w3.org/2000/svg"
   xmlns:sodipodi="http://sodipodi.sourceforge.net/DTD/sodipodi-0.dtd"
   xmlns:inkscape="http://www.inkscape.org/namespaces/inkscape"
   width="48"
   height="48"
   viewBox="0 0 48 48"
   version="1.1"
   id="svg27"
   sodipodi:docname="kamerka.svg"
   inkscape:version="0.92.4 (5da689c313, 2019-01-14)">
  <metadata
     id="metadata33">
    <rdf:RDF>
      <cc:Work
         rdf:about="">
        <dc:format>image/svg+xml</dc:format>
        <dc:type
           rdf:resource="http://purl.org/dc/dcmitype/StillImage" />
        <dc:title></dc:title>
      </cc:Work>
    </rdf:RDF>
  </metadata>
  <defs
     id="defs31" />
  <sodipodi:namedview
     pagecolor="#ffffff"
     bordercolor="#666666"
     borderopacity="1"
     objecttolerance="10"
     gridtolerance="10"
     guidetolerance="10"
     inkscape:pageopacity="0"
     inkscape:pageshadow="2"
     inkscape:window-width="1280"
     inkscape:window-height="954"
     id="namedview29"
     showgrid="false"
     inkscape:zoom="3.6875"
     inkscape:cx="27.254237"
     inkscape:cy="32"
     inkscape:window-x="0"
     inkscape:window-y="0"
     inkscape:window-maximized="1"
     inkscape:current-layer="svg27" />
  <g
     id="surface1"
     transform="matrix(0.72979625,0,0,0.72979625,0.82896906,0.46407094)">
    <path
       style="fill:#9c9c9c;fill-opacity:1;fill-rule:nonzero;stroke:none"
       d="m 6.613281,24.3125 h 50.273438 v 2.644531 H 6.613281 Z m 0,0"
       id="path2"
       inkscape:connector-curvature="0" />
    <path
       style="fill:#bdbdbd;fill-opacity:1;fill-rule:nonzero;stroke:none"
       d="m 6.613281,22.988281 c -0.730469,0 -1.320312,0.589844 -1.320312,1.324219 0,11.398438 7.132812,21.066406 17.195312,24.804688 v 4.300781 h 18.523438 v -4.300781 c 10.0625,-3.738282 17.195312,-13.40625 17.195312,-24.804688 0,-0.734375 -0.589843,-1.324219 -1.320312,-1.324219 -0.734375,0 -1.324219,0.589844 -1.324219,1.324219 0,13.191406 -10.621094,23.8125 -23.8125,23.8125 -13.191406,0 -23.8125,-10.621094 -23.8125,-23.8125 0,-0.734375 -0.589844,-1.324219 -1.324219,-1.324219 z m 0,0"
       id="path4"
       inkscape:connector-curvature="0" />
    <path
       style="fill:#bdbdbd;fill-opacity:1;fill-rule:nonzero;stroke:none"
       d="m 31.75,3.144531 c 11.691406,0 21.167969,9.476563 21.167969,21.167969 0,11.691406 -9.476563,21.167969 -21.167969,21.167969 -11.691406,0 -21.167969,-9.476563 -21.167969,-21.167969 0,-11.691406 9.476563,-21.167969 21.167969,-21.167969 z m 0,0"
       id="path6"
       inkscape:connector-curvature="0" />
    <path
       style="fill:#7885ca;fill-opacity:0.99576302;fill-rule:nonzero;stroke:none"
       d="m 31.75,8.4375 c 8.765625,0 15.875,7.109375 15.875,15.875 0,8.765625 -7.109375,15.875 -15.875,15.875 -8.765625,0 -15.875,-7.109375 -15.875,-15.875 0,-8.765625 7.109375,-15.875 15.875,-15.875 z m 0,0"
       id="path8"
       inkscape:connector-curvature="0" />
    <path
       style="fill:#23a699;fill-opacity:0.99576302;fill-rule:nonzero;stroke:none"
       d="m 31.75,8.4375 c 8.765625,0 15.875,7.109375 15.875,15.875 0,8.765625 -7.109375,15.875 -15.875,15.875 -8.765625,0 -15.875,-7.109375 -15.875,-15.875 0,-8.765625 7.109375,-15.875 15.875,-15.875 z m 0,0"
       id="path10"
       inkscape:connector-curvature="0" />
    <path
       style="fill:#616161;fill-opacity:0.99576302;fill-rule:nonzero;stroke:none"
       d="m 31.75,13.730469 c 5.84375,0 10.582031,4.738281 10.582031,10.582031 0,5.84375 -4.738281,10.582031 -10.582031,10.582031 -5.84375,0 -10.582031,-4.738281 -10.582031,-10.582031 0,-5.84375 4.738281,-10.582031 10.582031,-10.582031 z m 0,0"
       id="path12"
       inkscape:connector-curvature="0" />
    <path
       style="fill:#dedede;fill-opacity:0.99576302;fill-rule:nonzero;stroke:none"
       d="m 31.75,11.082031 c 7.304688,0 13.230469,5.925781 13.230469,13.230469 0,7.304688 -5.925781,13.230469 -13.230469,13.230469 -7.304688,0 -13.230469,-5.925781 -13.230469,-13.230469 0,-7.304688 5.925781,-13.230469 13.230469,-13.230469 z m 0,0"
       id="path14"
       inkscape:connector-curvature="0" />
    <path
       style="fill:#3f3f3f;fill-opacity:0.99576302;fill-rule:nonzero;stroke:none"
       d="m 31.75,16.375 c 4.382812,0 7.9375,3.554688 7.9375,7.9375 0,4.382812 -3.554688,7.9375 -7.9375,7.9375 -4.382812,0 -7.9375,-3.554688 -7.9375,-7.9375 0,-4.382812 3.554688,-7.9375 7.9375,-7.9375 z m 0,0"
       id="path16"
       inkscape:connector-curvature="0" />
    <path
       style="fill:#bdbdbd;fill-opacity:0.99576302;fill-rule:nonzero;stroke:none"
       d="m 28.441406,19.019531 c 1.097656,0 1.984375,0.890625 1.984375,1.984375 0,1.097656 -0.886719,1.984375 -1.984375,1.984375 -1.09375,0 -1.984375,-0.886719 -1.984375,-1.984375 0,-1.09375 0.890625,-1.984375 1.984375,-1.984375 z m 0,0"
       id="path18"
       inkscape:connector-curvature="0" />
    <path
       style="fill:#ee514f;fill-opacity:1;fill-rule:nonzero;stroke:none"
       d="m 31.75,3.808594 c 1.097656,0 1.984375,0.886718 1.984375,1.984375 0,1.09375 -0.886719,1.984375 -1.984375,1.984375 -1.097656,0 -1.984375,-0.890625 -1.984375,-1.984375 0,-1.097657 0.886719,-1.984375 1.984375,-1.984375 z m 0,0"
       id="path20"
       inkscape:connector-curvature="0" />
    <path
       style="fill:#737373;fill-opacity:1;fill-rule:nonzero;stroke:none"
       d="M 22.488281,49.117188 V 56.0625 h 18.523438 v -6.945312 c -2.882813,1.070312 -6,1.652343 -9.261719,1.652343 -3.261719,0 -6.378906,-0.582031 -9.261719,-1.652343 z m 0,0"
       id="path22"
       inkscape:connector-curvature="0" />
    <path
       style="fill:#23a699;fill-opacity:1;fill-rule:nonzero;stroke:none"
       d="m 3.96875,56.0625 h 55.5625 c 0.730469,0 1.324219,0.59375 1.324219,1.324219 v 2.644531 c 0,0.730469 -0.59375,1.324219 -1.324219,1.324219 H 3.96875 c -0.730469,0 -1.324219,-0.59375 -1.324219,-1.324219 v -2.644531 c 0,-0.730469 0.59375,-1.324219 1.324219,-1.324219 z m 0,0"
       id="path24"
       inkscape:connector-curvature="0" />
  </g>
</svg>
