<?xml version="1.0" encoding="UTF-8" standalone="no"?>
<svg
   xmlns:dc="http://purl.org/dc/elements/1.1/"
   xmlns:cc="http://creativecommons.org/ns#"
   xmlns:rdf="http://www.w3.org/1999/02/22-rdf-syntax-ns#"
   xmlns:svg="http://www.w3.org/2000/svg"
   xmlns="http://www.w3.org/2000/svg"
   xmlns:sodipodi="http://sodipodi.sourceforge.net/DTD/sodipodi-0.dtd"
   xmlns:inkscape="http://www.inkscape.org/namespaces/inkscape"
   width="48"
   height="48"
   viewBox="0 0 48 48"
   version="1.1"
   id="svg21"
   sodipodi:docname="kdenlive.svg"
   inkscape:version="0.92.4 (5da689c313, 2019-01-14)">
  <metadata
     id="metadata27">
    <rdf:RDF>
      <cc:Work
         rdf:about="">
        <dc:format>image/svg+xml</dc:format>
        <dc:type
           rdf:resource="http://purl.org/dc/dcmitype/StillImage" />
        <dc:title></dc:title>
      </cc:Work>
    </rdf:RDF>
  </metadata>
  <defs
     id="defs25" />
  <sodipodi:namedview
     pagecolor="#ffffff"
     bordercolor="#666666"
     borderopacity="1"
     objecttolerance="10"
     gridtolerance="10"
     guidetolerance="10"
     inkscape:pageopacity="0"
     inkscape:pageshadow="2"
     inkscape:window-width="1280"
     inkscape:window-height="954"
     id="namedview23"
     showgrid="false"
     inkscape:zoom="7.375"
     inkscape:cx="11.61802"
     inkscape:cy="27.794556"
     inkscape:window-x="0"
     inkscape:window-y="0"
     inkscape:window-maximized="1"
     inkscape:current-layer="svg21" />
  <g
     id="surface1"
     transform="matrix(0.74617834,0,0,0.74617834,0.30883771,-0.0574628)">
    <path
       style="fill:#3f3f3f;fill-opacity:1;fill-rule:nonzero;stroke:none"
       d="m 5.292969,5.792969 h 52.914062 c 1.460938,0 2.648438,1.183593 2.648438,2.644531 v 47.625 c 0,1.460938 -1.1875,2.644531 -2.648438,2.644531 H 5.292969 c -1.460938,0 -2.648438,-1.183593 -2.648438,-2.644531 V 8.4375 c 0,-1.460938 1.1875,-2.644531 2.648438,-2.644531 z m 0,0"
       id="path2"
       inkscape:connector-curvature="0" />
    <path
       style="fill:#ee514f;fill-opacity:1;fill-rule:nonzero;stroke:none"
       d="m 26.457031,3.15625 c -1.097656,0 -1.710937,1.273438 -1.023437,2.132812 L 30.4375,11.542969 V 60.03125 c 0,0.04297 0.0039,0.08594 0.0078,0.132812 0.0039,0.04297 0.01172,0.08594 0.02344,0.128907 0.0078,0.04297 0.01953,0.08203 0.03125,0.125 0.02734,0.08203 0.0625,0.164062 0.105469,0.238281 0.08984,0.15625 0.203125,0.289062 0.34375,0.394531 0.03516,0.02734 0.07031,0.05469 0.105469,0.07813 0.03906,0.01953 0.07812,0.04297 0.117187,0.0625 0.03906,0.01953 0.07813,0.03516 0.121094,0.05078 0.08203,0.03125 0.164062,0.05469 0.253906,0.06641 0.214844,0.03516 0.4375,0.01563 0.644531,-0.05859 0.08203,-0.03125 0.164063,-0.07031 0.238282,-0.113281 0.03516,-0.02344 0.07422,-0.04687 0.109374,-0.07422 0.07031,-0.05078 0.132813,-0.113281 0.191407,-0.175781 0.02734,-0.03516 0.05469,-0.06641 0.08203,-0.105469 0.02734,-0.03516 0.05078,-0.07031 0.07031,-0.109375 0.113282,-0.195313 0.175782,-0.414063 0.179688,-0.640625 V 11.542969 l 5.003906,-6.253907 c 0.6875,-0.859374 0.07422,-2.132812 -1.023437,-2.132812 z m 0,0"
       id="path4"
       inkscape:connector-curvature="0" />
    <path
       style="fill:#3fa3f5;fill-opacity:1;fill-rule:nonzero;stroke:none"
       d="m 39.6875,21.667969 c -0.710938,0.02344 -1.273438,0.605469 -1.273438,1.3125 v 18.523437 c 0,1.039063 1.148438,1.667969 2.023438,1.109375 l 14.554688,-9.257812 c 0.8125,-0.519531 0.8125,-1.707031 0,-2.222657 L 40.4375,21.871094 c -0.222656,-0.140625 -0.484375,-0.214844 -0.75,-0.203125 z m 0,0"
       id="path6"
       inkscape:connector-curvature="0" />
    <path
       style="fill:#3fa3f5;fill-opacity:1;fill-rule:nonzero;stroke:none"
       d="m 21.828125,18.359375 h 5.292969 c 0.363281,0 0.660156,0.296875 0.660156,0.660156 0,0.367188 -0.296875,0.664063 -0.660156,0.664063 h -5.292969 c -0.367187,0 -0.660156,-0.296875 -0.660156,-0.664063 0,-0.363281 0.292969,-0.660156 0.660156,-0.660156 z m 0,0"
       id="path8"
       inkscape:connector-curvature="0" />
    <path
       style="fill:#3fa3f5;fill-opacity:1;fill-rule:nonzero;stroke:none"
       d="m 17.859375,23.652344 h 9.261719 c 0.363281,0 0.660156,0.292968 0.660156,0.660156 0,0.367188 -0.296875,0.660156 -0.660156,0.660156 h -9.261719 c -0.367187,0 -0.660156,-0.292968 -0.660156,-0.660156 0,-0.367188 0.292969,-0.660156 0.660156,-0.660156 z m 0,0"
       id="path10"
       inkscape:connector-curvature="0" />
    <path
       style="fill:#3fa3f5;fill-opacity:1;fill-rule:nonzero;stroke:none"
       d="m 11.246094,28.941406 h 15.875 c 0.363281,0 0.660156,0.296875 0.660156,0.664063 0,0.363281 -0.296875,0.660156 -0.660156,0.660156 h -15.875 c -0.367188,0 -0.664063,-0.296875 -0.664063,-0.660156 0,-0.367188 0.296875,-0.664063 0.664063,-0.664063 z m 0,0"
       id="path12"
       inkscape:connector-curvature="0" />
    <path
       style="fill:#3fa3f5;fill-opacity:1;fill-rule:nonzero;stroke:none"
       d="m 5.953125,34.234375 h 21.167969 c 0.363281,0 0.660156,0.296875 0.660156,0.660156 0,0.367188 -0.296875,0.664063 -0.660156,0.664063 H 5.953125 c -0.367187,0 -0.660156,-0.296875 -0.660156,-0.664063 0,-0.363281 0.292969,-0.660156 0.660156,-0.660156 z m 0,0"
       id="path14"
       inkscape:connector-curvature="0" />
    <path
       style="fill:#3fa3f5;fill-opacity:1;fill-rule:nonzero;stroke:none"
       d="m 11.246094,39.527344 h 15.875 c 0.363281,0 0.660156,0.292968 0.660156,0.660156 0,0.367188 -0.296875,0.660156 -0.660156,0.660156 h -15.875 c -0.367188,0 -0.664063,-0.292968 -0.664063,-0.660156 0,-0.367188 0.296875,-0.660156 0.664063,-0.660156 z m 0,0"
       id="path16"
       inkscape:connector-curvature="0" />
    <path
       style="fill:#3fa3f5;fill-opacity:1;fill-rule:nonzero;stroke:none"
       d="m 21.828125,44.816406 h 5.292969 c 0.363281,0 0.660156,0.296875 0.660156,0.664063 0,0.363281 -0.296875,0.660156 -0.660156,0.660156 h -5.292969 c -0.367187,0 -0.660156,-0.296875 -0.660156,-0.660156 0,-0.367188 0.292969,-0.664063 0.660156,-0.664063 z m 0,0"
       id="path18"
       inkscape:connector-curvature="0" />
  </g>
</svg>
