<?xml version="1.0" encoding="UTF-8" standalone="no"?>
<svg
   xmlns:dc="http://purl.org/dc/elements/1.1/"
   xmlns:cc="http://creativecommons.org/ns#"
   xmlns:rdf="http://www.w3.org/1999/02/22-rdf-syntax-ns#"
   xmlns:svg="http://www.w3.org/2000/svg"
   xmlns="http://www.w3.org/2000/svg"
   xmlns:sodipodi="http://sodipodi.sourceforge.net/DTD/sodipodi-0.dtd"
   xmlns:inkscape="http://www.inkscape.org/namespaces/inkscape"
   width="48"
   height="48"
   viewBox="0 0 48 48"
   version="1.1"
   id="svg13"
   sodipodi:docname="kdevelop.svg"
   inkscape:version="0.92.4 (5da689c313, 2019-01-14)">
  <metadata
     id="metadata19">
    <rdf:RDF>
      <cc:Work
         rdf:about="">
        <dc:format>image/svg+xml</dc:format>
        <dc:type
           rdf:resource="http://purl.org/dc/dcmitype/StillImage" />
        <dc:title></dc:title>
      </cc:Work>
    </rdf:RDF>
  </metadata>
  <defs
     id="defs17" />
  <sodipodi:namedview
     pagecolor="#ffffff"
     bordercolor="#666666"
     borderopacity="1"
     objecttolerance="10"
     gridtolerance="10"
     guidetolerance="10"
     inkscape:pageopacity="0"
     inkscape:pageshadow="2"
     inkscape:window-width="1280"
     inkscape:window-height="954"
     id="namedview15"
     showgrid="false"
     inkscape:zoom="3.6875"
     inkscape:cx="27.254237"
     inkscape:cy="32"
     inkscape:window-x="0"
     inkscape:window-y="0"
     inkscape:window-maximized="1"
     inkscape:current-layer="svg13" />
  <g
     id="surface1"
     transform="matrix(0.73931942,0,0,0.73931942,0.52660842,0.15694925)">
    <path
       style="fill:#dedede;fill-opacity:1;fill-rule:nonzero;stroke:none"
       d="M 38.957031,4.035156 C 34.15625,2.800781 29.199219,2.835938 24.539062,4.027344 c 1.503907,3.628906 0.125,7.871094 -3.371093,9.890625 -3.496094,2.019531 -7.855469,1.09375 -10.246094,-2.015625 -1.65625,1.703125 -3.132813,3.640625 -4.375,5.796875 -1.246094,2.152343 -2.183594,4.398437 -2.832031,6.683593 1.042968,0.140626 2.015625,0.480469 2.886718,0.976563 2.382813,1.367187 3.980469,3.9375 3.980469,6.890625 0,4.039062 -2.984375,7.355469 -6.878906,7.867188 1.296875,4.628906 3.746094,8.941406 7.214844,12.480468 2.394531,-3.109375 6.753906,-4.035156 10.25,-2.015625 3.492187,2.015625 4.871093,6.253907 3.375,9.882813 4.800781,1.234375 9.757812,1.199218 14.417969,0.0078 -1.503907,-3.628906 -0.125,-7.871094 3.371093,-9.890625 2.558594,-1.476562 5.582031,-1.378906 7.957031,0 0.867188,0.507813 1.648438,1.179688 2.292969,2.011719 1.652344,-1.699219 3.128907,-3.636719 4.371094,-5.792969 1.246094,-2.152343 2.183594,-4.398437 2.832031,-6.683593 -3.886718,-0.519532 -6.867187,-3.832032 -6.867187,-7.867188 0,-4.039062 2.984375,-7.355469 6.878906,-7.867188 C 58.5,19.753906 56.050781,15.441406 52.582031,11.902344 c -2.394531,3.109375 -6.753906,4.035156 -10.25,2.015625 -3.492187,-2.015625 -4.871093,-6.253907 -3.375,-9.882813 z m 0,0"
       id="path2"
       inkscape:connector-curvature="0" />
    <path
       style="fill:#737373;fill-opacity:1;fill-rule:nonzero;stroke:none"
       d="m 31.75,13.730469 c 10.230469,0 18.519531,8.289062 18.519531,18.519531 0,10.230469 -8.289062,18.519531 -18.519531,18.519531 -10.230469,0 -18.519531,-8.289062 -18.519531,-18.519531 0,-10.230469 8.289062,-18.519531 18.519531,-18.519531 z m 0,0"
       id="path4"
       inkscape:connector-curvature="0" />
    <path
       style="fill:#66ba68;fill-opacity:1;fill-rule:nonzero;stroke:none"
       d="m 31.75,16.375 c 8.765625,0 15.875,7.109375 15.875,15.875 0,8.765625 -7.109375,15.875 -15.875,15.875 -8.765625,0 -15.875,-7.109375 -15.875,-15.875 0,-8.765625 7.109375,-15.875 15.875,-15.875 z m 0,0"
       id="path6"
       inkscape:connector-curvature="0" />
    <path
       style="fill:#616161;fill-opacity:1;fill-rule:nonzero;stroke:none"
       d="m 19.84375,36.878906 c -0.222656,0.238282 -0.214844,0.613282 0.01563,0.84375 l 6.019531,6.019532 c 0.335938,0.335937 0.914063,0.167968 1.015625,-0.296876 l 1.722657,-7.742187 c 0.09375,-0.429687 -0.292969,-0.816406 -0.722657,-0.71875 l -7.738281,1.71875 c -0.121094,0.02734 -0.230469,0.08984 -0.3125,0.175781 z m 0,0"
       id="path8"
       inkscape:connector-curvature="0" />
    <path
       style="fill:#a3d4a6;fill-opacity:1;fill-rule:nonzero;stroke:none"
       d="m 22.25,23.230469 c 2.324219,-2.324219 5.253906,-3.164063 6.546875,-1.871094 1.292969,1.292969 0.453125,4.222656 -1.871094,6.546875 -2.324219,2.324219 -5.257812,3.164062 -6.546875,1.871094 C 19.085938,28.488281 19.925781,25.554688 22.25,23.230469 Z m 0,0"
       id="path10"
       inkscape:connector-curvature="0" />
  </g>
</svg>
