<?xml version="1.0" encoding="UTF-8" standalone="no"?>
<svg
   xmlns:dc="http://purl.org/dc/elements/1.1/"
   xmlns:cc="http://creativecommons.org/ns#"
   xmlns:rdf="http://www.w3.org/1999/02/22-rdf-syntax-ns#"
   xmlns:svg="http://www.w3.org/2000/svg"
   xmlns="http://www.w3.org/2000/svg"
   xmlns:sodipodi="http://sodipodi.sourceforge.net/DTD/sodipodi-0.dtd"
   xmlns:inkscape="http://www.inkscape.org/namespaces/inkscape"
   width="48"
   height="48"
   viewBox="0 0 48 48"
   version="1.1"
   id="svg37"
   sodipodi:docname="alsamixergui.svg"
   inkscape:version="0.92.4 (5da689c313, 2019-01-14)">
  <metadata
     id="metadata43">
    <rdf:RDF>
      <cc:Work
         rdf:about="">
        <dc:format>image/svg+xml</dc:format>
        <dc:type
           rdf:resource="http://purl.org/dc/dcmitype/StillImage" />
        <dc:title></dc:title>
      </cc:Work>
    </rdf:RDF>
  </metadata>
  <defs
     id="defs41">
    <linearGradient
       id="i"
       x1="400.39999"
       x2="400.39999"
       y1="545.62"
       y2="517.62"
       gradientTransform="matrix(1.7860297,0,0,1.7860297,-661.88707,-1016.3092)"
       gradientUnits="userSpaceOnUse">
      <stop
         stop-color="#d3d3d3"
         offset="0"
         id="stop4" />
      <stop
         stop-color="#fcf9f9"
         offset="1"
         id="stop6" />
    </linearGradient>
    <linearGradient
       id="f"
       x1="400.39999"
       x2="400.39999"
       y1="545.62"
       y2="517.62"
       gradientTransform="matrix(1.8445807,0,0,1.8445807,-745.91898,-1022.5134)"
       gradientUnits="userSpaceOnUse">
      <stop
         stop-color="#8d3aff"
         offset="0"
         id="stop9" />
      <stop
         stop-color="#ff3680"
         offset="1"
         id="stop11" />
    </linearGradient>
    <linearGradient
       id="i-3"
       x1="400.39999"
       x2="400.39999"
       y1="545.62"
       y2="517.62"
       gradientTransform="matrix(0.41967,0,0,0.41967,-173.34,-178.23)"
       gradientUnits="userSpaceOnUse">
      <stop
         stop-color="#d3d3d3"
         offset="0"
         id="stop19" />
      <stop
         stop-color="#fcf9f9"
         offset="1"
         id="stop21" />
    </linearGradient>
    <linearGradient
       id="f-6"
       x1="400.39999"
       x2="400.39999"
       y1="545.62"
       y2="517.62"
       gradientTransform="matrix(0.43343,0,0,0.43343,-193.09,-179.69)"
       gradientUnits="userSpaceOnUse">
      <stop
         stop-color="#8d3aff"
         offset="0"
         id="stop24" />
      <stop
         stop-color="#ff3680"
         offset="1"
         id="stop26" />
    </linearGradient>
    <linearGradient
       id="linearGradient1634"
       x1="-54.827999"
       x2="-63.444"
       y1="-1.7294"
       y2="-11.074"
       gradientTransform="matrix(1.0909,0,0,1.0909,61.281,70.76)"
       gradientUnits="userSpaceOnUse">
      <stop
         stop-color="#8f62bc"
         offset="0"
         id="stop14" />
      <stop
         stop-color="#f7904e"
         offset="1"
         id="stop16" />
    </linearGradient>
    <linearGradient
       id="linearGradient987"
       x1="-54.827999"
       x2="-63.444"
       y1="-1.7294"
       y2="-11.074"
       gradientTransform="matrix(3.4523,0,0,3.4523,191.99,263.05)"
       gradientUnits="userSpaceOnUse">
      <stop
         stop-color="#232223"
         offset="0"
         id="stop29" />
      <stop
         stop-color="#49484d"
         offset="1"
         id="stop31" />
    </linearGradient>
    <linearGradient
       id="linearGradient1034"
       x1="-54.827999"
       x2="-63.444"
       y1="-1.7294"
       y2="-11.074"
       gradientTransform="matrix(0.3727,0,0,0.3727,18.862,66.055)"
       gradientUnits="userSpaceOnUse">
      <stop
         stop-color="#d2d2d2"
         offset="0"
         id="stop34" />
      <stop
         stop-color="#fff"
         offset="1"
         id="stop36" />
    </linearGradient>
    <linearGradient
       id="linearGradient1044"
       x1="-54.827999"
       x2="-63.444"
       y1="-1.7294"
       y2="-11.074"
       gradientTransform="matrix(0.14259,0,0,0.14259,5.2712,64.548)"
       gradientUnits="userSpaceOnUse">
      <stop
         stop-color="#232223"
         offset="0"
         id="stop39" />
      <stop
         stop-color="#49484d"
         offset="1"
         id="stop41" />
    </linearGradient>
  </defs>
  <sodipodi:namedview
     pagecolor="#ffffff"
     bordercolor="#666666"
     borderopacity="1"
     objecttolerance="10"
     gridtolerance="10"
     guidetolerance="10"
     inkscape:pageopacity="0"
     inkscape:pageshadow="2"
     inkscape:window-width="1280"
     inkscape:window-height="954"
     id="namedview39"
     showgrid="false"
     inkscape:zoom="5.2149125"
     inkscape:cx="42.840582"
     inkscape:cy="42.311024"
     inkscape:window-x="0"
     inkscape:window-y="0"
     inkscape:window-maximized="1"
     inkscape:current-layer="svg37" />
  <g
     id="g3892"
     transform="matrix(0.72829815,0,0,0.72829815,0.69445922,12.34723)">
    <rect
       ry="6.7013569"
       y="-10.920547"
       x="4.5891018"
       height="53.841095"
       width="54.821796"
       id="rect2996-3"
       style="fill:#bdbdbd;fill-opacity:1;stroke:none;stroke-width:0.13947983" />
    <circle
       id="circle46"
       r="0"
       cy="-66.494217"
       cx="53.548336"
       style="fill:url(#i);stroke-width:1.12598014" />
    <circle
       id="circle48"
       r="0"
       cy="-41.547005"
       cx="-7.0165606"
       style="fill:none;stroke:url(#f);stroke-width:2.398" />
    <g
       id="surface1"
       transform="matrix(1.0790605,0,0,1.0790605,-2.2601709,-18.799701)">
      <path
         id="path2"
         d="m 31.75,3.144531 c -6.625,0 -12.71875,2.191407 -17.601562,5.894531 L 13.042969,7.929688 C 11.488281,6.375 8.984375,6.375 7.429688,7.929688 5.875,9.484375 5.875,11.988281 7.429688,13.542969 l 1.109374,1.105469 C 4.835938,19.53125 2.644531,25.625 2.644531,32.25 c 0,6.625 2.191407,12.71875 5.894531,17.601562 l -1.109374,1.105469 c -1.554688,1.554688 -1.554688,4.058594 0,5.613281 1.554687,1.554688 4.058593,1.554688 5.613281,0 l 1.105469,-1.109374 C 19.03125,59.164062 25.125,61.355469 31.75,61.355469 c 6.625,0 12.71875,-2.191407 17.601562,-5.894531 l 1.105469,1.109374 c 1.554688,1.554688 4.058594,1.554688 5.613281,0 1.554688,-1.554687 1.554688,-4.058593 0,-5.613281 L 54.960938,49.851562 C 58.664062,44.96875 60.855469,38.875 60.855469,32.25 c 0,-6.625 -2.191407,-12.71875 -5.894531,-17.601562 l 1.109374,-1.105469 c 1.554688,-1.554688 1.554688,-4.058594 0,-5.613281 -1.554687,-1.554688 -4.058593,-1.554688 -5.613281,0 L 49.351562,9.039062 C 44.46875,5.335938 38.375,3.144531 31.75,3.144531 Z m 22.449219,5.332031 c 0.339843,0 0.679687,0.128907 0.9375,0.386719 0.519531,0.519531 0.519531,1.351563 0,1.871094 -0.519531,0.519531 -1.351563,0.519531 -1.871094,0 -0.519531,-0.519531 -0.519531,-1.351563 0,-1.871094 0.257813,-0.257812 0.597656,-0.386719 0.933594,-0.386719 z M 10.234375,9.410156 c 0.339844,0 0.675781,0.128906 0.9375,0.390625 0.453125,0.453125 0.507813,1.15625 0.164063,1.671875 -0.125,0.117188 -0.246094,0.238282 -0.363282,0.363282 -0.515625,0.34375 -1.21875,0.289062 -1.671875,-0.164063 -0.519531,-0.519531 -0.519531,-1.355469 0,-1.871094 0.257813,-0.261719 0.597657,-0.390625 0.933594,-0.390625 z m 0,43.03125 c 0.257813,0 0.515625,0.07422 0.738281,0.222656 0.117188,0.125 0.238282,0.246094 0.363282,0.363282 0.34375,0.515625 0.289062,1.21875 -0.164063,1.671875 -0.519531,0.519531 -1.355469,0.519531 -1.871094,0 -0.519531,-0.515625 -0.519531,-1.351563 0,-1.871094 0.257813,-0.257813 0.597657,-0.386719 0.933594,-0.386719 z M 54.199219,53.375 c 0.339843,0 0.679687,0.132812 0.9375,0.390625 0.519531,0.519531 0.519531,1.351563 0,1.871094 -0.519531,0.519531 -1.351563,0.519531 -1.871094,0 -0.519531,-0.519531 -0.519531,-1.351563 0,-1.871094 C 53.523438,53.507812 53.863281,53.375 54.199219,53.375 Z m 0,0"
         style="fill:#bdbdbd;fill-opacity:1;fill-rule:nonzero;stroke:none"
         inkscape:connector-curvature="0" />
      <path
         id="path4"
         d="m 31.75,5.792969 c 14.613281,0 26.457031,11.84375 26.457031,26.457031 0,14.613281 -11.84375,26.457031 -26.457031,26.457031 C 17.136719,58.707031 5.292969,46.863281 5.292969,32.25 5.292969,17.636719 17.136719,5.792969 31.75,5.792969 Z m 0,0"
         style="fill:#3f3f3f;fill-opacity:1;fill-rule:nonzero;stroke:none"
         inkscape:connector-curvature="0" />
      <path
         id="path6"
         d="m 31.75,8.4375 c 13.152344,0 23.8125,10.660156 23.8125,23.8125 0,13.152344 -10.660156,23.8125 -23.8125,23.8125 C 18.597656,56.0625 7.9375,45.402344 7.9375,32.25 7.9375,19.097656 18.597656,8.4375 31.75,8.4375 Z m 0,0"
         style="fill:#ffa623;fill-opacity:1;fill-rule:nonzero;stroke:none"
         inkscape:connector-curvature="0" />
      <path
         id="path8"
         d="m 31.75,21.667969 c 5.84375,0 10.582031,4.738281 10.582031,10.582031 0,5.84375 -4.738281,10.582031 -10.582031,10.582031 -5.84375,0 -10.582031,-4.738281 -10.582031,-10.582031 0,-5.84375 4.738281,-10.582031 10.582031,-10.582031 z m 0,0"
         style="fill:#3f3f3f;fill-opacity:1;fill-rule:nonzero;stroke:none"
         inkscape:connector-curvature="0" />
    </g>
    <circle
       r="1.5580319"
       cy="-7.7823601"
       cx="55.822079"
       id="path3915"
       style="opacity:1;fill:#394050;fill-opacity:1;stroke:none;stroke-width:0.25;stroke-linecap:round;stroke-linejoin:round;stroke-miterlimit:4;stroke-dasharray:none;stroke-opacity:1" />
    <circle
       r="1.5580319"
       cy="39.507904"
       cx="55.710457"
       id="path3915-6"
       style="opacity:1;fill:#394050;fill-opacity:1;stroke:none;stroke-width:0.25;stroke-linecap:round;stroke-linejoin:round;stroke-miterlimit:4;stroke-dasharray:none;stroke-opacity:1" />
    <circle
       r="1.5580319"
       cy="39.566063"
       cx="8.4339361"
       id="path3915-6-7"
       style="opacity:1;fill:#394050;fill-opacity:1;stroke:none;stroke-width:0.25;stroke-linecap:round;stroke-linejoin:round;stroke-miterlimit:4;stroke-dasharray:none;stroke-opacity:1" />
    <circle
       r="1.5580319"
       cy="-7.5720339"
       cx="8.464426"
       id="path3915-6-7-5"
       style="opacity:1;fill:#394050;fill-opacity:1;stroke:none;stroke-width:0.25;stroke-linecap:round;stroke-linejoin:round;stroke-miterlimit:4;stroke-dasharray:none;stroke-opacity:1" />
  </g>
</svg>
