<?xml version="1.0" encoding="UTF-8" standalone="no"?>
<svg
   xmlns:dc="http://purl.org/dc/elements/1.1/"
   xmlns:cc="http://creativecommons.org/ns#"
   xmlns:rdf="http://www.w3.org/1999/02/22-rdf-syntax-ns#"
   xmlns:svg="http://www.w3.org/2000/svg"
   xmlns="http://www.w3.org/2000/svg"
   xmlns:sodipodi="http://sodipodi.sourceforge.net/DTD/sodipodi-0.dtd"
   xmlns:inkscape="http://www.inkscape.org/namespaces/inkscape"
   width="48"
   height="48"
   viewBox="0 0 48 48"
   version="1.1"
   id="svg11"
   sodipodi:docname="opendesktop.svg"
   inkscape:version="0.92.4 (5da689c313, 2019-01-14)">
  <metadata
     id="metadata17">
    <rdf:RDF>
      <cc:Work
         rdf:about="">
        <dc:format>image/svg+xml</dc:format>
        <dc:type
           rdf:resource="http://purl.org/dc/dcmitype/StillImage" />
        <dc:title></dc:title>
      </cc:Work>
    </rdf:RDF>
  </metadata>
  <defs
     id="defs15" />
  <sodipodi:namedview
     pagecolor="#ffffff"
     bordercolor="#666666"
     borderopacity="1"
     objecttolerance="10"
     gridtolerance="10"
     guidetolerance="10"
     inkscape:pageopacity="0"
     inkscape:pageshadow="2"
     inkscape:window-width="1280"
     inkscape:window-height="954"
     id="namedview13"
     showgrid="false"
     inkscape:zoom="3.6875"
     inkscape:cx="27.254237"
     inkscape:cy="32"
     inkscape:window-x="0"
     inkscape:window-y="0"
     inkscape:window-maximized="1"
     inkscape:current-layer="svg11" />
  <g
     id="surface1"
     transform="matrix(0.73445494,0,0,0.73445494,0.68105566,0.31382818)">
    <path
       style="fill:#23c5d9;fill-opacity:1;fill-rule:nonzero;stroke:none"
       d="m 31.753906,3.144531 c -7.75,0 -14.773437,3 -19.980468,7.902344 l 6.257812,6.253906 c 0.433594,-0.234375 0.933594,-0.371093 1.464844,-0.371093 h 24.507812 c 0.535156,0 1.03125,0.136718 1.464844,0.371093 l 6.257812,-6.253906 C 46.523438,6.144531 39.5,3.144531 31.753906,3.144531 Z m 0,0"
       id="path2"
       inkscape:connector-curvature="0" />
    <path
       style="fill:#eb3f78;fill-opacity:1;fill-rule:nonzero;stroke:none"
       d="M 10.550781,12.273438 C 5.640625,17.476562 2.644531,24.503906 2.644531,32.25 c 0,7.746094 2.996094,14.769531 7.90625,19.976562 L 16.804688,45.96875 C 16.570312,45.535156 16.433594,45.035156 16.433594,44.507812 V 19.992188 c 0,-0.527344 0.132812,-1.027344 0.371094,-1.464844 z m 0,0"
       id="path4"
       inkscape:connector-curvature="0" />
    <path
       style="fill:#ff6e42;fill-opacity:1;fill-rule:nonzero;stroke:none"
       d="m 52.953125,12.273438 -6.253906,6.253906 c 0.234375,0.4375 0.371093,0.9375 0.371093,1.464844 v 24.515624 c 0,0.527344 -0.136718,1.03125 -0.371093,1.464844 l 6.253906,6.253906 c 4.90625,-5.207031 7.902344,-12.230468 7.902344,-19.976562 0,-7.746094 -2.996094,-14.773438 -7.902344,-19.976562 z m 0,0"
       id="path6"
       inkscape:connector-curvature="0" />
    <path
       style="fill:#ffa623;fill-opacity:1;fill-rule:nonzero;stroke:none"
       d="m 45.46875,47.199219 c -0.433594,0.234375 -0.929688,0.371093 -1.464844,0.371093 H 26.445312 l -7.917968,6.785157 C 17.96875,54.835938 17.097656,54.4375 17.09375,53.695312 v -5.5625 l -5.320312,5.320313 c 5.207031,4.90625 12.230468,7.902344 19.980468,7.902344 7.746094,0 14.769532,-2.996094 19.972656,-7.902344 z m 0,0"
       id="path8"
       inkscape:connector-curvature="0" />
  </g>
</svg>
