<?xml version="1.0" encoding="UTF-8" standalone="no"?>
<svg
   xmlns:dc="http://purl.org/dc/elements/1.1/"
   xmlns:cc="http://creativecommons.org/ns#"
   xmlns:rdf="http://www.w3.org/1999/02/22-rdf-syntax-ns#"
   xmlns:svg="http://www.w3.org/2000/svg"
   xmlns="http://www.w3.org/2000/svg"
   xmlns:sodipodi="http://sodipodi.sourceforge.net/DTD/sodipodi-0.dtd"
   xmlns:inkscape="http://www.inkscape.org/namespaces/inkscape"
   width="48"
   height="48"
   viewBox="0 0 48 48"
   version="1.1"
   id="svg79"
   sodipodi:docname="openshot.svg"
   inkscape:version="0.92.4 (5da689c313, 2019-01-14)">
  <metadata
     id="metadata85">
    <rdf:RDF>
      <cc:Work
         rdf:about="">
        <dc:format>image/svg+xml</dc:format>
        <dc:type
           rdf:resource="http://purl.org/dc/dcmitype/StillImage" />
        <dc:title></dc:title>
      </cc:Work>
    </rdf:RDF>
  </metadata>
  <defs
     id="defs83" />
  <sodipodi:namedview
     pagecolor="#ffffff"
     bordercolor="#666666"
     borderopacity="1"
     objecttolerance="10"
     gridtolerance="10"
     guidetolerance="10"
     inkscape:pageopacity="0"
     inkscape:pageshadow="2"
     inkscape:window-width="1280"
     inkscape:window-height="954"
     id="namedview81"
     showgrid="false"
     inkscape:zoom="3.6875"
     inkscape:cx="27.254237"
     inkscape:cy="32"
     inkscape:window-x="0"
     inkscape:window-y="0"
     inkscape:window-maximized="1"
     inkscape:current-layer="svg79" />
  <g
     id="surface1"
     transform="matrix(0.72977812,0,0,0.72977812,0.82954469,0.46323001)">
    <path
       style="fill:#eeeeee;fill-opacity:1;fill-rule:nonzero;stroke:none"
       d="M 31.941406,61.355469 C 39.914062,61.253906 46.300781,54.800781 46.300781,46.804688 46.300781,38.742188 39.8125,32.25 31.75,32.25 c 0,0 -0.0039,0 -0.0039,0 -8.0625,0 -14.546875,-6.492188 -14.546875,-14.550781 0,-8.0625 6.488281,-14.550781 14.550781,-14.550781 0.0625,0 0.128906,0 0.191406,0 C 47.976562,3.25 60.855469,16.191406 60.855469,32.25 c 0,16.0625 -12.878907,29 -28.914063,29.105469 z m 0,0"
       id="path2"
       inkscape:connector-curvature="0" />
    <path
       style="fill:#3fa3f5;fill-opacity:1;fill-rule:nonzero;stroke:none"
       d="M 31.558594,3.148438 C 23.585938,3.25 17.199219,9.699219 17.199219,17.699219 17.199219,25.761719 23.6875,32.25 31.75,32.25 c 0,0 0.0039,0 0.0039,0 8.058594,0.0039 14.546875,6.492188 14.546875,14.550781 0,8.0625 -6.488281,14.554688 -14.550781,14.554688 -0.0625,0 -0.128906,0 -0.191406,-0.0039 C 15.523438,61.25 2.644531,48.308594 2.644531,32.25 c 0,-16.058594 12.878907,-29 28.914063,-29.101562 z m 0,0"
       id="path4"
       inkscape:connector-curvature="0" />
    <path
       style="fill:#3f3f3f;fill-opacity:1;fill-rule:nonzero;stroke:none"
       d="m 3.96875,24.3125 h 55.5625 c 0.730469,0 1.324219,0.59375 1.324219,1.324219 V 44.15625 c 0,0.730469 -0.59375,1.324219 -1.324219,1.324219 H 3.96875 c -0.730469,0 -1.324219,-0.59375 -1.324219,-1.324219 V 25.636719 c 0,-0.730469 0.59375,-1.324219 1.324219,-1.324219 z m 0,0"
       id="path6"
       inkscape:connector-curvature="0" />
    <path
       style="fill:#616161;fill-opacity:1;fill-rule:nonzero;stroke:none"
       d="m 6.613281,29.605469 h 3.96875 c 0.730469,0 1.324219,0.589843 1.324219,1.320312 v 7.9375 c 0,0.730469 -0.59375,1.324219 -1.324219,1.324219 h -3.96875 c -0.730469,0 -1.320312,-0.59375 -1.320312,-1.324219 v -7.9375 c 0,-0.730469 0.589843,-1.320312 1.320312,-1.320312 z m 0,0"
       id="path8"
       inkscape:connector-curvature="0" />
    <path
       style="fill:#616161;fill-opacity:1;fill-rule:nonzero;stroke:none"
       d="m 15.875,29.605469 h 6.613281 c 0.730469,0 1.324219,0.589843 1.324219,1.320312 v 7.9375 c 0,0.730469 -0.59375,1.324219 -1.324219,1.324219 H 15.875 c -0.730469,0 -1.324219,-0.59375 -1.324219,-1.324219 v -7.9375 c 0,-0.730469 0.59375,-1.320312 1.324219,-1.320312 z m 0,0"
       id="path10"
       inkscape:connector-curvature="0" />
    <path
       style="fill:#616161;fill-opacity:1;fill-rule:nonzero;stroke:none"
       d="m 52.917969,29.605469 h 3.96875 c 0.730469,0 1.320312,0.589843 1.320312,1.320312 v 7.9375 c 0,0.730469 -0.589843,1.324219 -1.320312,1.324219 h -3.96875 c -0.730469,0 -1.324219,-0.59375 -1.324219,-1.324219 v -7.9375 c 0,-0.730469 0.59375,-1.320312 1.324219,-1.320312 z m 0,0"
       id="path12"
       inkscape:connector-curvature="0" />
    <path
       style="fill:#616161;fill-opacity:1;fill-rule:nonzero;stroke:none"
       d="M 41.011719,29.605469 H 47.625 c 0.730469,0 1.324219,0.589843 1.324219,1.320312 v 7.9375 c 0,0.730469 -0.59375,1.324219 -1.324219,1.324219 h -6.613281 c -0.730469,0 -1.324219,-0.59375 -1.324219,-1.324219 v -7.9375 c 0,-0.730469 0.59375,-1.320312 1.324219,-1.320312 z m 0,0"
       id="path14"
       inkscape:connector-curvature="0" />
    <path
       style="fill:#616161;fill-opacity:1;fill-rule:nonzero;stroke:none"
       d="m 27.78125,29.605469 h 7.9375 c 0.730469,0 1.324219,0.589843 1.324219,1.320312 v 7.9375 c 0,0.730469 -0.59375,1.324219 -1.324219,1.324219 h -7.9375 c -0.730469,0 -1.324219,-0.59375 -1.324219,-1.324219 v -7.9375 c 0,-0.730469 0.59375,-1.320312 1.324219,-1.320312 z m 0,0"
       id="path16"
       inkscape:connector-curvature="0" />
    <path
       style="fill:#616161;fill-opacity:1;fill-rule:nonzero;stroke:none"
       d="m 31.089844,25.636719 h 1.320312 c 0.367188,0 0.664063,0.292969 0.664063,0.660156 v 1.324219 c 0,0.363281 -0.296875,0.660156 -0.664063,0.660156 h -1.320312 c -0.367188,0 -0.664063,-0.296875 -0.664063,-0.660156 v -1.324219 c 0,-0.367187 0.296875,-0.660156 0.664063,-0.660156 z m 0,0"
       id="path18"
       inkscape:connector-curvature="0" />
    <path
       style="fill:#616161;fill-opacity:1;fill-rule:nonzero;stroke:none"
       d="m 27.121094,25.636719 h 1.320312 c 0.367188,0 0.664063,0.292969 0.664063,0.660156 v 1.324219 c 0,0.363281 -0.296875,0.660156 -0.664063,0.660156 h -1.320312 c -0.367188,0 -0.664063,-0.296875 -0.664063,-0.660156 v -1.324219 c 0,-0.367187 0.296875,-0.660156 0.664063,-0.660156 z m 0,0"
       id="path20"
       inkscape:connector-curvature="0" />
    <path
       style="fill:#616161;fill-opacity:1;fill-rule:nonzero;stroke:none"
       d="m 19.183594,25.636719 h 1.320312 c 0.367188,0 0.664063,0.292969 0.664063,0.660156 v 1.324219 c 0,0.363281 -0.296875,0.660156 -0.664063,0.660156 h -1.320312 c -0.367188,0 -0.664063,-0.296875 -0.664063,-0.660156 v -1.324219 c 0,-0.367187 0.296875,-0.660156 0.664063,-0.660156 z m 0,0"
       id="path22"
       inkscape:connector-curvature="0" />
    <path
       style="fill:#616161;fill-opacity:1;fill-rule:nonzero;stroke:none"
       d="m 23.152344,25.636719 h 1.320312 c 0.367188,0 0.664063,0.292969 0.664063,0.660156 v 1.324219 c 0,0.363281 -0.296875,0.660156 -0.664063,0.660156 h -1.320312 c -0.367188,0 -0.664063,-0.296875 -0.664063,-0.660156 v -1.324219 c 0,-0.367187 0.296875,-0.660156 0.664063,-0.660156 z m 0,0"
       id="path24"
       inkscape:connector-curvature="0" />
    <path
       style="fill:#616161;fill-opacity:1;fill-rule:nonzero;stroke:none"
       d="m 15.214844,25.636719 h 1.320312 c 0.367188,0 0.664063,0.292969 0.664063,0.660156 v 1.324219 c 0,0.363281 -0.296875,0.660156 -0.664063,0.660156 h -1.320312 c -0.367188,0 -0.664063,-0.296875 -0.664063,-0.660156 v -1.324219 c 0,-0.367187 0.296875,-0.660156 0.664063,-0.660156 z m 0,0"
       id="path26"
       inkscape:connector-curvature="0" />
    <path
       style="fill:#616161;fill-opacity:1;fill-rule:nonzero;stroke:none"
       d="m 11.246094,25.636719 h 1.320312 c 0.367188,0 0.664063,0.292969 0.664063,0.660156 v 1.324219 c 0,0.363281 -0.296875,0.660156 -0.664063,0.660156 h -1.320312 c -0.367188,0 -0.664063,-0.296875 -0.664063,-0.660156 v -1.324219 c 0,-0.367187 0.296875,-0.660156 0.664063,-0.660156 z m 0,0"
       id="path28"
       inkscape:connector-curvature="0" />
    <path
       style="fill:#616161;fill-opacity:1;fill-rule:nonzero;stroke:none"
       d="m 7.277344,25.636719 h 1.320312 c 0.367188,0 0.664063,0.292969 0.664063,0.660156 v 1.324219 c 0,0.363281 -0.296875,0.660156 -0.664063,0.660156 H 7.277344 c -0.367188,0 -0.664063,-0.296875 -0.664063,-0.660156 v -1.324219 c 0,-0.367187 0.296875,-0.660156 0.664063,-0.660156 z m 0,0"
       id="path30"
       inkscape:connector-curvature="0" />
    <path
       style="fill:#616161;fill-opacity:1;fill-rule:nonzero;stroke:none"
       d="m 31.089844,41.511719 h 1.320312 c 0.367188,0 0.664063,0.292969 0.664063,0.660156 v 1.324219 c 0,0.363281 -0.296875,0.660156 -0.664063,0.660156 h -1.320312 c -0.367188,0 -0.664063,-0.296875 -0.664063,-0.660156 v -1.324219 c 0,-0.367187 0.296875,-0.660156 0.664063,-0.660156 z m 0,0"
       id="path32"
       inkscape:connector-curvature="0" />
    <path
       style="fill:#616161;fill-opacity:1;fill-rule:nonzero;stroke:none"
       d="m 27.121094,41.511719 h 1.320312 c 0.367188,0 0.664063,0.292969 0.664063,0.660156 v 1.324219 c 0,0.363281 -0.296875,0.660156 -0.664063,0.660156 h -1.320312 c -0.367188,0 -0.664063,-0.296875 -0.664063,-0.660156 v -1.324219 c 0,-0.367187 0.296875,-0.660156 0.664063,-0.660156 z m 0,0"
       id="path34"
       inkscape:connector-curvature="0" />
    <path
       style="fill:#616161;fill-opacity:1;fill-rule:nonzero;stroke:none"
       d="m 19.183594,41.511719 h 1.320312 c 0.367188,0 0.664063,0.292969 0.664063,0.660156 v 1.324219 c 0,0.363281 -0.296875,0.660156 -0.664063,0.660156 h -1.320312 c -0.367188,0 -0.664063,-0.296875 -0.664063,-0.660156 v -1.324219 c 0,-0.367187 0.296875,-0.660156 0.664063,-0.660156 z m 0,0"
       id="path36"
       inkscape:connector-curvature="0" />
    <path
       style="fill:#616161;fill-opacity:1;fill-rule:nonzero;stroke:none"
       d="m 23.152344,41.511719 h 1.320312 c 0.367188,0 0.664063,0.292969 0.664063,0.660156 v 1.324219 c 0,0.363281 -0.296875,0.660156 -0.664063,0.660156 h -1.320312 c -0.367188,0 -0.664063,-0.296875 -0.664063,-0.660156 v -1.324219 c 0,-0.367187 0.296875,-0.660156 0.664063,-0.660156 z m 0,0"
       id="path38"
       inkscape:connector-curvature="0" />
    <path
       style="fill:#616161;fill-opacity:1;fill-rule:nonzero;stroke:none"
       d="m 15.214844,41.511719 h 1.320312 c 0.367188,0 0.664063,0.292969 0.664063,0.660156 v 1.324219 c 0,0.363281 -0.296875,0.660156 -0.664063,0.660156 h -1.320312 c -0.367188,0 -0.664063,-0.296875 -0.664063,-0.660156 v -1.324219 c 0,-0.367187 0.296875,-0.660156 0.664063,-0.660156 z m 0,0"
       id="path40"
       inkscape:connector-curvature="0" />
    <path
       style="fill:#616161;fill-opacity:1;fill-rule:nonzero;stroke:none"
       d="m 11.246094,41.511719 h 1.320312 c 0.367188,0 0.664063,0.292969 0.664063,0.660156 v 1.324219 c 0,0.363281 -0.296875,0.660156 -0.664063,0.660156 h -1.320312 c -0.367188,0 -0.664063,-0.296875 -0.664063,-0.660156 v -1.324219 c 0,-0.367187 0.296875,-0.660156 0.664063,-0.660156 z m 0,0"
       id="path42"
       inkscape:connector-curvature="0" />
    <path
       style="fill:#616161;fill-opacity:1;fill-rule:nonzero;stroke:none"
       d="m 7.277344,41.511719 h 1.320312 c 0.367188,0 0.664063,0.292969 0.664063,0.660156 v 1.324219 c 0,0.363281 -0.296875,0.660156 -0.664063,0.660156 H 7.277344 c -0.367188,0 -0.664063,-0.296875 -0.664063,-0.660156 v -1.324219 c 0,-0.367187 0.296875,-0.660156 0.664063,-0.660156 z m 0,0"
       id="path44"
       inkscape:connector-curvature="0" />
    <path
       style="fill:#616161;fill-opacity:1;fill-rule:nonzero;stroke:none"
       d="m 58.871094,41.511719 c 0.363281,0 0.660156,0.292969 0.660156,0.660156 v 1.324219 c 0,0.363281 -0.296875,0.660156 -0.660156,0.660156 -0.367188,0 -0.664063,-0.296875 -0.664063,-0.660156 v -1.324219 c 0,-0.367187 0.296875,-0.660156 0.664063,-0.660156 z m 0,0"
       id="path46"
       inkscape:connector-curvature="0" />
    <path
       style="fill:#616161;fill-opacity:1;fill-rule:nonzero;stroke:none"
       d="m 54.902344,41.511719 h 1.320312 c 0.367188,0 0.664063,0.292969 0.664063,0.660156 v 1.324219 c 0,0.363281 -0.296875,0.660156 -0.664063,0.660156 h -1.320312 c -0.367188,0 -0.664063,-0.296875 -0.664063,-0.660156 v -1.324219 c 0,-0.367187 0.296875,-0.660156 0.664063,-0.660156 z m 0,0"
       id="path48"
       inkscape:connector-curvature="0" />
    <path
       style="fill:#616161;fill-opacity:1;fill-rule:nonzero;stroke:none"
       d="m 46.964844,41.511719 h 1.320312 c 0.367188,0 0.664063,0.292969 0.664063,0.660156 v 1.324219 c 0,0.363281 -0.296875,0.660156 -0.664063,0.660156 h -1.320312 c -0.367188,0 -0.664063,-0.296875 -0.664063,-0.660156 v -1.324219 c 0,-0.367187 0.296875,-0.660156 0.664063,-0.660156 z m 0,0"
       id="path50"
       inkscape:connector-curvature="0" />
    <path
       style="fill:#616161;fill-opacity:1;fill-rule:nonzero;stroke:none"
       d="m 50.933594,41.511719 h 1.320312 c 0.367188,0 0.664063,0.292969 0.664063,0.660156 v 1.324219 c 0,0.363281 -0.296875,0.660156 -0.664063,0.660156 h -1.320312 c -0.367188,0 -0.664063,-0.296875 -0.664063,-0.660156 v -1.324219 c 0,-0.367187 0.296875,-0.660156 0.664063,-0.660156 z m 0,0"
       id="path52"
       inkscape:connector-curvature="0" />
    <path
       style="fill:#616161;fill-opacity:1;fill-rule:nonzero;stroke:none"
       d="m 42.996094,41.511719 h 1.320312 c 0.367188,0 0.664063,0.292969 0.664063,0.660156 v 1.324219 c 0,0.363281 -0.296875,0.660156 -0.664063,0.660156 h -1.320312 c -0.367188,0 -0.664063,-0.296875 -0.664063,-0.660156 v -1.324219 c 0,-0.367187 0.296875,-0.660156 0.664063,-0.660156 z m 0,0"
       id="path54"
       inkscape:connector-curvature="0" />
    <path
       style="fill:#616161;fill-opacity:1;fill-rule:nonzero;stroke:none"
       d="m 39.027344,41.511719 h 1.320312 c 0.367188,0 0.664063,0.292969 0.664063,0.660156 v 1.324219 c 0,0.363281 -0.296875,0.660156 -0.664063,0.660156 h -1.320312 c -0.367188,0 -0.664063,-0.296875 -0.664063,-0.660156 v -1.324219 c 0,-0.367187 0.296875,-0.660156 0.664063,-0.660156 z m 0,0"
       id="path56"
       inkscape:connector-curvature="0" />
    <path
       style="fill:#616161;fill-opacity:1;fill-rule:nonzero;stroke:none"
       d="m 35.058594,41.511719 h 1.320312 c 0.367188,0 0.664063,0.292969 0.664063,0.660156 v 1.324219 c 0,0.363281 -0.296875,0.660156 -0.664063,0.660156 h -1.320312 c -0.367188,0 -0.664063,-0.296875 -0.664063,-0.660156 v -1.324219 c 0,-0.367187 0.296875,-0.660156 0.664063,-0.660156 z m 0,0"
       id="path58"
       inkscape:connector-curvature="0" />
    <path
       style="fill:#616161;fill-opacity:1;fill-rule:nonzero;stroke:none"
       d="m 58.828125,25.636719 h 0.08203 c 0.34375,0 0.621094,0.292969 0.621094,0.660156 v 1.324219 c 0,0.363281 -0.277344,0.660156 -0.621094,0.660156 h -0.08203 c -0.339844,0 -0.621094,-0.296875 -0.621094,-0.660156 v -1.324219 c 0,-0.367187 0.28125,-0.660156 0.621094,-0.660156 z m 0,0"
       id="path60"
       inkscape:connector-curvature="0" />
    <path
       style="fill:#616161;fill-opacity:1;fill-rule:nonzero;stroke:none"
       d="m 54.902344,25.636719 h 1.320312 c 0.367188,0 0.664063,0.292969 0.664063,0.660156 v 1.324219 c 0,0.363281 -0.296875,0.660156 -0.664063,0.660156 h -1.320312 c -0.367188,0 -0.664063,-0.296875 -0.664063,-0.660156 v -1.324219 c 0,-0.367187 0.296875,-0.660156 0.664063,-0.660156 z m 0,0"
       id="path62"
       inkscape:connector-curvature="0" />
    <path
       style="fill:#616161;fill-opacity:1;fill-rule:nonzero;stroke:none"
       d="m 46.964844,25.636719 h 1.320312 c 0.367188,0 0.664063,0.292969 0.664063,0.660156 v 1.324219 c 0,0.363281 -0.296875,0.660156 -0.664063,0.660156 h -1.320312 c -0.367188,0 -0.664063,-0.296875 -0.664063,-0.660156 v -1.324219 c 0,-0.367187 0.296875,-0.660156 0.664063,-0.660156 z m 0,0"
       id="path64"
       inkscape:connector-curvature="0" />
    <path
       style="fill:#616161;fill-opacity:1;fill-rule:nonzero;stroke:none"
       d="m 50.933594,25.636719 h 1.320312 c 0.367188,0 0.664063,0.292969 0.664063,0.660156 v 1.324219 c 0,0.363281 -0.296875,0.660156 -0.664063,0.660156 h -1.320312 c -0.367188,0 -0.664063,-0.296875 -0.664063,-0.660156 v -1.324219 c 0,-0.367187 0.296875,-0.660156 0.664063,-0.660156 z m 0,0"
       id="path66"
       inkscape:connector-curvature="0" />
    <path
       style="fill:#616161;fill-opacity:1;fill-rule:nonzero;stroke:none"
       d="m 42.996094,25.636719 h 1.320312 c 0.367188,0 0.664063,0.292969 0.664063,0.660156 v 1.324219 c 0,0.363281 -0.296875,0.660156 -0.664063,0.660156 h -1.320312 c -0.367188,0 -0.664063,-0.296875 -0.664063,-0.660156 v -1.324219 c 0,-0.367187 0.296875,-0.660156 0.664063,-0.660156 z m 0,0"
       id="path68"
       inkscape:connector-curvature="0" />
    <path
       style="fill:#616161;fill-opacity:1;fill-rule:nonzero;stroke:none"
       d="m 39.027344,25.636719 h 1.320312 c 0.367188,0 0.664063,0.292969 0.664063,0.660156 v 1.324219 c 0,0.363281 -0.296875,0.660156 -0.664063,0.660156 h -1.320312 c -0.367188,0 -0.664063,-0.296875 -0.664063,-0.660156 v -1.324219 c 0,-0.367187 0.296875,-0.660156 0.664063,-0.660156 z m 0,0"
       id="path70"
       inkscape:connector-curvature="0" />
    <path
       style="fill:#616161;fill-opacity:1;fill-rule:nonzero;stroke:none"
       d="m 35.058594,25.636719 h 1.320312 c 0.367188,0 0.664063,0.292969 0.664063,0.660156 v 1.324219 c 0,0.363281 -0.296875,0.660156 -0.664063,0.660156 h -1.320312 c -0.367188,0 -0.664063,-0.296875 -0.664063,-0.660156 v -1.324219 c 0,-0.367187 0.296875,-0.660156 0.664063,-0.660156 z m 0,0"
       id="path72"
       inkscape:connector-curvature="0" />
    <path
       style="fill:#616161;fill-opacity:1;fill-rule:nonzero;stroke:none"
       d="m 4.589844,25.636719 h 0.082031 c 0.339844,0 0.621094,0.292969 0.621094,0.660156 v 1.324219 c 0,0.363281 -0.28125,0.660156 -0.621094,0.660156 H 4.589844 c -0.34375,0 -0.621094,-0.296875 -0.621094,-0.660156 v -1.324219 c 0,-0.367187 0.277344,-0.660156 0.621094,-0.660156 z m 0,0"
       id="path74"
       inkscape:connector-curvature="0" />
    <path
       style="fill:#616161;fill-opacity:1;fill-rule:nonzero;stroke:none"
       d="m 4.628906,41.511719 c 0.367188,0 0.664063,0.292969 0.664063,0.660156 v 1.324219 c 0,0.363281 -0.296875,0.660156 -0.664063,0.660156 -0.363281,0 -0.660156,-0.296875 -0.660156,-0.660156 v -1.324219 c 0,-0.367187 0.296875,-0.660156 0.660156,-0.660156 z m 0,0"
       id="path76"
       inkscape:connector-curvature="0" />
  </g>
</svg>
