<?xml version="1.0" encoding="UTF-8" standalone="no"?>
<svg
   xmlns:dc="http://purl.org/dc/elements/1.1/"
   xmlns:cc="http://creativecommons.org/ns#"
   xmlns:rdf="http://www.w3.org/1999/02/22-rdf-syntax-ns#"
   xmlns:svg="http://www.w3.org/2000/svg"
   xmlns="http://www.w3.org/2000/svg"
   xmlns:sodipodi="http://sodipodi.sourceforge.net/DTD/sodipodi-0.dtd"
   xmlns:inkscape="http://www.inkscape.org/namespaces/inkscape"
   width="48"
   height="48"
   viewBox="0 0 48 48"
   version="1.1"
   id="svg31"
   sodipodi:docname="pitivi.svg"
   inkscape:version="0.92.4 (5da689c313, 2019-01-14)">
  <metadata
     id="metadata37">
    <rdf:RDF>
      <cc:Work
         rdf:about="">
        <dc:format>image/svg+xml</dc:format>
        <dc:type
           rdf:resource="http://purl.org/dc/dcmitype/StillImage" />
        <dc:title></dc:title>
      </cc:Work>
    </rdf:RDF>
  </metadata>
  <defs
     id="defs35" />
  <sodipodi:namedview
     pagecolor="#ffffff"
     bordercolor="#666666"
     borderopacity="1"
     objecttolerance="10"
     gridtolerance="10"
     guidetolerance="10"
     inkscape:pageopacity="0"
     inkscape:pageshadow="2"
     inkscape:window-width="1280"
     inkscape:window-height="954"
     id="namedview33"
     showgrid="false"
     inkscape:zoom="3.6875"
     inkscape:cx="27.254237"
     inkscape:cy="32"
     inkscape:window-x="0"
     inkscape:window-y="0"
     inkscape:window-maximized="1"
     inkscape:current-layer="svg31" />
  <g
     id="surface1"
     transform="matrix(0.71351365,0,0,0.71351365,1.3459416,1.1596896)">
    <path
       style="fill:#3f3f3f;fill-opacity:1;fill-rule:nonzero;stroke:none"
       d="m 2.644531,32.25 v 26.457031 c 0,1.46875 1.179688,2.648438 2.648438,2.648438 h 52.914062 c 1.46875,0 2.648438,-1.179688 2.648438,-2.648438 V 32.25 Z m 0,0"
       id="path2"
       inkscape:connector-curvature="0" />
    <path
       style="fill:#1e1e1e;fill-opacity:1;fill-rule:nonzero;stroke:none"
       d="M 2.644531,24.3125 H 60.855469 V 32.25 H 2.644531 Z m 0,0"
       id="path4"
       inkscape:connector-curvature="0" />
    <path
       style="fill:#3f3f3f;fill-opacity:1;fill-rule:nonzero;stroke:none"
       d="M 2.644531,24.3125 H 60.855469 V 32.25 H 2.644531 Z m 0,0"
       id="path6"
       inkscape:connector-curvature="0" />
    <path
       style="fill:#ee514f;fill-opacity:1;fill-rule:nonzero;stroke:none"
       d="M 19.433594,24.3125 14.851562,32.25 h 7.636719 l 4.585938,-7.9375 z m 0,0"
       id="path8"
       inkscape:connector-curvature="0" />
    <path
       style="fill:#66ba68;fill-opacity:1;fill-rule:nonzero;stroke:none"
       d="M 36.632812,24.3125 32.050781,32.25 H 39.6875 l 4.582031,-7.9375 z m 0,0"
       id="path10"
       inkscape:connector-curvature="0" />
    <path
       style="fill:#5c68bf;fill-opacity:1;fill-rule:nonzero;stroke:none"
       d="M 55.535156,24.3125 50.953125,32.25 h 7.636719 l 2.265625,-3.921875 V 24.3125 Z m 0,0"
       id="path12"
       inkscape:connector-curvature="0" />
    <path
       style="fill:#3f3f3f;fill-opacity:1;fill-rule:nonzero;stroke:none"
       d="m 55.878906,2.757812 c 1.414063,-0.378906 2.859375,0.457032 3.238282,1.871094 L 60.488281,9.742188 4.261719,24.804688 2.894531,19.695312 C 2.511719,18.277344 3.347656,16.832031 4.765625,16.453125 Z m 0,0"
       id="path14"
       inkscape:connector-curvature="0" />
    <path
       style="fill:#ee514f;fill-opacity:1;fill-rule:nonzero;stroke:none"
       d="m 12.515625,14.375 6.480469,6.484375 7.378906,-1.980469 -6.480469,-6.480468 z m 0,0"
       id="path16"
       inkscape:connector-curvature="0" />
    <path
       style="fill:#66ba68;fill-opacity:1;fill-rule:nonzero;stroke:none"
       d="m 30.539062,9.546875 6.480469,6.480469 7.375,-1.976563 -6.480469,-6.480469 z m 0,0"
       id="path18"
       inkscape:connector-curvature="0" />
    <path
       style="fill:#5c68bf;fill-opacity:1;fill-rule:nonzero;stroke:none"
       d="m 48.867188,4.636719 6.480468,6.480469 5.140625,-1.375 -1.039062,-3.882813 -3.179688,-3.175781 c -0.128906,0.015625 -0.261719,0.039062 -0.390625,0.074218 z m 0,0"
       id="path20"
       inkscape:connector-curvature="0" />
    <path
       style="fill:#616161;fill-opacity:1;fill-rule:nonzero;stroke:none"
       d="m 7.277344,16.375 c -2.566406,0 -4.632813,2.066406 -4.632813,4.628906 v 10.585938 c 0,0.222656 0.015625,0.445312 0.046875,0.660156 h 9.167969 c 0.03125,-0.214844 0.04687,-0.4375 0.04687,-0.660156 V 21.003906 c 0,-2.5625 -2.066406,-4.628906 -4.628906,-4.628906 z m 0,0"
       id="path22"
       inkscape:connector-curvature="0" />
    <path
       style="fill:#eeeeee;fill-opacity:1;fill-rule:nonzero;stroke:none"
       d="m 7.277344,18.359375 c 1.09375,0 1.984375,0.886719 1.984375,1.984375 0,1.097656 -0.890625,1.984375 -1.984375,1.984375 -1.097656,0 -1.984375,-0.886719 -1.984375,-1.984375 0,-1.097656 0.886719,-1.984375 1.984375,-1.984375 z m 0,0"
       id="path24"
       inkscape:connector-curvature="0" />
    <path
       style="fill:#eeeeee;fill-opacity:1;fill-rule:nonzero;stroke:none"
       d="m 7.277344,26.296875 c 1.09375,0 1.984375,0.886719 1.984375,1.984375 0,1.097656 -0.890625,1.984375 -1.984375,1.984375 -1.097656,0 -1.984375,-0.886719 -1.984375,-1.984375 0,-1.097656 0.886719,-1.984375 1.984375,-1.984375 z m 0,0"
       id="path26"
       inkscape:connector-curvature="0" />
    <path
       style="fill:#1e1e1e;fill-opacity:1;fill-rule:nonzero;stroke:none"
       d="m 2.644531,32.25 h 58.210938 v 0.660156 H 2.644531 Z m 0,0"
       id="path28"
       inkscape:connector-curvature="0" />
  </g>
</svg>
