<?xml version="1.0" encoding="UTF-8" standalone="no"?>
<svg
   xmlns:dc="http://purl.org/dc/elements/1.1/"
   xmlns:cc="http://creativecommons.org/ns#"
   xmlns:rdf="http://www.w3.org/1999/02/22-rdf-syntax-ns#"
   xmlns:svg="http://www.w3.org/2000/svg"
   xmlns="http://www.w3.org/2000/svg"
   xmlns:sodipodi="http://sodipodi.sourceforge.net/DTD/sodipodi-0.dtd"
   xmlns:inkscape="http://www.inkscape.org/namespaces/inkscape"
   width="48"
   height="48"
   viewBox="0 0 48 48"
   version="1.1"
   id="svg13"
   sodipodi:docname="playonlinux.svg"
   inkscape:version="0.92.4 (5da689c313, 2019-01-14)">
  <metadata
     id="metadata19">
    <rdf:RDF>
      <cc:Work
         rdf:about="">
        <dc:format>image/svg+xml</dc:format>
        <dc:type
           rdf:resource="http://purl.org/dc/dcmitype/StillImage" />
        <dc:title></dc:title>
      </cc:Work>
    </rdf:RDF>
  </metadata>
  <defs
     id="defs17" />
  <sodipodi:namedview
     pagecolor="#ffffff"
     bordercolor="#666666"
     borderopacity="1"
     objecttolerance="10"
     gridtolerance="10"
     guidetolerance="10"
     inkscape:pageopacity="0"
     inkscape:pageshadow="2"
     inkscape:window-width="1280"
     inkscape:window-height="954"
     id="namedview15"
     showgrid="false"
     inkscape:zoom="3.6875"
     inkscape:cx="27.254237"
     inkscape:cy="32"
     inkscape:window-x="0"
     inkscape:window-y="0"
     inkscape:window-maximized="1"
     inkscape:current-layer="svg13" />
  <g
     id="surface1"
     transform="matrix(0.74214682,0,0,0.74214682,0.43683846,0.06576505)">
    <path
       style="fill:#ee514f;fill-opacity:1;fill-rule:nonzero;stroke:none"
       d="M 41.71875,4.398438 C 37.910156,2.199219 33.074219,3.496094 30.875,7.304688 25.585938,16.46875 32.765625,25.199219 31.75,32.25 37.347656,27.84375 48.5,29.699219 53.789062,20.535156 55.988281,16.726562 54.691406,11.890625 50.886719,9.691406 49.121094,8.671875 47.136719,8.402344 45.296875,8.789062 44.707031,7 43.484375,5.417969 41.71875,4.398438 Z m 0,0"
       id="path2"
       inkscape:connector-curvature="0" />
    <path
       style="fill:#3fa3f5;fill-opacity:1;fill-rule:nonzero;stroke:none"
       d="M 12.613281,54.808594 C 8.808594,52.609375 7.511719,47.773438 9.710938,43.964844 15,34.800781 26.152344,36.65625 31.75,32.25 c -1.015625,7.050781 6.164062,15.78125 0.875,24.945312 -2.199219,3.808594 -7.035156,5.105469 -10.84375,2.90625 -1.765625,-1.019531 -2.988281,-2.605468 -3.578125,-4.390624 -1.839844,0.382812 -3.824219,0.117187 -5.589844,-0.902344 z m 0,0"
       id="path4"
       inkscape:connector-curvature="0" />
    <path
       style="fill:#ffa623;fill-opacity:1;fill-rule:nonzero;stroke:none"
       d="M 59.601562,42.21875 C 61.800781,38.410156 60.503906,33.574219 56.695312,31.375 47.53125,26.085938 38.800781,33.265625 31.75,32.25 c 4.40625,5.597656 2.550781,16.75 11.714844,22.039062 3.808594,2.199219 8.644531,0.902344 10.84375,-2.902343 1.019531,-1.765625 1.285156,-3.75 0.902344,-5.589844 C 57,45.207031 58.582031,43.984375 59.601562,42.21875 Z m 0,0"
       id="path6"
       inkscape:connector-curvature="0" />
    <path
       style="fill:#66ba68;fill-opacity:1;fill-rule:nonzero;stroke:none"
       d="M 9.191406,13.113281 C 11.390625,9.308594 16.226562,8.011719 20.035156,10.210938 29.199219,15.5 27.34375,26.652344 31.75,32.25 24.699219,31.234375 15.96875,38.414062 6.804688,33.125 2.996094,30.925781 1.699219,26.089844 3.898438,22.28125 4.917969,20.515625 6.5,19.292969 8.289062,18.703125 7.90625,16.863281 8.171875,14.878906 9.191406,13.113281 Z m 0,0"
       id="path8"
       inkscape:connector-curvature="0" />
    <path
       style="fill:#eeeeee;fill-opacity:1;fill-rule:nonzero;stroke:none"
       d="m 31.75,24.3125 c 4.382812,0 7.9375,3.554688 7.9375,7.9375 0,4.382812 -3.554688,7.9375 -7.9375,7.9375 -4.382812,0 -7.9375,-3.554688 -7.9375,-7.9375 0,-4.382812 3.554688,-7.9375 7.9375,-7.9375 z m 0,0"
       id="path10"
       inkscape:connector-curvature="0" />
  </g>
</svg>
