<?xml version="1.0" encoding="UTF-8" standalone="no"?>
<svg
   xmlns:dc="http://purl.org/dc/elements/1.1/"
   xmlns:cc="http://creativecommons.org/ns#"
   xmlns:rdf="http://www.w3.org/1999/02/22-rdf-syntax-ns#"
   xmlns:svg="http://www.w3.org/2000/svg"
   xmlns="http://www.w3.org/2000/svg"
   xmlns:sodipodi="http://sodipodi.sourceforge.net/DTD/sodipodi-0.dtd"
   xmlns:inkscape="http://www.inkscape.org/namespaces/inkscape"
   width="48"
   height="48"
   viewBox="0 0 48 48"
   version="1.1"
   id="svg31"
   sodipodi:docname="qt-creator.svg"
   inkscape:version="0.92.4 (5da689c313, 2019-01-14)">
  <metadata
     id="metadata37">
    <rdf:RDF>
      <cc:Work
         rdf:about="">
        <dc:format>image/svg+xml</dc:format>
        <dc:type
           rdf:resource="http://purl.org/dc/dcmitype/StillImage" />
        <dc:title></dc:title>
      </cc:Work>
    </rdf:RDF>
  </metadata>
  <defs
     id="defs35" />
  <sodipodi:namedview
     pagecolor="#ffffff"
     bordercolor="#666666"
     borderopacity="1"
     objecttolerance="10"
     gridtolerance="10"
     guidetolerance="10"
     inkscape:pageopacity="0"
     inkscape:pageshadow="2"
     inkscape:window-width="1280"
     inkscape:window-height="954"
     id="namedview33"
     showgrid="false"
     inkscape:zoom="7.375"
     inkscape:cx="28.468814"
     inkscape:cy="29.70415"
     inkscape:window-x="0"
     inkscape:window-y="0"
     inkscape:window-maximized="1"
     inkscape:current-layer="svg31" />
  <g
     id="g3860"
     transform="matrix(0.73365618,0,0,0.73365618,0.52300368,-0.17334994)">
    <path
       id="path2"
       d="m 9.181818,5.9491527 h 48.96104 c 0,0 2.857142,0 2.857142,2.8235287 V 45.478559 l -8.181818,8.47059 H 3.8571429 c 0,0 -2.85714302,0 -2.85714302,-2.82353 V 14.41974 Z"
       style="opacity:0.2"
       inkscape:connector-curvature="0" />
    <path
       id="path4"
       d="m 9.181818,4.9491527 h 48.96104 c 0,0 2.857142,0 2.857142,2.8235287 V 44.478559 l -8.181818,8.47059 H 3.8571429 c 0,0 -2.85714302,0 -2.85714302,-2.82353 V 13.41974 Z"
       style="fill:#00cc5c"
       inkscape:connector-curvature="0" />
    <path
       id="path6"
       d="m 39,16.949152 v 6 h -4 v 3 h 4 v 8.234376 c 0,5.647061 1.998402,7.765621 5.585938,7.765621 H 49 v -4 H 45.03125 C 43.101676,37.949149 43,36.608619 43,33.78509 v -7.835938 h 6 v -3 h -6 v -6 z M 23.050782,15.992112 C 15.109896,15.99212 13,20.478564 13,28.949152 c 0,8.470587 2.072781,13.054687 10.050782,13.054687 h 2.265624 l 3.300782,5.64453 3.824218,-1.41016 -3.117188,-5.64843 C 32.292774,39.178009 33,34.59621 33,28.949152 33,20.478564 30.991668,15.99212 23.050782,15.99212 Z m -0.03516,3.95704 c 4.844012,0 5.984388,3.51398 5.984376,9.308594 0,5.794612 -1.10366,8.691403 -5.984376,8.691403 -4.880712,0 -6.015624,-2.896791 -6.015624,-8.691403 0,-5.794614 1.171617,-9.308594 6.015624,-9.308594 z"
       style="opacity:0.2"
       inkscape:connector-curvature="0" />
    <path
       id="path8"
       d="m 39,15.949152 v 6 h -4 v 3 h 4 v 8.234376 c 0,5.647061 1.998402,7.765621 5.585938,7.765621 H 49 v -4 H 45.03125 C 43.101676,36.949149 43,35.608622 43,32.78509 v -7.835938 h 6 v -3 h -6 v -6 z M 23.050782,14.992122 C 15.109896,14.992121 13,19.478564 13,27.949152 c 0,8.470587 2.072781,13.054687 10.050782,13.054687 h 2.265624 l 3.300782,5.64453 3.824218,-1.41016 -3.117188,-5.64843 C 32.292774,38.178009 33,33.59621 33,27.949152 33,19.478564 30.991668,14.992121 23.050782,14.99212 Z m -0.03516,3.95703 c 4.844012,0 5.984388,3.51398 5.984376,9.308594 0,5.794612 -1.10366,8.691403 -5.984376,8.691403 -4.880712,0 -6.015624,-2.896791 -6.015624,-8.691403 0,-5.794614 1.171617,-9.308594 6.015624,-9.308594 z"
       style="fill:#ffffff"
       inkscape:connector-curvature="0" />
    <path
       id="path10"
       d="M 9.183594,4.9491527 0.99999988,13.417902 v 1 L 9.183594,5.9491527 h 48.960937 c 0,0 2.855469,6.89e-4 2.855469,2.8242187 v -1 C 61,4.9498417 58.144531,4.9491527 58.144531,4.9491527 Z"
       style="opacity:0.2;fill:#ffffff"
       inkscape:connector-curvature="0" />
    <circle
       id="circle12"
       r="16"
       cy="44.949154"
       cx="46.999996"
       style="opacity:0.2" />
    <circle
       id="circle14"
       r="16"
       cy="43.949154"
       cx="46.999996"
       style="fill:#b73ad2" />
    <path
       id="path16"
       d="m 55,35.949189 c -2.431813,2.47782 -7.437931,4.83619 -10.599142,5.7649 -8.483322,3.01503 -4.43584,10.22473 -4.43584,10.22473 2.57338,-1.90996 14.147813,-14.67985 14.147813,-14.67985 0,0 -9.092658,11.6842 -13.218978,14.67985 v 0.006 c 11.074193,0.18439 11.51741,-5.84127 12.337019,-9.51896 C 54.073814,38.643439 55,35.948923 55,35.948923 Z"
       style="fill:#ffffff"
       inkscape:connector-curvature="0" />
  </g>
</svg>
