<?xml version="1.0" encoding="UTF-8" standalone="no"?>
<svg
   xmlns:dc="http://purl.org/dc/elements/1.1/"
   xmlns:cc="http://creativecommons.org/ns#"
   xmlns:rdf="http://www.w3.org/1999/02/22-rdf-syntax-ns#"
   xmlns:svg="http://www.w3.org/2000/svg"
   xmlns="http://www.w3.org/2000/svg"
   xmlns:sodipodi="http://sodipodi.sourceforge.net/DTD/sodipodi-0.dtd"
   xmlns:inkscape="http://www.inkscape.org/namespaces/inkscape"
   width="48"
   height="48"
   viewBox="0 0 48 48"
   version="1.1"
   id="svg31"
   sodipodi:docname="qt.svg"
   inkscape:version="0.92.4 (5da689c313, 2019-01-14)">
  <metadata
     id="metadata37">
    <rdf:RDF>
      <cc:Work
         rdf:about="">
        <dc:format>image/svg+xml</dc:format>
        <dc:type
           rdf:resource="http://purl.org/dc/dcmitype/StillImage" />
        <dc:title></dc:title>
      </cc:Work>
    </rdf:RDF>
  </metadata>
  <defs
     id="defs35" />
  <sodipodi:namedview
     pagecolor="#ffffff"
     bordercolor="#666666"
     borderopacity="1"
     objecttolerance="10"
     gridtolerance="10"
     guidetolerance="10"
     inkscape:pageopacity="0"
     inkscape:pageshadow="2"
     inkscape:window-width="1280"
     inkscape:window-height="954"
     id="namedview33"
     showgrid="false"
     inkscape:zoom="3.6875"
     inkscape:cx="13.016948"
     inkscape:cy="32"
     inkscape:window-x="0"
     inkscape:window-y="0"
     inkscape:window-maximized="1"
     inkscape:current-layer="svg31" />
  <g
     id="g3915"
     transform="matrix(0.73988239,0,0,0.73988239,0.22344057,0.32376352)">
    <path
       id="path2"
       d="m 10.317411,8.5 h 48.96104 c 0,0 2.857142,0 2.857142,2.823529 V 48.029412 L 53.953775,56.5 H 4.9927362 c 0,0 -2.857143,0 -2.857143,-2.82353 V 16.970588 Z"
       style="opacity:0.2"
       inkscape:connector-curvature="0" />
    <path
       id="path4"
       d="m 10.317411,7.5000002 h 48.96104 c 0,0 2.857142,0 2.857142,2.8235288 V 47.029412 L 53.953775,55.5 H 4.9927362 c 0,0 -2.857143,0 -2.857143,-2.82353 V 15.970588 Z"
       style="fill:#00cc5c"
       inkscape:connector-curvature="0" />
    <path
       id="path6"
       d="m 40.135593,19.5 v 6 h -4 v 3 h 4 v 8.234376 c 0,5.647058 1.998402,7.765624 5.585938,7.765624 h 4.414062 v -4 h -3.96875 c -1.929574,0 -2.03125,-1.34053 -2.03125,-4.164062 V 28.5 h 6 v -3 h -6 v -6 z M 24.186375,18.54296 c -7.940886,8e-6 -10.050782,4.486452 -10.050782,12.95704 0,8.470588 2.072781,13.054688 10.050782,13.054688 h 2.265624 l 3.300782,5.64453 3.824218,-1.410156 -3.117188,-5.648438 C 33.428367,41.72886 34.135593,37.147058 34.135593,31.5 c 0,-8.470588 -2.008332,-12.957032 -9.949218,-12.957032 z M 24.151217,22.5 c 4.844012,0 5.984388,3.51398 5.984376,9.308594 0,5.794612 -1.10366,8.691406 -5.984376,8.691406 -4.880712,0 -6.015624,-2.896794 -6.015624,-8.691406 0,-5.794614 1.171617,-9.308594 6.015624,-9.308594 z"
       style="opacity:0.2"
       inkscape:connector-curvature="0" />
    <path
       id="path8"
       d="m 40.135593,18.5 v 6 h -4 v 3 h 4 v 8.234376 c 0,5.647058 1.998402,7.765624 5.585938,7.765624 h 4.414062 v -4 h -3.96875 c -1.929574,0 -2.03125,-1.34053 -2.03125,-4.164062 V 27.5 h 6 v -3 h -6 v -6 z M 24.186375,17.54297 c -7.940886,-1e-6 -10.050782,4.486442 -10.050782,12.95703 0,8.470588 2.072781,13.054688 10.050782,13.054688 h 2.265624 l 3.300782,5.64453 3.824218,-1.410156 -3.117188,-5.648438 C 33.428367,40.72886 34.135593,36.147058 34.135593,30.5 c 0,-8.470588 -2.008332,-12.957031 -9.949218,-12.957032 z M 24.151217,21.5 c 4.844012,0 5.984388,3.51398 5.984376,9.308594 0,5.794612 -1.10366,8.691406 -5.984376,8.691406 -4.880712,0 -6.015624,-2.896794 -6.015624,-8.691406 0,-5.794614 1.171617,-9.308594 6.015624,-9.308594 z"
       style="fill:#ffffff"
       inkscape:connector-curvature="0" />
    <path
       id="path10"
       d="m 10.319187,7.5 -8.1835938,8.46875 v 1 L 10.319187,8.5 h 48.960937 c 0,0 2.855469,6.894e-4 2.855469,2.824219 v -1 C 62.135593,7.5006894 59.280124,7.5 59.280124,7.5 Z"
       style="opacity:0.2;fill:#ffffff"
       inkscape:connector-curvature="0" />
  </g>
</svg>
