<?xml version="1.0" encoding="UTF-8" standalone="no"?>
<svg
   xmlns:dc="http://purl.org/dc/elements/1.1/"
   xmlns:cc="http://creativecommons.org/ns#"
   xmlns:rdf="http://www.w3.org/1999/02/22-rdf-syntax-ns#"
   xmlns:svg="http://www.w3.org/2000/svg"
   xmlns="http://www.w3.org/2000/svg"
   xmlns:sodipodi="http://sodipodi.sourceforge.net/DTD/sodipodi-0.dtd"
   xmlns:inkscape="http://www.inkscape.org/namespaces/inkscape"
   width="48"
   height="48"
   viewBox="0 0 48 48"
   version="1.1"
   id="svg31"
   sodipodi:docname="qtconfig.svg"
   inkscape:version="0.92.4 (5da689c313, 2019-01-14)">
  <metadata
     id="metadata37">
    <rdf:RDF>
      <cc:Work
         rdf:about="">
        <dc:format>image/svg+xml</dc:format>
        <dc:type
           rdf:resource="http://purl.org/dc/dcmitype/StillImage" />
        <dc:title></dc:title>
      </cc:Work>
    </rdf:RDF>
  </metadata>
  <defs
     id="defs35" />
  <sodipodi:namedview
     pagecolor="#ffffff"
     bordercolor="#666666"
     borderopacity="1"
     objecttolerance="10"
     gridtolerance="10"
     guidetolerance="10"
     inkscape:pageopacity="0"
     inkscape:pageshadow="2"
     inkscape:window-width="1280"
     inkscape:window-height="954"
     id="namedview33"
     showgrid="false"
     inkscape:zoom="3.6875"
     inkscape:cx="17.762711"
     inkscape:cy="32"
     inkscape:window-x="0"
     inkscape:window-y="0"
     inkscape:window-maximized="1"
     inkscape:current-layer="svg31" />
  <g
     id="g3869"
     transform="matrix(0.73357439,0,0,0.73357439,47.07651,5.4990052)">
    <path
       id="path2"
       d="m -37.188523,-3.276651 c -0.5936,0.064598 -1.1165,0.55029 -1.225,1.1374 l -1.1812,5.9934 c -2.1205,0.8293 -4.1135,1.9687 -5.8622,3.3687 l -5.8178,-1.9687 c -0.60478,-0.2084 -1.338,0.0616 -1.6628,0.61258 l -5.5998,9.7121 c -0.31543,0.55858 -0.1802,1.3316 0.30623,1.7499 l 4.6373,4.0685 c -0.1632,1.0909 -0.26249,2.1885 -0.26249,3.3249 0,1.1364 0.0992,2.2339 0.26249,3.3249 l -4.6373,4.0687 c -0.48637,0.41831 -0.62166,1.1913 -0.30623,1.7499 l 5.5998,9.7121 c 0.32477,0.55078 1.058,0.8209 1.6624,0.61246 l 5.8184,-1.9687 c 1.7488,1.3999 3.7417,2.5393 5.8622,3.3687 l 1.1812,5.9934 c 0.1198,0.62738 0.71756,1.1287 1.3562,1.1374 h 11.199 c 0.63864,-0.008 1.2364,-0.51007 1.3562,-1.1374 l 1.1812,-5.9934 c 2.1205,-0.8293 4.1135,-1.9687 5.8622,-3.3687 l 5.8184,1.9687 c 0.60446,0.20844 1.3377,-0.0616 1.6624003,-0.61246 l 5.5998,-9.7121 c 0.31541,-0.55858 0.1802,-1.3316 -0.30623,-1.7499 l -4.6373,-4.0687 c 0.1632,-1.0909 0.26247,-2.1883 0.26247,-3.3249 0,-1.1364 -0.0994,-2.2339 -0.26247,-3.3249 l 4.6373,-4.0685 c 0.48637,-0.41831 0.62164,-1.1913 0.30623,-1.7499 l -5.5998,-9.7121 c -0.3239903,-0.55158 -1.0580003,-0.82178 -1.6620003,-0.61338 l -5.8184,1.9687 c -1.746,-1.402 -3.738,-2.541 -5.858,-3.37 l -1.182,-5.9939 c -0.12,-0.6273 -0.718,-1.1287 -1.356,-1.1373 h -11.199 c -0.0438,-0.00102 -0.0876,-0.00102 -0.1312,0 z"
       style="fill:#00cc5c"
       inkscape:connector-curvature="0" />
    <path
       id="path4"
       d="m -37.186523,-3.279251 -0.002,0.002 c -0.594,0.0646 -1.117,0.5515 -1.225,1.1386 l -1.182,5.9924 c -2.12,0.829 -4.112,1.969 -5.861,3.369 l -5.818,-1.969 c -0.605,-0.208 -1.338,0.063 -1.662,0.613 l -5.6001,9.711 c -0.2018,0.358 -0.2016,0.796 -0.0605,1.18 0.0224,-0.059 0.0293,-0.122 0.0605,-0.178 l 5.6001,-9.713 c 0.324,-0.55 1.057,-0.821 1.662,-0.613 l 5.818,1.969 c 1.749,-1.4 3.741,-2.538 5.861,-3.367 l 1.182,-5.9944 c 0.108,-0.5871 0.631,-1.0721 1.225,-1.1367 l 0.002,-0.0019 c 0.043,-0.0011 0.087,-0.0011 0.13,0 h 11.2 c 0.638,0.0086 1.235,0.5093 1.355,1.1367 l 1.182,5.9943 c 2.12,0.829 4.113,1.968 5.863,3.369 l 5.818,-1.969 c 0.604,-0.208 1.338,0.062 1.6620003,0.613 l 5.6,9.713 c 0.031,0.055 0.038,0.118 0.061,0.176 0.14,-0.383 0.14,-0.821 -0.061,-1.178 l -5.6,-9.711 c -0.3240003,-0.551 -1.0580003,-0.821 -1.6620003,-0.613 l -5.818,1.969 c -1.75,-1.401 -3.743,-2.542 -5.863,-3.371 l -1.182,-5.9923 c -0.12,-0.6274 -0.717,-1.1301 -1.355,-1.1387 h -11.2 c -0.043,-10e-4 -0.087,-10e-4 -0.13,0 z m -16.514,25.584 c -0.0907,0.794 -0.1563,1.595 -0.1563,2.418 0,0.169 0.0172,0.332 0.0215,0.5 0.0245,-0.958 0.1033,-1.896 0.2422,-2.824 z m 44.4860003,0.002 -0.105,0.092 c 0.139,0.928 0.215,1.866 0.24,2.824 0.004,-0.168 0.021,-0.331 0.021,-0.5 0,-0.822 -0.065,-1.622 -0.156,-2.416 z m 0,5.832 c -0.034,0.303 -0.06,0.607 -0.105,0.908 l 4.636,4.07 c 0.176,0.152 0.288,0.356 0.368,0.573 0.205,-0.537 0.071,-1.197 -0.368,-1.574 z m -44.4860003,0.002 -4.5293,3.975 c -0.4383,0.377 -0.5721,1.035 -0.3672,1.572 0.0794,-0.216 0.1919,-0.42 0.3672,-0.571 l 4.6367,-4.07 c -0.045,-0.3 -0.0729,-0.604 -0.1074,-0.906 z"
       style="opacity:0.2;fill:#ffffff"
       inkscape:connector-curvature="0" />
    <path
       id="path6"
       d="m -4.3155227,16.755749 c -0.07932,0.21741 -0.19112,0.42278 -0.36719,0.57422 l -4.6367,4.0684 c 0.04493,0.3006 0.07095,0.60398 0.10547,0.90625 l 4.5312,-3.9766 c 0.43842,-0.37708 0.57228,-1.0356 0.36719,-1.5723 z m -54.2810003,0.002 c -0.20426,0.53639 -0.07088,1.1936 0.36719,1.5703 l 4.5312,3.9746 c 0.03447,-0.30158 0.0606,-0.60439 0.10547,-0.9043 l -4.6373,-4.069 c -0.1755,-0.151 -0.2878,-0.355 -0.3672,-0.572 z m 4.7617,8.4648 c -0.0043,0.16753 -0.02148,0.33086 -0.02148,0.5 0,0.82326 0.06547,1.6232 0.15625,2.418 l 0.10742,-0.09375 c -0.1396,-0.928 -0.2183,-1.866 -0.2428,-2.824 z m 44.7560003,0 c -0.02449,0.9581 -0.10133,1.8957 -0.24023,2.8242 l 0.10547,0.0918 c 0.09063,-0.7941 0.15625,-1.5933 0.15625,-2.416 0,-0.16915 -0.0172,-0.33247 -0.02148,-0.5 z m -49.5190003,8.463 c -0.14103,0.38385 -0.14124,0.82235 0.06055,1.1797 l 5.5996,9.7129 c 0.32477,0.55078 1.0576,0.81976 1.6621,0.61133 l 5.818,-1.969 c 1.7488,1.3999 3.7427,2.5398 5.8633,3.3691 l 1.1797,5.9941 c 0.12,0.628 0.719,1.128 1.357,1.137 h 11.199 c 0.63864,-0.008 1.2357,-0.50934 1.3555,-1.1367 l 1.1816,-5.9941 c 2.121,-0.829 4.115,-1.969 5.864,-3.369 l 5.8184,1.9688 c 0.60446,0.20844 1.3373,-0.06047 1.6621003,-0.61133 l 5.5996,-9.7129 c 0.20136,-0.35661 0.20064,-0.79442 0.06055,-1.1777 -0.02248,0.05893 -0.02933,0.12246 -0.06055,0.17773 l -5.5996,9.7129 c -0.3247703,0.55086 -1.0576003,0.82172 -1.6621003,0.61328 l -5.818,-1.969 c -1.7488,1.4 -3.7427,2.5379 -5.8633,3.3672 l -1.1816,5.9941 c -0.11974,0.62738 -0.71683,1.1307 -1.3555,1.1387 h -11.2 c -0.63864,-0.0087 -1.2376,-0.51129 -1.3574,-1.1387 l -1.1797,-5.9941 c -2.12,-0.829 -4.114,-1.967 -5.863,-3.367 l -5.8184,1.9688 c -0.60448,0.20844 -1.3373,-0.0625 -1.6621,-0.61328 l -5.6001,-9.713 c -0.03148,-0.05575 -0.03795,-0.12024 -0.06055,-0.17969 z"
       style="opacity:0.2"
       inkscape:connector-curvature="0" />
    <path
       id="path8"
       d="m -23.456523,12.721531 v 6 h -4 v 3 h 4 v 8.234376 c 0,5.647058 1.998402,7.765624 5.585938,7.765624 h 4.414062 v -4 h -3.96875 c -1.929574,0 -2.03125,-1.34053 -2.03125,-4.164062 v -7.835938 h 6 v -3 h -6 v -6 z m -15.949218,-0.95703 c -7.940886,-10e-7 -10.050782,4.486442 -10.050782,12.95703 0,8.470588 2.072781,13.054688 10.050782,13.054688 h 2.265624 l 3.300782,5.64453 3.824218,-1.410156 -3.117188,-5.648438 c 2.968556,-1.411764 3.675782,-5.993566 3.675782,-11.640624 0,-8.470588 -2.008332,-12.957031 -9.949218,-12.957032 z m -0.03516,3.95703 c 4.844012,0 5.984388,3.51398 5.984376,9.308594 0,5.794612 -1.10366,8.691406 -5.984376,8.691406 -4.88071,0 -6.015622,-2.896794 -6.015622,-8.691406 0,-5.794614 1.171617,-9.308594 6.015624,-9.308594 z"
       style="opacity:0.2"
       inkscape:connector-curvature="0" />
    <path
       id="path10"
       d="m -23.456523,11.721531 v 6 h -4 v 3 h 4 v 8.234376 c 0,5.647058 1.998402,7.765624 5.585938,7.765624 h 4.414062 v -4 h -3.96875 c -1.929574,0 -2.03125,-1.34053 -2.03125,-4.164062 v -7.835938 h 6 v -3 h -6 v -6 z m -15.949218,-0.95703 c -7.940886,-10e-7 -10.050782,4.486442 -10.050782,12.95703 0,8.470588 2.072781,13.054688 10.050782,13.054688 h 2.265624 l 3.300782,5.64453 3.824218,-1.410156 -3.117188,-5.648438 c 2.968556,-1.411764 3.675782,-5.993566 3.675782,-11.640624 0,-8.470588 -2.008332,-12.957031 -9.949218,-12.957032 z m -0.03516,3.95703 c 4.844012,0 5.984388,3.51398 5.984376,9.308594 0,5.794612 -1.10366,8.691406 -5.984376,8.691406 -4.88071,0 -6.015622,-2.896794 -6.015622,-8.691406 0,-5.794614 1.171617,-9.308594 6.015624,-9.308594 z"
       style="fill:#ffffff"
       inkscape:connector-curvature="0" />
  </g>
</svg>
