<?xml version="1.0" encoding="UTF-8" standalone="no"?>
<svg
   xmlns:dc="http://purl.org/dc/elements/1.1/"
   xmlns:cc="http://creativecommons.org/ns#"
   xmlns:rdf="http://www.w3.org/1999/02/22-rdf-syntax-ns#"
   xmlns:svg="http://www.w3.org/2000/svg"
   xmlns="http://www.w3.org/2000/svg"
   xmlns:sodipodi="http://sodipodi.sourceforge.net/DTD/sodipodi-0.dtd"
   xmlns:inkscape="http://www.inkscape.org/namespaces/inkscape"
   width="48"
   height="48"
   viewBox="0 0 48 48"
   version="1.1"
   id="svg11"
   sodipodi:docname="ristretto.svg"
   inkscape:version="0.92.4 (5da689c313, 2019-01-14)">
  <metadata
     id="metadata17">
    <rdf:RDF>
      <cc:Work
         rdf:about="">
        <dc:format>image/svg+xml</dc:format>
        <dc:type
           rdf:resource="http://purl.org/dc/dcmitype/StillImage" />
        <dc:title></dc:title>
      </cc:Work>
    </rdf:RDF>
  </metadata>
  <defs
     id="defs15" />
  <sodipodi:namedview
     pagecolor="#ffffff"
     bordercolor="#666666"
     borderopacity="1"
     objecttolerance="10"
     gridtolerance="10"
     guidetolerance="10"
     inkscape:pageopacity="0"
     inkscape:pageshadow="2"
     inkscape:window-width="1280"
     inkscape:window-height="954"
     id="namedview13"
     showgrid="false"
     inkscape:zoom="3.6875"
     inkscape:cx="-8.1355932"
     inkscape:cy="32"
     inkscape:window-x="0"
     inkscape:window-y="0"
     inkscape:window-maximized="1"
     inkscape:current-layer="svg11" />
  <g
     transform="matrix(0.72979625,0,0,0.72979625,0.82896906,0.46407094)"
     id="surface1">
    <path
       inkscape:connector-curvature="0"
       style="fill:#bdbdbd;fill-opacity:1;fill-rule:nonzero;stroke:none"
       d="m 31.75,3.144531 c 16.074219,0 29.105469,13.03125 29.105469,29.105469 0,16.074219 -13.03125,29.105469 -29.105469,29.105469 C 15.675781,61.355469 2.644531,48.324219 2.644531,32.25 2.644531,16.175781 15.675781,3.144531 31.75,3.144531 Z m 0,0"
       id="path2" />
    <path
       inkscape:connector-curvature="0"
       style="fill:#3f3f3f;fill-opacity:1;fill-rule:nonzero;stroke:none"
       d="m 31.75,19.019531 c 7.304688,0 13.230469,5.925781 13.230469,13.230469 0,7.304688 -5.925781,13.230469 -13.230469,13.230469 -7.304688,0 -13.230469,-5.925781 -13.230469,-13.230469 0,-7.304688 5.925781,-13.230469 13.230469,-13.230469 z m 0,0"
       id="path4" />
    <path
       inkscape:connector-curvature="0"
       style="fill:#8c6e61;fill-opacity:1;fill-rule:nonzero;stroke:none"
       d="M 14.863281,15.492188 C 8.234375,22.121094 6.320312,31.625 9.121094,39.914062 L 39.285156,9.75 C 30.996094,6.949219 21.492188,8.863281 14.863281,15.492188 Z m 0,0"
       id="path6" />
    <path
       inkscape:connector-curvature="0"
       style="fill:#8c6e61;fill-opacity:1;fill-rule:nonzero;stroke:none"
       d="m 7.957031,32.339844 c 0,9.375 5.367188,17.449218 13.210938,21.332031 V 11.011719 C 13.324219,14.894531 7.957031,22.96875 7.957031,32.339844 Z m 0,0"
       id="path8" />
    <path
       inkscape:connector-curvature="0"
       style="fill:#8c6e61;fill-opacity:1;fill-rule:nonzero;stroke:none"
       d="m 14.992188,49.136719 c 6.628906,6.628906 16.132812,8.542969 24.421874,5.742187 L 9.25,24.714844 c -2.800781,8.289062 -0.886719,17.792968 5.742188,24.421875 z m 0,0"
       id="path10" />
    <path
       inkscape:connector-curvature="0"
       style="fill:#8c6e61;fill-opacity:1;fill-rule:nonzero;stroke:none"
       d="m 31.839844,56.042969 c 9.375,0 17.449218,-5.367188 21.332031,-13.210938 H 10.511719 c 3.882812,7.84375 11.957031,13.210938 21.328125,13.210938 z m 0,0"
       id="path12" />
    <path
       inkscape:connector-curvature="0"
       style="fill:#8c6e61;fill-opacity:1;fill-rule:nonzero;stroke:none"
       d="M 48.636719,49.007812 C 55.265625,42.378906 57.179688,32.875 54.378906,24.585938 L 24.214844,54.75 c 8.289062,2.800781 17.792968,0.886719 24.421875,-5.742188 z m 0,0"
       id="path14" />
    <path
       inkscape:connector-curvature="0"
       style="fill:#8c6e61;fill-opacity:1;fill-rule:nonzero;stroke:none"
       d="m 55.542969,32.160156 c 0,-9.375 -5.367188,-17.449218 -13.210938,-21.332031 V 53.488281 C 50.175781,49.605469 55.542969,41.53125 55.542969,32.160156 Z m 0,0"
       id="path16" />
    <path
       inkscape:connector-curvature="0"
       style="fill:#8c6e61;fill-opacity:1;fill-rule:nonzero;stroke:none"
       d="m 31.683594,8.375 c -2.566406,0 -5.136719,0.414062 -7.597656,1.246094 l 0.09766,0.09375 C 29.078125,8.085938 34.394531,8.097656 39.285156,9.75 L 31.75,17.28125 54.25,39.785156 C 57.050781,31.496094 55.136719,21.992188 48.507812,15.363281 43.847656,10.703125 37.765625,8.371094 31.683594,8.375 Z m 0,0"
       id="path18" />
    <path
       inkscape:connector-curvature="0"
       style="fill:#8c6e61;fill-opacity:1;fill-rule:nonzero;stroke:none"
       d="m 31.660156,8.457031 c -9.375,0 -17.449218,5.367188 -21.332031,13.210938 h 0.06641 C 11.511719,19.441406 13,17.351562 14.863281,15.492188 21.492188,8.863281 30.996094,6.949219 39.285156,9.75 L 27.367188,21.667969 H 52.988281 C 49.105469,13.824219 41.03125,8.457031 31.660156,8.457031 Z m 0,0"
       id="path20" />
    <path
       inkscape:connector-curvature="0"
       style="fill:#3f3f3f;fill-opacity:1;fill-rule:nonzero;stroke:none"
       d="m 28.027344,21.003906 -0.660156,0.664063 h 25.621093 c -0.109375,-0.222657 -0.222656,-0.445313 -0.339843,-0.664063 z m 0,0"
       id="path22" />
    <path
       inkscape:connector-curvature="0"
       style="fill:#616161;fill-opacity:1;fill-rule:nonzero;stroke:none"
       d="m 31.75,24.3125 c 4.382812,0 7.9375,3.554688 7.9375,7.9375 0,4.382812 -3.554688,7.9375 -7.9375,7.9375 -4.382812,0 -7.9375,-3.554688 -7.9375,-7.9375 0,-4.382812 3.554688,-7.9375 7.9375,-7.9375 z m 0,0"
       id="path24" />
    <path
       inkscape:connector-curvature="0"
       style="fill:#3f3f3f;fill-opacity:1;fill-rule:nonzero;stroke:none"
       d="m 21.167969,26.929688 v 0.9375 L 39.285156,9.75 C 39.050781,9.667969 38.8125,9.59375 38.574219,9.523438 Z m 0,0"
       id="path26" />
    <path
       inkscape:connector-curvature="0"
       style="fill:#3f3f3f;fill-opacity:1;fill-rule:nonzero;stroke:none"
       d="m 20.503906,35.972656 0.664063,0.660156 V 11.011719 c -0.222657,0.109375 -0.445313,0.222656 -0.664063,0.339843 z m 0,0"
       id="path28" />
    <path
       inkscape:connector-curvature="0"
       style="fill:#3f3f3f;fill-opacity:1;fill-rule:nonzero;stroke:none"
       d="m 26.429688,42.832031 h 0.9375 L 9.25,24.714844 C 9.167969,24.949219 9.09375,25.1875 9.023438,25.425781 Z m 0,0"
       id="path30" />
    <path
       inkscape:connector-curvature="0"
       style="fill:#3f3f3f;fill-opacity:1;fill-rule:nonzero;stroke:none"
       d="m 35.472656,43.496094 0.660156,-0.664063 H 10.511719 c 0.109375,0.222657 0.222656,0.445313 0.339843,0.664063 z m 0,0"
       id="path32" />
    <path
       inkscape:connector-curvature="0"
       style="fill:#3f3f3f;fill-opacity:1;fill-rule:nonzero;stroke:none"
       d="m 42.332031,37.570312 v -0.9375 L 24.214844,54.75 c 0.234375,0.08203 0.472656,0.15625 0.710937,0.226562 z m 0,0"
       id="path34" />
    <path
       inkscape:connector-curvature="0"
       style="fill:#3f3f3f;fill-opacity:1;fill-rule:nonzero;stroke:none"
       d="m 42.996094,28.527344 -0.664063,-0.660156 v 25.621093 c 0.222657,-0.109375 0.445313,-0.222656 0.664063,-0.339843 z m 0,0"
       id="path36" />
    <path
       inkscape:connector-curvature="0"
       style="fill:#3f3f3f;fill-opacity:1;fill-rule:nonzero;stroke:none"
       d="m 37.070312,21.667969 h -0.9375 L 54.25,39.785156 c 0.08203,-0.234375 0.15625,-0.472656 0.226562,-0.710937 z m 0,0"
       id="path38" />
    <path
       inkscape:connector-curvature="0"
       style="fill:#9c9c9c;fill-opacity:1;fill-rule:nonzero;stroke:none"
       d="m 28.441406,25.636719 c 1.828125,0 3.308594,1.480469 3.308594,3.304687 0,1.828125 -1.480469,3.308594 -3.308594,3.308594 -1.824218,0 -3.304687,-1.480469 -3.304687,-3.308594 0,-1.824218 1.480469,-3.304687 3.304687,-3.304687 z m 0,0"
       id="path40" />
  </g>
</svg>
