<?xml version="1.0" encoding="UTF-8" standalone="no"?>
<svg
   xmlns:dc="http://purl.org/dc/elements/1.1/"
   xmlns:cc="http://creativecommons.org/ns#"
   xmlns:rdf="http://www.w3.org/1999/02/22-rdf-syntax-ns#"
   xmlns:svg="http://www.w3.org/2000/svg"
   xmlns="http://www.w3.org/2000/svg"
   xmlns:sodipodi="http://sodipodi.sourceforge.net/DTD/sodipodi-0.dtd"
   xmlns:inkscape="http://www.inkscape.org/namespaces/inkscape"
   width="48"
   height="48"
   version="1"
   id="svg12"
   sodipodi:docname="teamviewer.svg"
   inkscape:version="0.92.4 (5da689c313, 2019-01-14)">
  <metadata
     id="metadata18">
    <rdf:RDF>
      <cc:Work
         rdf:about="">
        <dc:format>image/svg+xml</dc:format>
        <dc:type
           rdf:resource="http://purl.org/dc/dcmitype/StillImage" />
        <dc:title></dc:title>
      </cc:Work>
    </rdf:RDF>
  </metadata>
  <defs
     id="defs16" />
  <sodipodi:namedview
     pagecolor="#ffffff"
     bordercolor="#666666"
     borderopacity="1"
     objecttolerance="10"
     gridtolerance="10"
     guidetolerance="10"
     inkscape:pageopacity="0"
     inkscape:pageshadow="2"
     inkscape:window-width="1280"
     inkscape:window-height="954"
     id="namedview14"
     showgrid="false"
     inkscape:zoom="3.6875"
     inkscape:cx="27.254237"
     inkscape:cy="32"
     inkscape:window-x="0"
     inkscape:window-y="0"
     inkscape:window-maximized="1"
     inkscape:current-layer="svg12" />
  <g
     id="g3863"
     transform="matrix(0.74784419,0,0,0.74784419,0.06898592,11.660571)">
    <rect
       id="rect2"
       ry="16.799999"
       rx="16.799999"
       y="-11"
       x="4"
       height="56"
       width="56"
       style="opacity:0.2" />
    <rect
       id="rect4"
       ry="16.799999"
       rx="16.799999"
       y="-12"
       x="4"
       height="56"
       width="56"
       style="fill:#4e91d9" />
    <path
       inkscape:connector-curvature="0"
       id="path6"
       d="M 32,-4 C 20.402021,-4 11,5.402021 11,17 11,28.597979 20.402021,38 32,38 43.597979,38 53,28.597979 53,17 53,5.402021 43.597979,-4 32,-4 Z M 24,9 v 4 H 40 V 9 l 11,8 -11,8 V 21 H 24 v 4 L 13,17 Z"
       style="opacity:0.2" />
    <path
       inkscape:connector-curvature="0"
       id="path8"
       d="M 32,-5 C 20.402021,-5 11,4.402021 11,16 11,27.597979 20.402021,37 32,37 43.597979,37 53,27.597979 53,16 53,4.402021 43.597979,-5 32,-5 Z M 24,8 v 4 H 40 V 8 l 11,8 -11,8 V 20 H 24 v 4 L 13,16 Z"
       style="fill:#ffffff" />
    <path
       inkscape:connector-curvature="0"
       id="path10"
       d="M 20.800781,-12 C 11.493582,-12 4,-4.506418 4,4.800781 v 1 C 4,-3.506418 11.493582,-11 20.800781,-11 H 43.199219 C 52.506418,-11 60,-3.506418 60,5.800781 v -1 C 60,-4.506418 52.506418,-12 43.199219,-12 Z"
       style="opacity:0.2;fill:#ffffff" />
  </g>
</svg>
