<?xml version="1.0" encoding="UTF-8" standalone="no"?>
<svg
   xmlns:dc="http://purl.org/dc/elements/1.1/"
   xmlns:cc="http://creativecommons.org/ns#"
   xmlns:rdf="http://www.w3.org/1999/02/22-rdf-syntax-ns#"
   xmlns:svg="http://www.w3.org/2000/svg"
   xmlns="http://www.w3.org/2000/svg"
   xmlns:sodipodi="http://sodipodi.sourceforge.net/DTD/sodipodi-0.dtd"
   xmlns:inkscape="http://www.inkscape.org/namespaces/inkscape"
   width="48"
   height="48"
   viewBox="0 0 48 48"
   version="1.1"
   id="svg56"
   sodipodi:docname="thunderbird.svg"
   inkscape:version="0.92.4 (5da689c313, 2019-01-14)">
  <metadata
     id="metadata60">
    <rdf:RDF>
      <cc:Work
         rdf:about="">
        <dc:format>image/svg+xml</dc:format>
        <dc:type
           rdf:resource="http://purl.org/dc/dcmitype/StillImage" />
        <dc:title></dc:title>
      </cc:Work>
    </rdf:RDF>
  </metadata>
  <sodipodi:namedview
     pagecolor="#ffffff"
     bordercolor="#666666"
     borderopacity="1"
     objecttolerance="10"
     gridtolerance="10"
     guidetolerance="10"
     inkscape:pageopacity="0"
     inkscape:pageshadow="2"
     inkscape:window-width="1280"
     inkscape:window-height="954"
     id="namedview58"
     showgrid="false"
     inkscape:zoom="3.6875"
     inkscape:cx="27.254237"
     inkscape:cy="32"
     inkscape:window-x="0"
     inkscape:window-y="0"
     inkscape:window-maximized="1"
     inkscape:current-layer="svg56" />
  <defs
     id="defs27">
    <linearGradient
       id="linear0"
       gradientUnits="userSpaceOnUse"
       x1="1330.9083"
       y1="925.77856"
       x2="1398.166"
       y2="1366.002"
       gradientTransform="matrix(0.0207204,0.00447906,0.00447906,-0.0207204,16.833038,58.879715)">
      <stop
         offset="0"
         style="stop-color:rgb(62.352943%,65.882355%,85.490197%);stop-opacity:1;"
         id="stop2" />
      <stop
         offset="1"
         style="stop-color:rgb(36.078432%,41.960785%,75.294119%);stop-opacity:0;"
         id="stop4" />
    </linearGradient>
    <linearGradient
       id="linear1"
       gradientUnits="userSpaceOnUse"
       x1="1330.9083"
       y1="925.77856"
       x2="1384.5494"
       y2="1203.4882"
       gradientTransform="matrix(-0.0330678,-5.82981e-4,-5.82981e-4,0.0330678,59.193798,-7.757931)">
      <stop
         offset="0"
         style="stop-color:rgb(62.352943%,65.882355%,85.490197%);stop-opacity:1;"
         id="stop7" />
      <stop
         offset="1"
         style="stop-color:rgb(36.078432%,41.960785%,75.294119%);stop-opacity:0;"
         id="stop9" />
    </linearGradient>
    <linearGradient
       id="linear2"
       gradientUnits="userSpaceOnUse"
       x1="1330.9083"
       y1="925.77856"
       x2="1398.166"
       y2="1366.002"
       gradientTransform="matrix(0.0256854,-0.00824778,-0.00824778,-0.0256854,28.967718,74.706371)">
      <stop
         offset="0"
         style="stop-color:rgb(62.352943%,65.882355%,85.490197%);stop-opacity:1;"
         id="stop12" />
      <stop
         offset="1"
         style="stop-color:rgb(36.078432%,41.960785%,75.294119%);stop-opacity:0;"
         id="stop14" />
    </linearGradient>
    <linearGradient
       id="linear3"
       gradientUnits="userSpaceOnUse"
       x1="1330.9083"
       y1="925.77856"
       x2="1398.166"
       y2="1366.002"
       gradientTransform="matrix(0.0263681,0.00569989,0.00569989,-0.0263681,4.946861,56.817856)">
      <stop
         offset="0"
         style="stop-color:rgb(62.352943%,65.882355%,85.490197%);stop-opacity:1;"
         id="stop17" />
      <stop
         offset="1"
         style="stop-color:rgb(36.078432%,41.960785%,75.294119%);stop-opacity:0;"
         id="stop19" />
    </linearGradient>
    <linearGradient
       id="linear4"
       gradientUnits="userSpaceOnUse"
       x1="1330.9083"
       y1="925.77856"
       x2="1398.166"
       y2="1366.002"
       gradientTransform="matrix(-0.0254598,0.00891981,0.00891981,0.0254598,33.895786,-9.340225)">
      <stop
         offset="0"
         style="stop-color:rgb(62.352943%,65.882355%,85.490197%);stop-opacity:1;"
         id="stop22" />
      <stop
         offset="1"
         style="stop-color:rgb(36.078432%,41.960785%,75.294119%);stop-opacity:0;"
         id="stop24" />
    </linearGradient>
  </defs>
  <g
     id="surface1"
     transform="matrix(0.7205215,0,0,0.7205215,0.88166146,0.75998374)">
    <path
       style="fill:#3d4fb3;fill-opacity:1;fill-rule:nonzero;stroke:none"
       d="M 33.667969,6.542969 C 19.175781,9.507812 10.40625,14.230469 6.613281,28.28125 c 4.582031,-5.507812 2.882813,2.355469 9.640625,2.355469 -3.96875,-9.921875 8.375,-21.039063 17.414063,-24.09375 z m 0,0"
       id="path29"
       inkscape:connector-curvature="0" />
    <path
       style="fill:#bdbdbd;fill-opacity:1;fill-rule:nonzero;stroke:none"
       d="m 19.992188,15.734375 32.03125,8.582031 c 1.261718,0.335938 2.011718,1.636719 1.675781,2.898438 l -6.132813,22.882812 c -0.339844,1.261719 -1.636718,2.011719 -2.902344,1.671875 L 12.632812,43.1875 C 11.371094,42.851562 10.621094,41.550781 10.957031,40.289062 L 17.089844,17.40625 c 0.339844,-1.261719 1.636718,-2.011719 2.902344,-1.671875 z m 0,0"
       id="path31"
       inkscape:connector-curvature="0" />
    <path
       style="fill:#dedede;fill-opacity:1;fill-rule:nonzero;stroke:none"
       d="m 18.28125,15.917969 c -0.566406,0.296875 -1.011719,0.820312 -1.191406,1.488281 l -6.132813,22.882812 c -0.183593,0.695313 -0.04297,1.402344 0.335938,1.949219 l 20.730469,-7.34375 z m 0,0"
       id="path33"
       inkscape:connector-curvature="0" />
    <path
       style="fill:#dedede;fill-opacity:1;fill-rule:nonzero;stroke:none"
       d="m 53.410156,25.332031 c 0.34375,0.539063 0.464844,1.214844 0.289063,1.882813 l -6.132813,22.882812 c -0.1875,0.695313 -0.664062,1.234375 -1.265625,1.523438 L 32.023438,34.894531 Z m 0,0"
       id="path35"
       inkscape:connector-curvature="0" />
    <path
       style="fill:#eeeeee;fill-opacity:1;fill-rule:nonzero;stroke:none"
       d="m 19.992188,15.730469 c -0.957032,-0.253907 -1.929688,0.109375 -2.496094,0.847656 l 13.570312,19 c 0.324219,0.457031 0.929688,0.621094 1.441406,0.386719 l 21.25,-9.671875 c -0.117187,-0.921875 -0.777343,-1.722657 -1.734374,-1.976563 z m 0,0"
       id="path37"
       inkscape:connector-curvature="0" />
    <path
       style="fill:#3d4fb3;fill-opacity:1;fill-rule:nonzero;stroke:none"
       d="M 57.664062,13.457031 C 54.4375,11.609375 48.699219,9.558594 44.648438,9.097656 l -2.257813,8.070313 c -0.398437,0.691406 -0.851563,1.320312 -1.355469,1.882812 0.242188,0.253907 0.492188,0.515625 0.761719,0.78125 5.703125,-4.265625 12.152344,-5.761719 19.636719,-3.890625 -1.171875,-0.875 -2.429688,-1.71875 -3.769532,-2.484375 z m 0,0"
       id="path39"
       inkscape:connector-curvature="0" />
    <path
       style="fill:#5c68bf;fill-opacity:1;fill-rule:nonzero;stroke:none"
       d="m 41.160156,8.558594 c -2.699218,0.011718 -4.570312,2.21875 -6.539062,3.78125 -1.644532,1.292968 -6.089844,1.089844 -5.605469,3.582031 4.390625,0.683594 6.390625,5.117187 9.914063,7.265625 2.523437,1.996094 4.148437,4.980469 5.027343,8.039062 1.507813,5.761719 -1.660156,12.328126 -7.234375,14.5625 C 30.597656,48.582031 22.625,45.441406 20.167969,39.136719 17.664062,31.296875 19.230469,23.625 25.136719,17.699219 17.199219,20.34375 14.550781,21.667969 11.90625,24.3125 12.207031,21.316406 16.535156,9.761719 24.472656,3.144531 6.613281,12.40625 2.699219,24.605469 2.75,32.476562 c -0.105469,3.742188 0.445312,6.632813 2.148438,11.125 4.230468,10.347657 14.886718,17.613282 26.074218,17.742188 11.078125,0.4375 22.011719,-6.132812 26.828125,-16.117188 3.453125,-6.878906 3.832031,-15.058593 1.867188,-22.421874 -0.800781,-1.796876 -1.675781,-4.351563 -1.878907,-4.585938 1.242188,-0.246094 3.6875,2.148438 1.984376,0.0078 C 56.417969,13.109375 50.945312,9.21875 44.738281,8.738281 43.734375,8.628906 42.722656,8.582031 41.710938,8.585938 41.523438,8.566406 41.339844,8.554688 41.160156,8.558594 Z m 0,0"
       id="path41"
       inkscape:connector-curvature="0" />
    <path
       style="fill:url(#linear0);fill-rule:nonzero;stroke:none"
       d="m 43.417969,50.097656 c 7.125,-4.882812 5.210937,-10.066406 4.683593,-13.652344 1.414063,-0.234374 4.996094,-0.734374 6.136719,-1.550781 0.484375,7.226563 -2.929687,14.824219 -10.820312,15.203125 z m 0,0"
       id="path43"
       inkscape:connector-curvature="0" />
    <path
       style="fill:url(#linear1);fill-rule:nonzero;stroke:none"
       d="m 21.167969,13.730469 c -9.433594,9.628906 -4.933594,16.984375 -3.039063,22.3125 -2.089844,0.785156 -7.421875,2.632812 -8.925781,4.230469 C 6.277344,29.363281 9.207031,16.699219 21.167969,13.730469 Z m 0,0"
       id="path45"
       inkscape:connector-curvature="0" />
    <path
       style="fill:#9ea6d9;fill-opacity:1;fill-rule:nonzero;stroke:none"
       d="m 32.730469,13.300781 c -0.183594,0.0625 -0.867188,-0.144531 -2.074219,0.398438 -0.625,0.28125 -1.027344,0.605469 -1.304688,0.949219 -0.355468,0.417968 -0.492187,0.832031 -0.671874,1.1875 0.78125,0.210937 2.507812,0.511718 4.214843,1.863281 1.707031,1.351562 3.332031,3.703125 5.722657,5.253906 C 37.703125,16.375 35.847656,14.5625 32.730469,13.300781 Z m 0,0"
       id="path47"
       inkscape:connector-curvature="0" />
    <path
       style="fill:url(#linear2);fill-rule:nonzero;stroke:none"
       d="m 52.675781,48.113281 c 4.75,-9.914062 -0.660156,-14.410156 -3.519531,-18.027343 1.40625,-1.15625 5.035156,-3.988282 5.777344,-5.613282 5.128906,7.652344 6.195312,18.203125 -2.257813,23.640625 z m 0,0"
       id="path49"
       inkscape:connector-curvature="0" />
    <path
       style="fill:url(#linear3);fill-rule:nonzero;stroke:none"
       d="m 38.777344,45.640625 c 9.070312,-6.210937 6.632812,-12.808594 5.960937,-17.371094 1.796875,-0.296875 6.355469,-0.933593 7.8125,-1.972656 0.613281,9.191406 -3.734375,18.863281 -13.773437,19.34375 z m 0,0"
       id="path51"
       inkscape:connector-curvature="0" />
    <path
       style="fill:url(#linear4);fill-rule:nonzero;stroke:none"
       d="m 10.894531,17.867188 c -4.488281,10.035156 1.039063,14.390624 3.992188,17.925781 -1.375,1.195312 -4.929688,4.121093 -5.625,5.765625 C 3.933594,34.042969 2.585938,23.523438 10.894531,17.867188 Z m 0,0"
       id="path53"
       inkscape:connector-curvature="0" />
  </g>
</svg>
