<?xml version="1.0" encoding="UTF-8" standalone="no"?>
<!-- Created with Inkscape (http://www.inkscape.org/) -->

<svg
   xmlns:dc="http://purl.org/dc/elements/1.1/"
   xmlns:cc="http://creativecommons.org/ns#"
   xmlns:rdf="http://www.w3.org/1999/02/22-rdf-syntax-ns#"
   xmlns:svg="http://www.w3.org/2000/svg"
   xmlns="http://www.w3.org/2000/svg"
   xmlns:sodipodi="http://sodipodi.sourceforge.net/DTD/sodipodi-0.dtd"
   xmlns:inkscape="http://www.inkscape.org/namespaces/inkscape"
   id="svg2"
   version="1.1"
   inkscape:version="0.92.4 (5da689c313, 2019-01-14)"
   width="48"
   height="48"
   sodipodi:docname="code-insiders.svg"
   viewBox="0 0 48 48">
  <metadata
     id="metadata8">
    <rdf:RDF>
      <cc:Work
         rdf:about="">
        <dc:format>image/svg+xml</dc:format>
        <dc:type
           rdf:resource="http://purl.org/dc/dcmitype/StillImage" />
        <dc:title></dc:title>
      </cc:Work>
    </rdf:RDF>
  </metadata>
  <defs
     id="defs6">
    <clipPath
       id="clipPath3947"
       clipPathUnits="userSpaceOnUse">
      <ellipse
         ry="212.23589"
         rx="203.24309"
         cy="256.47083"
         cx="256.52075"
         id="ellipse3949"
         style="opacity:1;fill:#ffc82d;fill-opacity:1;stroke:none;stroke-width:0;stroke-linecap:butt;stroke-linejoin:miter;stroke-miterlimit:4;stroke-dasharray:none;stroke-dashoffset:0;stroke-opacity:1" />
    </clipPath>
    <clipPath
       id="clipPath4806"
       clipPathUnits="userSpaceOnUse">
      <circle
         r="211.62711"
         cy="248.91539"
         cx="249.4608"
         id="circle4808"
         style="opacity:1;fill:#f6c439;fill-opacity:1;stroke:none;stroke-width:0;stroke-linecap:butt;stroke-linejoin:miter;stroke-miterlimit:4;stroke-dasharray:none;stroke-dashoffset:0;stroke-opacity:1" />
    </clipPath>
    <clipPath
       id="clipPath4837"
       clipPathUnits="userSpaceOnUse">
      <circle
         r="207.13615"
         cy="256"
         cx="256"
         id="circle4839"
         style="opacity:1;fill:#0fa15f;fill-opacity:1;stroke:none;stroke-width:0;stroke-linecap:butt;stroke-linejoin:miter;stroke-miterlimit:4;stroke-dasharray:none;stroke-dashoffset:0;stroke-opacity:1" />
    </clipPath>
    <clipPath
       id="clipPath5050"
       clipPathUnits="userSpaceOnUse">
      <path
         inkscape:connector-curvature="0"
         id="path5052"
         d="M 255.99999,45.26758 A 210.73167,210.73167 0 0 0 45.267565,256 210.73167,210.73167 0 0 0 255.99999,466.73242 210.73167,210.73167 0 0 0 466.73244,256 210.73167,210.73167 0 0 0 255.99999,45.26758 Z m 0,111.84375 A 98.888542,98.888542 0 0 1 354.88866,256 98.888542,98.888542 0 0 1 255.99999,354.88867 98.888542,98.888542 0 0 1 157.11132,256 98.888542,98.888542 0 0 1 255.99999,157.11133 Z"
         style="opacity:1;fill:#f9f9f9;fill-opacity:1;stroke:none;stroke-width:0;stroke-linecap:butt;stroke-linejoin:miter;stroke-miterlimit:4;stroke-dasharray:none;stroke-dashoffset:0;stroke-opacity:1" />
    </clipPath>
    <clipPath
       id="clipPath5127"
       clipPathUnits="userSpaceOnUse">
      <path
         inkscape:connector-curvature="0"
         id="path5129"
         d="M 255.99999,45.26758 A 210.73167,210.73167 0 0 0 45.26756,256 210.73167,210.73167 0 0 0 255.99999,466.73242 210.73167,210.73167 0 0 0 466.73244,256 210.73167,210.73167 0 0 0 255.99999,45.26758 Z m 0,111.84375 A 98.888542,98.888542 0 0 1 354.88864,256 98.888542,98.888542 0 0 1 255.99999,354.88867 98.888542,98.888542 0 0 1 157.11132,256 98.888542,98.888542 0 0 1 255.99999,157.11133 Z"
         style="opacity:1;fill:#f9f9f9;fill-opacity:1;stroke:none;stroke-width:0;stroke-linecap:butt;stroke-linejoin:miter;stroke-miterlimit:4;stroke-dasharray:none;stroke-dashoffset:0;stroke-opacity:1" />
    </clipPath>
  </defs>
  <sodipodi:namedview
     pagecolor="#ffffff"
     bordercolor="#666666"
     borderopacity="1"
     objecttolerance="10"
     gridtolerance="10"
     guidetolerance="10"
     inkscape:pageopacity="0"
     inkscape:pageshadow="2"
     inkscape:window-width="1280"
     inkscape:window-height="954"
     id="namedview4"
     showgrid="false"
     inkscape:zoom="5.2149125"
     inkscape:cx="24.76604"
     inkscape:cy="15.18456"
     inkscape:window-x="0"
     inkscape:window-y="0"
     inkscape:window-maximized="1"
     inkscape:current-layer="svg2"
     inkscape:document-units="px" />
  <g
     id="g4151"
     transform="matrix(0.09253533,0,0,0.09253533,0.86616764,-0.22037129)">
    <path
       inkscape:connector-curvature="0"
       id="path4506"
       d="m 24.999997,148.78267 0.181758,225.9184 45.107627,-36.66117 V 186.54298 Z"
       style="fill:#00a388;fill-opacity:1;stroke:none;stroke-width:1px;stroke-linecap:butt;stroke-linejoin:miter;stroke-opacity:1" />
    <path
       inkscape:connector-curvature="0"
       id="path4489"
       d="M 25.181755,374.70107 69.929953,397.34474 377.59629,158.50796 370.0484,36.483761 Z"
       style="fill:#007c64;fill-opacity:1;stroke:none;stroke-width:1px;stroke-linecap:butt;stroke-linejoin:miter;stroke-opacity:1" />
    <path
       inkscape:connector-curvature="0"
       id="path4489-3"
       d="M 24.999997,148.78267 69.748196,126.13901 377.41452,364.97578 369.86663,487 Z"
       style="fill:#00a388;fill-opacity:1;stroke:none;stroke-width:1px;stroke-linecap:butt;stroke-linejoin:miter;stroke-opacity:1" />
    <path
       inkscape:connector-curvature="0"
       id="path4508"
       d="M 369.86663,487 370.0484,36.483761 475,83.029079 474.28115,442.45236 Z"
       style="fill:#24bfa5;fill-opacity:1;stroke:none;stroke-width:1px;stroke-linecap:butt;stroke-linejoin:miter;stroke-opacity:1" />
  </g>
  <path
     inkscape:connector-curvature="0"
     style="opacity:0.1;fill:#ffffff"
     d="m -23.415453,5.005899 c -0.791196,0.07433 -1.551347,0.421027 -2.140625,1.013672 l -37.75,33.996094 c -0.638415,0.585498 -0.86406,1.437175 -0.697265,2.220703 0.09871,-0.452447 0.327884,-0.88194 0.697265,-1.220703 l 37.75,-33.996094 c 0.785704,-0.790194 1.87668,-1.142717 2.9375,-0.996093 0.353608,0.04887 0.705399,0.154808 1.039062,0.316406 l 11.53125,5.585938 c 0.02644,0.01281 0.05015,0.02956 0.07617,0.04297 1.027582,0.185704 1.904299,1.044416 1.904299,2.261717 V 14.09379 c 0,-1.351511 -0.769777,-2.58168 -1.980469,-3.167969 l -11.53125,-5.585937 c -0.333663,-0.161598 -0.685454,-0.267532 -1.039062,-0.316406 -0.265205,-0.03666 -0.533143,-0.04235 -0.796875,-0.01758 z"
     id="path8" />
  <path
     inkscape:connector-curvature="0"
     style="opacity:0.1;fill:#ffffff"
     d="m -58.755296,17.007852 c -0.528724,0.02364 -1.049234,0.229361 -1.464844,0.609375 l -3.085938,2.820312 c -0.63982,0.585019 -0.86435,1.435031 -0.697265,2.21875 0.09887,-0.451503 0.327539,-0.880691 0.697265,-1.21875 l 3.085938,-2.820312 c 0.41561,-0.380014 0.93612,-0.585735 1.464844,-0.609375 0.528724,-0.02364 1.064246,0.135139 1.511719,0.476563 l 45.460936,36.128906 c 0.54193,0.41349 1.166333,0.530735 1.748047,0.4375 1.2024549,-0.589159 1.9667969,-1.814083 1.9667969,-3.160156 v -0.136719 c 0,1.925521 -2.1897839,3.022992 -3.7148439,1.859375 L -57.243577,17.484415 c -0.447473,-0.341424 -0.982995,-0.5002 -1.511719,-0.476563 z"
     id="path14" />
  <path
     inkscape:connector-curvature="0"
     style="opacity:0.2;fill:#ffffff"
     d="m -23.249438,5.001993 c -0.627046,0.04024 -1.23572,0.263229 -1.771484,0.626953 0.797077,-0.405684 1.725166,-0.197822 2.322266,0.392578 0.0268,0.003 0.05327,-0.0017 0.08008,0.002 0.353668,0.04875 0.705289,0.154953 1.039062,0.316407 l 11.53125,5.574218 c 1.2115639,0.585985 1.9804669,1.819781 1.9804669,3.171878 v -0.999999 c 0,-1.352098 -0.768903,-2.585894 -1.9804689,-3.171875 l -11.53125,-5.574269 c -0.333773,-0.161454 -0.685394,-0.267651 -1.039062,-0.316406 -0.211231,-0.02912 -0.421844,-0.0349 -0.63086,-0.02148 z m -1.771484,0.626953 c -0.189239,0.09631 -0.369511,0.224011 -0.535156,0.390625 0.160019,-0.160939 0.352469,-0.266602 0.535156,-0.390625 z m 2.960937,52.878906 c 0,1.600393 -1.675684,2.50174 -2.960937,1.847656 0.720862,0.489356 1.57442,0.663708 2.419922,0.539063 0.325562,-0.352838 0.541015,-0.822949 0.541015,-1.386719 z m -2.960937,1.847656 c -0.182679,-0.12402 -0.375143,-0.229686 -0.535156,-0.390625 0.165639,0.166599 0.345925,0.294321 0.535156,0.390625 z"
     id="path18" />
</svg>
