<?xml version="1.0" encoding="UTF-8" standalone="no"?>
<!-- Created with Inkscape (http://www.inkscape.org/) -->

<svg
   xmlns:dc="http://purl.org/dc/elements/1.1/"
   xmlns:cc="http://creativecommons.org/ns#"
   xmlns:rdf="http://www.w3.org/1999/02/22-rdf-syntax-ns#"
   xmlns:svg="http://www.w3.org/2000/svg"
   xmlns="http://www.w3.org/2000/svg"
   xmlns:xlink="http://www.w3.org/1999/xlink"
   xmlns:sodipodi="http://sodipodi.sourceforge.net/DTD/sodipodi-0.dtd"
   xmlns:inkscape="http://www.inkscape.org/namespaces/inkscape"
   id="svg2"
   version="1.1"
   inkscape:version="0.92.4 (5da689c313, 2019-01-14)"
   width="48"
   height="48"
   sodipodi:docname="aplication-x-executable.svg">
  <metadata
     id="metadata8">
    <rdf:RDF>
      <cc:Work
         rdf:about="">
        <dc:format>image/svg+xml</dc:format>
        <dc:type
           rdf:resource="http://purl.org/dc/dcmitype/StillImage" />
        <dc:title />
      </cc:Work>
    </rdf:RDF>
  </metadata>
  <defs
     id="defs6">
    <linearGradient
       inkscape:collect="always"
       id="linearGradient3920">
      <stop
         style="stop-color:#e4e4e4;stop-opacity:1"
         offset="0"
         id="stop3916" />
      <stop
         style="stop-color:#9f9f9f;stop-opacity:1"
         offset="1"
         id="stop3918" />
    </linearGradient>
    <filter
       style="color-interpolation-filters:sRGB"
       id="a">
      <feFlood
         flood-color="#000"
         flood-opacity=".196"
         result="flood"
         id="feFlood2" />
      <feComposite
         in="flood"
         in2="SourceGraphic"
         operator="in"
         result="composite1"
         id="feComposite4" />
      <feGaussianBlur
         in="composite1"
         result="blur"
         stdDeviation="1.5"
         id="feGaussianBlur6" />
      <feOffset
         dx="0"
         dy="1.5"
         result="offset"
         id="feOffset8" />
      <feComposite
         in="SourceGraphic"
         in2="offset"
         result="composite2"
         id="feComposite10" />
    </filter>
    <filter
       style="color-interpolation-filters:sRGB"
       id="filter3892">
      <feFlood
         flood-color="#000"
         flood-opacity=".196"
         result="flood"
         id="feFlood3882" />
      <feComposite
         in="flood"
         in2="SourceGraphic"
         operator="in"
         result="composite1"
         id="feComposite3884" />
      <feGaussianBlur
         in="composite1"
         result="blur"
         stdDeviation="1.5"
         id="feGaussianBlur3886" />
      <feOffset
         dx="0"
         dy="1.5"
         result="offset"
         id="feOffset3888" />
      <feComposite
         in="SourceGraphic"
         in2="offset"
         result="composite2"
         id="feComposite3890" />
    </filter>
    <linearGradient
       inkscape:collect="always"
       xlink:href="#linearGradient3920"
       id="linearGradient3922"
       x1="45.212868"
       y1="45.863758"
       x2="13.394479"
       y2="11.558674"
       gradientUnits="userSpaceOnUse" />
    <filter
       style="color-interpolation-filters:sRGB"
       id="a-3">
      <feFlood
         flood-color="#000"
         flood-opacity=".196"
         result="flood"
         id="feFlood2-6" />
      <feComposite
         in="flood"
         in2="SourceGraphic"
         operator="in"
         result="composite1"
         id="feComposite4-7" />
      <feGaussianBlur
         in="composite1"
         result="blur"
         stdDeviation="1.5"
         id="feGaussianBlur6-5" />
      <feOffset
         dx="0"
         dy="1.5"
         result="offset"
         id="feOffset8-3" />
      <feComposite
         in="SourceGraphic"
         in2="offset"
         result="composite2"
         id="feComposite10-5" />
    </filter>
    <filter
       style="color-interpolation-filters:sRGB"
       id="filter3892-6">
      <feFlood
         flood-color="#000"
         flood-opacity=".196"
         result="flood"
         id="feFlood3882-2" />
      <feComposite
         in="flood"
         in2="SourceGraphic"
         operator="in"
         result="composite1"
         id="feComposite3884-9" />
      <feGaussianBlur
         in="composite1"
         result="blur"
         stdDeviation="1.5"
         id="feGaussianBlur3886-1" />
      <feOffset
         dx="0"
         dy="1.5"
         result="offset"
         id="feOffset3888-2" />
      <feComposite
         in="SourceGraphic"
         in2="offset"
         result="composite2"
         id="feComposite3890-7" />
    </filter>
    <filter
       style="color-interpolation-filters:sRGB"
       id="filter3904">
      <feFlood
         flood-color="#000"
         flood-opacity=".196"
         result="flood"
         id="feFlood3894" />
      <feComposite
         in="flood"
         in2="SourceGraphic"
         operator="in"
         result="composite1"
         id="feComposite3896" />
      <feGaussianBlur
         in="composite1"
         result="blur"
         stdDeviation="1.5"
         id="feGaussianBlur3898" />
      <feOffset
         dx="0"
         dy="1.5"
         result="offset"
         id="feOffset3900" />
      <feComposite
         in="SourceGraphic"
         in2="offset"
         result="composite2"
         id="feComposite3902" />
    </filter>
    <filter
       style="color-interpolation-filters:sRGB"
       id="filter3916">
      <feFlood
         flood-color="#000"
         flood-opacity=".196"
         result="flood"
         id="feFlood3906" />
      <feComposite
         in="flood"
         in2="SourceGraphic"
         operator="in"
         result="composite1"
         id="feComposite3908" />
      <feGaussianBlur
         in="composite1"
         result="blur"
         stdDeviation="1.5"
         id="feGaussianBlur3910" />
      <feOffset
         dx="0"
         dy="1.5"
         result="offset"
         id="feOffset3912" />
      <feComposite
         in="SourceGraphic"
         in2="offset"
         result="composite2"
         id="feComposite3914" />
    </filter>
    <filter
       style="color-interpolation-filters:sRGB"
       id="filter3928">
      <feFlood
         flood-color="#000"
         flood-opacity=".196"
         result="flood"
         id="feFlood3918" />
      <feComposite
         in="flood"
         in2="SourceGraphic"
         operator="in"
         result="composite1"
         id="feComposite3920" />
      <feGaussianBlur
         in="composite1"
         result="blur"
         stdDeviation="1.5"
         id="feGaussianBlur3922" />
      <feOffset
         dx="0"
         dy="1.5"
         result="offset"
         id="feOffset3924" />
      <feComposite
         in="SourceGraphic"
         in2="offset"
         result="composite2"
         id="feComposite3926" />
    </filter>
    <filter
       style="color-interpolation-filters:sRGB"
       id="filter3940">
      <feFlood
         flood-color="#000"
         flood-opacity=".196"
         result="flood"
         id="feFlood3930" />
      <feComposite
         in="flood"
         in2="SourceGraphic"
         operator="in"
         result="composite1"
         id="feComposite3932" />
      <feGaussianBlur
         in="composite1"
         result="blur"
         stdDeviation="1.5"
         id="feGaussianBlur3934" />
      <feOffset
         dx="0"
         dy="1.5"
         result="offset"
         id="feOffset3936" />
      <feComposite
         in="SourceGraphic"
         in2="offset"
         result="composite2"
         id="feComposite3938" />
    </filter>
    <filter
       style="color-interpolation-filters:sRGB"
       id="filter3952">
      <feFlood
         flood-color="#000"
         flood-opacity=".196"
         result="flood"
         id="feFlood3942" />
      <feComposite
         in="flood"
         in2="SourceGraphic"
         operator="in"
         result="composite1"
         id="feComposite3944" />
      <feGaussianBlur
         in="composite1"
         result="blur"
         stdDeviation="1.5"
         id="feGaussianBlur3946" />
      <feOffset
         dx="0"
         dy="1.5"
         result="offset"
         id="feOffset3948" />
      <feComposite
         in="SourceGraphic"
         in2="offset"
         result="composite2"
         id="feComposite3950" />
    </filter>
    <filter
       style="color-interpolation-filters:sRGB"
       id="filter3964">
      <feFlood
         flood-color="#000"
         flood-opacity=".196"
         result="flood"
         id="feFlood3954" />
      <feComposite
         in="flood"
         in2="SourceGraphic"
         operator="in"
         result="composite1"
         id="feComposite3956" />
      <feGaussianBlur
         in="composite1"
         result="blur"
         stdDeviation="1.5"
         id="feGaussianBlur3958" />
      <feOffset
         dx="0"
         dy="1.5"
         result="offset"
         id="feOffset3960" />
      <feComposite
         in="SourceGraphic"
         in2="offset"
         result="composite2"
         id="feComposite3962" />
    </filter>
    <filter
       style="color-interpolation-filters:sRGB"
       id="filter3976">
      <feFlood
         flood-color="#000"
         flood-opacity=".196"
         result="flood"
         id="feFlood3966" />
      <feComposite
         in="flood"
         in2="SourceGraphic"
         operator="in"
         result="composite1"
         id="feComposite3968" />
      <feGaussianBlur
         in="composite1"
         result="blur"
         stdDeviation="1.5"
         id="feGaussianBlur3970" />
      <feOffset
         dx="0"
         dy="1.5"
         result="offset"
         id="feOffset3972" />
      <feComposite
         in="SourceGraphic"
         in2="offset"
         result="composite2"
         id="feComposite3974" />
    </filter>
    <filter
       style="color-interpolation-filters:sRGB"
       id="filter3988">
      <feFlood
         flood-color="#000"
         flood-opacity=".196"
         result="flood"
         id="feFlood3978" />
      <feComposite
         in="flood"
         in2="SourceGraphic"
         operator="in"
         result="composite1"
         id="feComposite3980" />
      <feGaussianBlur
         in="composite1"
         result="blur"
         stdDeviation="1.5"
         id="feGaussianBlur3982" />
      <feOffset
         dx="0"
         dy="1.5"
         result="offset"
         id="feOffset3984" />
      <feComposite
         in="SourceGraphic"
         in2="offset"
         result="composite2"
         id="feComposite3986" />
    </filter>
    <filter
       style="color-interpolation-filters:sRGB"
       id="filter4000">
      <feFlood
         flood-color="#000"
         flood-opacity=".196"
         result="flood"
         id="feFlood3990" />
      <feComposite
         in="flood"
         in2="SourceGraphic"
         operator="in"
         result="composite1"
         id="feComposite3992" />
      <feGaussianBlur
         in="composite1"
         result="blur"
         stdDeviation="1.5"
         id="feGaussianBlur3994" />
      <feOffset
         dx="0"
         dy="1.5"
         result="offset"
         id="feOffset3996" />
      <feComposite
         in="SourceGraphic"
         in2="offset"
         result="composite2"
         id="feComposite3998" />
    </filter>
    <filter
       style="color-interpolation-filters:sRGB"
       id="filter4012">
      <feFlood
         flood-color="#000"
         flood-opacity=".196"
         result="flood"
         id="feFlood4002" />
      <feComposite
         in="flood"
         in2="SourceGraphic"
         operator="in"
         result="composite1"
         id="feComposite4004" />
      <feGaussianBlur
         in="composite1"
         result="blur"
         stdDeviation="1.5"
         id="feGaussianBlur4006" />
      <feOffset
         dx="0"
         dy="1.5"
         result="offset"
         id="feOffset4008" />
      <feComposite
         in="SourceGraphic"
         in2="offset"
         result="composite2"
         id="feComposite4010" />
    </filter>
    <filter
       style="color-interpolation-filters:sRGB"
       id="filter4024">
      <feFlood
         flood-color="#000"
         flood-opacity=".196"
         result="flood"
         id="feFlood4014" />
      <feComposite
         in="flood"
         in2="SourceGraphic"
         operator="in"
         result="composite1"
         id="feComposite4016" />
      <feGaussianBlur
         in="composite1"
         result="blur"
         stdDeviation="1.5"
         id="feGaussianBlur4018" />
      <feOffset
         dx="0"
         dy="1.5"
         result="offset"
         id="feOffset4020" />
      <feComposite
         in="SourceGraphic"
         in2="offset"
         result="composite2"
         id="feComposite4022" />
    </filter>
  </defs>
  <sodipodi:namedview
     pagecolor="#ffffff"
     bordercolor="#666666"
     borderopacity="1"
     objecttolerance="10"
     gridtolerance="10"
     guidetolerance="10"
     inkscape:pageopacity="0"
     inkscape:pageshadow="2"
     inkscape:window-width="1280"
     inkscape:window-height="954"
     id="namedview4"
     showgrid="false"
     inkscape:zoom="7.375"
     inkscape:cx="2.9779663"
     inkscape:cy="4.8420273"
     inkscape:window-x="0"
     inkscape:window-y="0"
     inkscape:window-maximized="1"
     inkscape:current-layer="svg2" />
  <ellipse
     style="fill:#ffffff;fill-opacity:1;fill-rule:nonzero;stroke:#4169e1;stroke-width:0;stroke-linecap:round;stroke-linejoin:miter;stroke-miterlimit:4;stroke-dasharray:none;stroke-opacity:1"
     id="path3012"
     cx="1475.8141"
     cy="-342.33899"
     rx="159.9825"
     ry="156.20338" />
  <g
     id="g3882"
     transform="matrix(0.08668943,0,0,0.08668943,18.269087,16.880923)">
    <path
       sodipodi:nodetypes="csccccsc"
       inkscape:connector-curvature="0"
       id="path3009"
       d="m 62.99914,275.15987 c -0.36324,-0.36532 0,-44.01304 0,-96.80587 V 81.853176 l 98.59868,0.76772 99.31238,0.25389 c 0.0937,56.326534 -0.32317,192.415894 -0.32317,192.415894 0,0 -37.51195,0.0978 -121.11367,0.11403 -41.72689,0.008 -76.11098,0.1205 -76.47422,-0.24484 z"
       style="fill:#4f4f4f;fill-opacity:1" />
    <path
       sodipodi:nodetypes="cccccccccc"
       inkscape:connector-curvature="0"
       id="path3025"
       d="m -156.68627,-14.267484 c 0.009,-64.340314 0.69775,-119.903446 0.69775,-119.903446 l 119.62107,0.46521 h 77.88972 v 98.738252 98.992434 h -99.109683 -99.097957 l -9.4e-4,-78.29244 z"
       style="fill:#63a1d4;fill-opacity:0.99215686" />
    <path
       sodipodi:nodetypes="ccccscccc"
       inkscape:connector-curvature="0"
       id="path2986-3"
       d="m 63.25274,-34.800698 0.25359,-98.893042 73.63564,-0.27118 123.7848,0.10867 c 0,0 0.073,71.340592 -0.11966,123.212326 l 0.0681,74.66889 -99.10989,-0.18653 -98.76615,0.18653 z"
       style="fill:#63a1d4;fill-opacity:0.99215686" />
    <path
       sodipodi:nodetypes="cscccsccc"
       inkscape:connector-curvature="0"
       id="path3009-2"
       d="m 41.52227,275.29068 c 0.36324,-0.36532 0,-52.29043 0,-97.16012 V 81.853176 l -98.954133,0.41928 -99.312347,0.25389 -0.25412,73.048864 c -0.28078,80.72033 0.29074,119.71547 0.29074,119.71547 0.11054,0 88.643257,0.007 121.40019,0.0156 41.7268797,0.008 76.46643,0.34975 76.82967,-0.0156 z"
       style="fill:#63a1d4;fill-opacity:0.99215686" />
  </g>
  <path
     inkscape:connector-curvature="0"
     id="path2986"
     d="m 30.31875,45.871727 c -0.236988,-0.105781 -0.489068,-0.376482 -0.601551,-0.645987 -0.05797,-0.1389 -0.115822,-0.672821 -0.165357,-1.526058 -0.0419,-0.721827 -0.09708,-1.369972 -0.122622,-1.440324 -0.03387,-0.09332 -0.199468,-0.181354 -0.612269,-0.325502 -0.311208,-0.108674 -0.779867,-0.305203 -1.04146,-0.436729 -0.261594,-0.131525 -0.532616,-0.239138 -0.602274,-0.239138 -0.07813,0 -0.505457,0.347499 -1.115374,0.907009 -0.543801,0.498856 -1.076639,0.952094 -1.18409,1.007199 -0.221162,0.113424 -0.718769,0.131884 -0.975731,0.0362 -0.20432,-0.07608 -2.365702,-2.206015 -2.504285,-2.467839 -0.137451,-0.259686 -0.122748,-0.745455 0.03146,-1.039748 0.0702,-0.13396 0.527366,-0.676879 1.01592,-1.206482 0.525913,-0.570094 0.888282,-1.012657 0.888282,-1.084856 0,-0.06707 -0.107612,-0.335973 -0.239133,-0.597566 -0.131531,-0.261596 -0.32763,-0.729036 -0.435787,-1.038762 -0.108159,-0.309728 -0.240896,-0.586073 -0.294985,-0.614108 -0.05408,-0.02803 -0.688917,-0.08353 -1.410742,-0.12332 -0.839487,-0.04628 -1.404496,-0.105321 -1.567963,-0.16385 -0.311506,-0.111534 -0.670392,-0.49349 -0.721097,-0.767449 -0.02057,-0.111116 -0.02899,-0.934333 -0.01871,-1.829375 l 0.01868,-1.627343 0.187057,-0.234447 c 0.330546,-0.414316 0.485927,-0.455934 2.064755,-0.553044 0.893616,-0.05497 1.436847,-0.113166 1.481967,-0.158778 0.03918,-0.0396 0.173088,-0.346697 0.297578,-0.682429 0.124485,-0.335733 0.319051,-0.795155 0.432364,-1.020934 0.113311,-0.225783 0.20602,-0.460139 0.20602,-0.520789 0,-0.06066 -0.373769,-0.520266 -0.830604,-1.021362 -0.456832,-0.501098 -0.893802,-0.994671 -0.97105,-1.096834 -0.217254,-0.287339 -0.290723,-0.643152 -0.204774,-0.991731 0.06491,-0.263199 0.183788,-0.405882 1.176662,-1.412218 0.60745,-0.615691 1.206371,-1.171939 1.330934,-1.236106 0.289061,-0.148911 0.748673,-0.15097 1.035682,-0.0046 0.120849,0.06161 0.651049,0.507984 1.178215,0.991938 0.527168,0.483952 0.994207,0.900194 1.037866,0.924988 0.046,0.02613 0.329973,-0.07363 0.675511,-0.237318 0.327875,-0.155313 0.818458,-0.357318 1.090185,-0.4489 0.368436,-0.124173 0.51139,-0.203517 0.562259,-0.312064 0.03751,-0.08005 0.101856,-0.73614 0.142977,-1.457967 0.07908,-1.388196 0.126606,-1.607634 0.412854,-1.906486 0.318414,-0.332433 0.501538,-0.359705 2.281294,-0.339742 l 1.621048,0.01818 0.253597,0.167937 c 0.436316,0.288929 0.489133,0.468567 0.591889,2.013146 0.04974,0.747656 0.104021,1.417606 0.120618,1.488777 0.02336,0.100166 0.156978,0.17368 0.591346,0.325361 0.308642,0.107776 0.802908,0.317366 1.098371,0.465759 0.295464,0.148389 0.560883,0.269803 0.589816,0.269803 0.02894,0 0.503329,-0.413703 1.054208,-0.919336 0.550868,-0.505633 1.103498,-0.972609 1.22806,-1.037722 0.294448,-0.153914 0.732723,-0.152509 1.054741,0.0034 0.152893,0.07401 0.672313,0.546741 1.324669,1.205587 1.119802,1.130944 1.208049,1.260332 1.20892,1.772514 5.3e-4,0.362256 -0.160655,0.599892 -1.123358,1.655325 -0.523455,0.573874 -0.951742,1.067738 -0.951742,1.097477 0,0.02974 0.136631,0.338866 0.303616,0.686944 0.166991,0.34808 0.366142,0.835555 0.442554,1.083281 0.09494,0.307754 0.177611,0.466836 0.261031,0.502267 0.06714,0.02852 0.742054,0.09058 1.499798,0.1379 1.503761,0.09392 1.745984,0.155791 1.998104,0.510401 0.238343,0.335227 0.266068,0.586468 0.245423,2.224336 l -0.01974,1.566747 -0.183971,0.261594 c -0.328505,0.467113 -0.411472,0.491045 -2.079738,0.599907 -0.815154,0.05319 -1.496394,0.111013 -1.513867,0.128487 -0.01749,0.01749 -0.118674,0.278012 -0.224882,0.578967 -0.106212,0.300955 -0.315063,0.790047 -0.464119,1.086872 -0.149054,0.296824 -0.262614,0.576294 -0.252348,0.621047 0.01026,0.04475 0.416966,0.515603 0.903778,1.046334 0.486813,0.530734 0.946919,1.086857 1.022462,1.235829 0.160456,0.316436 0.175335,0.651501 0.04301,0.968216 -0.116785,0.2795 -2.099035,2.294365 -2.421228,2.461065 -0.269402,0.139385 -0.760129,0.15436 -1.042115,0.0318 -0.108032,-0.04696 -0.649665,-0.50007 -1.203622,-1.006919 -0.553963,-0.506851 -1.051256,-0.921673 -1.105109,-0.921825 -0.05385,-1.06e-4 -0.365896,0.12495 -0.693434,0.27801 -0.327546,0.153063 -0.812884,0.349904 -1.078539,0.437428 -0.367174,0.120971 -0.490114,0.18964 -0.512638,0.286349 -0.0163,0.06997 -0.07033,0.738933 -0.12007,1.486589 -0.109401,1.644443 -0.172254,1.82271 -0.744884,2.112678 -0.166044,0.08408 -0.440814,0.09857 -1.831267,0.09654 -1.230606,-0.0018 -1.681287,-0.02264 -1.819046,-0.08413 z m 2.411174,-7.301451 c 1.475731,-0.154663 2.708696,-0.74322 3.758392,-1.794072 0.800048,-0.800926 1.316278,-1.699614 1.62712,-2.832589 0.194868,-0.710271 0.19372,-2.278661 -0.0022,-2.997604 -0.594552,-2.181781 -2.156382,-3.78815 -4.315071,-4.438126 -0.503,-0.15145 -0.639581,-0.16581 -1.617623,-0.170083 -0.936793,-0.0041 -1.132091,0.01277 -1.587106,0.136978 -2.271907,0.620217 -4.00949,2.445734 -4.484282,4.71122 -0.426578,2.035411 0.197142,4.112937 1.683153,5.606315 0.778065,0.781919 1.787604,1.355646 2.881328,1.637462 0.311873,0.08036 0.754465,0.142299 1.38482,0.193793 0.05036,0.0041 0.352517,-0.01987 0.671466,-0.05329 z m -1.513747,-2.559173 c -1.556501,-0.422135 -2.645821,-1.746805 -2.742267,-3.334756 -0.06743,-1.110274 0.289859,-2.04965 1.078298,-2.83497 1.435863,-1.430193 3.728647,-1.443598 5.146321,-0.03009 1.167673,1.164243 1.447845,2.820083 0.723099,4.273537 -0.617302,1.237965 -1.754504,1.968524 -3.149307,2.023175 -0.474846,0.01861 -0.709704,-0.0029 -1.056144,-0.0969 z m 1.74138,-1.539289 c 0.429907,-0.16085 0.942696,-0.637479 1.158363,-1.076682 0.152185,-0.309923 0.17056,-0.413093 0.170573,-0.957761 1.1e-5,-0.579415 -0.01062,-0.630027 -0.209187,-0.99627 -0.400844,-0.739297 -0.995583,-1.113918 -1.835719,-1.156282 -0.674886,-0.03403 -1.078839,0.10892 -1.566048,0.5542 -0.617708,0.564555 -0.863493,1.3494 -0.665097,2.123821 0.171724,0.670302 0.535534,1.125439 1.147497,1.435545 0.570901,0.289297 1.158566,0.313275 1.799618,0.07343 z"
     style="fill:url(#linearGradient3922);fill-opacity:1;stroke-width:0.106001" />
  <path
     id="path19"
     d="M 4,5 V 6 L 58.834,53 H 60 Z m 10,38 v 1 h 18.965 l -1.166,-1 z"
     inkscape:connector-curvature="0"
     style="opacity:0.2;fill:#ffffff;filter:url(#a-3)"
     transform="matrix(0.76444978,0,0,0.76444978,-57.004767,-0.608025)" />
</svg>
