<?xml version="1.0" encoding="UTF-8" standalone="no"?>
<svg
   xmlns:dc="http://purl.org/dc/elements/1.1/"
   xmlns:cc="http://creativecommons.org/ns#"
   xmlns:rdf="http://www.w3.org/1999/02/22-rdf-syntax-ns#"
   xmlns:svg="http://www.w3.org/2000/svg"
   xmlns="http://www.w3.org/2000/svg"
   xmlns:sodipodi="http://sodipodi.sourceforge.net/DTD/sodipodi-0.dtd"
   xmlns:inkscape="http://www.inkscape.org/namespaces/inkscape"
   id="Apps-Visual-Studio-Code"
   width="48"
   height="48"
   enable-background="new 0 0 1024 1024"
   version="1.1"
   viewBox="0 0 48 48"
   sodipodi:docname="applications-system.svg"
   inkscape:version="0.92.4 (5da689c313, 2019-01-14)"
   style="image-rendering:optimizeSpeed">
  <sodipodi:namedview
     pagecolor="#ffffff"
     bordercolor="#666666"
     borderopacity="1"
     objecttolerance="10"
     gridtolerance="10"
     guidetolerance="10"
     inkscape:pageopacity="0"
     inkscape:pageshadow="2"
     inkscape:window-width="1280"
     inkscape:window-height="954"
     id="namedview556"
     showgrid="false"
     inkscape:zoom="7.375"
     inkscape:cx="4.0692722"
     inkscape:cy="36.776291"
     inkscape:window-x="0"
     inkscape:window-y="0"
     inkscape:window-maximized="1"
     inkscape:current-layer="Apps-Visual-Studio-Code" />
  <metadata
     id="metadata2">
    <rdf:RDF>
      <cc:Work
         rdf:about="">
        <dc:format>image/svg+xml</dc:format>
        <dc:type
           rdf:resource="http://purl.org/dc/dcmitype/StillImage" />
        <dc:title />
      </cc:Work>
    </rdf:RDF>
  </metadata>
  <defs
     id="defs167">
    <clipPath
       id="clipPath13429">
      <path
         d="m 481,318 h 22 v 22 h -22 z"
         id="path4"
         inkscape:connector-curvature="0" />
    </clipPath>
    <clipPath
       id="clipPath13465">
      <path
         d="m 507,318 h 22 v 22 h -22 z"
         id="path7"
         inkscape:connector-curvature="0" />
    </clipPath>
    <clipPath
       id="clipPath13501">
      <path
         d="m 530,318 h 22 v 22 h -22 z"
         id="path10"
         inkscape:connector-curvature="0" />
    </clipPath>
    <clipPath
       id="clipPath13753">
      <path
         d="m 672,1064 c 0,-1.105 4.925,-2 11,-2 6.075,0 11,0.895 11,2 0,1.105 -4.925,2 -11,2 -6.075,0 -11,-0.895 -11,-2"
         id="path13"
         inkscape:connector-curvature="0" />
    </clipPath>
    <clipPath
       id="clipPath13771">
      <path
         d="m 660,1057 h 51 v 65.001 h -51 z"
         id="path16"
         inkscape:connector-curvature="0" />
    </clipPath>
    <clipPath
       id="clipPath14035">
      <path
         d="m 659,517 h 53 v 18 h -53 z"
         id="path19"
         inkscape:connector-curvature="0" />
    </clipPath>
    <clipPath
       id="clipPath14127">
      <path
         d="m 659,500 h 53 v 18 h -53 z"
         id="path22"
         inkscape:connector-curvature="0" />
    </clipPath>
    <clipPath
       id="clipPath14445">
      <path
         d="m 648,112 h 73 v 60 h -73 z"
         id="path25"
         inkscape:connector-curvature="0" />
    </clipPath>
    <clipPath
       id="clipPath14609">
      <path
         d="m 826,1056 h 59 v 60 h -59 z"
         id="path28"
         inkscape:connector-curvature="0" />
    </clipPath>
    <clipPath
       id="clipPath15305">
      <path
         d="M 805,276 H 905 V 376 H 805 Z"
         id="path31"
         inkscape:connector-curvature="0" />
    </clipPath>
    <clipPath
       id="clipPath15341">
      <path
         d="m 145,1063.8 h 74.152 v 45.21 H 145 Z"
         id="path34"
         inkscape:connector-curvature="0" />
    </clipPath>
    <clipPath
       id="clipPath15715">
      <path
         d="m 151,667 h 57 v 57 h -57 z"
         id="path37"
         inkscape:connector-curvature="0" />
    </clipPath>
    <clipPath
       id="clipPath15807">
      <path
         d="m 154,697 h 51 v 51 h -51 z"
         id="path40"
         inkscape:connector-curvature="0" />
    </clipPath>
    <clipPath
       id="clipPath16001">
      <path
         d="m 500.04,864.45 h 36.012 v 67.52 H 500.04 Z"
         id="path43"
         inkscape:connector-curvature="0" />
    </clipPath>
    <clipPath
       id="clipPath16093">
      <path
         d="m 836,870.54 h 47 v 55.539 h -47 z"
         id="path46"
         inkscape:connector-curvature="0" />
    </clipPath>
    <clipPath
       id="clipPath16477">
      <path
         d="m 318.03,702.35 h 62.848 v 37.991 H 318.03 Z"
         id="path49"
         inkscape:connector-curvature="0" />
    </clipPath>
    <clipPath
       id="clipPath16579">
      <path
         d="m 485.03,133.35 h 62.847 v 37.991 H 485.03 Z"
         id="path52"
         inkscape:connector-curvature="0" />
    </clipPath>
    <clipPath
       id="clipPath16709">
      <path
         d="m 493.37,677.93 h 45.643 v 68.067 H 493.37 Z"
         id="path55"
         inkscape:connector-curvature="0" />
    </clipPath>
    <clipPath
       id="clipPath24218">
      <path
         d="m 144.34,1018.2 h 71.467 v 78 H 144.34 Z"
         id="path58"
         inkscape:connector-curvature="0" />
    </clipPath>
    <clipPath
       id="clipPath24382">
      <path
         d="m 293.21,1068.6 66.323,-38.292 36.047,62.435 -66.323,38.292 z"
         id="path61"
         inkscape:connector-curvature="0" />
    </clipPath>
    <clipPath
       id="clipPath24650">
      <path
         d="m 488.86,1054.5 h 10 v 10.706 h -10 z"
         id="path64"
         inkscape:connector-curvature="0" />
    </clipPath>
    <clipPath
       id="clipPath24700">
      <path
         d="m 508,1066.8 h 10.001 v 10.705 H 508 Z"
         id="path67"
         inkscape:connector-curvature="0" />
    </clipPath>
    <clipPath
       id="clipPath24750">
      <path
         d="m 525,1045.8 h 10 v 10.706 h -10 z"
         id="path70"
         inkscape:connector-curvature="0" />
    </clipPath>
    <clipPath
       id="clipPath24864">
      <path
         d="m 836,1043.7 h 25.5 v 31.5 H 836 Z"
         id="path73"
         inkscape:connector-curvature="0" />
    </clipPath>
    <clipPath
       id="clipPath24896">
      <path
         d="m 838,1062.2 h 24 v 24 h -24 z"
         id="path76"
         inkscape:connector-curvature="0" />
    </clipPath>
    <clipPath
       id="clipPath25070">
      <path
         d="m 134,489.24 h 7 v 6 h -7 z"
         id="path79"
         inkscape:connector-curvature="0" />
    </clipPath>
    <clipPath
       id="clipPath25100">
      <path
         d="m 216,489.24 h 7 v 6 h -7 z"
         id="path82"
         inkscape:connector-curvature="0" />
    </clipPath>
    <clipPath
       id="clipPath25502">
      <path
         d="m 838,477.24 h 22 v 22 h -22 z"
         id="path85"
         inkscape:connector-curvature="0" />
    </clipPath>
    <clipPath
       id="clipPath25686">
      <path
         d="m 704,1061.2 h 25 v 25 h -25 z"
         id="path88"
         inkscape:connector-curvature="0" />
    </clipPath>
    <clipPath
       id="clipPath25788">
      <path
         d="m 663.04,1078.6 -1.808,-3.514 -21.07,-47.453 c 13.336,-18.439 48.336,-26.938 73.836,-3.439 0.842,0 6.476,6.246 6,7 l -18.386,25.895 c -0.483,0.765 -1.453,0.946 -2.177,0.431 l -15.505,-11.011 c -0.359,-0.255 -0.847,-0.153 -1.07,0.238 l -18.272,31.869 c -0.218,0.384 -0.502,0.578 -0.782,0.578 -0.282,0 -0.561,-0.197 -0.766,-0.594"
         id="path91"
         inkscape:connector-curvature="0" />
    </clipPath>
    <clipPath
       id="clipPath26420">
      <path
         d="m 127,820.24 h 100 v 100 H 127 Z"
         id="path94"
         inkscape:connector-curvature="0" />
    </clipPath>
    <clipPath
       id="clipPath26860">
      <path
         d="m 809,680.24 c 0,-22.092 17.908,-40 40,-40 22.092,0 40,17.908 40,40 0,22.091 -17.908,40 -40,40 -22.092,0 -40,-17.909 -40,-40"
         id="path97"
         inkscape:connector-curvature="0" />
    </clipPath>
    <clipPath
       id="clipPath27506">
      <path
         d="m 658,469.24 h 44 v 45 h -44 z"
         id="path100"
         inkscape:connector-curvature="0" />
    </clipPath>
    <clipPath
       id="clipPath27772">
      <path
         d="m 651,271.24 h 58 v 58 h -58 z"
         id="path103"
         inkscape:connector-curvature="0" />
    </clipPath>
    <clipPath
       id="clipPath27864">
      <path
         d="m 662,307.24 h 38 v 8 h -38 z"
         id="path106"
         inkscape:connector-curvature="0" />
    </clipPath>
    <clipPath
       id="clipPath28028">
      <path
         d="m 858.98,137.24 c 0.013,-0.101 0.021,-0.203 0.021,-0.307 v -6.693 h 15.75 c 1.237,0 2.25,-1.013 2.25,-2.25 v -11.25 l -27,-4.5 -27,4.5 v -2.25 l 27,-4.5 27,4.5 v -27 c 0,-1.237 -1.013,-2.25 -2.25,-2.25 h -49.5 c -1.237,0 -2.25,1.013 -2.25,2.25 v -4.25 h 54 v 54 z m -35.979,0 v -9.25 c 0,1.237 1.013,2.25 2.25,2.25 h 15.75 v 6.693 c 0,0.104 0.007,0.207 0.02,0.307 z m 22.5,-7 h 9 v 4.5 h -9 z m 1.125,-9 c -0.62,0 -1.125,-0.506 -1.125,-1.125 v -2.25 c 0,-0.619 0.505,-1.125 1.125,-1.125 h 6.75 c 0.619,0 1.125,0.506 1.125,1.125 v 2.25 c 0,0.619 -0.506,1.125 -1.125,1.125 z"
         id="path109"
         inkscape:connector-curvature="0" />
    </clipPath>
    <clipPath
       id="clipPath28200">
      <path
         d="m 531.27,136.24 c 6.325,-2.29 10.727,-8.277 10.727,-15.484 0,-11.316 -10.2,-20.563 -25.65,-34.575 l -4.35,-3.941 -4.35,3.941 c -15.45,14.012 -25.65,23.259 -25.65,34.575 V 81.24 h 60 v 55 z m -26.983,0 c 2.995,-1.052 5.686,-2.883 7.71,-5.25 2.024,2.367 4.715,4.198 7.71,5.25 z m -22.29,0 v -15.484 c 0,7.207 4.402,13.194 10.727,15.484 z"
         id="path112"
         inkscape:connector-curvature="0" />
    </clipPath>
    <clipPath
       id="clipPath28364">
      <path
         d="m 648,79.241 h 64 v 64 h -64 z"
         id="path115"
         inkscape:connector-curvature="0" />
    </clipPath>
    <clipPath
       id="clipPath28984">
      <path
         d="m 500,691.74 c 0,-3.037 2.463,-5.5 5.5,-5.5 3.037,0 5.5,2.463 5.5,5.5 0,3.037 -2.463,5.5 -5.5,5.5 -3.037,0 -5.5,-2.463 -5.5,-5.5"
         id="path118"
         inkscape:connector-curvature="0" />
    </clipPath>
    <clipPath
       id="clipPath29012">
      <path
         d="m 500,669.74 c 0,-3.037 2.463,-5.5 5.5,-5.5 3.037,0 5.5,2.463 5.5,5.5 0,3.038 -2.463,5.5 -5.5,5.5 -3.037,0 -5.5,-2.462 -5.5,-5.5"
         id="path121"
         inkscape:connector-curvature="0" />
    </clipPath>
    <clipPath
       id="clipPath29040">
      <path
         d="m 494,680.74 c 0,-3.037 2.462,-5.5 5.5,-5.5 3.038,0 5.5,2.463 5.5,5.5 0,3.038 -2.462,5.5 -5.5,5.5 -3.038,0 -5.5,-2.462 -5.5,-5.5"
         id="path124"
         inkscape:connector-curvature="0" />
    </clipPath>
    <clipPath
       id="clipPath29068">
      <path
         d="m 513,691.74 c 0,-3.037 2.463,-5.5 5.5,-5.5 3.037,0 5.5,2.463 5.5,5.5 0,3.037 -2.463,5.5 -5.5,5.5 -3.037,0 -5.5,-2.463 -5.5,-5.5"
         id="path127"
         inkscape:connector-curvature="0" />
    </clipPath>
    <clipPath
       id="clipPath29096">
      <path
         d="m 513,669.74 c 0,-3.037 2.463,-5.5 5.5,-5.5 3.037,0 5.5,2.463 5.5,5.5 0,3.038 -2.463,5.5 -5.5,5.5 -3.037,0 -5.5,-2.462 -5.5,-5.5"
         id="path130"
         inkscape:connector-curvature="0" />
    </clipPath>
    <clipPath
       id="clipPath29124">
      <path
         d="m 507,680.74 c 0,-3.037 2.463,-5.5 5.5,-5.5 3.037,0 5.5,2.463 5.5,5.5 0,3.038 -2.463,5.5 -5.5,5.5 -3.037,0 -5.5,-2.462 -5.5,-5.5"
         id="path133"
         inkscape:connector-curvature="0" />
    </clipPath>
    <clipPath
       id="clipPath29152">
      <path
         d="m 520,680.74 c 0,-3.037 2.463,-5.5 5.5,-5.5 3.037,0 5.5,2.463 5.5,5.5 0,3.038 -2.463,5.5 -5.5,5.5 -3.037,0 -5.5,-2.462 -5.5,-5.5"
         id="path136"
         inkscape:connector-curvature="0" />
    </clipPath>
    <clipPath
       id="clipPath29252">
      <path
         d="m 321,322.24 c -4.97,0 -9,-4.029 -9,-9 0,-4.97 4.03,-9 9,-9 h 45 c 4.971,0 9,4.03 9,9 0,4.971 -4.029,9 -9,9 z"
         id="path139"
         inkscape:connector-curvature="0" />
    </clipPath>
    <clipPath
       id="clipPath29280">
      <path
         d="m 322,297.24 c -4.971,0 -9,-4.029 -9,-9 0,-4.97 4.029,-9 9,-9 h 45 c 4.971,0 9,4.03 9,9 0,4.971 -4.029,9 -9,9 z"
         id="path142"
         inkscape:connector-curvature="0" />
    </clipPath>
    <clipPath
       id="clipPath29400">
      <path
         d="m 155,83.24 h 44 v 53 h -44 z"
         id="path145"
         inkscape:connector-curvature="0" />
    </clipPath>
    <style
       type="text/css"
       id="style148" />
    <style
       type="text/css"
       id="style150" />
    <linearGradient
       id="linearGradient1465"
       x1="50.632999"
       x2="64.115997"
       y1="12.823"
       y2="25.535999"
       gradientTransform="matrix(3.7796,0,0,3.7796,-189.38683,-44.741798)"
       gradientUnits="userSpaceOnUse">
      <stop
         stop-color="#869099"
         offset="0"
         id="stop152" />
      <stop
         stop-color="#4c6068"
         offset="1"
         id="stop154" />
    </linearGradient>
    <linearGradient
       id="linearGradient1481"
       x1="55.678001"
       x2="61.883999"
       y1="6.3140001"
       y2="12.52"
       gradientUnits="userSpaceOnUse"
       gradientTransform="matrix(3.2938304,0,0,3.2938304,-172.54644,-10.028602)">
      <stop
         stop-color="#d2d7dc"
         offset="0"
         id="stop157" />
      <stop
         stop-color="#fff"
         offset="1"
         id="stop159" />
    </linearGradient>
    <linearGradient
       id="linearGradient1491"
       x1="55.678001"
       x2="61.883999"
       y1="6.3140001"
       y2="12.52"
       gradientTransform="matrix(2.0743333,0,0,2.0743333,-99.814225,2.5698326)"
       gradientUnits="userSpaceOnUse">
      <stop
         stop-color="#006ec8"
         offset="0"
         id="stop162" />
      <stop
         stop-color="#0a327d"
         offset="1"
         id="stop164" />
    </linearGradient>
  </defs>
  <g
     style="fill:#5e4aa6;stroke-width:0.26458001"
     id="g183"
     transform="matrix(2.930015,0,0,2.930015,-56.760587,-3.0559721)">
    <g
       id="g177"
       transform="translate(-21.833,0.89722)">
      <circle
         id="circle169"
         r="0"
         cy="-328.38"
         cx="-330.35001" />
      <circle
         id="circle171"
         r="0"
         cy="-326.25"
         cx="-312.10999" />
      <circle
         id="circle173"
         r="0"
         cy="-333.07001"
         cx="-306.01999" />
      <circle
         id="circle175"
         r="0"
         cy="-326.01001"
         cx="-308.84" />
    </g>
    <circle
       id="circle179"
       r="0"
       cy="-330.42001"
       cx="-284.23001" />
    <circle
       style="fill-rule:evenodd"
       id="circle181"
       r="0"
       cy="4.3997998"
       cx="6.6785998" />
  </g>
  <g
     id="g191"
     transform="matrix(1.0336214,0,0,-1.0336214,525.55354,708.63753)">
    <g
       id="g189"
       clip-path="url(#clipPath13429)">
      <g
         id="g187"
         transform="translate(448,326)">
        <path
           style="fill:#ffffff;fill-rule:evenodd"
           inkscape:connector-curvature="0"
           id="path185"
           d="M 0,0 C 3.866,0 7,3.134 7,7 7,10.866 3.866,14 0,14 -3.866,14 -7,10.866 -7,7 -7,3.134 -3.866,0 0,0" />
      </g>
    </g>
  </g>
  <g
     id="g199"
     transform="matrix(1.0336214,0,0,-1.0336214,525.55354,708.63753)">
    <g
       id="g197"
       clip-path="url(#clipPath13465)">
      <g
         id="g195"
         transform="translate(474,326)">
        <path
           style="fill:#ffffff;fill-rule:evenodd"
           inkscape:connector-curvature="0"
           id="path193"
           d="M 0,0 C 3.866,0 7,3.134 7,7 7,10.866 3.866,14 0,14 -3.866,14 -7,10.866 -7,7 -7,3.134 -3.866,0 0,0" />
      </g>
    </g>
  </g>
  <g
     id="g207"
     transform="matrix(1.0336214,0,0,-1.0336214,525.55354,708.63753)">
    <g
       id="g205"
       clip-path="url(#clipPath13501)">
      <g
         id="g203"
         transform="translate(497,326)">
        <path
           style="fill:#ffffff;fill-rule:evenodd"
           inkscape:connector-curvature="0"
           id="path201"
           d="M 0,0 C 3.866,0 7,3.134 7,7 7,10.866 3.866,14 0,14 -3.866,14 -7,10.866 -7,7 -7,3.134 -3.866,0 0,0" />
      </g>
    </g>
  </g>
  <g
     id="g213"
     transform="matrix(1.0336214,0,0,-1.0336214,525.55354,708.63753)">
    <g
       id="g211"
       clip-path="url(#clipPath13753)">
      <path
         style="fill:#ffffff;fill-rule:evenodd"
         inkscape:connector-curvature="0"
         id="path209"
         d="m 593,1073 h 36 v -18 h -36 z m 18,-11 c 6.075,0 11,0.895 11,2 0,1.105 -4.925,2 -11,2 -6.075,0 -11,-0.895 -11,-2 0,-1.105 4.925,-2 11,-2" />
    </g>
  </g>
  <g
     id="g221"
     transform="matrix(1.0336214,0,0,-1.0336214,525.55354,708.63753)">
    <g
       id="g219"
       clip-path="url(#clipPath13771)">
      <g
         id="g217"
         transform="translate(583.42,1063)">
        <path
           style="fill:#ffffff"
           inkscape:connector-curvature="0"
           id="path215"
           d="M 0,0 C 0,0 21.582,23.182 21.582,35.147 21.582,47.195 11.898,57 0,57 c -11.816,0 -21.418,-9.805 -21.418,-21.853 0,-8.06 9.766,-21.188 16.002,-28.832 z m 0,42.542 c 3.938,0 7.14,-3.323 7.14,-7.395 0,-3.822 -3.202,-7.146 -7.14,-7.146 -3.856,0 -7.222,3.324 -7.222,7.146 0,4.072 3.366,7.395 7.222,7.395" />
      </g>
    </g>
  </g>
  <g
     id="g229"
     transform="matrix(1.0336214,0,0,-1.0336214,525.55354,708.63753)">
    <g
       id="g227"
       clip-path="url(#clipPath14035)">
      <g
         id="g225"
         transform="translate(562,535)">
        <path
           style="fill:#ffffff;fill-rule:evenodd"
           inkscape:connector-curvature="0"
           id="path223"
           d="m 0,0 h 35 c 2.762,0 5,-2.238 5,-5 0,-2.762 -2.238,-5 -5,-5 H 0 c -2.762,0 -5,2.238 -5,5 0,2.762 2.238,5 5,5" />
      </g>
    </g>
  </g>
  <g
     id="g237"
     transform="matrix(1.0336214,0,0,-1.0336214,525.55354,708.63753)">
    <g
       id="g235"
       clip-path="url(#clipPath14127)">
      <g
         id="g233"
         transform="translate(562,518)">
        <path
           style="fill:#ffffff;fill-rule:evenodd"
           inkscape:connector-curvature="0"
           id="path231"
           d="m 0,0 h 35 c 2.762,0 5,-2.238 5,-5 0,-2.762 -2.238,-5 -5,-5 H 0 c -2.762,0 -5,2.238 -5,5 0,2.762 2.238,5 5,5" />
      </g>
    </g>
  </g>
  <g
     id="g245"
     transform="matrix(1.0336214,0,0,-1.0336214,525.55354,708.63753)">
    <g
       id="g243"
       clip-path="url(#clipPath14445)">
      <g
         id="g241"
         transform="translate(536.43,133.83)">
        <path
           style="fill:#ffffff"
           inkscape:connector-curvature="0"
           id="path239"
           d="M 0,0 C -10.01,-12.916 -22.288,-9.047 -24.23,-8.072 -29.077,-6.779 -30.694,1.943 -24.556,4.846 -14.538,8.072 -5.496,4.521 0.968,1.293 0.324,0.326 0,0 0,0 m 10.667,3.553 c 4.521,8.072 6.139,15.826 6.139,15.826 H 1.617 v 5.812 h 17.767 v 2.26 H 1.617 v 8.723 h -8.074 v -8.723 h -16.156 v -2.584 h 16.156 v -5.812 h -13.57 V 16.47 H 7.756 c 0,-0.325 0,-0.325 -0.324,-0.968 0,-2.909 -1.936,-6.779 -3.554,-10.014 -20.677,8.079 -26.491,3.235 -28.108,2.584 -13.564,-9.689 -0.968,-21.963 1.293,-21.638 14.538,-3.227 23.905,2.91 30.369,10.657 0.324,-0.325 0.967,-0.325 1.292,-0.325 4.528,-2.578 25.848,-12.592 25.848,-12.592 V -3.552 C 30.694,-3.227 19.066,0.643 10.667,3.553" />
      </g>
    </g>
  </g>
  <g
     id="g253"
     transform="matrix(1.0336214,0,0,-1.0336214,525.55354,708.63753)">
    <g
       id="g251"
       clip-path="url(#clipPath14609)">
      <g
         id="g249"
         transform="translate(720.03,1091.5)">
        <path
           style="fill:#ffffff"
           inkscape:connector-curvature="0"
           id="path247"
           d="m 0,0 c -0.149,0.354 -0.224,0.837 -0.224,1.451 0,0.372 0.103,0.828 0.306,1.368 0.205,0.539 0.428,0.958 0.671,1.256 -0.019,0.409 0.051,0.902 0.209,1.478 0.159,0.576 0.368,0.976 0.629,1.2 0,2.586 0.86,5.269 2.581,8.05 1.722,2.782 3.744,4.73 6.07,5.846 2.585,1.228 5.6,1.842 9.041,1.842 2.475,0 4.949,-0.511 7.423,-1.534 0.912,-0.391 1.749,-0.837 2.512,-1.34 0.762,-0.502 1.423,-1.022 1.981,-1.562 0.559,-0.54 1.07,-1.172 1.534,-1.897 0.465,-0.725 0.856,-1.413 1.172,-2.064 0.318,-0.651 0.619,-1.437 0.908,-2.358 0.287,-0.921 0.524,-1.753 0.71,-2.497 0.186,-0.744 0.391,-1.655 0.614,-2.734 l 0.028,-0.14 C 37.188,4.822 37.7,3.426 37.7,2.179 37.7,1.919 37.616,1.547 37.448,1.064 37.28,0.58 37.196,0.227 37.196,0.003 c 0,-0.019 0.015,-0.052 0.043,-0.099 0.028,-0.047 0.061,-0.093 0.098,-0.139 0.038,-0.046 0.057,-0.077 0.057,-0.098 1.432,-2.121 2.553,-4.116 3.363,-5.985 0.809,-1.869 1.214,-3.808 1.214,-5.817 0,-0.8 -0.182,-1.73 -0.544,-2.791 -0.363,-1.06 -0.879,-1.59 -1.549,-1.59 -0.167,0 -0.349,0.069 -0.544,0.209 -0.194,0.14 -0.371,0.303 -0.529,0.489 -0.159,0.186 -0.335,0.428 -0.53,0.725 -0.195,0.297 -0.344,0.543 -0.447,0.739 -0.103,0.196 -0.228,0.438 -0.377,0.725 -0.147,0.288 -0.231,0.451 -0.251,0.489 -0.019,0.019 -0.047,0.028 -0.085,0.028 l -0.138,-0.111 c -1.099,-2.864 -2.327,-4.938 -3.684,-6.222 0.372,-0.372 0.944,-0.73 1.716,-1.075 0.772,-0.345 1.414,-0.73 1.925,-1.158 0.511,-0.426 0.841,-1.031 0.991,-1.814 -0.037,-0.074 -0.074,-0.223 -0.112,-0.447 -0.036,-0.224 -0.101,-0.391 -0.195,-0.501 -1.19,-1.804 -4,-2.706 -8.427,-2.706 -0.986,0 -2.013,0.084 -3.084,0.251 -1.069,0.168 -1.981,0.354 -2.734,0.558 -0.753,0.204 -1.726,0.483 -2.916,0.837 -0.279,0.093 -0.493,0.158 -0.643,0.196 -0.259,0.075 -0.687,0.115 -1.282,0.125 -0.595,0.009 -0.967,0.023 -1.116,0.042 -0.763,-0.838 -1.949,-1.442 -3.559,-1.814 -1.609,-0.372 -3.176,-0.558 -4.702,-0.558 -0.65,0 -1.293,0.014 -1.925,0.042 -0.632,0.028 -1.498,0.113 -2.595,0.252 -1.098,0.139 -2.038,0.33 -2.82,0.572 -0.781,0.241 -1.473,0.613 -2.078,1.115 -0.604,0.502 -0.906,1.098 -0.906,1.786 0,0.744 0.093,1.298 0.279,1.661 0.187,0.364 0.569,0.815 1.144,1.353 0.205,0.038 0.581,0.159 1.131,0.363 0.549,0.204 1.009,0.316 1.381,0.334 0.074,0 0.204,0.019 0.39,0.057 0.038,0.037 0.057,0.074 0.057,0.111 l -0.057,0.084 c -0.892,0.204 -1.897,1.185 -3.014,2.944 -1.117,1.758 -1.796,3.214 -2.038,4.367 l -0.139,0.084 c -0.074,0 -0.186,-0.185 -0.334,-0.557 -0.335,-0.763 -0.842,-1.455 -1.521,-2.079 -0.679,-0.622 -1.4,-0.971 -2.163,-1.046 h -0.028 c -0.073,0 -0.129,0.041 -0.167,0.125 -0.037,0.083 -0.084,0.134 -0.139,0.153 -0.428,1.004 -0.642,1.934 -0.642,2.79 0,5.116 2.343,9.45 7.032,13.002 z" />
      </g>
    </g>
  </g>
  <g
     id="g261"
     transform="matrix(1.0336214,0,0,-1.0336214,525.55354,708.63753)">
    <g
       id="g259"
       clip-path="url(#clipPath15305)">
      <g
         id="g257"
         transform="translate(655,300)">
        <path
           style="fill:none;stroke:#ffffff;stroke-width:8;stroke-miterlimit:10"
           inkscape:connector-curvature="0"
           id="path255"
           stroke-miterlimit="10"
           d="M 0,0 C 16.568,0 30,13.432 30,30 30,46.568 16.568,60 0,60 -16.568,60 -30,46.568 -30,30 -30,13.432 -16.568,0 0,0 Z" />
      </g>
    </g>
  </g>
  <g
     id="g269"
     transform="matrix(1.0336214,0,0,-1.0336214,525.55354,708.63753)">
    <g
       id="g267"
       clip-path="url(#clipPath15341)">
      <g
         id="g265"
         transform="translate(66.849,1083.1)">
        <path
           style="fill:#ffffff"
           inkscape:connector-curvature="0"
           id="path263"
           d="m 0,0 c 0,5.302 -3.661,9.749 -8.591,10.948 -0.209,8.314 -7.006,14.991 -15.366,14.991 -4.897,0 -9.254,-2.293 -12.07,-5.861 -1.579,2.041 -4.05,3.358 -6.828,3.358 -4.769,0 -8.633,-3.868 -8.633,-8.639 0,-0.416 0.031,-0.825 0.089,-1.224 -0.726,0.13 -1.47,0.203 -2.232,0.203 -6.913,0 -12.515,-5.607 -12.515,-12.524 0,-6.916 5.602,-12.523 12.515,-12.523 h 42.394 c 6.21,0.013 11.241,5.053 11.241,11.269 z" />
      </g>
    </g>
  </g>
  <g
     id="g277"
     transform="matrix(1.0336214,0,0,-1.0336214,525.55354,708.63753)">
    <g
       id="g275"
       clip-path="url(#clipPath15715)">
      <g
         id="g273"
         transform="translate(65.5,681)">
        <path
           style="fill:none;stroke:#ffffff;stroke-width:4;stroke-miterlimit:10"
           inkscape:connector-curvature="0"
           id="path271"
           stroke-miterlimit="10"
           d="M 0,0 C 9.113,0 16.5,7.387 16.5,16.5 16.5,25.613 9.113,33 0,33 -9.113,33 -16.5,25.613 -16.5,16.5 -16.5,7.387 -9.113,0 0,0 Z" />
      </g>
    </g>
  </g>
  <g
     id="g285"
     transform="matrix(1.0336214,0,0,-1.0336214,525.55354,708.63753)">
    <g
       id="g283"
       clip-path="url(#clipPath15807)">
      <g
         id="g281"
         transform="translate(77.5,711)">
        <path
           style="fill:none;stroke:#ffffff;stroke-width:4;stroke-miterlimit:10"
           inkscape:connector-curvature="0"
           id="path279"
           stroke-miterlimit="10"
           d="M 0,0 C 7.456,0 13.5,6.044 13.5,13.5 13.5,20.956 7.456,27 0,27 -7.456,27 -13.5,20.956 -13.5,13.5 -13.5,6.044 -7.456,0 0,0 Z" />
      </g>
    </g>
  </g>
  <g
     id="g293"
     transform="matrix(1.0336214,0,0,-1.0336214,525.55354,708.63753)">
    <g
       id="g291"
       clip-path="url(#clipPath16001)">
      <g
         id="g289"
         transform="translate(455.91,931.53)">
        <path
           style="fill:#ffffff"
           inkscape:connector-curvature="0"
           id="path287"
           d="m 0,0 c -0.742,-1.039 -4.75,-2.821 -8.165,-3.563 -4.305,-0.891 -6.531,-1.633 -8.758,-2.82 -2.969,-1.782 -4.601,-4.009 -4.305,-6.087 0.149,-0.445 3.711,-5.64 7.868,-11.578 4.304,-5.938 7.868,-10.985 8.016,-11.134 0.149,-0.297 -0.445,-0.297 -2.524,-0.148 -6.531,0.445 -12.469,-2.969 -15.142,-8.314 -0.742,-1.632 -0.89,-2.523 -0.89,-4.453 0,-4.453 2.376,-8.016 6.829,-10.094 1.781,-0.742 2.375,-0.891 6.086,-0.891 4.007,0 4.156,0 6.829,1.336 7.125,3.414 10.093,10.095 7.125,16.181 -0.594,1.336 -4.305,7.719 -8.313,14.251 l -7.274,12.024 h 1.187 c 4.75,0.297 8.017,1.781 10.244,4.305 1.929,2.227 2.523,4.453 2.374,8.016 C 1.039,0.297 0.742,1.039 0,0" />
      </g>
    </g>
  </g>
  <g
     id="g301"
     transform="matrix(1.0336214,0,0,-1.0336214,525.55354,708.63753)">
    <g
       id="g299"
       clip-path="url(#clipPath16093)">
      <g
         id="g297"
         transform="translate(784,902.31)">
        <path
           style="fill:#ffffff"
           inkscape:connector-curvature="0"
           id="path295"
           d="m 0,0 c 0,-1.565 -0.904,-2.931 -2.251,-3.674 l -27.781,-18.472 c -0.012,-0.008 -0.026,-0.014 -0.037,-0.02 l -0.017,-0.011 c -0.684,-0.376 -1.48,-0.592 -2.331,-0.592 -2.53,0 -4.583,1.913 -4.583,4.269 v 37 c 0,2.356 2.053,4.27 4.583,4.27 0.851,0 1.647,-0.217 2.331,-0.596 l 0.017,-0.008 c 0.011,-0.009 0.022,-0.014 0.037,-0.02 L -2.251,3.675 C -0.904,2.932 0,1.565 0,0" />
      </g>
    </g>
  </g>
  <g
     id="g309"
     transform="matrix(1.0336214,0,0,-1.0336214,525.55354,708.63753)">
    <g
       id="g307"
       clip-path="url(#clipPath16477)">
      <g
         id="g305"
         transform="translate(223.75,708.35)">
        <path
           style="fill:#ffffff;fill-rule:evenodd"
           inkscape:connector-curvature="0"
           id="path303"
           d="m 0,0 c -15.123,0 -27.418,12.329 -27.418,27.486 0,1.382 1.111,2.505 2.487,2.505 1.379,0 2.499,-1.123 2.499,-2.505 0,-12.4 10.06,-22.487 22.432,-22.487 12.375,0 22.443,10.087 22.443,22.487 0,1.382 1.112,2.505 2.488,2.505 1.378,0 2.499,-1.123 2.499,-2.505 C 27.43,12.329 15.126,0 0,0" />
      </g>
    </g>
  </g>
  <g
     id="g317"
     transform="matrix(1.0336214,0,0,-1.0336214,525.55354,708.63753)">
    <g
       id="g315"
       clip-path="url(#clipPath16579)">
      <g
         id="g313"
         transform="translate(390.75,139.35)">
        <path
           style="fill:#ffffff;fill-rule:evenodd"
           inkscape:connector-curvature="0"
           id="path311"
           d="m 0,0 c -15.123,0 -27.418,12.329 -27.418,27.485 0,1.383 1.111,2.506 2.487,2.506 1.379,0 2.499,-1.123 2.499,-2.506 0,-12.398 10.06,-22.486 22.432,-22.486 12.375,0 22.443,10.088 22.443,22.486 0,1.383 1.112,2.506 2.488,2.506 1.378,0 2.499,-1.123 2.499,-2.506 C 27.43,12.329 15.126,0 0,0" />
      </g>
    </g>
  </g>
  <g
     id="g325"
     transform="matrix(1.0336214,0,0,-1.0336214,525.55354,708.63753)">
    <g
       id="g323"
       clip-path="url(#clipPath16709)">
      <g
         id="g321"
         transform="translate(423.93,686.39)">
        <path
           style="fill:#ffffff"
           inkscape:connector-curvature="0"
           id="path319"
           d="m 0,0 c 0.245,-0.286 0.605,-0.456 0.986,-0.456 0.382,0 0.743,0.17 0.988,0.456 L 19.49,20.497 c 0.333,0.388 0.408,0.933 0.191,1.388 -0.211,0.463 -0.674,0.756 -1.184,0.756 h -9.93 c -2.118,4.172 -3.109,8.382 -2.973,12.63 0.135,4.248 1.954,12.361 5.455,24.34 C 0.093,53.021 -6.607,41.171 -6.607,28.386 v -5.745 h -9.93 c -0.51,0 -0.966,-0.293 -1.184,-0.756 -0.211,-0.462 -0.135,-1 0.191,-1.388 z" />
      </g>
    </g>
  </g>
  <g
     id="g333"
     transform="matrix(1.0336214,0,0,-1.0336214,422.50492,829.35413)">
    <g
       id="g331"
       clip-path="url(#clipPath24218)">
      <g
         id="g329"
         transform="translate(9.1685,1040.9)">
        <path
           style="fill:#ffffff;fill-rule:evenodd"
           inkscape:connector-curvature="0"
           id="path327"
           d="M 0,0 25.314,21.067 -0.763,39.718 c 5.846,7.671 15.079,12.622 25.468,12.622 17.673,0 32,-14.327 32,-32 0,-17.673 -14.327,-32 -32,-32 C 14.757,-11.66 5.869,-7.121 0,0 m 27.349,31.812 c 2.835,0 5.132,2.297 5.132,5.132 0,2.834 -2.297,5.132 -5.132,5.132 -2.834,0 -5.132,-2.298 -5.132,-5.132 0,-2.835 2.298,-5.132 5.132,-5.132" />
      </g>
    </g>
  </g>
  <g
     id="g341"
     transform="matrix(1.0336214,0,0,-1.0336214,422.50492,829.35413)">
    <g
       id="g339"
       clip-path="url(#clipPath24382)">
      <g
         id="g337"
         transform="translate(194.25,1130.3)">
        <path
           style="fill:#ffffff;fill-rule:evenodd"
           inkscape:connector-curvature="0"
           id="path335"
           d="M 0,0 C 20.173,-11.579 43.841,2 51.309,14.862 58.776,27.723 56.341,46 40.841,52.5 25.341,59 -4.646,59.111 -13.659,43.5 -22.672,27.889 -20.174,11.578 0,0" />
      </g>
    </g>
  </g>
  <g
     id="g349"
     transform="matrix(1.0336214,0,0,-1.0336214,422.50492,829.35413)">
    <g
       id="g347"
       clip-path="url(#clipPath24650)">
      <g
         id="g345"
         transform="translate(473.86,1057.5)">
        <path
           style="fill:#ffffff;fill-rule:evenodd"
           inkscape:connector-curvature="0"
           id="path343"
           d="M 0,0 C 1.657,0 3,1.501 3,3.353 3,5.205 1.657,6.706 0,6.706 -1.656,6.706 -3,5.205 -3,3.353 -3,1.501 -1.656,0 0,0" />
      </g>
    </g>
  </g>
  <g
     id="g357"
     transform="matrix(1.0336214,0,0,-1.0336214,422.50492,829.35413)">
    <g
       id="g355"
       clip-path="url(#clipPath24700)">
      <g
         id="g353"
         transform="translate(493,1069.8)">
        <path
           style="fill:#ffffff;fill-rule:evenodd"
           inkscape:connector-curvature="0"
           id="path351"
           d="M 0,0 C 1.657,0 3,1.501 3,3.353 3,5.205 1.657,6.706 0,6.706 -1.657,6.706 -3,5.205 -3,3.353 -3,1.501 -1.657,0 0,0" />
      </g>
    </g>
  </g>
  <g
     id="g365"
     transform="matrix(1.0336214,0,0,-1.0336214,422.50492,829.35413)">
    <g
       id="g363"
       clip-path="url(#clipPath24750)">
      <g
         id="g361"
         transform="translate(510,1048.8)">
        <path
           style="fill:#ffffff;fill-rule:evenodd"
           inkscape:connector-curvature="0"
           id="path359"
           d="M 0,0 C 1.657,0 3,1.501 3,3.353 3,5.205 1.657,6.706 0,6.706 -1.657,6.706 -3,5.205 -3,3.353 -3,1.501 -1.657,0 0,0" />
      </g>
    </g>
  </g>
  <g
     id="g373"
     transform="matrix(1.0336214,0,0,-1.0336214,422.50492,829.35413)">
    <g
       id="g371"
       clip-path="url(#clipPath24864)">
      <g
         id="g369"
         transform="translate(806.5,1072.2)">
        <path
           style="fill:none;stroke:#ffffff;stroke-linecap:round;stroke-miterlimit:10"
           inkscape:connector-curvature="0"
           id="path367"
           stroke-miterlimit="10"
           d="M 0,0 C -3.667,-14 -9.5,-21.833 -17.5,-23.5" />
      </g>
    </g>
  </g>
  <g
     id="g381"
     transform="matrix(1.0336214,0,0,-1.0336214,422.50492,829.35413)">
    <g
       id="g379"
       clip-path="url(#clipPath24896)">
      <g
         id="g377"
         transform="translate(802,1066.2)">
        <path
           style="fill:#ffffff;fill-rule:evenodd"
           inkscape:connector-curvature="0"
           id="path375"
           d="m 0,0 c -4.971,0 -9,4.029 -9,9 0,4.971 4.029,9 9,9 C 4.971,18 9,13.971 9,9 9,4.029 4.971,0 0,0 m 0,6 c 1.657,0 3,1.343 3,3 0,1.657 -1.343,3 -3,3 -1.657,0 -3,-1.343 -3,-3 0,-1.657 1.343,-3 3,-3" />
      </g>
    </g>
  </g>
  <g
     id="g389"
     transform="matrix(1.0336214,0,0,-1.0336214,422.50492,829.35413)">
    <g
       id="g387"
       clip-path="url(#clipPath25070)">
      <g
         id="g385"
         transform="translate(122,495.24)">
        <path
           style="fill:#ffffff;fill-rule:evenodd"
           inkscape:connector-curvature="0"
           id="path383"
           d="M 0,0 H 3 C 3.553,0 4,-0.447 4,-1 V -3 C 4,-3.553 3.553,-4 3,-4 H 0 c -0.553,0 -1,0.447 -1,1 v 2 c 0,0.553 0.447,1 1,1" />
      </g>
    </g>
  </g>
  <g
     id="g397"
     transform="matrix(1.0336214,0,0,-1.0336214,422.50492,829.35413)">
    <g
       id="g395"
       clip-path="url(#clipPath25100)">
      <g
         id="g393"
         transform="translate(204,495.24)">
        <path
           style="fill:#ffffff;fill-rule:evenodd"
           inkscape:connector-curvature="0"
           id="path391"
           d="M 0,0 H 3 C 3.553,0 4,-0.447 4,-1 V -3 C 4,-3.553 3.553,-4 3,-4 H 0 c -0.553,0 -1,0.447 -1,1 v 2 c 0,0.553 0.447,1 1,1" />
      </g>
    </g>
  </g>
  <g
     id="g405"
     transform="matrix(1.0336214,0,0,-1.0336214,422.50492,829.35413)">
    <g
       id="g403"
       clip-path="url(#clipPath25502)">
      <g
         id="g401"
         transform="translate(805,482.24)">
        <path
           style="fill:#ffffff;fill-rule:evenodd"
           inkscape:connector-curvature="0"
           id="path399"
           d="M 0,0 C 4.418,0 8,3.582 8,8 8,12.418 4.418,16 0,16 -4.418,16 -8,12.418 -8,8 -8,3.582 -4.418,0 0,0" />
      </g>
    </g>
  </g>
  <g
     id="g413"
     transform="matrix(1.0336214,0,0,-1.0336214,422.50492,829.35413)">
    <g
       id="g411"
       clip-path="url(#clipPath25686)">
      <g
         id="g409"
         transform="translate(658,1075.7)">
        <path
           style="fill:#ffffff"
           inkscape:connector-curvature="0"
           id="path407"
           d="M 0,0 C 0,-4.694 3.806,-8.5 8.5,-8.5 13.194,-8.5 17,-4.694 17,0 17,4.694 13.194,8.5 8.5,8.5 3.806,8.5 0,4.694 0,0" />
      </g>
    </g>
  </g>
  <g
     id="g419"
     transform="matrix(1.0336214,0,0,-1.0336214,422.50492,829.35413)">
    <g
       id="g417"
       clip-path="url(#clipPath25788)">
      <path
         style="fill:#ffffff;fill-rule:evenodd"
         inkscape:connector-curvature="0"
         id="path415"
         d="m 465.44,1082.2 h 85.864 v -75.319 H 465.44 Z m 64.45,-25.106 c -0.483,0.765 -1.453,0.947 -2.178,0.431 l -15.504,-11.01 c -0.359,-0.255 -0.847,-0.153 -1.071,0.238 l -18.271,31.869 c -0.438,0.771 -1.139,0.776 -1.549,-0.016 l -1.807,-3.514 -21.07,-47.452 c 13.336,-18.44 48.336,-26.94 73.836,-3.44 0.841,0 6.477,6.246 6,7 z" />
    </g>
  </g>
  <g
     id="g427"
     transform="matrix(1.0336214,0,0,-1.0336214,422.50492,829.35413)">
    <g
       id="g425"
       clip-path="url(#clipPath26420)">
      <g
         id="g423"
         transform="translate(-23,837.24)">
        <path
           style="fill:none;stroke:#ffffff;stroke-width:8;stroke-miterlimit:10"
           inkscape:connector-curvature="0"
           id="path421"
           stroke-miterlimit="10"
           d="M 0,0 C 18.778,0 34,15.222 34,34 34,52.778 18.778,68 0,68 -18.778,68 -34,52.778 -34,34 -34,15.222 -18.778,0 0,0 Z" />
      </g>
    </g>
  </g>
  <g
     id="g433"
     transform="matrix(1.0336214,0,0,-1.0336214,422.50492,829.35413)">
    <g
       id="g431"
       clip-path="url(#clipPath26860)">
      <path
         style="fill:#ffffff;fill-rule:evenodd"
         inkscape:connector-curvature="0"
         id="path429"
         d="m 644,721.24 h 82 v -82 h -82 z m 41,-81 c 22.092,0 40,17.908 40,40 0,22.092 -17.908,40 -40,40 -22.092,0 -40,-17.908 -40,-40 0,-22.092 17.908,-40 40,-40" />
    </g>
  </g>
  <g
     id="g441"
     transform="matrix(1.0336214,0,0,-1.0336214,422.50492,829.35413)">
    <g
       id="g439"
       clip-path="url(#clipPath27506)">
      <g
         id="g437"
         transform="translate(613.88,476.03)">
        <path
           style="fill:#ffffff"
           inkscape:connector-curvature="0"
           id="path435"
           d="m 0,0 c 0.187,-0.771 0.148,-1.502 -0.116,-2.193 -0.266,-0.692 -0.678,-1.303 -1.239,-1.833 -0.561,-0.531 -1.247,-0.949 -2.057,-1.255 -0.81,-0.305 -1.683,-0.457 -2.617,-0.457 -5.889,-0.033 -11.156,-0.049 -15.798,-0.049 h -15.891 c -1.122,0 -2.111,0.209 -2.968,0.627 -0.857,0.418 -1.543,0.932 -2.056,1.543 -0.515,0.611 -0.858,1.279 -1.029,2.002 -0.171,0.723 -0.148,1.375 0.071,1.953 0.186,0.451 0.373,0.917 0.56,1.398 0.157,0.418 0.343,0.893 0.561,1.424 0.219,0.53 0.452,1.069 0.701,1.615 l 1.776,4.438 h 5.329 l -2.01,-6.077 h 30.099 l -2.009,6.077 h 5.094 C -2.944,7.573 -2.353,6.094 -1.822,4.775 -1.604,4.197 -1.387,3.635 -1.168,3.088 -0.95,2.541 -0.756,2.051 -0.584,1.616 -0.413,1.183 -0.272,0.812 -0.163,0.507 -0.055,0.201 0,0.033 0,0 m -22.922,9.236 c -0.601,0.698 -1.289,1.571 -2.064,2.618 -0.776,1.046 -1.575,2.125 -2.398,3.235 -0.822,1.11 -1.637,2.204 -2.443,3.283 -0.808,1.079 -1.527,2.015 -2.16,2.808 -0.728,0.856 -1.013,1.562 -0.855,2.117 0.158,0.555 0.696,0.832 1.614,0.832 0.506,-0.031 1.187,-0.024 2.041,0.024 0.855,0.048 1.567,0.072 2.136,0.072 0.633,0 1.029,0.19 1.187,0.57 0.158,0.381 0.237,0.889 0.237,1.523 0,0.698 -0.008,1.467 -0.024,2.308 -0.016,0.841 -0.024,1.705 -0.024,2.593 0,0.888 -0.008,1.76 -0.023,2.617 -0.016,0.856 -0.024,1.65 -0.024,2.379 0,0.318 0.024,0.65 0.071,1 0.047,0.348 0.158,0.666 0.333,0.951 0.173,0.285 0.426,0.523 0.758,0.714 0.332,0.19 0.784,0.285 1.353,0.285 0.665,0 1.274,0.009 1.827,0.024 0.555,0.016 1.195,0.024 1.923,0.024 1.044,0 1.748,-0.246 2.112,-0.737 0.364,-0.492 0.562,-1.277 0.593,-2.356 v -1.855 c 0,-0.73 0.008,-1.507 0.023,-2.331 0.017,-0.826 0.025,-1.651 0.025,-2.475 v -2.236 c 0,-0.92 0.095,-1.659 0.284,-2.213 0.191,-0.555 0.617,-0.817 1.282,-0.785 0.475,0 1.052,-0.016 1.732,-0.047 0.68,-0.032 1.274,-0.049 1.78,-0.049 0.855,0 1.4,-0.23 1.638,-0.69 0.237,-0.46 0.071,-1.054 -0.498,-1.784 -0.602,-0.76 -1.298,-1.68 -2.089,-2.759 -0.791,-1.08 -1.606,-2.197 -2.445,-3.355 -0.838,-1.158 -1.661,-2.284 -2.467,-3.379 -0.807,-1.094 -1.528,-2.037 -2.16,-2.83 -0.57,-0.73 -1.116,-1.103 -1.637,-1.119 -0.523,-0.016 -1.069,0.326 -1.638,1.023" />
      </g>
    </g>
  </g>
  <g
     id="g449"
     transform="matrix(1.0336214,0,0,-1.0336214,422.50492,829.35413)">
    <g
       id="g447"
       clip-path="url(#clipPath27772)">
      <g
         id="g445"
         transform="translate(588.67,331.24)">
        <path
           style="fill:#ffffff"
           inkscape:connector-curvature="0"
           id="path443"
           d="m 0,0 h -49.301 c -2.41,0 -4.367,-1.941 -4.367,-4.299 v -49.402 c 0,-2.393 1.957,-4.299 4.367,-4.299 H 0 c 2.41,0 4.332,1.941 4.332,4.299 V -4.334 C 4.332,-1.941 2.375,0 0,0 m -33.403,-53.008 h -8.839 v 6.795 h 8.839 z m -8.91,24.58 h 8.84 v -6.795 h -8.84 z m 8.945,-15.566 h -8.84 v 6.795 h 8.84 z m 12.998,-9.014 h -8.84 v 6.795 h 8.84 z m -8.91,24.58 h 8.84 v -6.795 h -8.84 z m 8.944,-15.566 h -8.839 v 6.795 h 8.839 z m 13.277,-9.014 h -8.84 v 6.795 h 8.84 z m -8.909,24.58 h 8.84 v -6.795 h -8.84 z m 8.945,-15.566 h -8.84 v 6.795 h 8.84 z m 5.276,24.441 c 0,-2.392 -1.957,-4.299 -4.368,-4.299 h -37.77 c -2.411,-0.035 -4.367,1.907 -4.367,4.299 v 10.054 c 0,2.392 1.956,4.333 4.332,4.333 h 37.805 c 2.411,0 4.368,-1.941 4.368,-4.333 z" />
      </g>
    </g>
  </g>
  <g
     id="g457"
     transform="matrix(1.0336214,0,0,-1.0336214,422.50492,829.35413)">
    <g
       id="g455"
       clip-path="url(#clipPath27864)">
      <g
         id="g453"
         transform="translate(609.3,312.46)">
        <path
           style="fill:#ffffff"
           inkscape:connector-curvature="0"
           id="path451"
           d="m 0,0 h -0.72 c -0.206,0 -0.377,0 -0.514,-0.212 -0.103,-0.142 -0.103,-0.283 -0.103,-0.46 v -0.566 c 0,-0.178 0,-0.319 0.103,-0.461 0.137,-0.212 0.308,-0.212 0.514,-0.212 H 0 c 0.205,0 0.376,0 0.514,0.212 0.102,0.142 0.102,0.283 0.102,0.461 v 0.566 c 0,0.213 0,0.318 -0.102,0.46 C 0.376,0 0.239,0 0,0 M -5.003,4.779 H -7.95 c -0.548,0 -0.993,-0.46 -0.993,-1.026 V 1.346 h 0.993 v 2.407 h 2.947 V 1.346 h 0.993 v 2.407 c 0,0.566 -0.445,1.026 -0.993,1.026 m 0,-6.973 H -7.95 v 2.407 h -0.993 v -2.407 c 0,-0.567 0.411,-1.027 0.993,-1.027 h 2.947 c 0.582,0 0.993,0.46 0.993,1.027 v 2.407 h -0.993 z m -14.357,0 h -2.947 V 0.39 h -0.994 v -2.584 c 0,-0.567 0.411,-1.027 0.994,-1.027 h 2.947 c 0.583,0 0.994,0.46 0.994,1.027 V 0.39 h -0.994 z m 0,6.973 h -2.947 c -0.548,0 -0.994,-0.46 -0.994,-1.026 V 1.522 h 0.994 v 2.231 h 2.947 V 1.522 h 0.994 v 2.231 c 0,0.566 -0.446,1.026 -0.994,1.026 m 7.195,0 h -2.946 c -0.549,0 -0.994,-0.46 -0.994,-1.026 V 1.522 h 0.994 v 2.231 h 2.946 V 1.522 h 0.994 v 2.231 c 0,0.566 -0.445,1.026 -0.994,1.026 m 0,-6.973 h -2.946 V 0.39 h -0.994 v -2.584 c 0,-0.567 0.445,-1.027 0.994,-1.027 h 2.946 c 0.583,0 0.994,0.46 0.994,1.027 V 0.39 h -0.994 z M 6.51,4.779 H 3.563 C 3.015,4.779 2.569,4.319 2.569,3.753 V 1.169 H 3.563 V 3.753 H 6.51 V 1.169 h 0.994 v 2.584 c 0,0.566 -0.445,1.026 -0.994,1.026 m 0,-6.973 H 3.563 v 2.23 H 2.569 v -2.23 c 0,-0.567 0.446,-1.027 0.994,-1.027 H 6.51 c 0.583,0 0.994,0.46 0.994,1.027 v 2.23 H 6.51 Z m 7.195,0 h -2.946 v 2.053 H 9.765 v -2.053 c 0,-0.567 0.411,-1.027 0.994,-1.027 h 2.946 c 0.583,0 0.994,0.46 0.994,1.027 v 2.053 h -0.994 z m 0,6.973 h -2.946 c -0.548,0 -0.994,-0.46 -0.994,-1.026 V 0.992 h 0.994 v 2.761 h 2.946 V 0.992 h 0.994 v 2.761 c 0,0.566 -0.479,1.026 -0.994,1.026" />
      </g>
    </g>
  </g>
  <g
     id="g465"
     transform="matrix(1.0336214,0,0,-1.0336214,422.50492,829.35413)">
    <g
       id="g463"
       clip-path="url(#clipPath28028)">
      <g
         id="g461"
         transform="translate(766.75,130.24)">
        <path
           style="fill:#ffffff"
           inkscape:connector-curvature="0"
           id="path459"
           d="M 0,0 H -15.75 V 6.693 C -15.75,7.932 -16.763,9 -18.057,9 H -31.443 C -32.682,9 -33.75,7.987 -33.75,6.693 V 0 H -49.5 c -1.237,0 -2.25,-1.013 -2.25,-2.25 V -13.5 l 27,-4.5 27,4.5 V -2.25 C 2.25,-1.013 1.237,0 0,0 m -29.25,4.5 h 9 V 0 h -9 z m 9,-16.875 c 0,-0.619 -0.506,-1.125 -1.125,-1.125 h -6.75 c -0.619,0 -1.125,0.506 -1.125,1.125 v 2.25 c 0,0.619 0.506,1.125 1.125,1.125 h 6.75 c 0.619,0 1.125,-0.506 1.125,-1.125 z m -4.5,-7.875 27,4.5 v -27 C 2.25,-43.987 1.237,-45 0,-45 h -49.5 c -1.237,0 -2.25,1.013 -2.25,2.25 v 27 z" />
      </g>
    </g>
  </g>
  <g
     id="g473"
     transform="matrix(1.0336214,0,0,-1.0336214,422.50492,829.35413)">
    <g
       id="g471"
       clip-path="url(#clipPath28200)">
      <g
         id="g469"
         transform="translate(392,82.24)">
        <path
           style="fill:#ffffff"
           inkscape:connector-curvature="0"
           id="path467"
           d="M 0,0 -4.35,3.941 C -19.8,17.953 -30,27.2 -30,38.516 -30,47.762 -22.755,55 -13.5,55 -8.28,55 -3.27,52.572 0,48.75 3.27,52.572 8.28,55 13.5,55 22.755,55 30,47.762 30,38.516 30,27.2 19.8,17.953 4.35,3.941 Z" />
      </g>
    </g>
  </g>
  <g
     id="g481"
     transform="matrix(1.0336214,0,0,-1.0336214,422.50492,829.35413)">
    <g
       id="g479"
       clip-path="url(#clipPath28364)">
      <g
         id="g477"
         transform="translate(542.77,113.24)">
        <path
           style="fill:#ffffff"
           inkscape:connector-curvature="0"
           id="path475"
           d="m 0,0 c 0,2.621 0.885,4.8 2.689,6.604 1.804,1.804 3.983,2.689 6.604,2.689 2.622,0 4.801,-0.885 6.604,-2.689 1.805,-1.804 2.69,-3.983 2.69,-6.604 0,-2.621 -0.885,-4.834 -2.69,-6.639 -1.803,-1.803 -3.982,-2.689 -6.604,-2.689 -2.621,0 -4.809,0.877 -6.604,2.689 C 0.876,-4.809 0,-2.588 0,0 m -13.141,-6.06 c 0.545,-1.94 1.363,-3.846 2.35,-5.617 l -6.128,-7.523 6.944,-6.945 7.524,6.127 c 1.769,-0.986 3.71,-1.803 5.65,-2.382 L 4.221,-32 h 10.008 l 1.022,9.6 c 1.94,0.579 3.778,1.396 5.651,2.382 l 7.49,-6.127 7.012,6.945 -6.162,7.523 c 0.953,1.771 1.805,3.677 2.383,5.617 l 9.601,1.056 V 5.004 l -9.601,1.021 c -0.578,1.941 -1.43,3.745 -2.383,5.618 l 6.162,7.523 -7.012,7.013 -7.49,-6.161 c -1.907,0.953 -3.711,1.803 -5.651,2.382 L 14.229,32 H 4.221 L 3.199,22.4 c -2.008,-0.579 -3.88,-1.429 -5.65,-2.382 l -7.524,6.161 -6.944,-7.013 6.128,-7.523 C -11.744,9.77 -12.562,7.966 -13.141,6.025 L -22.774,5.004 V -5.004 Z" />
      </g>
    </g>
  </g>
  <g
     id="g487"
     transform="matrix(1.0336214,0,0,-1.0336214,422.50492,829.35413)">
    <g
       id="g485"
       clip-path="url(#clipPath28984)">
      <path
         style="fill:#ffffff;fill-rule:evenodd"
         inkscape:connector-curvature="0"
         id="path483"
         d="m 473,698.24 h 13 v -13 h -13 z m 6.5,-12 c 3.037,0 5.5,2.463 5.5,5.5 0,3.038 -2.463,5.5 -5.5,5.5 -3.037,0 -5.5,-2.462 -5.5,-5.5 0,-3.037 2.463,-5.5 5.5,-5.5" />
    </g>
  </g>
  <g
     id="g493"
     transform="matrix(1.0336214,0,0,-1.0336214,422.50492,829.35413)">
    <g
       id="g491"
       clip-path="url(#clipPath29012)">
      <path
         style="fill:#ffffff;fill-rule:evenodd"
         inkscape:connector-curvature="0"
         id="path489"
         d="m 473,676.24 h 13 v -13 h -13 z m 6.5,-12 c 3.037,0 5.5,2.463 5.5,5.5 0,3.038 -2.463,5.5 -5.5,5.5 -3.037,0 -5.5,-2.462 -5.5,-5.5 0,-3.037 2.463,-5.5 5.5,-5.5" />
    </g>
  </g>
  <g
     id="g499"
     transform="matrix(1.0336214,0,0,-1.0336214,422.50492,829.35413)">
    <g
       id="g497"
       clip-path="url(#clipPath29040)">
      <path
         style="fill:#ffffff;fill-rule:evenodd"
         inkscape:connector-curvature="0"
         id="path495"
         d="m 467,687.24 h 13 v -13 h -13 z m 6.5,-12 c 3.037,0 5.5,2.463 5.5,5.5 0,3.038 -2.463,5.5 -5.5,5.5 -3.037,0 -5.5,-2.462 -5.5,-5.5 0,-3.037 2.463,-5.5 5.5,-5.5" />
    </g>
  </g>
  <g
     id="g505"
     transform="matrix(1.0336214,0,0,-1.0336214,422.50492,829.35413)">
    <g
       id="g503"
       clip-path="url(#clipPath29068)">
      <path
         style="fill:#ffffff;fill-rule:evenodd"
         inkscape:connector-curvature="0"
         id="path501"
         d="m 486,698.24 h 13 v -13 h -13 z m 6.5,-12 c 3.037,0 5.5,2.463 5.5,5.5 0,3.038 -2.463,5.5 -5.5,5.5 -3.037,0 -5.5,-2.462 -5.5,-5.5 0,-3.037 2.463,-5.5 5.5,-5.5" />
    </g>
  </g>
  <g
     id="g511"
     transform="matrix(1.0336214,0,0,-1.0336214,422.50492,829.35413)">
    <g
       id="g509"
       clip-path="url(#clipPath29096)">
      <path
         style="fill:#ffffff;fill-rule:evenodd"
         inkscape:connector-curvature="0"
         id="path507"
         d="m 486,676.24 h 13 v -13 h -13 z m 6.5,-12 c 3.037,0 5.5,2.463 5.5,5.5 0,3.038 -2.463,5.5 -5.5,5.5 -3.037,0 -5.5,-2.462 -5.5,-5.5 0,-3.037 2.463,-5.5 5.5,-5.5" />
    </g>
  </g>
  <g
     id="g517"
     transform="matrix(1.0336214,0,0,-1.0336214,422.50492,829.35413)">
    <g
       id="g515"
       clip-path="url(#clipPath29124)">
      <path
         style="fill:#ffffff;fill-rule:evenodd"
         inkscape:connector-curvature="0"
         id="path513"
         d="m 480,687.24 h 13 v -13 h -13 z m 6.5,-12 c 3.037,0 5.5,2.463 5.5,5.5 0,3.038 -2.463,5.5 -5.5,5.5 -3.037,0 -5.5,-2.462 -5.5,-5.5 0,-3.037 2.463,-5.5 5.5,-5.5" />
    </g>
  </g>
  <g
     id="g523"
     transform="matrix(1.0336214,0,0,-1.0336214,422.50492,829.35413)">
    <g
       id="g521"
       clip-path="url(#clipPath29152)">
      <path
         style="fill:#ffffff;fill-rule:evenodd"
         inkscape:connector-curvature="0"
         id="path519"
         d="m 493,687.24 h 13 v -13 h -13 z m 6.5,-12 c 3.037,0 5.5,2.463 5.5,5.5 0,3.038 -2.463,5.5 -5.5,5.5 -3.037,0 -5.5,-2.462 -5.5,-5.5 0,-3.037 2.463,-5.5 5.5,-5.5" />
    </g>
  </g>
  <g
     id="g529"
     transform="matrix(1.0336214,0,0,-1.0336214,422.50492,829.35413)">
    <g
       id="g527"
       clip-path="url(#clipPath29252)">
      <path
         style="fill:#ffffff;fill-rule:evenodd"
         inkscape:connector-curvature="0"
         id="path525"
         d="m 161,327.24 h 73 v -28 h -73 z m 14,-5 h 45 c 4.971,0 9,-4.029 9,-9 0,-4.97 -4.029,-9 -9,-9 h -45 c -4.971,0 -9,4.03 -9,9 0,4.971 4.029,9 9,9" />
    </g>
  </g>
  <g
     id="g535"
     transform="matrix(1.0336214,0,0,-1.0336214,422.50492,829.35413)">
    <g
       id="g533"
       clip-path="url(#clipPath29280)">
      <path
         style="fill:#ffffff;fill-rule:evenodd"
         inkscape:connector-curvature="0"
         id="path531"
         d="m 162,302.24 h 73 v -28 h -73 z m 14,-5 h 45 c 4.971,0 9,-4.029 9,-9 0,-4.97 -4.029,-9 -9,-9 h -45 c -4.971,0 -9,4.03 -9,9 0,4.971 4.029,9 9,9" />
    </g>
  </g>
  <g
     id="g543"
     transform="matrix(1.0336214,0,0,-1.0336214,422.50492,829.35413)">
    <g
       id="g541"
       clip-path="url(#clipPath29400)">
      <g
         id="g539"
         transform="translate(104.49,129.57)">
        <path
           style="fill:#ffffff"
           inkscape:connector-curvature="0"
           id="path537"
           d="m 0,0 c -4.298,-0.338 -8.165,-0.637 -11.604,-0.898 -1.458,-0.113 -2.906,-0.225 -4.344,-0.336 -1.44,-0.114 -2.747,-0.207 -3.924,-0.282 -1.178,-0.074 -2.168,-0.149 -2.972,-0.224 -0.803,-0.074 -1.28,-0.113 -1.428,-0.113 -0.188,-0.037 -0.403,-0.065 -0.645,-0.084 -0.244,-0.018 -0.459,-0.065 -0.645,-0.139 l -0.673,-0.225 -2.467,1.121 c 0.187,0.263 0.412,0.506 0.674,0.731 0.185,0.186 0.42,0.364 0.7,0.533 0.28,0.168 0.569,0.27 0.868,0.309 0.225,0.037 0.822,0.093 1.795,0.168 0.971,0.074 2.167,0.168 3.588,0.28 0,0.486 0.047,1.15 0.14,1.992 0.092,0.841 0.317,1.674 0.672,2.497 0.356,0.822 0.869,1.553 1.541,2.188 0.673,0.636 1.589,1.009 2.747,1.123 1.346,0.111 2.439,-0.094 3.281,-0.618 0.84,-0.523 1.494,-1.169 1.961,-1.935 0.467,-0.768 0.795,-1.553 0.981,-2.358 0.187,-0.804 0.299,-1.43 0.337,-1.878 1.606,0.111 2.942,0.205 4.008,0.279 1.064,0.076 1.653,0.131 1.765,0.169 0.412,0.038 0.87,-0.038 1.373,-0.225 0.505,-0.186 0.907,-0.43 1.206,-0.729 C -0.99,1.271 -0.888,1.158 -0.757,1.01 -0.626,0.859 -0.505,0.71 -0.392,0.561 -0.243,0.41 -0.112,0.224 0,0 m -15.528,6.676 c -0.709,-0.074 -1.28,-0.326 -1.709,-0.757 -0.43,-0.431 -0.758,-0.944 -0.982,-1.543 -0.223,-0.599 -0.374,-1.206 -0.448,-1.823 -0.075,-0.617 -0.112,-1.114 -0.112,-1.488 1.159,0.076 2.344,0.169 3.559,0.281 1.215,0.112 2.402,0.206 3.56,0.281 -0.037,0.336 -0.121,0.804 -0.252,1.402 -0.131,0.599 -0.346,1.178 -0.645,1.74 -0.299,0.561 -0.691,1.028 -1.176,1.403 -0.487,0.373 -1.084,0.542 -1.795,0.504 m 21.919,-41.24 c 0.186,-1.047 0.159,-1.917 -0.084,-2.61 -0.244,-0.691 -0.925,-1.168 -2.046,-1.43 -0.374,-0.113 -1.187,-0.299 -2.439,-0.562 -1.252,-0.262 -2.747,-0.579 -4.485,-0.953 -1.737,-0.374 -3.597,-0.777 -5.577,-1.207 -1.982,-0.43 -3.878,-0.832 -5.691,-1.205 -1.812,-0.375 -3.437,-0.711 -4.877,-1.011 -1.438,-0.3 -2.457,-0.505 -3.054,-0.617 -1.383,-0.3 -2.402,-0.206 -3.055,0.28 -0.654,0.486 -0.982,1.217 -0.982,2.189 v 34.452 c 0,0.934 0.197,1.691 0.589,2.271 0.393,0.58 0.962,0.889 1.709,0.926 0.299,0 0.664,0.02 1.094,0.057 0.43,0.037 0.85,0.074 1.261,0.112 0.485,0.037 0.991,0.075 1.514,0.112 l 0.504,-8.023 c -0.037,-0.038 -0.112,-0.057 -0.224,-0.057 -0.074,0 -0.187,-0.01 -0.336,-0.027 -0.15,-0.02 -0.318,-0.029 -0.505,-0.029 -0.784,-0.075 -1.159,-0.542 -1.121,-1.403 0.038,-0.336 0.075,-0.805 0.112,-1.402 0.037,-0.599 0.066,-1.225 0.084,-1.88 0.019,-0.655 0.047,-1.29 0.084,-1.907 0.037,-0.617 0.074,-1.114 0.113,-1.488 0.037,-0.711 0.149,-1.112 0.336,-1.206 0.186,-0.093 0.598,-0.14 1.233,-0.14 h 0.785 c 0.225,0 0.439,0.01 0.645,0.027 0.205,0.02 0.439,0.038 0.701,0.057 0.261,0.018 0.597,0.047 1.008,0.084 0.785,0.075 1.29,0.243 1.513,0.506 0.225,0.261 0.319,0.654 0.281,1.177 0,0.262 -0.028,0.721 -0.084,1.375 -0.056,0.655 -0.113,1.337 -0.168,2.048 -0.056,0.71 -0.103,1.384 -0.14,2.02 -0.037,0.635 -0.074,1.085 -0.112,1.346 -0.076,0.45 -0.168,0.768 -0.281,0.954 -0.112,0.187 -0.318,0.262 -0.617,0.224 -0.148,0 -0.299,-0.009 -0.447,-0.027 -0.151,-0.019 -0.3,-0.028 -0.449,-0.028 h -0.449 l -0.505,7.967 c 2.542,0.225 4.877,0.412 7.008,0.561 0.897,0.076 1.803,0.15 2.719,0.224 0.916,0.076 1.766,0.141 2.551,0.198 0.785,0.055 1.476,0.111 2.074,0.168 0.598,0.056 1.046,0.103 1.346,0.14 1.083,0.074 1.942,-0.113 2.578,-0.561 0.635,-0.449 1.027,-1.122 1.178,-2.021 0.037,-0.299 0.168,-1.196 0.391,-2.693 0.224,-1.496 0.505,-3.291 0.841,-5.386 0.336,-2.095 0.691,-4.349 1.065,-6.761 0.374,-2.413 0.729,-4.667 1.066,-6.761 0.336,-2.095 0.625,-3.891 0.869,-5.387 0.242,-1.496 0.4,-2.395 0.476,-2.693 m -35.261,-4.881 c 0,-0.525 0.028,-0.983 0.084,-1.375 0.057,-0.393 0.122,-0.701 0.197,-0.926 0.074,-0.299 0.168,-0.524 0.279,-0.674 -0.933,0.486 -1.831,0.973 -2.69,1.459 -0.747,0.412 -1.495,0.832 -2.242,1.263 -0.747,0.43 -1.383,0.795 -1.906,1.094 -0.972,0.561 -1.635,1.235 -1.99,2.02 -0.355,0.785 -0.439,1.608 -0.253,2.469 0.076,0.224 0.244,1.047 0.505,2.469 0.262,1.421 0.588,3.142 0.981,5.162 0.392,2.019 0.803,4.189 1.233,6.508 0.43,2.32 0.831,4.49 1.205,6.509 0.374,2.02 0.701,3.76 0.982,5.218 0.28,1.459 0.439,2.319 0.476,2.581 0.15,0.823 0.42,1.459 0.813,1.908 0.392,0.449 0.849,0.561 1.373,0.336 0.299,-0.149 0.543,-0.317 0.728,-0.504 0.114,-0.113 0.188,-0.207 0.225,-0.281 z" />
      </g>
    </g>
  </g>
  <path
     d="m 30.22277,2.1971349 a 1.4705452,1.4335978 0 0 0 -0.145972,0.014063 1.4705452,1.4335978 0 0 0 -0.144509,0.025489 1.4705452,1.4335978 0 0 0 -0.141608,0.039846 1.4705452,1.4335978 0 0 0 -0.135747,0.054086 1.4705452,1.4335978 0 0 0 -0.129917,0.068297 1.4705452,1.4335978 0 0 0 -0.04525,0.025489 1.4705452,1.4335978 0 0 0 -0.121156,0.08251 1.4705452,1.4335978 0 0 0 -0.11093,0.092501 1.4705452,1.4335978 0 0 0 -0.102172,0.1038684 1.4705452,1.4335978 0 0 0 -0.09051,0.1124252 1.4705452,1.4335978 0 0 0 -0.07885,0.1209504 1.4705452,1.4335978 0 0 0 -0.06566,0.1280715 1.4705452,1.4335978 0 0 0 -0.05257,0.1337259 1.4705452,1.4335978 0 0 0 -0.03796,0.1394687 4.9408844,4.8169447 0 0 1 -0.06713,0.2689458 4.9408844,4.8169447 0 0 1 -0.154734,0.4567895 4.9408844,4.8169447 0 0 1 -0.199973,0.4411137 4.9408844,4.8169447 0 0 1 -0.245213,0.4183769 4.9408844,4.8169447 0 0 1 -0.284622,0.3927393 4.9408844,4.8169447 0 0 1 -0.325496,0.362853 4.9408844,4.8169447 0 0 1 -0.360538,0.3287183 4.9408844,4.8169447 0 0 1 -0.391186,0.2931481 4.9408844,4.8169447 0 0 1 -0.420369,0.2532705 4.9408844,4.8169447 0 0 1 -0.443722,0.2106096 4.9408844,4.8169447 0 0 1 -0.464173,0.1664833 4.9408844,4.8169447 0 0 1 -0.477299,0.1209508 4.9408844,4.8169447 0 0 1 -0.48899,0.072575 4.9408844,4.8169447 0 0 1 -0.493356,0.02666 4.9408844,4.8169447 0 0 1 -0.2642,-0.0085 4.9408844,4.8169447 0 0 1 -0.49189,-0.052653 4.9408844,4.8169447 0 0 1 -0.483159,-0.09818 A 4.9408844,4.8169447 0 0 1 22.293915,6.8452716 4.9408844,4.8169447 0 0 1 21.839969,6.6545862 4.9408844,4.8169447 0 0 1 21.407908,6.4197747 4.9408844,4.8169447 0 0 1 21.003566,6.1451738 4.9408844,4.8169447 0 0 1 20.628436,5.8321016 4.9408844,4.8169447 0 0 1 20.286885,5.4834591 4.9408844,4.8169447 0 0 1 19.983276,5.1049305 4.9408844,4.8169447 0 0 1 19.719077,4.6979514 4.9408844,4.8169447 0 0 1 19.498681,4.2667997 4.9408844,4.8169447 0 0 1 19.323524,3.8157241 4.9408844,4.8169447 0 0 1 19.195073,3.3518148 a 1.4705452,1.4335978 0 0 0 -0.0058,-0.028714 1.4705452,1.4335978 0 0 0 -0.0394,-0.1380626 1.4705452,1.4335978 0 0 0 -0.05251,-0.1337259 1.4705452,1.4335978 0 0 0 -0.06566,-0.1280707 1.4705452,1.4335978 0 0 0 -0.08028,-0.1209511 1.4705452,1.4335978 0 0 0 -0.09051,-0.1124252 1.4705452,1.4335978 0 0 0 -0.102172,-0.1038685 1.4705452,1.4335978 0 0 0 -0.112395,-0.0925 1.4705452,1.4335978 0 0 0 -0.121157,-0.081104 1.4190649,1.3834359 0 0 0 -0.06716,-0.038412 1.4190649,1.3834359 0 0 0 -0.128453,-0.058366 1.4190649,1.3834359 0 0 0 -0.134253,-0.046971 1.4190649,1.3834359 0 0 0 -0.137183,-0.032698 1.4190649,1.3834359 0 0 0 -0.140114,-0.018458 1.4190649,1.3834359 0 0 0 -0.143014,-0.00706 1.4190649,1.3834359 0 0 0 -0.141578,0.0085 1.4190649,1.3834359 0 0 0 -0.140114,0.022854 1.4190649,1.3834359 0 0 0 -0.135747,0.035599 23.234433,22.650775 0 0 0 -1.341419,0.4382719 23.234433,22.650775 0 0 0 -2.135454,0.8907832 23.234433,22.650775 0 0 0 -2.033284,1.0942726 23.234433,22.650775 0 0 0 -1.9106906,1.2863939 23.234433,22.650775 0 0 0 -1.7705506,1.4656814 1.4705452,1.4335978 0 0 0 -0.021978,0.018458 1.4705452,1.4335978 0 0 0 -0.099269,0.10677 1.4705452,1.4335978 0 0 0 -0.087578,0.1166734 1.4705452,1.4335978 0 0 0 -0.074452,0.1223574 1.4705452,1.4335978 0 0 0 -0.062761,0.1280707 1.4705452,1.4335978 0 0 0 -0.049638,0.1351616 1.4705452,1.4335978 0 0 0 -0.03504,0.1394688 1.4705452,1.4335978 0 0 0 -0.019341,0.1422812 1.4705452,1.4335978 0 0 0 -0.0059,0.1437178 1.4705452,1.4335978 0 0 0 0,0.022854 1.4705452,1.4335978 0 0 0 0.00879,0.1437169 1.4705452,1.4335978 0 0 0 0.023737,0.1409045 1.4705452,1.4335978 0 0 0 0.036505,0.1380625 1.4705452,1.4335978 0 0 0 0.052505,0.1351616 1.4705452,1.4335978 0 0 0 0.064227,0.1281002 1.4705452,1.4335978 0 0 0 0.078846,0.1209511 1.4705452,1.4335978 0 0 0 0.090509,0.1138307 1.4705452,1.4335978 0 0 0 0.1007339,0.1038692 4.9115842,4.7882305 0 0 1 0.051126,0.045529 4.9115842,4.7882305 0 0 1 0.341552,0.344365 4.9115842,4.7882305 0 0 1 0.303608,0.3756566 4.9115842,4.7882305 0 0 1 0.2641998,0.404138 4.9115842,4.7882305 0 0 1 0.2218318,0.426903 4.9115842,4.7882305 0 0 1 0.1766211,0.446827 4.9115842,4.7882305 0 0 1 0.129917,0.461038 4.9115842,4.7882305 0 0 1 0.08175,0.472435 4.9115842,4.7882305 0 0 1 0.03355,0.476714 4.9115842,4.7882305 0 0 1 -0.01494,0.47812 4.9115842,4.7882305 0 0 1 -0.06423,0.475277 4.9115842,4.7882305 0 0 1 -0.113861,0.465316 4.9115842,4.7882305 0 0 1 -0.1591002,0.452512 4.9115842,4.7882305 0 0 1 -0.2058042,0.435429 4.9115842,4.7882305 0 0 1 -0.2496079,0.412663 4.9115842,4.7882305 0 0 1 -0.2889874,0.385619 4.9115842,4.7882305 0 0 1 -0.3284251,0.355763 4.9115842,4.7882305 0 0 1 -0.3620037,0.323005 4.9115842,4.7882305 0 0 1 -0.3941163,0.284592 4.9115842,4.7882305 0 0 1 -0.4218342,0.24621 4.9115842,4.7882305 0 0 1 -0.4451865,0.203527 4.9115842,4.7882305 0 0 1 -0.462708,0.159363 4.9115842,4.7882305 0 0 1 -0.4772995,0.113831 4.9115842,4.7882305 0 0 1 -0.4860602,0.06546 4.9115842,4.7882305 0 0 1 -0.4904552,0.01846 4.9115842,4.7882305 0 0 1 -0.4891073,-0.02871 4.9115842,4.7882305 0 0 1 -0.4845952,-0.07685 4.9115842,4.7882305 0 0 1 -0.4743988,-0.123793 1.4705452,1.4335978 0 0 0 -0.070057,-0.01963 1.4705452,1.4335978 0 0 0 -0.1430141,-0.02985 1.4705452,1.4335978 0 0 0 -0.1474384,-0.01699 1.4705452,1.4335978 0 0 0 -0.145944,-0.0014 1.4705452,1.4335978 0 0 0 -0.1474383,0.01289 1.4705452,1.4335978 0 0 0 -0.1445085,0.02666 1.4705452,1.4335978 0 0 0 -0.1401133,0.03982 1.4705452,1.4335978 0 0 0 -0.1357476,0.05405 1.4705452,1.4335978 0 0 0 -0.1299168,0.06692 1.4705452,1.4335978 0 0 0 -0.1226211,0.07972 1.4705452,1.4335978 0 0 0 -0.1138605,0.0911 1.4705452,1.4335978 0 0 0 -0.1036346,0.101023 1.4705452,1.4335978 0 0 0 -0.09338,0.110988 1.4705452,1.4335978 0 0 0 -0.080282,0.119545 1.4705452,1.4335978 0 0 0 -0.068621,0.126665 1.4705452,1.4335978 0 0 0 -0.055465,0.133755 1.4705452,1.4335978 0 0 0 -0.040874,0.136627 22.616785,22.048657 0 0 0 -0.3342561,1.558181 22.616785,22.048657 0 0 0 -0.27149517,2.188546 22.616785,22.048657 0 0 0 -0.045239,2.202785 22.616785,22.048657 0 0 0 0.18098687,2.197101 22.616785,22.048657 0 0 0 0.4043128,2.168622 1.4705452,1.4335978 0 0 0 0.016115,0.06546 1.4705452,1.4335978 0 0 0 0.046734,0.136627 1.4705452,1.4335978 0 0 0 0.05986,0.130913 1.4705452,1.4335978 0 0 0 0.072987,0.123822 1.4705452,1.4335978 0 0 0 0.086113,0.116674 1.4705452,1.4335978 0 0 0 0.096339,0.108147 1.4705452,1.4335978 0 0 0 0.1080003,0.09821 1.4705452,1.4335978 0 0 0 0.1167318,0.08679 1.4705452,1.4335978 0 0 0 0.1241155,0.07545 1.4705452,1.4335978 0 0 0 0.1328175,0.06118 1.4705452,1.4335978 0 0 0 0.1386777,0.04984 1.4705452,1.4335978 0 0 0 0.1415783,0.03557 1.4705452,1.4335978 0 0 0 0.1459733,0.02139 1.4705452,1.4335978 0 0 0 0.145944,0.0071 1.4705452,1.4335978 0 0 0 0.1474384,-0.0071 1.4705452,1.4335978 0 0 0 0.1459734,-0.02139 1.4705452,1.4335978 0 0 0 0.1416076,-0.03413 4.9115842,4.7882305 0 0 1 0.074452,-0.02286 4.9115842,4.7882305 0 0 1 0.4772994,-0.112426 4.9115842,4.7882305 0 0 1 0.4860602,-0.06546 4.9115842,4.7882305 0 0 1 0.4904552,-0.01699 4.9115842,4.7882305 0 0 1 0.4904258,0.02985 4.9115842,4.7882305 0 0 1 0.4845953,0.07827 4.9115842,4.7882305 0 0 1 0.4743695,0.123793 4.9115842,4.7882305 0 0 1 0.4583422,0.169356 4.9115842,4.7882305 0 0 1 0.4393555,0.214858 4.9115842,4.7882305 0 0 1 0.416003,0.254705 4.9115842,4.7882305 0 0 1 0.3867913,0.294554 4.9115842,4.7882305 0 0 1 0.3547081,0.331561 4.9115842,4.7882305 0 0 1 0.3196644,0.362854 4.9115842,4.7882305 0 0 1 0.2802562,0.392739 4.9115842,4.7882305 0 0 1 0.2379168,0.418347 4.9115842,4.7882305 0 0 1 0.195579,0.439708 4.9115842,4.7882305 0 0 1 0.1474085,0.455353 4.9115842,4.7882305 0 0 1 0.1021693,0.469593 4.9115842,4.7882305 0 0 1 0.0525,0.475278 4.9115842,4.7882305 0 0 1 0.0044,0.47812 4.9115842,4.7882305 0 0 1 -0.04524,0.476714 4.9115842,4.7882305 0 0 1 -0.09487,0.469593 4.9115842,4.7882305 0 0 1 -0.1400837,0.459632 4.9115842,4.7882305 0 0 1 -0.1883121,0.441114 4.9115842,4.7882305 0 0 1 -0.2320865,0.422625 4.9115842,4.7882305 0 0 1 -0.2744256,0.397017 4.9115842,4.7882305 0 0 1 -0.3123689,0.368566 4.9115842,4.7882305 0 0 1 -0.3503126,0.335838 1.4705452,1.4335978 0 0 0 -0.029303,0.02549 1.4705452,1.4335978 0 0 0 -0.1007052,0.10387 1.4705452,1.4335978 0 0 0 -0.091973,0.112425 1.4705452,1.4335978 0 0 0 -0.078818,0.120951 1.4705452,1.4335978 0 0 0 -0.065692,0.126664 1.4705452,1.4335978 0 0 0 -0.052505,0.133726 1.4705452,1.4335978 0 0 0 -0.039412,0.139469 1.4705452,1.4335978 0 0 0 -0.024908,0.140875 1.4705452,1.4335978 0 0 0 -0.00879,0.142281 1.4705452,1.4335978 0 0 0 0,0.03703 1.4705452,1.4335978 0 0 0 0.00879,0.143718 1.4705452,1.4335978 0 0 0 0.023738,0.140904 1.4705452,1.4335978 0 0 0 0.036505,0.138063 1.4705452,1.4335978 0 0 0 0.052568,0.135161 1.4705452,1.4335978 0 0 0 0.064227,0.128071 1.4705452,1.4335978 0 0 0 0.078817,0.120952 1.4705452,1.4335978 0 0 0 0.090509,0.11383 1.4705452,1.4335978 0 0 0 0.1007339,0.103869 23.359546,22.772663 0 0 0 0.9794163,0.868017 23.359546,22.772663 0 0 0 1.845001,1.394541 23.359546,22.772663 0 0 0 1.977819,1.20954 23.359546,22.772663 0 0 0 2.093145,1.008891 23.359546,22.772663 0 0 0 2.185086,0.801125 1.4705452,1.4335978 0 0 0 0.04088,0.01289 1.4705452,1.4335978 0 0 0 0.143044,0.03132 1.4705452,1.4335978 0 0 0 0.145943,0.01699 1.4705452,1.4335978 0 0 0 0.145973,0.0041 1.4705452,1.4335978 0 0 0 0.147439,-0.01114 1.4705452,1.4335978 0 0 0 0.144509,-0.02548 1.4705452,1.4335978 0 0 0 0.141608,-0.03845 1.4705452,1.4335978 0 0 0 0.135746,-0.05262 1.4705452,1.4335978 0 0 0 0.131383,-0.06548 1.4705452,1.4335978 0 0 0 0.05254,-0.02872 1.4705452,1.4335978 0 0 0 0.122621,-0.07972 1.4705452,1.4335978 0 0 0 0.11386,-0.08966 1.4705452,1.4335978 0 0 0 0.103635,-0.101003 1.4705452,1.4335978 0 0 0 0.09487,-0.110989 1.4705452,1.4335978 0 0 0 0.08029,-0.118109 1.4705452,1.4335978 0 0 0 0.07005,-0.126664 1.4705452,1.4335978 0 0 0 0.05547,-0.133727 1.4705452,1.4335978 0 0 0 0.04236,-0.136625 4.9335594,4.8096197 0 0 1 0.05251,-0.209175 4.9335594,4.8096197 0 0 1 0.154734,-0.456789 4.9335594,4.8096197 0 0 1 0.199945,-0.439707 4.9335594,4.8096197 0 0 1 0.243777,-0.416941 4.9335594,4.8096197 0 0 1 0.284622,-0.392739 4.9335594,4.8096197 0 0 1 0.324031,-0.361446 4.9335594,4.8096197 0 0 1 0.359073,-0.330126 4.9335594,4.8096197 0 0 1 0.392651,-0.291712 4.9335594,4.8096197 0 0 1 0.418933,-0.253271 4.9335594,4.8096197 0 0 1 0.443722,-0.210609 4.9335594,4.8096197 0 0 1 0.462708,-0.166483 4.9335594,4.8096197 0 0 1 0.477299,-0.120951 4.9335594,4.8096197 0 0 1 0.487526,-0.07254 4.9335594,4.8096197 0 0 1 0.49192,-0.02666 h 0.05839 a 4.9335594,4.8096197 0 0 1 0.280256,0.01289 4.9335594,4.8096197 0 0 1 0.490455,0.05836 4.9335594,4.8096197 0 0 1 0.48023,0.105276 4.9335594,4.8096197 0 0 1 0.468538,0.150837 4.9335594,4.8096197 0 0 1 0.449582,0.197805 4.9335594,4.8096197 0 0 1 0.427665,0.23906 4.9335594,4.8096197 0 0 1 0.401412,0.280314 4.9335594,4.8096197 0 0 1 0.370735,0.317321 4.9335594,4.8096197 0 0 1 0.335721,0.351485 4.9335594,4.8096197 0 0 1 0.297778,0.382778 4.9335594,4.8096197 0 0 1 0.258339,0.40982 4.9335594,4.8096197 0 0 1 0.2131,0.434023 4.9335594,4.8096197 0 0 1 0.169297,0.451106 4.9335594,4.8096197 0 0 1 0.121154,0.465315 1.4705452,1.4335978 0 0 0 0.0088,0.03981 1.4705452,1.4335978 0 0 0 0.03941,0.138061 1.4705452,1.4335978 0 0 0 0.05397,0.133726 1.4705452,1.4335978 0 0 0 0.06716,0.126666 1.4705452,1.4335978 0 0 0 0.07882,0.120949 1.4705452,1.4335978 0 0 0 0.09198,0.112426 1.4705452,1.4335978 0 0 0 0.103635,0.102459 1.4705452,1.4335978 0 0 0 0.112395,0.0925 1.4705452,1.4335978 0 0 0 0.121157,0.07972 1.4705452,1.4335978 0 0 0 0.06716,0.03842 1.4705452,1.4335978 0 0 0 0.132847,0.06259 1.4705452,1.4335978 0 0 0 0.137183,0.04984 1.4705452,1.4335978 0 0 0 0.143014,0.0356 1.4705452,1.4335978 0 0 0 0.144509,0.02139 1.4705452,1.4335978 0 0 0 0.147439,0.0085 1.4705452,1.4335978 0 0 0 0.134252,-0.01436 1.4705452,1.4335978 0 0 0 0.144509,-0.02985 1.4705452,1.4335978 0 0 0 0.140113,-0.04269 23.271058,22.686813 0 0 0 1.318067,-0.406979 23.271058,22.686813 0 0 0 2.154441,-0.856649 23.271058,22.686813 0 0 0 2.056636,-1.060138 23.271058,22.686813 0 0 0 1.936945,-1.256508 23.271058,22.686813 0 0 0 1.798297,-1.437201 1.4705452,1.4335978 0 0 0 0.03064,-0.02871 1.4705452,1.4335978 0 0 0 0.102172,-0.10387 1.4705452,1.4335978 0 0 0 0.08905,-0.113831 1.4705452,1.4335978 0 0 0 0.07738,-0.12095 1.4705452,1.4335978 0 0 0 0.06569,-0.129536 1.4705452,1.4335978 0 0 0 0.0511,-0.133726 1.4705452,1.4335978 0 0 0 0.03798,-0.138063 1.4705452,1.4335978 0 0 0 0.02373,-0.142281 1.4705452,1.4335978 0 0 0 0.0073,-0.142311 1.4705452,1.4335978 0 0 0 0,-0.04694 1.4705452,1.4335978 0 0 0 -0.01172,-0.14228 1.4705452,1.4335978 0 0 0 -0.02638,-0.140876 1.4705452,1.4335978 0 0 0 -0.04088,-0.138062 1.4705452,1.4335978 0 0 0 -0.054,-0.133726 1.4705452,1.4335978 0 0 0 -0.06862,-0.126665 1.4705452,1.4335978 0 0 0 -0.08029,-0.119545 1.4705452,1.4335978 0 0 0 -0.09198,-0.110989 1.4705452,1.4335978 0 0 0 -0.103634,-0.102458 4.9189093,4.7952627 0 0 1 -0.106565,-0.09824 4.9189093,4.7952627 0 0 1 -0.33279,-0.352892 4.9189093,4.7952627 0 0 1 -0.294848,-0.382132 4.9189093,4.7952627 0 0 1 -0.25544,-0.409822 4.9189093,4.7952627 0 0 1 -0.211634,-0.432587 4.9189093,4.7952627 0 0 1 -0.166367,-0.451075 4.9189093,4.7952627 0 0 1 -0.118226,-0.465316 4.9189093,4.7952627 0 0 1 -0.07152,-0.475278 4.9189093,4.7952627 0 0 1 -0.02198,-0.47812 4.9189093,4.7952627 0 0 1 0.02755,-0.479556 4.9189093,4.7952627 0 0 1 0.07589,-0.472435 4.9189093,4.7952627 0 0 1 0.124086,-0.46391 4.9189093,4.7952627 0 0 1 0.172227,-0.449669 4.9189093,4.7952627 0 0 1 0.21603,-0.431181 4.9189093,4.7952627 0 0 1 0.258339,-0.406979 4.9189093,4.7952627 0 0 1 0.300679,-0.379935 4.9189093,4.7952627 0 0 1 0.337185,-0.348613 4.9189093,4.7952627 0 0 1 0.370765,-0.314478 4.9189093,4.7952627 0 0 1 0.401412,-0.276066 4.9189093,4.7952627 0 0 1 0.427664,-0.236189 4.9189093,4.7952627 0 0 1 0.449582,-0.193528 4.9189093,4.7952627 0 0 1 0.467073,-0.149401 4.9189093,4.7952627 0 0 1 0.481695,-0.102459 4.9189093,4.7952627 0 0 1 0.487526,-0.0555 4.9189093,4.7952627 0 0 1 0.49189,-0.0071 4.9189093,4.7952627 0 0 1 0.490456,0.04128 4.9189093,4.7952627 0 0 1 0.483159,0.08822 4.9189093,4.7952627 0 0 1 0.471468,0.133725 1.4705452,1.4335978 0 0 0 0.04375,0.01436 1.4705452,1.4335978 0 0 0 0.141607,0.03703 1.4705452,1.4335978 0 0 0 0.144508,0.02286 1.4705452,1.4335978 0 0 0 0.14741,0.0085 1.4705452,1.4335978 0 0 0 0.145944,-0.0058 1.4705452,1.4335978 0 0 0 0.145973,-0.01993 1.4705452,1.4335978 0 0 0 0.143043,-0.03413 1.4705452,1.4335978 0 0 0 0.138678,-0.04697 1.4705452,1.4335978 0 0 0 0.132817,-0.06118 1.4705452,1.4335978 0 0 0 0.04088,-0.02286 1.4705452,1.4335978 0 0 0 0.124115,-0.07682 1.4705452,1.4335978 0 0 0 0.115325,-0.08966 1.4705452,1.4335978 0 0 0 0.1051,-0.09956 1.4705452,1.4335978 0 0 0 0.09487,-0.109583 1.4705452,1.4335978 0 0 0 0.08324,-0.118108 1.4705452,1.4335978 0 0 0 0.07152,-0.125201 1.4705452,1.4335978 0 0 0 0.05696,-0.132318 1.4705452,1.4335978 0 0 0 0.04375,-0.136627 22.874041,22.299759 0 0 0 0.340117,-1.49129 22.874041,22.299759 0 0 0 0.306537,-2.20847 22.874041,22.299759 0 0 0 0.07885,-2.228393 22.874041,22.299759 0 0 0 -0.15034,-2.224145 22.874041,22.299759 0 0 0 -0.376596,-2.198508 1.4705452,1.4335978 0 0 0 -0.01026,-0.04128 1.4705452,1.4335978 0 0 0 -0.04088,-0.138033 1.4705452,1.4335978 0 0 0 -0.05544,-0.132319 1.4705452,1.4335978 0 0 0 -0.07005,-0.126665 1.4705452,1.4335978 0 0 0 -0.08029,-0.119545 1.4705452,1.4335978 0 0 0 -0.09338,-0.110988 1.4705452,1.4335978 0 0 0 -0.105099,-0.101003 1.4705452,1.4335978 0 0 0 -0.113859,-0.08966 1.4705452,1.4335978 0 0 0 -0.122623,-0.07972 1.4705452,1.4335978 0 0 0 -0.03651,-0.01963 1.4705452,1.4335978 0 0 0 -0.132847,-0.06118 1.4705452,1.4335978 0 0 0 -0.137183,-0.04984 1.4705452,1.4335978 0 0 0 -0.143014,-0.03413 1.4705452,1.4335978 0 0 0 -0.144509,-0.02139 1.4705452,1.4335978 0 0 0 -0.147409,-0.0071 1.4705452,1.4335978 0 0 0 -0.147439,0.0071 1.4705452,1.4335978 0 0 0 -0.144507,0.02139 1.4705452,1.4335978 0 0 0 -0.143044,0.03703 4.9189093,4.7952627 0 0 1 -0.237917,0.0683 4.9189093,4.7952627 0 0 1 -0.480229,0.09956 4.9189093,4.7952627 0 0 1 -0.488991,0.05409 4.9189093,4.7952627 0 0 1 -0.49189,0.0058 4.9189093,4.7952627 0 0 1 -0.489401,-0.04269 4.9189093,4.7952627 0 0 1 -0.48316,-0.08966 4.9189093,4.7952627 0 0 1 -0.471468,-0.136627 4.9189093,4.7952627 0 0 1 -0.455413,-0.180723 4.9189093,4.7952627 0 0 1 -0.433525,-0.224849 4.9189093,4.7952627 0 0 1 -0.410172,-0.266105 4.9189093,4.7952627 0 0 1 -0.379495,-0.304517 4.9189093,4.7952627 0 0 1 -0.345948,-0.340086 4.9189093,4.7952627 0 0 1 -0.310903,-0.372815 4.9189093,4.7952627 0 0 1 -0.270031,-0.399859 4.9189093,4.7952627 0 0 1 -0.227692,-0.425468 4.9189093,4.7952627 0 0 1 -0.183886,-0.443956 4.9189093,4.7952627 0 0 1 -0.137214,-0.461067 4.9189093,4.7952627 0 0 1 -0.08904,-0.470999 4.9189093,4.7952627 0 0 1 -0.03941,-0.47812 4.9189093,4.7952627 0 0 1 0.0073,-0.478121 4.9189093,4.7952627 0 0 1 0.05839,-0.476713 4.9189093,4.7952627 0 0 1 0.106563,-0.468158 4.9189093,4.7952627 0 0 1 0.15327,-0.455353 4.9189093,4.7952627 0 0 1 0.199973,-0.438272 4.9189093,4.7952627 0 0 1 0.242341,-0.415505 4.9189093,4.7952627 0 0 1 0.284623,-0.391333 4.9189093,4.7952627 0 0 1 0.324059,-0.361447 4.9189093,4.7952627 0 0 1 0.359073,-0.3272821 1.514642,1.4766104 0 0 0 0.0088,-0.00851 1.514642,1.4766104 0 0 0 0.108,-0.1024588 1.514642,1.4766104 0 0 0 0.09634,-0.1138604 1.514642,1.4766104 0 0 0 0.08465,-0.1223871 1.514642,1.4766104 0 0 0 0.07152,-0.1294777 1.514642,1.4766104 0 0 0 0.05839,-0.1366261 1.514642,1.4766104 0 0 0 0.04378,-0.1422819 1.514642,1.4766104 0 0 0 0.0293,-0.143717 1.514642,1.4766104 0 0 0 0.01319,-0.1479659 1.4705452,1.4335978 0 0 0 0.0014,-0.037032 1.4705452,1.4335978 0 0 0 -0.0073,-0.143717 1.4705452,1.4335978 0 0 0 -0.02198,-0.1423114 1.4705452,1.4335978 0 0 0 -0.03502,-0.1380323 1.4705452,1.4335978 0 0 0 -0.04964,-0.1351617 1.4705452,1.4335978 0 0 0 -0.0642,-0.1294777 A 1.4705452,1.4335978 0 0 0 40.499975,8.0032751 1.4705452,1.4335978 0 0 0 40.411025,7.889439 1.4705452,1.4335978 0 0 0 40.311755,7.7841635 23.36687,22.779988 0 0 0 38.885687,6.5319335 23.36687,22.779988 0 0 0 37.01445,5.1687287 23.36687,22.779988 0 0 0 35.013278,3.9947597 23.36687,22.779988 0 0 0 32.902613,3.021438 23.36687,22.779988 0 0 0 30.701438,2.2572899 1.4705452,1.4335978 0 0 0 30.659074,2.2458626 1.4705452,1.4335978 0 0 0 30.51603,2.2160089 1.4705452,1.4335978 0 0 0 30.370057,2.2004817 1.4705452,1.4335978 0 0 0 30.222648,2.199087 Z M 6.3472501,27.119258 a 7.8527333,7.6555434 0 0 1 0.7604857,0.19209 7.8527333,7.6555434 0 0 1 0.7371334,0.264669 7.8527333,7.6555434 0 0 0 -0.7371334,-0.264669 7.8527333,7.6555434 0 0 0 -0.7604857,-0.19209 z m 2.2026095,0.791191 A 7.8527333,7.6555434 0 0 1 9.2183722,28.311744 7.8527333,7.6555434 0 0 1 9.8416454,28.77706 7.8527333,7.6555434 0 0 0 9.2183722,28.311744 7.8527333,7.6555434 0 0 0 8.5498596,27.910449 Z M 25.422059,38.097525 a 7.8966837,7.6983216 0 0 1 0.76192,0.203519 7.8966837,7.6983216 0 0 0 -0.76192,-0.203519 z m 1.497588,0.480962 a 7.8966837,7.6983216 0 0 1 0.70502,0.347207 7.8966837,7.6983216 0 0 0 -0.70502,-0.347207 z m 1.989509,1.23799 a 7.8966837,7.6983216 0 0 1 0.567808,0.535051 7.8966837,7.6983216 0 0 0 -0.567808,-0.535051 z m -16.229938,0.556381 a 20.197766,19.69058 0 0 0 1.723844,1.025974 20.197766,19.69058 0 0 1 -1.723844,-1.025974 z"
     id="path545"
     style="opacity:0.8;fill:#63a1d4;fill-opacity:0.99215686;stroke-width:2.93001485"
     inkscape:connector-curvature="0" />
  <circle
     cx="24.170992"
     cy="23.999968"
     r="13.35286"
     id="circle547"
     style="opacity:0.8;fill:url(#linearGradient1481);stroke-width:3.29383039" />
  <circle
     cx="24.072666"
     cy="23.999966"
     r="8.4091425"
     id="circle549"
     style="opacity:0.8;fill:url(#linearGradient1491);stroke-width:2.93001485" />
</svg>
