<?xml version="1.0" encoding="UTF-8" standalone="no"?>
<!-- Created with Inkscape (http://www.inkscape.org/) -->

<svg
   xmlns:dc="http://purl.org/dc/elements/1.1/"
   xmlns:cc="http://creativecommons.org/ns#"
   xmlns:rdf="http://www.w3.org/1999/02/22-rdf-syntax-ns#"
   xmlns:svg="http://www.w3.org/2000/svg"
   xmlns="http://www.w3.org/2000/svg"
   xmlns:sodipodi="http://sodipodi.sourceforge.net/DTD/sodipodi-0.dtd"
   xmlns:inkscape="http://www.inkscape.org/namespaces/inkscape"
   width="48"
   height="48"
   viewBox="0 0 12.7 12.7"
   version="1.1"
   id="svg1111"
   inkscape:version="0.92.4 (5da689c313, 2019-01-14)"
   sodipodi:docname="applications-graphics.svg">
  <defs
     id="defs1105" />
  <sodipodi:namedview
     id="base"
     pagecolor="#ffffff"
     bordercolor="#666666"
     borderopacity="1.0"
     inkscape:pageopacity="0.0"
     inkscape:pageshadow="2"
     inkscape:zoom="5.625"
     inkscape:cx="41.963996"
     inkscape:cy="14.846009"
     inkscape:document-units="mm"
     inkscape:current-layer="layer1"
     showgrid="false"
     units="px"
     inkscape:window-width="1920"
     inkscape:window-height="1052"
     inkscape:window-x="1280"
     inkscape:window-y="0"
     inkscape:window-maximized="1" />
  <metadata
     id="metadata1108">
    <rdf:RDF>
      <cc:Work
         rdf:about="">
        <dc:format>image/svg+xml</dc:format>
        <dc:type
           rdf:resource="http://purl.org/dc/dcmitype/StillImage" />
        <dc:title></dc:title>
      </cc:Work>
    </rdf:RDF>
  </metadata>
  <g
     inkscape:label="Layer 1"
     inkscape:groupmode="layer"
     id="layer1"
     transform="translate(0,-284.29998)">
    <g
       id="g892"
       transform="matrix(0.42568122,0,0,0.42568122,24.257584,156.49928)">
      <g
         transform="translate(-25.929167,4.2333333)"
         id="g843">
        <g
           id="g833">
          <g
             transform="translate(-9.061979,-2.3151042)"
             id="g825">
            <path
               sodipodi:nodetypes="cccccccccccccccc"
               style="fill:#bfdeec;fill-opacity:1;stroke:none;stroke-width:0.26458332px;stroke-linecap:butt;stroke-linejoin:miter;stroke-opacity:1"
               d="m -6.1808822,304.68726 c -8.7286618,-0.10637 -15.8064038,8.85179 -14.6409668,14.53399 0.369578,2.13005 1.440823,2.28939 2.300118,1.726 1.624947,-0.8419 2.128436,-1.49078 3.392041,-2.33268 1.997377,-0.81821 1.776861,0.66649 1.716691,0.75603 -0.738154,1.39459 -1.956242,2.33376 -2.48977,3.49436 -0.78256,1.35264 1.159189,2.16731 2.020031,2.45411 20.1203932,1.91549 23.4165531,-15.02497 13.29117868,-19.28409 -1.89491008,-0.91337 -3.77771388,-1.32565 -5.58932288,-1.34772 z m -3.4220133,10.24485 c 0.1252719,0.003 0.2471344,0.0255 0.3622516,0.0661 0.7025849,0.24787 1.0068063,1.11126 0.6795452,1.92857 -0.3273136,0.81737 -1.1622815,1.27916 -1.8650023,1.03146 -0.70258,-0.24787 -1.0068,-1.11125 -0.679545,-1.92856 0.266182,-0.66482 0.880796,-1.11374 1.5027505,-1.09761 z"
               id="path816"
               inkscape:connector-curvature="0" />
            <path
               style="fill:#a2cfe3;fill-opacity:1;stroke:none;stroke-width:0.26458332px;stroke-linecap:butt;stroke-linejoin:miter;stroke-opacity:1"
               d="m -10.879453,317.66285 c -0.459116,-0.87107 -0.383647,-1.57827 -0.0083,-2.03812 0.477102,-0.71552 1.2789452,-0.57582 1.976107,-0.47129 -1.673097,-1.07838 -3.498105,0.92814 -1.967838,2.50941 z"
               id="path821"
               inkscape:connector-curvature="0"
               sodipodi:nodetypes="cccc" />
          </g>
          <path
             sodipodi:nodetypes="cccccsccc"
             inkscape:connector-curvature="0"
             id="path827"
             d="m -28.957411,318.75686 c 0.601189,0.2404 0.777282,0.10399 1.215015,-0.10648 1.445208,-0.79174 3.31643,-2.37666 3.952041,-2.5277 0.480093,-0.13115 1.056538,-0.12501 1.235184,0.22517 -0.326102,-0.18914 -0.873925,-0.0928 -1.191793,0.11087 -1.288861,0.74099 -2.297971,1.56832 -3.848003,2.50813 0,0 -0.05428,0.0273 -0.115904,0.0497 -0.17749,0.0611 -0.934369,0.0986 -1.24654,-0.2597 z"
             style="fill:#a2cfe3;fill-opacity:1;stroke:none;stroke-width:0.26458332px;stroke-linecap:butt;stroke-linejoin:miter;stroke-opacity:1" />
        </g>
        <path
           style="fill:#a2cfe3;fill-opacity:1;stroke:none;stroke-width:0.26458332px;stroke-linecap:butt;stroke-linejoin:miter;stroke-opacity:1"
           d="m -23.406592,322.84026 c 8.189973,0.72396 13.389757,-0.99842 16.94451,-4.89312 4.2922159,-7.38354 -0.070475,-11.5806 -1.0252604,-12.66693 l 0.2645833,-0.23151 c 2.5527314,1.78713 4.9237611,7.15472 1.3229167,12.83229 -5.3053806,6.83764 -16.7058166,5.36668 -17.5067496,4.95927 z"
           id="path835"
           inkscape:connector-curvature="0"
           sodipodi:nodetypes="cccccc" />
      </g>
      <g
         transform="translate(1.1041674,26.13487)"
         id="g862">
        <path
           style="fill:#dfbd92;fill-opacity:1;stroke:none;stroke-width:0.26458332px;stroke-linecap:butt;stroke-linejoin:miter;stroke-opacity:1"
           d="m -36.153773,280.65133 2.596224,0.99219 4.256267,-2.24506 c -0.325022,-1.67769 -3.647601,-4.67516 -7.413388,-3.48452 z"
           id="path857"
           inkscape:connector-curvature="0"
           sodipodi:nodetypes="ccccc" />
        <path
           style="fill:#bfbfbf;fill-opacity:1;stroke:none;stroke-width:0.26458332px;stroke-linecap:butt;stroke-linejoin:miter;stroke-opacity:1"
           d="m -38.624757,285.58272 2.596426,1.18022 c 0.851187,-1.44187 1.855688,-3.44146 2.470782,-5.11942 -0.655824,-0.54031 -1.375363,-1.01691 -2.596224,-0.99219 -0.816761,1.44176 -1.999462,3.36017 -2.470984,4.93139 z"
           id="path847"
           inkscape:connector-curvature="0"
           sodipodi:nodetypes="ccccc" />
        <path
           style="fill:#ec9f50;fill-opacity:1;stroke:none;stroke-width:0.26458332px;stroke-linecap:butt;stroke-linejoin:miter;stroke-opacity:1"
           d="m -44.423212,300.80321 c 1.605712,-4.46551 3.298587,-8.96589 5.060156,-13.49375 0.312953,-0.94747 0.355326,-1.83201 1.35066,-2.19686 0.975036,-0.29501 2.008883,0.36642 2.021117,1.0607 0.05874,0.75962 -0.204517,1.24268 -0.792089,2.35986 -2.110498,4.24539 -4.252775,8.48548 -6.548438,12.7 -0.551482,1.68881 -1.938562,1.47289 -1.091406,-0.42995 z"
           id="path845"
           inkscape:connector-curvature="0"
           sodipodi:nodetypes="ccccccc" />
      </g>
      <g
         transform="translate(-38.526477,56.430336)"
         id="g875">
        <path
           style="fill:#ee7a69;fill-opacity:1;stroke:none;stroke-width:0.26458332px;stroke-linecap:butt;stroke-linejoin:miter;stroke-opacity:1"
           d="m -13.670169,261.39366 c -0.07299,-0.2686 -0.103828,-0.53575 -0.485261,-0.40341 -0.20766,0.20516 -0.558984,0.0589 -0.876978,-0.34494 0.296464,-0.17142 0.27974,-0.29935 0.210475,-0.57296 -0.180313,-0.70383 0.09034,-1.48303 0.92375,-1.64287 -0.08507,-0.25449 1.433783,-1.00608 2.227525,-0.10524 0.987759,0.50894 1.606326,1.78793 0.239707,2.72448 -0.298136,1.26551 -1.666959,1.57966 -2.239218,0.34494 z"
           id="path864"
           inkscape:connector-curvature="0"
           sodipodi:nodetypes="cccccccc" />
        <path
           style="fill:#9bd77f;fill-opacity:1;stroke:none;stroke-width:0.26458332px;stroke-linecap:butt;stroke-linejoin:miter;stroke-opacity:1"
           d="m -10.481277,256.28923 c -0.692885,2.55503 4.1962956,2.36794 3.5718746,0.0165 -0.102546,-0.23372 -0.253009,-0.47942 -0.01654,-0.62839 0.8999722,-1.37794 -0.438918,-2.88482 -1.3942,-1.76238 -0.209461,0.47766 -0.364177,0.2196 -0.573638,0.20795 -1.5811166,-0.17895 -2.9276786,0.79748 -1.7363276,1.7198 0.413126,0.20943 0.243962,0.3218 0.148827,0.44652 z"
           id="path868"
           inkscape:connector-curvature="0"
           sodipodi:nodetypes="ccccccc" />
        <path
           style="fill:#fcd87c;fill-opacity:1;stroke:none;stroke-width:0.26458332px;stroke-linecap:butt;stroke-linejoin:miter;stroke-opacity:1"
           d="m -4.3848908,255.24413 c 0.3077353,0.25117 0.5707515,0.33988 0.818513,0.43849 2.0735232,1.17852 3.00084675,-0.77978 2.89987445,-0.99975 -0.26481658,-0.58629 -0.23446245,-0.85986 -0.046772,-1.18685 0.5620751,-1.4959 -0.35598915,-1.82774 -0.93544335,-1.7598 -0.5115587,0.15956 -0.79608,0.033 -1.043604,-0.11113 -0.8824018,-0.76736 -1.1336475,-0.27766 -1.3651627,-0.12277 -0.3394008,0.20224 -0.7538925,0.47791 -0.888671,1.01729 -0.9907001,1.11032 -0.1756324,2.50748 0.5612656,2.72452 z"
           id="path870"
           inkscape:connector-curvature="0"
           sodipodi:nodetypes="ccccccccc" />
      </g>
    </g>
  </g>
</svg>
