<?xml version="1.0" encoding="UTF-8" standalone="no"?>
<!-- Created with Inkscape (http://www.inkscape.org/) -->

<svg
   xmlns:dc="http://purl.org/dc/elements/1.1/"
   xmlns:cc="http://creativecommons.org/ns#"
   xmlns:rdf="http://www.w3.org/1999/02/22-rdf-syntax-ns#"
   xmlns:svg="http://www.w3.org/2000/svg"
   xmlns="http://www.w3.org/2000/svg"
   xmlns:sodipodi="http://sodipodi.sourceforge.net/DTD/sodipodi-0.dtd"
   xmlns:inkscape="http://www.inkscape.org/namespaces/inkscape"
   width="48px"
   height="48px"
   id="svg7207"
   sodipodi:version="0.32"
   inkscape:version="0.92.4 (5da689c313, 2019-01-14)"
   sodipodi:docname="applications-accessories.svg"
   inkscape:output_extension="org.inkscape.output.svg.inkscape"
   version="1.1">
  <defs
     id="defs7209">
    <linearGradient
       id="linearGradient22140">
      <stop
         style="stop-color:black;stop-opacity:0;"
         offset="0"
         id="stop22142" />
      <stop
         id="stop22148"
         offset="0.5"
         style="stop-color:black;stop-opacity:1;" />
      <stop
         style="stop-color:black;stop-opacity:0;"
         offset="1"
         id="stop22144" />
    </linearGradient>
    <filter
       style="color-interpolation-filters:sRGB"
       id="a">
      <feFlood
         flood-color="#000"
         flood-opacity=".196"
         result="flood"
         id="feFlood2" />
      <feComposite
         in="flood"
         in2="SourceGraphic"
         operator="in"
         result="composite1"
         id="feComposite4" />
      <feGaussianBlur
         in="composite1"
         result="blur"
         stdDeviation="1.5"
         id="feGaussianBlur6" />
      <feOffset
         dx="0"
         dy="1.5"
         result="offset"
         id="feOffset8" />
      <feComposite
         in="SourceGraphic"
         in2="offset"
         result="composite2"
         id="feComposite10" />
    </filter>
  </defs>
  <sodipodi:namedview
     id="base"
     pagecolor="#ffffff"
     bordercolor="#666666"
     borderopacity="1.0"
     inkscape:pageopacity="0.0"
     inkscape:pageshadow="2"
     inkscape:zoom="7"
     inkscape:cx="16.5"
     inkscape:cy="24"
     inkscape:current-layer="layer1"
     showgrid="true"
     inkscape:grid-bbox="true"
     inkscape:document-units="px"
     inkscape:window-width="1280"
     inkscape:window-height="954"
     inkscape:window-x="0"
     inkscape:window-y="0"
     inkscape:window-maximized="1" />
  <metadata
     id="metadata7212">
    <rdf:RDF>
      <cc:Work
         rdf:about="">
        <dc:format>image/svg+xml</dc:format>
        <dc:type
           rdf:resource="http://purl.org/dc/dcmitype/StillImage" />
        <dc:title></dc:title>
      </cc:Work>
    </rdf:RDF>
  </metadata>
  <g
     id="layer1"
     inkscape:label="Layer 1"
     inkscape:groupmode="layer">
    <path
       id="path15"
       d="m 4,6 v 44 c 0,4 4,4 4,4 H 60 Z M 14,27.742 32.965,44 H 14 Z"
       inkscape:connector-curvature="0"
       style="opacity:0.2;filter:url(#a)"
       transform="matrix(0.76444978,0,0,0.76444978,0.05168868,-0.7563956)" />
    <path
       id="path17"
       d="m 4,5 v 44 c 0,4 4,4 4,4 H 60 Z M 14,26.742 32.965,43 H 14 Z"
       inkscape:connector-curvature="0"
       style="fill:#63a1d3;fill-opacity:0.99215686;filter:url(#a)"
       transform="matrix(0.76444978,0,0,0.76444978,0.05168868,-0.7563956)" />
    <path
       id="path19"
       d="M 4,5 V 6 L 58.834,53 H 60 Z m 10,38 v 1 h 18.965 l -1.166,-1 z"
       inkscape:connector-curvature="0"
       style="opacity:0.2;fill:#ffffff;filter:url(#a)"
       transform="matrix(0.76444978,0,0,0.76444978,0.05168868,-0.7563956)" />
    <path
       id="path21"
       d="m 28.111,26 a 3,3 0 0 1 2.514,1.541 l 15,27 L 46,62 40.375,57.459 28,35.182 v -9.17 c 0.038,0 0.073,-0.012 0.111,-0.012 z"
       inkscape:connector-curvature="0"
       style="opacity:0.2;fill-rule:evenodd;filter:url(#a)"
       transform="matrix(0.76444978,0,0,0.76444978,0.05168868,-0.7563956)" />
    <path
       id="path23"
       d="m 28.111,24 a 3,3 0 0 1 2.514,1.541 l 15,27 L 46,60 40.375,55.459 28,33.182 v -9.17 c 0.038,0 0.073,-0.012 0.111,-0.012 z"
       inkscape:connector-curvature="0"
       style="fill:#a2a2a2;fill-rule:evenodd;filter:url(#a)"
       transform="matrix(0.76444978,0,0,0.76444978,0.05168868,-0.7563956)" />
    <path
       id="path25"
       d="m 27.889,25 a 3,3 0 0 0 -2.514,1.541 l -15,27 L 10,61 l 5.625,-4.541 2.11,-3.791 A 24,24 0 0 0 28,55 24,24 0 0 0 52,31 H 46 A 18,18 0 0 1 28,49 18,18 0 0 1 20.658,47.4 L 28,34.181 v -9.17 C 27.962,25.011 27.927,25 27.888,25 Z"
       inkscape:connector-curvature="0"
       style="opacity:0.2;filter:url(#a)"
       transform="matrix(0.76444978,0,0,0.76444978,0.05168868,-0.7563956)" />
    <path
       id="path27"
       d="m 27.889,24 a 3,3 0 0 0 -2.514,1.541 l -15,27 L 10,60 l 5.625,-4.541 2.11,-3.791 A 24,24 0 0 0 28,54 24,24 0 0 0 52,30 H 46 A 18,18 0 0 1 28,48 18,18 0 0 1 20.658,46.4 L 28,33.181 v -9.17 C 27.962,24.011 27.927,24 27.888,24 Z"
       inkscape:connector-curvature="0"
       style="fill:#e4e4e4;filter:url(#a)"
       transform="matrix(0.76444978,0,0,0.76444978,0.05168868,-0.7563956)" />
    <path
       id="path29"
       d="m 24,13 v 6 h -2 c -4,0 -4,4 -4,4 v 10 l 7,7 c 1.798,1.4 4.784,1.512 6.33,-0.33 L 38,33 V 23 c 0,0 0,-4 -4,-4 h -2 v -6 z"
       inkscape:connector-curvature="0"
       style="opacity:0.2;filter:url(#a)"
       transform="matrix(0.76444978,0,0,0.76444978,0.05168868,-0.7563956)" />
    <path
       id="path31"
       d="m 27.889,24 a 3,3 0 0 0 -2.514,1.541 l -15,27 L 10,60 l 0.053,-0.043 0.322,-6.416 15,-27 A 3,3 0 0 1 27.89,25 c 0.038,0 0.073,0.012 0.111,0.012 v -1 C 27.963,24.012 27.928,24 27.89,24 Z M 46,30 A 18,18 0 0 1 28,48 18,18 0 0 1 21.107,46.59 L 20.658,47.4 A 18,18 0 0 0 28,49 18,18 0 0 0 46,31 h 5.965 A 24,24 0 0 0 52,30 Z"
       inkscape:connector-curvature="0"
       style="opacity:0.2;fill:#ffffff;filter:url(#a)"
       transform="matrix(0.76444978,0,0,0.76444978,0.05168868,-0.7563956)" />
    <path
       id="path33"
       d="m 24,12 v 6 h -2 c -4,0 -4,4 -4,4 v 10 l 7,7 c 1.798,1.4 4.784,1.512 6.33,-0.33 L 38,32 V 22 c 0,0 0,-4 -4,-4 h -2 v -6 z"
       inkscape:connector-curvature="0"
       style="fill:#4f4f4f;filter:url(#a)"
       transform="matrix(0.76444978,0,0,0.76444978,0.05168868,-0.7563956)" />
    <circle
       id="circle35"
       r="4"
       cy="27"
       cx="28"
       style="opacity:0.2;filter:url(#a)"
       transform="matrix(0.76444978,0,0,0.76444978,0.05168868,-0.7563956)" />
    <circle
       id="circle37"
       r="4"
       cy="26"
       cx="28"
       style="fill:#ffffff;filter:url(#a)"
       transform="matrix(0.76444978,0,0,0.76444978,0.05168868,-0.7563956)" />
    <path
       id="path39"
       d="m 24,12 v 1 h 8 v -1 z m -2,6 c -4,0 -4,4 -4,4 v 1 c 0,0 0,-4 4,-4 h 2 v -1 z m 10,0 v 1 h 2 c 4,0 4,4 4,4 v -1 c 0,0 0,-4 -4,-4 z"
       inkscape:connector-curvature="0"
       style="opacity:0.1;fill:#ffffff;filter:url(#a)"
       transform="matrix(0.76444978,0,0,0.76444978,0.05168868,-0.7563956)" />
  </g>
</svg>
