<?xml version="1.0" encoding="UTF-8" standalone="no"?>
<!-- Created with Inkscape (http://www.inkscape.org/) -->

<svg
   xmlns:dc="http://purl.org/dc/elements/1.1/"
   xmlns:cc="http://creativecommons.org/ns#"
   xmlns:rdf="http://www.w3.org/1999/02/22-rdf-syntax-ns#"
   xmlns:svg="http://www.w3.org/2000/svg"
   xmlns="http://www.w3.org/2000/svg"
   xmlns:xlink="http://www.w3.org/1999/xlink"
   xmlns:sodipodi="http://sodipodi.sourceforge.net/DTD/sodipodi-0.dtd"
   xmlns:inkscape="http://www.inkscape.org/namespaces/inkscape"
   width="48px"
   height="48px"
   id="svg8388"
   sodipodi:version="0.32"
   inkscape:version="0.92.4 (5da689c313, 2019-01-14)"
   sodipodi:docname="bluetooth-inactive.svg"
   inkscape:output_extension="org.inkscape.output.svg.inkscape"
   version="1.1">
  <defs
     id="defs8390">
    <linearGradient
       id="linearGradient4434">
      <stop
         id="stop4436"
         offset="0"
         style="stop-color:#d3d7cf;stop-opacity:1;" />
      <stop
         style="stop-color:#babdb6;stop-opacity:1"
         offset="0.18303643"
         id="stop4438" />
      <stop
         id="stop4440"
         offset="0.31893486"
         style="stop-color:#ffffff;stop-opacity:1" />
      <stop
         style="stop-color:#babdb6;stop-opacity:1"
         offset="0.87643671"
         id="stop4442" />
      <stop
         id="stop4444"
         offset="1"
         style="stop-color:#eeeeec;stop-opacity:1" />
    </linearGradient>
    <filter
       style="color-interpolation-filters:sRGB"
       id="g"
       x="-0.035999998"
       y="-0.035999998"
       width="1.072"
       height="1.072">
      <feGaussianBlur
         stdDeviation="14.16"
         id="feGaussianBlur2" />
    </filter>
    <linearGradient
       id="b"
       x1="520"
       x2="520.03003"
       y1="44"
       y2="985.84998"
       gradientTransform="matrix(0.06356,0,0,0.06356,9.314422,-2.1141495)"
       gradientUnits="userSpaceOnUse">
      <stop
         stop-color="#15c4fc"
         offset="0"
         id="stop5" />
      <stop
         stop-color="#1863ee"
         offset="1"
         id="stop7" />
    </linearGradient>
    <filter
       style="color-interpolation-filters:sRGB"
       id="c"
       x="-0.079659998"
       y="-0.048122998"
       width="1.1593"
       height="1.0962">
      <feGaussianBlur
         stdDeviation="0.79660366"
         id="feGaussianBlur15" />
    </filter>
    <linearGradient
       gradientTransform="translate(9.856792,-1.5717795)"
       id="a"
       x1="29.565001"
       x2="29.728001"
       y1="11.048"
       y2="53.558998"
       gradientUnits="userSpaceOnUse">
      <stop
         stop-color="#fff"
         offset="0"
         id="stop10" />
      <stop
         stop-color="#dbf6f8"
         offset="1"
         id="stop12" />
    </linearGradient>
    <linearGradient
       id="b-3"
       x1="520"
       x2="520.03003"
       y1="44"
       y2="985.84998"
       gradientTransform="matrix(0.06356,0,0,0.06356,25.600887,-27.542545)"
       gradientUnits="userSpaceOnUse">
      <stop
         stop-color="#212427"
         offset="0"
         id="stop4" />
      <stop
         stop-color="#333132"
         offset="1"
         id="stop6" />
    </linearGradient>
    <filter
       style="color-interpolation-filters:sRGB"
       id="c-6"
       x="-0.079659998"
       y="-0.048122998"
       width="1.1593"
       height="1.0962">
      <feGaussianBlur
         stdDeviation="0.79660366"
         id="feGaussianBlur14" />
    </filter>
    <linearGradient
       gradientTransform="translate(26.143057,-27.000085)"
       id="a-7"
       x1="29.565001"
       x2="29.728001"
       y1="11.048"
       y2="53.558998"
       gradientUnits="userSpaceOnUse">
      <stop
         stop-color="#e7e7e7"
         offset="0"
         id="stop9" />
      <stop
         stop-color="#fff"
         offset="1"
         id="stop11" />
    </linearGradient>
    <linearGradient
       inkscape:collect="always"
       xlink:href="#linearGradient3884"
       id="linearGradient3886"
       x1="33.800163"
       y1="43.067303"
       x2="6.145946"
       y2="-0.20070736"
       gradientUnits="userSpaceOnUse"
       gradientTransform="matrix(1.0268788,0,0,1.0268788,-39.002419,3.6814196)" />
    <linearGradient
       inkscape:collect="always"
       id="linearGradient3884">
      <stop
         style="stop-color:#252525;stop-opacity:1"
         offset="0"
         id="stop3880" />
      <stop
         style="stop-color:#4d4d4d;stop-opacity:1"
         offset="1"
         id="stop3882" />
    </linearGradient>
    <filter
       style="color-interpolation-filters:sRGB"
       id="c-3"
       x="-0.079659998"
       y="-0.048122998"
       width="1.1593"
       height="1.0962">
      <feGaussianBlur
         stdDeviation="0.79660366"
         id="feGaussianBlur15-5" />
    </filter>
    <linearGradient
       gradientTransform="matrix(0.70016312,0,0,0.70016312,1.5945344,1.5945345)"
       id="a-6"
       x1="29.565001"
       x2="29.728001"
       y1="11.048"
       y2="53.558998"
       gradientUnits="userSpaceOnUse">
      <stop
         stop-color="#fff"
         offset="0"
         id="stop10-2" />
      <stop
         stop-color="#dbf6f8"
         offset="1"
         id="stop12-9" />
    </linearGradient>
  </defs>
  <sodipodi:namedview
     id="base"
     pagecolor="#ffffff"
     bordercolor="#666666"
     borderopacity="1.0"
     inkscape:pageopacity="0.0"
     inkscape:pageshadow="2"
     inkscape:zoom="7"
     inkscape:cx="19"
     inkscape:cy="1.1428571"
     inkscape:current-layer="layer1"
     showgrid="true"
     inkscape:grid-bbox="true"
     inkscape:document-units="px"
     inkscape:window-width="1280"
     inkscape:window-height="954"
     inkscape:window-x="0"
     inkscape:window-y="0"
     inkscape:window-maximized="1" />
  <metadata
     id="metadata8393">
    <rdf:RDF>
      <cc:Work
         rdf:about="">
        <dc:format>image/svg+xml</dc:format>
        <dc:type
           rdf:resource="http://purl.org/dc/dcmitype/StillImage" />
        <dc:title />
      </cc:Work>
    </rdf:RDF>
  </metadata>
  <g
     id="layer1"
     inkscape:label="Layer 1"
     inkscape:groupmode="layer">
    <g
       id="g3983"
       transform="matrix(0.96008682,0,0,0.96008682,37.310918,-3.5024254)">
      <circle
         r="22.873732"
         cy="28.645769"
         cx="-13.864285"
         id="path3870"
         style="opacity:1;fill:url(#linearGradient3886);fill-opacity:1;stroke:#333233;stroke-width:1.02687883;stroke-linecap:round;stroke-linejoin:round;stroke-miterlimit:4;stroke-dasharray:none;stroke-opacity:1" />
      <g
         style="fill:#ffffff"
         transform="matrix(1.0203455,0,0,1.0203455,-37.765621,3.9182286)"
         id="g3878" />
      <g
         id="g3887"
         transform="matrix(1.1153308,0,0,1.1153308,-40.631931,1.8788755)">
        <path
           inkscape:connector-curvature="0"
           style="opacity:0.15;stroke-width:0.12778001;filter:url(#c-3)"
           d="m 40.531792,10.576221 c -0.34202,-0.03921 -0.6934,0.01697 -1.0162,0.17186 -0.64542,0.30976 -1.056,0.96273 -1.056,1.6787 v 13.37 l -5.5716,-4.5031 c -0.79941,-0.64624 -1.9713,-0.52327 -2.6177,0.27646 -0.6464,0.79957 -0.52062,1.9738 0.27896,2.6202 l 7.7211,6.2416 -7.7211,6.2416 c -0.79957,0.6464 -0.92536,1.8181 -0.27896,2.6177 0.36793,0.45511 0.9068,0.68992 1.4496,0.68992 0.41111,0 0.82366,-0.13498 1.1681,-0.41345 l 5.5716,-4.5031 v 13.367 c 0,0.71598 0.41062,1.369 1.056,1.6787 0.25631,0.12286 0.53074,0.18182 0.80449,0.18182 0.41567,0 0.82883,-0.13847 1.1656,-0.40847 l 11.674,-9.3599 c 0.44077,-0.35343 0.69739,-0.88713 0.69739,-1.4521 0,-0.56493 -0.25662,-1.0988 -0.69739,-1.4521 l -8.9689,-7.1906 8.9689,-7.1906 c 0.44077,-0.35343 0.69739,-0.88729 0.69739,-1.4521 0,-0.56477 -0.25662,-1.1013 -0.69739,-1.4546 l -11.674,-9.3574 c -0.27929,-0.22389 -0.6119,-0.3593 -0.95393,-0.39851 z m 1.6488,5.7285 6.8394,5.482 -6.8394,5.4795 z m 0,17.285 6.8394,5.482 -6.8394,5.4795 z"
           id="path24-2"
           transform="matrix(0.70016312,0,0,0.70016312,-5.3068278,2.6950365)" />
        <path
           inkscape:connector-curvature="0"
           style="fill:url(#a-6);stroke-width:0.08946685"
           d="m 23.072038,10.100116 c -0.23947,-0.02745 -0.485493,0.01188 -0.711506,0.12033 -0.451899,0.216883 -0.739372,0.674068 -0.739372,1.175364 v 9.361181 l -3.901029,-3.152904 c -0.559717,-0.452474 -1.380231,-0.366375 -1.832817,0.193567 -0.452585,0.559829 -0.364519,1.381982 0.195318,1.834567 l 5.406029,4.370138 -5.406029,4.370138 c -0.55983,0.452586 -0.647903,1.272967 -0.195318,1.832817 0.257611,0.318652 0.634908,0.483057 1.014957,0.483057 0.287844,0 0.576696,-0.09451 0.81786,-0.289483 l 3.901029,-3.152904 v 9.35908 c 0,0.501303 0.287501,0.958524 0.739372,1.175364 0.179459,0.08602 0.371605,0.127304 0.563275,0.127304 0.291036,0 0.580316,-0.09695 0.81611,-0.285996 l 8.173704,-6.553457 c 0.308611,-0.247458 0.488287,-0.621135 0.488287,-1.016706 0,-0.395544 -0.179676,-0.76934 -0.488287,-1.016707 l -6.279693,-5.034593 6.279693,-5.034593 c 0.308611,-0.247459 0.488287,-0.621248 0.488287,-1.016707 0,-0.395431 -0.179676,-0.77109 -0.488287,-1.018457 L 23.739917,10.378809 C 23.544368,10.22205 23.311487,10.127241 23.07201,10.099787 Z m 1.154429,4.010885 4.788696,3.838294 -4.788696,3.836544 z m 0,12.102319 4.788696,3.838295 -4.788696,3.836543 z"
           id="path26-7" />
      </g>
    </g>
  </g>
</svg>
