<?xml version="1.0" encoding="UTF-8" standalone="no"?>
<svg
   xmlns:dc="http://purl.org/dc/elements/1.1/"
   xmlns:cc="http://creativecommons.org/ns#"
   xmlns:rdf="http://www.w3.org/1999/02/22-rdf-syntax-ns#"
   xmlns:svg="http://www.w3.org/2000/svg"
   xmlns="http://www.w3.org/2000/svg"
   xmlns:sodipodi="http://sodipodi.sourceforge.net/DTD/sodipodi-0.dtd"
   xmlns:inkscape="http://www.inkscape.org/namespaces/inkscape"
   width="48"
   height="48"
   version="1"
   id="svg54"
   sodipodi:docname="cs-cat-hardware.svg"
   inkscape:version="0.92.4 (5da689c313, 2019-01-14)">
  <metadata
     id="metadata60">
    <rdf:RDF>
      <cc:Work
         rdf:about="">
        <dc:format>image/svg+xml</dc:format>
        <dc:type
           rdf:resource="http://purl.org/dc/dcmitype/StillImage" />
        <dc:title></dc:title>
      </cc:Work>
    </rdf:RDF>
  </metadata>
  <defs
     id="defs58" />
  <sodipodi:namedview
     pagecolor="#ffffff"
     bordercolor="#666666"
     borderopacity="1"
     objecttolerance="10"
     gridtolerance="10"
     guidetolerance="10"
     inkscape:pageopacity="0"
     inkscape:pageshadow="2"
     inkscape:window-width="1280"
     inkscape:window-height="954"
     id="namedview56"
     showgrid="false"
     inkscape:zoom="10.429825"
     inkscape:cx="33.417759"
     inkscape:cy="24.399599"
     inkscape:window-x="0"
     inkscape:window-y="0"
     inkscape:window-maximized="1"
     inkscape:current-layer="svg54" />
  <g
     id="g3926"
     transform="matrix(0.81429257,0,0,0.81429257,-2.0511597,11.355455)">
    <path
       inkscape:connector-curvature="0"
       id="path2"
       d="M 14.667,-0.999 C 13.189,-0.999 12,0.236 12,1.77 V 32.23 C 12,33.764 13.189,35 14.667,35 H 20 v -6 h 12 v 6 H 57.334 C 58.81,35 60,33.764 60,32.23 V 1.77 C 60,0.235 58.81,-1 57.334,-1 Z"
       style="opacity:0.2" />
    <path
       inkscape:connector-curvature="0"
       id="path4"
       d="M 14.667,-1.999 C 13.189,-1.999 12,-0.764 12,0.77 V 31.23 C 12,32.764 13.189,34 14.667,34 H 20 v -6 h 12 v 6 H 57.334 C 58.81,34 60,32.764 60,31.23 V 0.77 C 60,-0.765 58.81,-2 57.334,-2 Z"
       style="fill:#419d45" />
    <rect
       id="rect6"
       ry="2.4000001"
       rx="2.4000001"
       y="8"
       x="30"
       height="12"
       width="12"
       style="fill:#4e4e4e" />
    <path
       inkscape:connector-curvature="0"
       id="path8"
       d="M 6.0233,-4.976 H 10.005 V 37.005"
       style="opacity:0.2;fill:none;stroke:#000000;stroke-width:4;stroke-linecap:round;stroke-linejoin:round" />
    <path
       inkscape:connector-curvature="0"
       id="path10"
       d="M 6.0233,-5.976 H 10.005 V 36.005"
       style="fill:none;stroke:#b7b7b7;stroke-width:4;stroke-linecap:round;stroke-linejoin:round" />
    <g
       id="g20"
       transform="translate(0,-15)"
       style="opacity:0.2">
      <rect
         id="rect12"
         y="44"
         x="34"
         height="8"
         width="4" />
      <rect
         id="rect14"
         y="44"
         x="40"
         height="8"
         width="4" />
      <rect
         id="rect16"
         y="44"
         x="46"
         height="8"
         width="4" />
      <rect
         id="rect18"
         y="44"
         x="52"
         height="8"
         width="4" />
    </g>
    <g
       transform="translate(0,-16)"
       id="g30">
      <rect
         id="rect22"
         y="44"
         x="34"
         height="8"
         width="4"
         style="fill:#f8c44e" />
      <rect
         id="rect24"
         y="44"
         x="40"
         height="8"
         width="4"
         style="fill:#f8c44e" />
      <rect
         id="rect26"
         y="44"
         x="46"
         height="8"
         width="4"
         style="fill:#f8c44e" />
      <rect
         id="rect28"
         y="44"
         x="52"
         height="8"
         width="4"
         style="fill:#f8c44e" />
    </g>
    <g
       transform="translate(0,-16)"
       id="g48">
      <rect
         id="rect32"
         y="21"
         x="32"
         height="4"
         width="2"
         style="fill:#b7b7b7" />
      <rect
         id="rect34"
         y="21"
         x="38"
         height="4"
         width="2"
         style="fill:#b7b7b7" />
      <rect
         id="rect36"
         y="35"
         x="32"
         height="4"
         width="2"
         style="fill:#b7b7b7" />
      <rect
         id="rect38"
         y="35"
         x="38"
         height="4"
         width="2"
         style="fill:#b7b7b7" />
      <rect
         id="rect40"
         transform="rotate(90)"
         y="-45"
         x="26"
         height="4"
         width="2"
         style="fill:#b7b7b7" />
      <rect
         id="rect42"
         transform="rotate(90)"
         y="-45"
         x="32"
         height="4"
         width="2"
         style="fill:#b7b7b7" />
      <rect
         id="rect44"
         transform="rotate(90)"
         y="-31"
         x="26"
         height="4"
         width="2"
         style="fill:#b7b7b7" />
      <rect
         id="rect46"
         transform="rotate(90)"
         y="-31"
         x="32"
         height="4"
         width="2"
         style="fill:#b7b7b7" />
    </g>
    <path
       inkscape:connector-curvature="0"
       id="path50"
       d="M 6.0234,-7.9766 A 2.0002,2.0002 0 0 0 4.0449,-5.49 2.0002,2.0002 0 0 1 6.0234,-6.9766 h 3.9826 a 2.0002,2.0002 0 0 1 2,1.9996 v -1 a 2.0002,2.0002 0 0 0 -2,-1.9996 z"
       style="opacity:0.2;fill:#ffffff" />
    <path
       inkscape:connector-curvature="0"
       id="path52"
       d="M 57.334,-2 14.668,-1.998 C 13.19,-1.998 12,-0.764 12,0.77 v 1 c 0,-1.534 1.19,-2.768 2.668,-2.768 L 57.334,-1 C 58.81,-1 60,0.235 60,1.77 v -1 C 60,-0.765 58.81,-2 57.334,-2 Z"
       style="opacity:0.2;fill:#ffffff" />
  </g>
</svg>
