<?xml version="1.0" encoding="UTF-8" standalone="no"?>
<svg
   xmlns:dc="http://purl.org/dc/elements/1.1/"
   xmlns:cc="http://creativecommons.org/ns#"
   xmlns:rdf="http://www.w3.org/1999/02/22-rdf-syntax-ns#"
   xmlns:svg="http://www.w3.org/2000/svg"
   xmlns="http://www.w3.org/2000/svg"
   xmlns:sodipodi="http://sodipodi.sourceforge.net/DTD/sodipodi-0.dtd"
   xmlns:inkscape="http://www.inkscape.org/namespaces/inkscape"
   viewBox="0 0 24000 24000"
   id="svg2"
   version="1.1"
   inkscape:version="0.92.4 (5da689c313, 2019-01-14)"
   width="48"
   height="48"
   sodipodi:docname="cs-extensions.svg">
  <metadata
     id="metadata69">
    <rdf:RDF>
      <cc:Work
         rdf:about="">
        <dc:format>image/svg+xml</dc:format>
        <dc:type
           rdf:resource="http://purl.org/dc/dcmitype/StillImage" />
        <dc:title></dc:title>
      </cc:Work>
    </rdf:RDF>
  </metadata>
  <sodipodi:namedview
     pagecolor="#ffffff"
     bordercolor="#666666"
     borderopacity="1"
     objecttolerance="10"
     gridtolerance="10"
     guidetolerance="10"
     inkscape:pageopacity="0"
     inkscape:pageshadow="2"
     inkscape:window-width="1280"
     inkscape:window-height="954"
     id="namedview67"
     showgrid="false"
     inkscape:zoom="7.7708333"
     inkscape:cx="35.294949"
     inkscape:cy="12.68512"
     inkscape:window-x="0"
     inkscape:window-y="0"
     inkscape:window-maximized="1"
     inkscape:current-layer="svg2"
     units="px" />
  <defs
     id="defs4">
    <linearGradient
       id="linearGradient3764"
       x1="1"
       x2="47"
       gradientUnits="userSpaceOnUse"
       gradientTransform="rotate(-90,23.999998,24)">
      <stop
         stop-color="#3d3d3d"
         stop-opacity="1"
         id="stop7" />
      <stop
         offset="1"
         stop-color="#474747"
         stop-opacity="1"
         id="stop9" />
    </linearGradient>
    <clipPath
       id="clipPath-173742668">
      <g
         transform="translate(0,-1004.3622)"
         id="g12">
        <path
           d="m -24,13 c 0,1.105 -0.672,2 -1.5,2 -0.828,0 -1.5,-0.895 -1.5,-2 0,-1.105 0.672,-2 1.5,-2 0.828,0 1.5,0.895 1.5,2 z"
           transform="matrix(15.333333,0,0,11.5,414.99999,878.8622)"
           id="path14"
           inkscape:connector-curvature="0"
           style="fill:#1890d0" />
      </g>
    </clipPath>
    <clipPath
       id="clipPath-179729665">
      <g
         transform="translate(0,-1004.3622)"
         id="g17">
        <path
           d="m -24,13 c 0,1.105 -0.672,2 -1.5,2 -0.828,0 -1.5,-0.895 -1.5,-2 0,-1.105 0.672,-2 1.5,-2 0.828,0 1.5,0.895 1.5,2 z"
           transform="matrix(15.333333,0,0,11.5,414.99999,878.8622)"
           id="path19"
           inkscape:connector-curvature="0"
           style="fill:#1890d0" />
      </g>
    </clipPath>
    <filter
       style="color-interpolation-filters:sRGB"
       id="a">
      <feFlood
         flood-color="#000"
         flood-opacity=".196"
         result="flood"
         id="feFlood2" />
      <feComposite
         in="flood"
         in2="SourceGraphic"
         operator="in"
         result="composite1"
         id="feComposite4" />
      <feGaussianBlur
         in="composite1"
         result="blur"
         stdDeviation="1.5"
         id="feGaussianBlur6" />
      <feOffset
         dx="0"
         dy="1.5"
         result="offset"
         id="feOffset8" />
      <feComposite
         in="SourceGraphic"
         in2="offset"
         result="composite2"
         id="feComposite10" />
    </filter>
  </defs>
  <g
     id="g33"
     transform="translate(0,23952)" />
  <g
     id="g4146"
     transform="matrix(50.980272,0,0,50.980272,-745.06815,-733.70267)">
    <path
       sodipodi:nodetypes="cczzzccczccczzzccczccczzzccccccczzzcccccc"
       inkscape:connector-curvature="0"
       id="path3057"
       d="m 25.986786,283.57315 h 32.56235 c 0,0 14.65951,-26.50428 47.363294,-25.65516 32.70377,0.84913 45.44575,27.05061 45.38984,49.33683 -0.0558,22.28622 -17.82158,46.94462 -47.36329,47.85672 -29.541724,0.91209 -43.416394,-25.65515 -43.416394,-25.65515 h -34.5358 l -0.493393,124.32878 c 0,0 0.843183,9.73213 3.453629,13.32094 2.610446,3.58882 10.854036,6.90716 10.854036,6.90716 H 170.54362 v -31.57556 c 0,0 -24.59202,-14.12263 -25.1617,-42.92305 -0.56981,-28.8004 25.2637,-47.64242 47.36329,-48.35007 22.09958,-0.70766 47.6984,17.34401 49.33686,47.36335 1.63845,30.01933 -26.14849,44.89651 -26.14849,44.89651 V 475 l 133.7028,-1.48009 c 0,0 7.04843,-3.63513 9.37398,-7.40053 2.32554,-3.76541 2.96023,-14.30768 2.96023,-14.30768 V 329.45639 l 22.69486,-0.49337 c 0,0 12.32815,26.75826 42.923,25.65515 30.59496,-1.10311 46.22659,-23.69581 47.36341,-46.37662 1.13681,-22.6808 -17.95123,-50.68209 -47.36341,-50.32355 -29.41219,0.35855 -42.923,26.14852 -42.923,26.14852 L 361.4772,283.57315 V 153.81731 l -5.92047,-10.85411 -9.86738,-4.93367 -129.26238,1.4801 0.49327,-23.18831 c 0,0 23.77783,-12.2663 25.16183,-41.442918 1.384,-29.17662 -25.72314,-50.467323 -48.35008,-50.32355 -22.62706,0.143761 -48.02406,17.086287 -48.35007,46.869969 -0.32614,29.783689 25.65509,45.389869 25.65509,45.389869 v 22.20158 H 43.254687 L 30.920472,143.94994 25,157.27088 Z"
       style="fill:#63a1d4;fill-opacity:0.99215686;stroke:none" />
    <path
       d="m 255.15488,193.62787 66.88564,66.22952 c 14.09764,13.95934 14.20383,36.69479 0.25033,50.78653 l -19.54659,19.74023 c -13.93599,14.07405 -36.67144,14.18024 -50.76318,0.22674 l -66.88564,-66.22953 c -14.09763,-13.95934 -14.20382,-36.69479 -0.27367,-50.76294 l 19.54658,-19.74023 c 13.95935,-14.09763 36.6948,-14.20383 50.78653,-0.25032 m 0,0"
       id="path57"
       inkscape:connector-curvature="0"
       style="fill:#f9f9f9;fill-opacity:1;fill-rule:nonzero;stroke:none" />
    <path
       d="m 253.56798,262.11938 c -22.57665,22.80031 -59.34056,22.98152 -82.14088,0.40486 -22.80031,-22.57665 -22.98152,-59.34056 -0.40486,-82.14088 22.57665,-22.80031 59.34056,-22.98152 82.14088,-0.40486 22.80031,22.57665 22.98152,59.34056 0.40486,82.14088 m 0,0"
       id="path59"
       inkscape:connector-curvature="0"
       style="fill:#394050;fill-opacity:1;fill-rule:nonzero;stroke:none" />
  </g>
</svg>
