<?xml version="1.0" encoding="UTF-8" standalone="no"?>
<!-- Created with Inkscape (http://www.inkscape.org/) -->

<svg
   xmlns:dc="http://purl.org/dc/elements/1.1/"
   xmlns:cc="http://creativecommons.org/ns#"
   xmlns:rdf="http://www.w3.org/1999/02/22-rdf-syntax-ns#"
   xmlns:svg="http://www.w3.org/2000/svg"
   xmlns="http://www.w3.org/2000/svg"
   xmlns:sodipodi="http://sodipodi.sourceforge.net/DTD/sodipodi-0.dtd"
   xmlns:inkscape="http://www.inkscape.org/namespaces/inkscape"
   id="svg2"
   version="1.1"
   inkscape:version="0.92.4 (5da689c313, 2019-01-14)"
   width="48"
   height="48"
   sodipodi:docname="cs-power.svg"
   viewBox="0 0 48 48">
  <metadata
     id="metadata8">
    <rdf:RDF>
      <cc:Work
         rdf:about="">
        <dc:format>image/svg+xml</dc:format>
        <dc:type
           rdf:resource="http://purl.org/dc/dcmitype/StillImage" />
        <dc:title />
      </cc:Work>
    </rdf:RDF>
  </metadata>
  <defs
     id="defs6" />
  <sodipodi:namedview
     pagecolor="#ffffff"
     bordercolor="#666666"
     borderopacity="1"
     objecttolerance="10"
     gridtolerance="10"
     guidetolerance="10"
     inkscape:pageopacity="0"
     inkscape:pageshadow="2"
     inkscape:window-width="1280"
     inkscape:window-height="954"
     id="namedview4"
     showgrid="false"
     inkscape:zoom="10.429825"
     inkscape:cx="38.996369"
     inkscape:cy="22.806536"
     inkscape:window-x="0"
     inkscape:window-y="0"
     inkscape:window-maximized="1"
     inkscape:current-layer="svg2"
     showguides="true"
     inkscape:guide-bbox="true"
     inkscape:document-units="px" />
  <path
     style="fill:#63a1d4;fill-opacity:0.99215686;fill-rule:evenodd;stroke:none;stroke-width:0.103852"
     d="m 12.03661,0.6333 c -1.18046,0 -2.13107,0.95007 -2.13107,2.13052 V 5.56358 H 6.85905 c -1.59092,0 -2.87181,1.28089 -2.87181,2.87181 v 36.0595 c 0,1.59092 1.28089,2.87181 2.87181,2.87181 h 18.26638 c 1.59092,0 2.87181,-1.28089 2.87181,-2.87181 V 8.43539 c 0,-1.59092 -1.28089,-2.87181 -2.87181,-2.87181 H 22.12479 V 2.76382 c 0,-1.18045 -0.95006,-2.13052 -2.13052,-2.13052 z M 9.09329,24.91842 h 13.7979 c 0.57217,0 1.03278,0.46062 1.03278,1.03279 v 10.6275 1.77298 4.65844 c 0,0.29677 -0.23873,0.5355 -0.53549,0.5355 H 8.596 c -0.29677,0 -0.53549,-0.23873 -0.53549,-0.5355 v -4.65844 -1.77298 -10.6275 c 0,-0.57217 0.46061,-1.03279 1.03278,-1.03279 z"
     id="rect3009-3"
     inkscape:connector-curvature="0" />
  <rect
     ry="1.6172544"
     y="8.2056866"
     x="7.1227741"
     height="8.0312128"
     width="17.535303"
     id="rect3751-6-7-5-6-7"
     style="fill:#3f3f3f;fill-opacity:1;stroke:none;stroke-width:0.10225427" />
  <rect
     style="fill:#419d45;fill-opacity:1;stroke:none;stroke-width:0.103852"
     id="rect3751-6"
     width="17.525963"
     height="20.306524"
     x="7.1567707"
     y="24.105955" />
  <rect
     style="fill:#3f3f3f;fill-opacity:1;stroke:none;stroke-width:0.08747867"
     id="rect3751-5"
     width="17.525963"
     height="14.408219"
     x="7.133028"
     y="11.521208" />
  <g
     transform="matrix(0.47457702,0,0,0.47457702,15.13215,17.40221)"
     id="surface1">
    <path
       inkscape:connector-curvature="0"
       style="fill:#ffa623;fill-opacity:1;fill-rule:nonzero;stroke:none"
       d="m 31.75,3.144531 c 16.074219,0 29.105469,13.03125 29.105469,29.105469 0,16.074219 -13.03125,29.105469 -29.105469,29.105469 C 15.675781,61.355469 2.644531,48.324219 2.644531,32.25 2.644531,16.175781 15.675781,3.144531 31.75,3.144531 Z m 0,0"
       id="path2" />
    <path
       inkscape:connector-curvature="0"
       style="fill:#3f3f3f;fill-opacity:1;fill-rule:nonzero;stroke:none"
       d="m 21.167969,32.25 21.164062,-18.519531 -7.9375,15.875 7.9375,2.644531 -21.164062,18.519531 7.9375,-15.875 z m 0,0"
       id="path4" />
  </g>
</svg>
