<?xml version="1.0" encoding="UTF-8" standalone="no"?>
<!-- Created with Inkscape (http://www.inkscape.org/) -->

<svg
   xmlns:dc="http://purl.org/dc/elements/1.1/"
   xmlns:cc="http://creativecommons.org/ns#"
   xmlns:rdf="http://www.w3.org/1999/02/22-rdf-syntax-ns#"
   xmlns:svg="http://www.w3.org/2000/svg"
   xmlns="http://www.w3.org/2000/svg"
   xmlns:sodipodi="http://sodipodi.sourceforge.net/DTD/sodipodi-0.dtd"
   xmlns:inkscape="http://www.inkscape.org/namespaces/inkscape"
   width="48"
   height="48"
   id="svg2"
   version="1.1"
   inkscape:version="0.92.4 (5da689c313, 2019-01-14)"
   sodipodi:docname="cs-theme.svg">
  <defs
     id="defs4">
    <clipPath
       id="clipPath13429">
      <path
         inkscape:connector-curvature="0"
         d="m 481,318 h 22 v 22 h -22 z"
         id="path2" />
    </clipPath>
    <clipPath
       id="clipPath13465">
      <path
         inkscape:connector-curvature="0"
         d="m 507,318 h 22 v 22 h -22 z"
         id="path5" />
    </clipPath>
    <clipPath
       id="clipPath13501">
      <path
         inkscape:connector-curvature="0"
         d="m 530,318 h 22 v 22 h -22 z"
         id="path8" />
    </clipPath>
    <clipPath
       id="clipPath13753">
      <path
         inkscape:connector-curvature="0"
         d="m 672,1064 c 0,-1.105 4.925,-2 11,-2 6.075,0 11,0.895 11,2 0,1.105 -4.925,2 -11,2 -6.075,0 -11,-0.895 -11,-2"
         id="path11" />
    </clipPath>
    <clipPath
       id="clipPath13771">
      <path
         inkscape:connector-curvature="0"
         d="m 660,1057 h 51 v 65.001 h -51 z"
         id="path14" />
    </clipPath>
    <clipPath
       id="clipPath14035">
      <path
         inkscape:connector-curvature="0"
         d="m 659,517 h 53 v 18 h -53 z"
         id="path17" />
    </clipPath>
    <clipPath
       id="clipPath14127">
      <path
         inkscape:connector-curvature="0"
         d="m 659,500 h 53 v 18 h -53 z"
         id="path20" />
    </clipPath>
    <clipPath
       id="clipPath14445">
      <path
         inkscape:connector-curvature="0"
         d="m 648,112 h 73 v 60 h -73 z"
         id="path23" />
    </clipPath>
    <clipPath
       id="clipPath14609">
      <path
         inkscape:connector-curvature="0"
         d="m 826,1056 h 59 v 60 h -59 z"
         id="path26" />
    </clipPath>
    <clipPath
       id="clipPath15305">
      <path
         inkscape:connector-curvature="0"
         d="M 805,276 H 905 V 376 H 805 Z"
         id="path29" />
    </clipPath>
    <clipPath
       id="clipPath15341">
      <path
         inkscape:connector-curvature="0"
         d="m 145,1063.8 h 74.152 v 45.21 H 145 Z"
         id="path32" />
    </clipPath>
    <clipPath
       id="clipPath15715">
      <path
         inkscape:connector-curvature="0"
         d="m 151,667 h 57 v 57 h -57 z"
         id="path35" />
    </clipPath>
    <clipPath
       id="clipPath15807">
      <path
         inkscape:connector-curvature="0"
         d="m 154,697 h 51 v 51 h -51 z"
         id="path38" />
    </clipPath>
    <clipPath
       id="clipPath16001">
      <path
         inkscape:connector-curvature="0"
         d="m 500.04,864.45 h 36.012 v 67.52 H 500.04 Z"
         id="path41" />
    </clipPath>
    <clipPath
       id="clipPath16093">
      <path
         inkscape:connector-curvature="0"
         d="m 836,870.54 h 47 v 55.539 h -47 z"
         id="path44" />
    </clipPath>
    <clipPath
       id="clipPath16477">
      <path
         inkscape:connector-curvature="0"
         d="m 318.03,702.35 h 62.848 v 37.991 H 318.03 Z"
         id="path47" />
    </clipPath>
    <clipPath
       id="clipPath16579">
      <path
         inkscape:connector-curvature="0"
         d="m 485.03,133.35 h 62.847 v 37.991 H 485.03 Z"
         id="path50" />
    </clipPath>
    <clipPath
       id="clipPath16709">
      <path
         inkscape:connector-curvature="0"
         d="m 493.37,677.93 h 45.643 v 68.067 H 493.37 Z"
         id="path53" />
    </clipPath>
    <clipPath
       id="clipPath24218">
      <path
         inkscape:connector-curvature="0"
         d="m 144.34,1018.2 h 71.467 v 78 H 144.34 Z"
         id="path56" />
    </clipPath>
    <clipPath
       id="clipPath24382">
      <path
         inkscape:connector-curvature="0"
         d="m 293.21,1068.6 66.323,-38.292 36.047,62.435 -66.323,38.292 z"
         id="path59" />
    </clipPath>
    <clipPath
       id="clipPath24650">
      <path
         inkscape:connector-curvature="0"
         d="m 488.86,1054.5 h 10 v 10.706 h -10 z"
         id="path62" />
    </clipPath>
    <clipPath
       id="clipPath24700">
      <path
         inkscape:connector-curvature="0"
         d="m 508,1066.8 h 10.001 v 10.705 H 508 Z"
         id="path65" />
    </clipPath>
    <clipPath
       id="clipPath24750">
      <path
         inkscape:connector-curvature="0"
         d="m 525,1045.8 h 10 v 10.706 h -10 z"
         id="path68" />
    </clipPath>
    <clipPath
       id="clipPath24864">
      <path
         inkscape:connector-curvature="0"
         d="m 836,1043.7 h 25.5 v 31.5 H 836 Z"
         id="path71" />
    </clipPath>
    <clipPath
       id="clipPath24896">
      <path
         inkscape:connector-curvature="0"
         d="m 838,1062.2 h 24 v 24 h -24 z"
         id="path74" />
    </clipPath>
    <clipPath
       id="clipPath25070">
      <path
         inkscape:connector-curvature="0"
         d="m 134,489.24 h 7 v 6 h -7 z"
         id="path77" />
    </clipPath>
    <clipPath
       id="clipPath25100">
      <path
         inkscape:connector-curvature="0"
         d="m 216,489.24 h 7 v 6 h -7 z"
         id="path80" />
    </clipPath>
    <clipPath
       id="clipPath25502">
      <path
         inkscape:connector-curvature="0"
         d="m 838,477.24 h 22 v 22 h -22 z"
         id="path83" />
    </clipPath>
    <clipPath
       id="clipPath25686">
      <path
         inkscape:connector-curvature="0"
         d="m 704,1061.2 h 25 v 25 h -25 z"
         id="path86" />
    </clipPath>
    <clipPath
       id="clipPath25788">
      <path
         inkscape:connector-curvature="0"
         d="m 663.04,1078.6 -1.808,-3.514 -21.07,-47.453 c 13.336,-18.439 48.336,-26.938 73.836,-3.439 0.842,0 6.476,6.246 6,7 l -18.386,25.895 c -0.483,0.765 -1.453,0.946 -2.177,0.431 l -15.505,-11.011 c -0.359,-0.255 -0.847,-0.153 -1.07,0.238 l -18.272,31.869 c -0.218,0.384 -0.502,0.578 -0.782,0.578 -0.282,0 -0.561,-0.197 -0.766,-0.594"
         id="path89" />
    </clipPath>
    <clipPath
       id="clipPath26420">
      <path
         inkscape:connector-curvature="0"
         d="m 127,820.24 h 100 v 100 H 127 Z"
         id="path92" />
    </clipPath>
    <clipPath
       id="clipPath26860">
      <path
         inkscape:connector-curvature="0"
         d="m 809,680.24 c 0,-22.092 17.908,-40 40,-40 22.092,0 40,17.908 40,40 0,22.091 -17.908,40 -40,40 -22.092,0 -40,-17.909 -40,-40"
         id="path95" />
    </clipPath>
    <clipPath
       id="clipPath27506">
      <path
         inkscape:connector-curvature="0"
         d="m 658,469.24 h 44 v 45 h -44 z"
         id="path98" />
    </clipPath>
    <clipPath
       id="clipPath27772">
      <path
         inkscape:connector-curvature="0"
         d="m 651,271.24 h 58 v 58 h -58 z"
         id="path101" />
    </clipPath>
    <clipPath
       id="clipPath27864">
      <path
         inkscape:connector-curvature="0"
         d="m 662,307.24 h 38 v 8 h -38 z"
         id="path104" />
    </clipPath>
    <clipPath
       id="clipPath28028">
      <path
         inkscape:connector-curvature="0"
         d="m 858.98,137.24 c 0.013,-0.101 0.021,-0.203 0.021,-0.307 v -6.693 h 15.75 c 1.237,0 2.25,-1.013 2.25,-2.25 v -11.25 l -27,-4.5 -27,4.5 v -2.25 l 27,-4.5 27,4.5 v -27 c 0,-1.237 -1.013,-2.25 -2.25,-2.25 h -49.5 c -1.237,0 -2.25,1.013 -2.25,2.25 v -4.25 h 54 v 54 z m -35.979,0 v -9.25 c 0,1.237 1.013,2.25 2.25,2.25 h 15.75 v 6.693 c 0,0.104 0.007,0.207 0.02,0.307 z m 22.5,-7 h 9 v 4.5 h -9 z m 1.125,-9 c -0.62,0 -1.125,-0.506 -1.125,-1.125 v -2.25 c 0,-0.619 0.505,-1.125 1.125,-1.125 h 6.75 c 0.619,0 1.125,0.506 1.125,1.125 v 2.25 c 0,0.619 -0.506,1.125 -1.125,1.125 z"
         id="path107" />
    </clipPath>
    <clipPath
       id="clipPath28200">
      <path
         inkscape:connector-curvature="0"
         d="m 531.27,136.24 c 6.325,-2.29 10.727,-8.277 10.727,-15.484 0,-11.316 -10.2,-20.563 -25.65,-34.575 l -4.35,-3.941 -4.35,3.941 c -15.45,14.012 -25.65,23.259 -25.65,34.575 V 81.24 h 60 v 55 z m -26.983,0 c 2.995,-1.052 5.686,-2.883 7.71,-5.25 2.024,2.367 4.715,4.198 7.71,5.25 z m -22.29,0 v -15.484 c 0,7.207 4.402,13.194 10.727,15.484 z"
         id="path110" />
    </clipPath>
    <clipPath
       id="clipPath28364">
      <path
         inkscape:connector-curvature="0"
         d="m 648,79.241 h 64 v 64 h -64 z"
         id="path113" />
    </clipPath>
    <clipPath
       id="clipPath28984">
      <path
         inkscape:connector-curvature="0"
         d="m 500,691.74 c 0,-3.037 2.463,-5.5 5.5,-5.5 3.037,0 5.5,2.463 5.5,5.5 0,3.037 -2.463,5.5 -5.5,5.5 -3.037,0 -5.5,-2.463 -5.5,-5.5"
         id="path116" />
    </clipPath>
    <clipPath
       id="clipPath29012">
      <path
         inkscape:connector-curvature="0"
         d="m 500,669.74 c 0,-3.037 2.463,-5.5 5.5,-5.5 3.037,0 5.5,2.463 5.5,5.5 0,3.038 -2.463,5.5 -5.5,5.5 -3.037,0 -5.5,-2.462 -5.5,-5.5"
         id="path119" />
    </clipPath>
    <clipPath
       id="clipPath29040">
      <path
         inkscape:connector-curvature="0"
         d="m 494,680.74 c 0,-3.037 2.462,-5.5 5.5,-5.5 3.038,0 5.5,2.463 5.5,5.5 0,3.038 -2.462,5.5 -5.5,5.5 -3.038,0 -5.5,-2.462 -5.5,-5.5"
         id="path122" />
    </clipPath>
    <clipPath
       id="clipPath29068">
      <path
         inkscape:connector-curvature="0"
         d="m 513,691.74 c 0,-3.037 2.463,-5.5 5.5,-5.5 3.037,0 5.5,2.463 5.5,5.5 0,3.037 -2.463,5.5 -5.5,5.5 -3.037,0 -5.5,-2.463 -5.5,-5.5"
         id="path125" />
    </clipPath>
    <clipPath
       id="clipPath29096">
      <path
         inkscape:connector-curvature="0"
         d="m 513,669.74 c 0,-3.037 2.463,-5.5 5.5,-5.5 3.037,0 5.5,2.463 5.5,5.5 0,3.038 -2.463,5.5 -5.5,5.5 -3.037,0 -5.5,-2.462 -5.5,-5.5"
         id="path128" />
    </clipPath>
    <clipPath
       id="clipPath29124">
      <path
         inkscape:connector-curvature="0"
         d="m 507,680.74 c 0,-3.037 2.463,-5.5 5.5,-5.5 3.037,0 5.5,2.463 5.5,5.5 0,3.038 -2.463,5.5 -5.5,5.5 -3.037,0 -5.5,-2.462 -5.5,-5.5"
         id="path131" />
    </clipPath>
    <clipPath
       id="clipPath29152">
      <path
         inkscape:connector-curvature="0"
         d="m 520,680.74 c 0,-3.037 2.463,-5.5 5.5,-5.5 3.037,0 5.5,2.463 5.5,5.5 0,3.038 -2.463,5.5 -5.5,5.5 -3.037,0 -5.5,-2.462 -5.5,-5.5"
         id="path134" />
    </clipPath>
    <clipPath
       id="clipPath29252">
      <path
         inkscape:connector-curvature="0"
         d="m 321,322.24 c -4.97,0 -9,-4.029 -9,-9 0,-4.97 4.03,-9 9,-9 h 45 c 4.971,0 9,4.03 9,9 0,4.971 -4.029,9 -9,9 z"
         id="path137" />
    </clipPath>
    <clipPath
       id="clipPath29280">
      <path
         inkscape:connector-curvature="0"
         d="m 322,297.24 c -4.971,0 -9,-4.029 -9,-9 0,-4.97 4.029,-9 9,-9 h 45 c 4.971,0 9,4.03 9,9 0,4.971 -4.029,9 -9,9 z"
         id="path140" />
    </clipPath>
    <clipPath
       id="clipPath29400">
      <path
         inkscape:connector-curvature="0"
         d="m 155,83.24 h 44 v 53 h -44 z"
         id="path143" />
    </clipPath>
    <filter
       style="color-interpolation-filters:sRGB"
       id="filter954"
       x="-0.18000001"
       y="-0.18000001"
       width="1.36"
       height="1.36">
      <feGaussianBlur
         stdDeviation="0.11906016"
         id="feGaussianBlur161" />
    </filter>
    <filter
       style="color-interpolation-filters:sRGB"
       id="filter962"
       x="-0.18000001"
       y="-0.18000001"
       width="1.36"
       height="1.36">
      <feGaussianBlur
         stdDeviation="0.11906016"
         id="feGaussianBlur164" />
    </filter>
    <linearGradient
       id="linearGradient856"
       x1="-73.361"
       x2="-58.736"
       y1="6.9798999"
       y2="17.198"
       gradientTransform="matrix(3.779602,0,0,3.779602,953.95764,1326.0359)"
       gradientUnits="userSpaceOnUse">
      <stop
         stop-color="#3c3c3c"
         offset="0"
         id="stop146" />
      <stop
         stop-color="#1e1e1e"
         offset="1"
         id="stop148" />
    </linearGradient>
    <linearGradient
       id="linearGradient908"
       x1="-70.641998"
       x2="-70.641998"
       y2="2.6738"
       gradientTransform="translate(75.14,-0.13229)"
       gradientUnits="userSpaceOnUse">
      <stop
         stop-color="#1e1e1e"
         offset="0"
         id="stop151" />
      <stop
         stop-color="#3c3c3c"
         offset="1"
         id="stop153" />
    </linearGradient>
    <linearGradient
       id="linearGradient922"
       x1="-62.705002"
       x2="-62.705002"
       y2="3.8515"
       gradientTransform="translate(75.14,-0.13229)"
       gradientUnits="userSpaceOnUse">
      <stop
         stop-color="#1e1e1e"
         offset="0"
         id="stop156" />
      <stop
         stop-color="#3c3c3c"
         offset="1"
         id="stop158" />
    </linearGradient>
    <linearGradient
       id="linearGradient874"
       x1="-74.611"
       x2="-58.736"
       y1="5.5560999"
       y2="5.5560999"
       gradientTransform="matrix(2.7731039,0,0,2.7731039,208.89213,1049.6123)"
       gradientUnits="userSpaceOnUse">
      <stop
         stop-color="#cfcfcf"
         offset="0"
         id="stop7" />
      <stop
         stop-color="#c9c9c9"
         offset="1"
         id="stop9" />
    </linearGradient>
    <filter
       style="color-interpolation-filters:sRGB"
       id="filter954-3"
       x="-0.18000001"
       y="-0.18000001"
       width="1.36"
       height="1.36">
      <feGaussianBlur
         stdDeviation="0.11906016"
         id="feGaussianBlur22" />
    </filter>
    <filter
       style="color-interpolation-filters:sRGB"
       id="filter962-6"
       x="-0.18000001"
       y="-0.18000001"
       width="1.36"
       height="1.36">
      <feGaussianBlur
         stdDeviation="0.11906016"
         id="feGaussianBlur25" />
    </filter>
    <linearGradient
       id="linearGradient856-7"
       x1="-73.361"
       x2="-58.736"
       y1="6.9798999"
       y2="17.198"
       gradientTransform="matrix(2.7731039,0,0,2.7731039,208.89213,1052.7498)"
       gradientUnits="userSpaceOnUse">
      <stop
         stop-color="#fafafa"
         offset="0"
         id="stop2" />
      <stop
         stop-color="#e6e6e6"
         offset="1"
         id="stop4" />
    </linearGradient>
    <linearGradient
       id="linearGradient908-5"
       x1="-70.641998"
       x2="-70.641998"
       y2="2.6738"
       gradientTransform="translate(75.14,-0.13229)"
       gradientUnits="userSpaceOnUse">
      <stop
         stop-color="#ebebeb"
         offset="0"
         id="stop12" />
      <stop
         stop-color="#fafafa"
         offset="1"
         id="stop14" />
    </linearGradient>
    <linearGradient
       id="linearGradient922-3"
       x1="-62.705002"
       x2="-62.705002"
       y2="3.8515"
       gradientTransform="translate(75.14,-0.13229)"
       gradientUnits="userSpaceOnUse">
      <stop
         stop-color="#ebebeb"
         offset="0"
         id="stop17" />
      <stop
         stop-color="#fafafa"
         offset="1"
         id="stop19" />
    </linearGradient>
  </defs>
  <sodipodi:namedview
     id="base"
     pagecolor="#ffffff"
     bordercolor="#666666"
     borderopacity="1.0"
     inkscape:pageopacity="0.0"
     inkscape:pageshadow="2"
     inkscape:zoom="4.8533332"
     inkscape:cx="81.851199"
     inkscape:cy="-19.888074"
     inkscape:document-units="px"
     inkscape:current-layer="layer1"
     showgrid="false"
     inkscape:window-width="1280"
     inkscape:window-height="954"
     inkscape:window-x="0"
     inkscape:window-y="0"
     inkscape:window-maximized="1" />
  <metadata
     id="metadata7">
    <rdf:RDF>
      <cc:Work
         rdf:about="">
        <dc:format>image/svg+xml</dc:format>
        <dc:type
           rdf:resource="http://purl.org/dc/dcmitype/StillImage" />
        <dc:title />
      </cc:Work>
    </rdf:RDF>
  </metadata>
  <g
     inkscape:label="Layer 1"
     inkscape:groupmode="layer"
     id="layer1"
     transform="translate(0,-1004.3622)">
    <g
       id="g4258"
       transform="translate(21.733516,-82.928573)">
      <g
         transform="translate(-21.733517,32.928564)"
         id="g4253">
        <rect
           id="rect32"
           ry="1.4674157"
           height="32.2817"
           width="44.023026"
           y="1065.0199"
           x="1.9885155"
           style="fill:url(#linearGradient874);stroke-width:2.77310395" />
        <rect
           id="rect34"
           ry="0"
           height="1.5875"
           width="1.5875"
           y="3.5237"
           x="3.7040999"
           style="opacity:0.5;filter:url(#filter954-3)"
           transform="matrix(2.7731039,0,0,2.7731039,0.52109983,1055.4513)" />
        <rect
           id="rect36"
           ry="0"
           height="1.5875"
           width="1.5875"
           y="3.5237"
           x="11.641"
           style="opacity:0.5;filter:url(#filter962-6)"
           transform="matrix(2.7731039,0,0,2.7731039,0.52109983,1055.4513)" />
        <path
           id="path38-5"
           d="m 10.792954,1063.7554 v 4.4023 H 3.4558757 c -0.8129354,0 -1.4674157,0.6544 -1.4674157,1.4674 v 29.3477 c 0,0.813 0.6544525,1.4675 1.4674157,1.4675 H 44.542183 c 0.812935,0 1.467416,-0.6545 1.467416,-1.4675 v -29.3477 c 0,-0.813 -0.654453,-1.4674 -1.467416,-1.4674 h -7.337078 v -4.4023 h -4.402303 v 4.4023 H 15.19387 v -4.4023 z"
           inkscape:connector-curvature="0"
           style="fill:url(#linearGradient856-7);stroke-width:2.77310395" />
        <g
           id="g56"
           transform="matrix(2.7731039,0,0,2.7731039,0.52109983,1056.651)">
          <path
             id="path50-6"
             d="M 5.2916,2.5619 V -0.1323 L 3.7041,1.1906 v 1.3713 z"
             inkscape:connector-curvature="0"
             style="fill:url(#linearGradient908-5)" />
          <path
             id="path52"
             d="m 11.641,2.5619 v -2.6942 l 1.5875,1.3229 v 1.3713 z"
             inkscape:connector-curvature="0"
             style="fill:url(#linearGradient922-3)" />
          <rect
             id="rect54"
             ry="0"
             height="1.5875"
             width="6.3498998"
             y="-0.13229001"
             x="5.2916002"
             style="fill:#c8c8c8" />
        </g>
      </g>
      <g
         id="surface1"
         transform="matrix(0.44436029,0,0,0.44436029,-11.841956,1103.0545)">
        <path
           id="path2-3"
           d="m 31.75,3.144531 c 4.382812,0 7.9375,5.925781 7.9375,13.230469 0,7.304688 -3.554688,13.230469 -7.9375,13.230469 -4.382812,0 -7.9375,-5.925781 -7.9375,-13.230469 0,-7.304688 3.554688,-13.230469 7.9375,-13.230469 z m 0,0"
           style="fill:#5c68bf;fill-opacity:1;fill-rule:nonzero;stroke:none"
           inkscape:connector-curvature="0" />
        <path
           id="path4"
           d="m 52.328125,11.671875 c 3.101563,3.097656 1.425781,9.800781 -3.738281,14.964844 -5.167969,5.167969 -11.871094,6.84375 -14.96875,3.742187 -3.101563,-3.097656 -1.425782,-9.800781 3.742187,-14.96875 5.164063,-5.164062 11.867188,-6.839844 14.964844,-3.738281 z m 0,0"
           style="fill:#7d57c2;fill-opacity:1;fill-rule:nonzero;stroke:none"
           inkscape:connector-curvature="0" />
        <path
           id="path6"
           d="m 60.855469,32.25 c 0,4.382812 -5.925781,7.9375 -13.230469,7.9375 -7.304688,0 -13.230469,-3.554688 -13.230469,-7.9375 0,-4.382812 5.925781,-7.9375 13.230469,-7.9375 7.304688,0 13.230469,3.554688 13.230469,7.9375 z m 0,0"
           style="fill:#eb3f78;fill-opacity:1;fill-rule:nonzero;stroke:none"
           inkscape:connector-curvature="0" />
        <path
           id="path8-6"
           d="m 52.328125,52.828125 c -3.097656,3.101563 -9.800781,1.425781 -14.964844,-3.738281 -5.167969,-5.167969 -6.84375,-11.867188 -3.742187,-14.96875 3.097656,-3.101563 9.800781,-1.425782 14.96875,3.742187 5.164062,5.164063 6.839844,11.867188 3.738281,14.964844 z m 0,0"
           style="fill:#ee514f;fill-opacity:1;fill-rule:nonzero;stroke:none"
           inkscape:connector-curvature="0" />
        <path
           id="path10"
           d="m 31.75,34.894531 c 4.382812,0 7.9375,5.925781 7.9375,13.230469 0,7.304688 -3.554688,13.230469 -7.9375,13.230469 -4.382812,0 -7.9375,-5.925781 -7.9375,-13.230469 0,-7.304688 3.554688,-13.230469 7.9375,-13.230469 z m 0,0"
           style="fill:#ff6e42;fill-opacity:1;fill-rule:nonzero;stroke:none"
           inkscape:connector-curvature="0" />
        <path
           id="path12"
           d="m 29.878906,34.121094 c 3.101563,3.101562 1.425782,9.800781 -3.742187,14.96875 -5.164063,5.164062 -11.867188,6.839844 -14.964844,3.738281 -3.101563,-3.097656 -1.425781,-9.800781 3.738281,-14.964844 5.167969,-5.167969 11.871094,-6.84375 14.96875,-3.742187 z m 0,0"
           style="fill:#ffa623;fill-opacity:1;fill-rule:nonzero;stroke:none"
           inkscape:connector-curvature="0" />
        <path
           id="path14-7"
           d="m 29.105469,32.25 c 0,4.382812 -5.925781,7.9375 -13.230469,7.9375 -7.304688,0 -13.230469,-3.554688 -13.230469,-7.9375 0,-4.382812 5.925781,-7.9375 13.230469,-7.9375 7.304688,0 13.230469,3.554688 13.230469,7.9375 z m 0,0"
           style="fill:#9ccc63;fill-opacity:1;fill-rule:nonzero;stroke:none"
           inkscape:connector-curvature="0" />
        <path
           id="path16"
           d="M 29.878906,30.378906 C 26.78125,33.480469 20.078125,31.804688 14.910156,26.636719 9.746094,21.472656 8.070312,14.769531 11.171875,11.671875 c 3.097656,-3.101563 9.800781,-1.425781 14.964844,3.738281 5.167969,5.167969 6.84375,11.871094 3.742187,14.96875 z m 0,0"
           style="fill:#23a699;fill-opacity:1;fill-rule:nonzero;stroke:none"
           inkscape:connector-curvature="0" />
        <path
           id="path18"
           d="m 31.75,3.144531 c -4.398438,0 -7.9375,5.902344 -7.9375,13.230469 0,7.328125 3.539062,13.230469 7.9375,13.230469 z m 0,0"
           style="fill:#5c68bf;fill-opacity:1;fill-rule:nonzero;stroke:none"
           inkscape:connector-curvature="0" />
        <path
           id="path20-5"
           d="m 31.75,26.957031 c 2.921875,0 5.292969,2.371094 5.292969,5.292969 0,2.921875 -2.371094,5.292969 -5.292969,5.292969 -2.921875,0 -5.292969,-2.371094 -5.292969,-5.292969 0,-2.921875 2.371094,-5.292969 5.292969,-5.292969 z m 0,0"
           style="fill:#3f3f3f;fill-opacity:1;fill-rule:nonzero;stroke:none"
           inkscape:connector-curvature="0" />
      </g>
    </g>
  </g>
</svg>
