<?xml version="1.0" encoding="UTF-8" standalone="no"?>
<svg
   xmlns:dc="http://purl.org/dc/elements/1.1/"
   xmlns:cc="http://creativecommons.org/ns#"
   xmlns:rdf="http://www.w3.org/1999/02/22-rdf-syntax-ns#"
   xmlns:svg="http://www.w3.org/2000/svg"
   xmlns="http://www.w3.org/2000/svg"
   xmlns:sodipodi="http://sodipodi.sourceforge.net/DTD/sodipodi-0.dtd"
   xmlns:inkscape="http://www.inkscape.org/namespaces/inkscape"
   width="48"
   height="48"
   version="1"
   id="svg18"
   sodipodi:docname="xfwm4.svg"
   inkscape:version="0.92.4 (5da689c313, 2019-01-14)">
  <metadata
     id="metadata24">
    <rdf:RDF>
      <cc:Work
         rdf:about="">
        <dc:format>image/svg+xml</dc:format>
        <dc:type
           rdf:resource="http://purl.org/dc/dcmitype/StillImage" />
        <dc:title></dc:title>
      </cc:Work>
    </rdf:RDF>
  </metadata>
  <defs
     id="defs22" />
  <sodipodi:namedview
     pagecolor="#ffffff"
     bordercolor="#666666"
     borderopacity="1"
     objecttolerance="10"
     gridtolerance="10"
     guidetolerance="10"
     inkscape:pageopacity="0"
     inkscape:pageshadow="2"
     inkscape:window-width="1280"
     inkscape:window-height="954"
     id="namedview20"
     showgrid="false"
     inkscape:zoom="3.6875"
     inkscape:cx="27.254237"
     inkscape:cy="32"
     inkscape:window-x="0"
     inkscape:window-y="0"
     inkscape:window-maximized="1"
     inkscape:current-layer="svg18" />
  <g
     id="g3905"
     transform="translate(1.5178337,2.2767507)">
    <path
       inkscape:connector-curvature="0"
       id="path2"
       d="m 1.2324915,35.857372 v 1.517812 c 0,1.209696 0.9483291,2.182614 2.1255443,2.182614 H 41.606904 c 1.176304,0 2.124937,-0.972918 2.124937,-2.182614 v -1.517812 c 0,1.209696 -0.948633,2.182614 -2.124937,2.182614 H 3.3580358 c -1.1766081,0 -2.1249371,-0.972918 -2.1249371,-2.182614 z"
       style="opacity:0.2;stroke-width:0.75891697" />
    <rect
       id="rect4"
       transform="matrix(0,-1,-1,0,0,0)"
       ry="2.1249673"
       rx="2.1826451"
       y="-43.731842"
       x="-38.798882"
       height="42.499352"
       width="34.90942"
       style="fill:#d2d2d2;stroke-width:0.75891697" />
    <path
       inkscape:connector-curvature="0"
       id="path6"
       d="m 9.328502,11.478282 c -1.121208,0 -2.0247616,0.846939 -2.0247616,1.897266 v 15.937028 c 0,1.050326 0.9035536,1.897266 2.0247616,1.897266 h 26.306721 c 1.121663,0 2.024762,-0.84694 2.024762,-1.897266 V 13.375548 c 0,-1.050327 -0.903099,-1.897266 -2.024762,-1.897266 z"
       style="fill:#4d4d4d;stroke-width:0.75891697" />
    <path
       inkscape:connector-curvature="0"
       id="path8"
       d="m 3.3580516,3.8887006 c -1.1772151,0 -2.1255604,0.9731008 -2.1255604,2.1818862 V 6.830986 c 0,-1.2087855 0.9483453,-2.1818863 2.1255604,-2.1818863 H 41.606281 c 1.176304,0 2.12556,0.9731008 2.12556,2.1818863 V 6.0705868 c 0,-1.2087854 -0.949256,-2.1818862 -2.12556,-2.1818862 z"
       style="opacity:0.2;fill:#ffffff;stroke-width:0.75891697" />
  </g>
</svg>
