<?xml version="1.0" encoding="UTF-8" standalone="no"?>
<!-- Created with Inkscape (http://www.inkscape.org/) -->

<svg
   xmlns:dc="http://purl.org/dc/elements/1.1/"
   xmlns:cc="http://creativecommons.org/ns#"
   xmlns:rdf="http://www.w3.org/1999/02/22-rdf-syntax-ns#"
   xmlns:svg="http://www.w3.org/2000/svg"
   xmlns="http://www.w3.org/2000/svg"
   xmlns:xlink="http://www.w3.org/1999/xlink"
   xmlns:sodipodi="http://sodipodi.sourceforge.net/DTD/sodipodi-0.dtd"
   xmlns:inkscape="http://www.inkscape.org/namespaces/inkscape"
   id="svg2"
   version="1.1"
   inkscape:version="0.92.4 (5da689c313, 2019-01-14)"
   width="48"
   height="48"
   sodipodi:docname="preferences-desktop-accessibility.svg">
  <metadata
     id="metadata8">
    <rdf:RDF>
      <cc:Work
         rdf:about="">
        <dc:format>image/svg+xml</dc:format>
        <dc:type
           rdf:resource="http://purl.org/dc/dcmitype/StillImage" />
        <dc:title />
      </cc:Work>
    </rdf:RDF>
  </metadata>
  <defs
     id="defs6">
    <linearGradient
       inkscape:collect="always"
       id="linearGradient3884">
      <stop
         style="stop-color:#1875c5;stop-opacity:1"
         offset="0"
         id="stop3880" />
      <stop
         style="stop-color:#62a1d3;stop-opacity:1"
         offset="1"
         id="stop3882" />
    </linearGradient>
    <linearGradient
       inkscape:collect="always"
       xlink:href="#linearGradient3884"
       id="linearGradient3886"
       x1="33.653408"
       y1="36.39164"
       x2="8.5953512"
       y2="5.3268814"
       gradientUnits="userSpaceOnUse"
       gradientTransform="translate(-0.48013878,-0.31090164)" />
  </defs>
  <sodipodi:namedview
     pagecolor="#ffffff"
     bordercolor="#666666"
     borderopacity="1"
     objecttolerance="10"
     gridtolerance="10"
     guidetolerance="10"
     inkscape:pageopacity="0"
     inkscape:pageshadow="2"
     inkscape:window-width="1280"
     inkscape:window-height="954"
     id="namedview4"
     showgrid="false"
     inkscape:zoom="3.6875"
     inkscape:cx="-29.4369"
     inkscape:cy="15.958446"
     inkscape:window-x="0"
     inkscape:window-y="0"
     inkscape:window-maximized="1"
     inkscape:current-layer="svg2" />
  <ellipse
     style="fill:#ffffff;fill-opacity:1;fill-rule:nonzero;stroke:#4169e1;stroke-width:0;stroke-linecap:round;stroke-linejoin:miter;stroke-miterlimit:4;stroke-dasharray:none;stroke-opacity:1"
     id="path3005"
     cx="509.94418"
     cy="-462.91522"
     rx="468.49652"
     ry="467.52542" />
  <g
     id="g3931">
    <circle
       r="23.046572"
       cy="24"
       cx="24"
       id="path3870-6"
       style="opacity:1;fill:none;fill-opacity:1;stroke:#52acf6;stroke-width:1.03463817;stroke-linecap:round;stroke-linejoin:round;stroke-miterlimit:4;stroke-dasharray:none;stroke-opacity:1" />
    <circle
       r="22.275007"
       cy="24"
       cx="24"
       id="path3870"
       style="opacity:1;fill:url(#linearGradient3886);fill-opacity:1;stroke:#62a1d3;stroke-width:1;stroke-linecap:round;stroke-linejoin:round;stroke-miterlimit:4;stroke-dasharray:none;stroke-opacity:1" />
    <g
       style="fill:#ffffff"
       transform="translate(0.57525223,-0.23447825)"
       id="g3878">
      <path
         style="fill:#ffffff;fill-opacity:1;stroke:none;stroke-width:1px;stroke-linecap:butt;stroke-linejoin:miter;stroke-opacity:1"
         d="m 17.762712,20.677966 -5.22034,-1.016949 c -2.135505,-0.664125 -0.886811,-2.773388 0.864408,-2.389831 8.504334,0.7876 13.366999,0.689665 19.898304,0.0339 2.446515,-0.746795 2.694305,1.989991 1.203391,2.355933 -2.193805,0.481083 -3.980636,0.75868 -5.932204,1.118644 -2.117844,0.309018 -2.019973,1.57495 -1.898305,4 0.214948,3.80075 1.110497,7.346276 2.033898,10.881356 0.653549,2.51064 -1.334249,3.577335 -2.661016,1.084746 L 24.372881,31.38983 C 23.549179,29.181345 23.49491,28.802935 22.61017,31.186441 l -1.593221,5.169491 c -1.065231,2.939292 -3.684258,1.981504 -2.847457,-0.830508 1.02333,-3.5348 2.054976,-7.11993 2.101694,-11.423729 0.19578,-3.123518 -0.926785,-3.163568 -2.508474,-3.423729 z"
         id="path3872"
         inkscape:connector-curvature="0"
         sodipodi:nodetypes="ccccccccccccccc" />
      <circle
         style="opacity:1;fill:#ffffff;fill-opacity:1;stroke:none;stroke-width:0.25;stroke-linecap:round;stroke-linejoin:round;stroke-miterlimit:4;stroke-dasharray:none;stroke-opacity:1"
         id="path3874"
         cx="23.457626"
         cy="13.559322"
         r="3.2542372" />
    </g>
  </g>
  <path
     inkscape:connector-curvature="0"
     style="opacity:0.1;fill:#ffffff"
     d="m -40.844405,23.20164 c -11.08,0 -20,9.812 -20,22 v 1 c 0,-12.188 8.92,-22 20,-22 11.08,0 20,9.812 20,22 v -1 c 0,-12.188 -8.92,-22 -20,-22 z"
     id="path4-6" />
</svg>
