<?xml version="1.0" encoding="UTF-8" standalone="no"?>
<!-- Created with Inkscape (http://www.inkscape.org/) -->

<svg
   xmlns:dc="http://purl.org/dc/elements/1.1/"
   xmlns:cc="http://creativecommons.org/ns#"
   xmlns:rdf="http://www.w3.org/1999/02/22-rdf-syntax-ns#"
   xmlns:svg="http://www.w3.org/2000/svg"
   xmlns="http://www.w3.org/2000/svg"
   xmlns:sodipodi="http://sodipodi.sourceforge.net/DTD/sodipodi-0.dtd"
   xmlns:inkscape="http://www.inkscape.org/namespaces/inkscape"
   width="48"
   height="48"
   viewBox="0 0 12.699999 12.7"
   version="1.1"
   id="svg4429"
   inkscape:version="0.92.4 (5da689c313, 2019-01-14)"
   sodipodi:docname="preferences-desktop-keyboard.svg">
  <defs
     id="defs4423" />
  <sodipodi:namedview
     id="base"
     pagecolor="#ffffff"
     bordercolor="#666666"
     borderopacity="1.0"
     inkscape:pageopacity="0.0"
     inkscape:pageshadow="2"
     inkscape:zoom="11.2"
     inkscape:cx="37.566236"
     inkscape:cy="31.851093"
     inkscape:document-units="mm"
     inkscape:current-layer="layer1"
     showgrid="false"
     units="px"
     width="128px"
     inkscape:window-width="1280"
     inkscape:window-height="954"
     inkscape:window-x="0"
     inkscape:window-y="0"
     inkscape:window-maximized="1" />
  <metadata
     id="metadata4426">
    <rdf:RDF>
      <cc:Work
         rdf:about="">
        <dc:format>image/svg+xml</dc:format>
        <dc:type
           rdf:resource="http://purl.org/dc/dcmitype/StillImage" />
        <dc:title></dc:title>
      </cc:Work>
    </rdf:RDF>
  </metadata>
  <g
     inkscape:label="Camada 1"
     inkscape:groupmode="layer"
     id="layer1"
     transform="translate(0,-284.29999)">
    <g
       id="g3849"
       transform="matrix(0.85615139,0,0,0.85615139,-0.89874864,43.621783)">
      <rect
         id="rect6"
         transform="scale(1,-1)"
         ry="1.1054413"
         rx="0.96717435"
         y="-292.81479"
         x="1.9168794"
         height="8.8435307"
         width="13.153572"
         style="opacity:1;fill:#315069;fill-opacity:1;stroke-width:0.4135997" />
      <path
         style="fill:#62a1d3;fill-opacity:1;stroke-width:0.36481425"
         id="path2"
         d="M 14.303698,283.42593 H 2.6296404 c -0.8062394,0 -1.4519606,0.65301 -1.4519606,1.45925 l -0.0073,7.29629 c 0,0.80624 0.6530175,1.45925 1.459257,1.45925 H 14.303697 c 0.806239,0 1.459257,-0.65301 1.459257,-1.45925 v -7.29629 c 0,-0.80624 -0.653018,-1.45925 -1.459256,-1.45925 z m -6.5666581,2.18888 H 9.196297 v 1.45925 H 7.7370399 Z m 0,2.18889 H 9.196297 v 1.45925 H 7.7370399 Z m -2.1888857,-2.18889 h 1.4592571 v 1.45925 H 5.5481542 Z m 0,2.18889 h 1.4592571 v 1.45925 H 5.5481542 Z m -0.7296283,1.45925 H 3.359269 v -1.45925 h 1.4592569 z m 0,-2.18889 H 3.359269 v -1.45925 h 1.4592569 z m 6.5666571,5.10741 H 5.5481542 v -1.45925 h 5.8370288 z m 0,-2.91852 H 9.9259255 v -1.45925 h 1.4592575 z m 0,-2.18889 H 9.9259255 v -1.45925 h 1.4592575 z m 2.188885,2.18889 h -1.459257 v -1.45925 h 1.459257 z m 0,-2.18889 h -1.459257 v -1.45925 h 1.459257 z"
         inkscape:connector-curvature="0" />
    </g>
  </g>
</svg>
