<?xml version="1.0" encoding="UTF-8" standalone="no"?>
<!-- Generator: Adobe Illustrator 19.0.0, SVG Export Plug-In . SVG Version: 6.00 Build 0)  -->

<svg
   xmlns:dc="http://purl.org/dc/elements/1.1/"
   xmlns:cc="http://creativecommons.org/ns#"
   xmlns:rdf="http://www.w3.org/1999/02/22-rdf-syntax-ns#"
   xmlns:svg="http://www.w3.org/2000/svg"
   xmlns="http://www.w3.org/2000/svg"
   xmlns:xlink="http://www.w3.org/1999/xlink"
   xmlns:sodipodi="http://sodipodi.sourceforge.net/DTD/sodipodi-0.dtd"
   xmlns:inkscape="http://www.inkscape.org/namespaces/inkscape"
   version="1.1"
   id="Layer_1"
   x="0px"
   y="0px"
   viewBox="0 0 24000 24000"
   xml:space="preserve"
   inkscape:version="0.92.4 (5da689c313, 2019-01-14)"
   width="48"
   height="48"
   sodipodi:docname="preferences-desktop-user.svg"><metadata
     id="metadata57"><rdf:RDF><cc:Work
         rdf:about=""><dc:format>image/svg+xml</dc:format><dc:type
           rdf:resource="http://purl.org/dc/dcmitype/StillImage" /><dc:title /></cc:Work></rdf:RDF></metadata><defs
     id="defs55"><clipPath
       id="clipPath13429"><path
         inkscape:connector-curvature="0"
         d="m 481,318 h 22 v 22 h -22 z"
         id="path2" /></clipPath><clipPath
       id="clipPath13465"><path
         inkscape:connector-curvature="0"
         d="m 507,318 h 22 v 22 h -22 z"
         id="path5" /></clipPath><clipPath
       id="clipPath13501"><path
         inkscape:connector-curvature="0"
         d="m 530,318 h 22 v 22 h -22 z"
         id="path8" /></clipPath><clipPath
       id="clipPath13753"><path
         inkscape:connector-curvature="0"
         d="m 672,1064 c 0,-1.105 4.925,-2 11,-2 6.075,0 11,0.895 11,2 0,1.105 -4.925,2 -11,2 -6.075,0 -11,-0.895 -11,-2"
         id="path11" /></clipPath><clipPath
       id="clipPath13771"><path
         inkscape:connector-curvature="0"
         d="m 660,1057 h 51 v 65.001 h -51 z"
         id="path14" /></clipPath><clipPath
       id="clipPath14035"><path
         inkscape:connector-curvature="0"
         d="m 659,517 h 53 v 18 h -53 z"
         id="path17" /></clipPath><clipPath
       id="clipPath14127"><path
         inkscape:connector-curvature="0"
         d="m 659,500 h 53 v 18 h -53 z"
         id="path20" /></clipPath><clipPath
       id="clipPath14445"><path
         inkscape:connector-curvature="0"
         d="m 648,112 h 73 v 60 h -73 z"
         id="path23" /></clipPath><clipPath
       id="clipPath14609"><path
         inkscape:connector-curvature="0"
         d="m 826,1056 h 59 v 60 h -59 z"
         id="path26" /></clipPath><clipPath
       id="clipPath15305"><path
         inkscape:connector-curvature="0"
         d="M 805,276 H 905 V 376 H 805 Z"
         id="path29" /></clipPath><clipPath
       id="clipPath15341"><path
         inkscape:connector-curvature="0"
         d="m 145,1063.8 h 74.152 v 45.21 H 145 Z"
         id="path32" /></clipPath><clipPath
       id="clipPath15715"><path
         inkscape:connector-curvature="0"
         d="m 151,667 h 57 v 57 h -57 z"
         id="path35" /></clipPath><clipPath
       id="clipPath15807"><path
         inkscape:connector-curvature="0"
         d="m 154,697 h 51 v 51 h -51 z"
         id="path38" /></clipPath><clipPath
       id="clipPath16001"><path
         inkscape:connector-curvature="0"
         d="m 500.04,864.45 h 36.012 v 67.52 H 500.04 Z"
         id="path41" /></clipPath><clipPath
       id="clipPath16093"><path
         inkscape:connector-curvature="0"
         d="m 836,870.54 h 47 v 55.539 h -47 z"
         id="path44" /></clipPath><clipPath
       id="clipPath16477"><path
         inkscape:connector-curvature="0"
         d="m 318.03,702.35 h 62.848 v 37.991 H 318.03 Z"
         id="path47" /></clipPath><clipPath
       id="clipPath16579"><path
         inkscape:connector-curvature="0"
         d="m 485.03,133.35 h 62.847 v 37.991 H 485.03 Z"
         id="path50" /></clipPath><clipPath
       id="clipPath16709"><path
         inkscape:connector-curvature="0"
         d="m 493.37,677.93 h 45.643 v 68.067 H 493.37 Z"
         id="path53" /></clipPath><clipPath
       id="clipPath24218"><path
         inkscape:connector-curvature="0"
         d="m 144.34,1018.2 h 71.467 v 78 H 144.34 Z"
         id="path56" /></clipPath><clipPath
       id="clipPath24382"><path
         inkscape:connector-curvature="0"
         d="m 293.21,1068.6 66.323,-38.292 36.047,62.435 -66.323,38.292 z"
         id="path59" /></clipPath><clipPath
       id="clipPath24650"><path
         inkscape:connector-curvature="0"
         d="m 488.86,1054.5 h 10 v 10.706 h -10 z"
         id="path62" /></clipPath><clipPath
       id="clipPath24700"><path
         inkscape:connector-curvature="0"
         d="m 508,1066.8 h 10.001 v 10.705 H 508 Z"
         id="path65" /></clipPath><clipPath
       id="clipPath24750"><path
         inkscape:connector-curvature="0"
         d="m 525,1045.8 h 10 v 10.706 h -10 z"
         id="path68" /></clipPath><clipPath
       id="clipPath24864"><path
         inkscape:connector-curvature="0"
         d="m 836,1043.7 h 25.5 v 31.5 H 836 Z"
         id="path71" /></clipPath><clipPath
       id="clipPath24896"><path
         inkscape:connector-curvature="0"
         d="m 838,1062.2 h 24 v 24 h -24 z"
         id="path74" /></clipPath><clipPath
       id="clipPath25070"><path
         inkscape:connector-curvature="0"
         d="m 134,489.24 h 7 v 6 h -7 z"
         id="path77" /></clipPath><clipPath
       id="clipPath25100"><path
         inkscape:connector-curvature="0"
         d="m 216,489.24 h 7 v 6 h -7 z"
         id="path80" /></clipPath><clipPath
       id="clipPath25502"><path
         inkscape:connector-curvature="0"
         d="m 838,477.24 h 22 v 22 h -22 z"
         id="path83" /></clipPath><clipPath
       id="clipPath25686"><path
         inkscape:connector-curvature="0"
         d="m 704,1061.2 h 25 v 25 h -25 z"
         id="path86" /></clipPath><clipPath
       id="clipPath25788"><path
         inkscape:connector-curvature="0"
         d="m 663.04,1078.6 -1.808,-3.514 -21.07,-47.453 c 13.336,-18.439 48.336,-26.938 73.836,-3.439 0.842,0 6.476,6.246 6,7 l -18.386,25.895 c -0.483,0.765 -1.453,0.946 -2.177,0.431 l -15.505,-11.011 c -0.359,-0.255 -0.847,-0.153 -1.07,0.238 l -18.272,31.869 c -0.218,0.384 -0.502,0.578 -0.782,0.578 -0.282,0 -0.561,-0.197 -0.766,-0.594"
         id="path89" /></clipPath><clipPath
       id="clipPath26420"><path
         inkscape:connector-curvature="0"
         d="m 127,820.24 h 100 v 100 H 127 Z"
         id="path92" /></clipPath><clipPath
       id="clipPath26860"><path
         inkscape:connector-curvature="0"
         d="m 809,680.24 c 0,-22.092 17.908,-40 40,-40 22.092,0 40,17.908 40,40 0,22.091 -17.908,40 -40,40 -22.092,0 -40,-17.909 -40,-40"
         id="path95" /></clipPath><clipPath
       id="clipPath27506"><path
         inkscape:connector-curvature="0"
         d="m 658,469.24 h 44 v 45 h -44 z"
         id="path98" /></clipPath><clipPath
       id="clipPath27772"><path
         inkscape:connector-curvature="0"
         d="m 651,271.24 h 58 v 58 h -58 z"
         id="path101" /></clipPath><clipPath
       id="clipPath27864"><path
         inkscape:connector-curvature="0"
         d="m 662,307.24 h 38 v 8 h -38 z"
         id="path104" /></clipPath><clipPath
       id="clipPath28028"><path
         inkscape:connector-curvature="0"
         d="m 858.98,137.24 c 0.013,-0.101 0.021,-0.203 0.021,-0.307 v -6.693 h 15.75 c 1.237,0 2.25,-1.013 2.25,-2.25 v -11.25 l -27,-4.5 -27,4.5 v -2.25 l 27,-4.5 27,4.5 v -27 c 0,-1.237 -1.013,-2.25 -2.25,-2.25 h -49.5 c -1.237,0 -2.25,1.013 -2.25,2.25 v -4.25 h 54 v 54 z m -35.979,0 v -9.25 c 0,1.237 1.013,2.25 2.25,2.25 h 15.75 v 6.693 c 0,0.104 0.007,0.207 0.02,0.307 z m 22.5,-7 h 9 v 4.5 h -9 z m 1.125,-9 c -0.62,0 -1.125,-0.506 -1.125,-1.125 v -2.25 c 0,-0.619 0.505,-1.125 1.125,-1.125 h 6.75 c 0.619,0 1.125,0.506 1.125,1.125 v 2.25 c 0,0.619 -0.506,1.125 -1.125,1.125 z"
         id="path107" /></clipPath><clipPath
       id="clipPath28200"><path
         inkscape:connector-curvature="0"
         d="m 531.27,136.24 c 6.325,-2.29 10.727,-8.277 10.727,-15.484 0,-11.316 -10.2,-20.563 -25.65,-34.575 l -4.35,-3.941 -4.35,3.941 c -15.45,14.012 -25.65,23.259 -25.65,34.575 V 81.24 h 60 v 55 z m -26.983,0 c 2.995,-1.052 5.686,-2.883 7.71,-5.25 2.024,2.367 4.715,4.198 7.71,5.25 z m -22.29,0 v -15.484 c 0,7.207 4.402,13.194 10.727,15.484 z"
         id="path110" /></clipPath><clipPath
       id="clipPath28364"><path
         inkscape:connector-curvature="0"
         d="m 648,79.241 h 64 v 64 h -64 z"
         id="path113" /></clipPath><clipPath
       id="clipPath28984"><path
         inkscape:connector-curvature="0"
         d="m 500,691.74 c 0,-3.037 2.463,-5.5 5.5,-5.5 3.037,0 5.5,2.463 5.5,5.5 0,3.037 -2.463,5.5 -5.5,5.5 -3.037,0 -5.5,-2.463 -5.5,-5.5"
         id="path116" /></clipPath><clipPath
       id="clipPath29012"><path
         inkscape:connector-curvature="0"
         d="m 500,669.74 c 0,-3.037 2.463,-5.5 5.5,-5.5 3.037,0 5.5,2.463 5.5,5.5 0,3.038 -2.463,5.5 -5.5,5.5 -3.037,0 -5.5,-2.462 -5.5,-5.5"
         id="path119" /></clipPath><clipPath
       id="clipPath29040"><path
         inkscape:connector-curvature="0"
         d="m 494,680.74 c 0,-3.037 2.462,-5.5 5.5,-5.5 3.038,0 5.5,2.463 5.5,5.5 0,3.038 -2.462,5.5 -5.5,5.5 -3.038,0 -5.5,-2.462 -5.5,-5.5"
         id="path122" /></clipPath><clipPath
       id="clipPath29068"><path
         inkscape:connector-curvature="0"
         d="m 513,691.74 c 0,-3.037 2.463,-5.5 5.5,-5.5 3.037,0 5.5,2.463 5.5,5.5 0,3.037 -2.463,5.5 -5.5,5.5 -3.037,0 -5.5,-2.463 -5.5,-5.5"
         id="path125" /></clipPath><clipPath
       id="clipPath29096"><path
         inkscape:connector-curvature="0"
         d="m 513,669.74 c 0,-3.037 2.463,-5.5 5.5,-5.5 3.037,0 5.5,2.463 5.5,5.5 0,3.038 -2.463,5.5 -5.5,5.5 -3.037,0 -5.5,-2.462 -5.5,-5.5"
         id="path128" /></clipPath><clipPath
       id="clipPath29124"><path
         inkscape:connector-curvature="0"
         d="m 507,680.74 c 0,-3.037 2.463,-5.5 5.5,-5.5 3.037,0 5.5,2.463 5.5,5.5 0,3.038 -2.463,5.5 -5.5,5.5 -3.037,0 -5.5,-2.462 -5.5,-5.5"
         id="path131" /></clipPath><clipPath
       id="clipPath29152"><path
         inkscape:connector-curvature="0"
         d="m 520,680.74 c 0,-3.037 2.463,-5.5 5.5,-5.5 3.037,0 5.5,2.463 5.5,5.5 0,3.038 -2.463,5.5 -5.5,5.5 -3.037,0 -5.5,-2.462 -5.5,-5.5"
         id="path134" /></clipPath><clipPath
       id="clipPath29252"><path
         inkscape:connector-curvature="0"
         d="m 321,322.24 c -4.97,0 -9,-4.029 -9,-9 0,-4.97 4.03,-9 9,-9 h 45 c 4.971,0 9,4.03 9,9 0,4.971 -4.029,9 -9,9 z"
         id="path137" /></clipPath><clipPath
       id="clipPath29280"><path
         inkscape:connector-curvature="0"
         d="m 322,297.24 c -4.971,0 -9,-4.029 -9,-9 0,-4.97 4.029,-9 9,-9 h 45 c 4.971,0 9,4.03 9,9 0,4.971 -4.029,9 -9,9 z"
         id="path140" /></clipPath><clipPath
       id="clipPath29400"><path
         inkscape:connector-curvature="0"
         d="m 155,83.24 h 44 v 53 h -44 z"
         id="path143" /></clipPath><filter
       style="color-interpolation-filters:sRGB"
       id="filter954"
       x="-0.18000001"
       y="-0.18000001"
       width="1.36"
       height="1.36"><feGaussianBlur
         stdDeviation="0.11906016"
         id="feGaussianBlur161" /></filter><filter
       style="color-interpolation-filters:sRGB"
       id="filter962"
       x="-0.18000001"
       y="-0.18000001"
       width="1.36"
       height="1.36"><feGaussianBlur
         stdDeviation="0.11906016"
         id="feGaussianBlur164" /></filter><linearGradient
       id="linearGradient856"
       x1="-73.361"
       x2="-58.736"
       y1="6.9798999"
       y2="17.198"
       gradientTransform="matrix(1383.009,0,0,1383.009,79148.03,-9299.6301)"
       gradientUnits="userSpaceOnUse"><stop
         stop-color="#3c3c3c"
         offset="0"
         id="stop146"
         style="stop-color:#63a1d4;stop-opacity:0.99215686" /><stop
         stop-color="#1e1e1e"
         offset="1"
         id="stop148"
         style="stop-color:#1875c5;stop-opacity:1" /></linearGradient><clipPath
       id="clipPath13429-3"><path
         inkscape:connector-curvature="0"
         d="m 481,318 h 22 v 22 h -22 z"
         id="path2-5" /></clipPath><clipPath
       id="clipPath13465-6"><path
         inkscape:connector-curvature="0"
         d="m 507,318 h 22 v 22 h -22 z"
         id="path5-2" /></clipPath><clipPath
       id="clipPath13501-9"><path
         inkscape:connector-curvature="0"
         d="m 530,318 h 22 v 22 h -22 z"
         id="path8-1" /></clipPath><clipPath
       id="clipPath13753-2"><path
         inkscape:connector-curvature="0"
         d="m 672,1064 c 0,-1.105 4.925,-2 11,-2 6.075,0 11,0.895 11,2 0,1.105 -4.925,2 -11,2 -6.075,0 -11,-0.895 -11,-2"
         id="path11-7" /></clipPath><clipPath
       id="clipPath13771-0"><path
         inkscape:connector-curvature="0"
         d="m 660,1057 h 51 v 65.001 h -51 z"
         id="path14-9" /></clipPath><clipPath
       id="clipPath14035-3"><path
         inkscape:connector-curvature="0"
         d="m 659,517 h 53 v 18 h -53 z"
         id="path17-6" /></clipPath><clipPath
       id="clipPath14127-0"><path
         inkscape:connector-curvature="0"
         d="m 659,500 h 53 v 18 h -53 z"
         id="path20-6" /></clipPath><clipPath
       id="clipPath14445-2"><path
         inkscape:connector-curvature="0"
         d="m 648,112 h 73 v 60 h -73 z"
         id="path23-6" /></clipPath><clipPath
       id="clipPath14609-1"><path
         inkscape:connector-curvature="0"
         d="m 826,1056 h 59 v 60 h -59 z"
         id="path26-8" /></clipPath><clipPath
       id="clipPath15305-7"><path
         inkscape:connector-curvature="0"
         d="M 805,276 H 905 V 376 H 805 Z"
         id="path29-9" /></clipPath><clipPath
       id="clipPath15341-2"><path
         inkscape:connector-curvature="0"
         d="m 145,1063.8 h 74.152 v 45.21 H 145 Z"
         id="path32-0" /></clipPath><clipPath
       id="clipPath15715-2"><path
         inkscape:connector-curvature="0"
         d="m 151,667 h 57 v 57 h -57 z"
         id="path35-3" /></clipPath><clipPath
       id="clipPath15807-7"><path
         inkscape:connector-curvature="0"
         d="m 154,697 h 51 v 51 h -51 z"
         id="path38-5" /></clipPath><clipPath
       id="clipPath16001-9"><path
         inkscape:connector-curvature="0"
         d="m 500.04,864.45 h 36.012 v 67.52 H 500.04 Z"
         id="path41-2" /></clipPath><clipPath
       id="clipPath16093-2"><path
         inkscape:connector-curvature="0"
         d="m 836,870.54 h 47 v 55.539 h -47 z"
         id="path44-8" /></clipPath><clipPath
       id="clipPath16477-9"><path
         inkscape:connector-curvature="0"
         d="m 318.03,702.35 h 62.848 v 37.991 H 318.03 Z"
         id="path47-7" /></clipPath><clipPath
       id="clipPath16579-3"><path
         inkscape:connector-curvature="0"
         d="m 485.03,133.35 h 62.847 v 37.991 H 485.03 Z"
         id="path50-6" /></clipPath><clipPath
       id="clipPath16709-1"><path
         inkscape:connector-curvature="0"
         d="m 493.37,677.93 h 45.643 v 68.067 H 493.37 Z"
         id="path53-2" /></clipPath><clipPath
       id="clipPath24218-9"><path
         inkscape:connector-curvature="0"
         d="m 144.34,1018.2 h 71.467 v 78 H 144.34 Z"
         id="path56-3" /></clipPath><clipPath
       id="clipPath24382-1"><path
         inkscape:connector-curvature="0"
         d="m 293.21,1068.6 66.323,-38.292 36.047,62.435 -66.323,38.292 z"
         id="path59-9" /></clipPath><clipPath
       id="clipPath24650-4"><path
         inkscape:connector-curvature="0"
         d="m 488.86,1054.5 h 10 v 10.706 h -10 z"
         id="path62-7" /></clipPath><clipPath
       id="clipPath24700-8"><path
         inkscape:connector-curvature="0"
         d="m 508,1066.8 h 10.001 v 10.705 H 508 Z"
         id="path65-4" /></clipPath><clipPath
       id="clipPath24750-5"><path
         inkscape:connector-curvature="0"
         d="m 525,1045.8 h 10 v 10.706 h -10 z"
         id="path68-0" /></clipPath><clipPath
       id="clipPath24864-3"><path
         inkscape:connector-curvature="0"
         d="m 836,1043.7 h 25.5 v 31.5 H 836 Z"
         id="path71-6" /></clipPath><clipPath
       id="clipPath24896-1"><path
         inkscape:connector-curvature="0"
         d="m 838,1062.2 h 24 v 24 h -24 z"
         id="path74-0" /></clipPath><clipPath
       id="clipPath25070-6"><path
         inkscape:connector-curvature="0"
         d="m 134,489.24 h 7 v 6 h -7 z"
         id="path77-3" /></clipPath><clipPath
       id="clipPath25100-2"><path
         inkscape:connector-curvature="0"
         d="m 216,489.24 h 7 v 6 h -7 z"
         id="path80-0" /></clipPath><clipPath
       id="clipPath25502-6"><path
         inkscape:connector-curvature="0"
         d="m 838,477.24 h 22 v 22 h -22 z"
         id="path83-1" /></clipPath><clipPath
       id="clipPath25686-5"><path
         inkscape:connector-curvature="0"
         d="m 704,1061.2 h 25 v 25 h -25 z"
         id="path86-5" /></clipPath><clipPath
       id="clipPath25788-4"><path
         inkscape:connector-curvature="0"
         d="m 663.04,1078.6 -1.808,-3.514 -21.07,-47.453 c 13.336,-18.439 48.336,-26.938 73.836,-3.439 0.842,0 6.476,6.246 6,7 l -18.386,25.895 c -0.483,0.765 -1.453,0.946 -2.177,0.431 l -15.505,-11.011 c -0.359,-0.255 -0.847,-0.153 -1.07,0.238 l -18.272,31.869 c -0.218,0.384 -0.502,0.578 -0.782,0.578 -0.282,0 -0.561,-0.197 -0.766,-0.594"
         id="path89-7" /></clipPath><clipPath
       id="clipPath26420-6"><path
         inkscape:connector-curvature="0"
         d="m 127,820.24 h 100 v 100 H 127 Z"
         id="path92-5" /></clipPath><clipPath
       id="clipPath26860-6"><path
         inkscape:connector-curvature="0"
         d="m 809,680.24 c 0,-22.092 17.908,-40 40,-40 22.092,0 40,17.908 40,40 0,22.091 -17.908,40 -40,40 -22.092,0 -40,-17.909 -40,-40"
         id="path95-9" /></clipPath><clipPath
       id="clipPath27506-3"><path
         inkscape:connector-curvature="0"
         d="m 658,469.24 h 44 v 45 h -44 z"
         id="path98-7" /></clipPath><clipPath
       id="clipPath27772-4"><path
         inkscape:connector-curvature="0"
         d="m 651,271.24 h 58 v 58 h -58 z"
         id="path101-5" /></clipPath><clipPath
       id="clipPath27864-2"><path
         inkscape:connector-curvature="0"
         d="m 662,307.24 h 38 v 8 h -38 z"
         id="path104-5" /></clipPath><clipPath
       id="clipPath28028-4"><path
         inkscape:connector-curvature="0"
         d="m 858.98,137.24 c 0.013,-0.101 0.021,-0.203 0.021,-0.307 v -6.693 h 15.75 c 1.237,0 2.25,-1.013 2.25,-2.25 v -11.25 l -27,-4.5 -27,4.5 v -2.25 l 27,-4.5 27,4.5 v -27 c 0,-1.237 -1.013,-2.25 -2.25,-2.25 h -49.5 c -1.237,0 -2.25,1.013 -2.25,2.25 v -4.25 h 54 v 54 z m -35.979,0 v -9.25 c 0,1.237 1.013,2.25 2.25,2.25 h 15.75 v 6.693 c 0,0.104 0.007,0.207 0.02,0.307 z m 22.5,-7 h 9 v 4.5 h -9 z m 1.125,-9 c -0.62,0 -1.125,-0.506 -1.125,-1.125 v -2.25 c 0,-0.619 0.505,-1.125 1.125,-1.125 h 6.75 c 0.619,0 1.125,0.506 1.125,1.125 v 2.25 c 0,0.619 -0.506,1.125 -1.125,1.125 z"
         id="path107-7" /></clipPath><clipPath
       id="clipPath28200-4"><path
         inkscape:connector-curvature="0"
         d="m 531.27,136.24 c 6.325,-2.29 10.727,-8.277 10.727,-15.484 0,-11.316 -10.2,-20.563 -25.65,-34.575 l -4.35,-3.941 -4.35,3.941 c -15.45,14.012 -25.65,23.259 -25.65,34.575 V 81.24 h 60 v 55 z m -26.983,0 c 2.995,-1.052 5.686,-2.883 7.71,-5.25 2.024,2.367 4.715,4.198 7.71,5.25 z m -22.29,0 v -15.484 c 0,7.207 4.402,13.194 10.727,15.484 z"
         id="path110-4" /></clipPath><clipPath
       id="clipPath28364-3"><path
         inkscape:connector-curvature="0"
         d="m 648,79.241 h 64 v 64 h -64 z"
         id="path113-0" /></clipPath><clipPath
       id="clipPath28984-7"><path
         inkscape:connector-curvature="0"
         d="m 500,691.74 c 0,-3.037 2.463,-5.5 5.5,-5.5 3.037,0 5.5,2.463 5.5,5.5 0,3.037 -2.463,5.5 -5.5,5.5 -3.037,0 -5.5,-2.463 -5.5,-5.5"
         id="path116-8" /></clipPath><clipPath
       id="clipPath29012-6"><path
         inkscape:connector-curvature="0"
         d="m 500,669.74 c 0,-3.037 2.463,-5.5 5.5,-5.5 3.037,0 5.5,2.463 5.5,5.5 0,3.038 -2.463,5.5 -5.5,5.5 -3.037,0 -5.5,-2.462 -5.5,-5.5"
         id="path119-8" /></clipPath><clipPath
       id="clipPath29040-8"><path
         inkscape:connector-curvature="0"
         d="m 494,680.74 c 0,-3.037 2.462,-5.5 5.5,-5.5 3.038,0 5.5,2.463 5.5,5.5 0,3.038 -2.462,5.5 -5.5,5.5 -3.038,0 -5.5,-2.462 -5.5,-5.5"
         id="path122-4" /></clipPath><clipPath
       id="clipPath29068-3"><path
         inkscape:connector-curvature="0"
         d="m 513,691.74 c 0,-3.037 2.463,-5.5 5.5,-5.5 3.037,0 5.5,2.463 5.5,5.5 0,3.037 -2.463,5.5 -5.5,5.5 -3.037,0 -5.5,-2.463 -5.5,-5.5"
         id="path125-1" /></clipPath><clipPath
       id="clipPath29096-4"><path
         inkscape:connector-curvature="0"
         d="m 513,669.74 c 0,-3.037 2.463,-5.5 5.5,-5.5 3.037,0 5.5,2.463 5.5,5.5 0,3.038 -2.463,5.5 -5.5,5.5 -3.037,0 -5.5,-2.462 -5.5,-5.5"
         id="path128-9" /></clipPath><clipPath
       id="clipPath29124-2"><path
         inkscape:connector-curvature="0"
         d="m 507,680.74 c 0,-3.037 2.463,-5.5 5.5,-5.5 3.037,0 5.5,2.463 5.5,5.5 0,3.038 -2.463,5.5 -5.5,5.5 -3.037,0 -5.5,-2.462 -5.5,-5.5"
         id="path131-0" /></clipPath><clipPath
       id="clipPath29152-6"><path
         inkscape:connector-curvature="0"
         d="m 520,680.74 c 0,-3.037 2.463,-5.5 5.5,-5.5 3.037,0 5.5,2.463 5.5,5.5 0,3.038 -2.463,5.5 -5.5,5.5 -3.037,0 -5.5,-2.462 -5.5,-5.5"
         id="path134-8" /></clipPath><clipPath
       id="clipPath29252-9"><path
         inkscape:connector-curvature="0"
         d="m 321,322.24 c -4.97,0 -9,-4.029 -9,-9 0,-4.97 4.03,-9 9,-9 h 45 c 4.971,0 9,4.03 9,9 0,4.971 -4.029,9 -9,9 z"
         id="path137-2" /></clipPath><clipPath
       id="clipPath29280-6"><path
         inkscape:connector-curvature="0"
         d="m 322,297.24 c -4.971,0 -9,-4.029 -9,-9 0,-4.97 4.029,-9 9,-9 h 45 c 4.971,0 9,4.03 9,9 0,4.971 -4.029,9 -9,9 z"
         id="path140-6" /></clipPath><clipPath
       id="clipPath29400-4"><path
         inkscape:connector-curvature="0"
         d="m 155,83.24 h 44 v 53 h -44 z"
         id="path143-9" /></clipPath><filter
       style="color-interpolation-filters:sRGB"
       id="filter954-5"
       x="-0.18000001"
       y="-0.18000001"
       width="1.36"
       height="1.36"><feGaussianBlur
         stdDeviation="0.11906016"
         id="feGaussianBlur161-0" /></filter><filter
       style="color-interpolation-filters:sRGB"
       id="filter962-4"
       x="-0.18000001"
       y="-0.18000001"
       width="1.36"
       height="1.36"><feGaussianBlur
         stdDeviation="0.11906016"
         id="feGaussianBlur164-8" /></filter><linearGradient
       id="linearGradient856-7"
       x1="-73.361"
       x2="-58.736"
       y1="6.9798999"
       y2="17.198"
       gradientTransform="matrix(1383.009,0,0,1383.009,67821.192,-10519.045)"
       gradientUnits="userSpaceOnUse"><stop
         stop-color="#3c3c3c"
         offset="0"
         id="stop146-1"
         style="stop-color:#63a1d4;stop-opacity:0.99215686" /><stop
         stop-color="#1e1e1e"
         offset="1"
         id="stop148-7"
         style="stop-color:#1875c5;stop-opacity:1" /></linearGradient><filter
       style="color-interpolation-filters:sRGB"
       id="filter1072-5-3"
       x="-0.099600002"
       y="-0.072624996"
       width="1.1992"
       height="1.1452"><feGaussianBlur
         stdDeviation="0.38429972"
         id="feGaussianBlur27-3-6" /></filter><filter
       style="color-interpolation-filters:sRGB"
       id="filter1058-9-7"
       x="-0.092515998"
       y="-0.076918997"
       width="1.1849999"
       height="1.1538"><feGaussianBlur
         stdDeviation="0.46236326"
         id="feGaussianBlur24-1-5" /></filter><linearGradient
       id="linearGradient1050-2-3"
       x1="-66.237"
       x2="-59.584999"
       y1="21.254999"
       y2="31.868"
       gradientTransform="matrix(2.9537189,0,0,2.9537189,250.09559,-5.9386127)"
       gradientUnits="userSpaceOnUse"><stop
         stop-color="#fff"
         offset="0"
         id="stop19-7-5" /><stop
         stop-color="#d2d2d2"
         offset="1"
         id="stop21-0-6" /></linearGradient><linearGradient
       id="linearGradient1109"
       x1="720.94"
       x2="626.77002"
       y1="456.88"
       y2="819.08002"
       gradientUnits="userSpaceOnUse"
       xlink:href="#linearGradient1107" /><linearGradient
       id="linearGradient1107"><stop
         stop-color="#505050"
         offset="0"
         id="stop2" /><stop
         stop-color="#0a0a0a"
         offset="1"
         id="stop4" /></linearGradient></defs><sodipodi:namedview
     pagecolor="#ffffff"
     bordercolor="#666666"
     borderopacity="1"
     objecttolerance="10"
     gridtolerance="10"
     guidetolerance="10"
     inkscape:pageopacity="0"
     inkscape:pageshadow="2"
     inkscape:window-width="1280"
     inkscape:window-height="954"
     id="namedview53"
     showgrid="false"
     inkscape:zoom="5.6568543"
     inkscape:cx="1.1621197"
     inkscape:cy="-6.2244838"
     inkscape:window-x="0"
     inkscape:window-y="0"
     inkscape:window-maximized="1"
     inkscape:current-layer="Layer_1"
     units="px" /><g
     style="fill:#5e4aa6;stroke-width:0.26458001"
     transform="matrix(1889.801,0,0,1889.801,286322.21,189935.91)"
     id="g179"><circle
       cx="-330.35001"
       cy="-328.38"
       r="0"
       id="circle171" /><circle
       cx="-312.10999"
       cy="-326.25"
       r="0"
       id="circle173" /><circle
       cx="-306.01999"
       cy="-333.07001"
       r="0"
       id="circle175" /><circle
       cx="-308.84"
       cy="-326.01001"
       r="0"
       id="circle177" /></g><g
     style="fill:#5e4aa6;stroke-width:0.26458001"
     transform="matrix(1889.801,0,0,1889.801,429493.54,206007.96)"
     id="g195"><g
       transform="translate(-21.833,0.89722)"
       id="g189"><circle
         cx="-330.35001"
         cy="-328.38"
         r="0"
         id="circle181" /><circle
         cx="-312.10999"
         cy="-326.25"
         r="0"
         id="circle183" /><circle
         cx="-306.01999"
         cy="-333.07001"
         r="0"
         id="circle185" /><circle
         cx="-308.84"
         cy="-326.01001"
         r="0"
         id="circle187" /></g><circle
       cx="-284.23001"
       cy="-330.42001"
       r="0"
       id="circle191" /><circle
       style="fill-rule:evenodd"
       cx="6.6785998"
       cy="4.3997998"
       r="0"
       id="circle193" /></g><g
     transform="matrix(666.6651,0,0,-666.6651,805080.15,665037.59)"
     id="g203"><g
       clip-path="url(#clipPath13429-3)"
       id="g201"><g
         transform="translate(448,326)"
         id="g199"><path
           style="fill:#ffffff;fill-rule:evenodd"
           inkscape:connector-curvature="0"
           d="M 0,0 C 3.866,0 7,3.134 7,7 7,10.866 3.866,14 0,14 -3.866,14 -7,10.866 -7,7 -7,3.134 -3.866,0 0,0"
           id="path197" /></g></g></g><g
     transform="matrix(666.6651,0,0,-666.6651,805080.15,665037.59)"
     id="g211"><g
       clip-path="url(#clipPath13465-6)"
       id="g209"><g
         transform="translate(474,326)"
         id="g207"><path
           style="fill:#ffffff;fill-rule:evenodd"
           inkscape:connector-curvature="0"
           d="M 0,0 C 3.866,0 7,3.134 7,7 7,10.866 3.866,14 0,14 -3.866,14 -7,10.866 -7,7 -7,3.134 -3.866,0 0,0"
           id="path205" /></g></g></g><g
     transform="matrix(666.6651,0,0,-666.6651,805080.15,665037.59)"
     id="g219"><g
       clip-path="url(#clipPath13501-9)"
       id="g217"><g
         transform="translate(497,326)"
         id="g215"><path
           style="fill:#ffffff;fill-rule:evenodd"
           inkscape:connector-curvature="0"
           d="M 0,0 C 3.866,0 7,3.134 7,7 7,10.866 3.866,14 0,14 -3.866,14 -7,10.866 -7,7 -7,3.134 -3.866,0 0,0"
           id="path213" /></g></g></g><g
     transform="matrix(666.6651,0,0,-666.6651,805080.15,665037.59)"
     id="g225"><g
       clip-path="url(#clipPath13753-2)"
       id="g223"><path
         style="fill:#ffffff;fill-rule:evenodd"
         inkscape:connector-curvature="0"
         d="m 593,1073 h 36 v -18 h -36 z m 18,-11 c 6.075,0 11,0.895 11,2 0,1.105 -4.925,2 -11,2 -6.075,0 -11,-0.895 -11,-2 0,-1.105 4.925,-2 11,-2"
         id="path221" /></g></g><g
     transform="matrix(666.6651,0,0,-666.6651,805080.15,665037.59)"
     id="g233"><g
       clip-path="url(#clipPath13771-0)"
       id="g231"><g
         transform="translate(583.42,1063)"
         id="g229"><path
           style="fill:#ffffff"
           inkscape:connector-curvature="0"
           d="M 0,0 C 0,0 21.582,23.182 21.582,35.147 21.582,47.195 11.898,57 0,57 c -11.816,0 -21.418,-9.805 -21.418,-21.853 0,-8.06 9.766,-21.188 16.002,-28.832 z m 0,42.542 c 3.938,0 7.14,-3.323 7.14,-7.395 0,-3.822 -3.202,-7.146 -7.14,-7.146 -3.856,0 -7.222,3.324 -7.222,7.146 0,4.072 3.366,7.395 7.222,7.395"
           id="path227" /></g></g></g><g
     transform="matrix(666.6651,0,0,-666.6651,805080.15,665037.59)"
     id="g241"><g
       clip-path="url(#clipPath14035-3)"
       id="g239"><g
         transform="translate(562,535)"
         id="g237"><path
           style="fill:#ffffff;fill-rule:evenodd"
           inkscape:connector-curvature="0"
           d="m 0,0 h 35 c 2.762,0 5,-2.238 5,-5 0,-2.762 -2.238,-5 -5,-5 H 0 c -2.762,0 -5,2.238 -5,5 0,2.762 2.238,5 5,5"
           id="path235" /></g></g></g><g
     transform="matrix(666.6651,0,0,-666.6651,805080.15,665037.59)"
     id="g249"><g
       clip-path="url(#clipPath14127-0)"
       id="g247"><g
         transform="translate(562,518)"
         id="g245"><path
           style="fill:#ffffff;fill-rule:evenodd"
           inkscape:connector-curvature="0"
           d="m 0,0 h 35 c 2.762,0 5,-2.238 5,-5 0,-2.762 -2.238,-5 -5,-5 H 0 c -2.762,0 -5,2.238 -5,5 0,2.762 2.238,5 5,5"
           id="path243" /></g></g></g><g
     transform="matrix(666.6651,0,0,-666.6651,805080.15,665037.59)"
     id="g257"><g
       clip-path="url(#clipPath14445-2)"
       id="g255"><g
         transform="translate(536.43,133.83)"
         id="g253"><path
           style="fill:#ffffff"
           inkscape:connector-curvature="0"
           d="M 0,0 C -10.01,-12.916 -22.288,-9.047 -24.23,-8.072 -29.077,-6.779 -30.694,1.943 -24.556,4.846 -14.538,8.072 -5.496,4.521 0.968,1.293 0.324,0.326 0,0 0,0 m 10.667,3.553 c 4.521,8.072 6.139,15.826 6.139,15.826 H 1.617 v 5.812 h 17.767 v 2.26 H 1.617 v 8.723 h -8.074 v -8.723 h -16.156 v -2.584 h 16.156 v -5.812 h -13.57 V 16.47 H 7.756 c 0,-0.325 0,-0.325 -0.324,-0.968 0,-2.909 -1.936,-6.779 -3.554,-10.014 -20.677,8.079 -26.491,3.235 -28.108,2.584 -13.564,-9.689 -0.968,-21.963 1.293,-21.638 14.538,-3.227 23.905,2.91 30.369,10.657 0.324,-0.325 0.967,-0.325 1.292,-0.325 4.528,-2.578 25.848,-12.592 25.848,-12.592 V -3.552 C 30.694,-3.227 19.066,0.643 10.667,3.553"
           id="path251" /></g></g></g><g
     transform="matrix(666.6651,0,0,-666.6651,805080.15,665037.59)"
     id="g265"><g
       clip-path="url(#clipPath14609-1)"
       id="g263"><g
         transform="translate(720.03,1091.5)"
         id="g261"><path
           style="fill:#ffffff"
           inkscape:connector-curvature="0"
           d="m 0,0 c -0.149,0.354 -0.224,0.837 -0.224,1.451 0,0.372 0.103,0.828 0.306,1.368 0.205,0.539 0.428,0.958 0.671,1.256 -0.019,0.409 0.051,0.902 0.209,1.478 0.159,0.576 0.368,0.976 0.629,1.2 0,2.586 0.86,5.269 2.581,8.05 1.722,2.782 3.744,4.73 6.07,5.846 2.585,1.228 5.6,1.842 9.041,1.842 2.475,0 4.949,-0.511 7.423,-1.534 0.912,-0.391 1.749,-0.837 2.512,-1.34 0.762,-0.502 1.423,-1.022 1.981,-1.562 0.559,-0.54 1.07,-1.172 1.534,-1.897 0.465,-0.725 0.856,-1.413 1.172,-2.064 0.318,-0.651 0.619,-1.437 0.908,-2.358 0.287,-0.921 0.524,-1.753 0.71,-2.497 0.186,-0.744 0.391,-1.655 0.614,-2.734 l 0.028,-0.14 C 37.188,4.822 37.7,3.426 37.7,2.179 37.7,1.919 37.616,1.547 37.448,1.064 37.28,0.58 37.196,0.227 37.196,0.003 c 0,-0.019 0.015,-0.052 0.043,-0.099 0.028,-0.047 0.061,-0.093 0.098,-0.139 0.038,-0.046 0.057,-0.077 0.057,-0.098 1.432,-2.121 2.553,-4.116 3.363,-5.985 0.809,-1.869 1.214,-3.808 1.214,-5.817 0,-0.8 -0.182,-1.73 -0.544,-2.791 -0.363,-1.06 -0.879,-1.59 -1.549,-1.59 -0.167,0 -0.349,0.069 -0.544,0.209 -0.194,0.14 -0.371,0.303 -0.529,0.489 -0.159,0.186 -0.335,0.428 -0.53,0.725 -0.195,0.297 -0.344,0.543 -0.447,0.739 -0.103,0.196 -0.228,0.438 -0.377,0.725 -0.147,0.288 -0.231,0.451 -0.251,0.489 -0.019,0.019 -0.047,0.028 -0.085,0.028 l -0.138,-0.111 c -1.099,-2.864 -2.327,-4.938 -3.684,-6.222 0.372,-0.372 0.944,-0.73 1.716,-1.075 0.772,-0.345 1.414,-0.73 1.925,-1.158 0.511,-0.426 0.841,-1.031 0.991,-1.814 -0.037,-0.074 -0.074,-0.223 -0.112,-0.447 -0.036,-0.224 -0.101,-0.391 -0.195,-0.501 -1.19,-1.804 -4,-2.706 -8.427,-2.706 -0.986,0 -2.013,0.084 -3.084,0.251 -1.069,0.168 -1.981,0.354 -2.734,0.558 -0.753,0.204 -1.726,0.483 -2.916,0.837 -0.279,0.093 -0.493,0.158 -0.643,0.196 -0.259,0.075 -0.687,0.115 -1.282,0.125 -0.595,0.009 -0.967,0.023 -1.116,0.042 -0.763,-0.838 -1.949,-1.442 -3.559,-1.814 -1.609,-0.372 -3.176,-0.558 -4.702,-0.558 -0.65,0 -1.293,0.014 -1.925,0.042 -0.632,0.028 -1.498,0.113 -2.595,0.252 -1.098,0.139 -2.038,0.33 -2.82,0.572 -0.781,0.241 -1.473,0.613 -2.078,1.115 -0.604,0.502 -0.906,1.098 -0.906,1.786 0,0.744 0.093,1.298 0.279,1.661 0.187,0.364 0.569,0.815 1.144,1.353 0.205,0.038 0.581,0.159 1.131,0.363 0.549,0.204 1.009,0.316 1.381,0.334 0.074,0 0.204,0.019 0.39,0.057 0.038,0.037 0.057,0.074 0.057,0.111 l -0.057,0.084 c -0.892,0.204 -1.897,1.185 -3.014,2.944 -1.117,1.758 -1.796,3.214 -2.038,4.367 l -0.139,0.084 c -0.074,0 -0.186,-0.185 -0.334,-0.557 -0.335,-0.763 -0.842,-1.455 -1.521,-2.079 -0.679,-0.622 -1.4,-0.971 -2.163,-1.046 h -0.028 c -0.073,0 -0.129,0.041 -0.167,0.125 -0.037,0.083 -0.084,0.134 -0.139,0.153 -0.428,1.004 -0.642,1.934 -0.642,2.79 0,5.116 2.343,9.45 7.032,13.002 z"
           id="path259" /></g></g></g><g
     transform="matrix(666.6651,0,0,-666.6651,805080.15,665037.59)"
     id="g273"><g
       clip-path="url(#clipPath15305-7)"
       id="g271"><g
         transform="translate(655,300)"
         id="g269"><path
           style="fill:none;stroke:#ffffff;stroke-width:8;stroke-miterlimit:10"
           inkscape:connector-curvature="0"
           d="M 0,0 C 16.568,0 30,13.432 30,30 30,46.568 16.568,60 0,60 -16.568,60 -30,46.568 -30,30 -30,13.432 -16.568,0 0,0 Z"
           stroke-miterlimit="10"
           id="path267" /></g></g></g><g
     transform="matrix(666.6651,0,0,-666.6651,805080.15,665037.59)"
     id="g281"><g
       clip-path="url(#clipPath15341-2)"
       id="g279"><g
         transform="translate(66.849,1083.1)"
         id="g277"><path
           style="fill:#ffffff"
           inkscape:connector-curvature="0"
           d="m 0,0 c 0,5.302 -3.661,9.749 -8.591,10.948 -0.209,8.314 -7.006,14.991 -15.366,14.991 -4.897,0 -9.254,-2.293 -12.07,-5.861 -1.579,2.041 -4.05,3.358 -6.828,3.358 -4.769,0 -8.633,-3.868 -8.633,-8.639 0,-0.416 0.031,-0.825 0.089,-1.224 -0.726,0.13 -1.47,0.203 -2.232,0.203 -6.913,0 -12.515,-5.607 -12.515,-12.524 0,-6.916 5.602,-12.523 12.515,-12.523 h 42.394 c 6.21,0.013 11.241,5.053 11.241,11.269 z"
           id="path275" /></g></g></g><g
     transform="matrix(666.6651,0,0,-666.6651,805080.15,665037.59)"
     id="g289"><g
       clip-path="url(#clipPath15715-2)"
       id="g287"><g
         transform="translate(65.5,681)"
         id="g285"><path
           style="fill:none;stroke:#ffffff;stroke-width:4;stroke-miterlimit:10"
           inkscape:connector-curvature="0"
           d="M 0,0 C 9.113,0 16.5,7.387 16.5,16.5 16.5,25.613 9.113,33 0,33 -9.113,33 -16.5,25.613 -16.5,16.5 -16.5,7.387 -9.113,0 0,0 Z"
           stroke-miterlimit="10"
           id="path283" /></g></g></g><g
     transform="matrix(666.6651,0,0,-666.6651,805080.15,665037.59)"
     id="g297"><g
       clip-path="url(#clipPath15807-7)"
       id="g295"><g
         transform="translate(77.5,711)"
         id="g293"><path
           style="fill:none;stroke:#ffffff;stroke-width:4;stroke-miterlimit:10"
           inkscape:connector-curvature="0"
           d="M 0,0 C 7.456,0 13.5,6.044 13.5,13.5 13.5,20.956 7.456,27 0,27 -7.456,27 -13.5,20.956 -13.5,13.5 -13.5,6.044 -7.456,0 0,0 Z"
           stroke-miterlimit="10"
           id="path291" /></g></g></g><g
     transform="matrix(666.6651,0,0,-666.6651,805080.15,665037.59)"
     id="g305"><g
       clip-path="url(#clipPath16001-9)"
       id="g303"><g
         transform="translate(455.91,931.53)"
         id="g301"><path
           style="fill:#ffffff"
           inkscape:connector-curvature="0"
           d="m 0,0 c -0.742,-1.039 -4.75,-2.821 -8.165,-3.563 -4.305,-0.891 -6.531,-1.633 -8.758,-2.82 -2.969,-1.782 -4.601,-4.009 -4.305,-6.087 0.149,-0.445 3.711,-5.64 7.868,-11.578 4.304,-5.938 7.868,-10.985 8.016,-11.134 0.149,-0.297 -0.445,-0.297 -2.524,-0.148 -6.531,0.445 -12.469,-2.969 -15.142,-8.314 -0.742,-1.632 -0.89,-2.523 -0.89,-4.453 0,-4.453 2.376,-8.016 6.829,-10.094 1.781,-0.742 2.375,-0.891 6.086,-0.891 4.007,0 4.156,0 6.829,1.336 7.125,3.414 10.093,10.095 7.125,16.181 -0.594,1.336 -4.305,7.719 -8.313,14.251 l -7.274,12.024 h 1.187 c 4.75,0.297 8.017,1.781 10.244,4.305 1.929,2.227 2.523,4.453 2.374,8.016 C 1.039,0.297 0.742,1.039 0,0"
           id="path299" /></g></g></g><g
     transform="matrix(666.6651,0,0,-666.6651,805080.15,665037.59)"
     id="g313"><g
       clip-path="url(#clipPath16093-2)"
       id="g311"><g
         transform="translate(784,902.31)"
         id="g309"><path
           style="fill:#ffffff"
           inkscape:connector-curvature="0"
           d="m 0,0 c 0,-1.565 -0.904,-2.931 -2.251,-3.674 l -27.781,-18.472 c -0.012,-0.008 -0.026,-0.014 -0.037,-0.02 l -0.017,-0.011 c -0.684,-0.376 -1.48,-0.592 -2.331,-0.592 -2.53,0 -4.583,1.913 -4.583,4.269 v 37 c 0,2.356 2.053,4.27 4.583,4.27 0.851,0 1.647,-0.217 2.331,-0.596 l 0.017,-0.008 c 0.011,-0.009 0.022,-0.014 0.037,-0.02 L -2.251,3.675 C -0.904,2.932 0,1.565 0,0"
           id="path307" /></g></g></g><g
     transform="matrix(666.6651,0,0,-666.6651,805080.15,665037.59)"
     id="g321"><g
       clip-path="url(#clipPath16477-9)"
       id="g319"><g
         transform="translate(223.75,708.35)"
         id="g317"><path
           style="fill:#ffffff;fill-rule:evenodd"
           inkscape:connector-curvature="0"
           d="m 0,0 c -15.123,0 -27.418,12.329 -27.418,27.486 0,1.382 1.111,2.505 2.487,2.505 1.379,0 2.499,-1.123 2.499,-2.505 0,-12.4 10.06,-22.487 22.432,-22.487 12.375,0 22.443,10.087 22.443,22.487 0,1.382 1.112,2.505 2.488,2.505 1.378,0 2.499,-1.123 2.499,-2.505 C 27.43,12.329 15.126,0 0,0"
           id="path315" /></g></g></g><g
     transform="matrix(666.6651,0,0,-666.6651,805080.15,665037.59)"
     id="g329"><g
       clip-path="url(#clipPath16579-3)"
       id="g327"><g
         transform="translate(390.75,139.35)"
         id="g325"><path
           style="fill:#ffffff;fill-rule:evenodd"
           inkscape:connector-curvature="0"
           d="m 0,0 c -15.123,0 -27.418,12.329 -27.418,27.485 0,1.383 1.111,2.506 2.487,2.506 1.379,0 2.499,-1.123 2.499,-2.506 0,-12.398 10.06,-22.486 22.432,-22.486 12.375,0 22.443,10.088 22.443,22.486 0,1.383 1.112,2.506 2.488,2.506 1.378,0 2.499,-1.123 2.499,-2.506 C 27.43,12.329 15.126,0 0,0"
           id="path323" /></g></g></g><g
     transform="matrix(666.6651,0,0,-666.6651,805080.15,665037.59)"
     id="g337"><g
       clip-path="url(#clipPath16709-1)"
       id="g335"><g
         transform="translate(423.93,686.39)"
         id="g333"><path
           style="fill:#ffffff"
           inkscape:connector-curvature="0"
           d="m 0,0 c 0.245,-0.286 0.605,-0.456 0.986,-0.456 0.382,0 0.743,0.17 0.988,0.456 L 19.49,20.497 c 0.333,0.388 0.408,0.933 0.191,1.388 -0.211,0.463 -0.674,0.756 -1.184,0.756 h -9.93 c -2.118,4.172 -3.109,8.382 -2.973,12.63 0.135,4.248 1.954,12.361 5.455,24.34 C 0.093,53.021 -6.607,41.171 -6.607,28.386 v -5.745 h -9.93 c -0.51,0 -0.966,-0.293 -1.184,-0.756 -0.211,-0.462 -0.135,-1 0.191,-1.388 z"
           id="path331" /></g></g></g><g
     transform="matrix(666.6651,0,0,-666.6651,738615.85,742897.44)"
     id="g345"><g
       clip-path="url(#clipPath24218-9)"
       id="g343"><g
         transform="translate(9.1685,1040.9)"
         id="g341"><path
           style="fill:#ffffff;fill-rule:evenodd"
           inkscape:connector-curvature="0"
           d="M 0,0 25.314,21.067 -0.763,39.718 c 5.846,7.671 15.079,12.622 25.468,12.622 17.673,0 32,-14.327 32,-32 0,-17.673 -14.327,-32 -32,-32 C 14.757,-11.66 5.869,-7.121 0,0 m 27.349,31.812 c 2.835,0 5.132,2.297 5.132,5.132 0,2.834 -2.297,5.132 -5.132,5.132 -2.834,0 -5.132,-2.298 -5.132,-5.132 0,-2.835 2.298,-5.132 5.132,-5.132"
           id="path339" /></g></g></g><g
     transform="matrix(666.6651,0,0,-666.6651,738615.85,742897.44)"
     id="g353"><g
       clip-path="url(#clipPath24382-1)"
       id="g351"><g
         transform="translate(194.25,1130.3)"
         id="g349"><path
           style="fill:#ffffff;fill-rule:evenodd"
           inkscape:connector-curvature="0"
           d="M 0,0 C 20.173,-11.579 43.841,2 51.309,14.862 58.776,27.723 56.341,46 40.841,52.5 25.341,59 -4.646,59.111 -13.659,43.5 -22.672,27.889 -20.174,11.578 0,0"
           id="path347" /></g></g></g><g
     transform="matrix(666.6651,0,0,-666.6651,738615.85,742897.44)"
     id="g361"><g
       clip-path="url(#clipPath24650-4)"
       id="g359"><g
         transform="translate(473.86,1057.5)"
         id="g357"><path
           style="fill:#ffffff;fill-rule:evenodd"
           inkscape:connector-curvature="0"
           d="M 0,0 C 1.657,0 3,1.501 3,3.353 3,5.205 1.657,6.706 0,6.706 -1.656,6.706 -3,5.205 -3,3.353 -3,1.501 -1.656,0 0,0"
           id="path355" /></g></g></g><g
     transform="matrix(666.6651,0,0,-666.6651,738615.85,742897.44)"
     id="g369"><g
       clip-path="url(#clipPath24700-8)"
       id="g367"><g
         transform="translate(493,1069.8)"
         id="g365"><path
           style="fill:#ffffff;fill-rule:evenodd"
           inkscape:connector-curvature="0"
           d="M 0,0 C 1.657,0 3,1.501 3,3.353 3,5.205 1.657,6.706 0,6.706 -1.657,6.706 -3,5.205 -3,3.353 -3,1.501 -1.657,0 0,0"
           id="path363" /></g></g></g><g
     transform="matrix(666.6651,0,0,-666.6651,738615.85,742897.44)"
     id="g377"><g
       clip-path="url(#clipPath24750-5)"
       id="g375"><g
         transform="translate(510,1048.8)"
         id="g373"><path
           style="fill:#ffffff;fill-rule:evenodd"
           inkscape:connector-curvature="0"
           d="M 0,0 C 1.657,0 3,1.501 3,3.353 3,5.205 1.657,6.706 0,6.706 -1.657,6.706 -3,5.205 -3,3.353 -3,1.501 -1.657,0 0,0"
           id="path371" /></g></g></g><g
     transform="matrix(666.6651,0,0,-666.6651,738615.85,742897.44)"
     id="g385"><g
       clip-path="url(#clipPath24864-3)"
       id="g383"><g
         transform="translate(806.5,1072.2)"
         id="g381"><path
           style="fill:none;stroke:#ffffff;stroke-linecap:round;stroke-miterlimit:10"
           inkscape:connector-curvature="0"
           d="M 0,0 C -3.667,-14 -9.5,-21.833 -17.5,-23.5"
           stroke-miterlimit="10"
           id="path379" /></g></g></g><g
     transform="matrix(666.6651,0,0,-666.6651,738615.85,742897.44)"
     id="g393"><g
       clip-path="url(#clipPath24896-1)"
       id="g391"><g
         transform="translate(802,1066.2)"
         id="g389"><path
           style="fill:#ffffff;fill-rule:evenodd"
           inkscape:connector-curvature="0"
           d="m 0,0 c -4.971,0 -9,4.029 -9,9 0,4.971 4.029,9 9,9 C 4.971,18 9,13.971 9,9 9,4.029 4.971,0 0,0 m 0,6 c 1.657,0 3,1.343 3,3 0,1.657 -1.343,3 -3,3 -1.657,0 -3,-1.343 -3,-3 0,-1.657 1.343,-3 3,-3"
           id="path387" /></g></g></g><g
     transform="matrix(666.6651,0,0,-666.6651,738615.85,742897.44)"
     id="g401"><g
       clip-path="url(#clipPath25070-6)"
       id="g399"><g
         transform="translate(122,495.24)"
         id="g397"><path
           style="fill:#ffffff;fill-rule:evenodd"
           inkscape:connector-curvature="0"
           d="M 0,0 H 3 C 3.553,0 4,-0.447 4,-1 V -3 C 4,-3.553 3.553,-4 3,-4 H 0 c -0.553,0 -1,0.447 -1,1 v 2 c 0,0.553 0.447,1 1,1"
           id="path395" /></g></g></g><g
     transform="matrix(666.6651,0,0,-666.6651,738615.85,742897.44)"
     id="g409"><g
       clip-path="url(#clipPath25100-2)"
       id="g407"><g
         transform="translate(204,495.24)"
         id="g405"><path
           style="fill:#ffffff;fill-rule:evenodd"
           inkscape:connector-curvature="0"
           d="M 0,0 H 3 C 3.553,0 4,-0.447 4,-1 V -3 C 4,-3.553 3.553,-4 3,-4 H 0 c -0.553,0 -1,0.447 -1,1 v 2 c 0,0.553 0.447,1 1,1"
           id="path403" /></g></g></g><g
     transform="matrix(666.6651,0,0,-666.6651,738615.85,742897.44)"
     id="g417"><g
       clip-path="url(#clipPath25502-6)"
       id="g415"><g
         transform="translate(805,482.24)"
         id="g413"><path
           style="fill:#ffffff;fill-rule:evenodd"
           inkscape:connector-curvature="0"
           d="M 0,0 C 4.418,0 8,3.582 8,8 8,12.418 4.418,16 0,16 -4.418,16 -8,12.418 -8,8 -8,3.582 -4.418,0 0,0"
           id="path411" /></g></g></g><g
     transform="matrix(666.6651,0,0,-666.6651,738615.85,742897.44)"
     id="g425"><g
       clip-path="url(#clipPath25686-5)"
       id="g423"><g
         transform="translate(658,1075.7)"
         id="g421"><path
           style="fill:#ffffff"
           inkscape:connector-curvature="0"
           d="M 0,0 C 0,-4.694 3.806,-8.5 8.5,-8.5 13.194,-8.5 17,-4.694 17,0 17,4.694 13.194,8.5 8.5,8.5 3.806,8.5 0,4.694 0,0"
           id="path419" /></g></g></g><g
     transform="matrix(666.6651,0,0,-666.6651,738615.85,742897.44)"
     id="g431"><g
       clip-path="url(#clipPath25788-4)"
       id="g429"><path
         style="fill:#ffffff;fill-rule:evenodd"
         inkscape:connector-curvature="0"
         d="m 465.44,1082.2 h 85.864 v -75.319 H 465.44 Z m 64.45,-25.106 c -0.483,0.765 -1.453,0.947 -2.178,0.431 l -15.504,-11.01 c -0.359,-0.255 -0.847,-0.153 -1.071,0.238 l -18.271,31.869 c -0.438,0.771 -1.139,0.776 -1.549,-0.016 l -1.807,-3.514 -21.07,-47.452 c 13.336,-18.44 48.336,-26.94 73.836,-3.44 0.841,0 6.477,6.246 6,7 z"
         id="path427" /></g></g><g
     transform="matrix(666.6651,0,0,-666.6651,738615.85,742897.44)"
     id="g439"><g
       clip-path="url(#clipPath26420-6)"
       id="g437"><g
         transform="translate(-23,837.24)"
         id="g435"><path
           style="fill:none;stroke:#ffffff;stroke-width:8;stroke-miterlimit:10"
           inkscape:connector-curvature="0"
           d="M 0,0 C 18.778,0 34,15.222 34,34 34,52.778 18.778,68 0,68 -18.778,68 -34,52.778 -34,34 -34,15.222 -18.778,0 0,0 Z"
           stroke-miterlimit="10"
           id="path433" /></g></g></g><g
     transform="matrix(666.6651,0,0,-666.6651,738615.85,742897.44)"
     id="g445"><g
       clip-path="url(#clipPath26860-6)"
       id="g443"><path
         style="fill:#ffffff;fill-rule:evenodd"
         inkscape:connector-curvature="0"
         d="m 644,721.24 h 82 v -82 h -82 z m 41,-81 c 22.092,0 40,17.908 40,40 0,22.092 -17.908,40 -40,40 -22.092,0 -40,-17.908 -40,-40 0,-22.092 17.908,-40 40,-40"
         id="path441" /></g></g><g
     transform="matrix(666.6651,0,0,-666.6651,738615.85,742897.44)"
     id="g453"><g
       clip-path="url(#clipPath27506-3)"
       id="g451"><g
         transform="translate(613.88,476.03)"
         id="g449"><path
           style="fill:#ffffff"
           inkscape:connector-curvature="0"
           d="m 0,0 c 0.187,-0.771 0.148,-1.502 -0.116,-2.193 -0.266,-0.692 -0.678,-1.303 -1.239,-1.833 -0.561,-0.531 -1.247,-0.949 -2.057,-1.255 -0.81,-0.305 -1.683,-0.457 -2.617,-0.457 -5.889,-0.033 -11.156,-0.049 -15.798,-0.049 h -15.891 c -1.122,0 -2.111,0.209 -2.968,0.627 -0.857,0.418 -1.543,0.932 -2.056,1.543 -0.515,0.611 -0.858,1.279 -1.029,2.002 -0.171,0.723 -0.148,1.375 0.071,1.953 0.186,0.451 0.373,0.917 0.56,1.398 0.157,0.418 0.343,0.893 0.561,1.424 0.219,0.53 0.452,1.069 0.701,1.615 l 1.776,4.438 h 5.329 l -2.01,-6.077 h 30.099 l -2.009,6.077 h 5.094 C -2.944,7.573 -2.353,6.094 -1.822,4.775 -1.604,4.197 -1.387,3.635 -1.168,3.088 -0.95,2.541 -0.756,2.051 -0.584,1.616 -0.413,1.183 -0.272,0.812 -0.163,0.507 -0.055,0.201 0,0.033 0,0 m -22.922,9.236 c -0.601,0.698 -1.289,1.571 -2.064,2.618 -0.776,1.046 -1.575,2.125 -2.398,3.235 -0.822,1.11 -1.637,2.204 -2.443,3.283 -0.808,1.079 -1.527,2.015 -2.16,2.808 -0.728,0.856 -1.013,1.562 -0.855,2.117 0.158,0.555 0.696,0.832 1.614,0.832 0.506,-0.031 1.187,-0.024 2.041,0.024 0.855,0.048 1.567,0.072 2.136,0.072 0.633,0 1.029,0.19 1.187,0.57 0.158,0.381 0.237,0.889 0.237,1.523 0,0.698 -0.008,1.467 -0.024,2.308 -0.016,0.841 -0.024,1.705 -0.024,2.593 0,0.888 -0.008,1.76 -0.023,2.617 -0.016,0.856 -0.024,1.65 -0.024,2.379 0,0.318 0.024,0.65 0.071,1 0.047,0.348 0.158,0.666 0.333,0.951 0.173,0.285 0.426,0.523 0.758,0.714 0.332,0.19 0.784,0.285 1.353,0.285 0.665,0 1.274,0.009 1.827,0.024 0.555,0.016 1.195,0.024 1.923,0.024 1.044,0 1.748,-0.246 2.112,-0.737 0.364,-0.492 0.562,-1.277 0.593,-2.356 v -1.855 c 0,-0.73 0.008,-1.507 0.023,-2.331 0.017,-0.826 0.025,-1.651 0.025,-2.475 v -2.236 c 0,-0.92 0.095,-1.659 0.284,-2.213 0.191,-0.555 0.617,-0.817 1.282,-0.785 0.475,0 1.052,-0.016 1.732,-0.047 0.68,-0.032 1.274,-0.049 1.78,-0.049 0.855,0 1.4,-0.23 1.638,-0.69 0.237,-0.46 0.071,-1.054 -0.498,-1.784 -0.602,-0.76 -1.298,-1.68 -2.089,-2.759 -0.791,-1.08 -1.606,-2.197 -2.445,-3.355 -0.838,-1.158 -1.661,-2.284 -2.467,-3.379 -0.807,-1.094 -1.528,-2.037 -2.16,-2.83 -0.57,-0.73 -1.116,-1.103 -1.637,-1.119 -0.523,-0.016 -1.069,0.326 -1.638,1.023"
           id="path447" /></g></g></g><g
     transform="matrix(666.6651,0,0,-666.6651,738615.85,742897.44)"
     id="g461"><g
       clip-path="url(#clipPath27772-4)"
       id="g459"><g
         transform="translate(588.67,331.24)"
         id="g457"><path
           style="fill:#ffffff"
           inkscape:connector-curvature="0"
           d="m 0,0 h -49.301 c -2.41,0 -4.367,-1.941 -4.367,-4.299 v -49.402 c 0,-2.393 1.957,-4.299 4.367,-4.299 H 0 c 2.41,0 4.332,1.941 4.332,4.299 V -4.334 C 4.332,-1.941 2.375,0 0,0 m -33.403,-53.008 h -8.839 v 6.795 h 8.839 z m -8.91,24.58 h 8.84 v -6.795 h -8.84 z m 8.945,-15.566 h -8.84 v 6.795 h 8.84 z m 12.998,-9.014 h -8.84 v 6.795 h 8.84 z m -8.91,24.58 h 8.84 v -6.795 h -8.84 z m 8.944,-15.566 h -8.839 v 6.795 h 8.839 z m 13.277,-9.014 h -8.84 v 6.795 h 8.84 z m -8.909,24.58 h 8.84 v -6.795 h -8.84 z m 8.945,-15.566 h -8.84 v 6.795 h 8.84 z m 5.276,24.441 c 0,-2.392 -1.957,-4.299 -4.368,-4.299 h -37.77 c -2.411,-0.035 -4.367,1.907 -4.367,4.299 v 10.054 c 0,2.392 1.956,4.333 4.332,4.333 h 37.805 c 2.411,0 4.368,-1.941 4.368,-4.333 z"
           id="path455" /></g></g></g><g
     transform="matrix(666.6651,0,0,-666.6651,738615.85,742897.44)"
     id="g469"><g
       clip-path="url(#clipPath27864-2)"
       id="g467"><g
         transform="translate(609.3,312.46)"
         id="g465"><path
           style="fill:#ffffff"
           inkscape:connector-curvature="0"
           d="m 0,0 h -0.72 c -0.206,0 -0.377,0 -0.514,-0.212 -0.103,-0.142 -0.103,-0.283 -0.103,-0.46 v -0.566 c 0,-0.178 0,-0.319 0.103,-0.461 0.137,-0.212 0.308,-0.212 0.514,-0.212 H 0 c 0.205,0 0.376,0 0.514,0.212 0.102,0.142 0.102,0.283 0.102,0.461 v 0.566 c 0,0.213 0,0.318 -0.102,0.46 C 0.376,0 0.239,0 0,0 M -5.003,4.779 H -7.95 c -0.548,0 -0.993,-0.46 -0.993,-1.026 V 1.346 h 0.993 v 2.407 h 2.947 V 1.346 h 0.993 v 2.407 c 0,0.566 -0.445,1.026 -0.993,1.026 m 0,-6.973 H -7.95 v 2.407 h -0.993 v -2.407 c 0,-0.567 0.411,-1.027 0.993,-1.027 h 2.947 c 0.582,0 0.993,0.46 0.993,1.027 v 2.407 h -0.993 z m -14.357,0 h -2.947 V 0.39 h -0.994 v -2.584 c 0,-0.567 0.411,-1.027 0.994,-1.027 h 2.947 c 0.583,0 0.994,0.46 0.994,1.027 V 0.39 h -0.994 z m 0,6.973 h -2.947 c -0.548,0 -0.994,-0.46 -0.994,-1.026 V 1.522 h 0.994 v 2.231 h 2.947 V 1.522 h 0.994 v 2.231 c 0,0.566 -0.446,1.026 -0.994,1.026 m 7.195,0 h -2.946 c -0.549,0 -0.994,-0.46 -0.994,-1.026 V 1.522 h 0.994 v 2.231 h 2.946 V 1.522 h 0.994 v 2.231 c 0,0.566 -0.445,1.026 -0.994,1.026 m 0,-6.973 h -2.946 V 0.39 h -0.994 v -2.584 c 0,-0.567 0.445,-1.027 0.994,-1.027 h 2.946 c 0.583,0 0.994,0.46 0.994,1.027 V 0.39 h -0.994 z M 6.51,4.779 H 3.563 C 3.015,4.779 2.569,4.319 2.569,3.753 V 1.169 H 3.563 V 3.753 H 6.51 V 1.169 h 0.994 v 2.584 c 0,0.566 -0.445,1.026 -0.994,1.026 m 0,-6.973 H 3.563 v 2.23 H 2.569 v -2.23 c 0,-0.567 0.446,-1.027 0.994,-1.027 H 6.51 c 0.583,0 0.994,0.46 0.994,1.027 v 2.23 H 6.51 Z m 7.195,0 h -2.946 v 2.053 H 9.765 v -2.053 c 0,-0.567 0.411,-1.027 0.994,-1.027 h 2.946 c 0.583,0 0.994,0.46 0.994,1.027 v 2.053 h -0.994 z m 0,6.973 h -2.946 c -0.548,0 -0.994,-0.46 -0.994,-1.026 V 0.992 h 0.994 v 2.761 h 2.946 V 0.992 h 0.994 v 2.761 c 0,0.566 -0.479,1.026 -0.994,1.026"
           id="path463" /></g></g></g><g
     transform="matrix(666.6651,0,0,-666.6651,738615.85,742897.44)"
     id="g477"><g
       clip-path="url(#clipPath28028-4)"
       id="g475"><g
         transform="translate(766.75,130.24)"
         id="g473"><path
           style="fill:#ffffff"
           inkscape:connector-curvature="0"
           d="M 0,0 H -15.75 V 6.693 C -15.75,7.932 -16.763,9 -18.057,9 H -31.443 C -32.682,9 -33.75,7.987 -33.75,6.693 V 0 H -49.5 c -1.237,0 -2.25,-1.013 -2.25,-2.25 V -13.5 l 27,-4.5 27,4.5 V -2.25 C 2.25,-1.013 1.237,0 0,0 m -29.25,4.5 h 9 V 0 h -9 z m 9,-16.875 c 0,-0.619 -0.506,-1.125 -1.125,-1.125 h -6.75 c -0.619,0 -1.125,0.506 -1.125,1.125 v 2.25 c 0,0.619 0.506,1.125 1.125,1.125 h 6.75 c 0.619,0 1.125,-0.506 1.125,-1.125 z m -4.5,-7.875 27,4.5 v -27 C 2.25,-43.987 1.237,-45 0,-45 h -49.5 c -1.237,0 -2.25,1.013 -2.25,2.25 v 27 z"
           id="path471" /></g></g></g><g
     transform="matrix(666.6651,0,0,-666.6651,738615.85,742897.44)"
     id="g485"><g
       clip-path="url(#clipPath28200-4)"
       id="g483"><g
         transform="translate(392,82.24)"
         id="g481"><path
           style="fill:#ffffff"
           inkscape:connector-curvature="0"
           d="M 0,0 -4.35,3.941 C -19.8,17.953 -30,27.2 -30,38.516 -30,47.762 -22.755,55 -13.5,55 -8.28,55 -3.27,52.572 0,48.75 3.27,52.572 8.28,55 13.5,55 22.755,55 30,47.762 30,38.516 30,27.2 19.8,17.953 4.35,3.941 Z"
           id="path479" /></g></g></g><g
     transform="matrix(666.6651,0,0,-666.6651,738615.85,742897.44)"
     id="g493"><g
       clip-path="url(#clipPath28364-3)"
       id="g491"><g
         transform="translate(542.77,113.24)"
         id="g489"><path
           style="fill:#ffffff"
           inkscape:connector-curvature="0"
           d="m 0,0 c 0,2.621 0.885,4.8 2.689,6.604 1.804,1.804 3.983,2.689 6.604,2.689 2.622,0 4.801,-0.885 6.604,-2.689 1.805,-1.804 2.69,-3.983 2.69,-6.604 0,-2.621 -0.885,-4.834 -2.69,-6.639 -1.803,-1.803 -3.982,-2.689 -6.604,-2.689 -2.621,0 -4.809,0.877 -6.604,2.689 C 0.876,-4.809 0,-2.588 0,0 m -13.141,-6.06 c 0.545,-1.94 1.363,-3.846 2.35,-5.617 l -6.128,-7.523 6.944,-6.945 7.524,6.127 c 1.769,-0.986 3.71,-1.803 5.65,-2.382 L 4.221,-32 h 10.008 l 1.022,9.6 c 1.94,0.579 3.778,1.396 5.651,2.382 l 7.49,-6.127 7.012,6.945 -6.162,7.523 c 0.953,1.771 1.805,3.677 2.383,5.617 l 9.601,1.056 V 5.004 l -9.601,1.021 c -0.578,1.941 -1.43,3.745 -2.383,5.618 l 6.162,7.523 -7.012,7.013 -7.49,-6.161 c -1.907,0.953 -3.711,1.803 -5.651,2.382 L 14.229,32 H 4.221 L 3.199,22.4 c -2.008,-0.579 -3.88,-1.429 -5.65,-2.382 l -7.524,6.161 -6.944,-7.013 6.128,-7.523 C -11.744,9.77 -12.562,7.966 -13.141,6.025 L -22.774,5.004 V -5.004 Z"
           id="path487" /></g></g></g><g
     transform="matrix(666.6651,0,0,-666.6651,738615.85,742897.44)"
     id="g499"><g
       clip-path="url(#clipPath28984-7)"
       id="g497"><path
         style="fill:#ffffff;fill-rule:evenodd"
         inkscape:connector-curvature="0"
         d="m 473,698.24 h 13 v -13 h -13 z m 6.5,-12 c 3.037,0 5.5,2.463 5.5,5.5 0,3.038 -2.463,5.5 -5.5,5.5 -3.037,0 -5.5,-2.462 -5.5,-5.5 0,-3.037 2.463,-5.5 5.5,-5.5"
         id="path495" /></g></g><g
     transform="matrix(666.6651,0,0,-666.6651,738615.85,742897.44)"
     id="g505"><g
       clip-path="url(#clipPath29012-6)"
       id="g503"><path
         style="fill:#ffffff;fill-rule:evenodd"
         inkscape:connector-curvature="0"
         d="m 473,676.24 h 13 v -13 h -13 z m 6.5,-12 c 3.037,0 5.5,2.463 5.5,5.5 0,3.038 -2.463,5.5 -5.5,5.5 -3.037,0 -5.5,-2.462 -5.5,-5.5 0,-3.037 2.463,-5.5 5.5,-5.5"
         id="path501" /></g></g><g
     transform="matrix(666.6651,0,0,-666.6651,738615.85,742897.44)"
     id="g511"><g
       clip-path="url(#clipPath29040-8)"
       id="g509"><path
         style="fill:#ffffff;fill-rule:evenodd"
         inkscape:connector-curvature="0"
         d="m 467,687.24 h 13 v -13 h -13 z m 6.5,-12 c 3.037,0 5.5,2.463 5.5,5.5 0,3.038 -2.463,5.5 -5.5,5.5 -3.037,0 -5.5,-2.462 -5.5,-5.5 0,-3.037 2.463,-5.5 5.5,-5.5"
         id="path507" /></g></g><g
     transform="matrix(666.6651,0,0,-666.6651,738615.85,742897.44)"
     id="g517"><g
       clip-path="url(#clipPath29068-3)"
       id="g515"><path
         style="fill:#ffffff;fill-rule:evenodd"
         inkscape:connector-curvature="0"
         d="m 486,698.24 h 13 v -13 h -13 z m 6.5,-12 c 3.037,0 5.5,2.463 5.5,5.5 0,3.038 -2.463,5.5 -5.5,5.5 -3.037,0 -5.5,-2.462 -5.5,-5.5 0,-3.037 2.463,-5.5 5.5,-5.5"
         id="path513" /></g></g><g
     transform="matrix(666.6651,0,0,-666.6651,738615.85,742897.44)"
     id="g523"><g
       clip-path="url(#clipPath29096-4)"
       id="g521"><path
         style="fill:#ffffff;fill-rule:evenodd"
         inkscape:connector-curvature="0"
         d="m 486,676.24 h 13 v -13 h -13 z m 6.5,-12 c 3.037,0 5.5,2.463 5.5,5.5 0,3.038 -2.463,5.5 -5.5,5.5 -3.037,0 -5.5,-2.462 -5.5,-5.5 0,-3.037 2.463,-5.5 5.5,-5.5"
         id="path519" /></g></g><g
     transform="matrix(666.6651,0,0,-666.6651,738615.85,742897.44)"
     id="g529"><g
       clip-path="url(#clipPath29124-2)"
       id="g527"><path
         style="fill:#ffffff;fill-rule:evenodd"
         inkscape:connector-curvature="0"
         d="m 480,687.24 h 13 v -13 h -13 z m 6.5,-12 c 3.037,0 5.5,2.463 5.5,5.5 0,3.038 -2.463,5.5 -5.5,5.5 -3.037,0 -5.5,-2.462 -5.5,-5.5 0,-3.037 2.463,-5.5 5.5,-5.5"
         id="path525" /></g></g><g
     transform="matrix(666.6651,0,0,-666.6651,738615.85,742897.44)"
     id="g535"><g
       clip-path="url(#clipPath29152-6)"
       id="g533"><path
         style="fill:#ffffff;fill-rule:evenodd"
         inkscape:connector-curvature="0"
         d="m 493,687.24 h 13 v -13 h -13 z m 6.5,-12 c 3.037,0 5.5,2.463 5.5,5.5 0,3.038 -2.463,5.5 -5.5,5.5 -3.037,0 -5.5,-2.462 -5.5,-5.5 0,-3.037 2.463,-5.5 5.5,-5.5"
         id="path531" /></g></g><g
     transform="matrix(666.6651,0,0,-666.6651,738615.85,742897.44)"
     id="g541"><g
       clip-path="url(#clipPath29252-9)"
       id="g539"><path
         style="fill:#ffffff;fill-rule:evenodd"
         inkscape:connector-curvature="0"
         d="m 161,327.24 h 73 v -28 h -73 z m 14,-5 h 45 c 4.971,0 9,-4.029 9,-9 0,-4.97 -4.029,-9 -9,-9 h -45 c -4.971,0 -9,4.03 -9,9 0,4.971 4.029,9 9,9"
         id="path537" /></g></g><g
     transform="matrix(666.6651,0,0,-666.6651,738615.85,742897.44)"
     id="g547"><g
       clip-path="url(#clipPath29280-6)"
       id="g545"><path
         style="fill:#ffffff;fill-rule:evenodd"
         inkscape:connector-curvature="0"
         d="m 162,302.24 h 73 v -28 h -73 z m 14,-5 h 45 c 4.971,0 9,-4.029 9,-9 0,-4.97 -4.029,-9 -9,-9 h -45 c -4.971,0 -9,4.03 -9,9 0,4.971 4.029,9 9,9"
         id="path543" /></g></g><g
     transform="matrix(666.6651,0,0,-666.6651,738615.85,742897.44)"
     id="g555"><g
       clip-path="url(#clipPath29400-4)"
       id="g553"><g
         transform="translate(104.49,129.57)"
         id="g551"><path
           style="fill:#ffffff"
           inkscape:connector-curvature="0"
           d="m 0,0 c -4.298,-0.338 -8.165,-0.637 -11.604,-0.898 -1.458,-0.113 -2.906,-0.225 -4.344,-0.336 -1.44,-0.114 -2.747,-0.207 -3.924,-0.282 -1.178,-0.074 -2.168,-0.149 -2.972,-0.224 -0.803,-0.074 -1.28,-0.113 -1.428,-0.113 -0.188,-0.037 -0.403,-0.065 -0.645,-0.084 -0.244,-0.018 -0.459,-0.065 -0.645,-0.139 l -0.673,-0.225 -2.467,1.121 c 0.187,0.263 0.412,0.506 0.674,0.731 0.185,0.186 0.42,0.364 0.7,0.533 0.28,0.168 0.569,0.27 0.868,0.309 0.225,0.037 0.822,0.093 1.795,0.168 0.971,0.074 2.167,0.168 3.588,0.28 0,0.486 0.047,1.15 0.14,1.992 0.092,0.841 0.317,1.674 0.672,2.497 0.356,0.822 0.869,1.553 1.541,2.188 0.673,0.636 1.589,1.009 2.747,1.123 1.346,0.111 2.439,-0.094 3.281,-0.618 0.84,-0.523 1.494,-1.169 1.961,-1.935 0.467,-0.768 0.795,-1.553 0.981,-2.358 0.187,-0.804 0.299,-1.43 0.337,-1.878 1.606,0.111 2.942,0.205 4.008,0.279 1.064,0.076 1.653,0.131 1.765,0.169 0.412,0.038 0.87,-0.038 1.373,-0.225 0.505,-0.186 0.907,-0.43 1.206,-0.729 C -0.99,1.271 -0.888,1.158 -0.757,1.01 -0.626,0.859 -0.505,0.71 -0.392,0.561 -0.243,0.41 -0.112,0.224 0,0 m -15.528,6.676 c -0.709,-0.074 -1.28,-0.326 -1.709,-0.757 -0.43,-0.431 -0.758,-0.944 -0.982,-1.543 -0.223,-0.599 -0.374,-1.206 -0.448,-1.823 -0.075,-0.617 -0.112,-1.114 -0.112,-1.488 1.159,0.076 2.344,0.169 3.559,0.281 1.215,0.112 2.402,0.206 3.56,0.281 -0.037,0.336 -0.121,0.804 -0.252,1.402 -0.131,0.599 -0.346,1.178 -0.645,1.74 -0.299,0.561 -0.691,1.028 -1.176,1.403 -0.487,0.373 -1.084,0.542 -1.795,0.504 m 21.919,-41.24 c 0.186,-1.047 0.159,-1.917 -0.084,-2.61 -0.244,-0.691 -0.925,-1.168 -2.046,-1.43 -0.374,-0.113 -1.187,-0.299 -2.439,-0.562 -1.252,-0.262 -2.747,-0.579 -4.485,-0.953 -1.737,-0.374 -3.597,-0.777 -5.577,-1.207 -1.982,-0.43 -3.878,-0.832 -5.691,-1.205 -1.812,-0.375 -3.437,-0.711 -4.877,-1.011 -1.438,-0.3 -2.457,-0.505 -3.054,-0.617 -1.383,-0.3 -2.402,-0.206 -3.055,0.28 -0.654,0.486 -0.982,1.217 -0.982,2.189 v 34.452 c 0,0.934 0.197,1.691 0.589,2.271 0.393,0.58 0.962,0.889 1.709,0.926 0.299,0 0.664,0.02 1.094,0.057 0.43,0.037 0.85,0.074 1.261,0.112 0.485,0.037 0.991,0.075 1.514,0.112 l 0.504,-8.023 c -0.037,-0.038 -0.112,-0.057 -0.224,-0.057 -0.074,0 -0.187,-0.01 -0.336,-0.027 -0.15,-0.02 -0.318,-0.029 -0.505,-0.029 -0.784,-0.075 -1.159,-0.542 -1.121,-1.403 0.038,-0.336 0.075,-0.805 0.112,-1.402 0.037,-0.599 0.066,-1.225 0.084,-1.88 0.019,-0.655 0.047,-1.29 0.084,-1.907 0.037,-0.617 0.074,-1.114 0.113,-1.488 0.037,-0.711 0.149,-1.112 0.336,-1.206 0.186,-0.093 0.598,-0.14 1.233,-0.14 h 0.785 c 0.225,0 0.439,0.01 0.645,0.027 0.205,0.02 0.439,0.038 0.701,0.057 0.261,0.018 0.597,0.047 1.008,0.084 0.785,0.075 1.29,0.243 1.513,0.506 0.225,0.261 0.319,0.654 0.281,1.177 0,0.262 -0.028,0.721 -0.084,1.375 -0.056,0.655 -0.113,1.337 -0.168,2.048 -0.056,0.71 -0.103,1.384 -0.14,2.02 -0.037,0.635 -0.074,1.085 -0.112,1.346 -0.076,0.45 -0.168,0.768 -0.281,0.954 -0.112,0.187 -0.318,0.262 -0.617,0.224 -0.148,0 -0.299,-0.009 -0.447,-0.027 -0.151,-0.019 -0.3,-0.028 -0.449,-0.028 h -0.449 l -0.505,7.967 c 2.542,0.225 4.877,0.412 7.008,0.561 0.897,0.076 1.803,0.15 2.719,0.224 0.916,0.076 1.766,0.141 2.551,0.198 0.785,0.055 1.476,0.111 2.074,0.168 0.598,0.056 1.046,0.103 1.346,0.14 1.083,0.074 1.942,-0.113 2.578,-0.561 0.635,-0.449 1.027,-1.122 1.178,-2.021 0.037,-0.299 0.168,-1.196 0.391,-2.693 0.224,-1.496 0.505,-3.291 0.841,-5.386 0.336,-2.095 0.691,-4.349 1.065,-6.761 0.374,-2.413 0.729,-4.667 1.066,-6.761 0.336,-2.095 0.625,-3.891 0.869,-5.387 0.242,-1.496 0.4,-2.395 0.476,-2.693 m -35.261,-4.881 c 0,-0.525 0.028,-0.983 0.084,-1.375 0.057,-0.393 0.122,-0.701 0.197,-0.926 0.074,-0.299 0.168,-0.524 0.279,-0.674 -0.933,0.486 -1.831,0.973 -2.69,1.459 -0.747,0.412 -1.495,0.832 -2.242,1.263 -0.747,0.43 -1.383,0.795 -1.906,1.094 -0.972,0.561 -1.635,1.235 -1.99,2.02 -0.355,0.785 -0.439,1.608 -0.253,2.469 0.076,0.224 0.244,1.047 0.505,2.469 0.262,1.421 0.588,3.142 0.981,5.162 0.392,2.019 0.803,4.189 1.233,6.508 0.43,2.32 0.831,4.49 1.205,6.509 0.374,2.02 0.701,3.76 0.982,5.218 0.28,1.459 0.439,2.319 0.476,2.581 0.15,0.823 0.42,1.459 0.813,1.908 0.392,0.449 0.849,0.561 1.373,0.336 0.299,-0.149 0.543,-0.317 0.728,-0.504 0.114,-0.113 0.188,-0.207 0.225,-0.281 z"
           id="path549" /></g></g></g><path
     id="path2-3"
     d="m 12000,364.08084 c -3407.5395,0 -6463.7055,1450.78126 -8589.1229,3771.40586 l 782.3909,615.2938 7980.076,7099.3005 8640.658,-7461.6054 C 18683.899,1921.0545 15530.91,364.08084 12000,364.08084 Z M 3410.8771,4135.4867 c -28.1089,31.2352 -56.2197,62.4664 -85.8913,93.6996 29.672,-31.2352 57.7812,-62.4664 85.8913,-93.6996 z m -89.0145,98.3846 c -28.11,31.2352 -56.2197,64.0279 -84.3297,95.2611 28.11,-31.2352 56.2197,-64.0279 84.3297,-95.2611 z m -85.8913,98.3842 c -28.11,31.2336 -56.2197,64.0283 -84.3294,95.2615 28.1097,-31.2332 56.2194,-64.0279 84.3294,-95.2615 z m -87.4529,99.9462 c -28.11,32.7951 -56.2197,65.5899 -82.7678,98.3846 26.5481,-32.7947 54.6578,-65.5895 82.7678,-98.3846 z m -82.7678,98.3846 c -56.2197,67.1514 -112.4394,135.8644 -167.0976,203.0158 54.6582,-67.1514 110.8779,-135.8644 167.0976,-203.0158 z m -167.0976,203.0158 c -273.2903,343.5649 -527.8408,702.7462 -762.0894,1074.4212 234.2486,-371.675 488.7991,-730.8563 762.0894,-1074.4212 z m 18160.529,-53.0966 c 18.74,23.425 35.918,46.85 54.658,70.275 -18.74,-23.425 -35.918,-46.85 -54.658,-70.275 z m 84.33,107.7548 c 17.179,20.301 32.794,40.6029 48.411,62.4663 -15.615,-21.8642 -31.235,-42.1649 -48.411,-62.4663 z m 81.206,103.0692 c 15.616,21.8643 32.794,42.1649 48.411,64.028 -15.615,-21.8643 -32.794,-42.1645 -48.411,-64.028 z m 79.645,106.1928 c 17.179,20.3011 32.794,42.1649 48.411,62.4664 -15.616,-20.3011 -31.235,-42.1649 -48.411,-62.4664 z m 78.083,104.6313 c 17.178,21.8642 32.794,43.7264 49.973,67.151 -17.179,-23.4234 -32.795,-45.288 -49.973,-67.151 z m 76.521,103.0692 c 15.615,23.4234 32.794,46.85 49.973,70.275 -17.179,-23.4234 -34.358,-46.85 -49.973,-70.275 z m 71.836,103.0697 c 18.738,26.5497 37.48,51.5347 54.658,78.0828 -17.179,-26.5497 -35.917,-51.5347 -54.658,-78.0828 z m 267.044,398.2227 c 15.615,23.4234 29.672,46.85 45.288,70.2749 -15.616,-23.4233 -29.672,-46.8499 -45.288,-70.2749 z M 2136.5636,5809.5849 c -23.425,35.9166 -46.8496,73.398 -68.713,110.8778 21.8634,-37.4798 45.288,-74.9596 68.713,-110.8778 z m 19734.6814,10.9301 c 12.493,21.8642 26.549,43.7264 40.603,65.5894 -14.056,-21.8642 -28.109,-43.7264 -40.603,-65.5894 z M 2066.289,5922.0243 c -21.8634,35.9166 -43.7264,71.8361 -64.0279,106.1928 20.3015,-34.3575 42.1645,-70.2746 64.0279,-106.1928 z m 19873.669,10.9301 c 14.056,21.8642 26.549,43.7265 40.603,67.1514 -14.057,-23.4234 -26.55,-45.2884 -40.603,-67.1514 z M 1996.0141,6037.5872 c -20.3015,34.3563 -40.6029,68.7126 -60.9044,103.0693 20.3015,-34.3567 40.6029,-68.713 60.9044,-103.0693 z m 20012.6569,9.371 c 14.056,21.8642 26.549,43.7264 39.043,67.1514 -12.494,-23.4234 -24.987,-45.2884 -39.043,-67.1514 z M 1928.8631,6153.1498 c -18.7399,32.7943 -37.4798,65.5894 -56.2197,98.3846 18.7399,-32.7944 37.4798,-65.5899 56.2197,-98.3846 z m 20146.9589,7.8078 c 12.493,21.8642 24.987,43.7264 37.48,67.1514 -12.493,-23.4234 -24.987,-45.288 -37.48,-67.1514 z M 1858.5881,6274.9594 c -17.1779,31.2311 -34.3563,62.4663 -51.5346,93.6991 17.1783,-31.2312 34.3567,-62.4664 51.5346,-93.6991 z m 20285.9469,6.2462 c 10.93,20.3011 23.423,40.6033 34.357,60.9048 -10.93,-20.3011 -23.423,-40.6029 -34.357,-60.9048 z M 1794.5602,6392.0835 c -17.1779,31.2351 -34.3563,62.4663 -51.5346,93.6995 17.1783,-31.2352 34.3567,-62.4664 51.5346,-93.6995 z m 20415.5638,6.2486 c 10.931,20.3011 21.865,40.6033 32.795,60.9048 -10.93,-20.3011 -21.864,-40.6033 -32.795,-60.9048 z M 1730.5323,6510.7695 c -17.1783,31.2352 -34.3567,64.0283 -51.5346,95.2611 17.1779,-31.2312 34.3563,-64.0279 51.5346,-95.2611 z m 20543.6207,6.2487 c 10.93,20.301 21.864,40.6033 31.235,60.9048 -9.371,-20.3011 -20.301,-40.603 -31.235,-60.9048 z M 1669.6275,6624.7709 c -17.1779,34.3563 -35.9182,68.7126 -53.0962,103.0693 17.178,-34.3567 35.9183,-68.713 53.0962,-103.0693 z m -59.3428,115.5626 c -17.1783,35.9182 -35.9183,71.8365 -53.0966,107.7543 17.1783,-35.9178 35.9183,-71.8361 53.0966,-107.7543 z m 20813.7873,70.2745 c 10.93,21.8642 21.864,43.7264 32.794,67.1514 -10.93,-23.4234 -21.864,-45.288 -32.794,-67.1514 z m -20871.5686,46.85 c -18.7403,37.4798 -37.4798,74.9596 -54.6581,112.4394 17.1783,-37.4798 35.9178,-74.9596 54.6581,-112.4394 z m -54.6581,112.4394 c -95.2611,199.8923 -185.8375,402.9077 -270.1669,609.0467 84.3294,-206.139 174.9058,-409.1544 270.1669,-609.0467 z m -270.1669,609.0467 c -14.0552,35.9166 -28.11,70.2749 -42.1649,106.1928 14.0549,-35.9167 28.1097,-70.2746 42.1649,-106.1928 z M 22483.415,6932.4176 c 10.93,21.8642 21.864,43.7264 32.794,65.5894 -10.931,-21.863 -21.862,-43.7264 -32.794,-65.5894 z m 57.782,118.686 c 10.93,23.4234 20.301,45.288 31.231,68.713 -10.93,-23.4234 -20.301,-45.288 -31.231,-68.713 z m 56.219,124.9327 c 10.93,20.3011 20.301,42.1645 29.672,64.0279 -9.371,-21.8642 -18.738,-43.7264 -29.672,-64.0279 z m 56.22,123.3712 c 9.371,20.301 18.738,42.1645 28.109,64.0279 -9.371,-21.8642 -18.738,-43.7265 -28.109,-64.0279 z m 53.096,123.3707 c 9.371,21.8642 18.738,42.1649 26.55,64.0283 -7.808,-21.8642 -17.179,-42.1649 -26.55,-64.0283 z m 53.096,124.9327 c 7.808,21.8642 17.179,43.7265 26.55,64.0283 -9.371,-20.301 -18.738,-42.1649 -26.55,-64.0283 z m 49.973,126.4947 c 9.371,20.301 17.179,42.1645 24.987,64.0279 -7.808,-21.8642 -15.616,-43.7265 -24.987,-64.0279 z m -21633.6576,32.7943 c -12.4933,31.2352 -23.4246,60.9044 -35.9179,92.138 12.4933,-31.2352 23.4246,-60.9048 35.9179,-92.138 z m 21686.7546,99.9462 c 6.249,18.7379 14.056,37.4798 20.301,56.2197 -6.249,-18.7379 -14.056,-37.4798 -20.301,-56.2197 z m -21736.7277,29.672 c -10.9313,29.672 -23.4246,60.9044 -34.3563,92.1375 10.9317,-31.2351 23.425,-62.4663 34.3563,-92.1375 z m -46.8496,126.4942 c -10.9317,29.6712 -21.8634,59.3429 -32.7951,89.0145 10.9317,-29.6716 21.8634,-59.3433 32.7951,-89.0145 z m 21850.7283,21.8643 c 7.808,23.4233 15.616,45.288 23.424,68.7129 -7.808,-23.4233 -15.616,-45.288 -23.424,-68.7129 z M 1030.9092,8094.2917 c -9.3701,29.6716 -20.3014,57.7812 -29.6716,85.8909 9.3702,-28.1097 20.3015,-56.2193 29.6716,-85.8909 z m 21944.4278,18.7379 c 7.808,21.8642 14.057,43.7264 21.865,65.5894 -7.808,-21.8642 -14.057,-43.7264 -21.865,-65.5894 z M 987.18277,8223.9074 c -10.93171,28.1117 -20.30146,56.2213 -29.67161,84.3314 9.37015,-28.1101 18.7399,-56.2197 29.67161,-84.3294 z m 22033.44223,18.7379 c 6.249,21.8643 14.057,43.7269 21.865,65.5899 -7.808,-21.8642 -15.616,-43.7264 -21.865,-65.5899 z M 941.89477,8356.6503 c -7.80859,26.5497 -17.17835,53.0962 -26.5481,81.2063 9.36975,-28.1089 18.73951,-54.6582 26.5481,-81.2063 z M 23062.79,8370.7068 c 6.249,21.8642 14.057,43.7264 20.301,65.5898 -6.248,-21.8642 -14.056,-43.7268 -20.301,-65.5898 z M 899.72989,8490.9544 c -9.36976,24.9865 -17.17835,51.5346 -24.98654,78.0831 7.80819,-26.5497 15.61678,-53.0966 24.98654,-78.0831 z m 22205.22511,12.4932 c 6.249,20.3011 12.493,40.6034 18.738,60.9048 -6.249,-20.301 -12.493,-40.6029 -18.738,-60.9048 z M 859.12656,8622.1321 c -7.80819,26.5485 -15.61639,53.0966 -23.42458,79.6447 7.80819,-26.5481 15.61639,-53.0962 23.42458,-79.6447 z m 22286.43144,12.4933 c 6.249,20.301 10.93,40.6033 17.179,60.9048 -6.249,-20.3011 -10.93,-40.6034 -17.179,-60.9048 z M 820.08519,8754.873 c -7.80819,26.5497 -15.61639,53.0966 -23.42498,79.6447 7.80859,-26.5497 15.61679,-53.0962 23.42498,-79.6447 z m 22364.51381,14.0564 c 4.686,18.7379 10.931,39.043 17.179,59.3429 -6.248,-20.3011 -12.493,-40.603 -17.179,-59.3429 z M 781.04382,8890.7374 c -6.24663,24.9865 -14.05483,51.5346 -20.30146,78.0831 6.24663,-26.5497 14.05483,-53.0966 20.30146,-78.0831 z m 22439.47418,9.371 c 6.248,20.301 10.93,40.6029 17.178,59.3428 -6.248,-18.7379 -10.93,-39.043 -17.178,-59.3428 z M 746.68713,9023.4787 c -7.80819,26.5481 -14.05483,53.0962 -21.86302,79.6443 7.80819,-26.5481 14.05483,-53.0962 21.86302,-79.6443 z M 23257.998,9035.972 c 4.685,20.301 9.371,39.0429 14.056,57.7812 -4.685,-18.7379 -9.371,-37.4798 -14.056,-57.7812 z M 710.76928,9160.9047 c -6.24663,26.5497 -12.49327,51.5346 -18.7399,78.0827 6.24663,-26.5497 12.49327,-51.5346 18.7399,-78.0827 z m -32.79473,135.864 c -6.24704,26.5497 -12.49327,51.535 -18.74031,78.0831 6.24704,-26.5497 12.49327,-51.5346 18.74031,-78.0831 z M 23336.081,9359.235 c 4.685,15.6156 7.807,32.7944 12.493,48.4115 -4.686,-15.6156 -7.808,-32.7943 -12.493,-48.4115 z M 646.74097,9432.6331 c -6.24623,26.5497 -12.49327,53.0966 -17.17794,79.6447 4.68467,-26.5497 10.93171,-53.0966 17.17794,-79.6447 z m 22720.57303,60.9048 c 3.118,18.7379 7.808,37.4798 10.93,56.2197 -3.118,-18.7379 -7.808,-37.4798 -10.93,-56.2197 z m 28.109,135.864 c 4.685,20.301 7.808,39.0429 12.493,57.7816 -4.685,-18.7379 -7.808,-37.4798 -12.493,-57.7816 z M 601.45217,9645.0175 c -4.68507,23.4233 -9.36975,46.8495 -14.05483,70.2745 4.68508,-23.4234 9.36976,-46.8496 14.05483,-70.2745 z M 23423.533,9766.8266 c 3.118,20.3011 7.808,40.6034 10.93,59.3433 -3.118,-18.7379 -7.808,-39.043 -10.93,-59.3433 z M 573.34251,9784.0054 c -4.68427,21.8642 -7.80739,43.7272 -12.49247,67.1522 4.68508,-23.425 7.8082,-45.288 12.49327,-67.1514 z m 22875.17649,118.686 c 3.119,20.3011 7.808,40.6034 10.93,60.9048 -3.118,-20.301 -7.807,-40.6029 -10.93,-60.9048 z M 548.35598,9924.5557 c -4.68508,20.301 -7.8082,42.1645 -12.49327,64.0279 4.68507,-21.8642 7.80819,-43.7265 12.49327,-64.0279 z M 23471.944,10041.68 c 4.685,20.301 7.808,39.043 10.93,59.343 -3.118,-20.301 -6.249,-39.043 -10.93,-59.343 z m -22948.57376,21.863 c -3.12232,23.424 -7.8082,46.85 -10.93172,68.713 3.12232,-21.864 7.8082,-45.288 10.93172,-68.713 z M 23495.37,10182.229 c 3.118,18.738 6.248,39.043 9.371,59.343 -3.119,-20.301 -6.249,-40.603 -9.371,-59.343 z m -22993.86319,20.302 c -3.12311,23.425 -7.80819,48.411 -10.93131,71.836 3.12312,-23.425 7.8082,-48.411 10.93131,-71.836 z M 23515.672,10324.34 c 3.118,17.179 6.244,35.917 7.807,54.658 -1.559,-18.738 -4.685,-37.48 -7.807,-54.658 z m -23034.46665,20.302 c -4.68508,23.423 -7.80819,46.849 -9.37015,68.713 1.56316,-21.864 4.68507,-45.288 9.37015,-68.713 z M 23537.535,10474.26 c 1.559,15.615 3.118,29.672 4.685,43.726 -1.559,-14.056 -3.118,-28.109 -4.685,-43.726 z m -23076.63111,12.493 c -3.12352,23.425 -4.68508,45.288 -7.8082,68.713 3.12312,-23.425 4.68468,-45.288 7.8082,-68.713 z m -17.17835,142.11 c -3.12232,23.424 -4.68507,45.289 -7.80819,68.714 3.12232,-23.424 4.68507,-45.289 7.80819,-68.714 z m 23115.67246,26.55 c 1.559,15.616 3.118,29.672 4.685,45.288 -1.559,-15.615 -3.118,-29.672 -4.685,-45.288 z M 428.10915,10772.536 c -1.56315,23.424 -4.68507,45.288 -6.24703,67.151 1.56316,-21.864 4.68508,-43.726 6.24703,-67.151 z m 23146.90485,24.987 c 1.56,17.179 3.119,32.794 4.686,49.973 -1.559,-17.179 -3.118,-32.794 -4.686,-49.973 z M 414.05393,10916.209 c -1.56316,21.864 -4.68508,43.726 -6.24664,65.59 1.56316,-21.865 4.68508,-43.727 6.24664,-65.59 z m 23173.45407,21.864 c 1.559,18.738 3.118,37.48 4.685,56.22 -1.559,-18.738 -3.118,-37.48 -4.685,-56.22 z m -23185.94734,123.37 c -1.56316,21.864 -3.12232,43.727 -4.68508,65.59 1.56316,-21.865 3.12232,-43.727 4.68508,-65.59 z m 23198.44034,18.738 c 1.559,20.301 3.118,39.043 4.685,59.343 -1.559,-20.301 -3.118,-39.043 -4.685,-59.343 z M 390.62935,11206.677 c -1.56316,21.865 -3.12232,42.165 -3.12232,64.028 0,-21.864 1.56316,-42.165 3.12232,-64.028 z m 23218.74165,14.057 c 1.559,20.301 3.118,40.603 4.685,60.905 -1.559,-20.301 -3.118,-40.604 -4.685,-60.905 z M 382.82075,11351.912 c -1.56316,21.864 -3.12232,42.164 -3.12232,64.027 0,-21.864 1.56316,-42.164 3.12232,-64.027 z m 23235.92025,14.056 c 0,18.742 1.559,39.043 3.118,59.343 -1.559,-20.301 -3.118,-40.603 -3.118,-59.343 z M 375.01256,11497.146 c 0,21.864 -1.56316,43.726 -3.12232,65.59 1.56316,-21.865 3.12232,-43.727 3.12232,-65.59 z m 23249.97444,10.93 c 1.56,20.301 1.56,42.165 3.119,62.467 -1.559,-20.302 -1.559,-42.165 -3.119,-62.467 z M 370.32748,11651.75 c -1.56316,18.738 -1.56316,35.917 -1.56316,53.097 0,-17.179 0,-34.358 1.56316,-53.097 z m 23259.34552,4.685 c 1.559,18.738 1.559,35.917 1.559,54.659 0,-18.738 0,-35.917 -1.559,-54.659 z M 365.64281,11809.478 c 0,14.056 0,29.672 0,43.726 0,-14.057 0,-29.672 0,-43.726 z m 23268.71419,4.685 c 0,14.057 0,26.55 0,40.604 0,-14.057 0,-26.55 0,-40.604 z M 364.08085,12000 c 0,48.412 1.56316,96.823 1.56316,145.234 0,-48.411 -1.56316,-96.822 -1.56316,-145.234 z m 1.56316,185.837 c 1.56315,34.358 1.56315,68.713 3.12231,103.07 -1.56315,-34.358 -1.56315,-68.713 -3.12231,-103.07 z m 4.68467,157.728 c 0,29.672 1.56316,57.781 1.56316,85.891 0,-28.109 -1.56316,-56.219 -1.56316,-85.891 z m 4.68508,148.358 c 1.56316,28.108 1.56316,54.658 3.12232,82.767 -1.56316,-28.108 -1.56316,-54.658 -3.12232,-82.767 z m 6.24543,142.111 c 1.56316,28.108 3.12232,56.219 4.68508,84.329 -1.56196,-28.11 -3.12352,-56.22 -4.68508,-84.329 z m 9.37016,145.234 c 1.56315,26.549 3.12231,53.096 4.68467,81.206 -1.56316,-28.109 -3.12232,-54.658 -4.68467,-81.206 z m 9.36975,140.549 c 3.12232,28.109 4.68507,56.22 7.80819,85.891 -3.12232,-29.672 -4.68468,-57.781 -7.80819,-85.891 z m 12.49327,142.111 c 1.56316,31.235 4.68507,60.905 7.80819,92.138 -3.12232,-31.235 -6.24663,-60.905 -7.80819,-92.138 z m 12.49327,138.987 c 3.12351,32.796 7.80819,65.59 10.93171,98.385 -3.12352,-32.795 -7.8082,-65.589 -10.93171,-98.385 z m 15.61678,143.673 c 4.68468,45.288 10.93132,90.576 17.17795,137.426 -6.24663,-46.85 -12.49327,-92.138 -17.17795,-137.426 z m 21.86303,181.152 c 4.68507,31.236 9.36975,64.028 14.05482,95.262 -4.68507,-31.235 -9.36975,-64.028 -14.05482,-95.262 z m 21.86302,149.92 c 3.12232,28.109 7.80859,56.219 10.93171,82.768 -3.12232,-26.55 -7.80819,-54.658 -10.93171,-82.768 z m 20.30186,142.111 c 4.68468,28.11 7.80819,54.658 12.49327,81.206 -4.68508,-26.548 -7.80859,-53.096 -12.49327,-81.206 z m 23.42498,140.549 c 3.12232,24.987 7.8082,51.535 12.49327,78.083 -4.68507,-26.548 -9.37015,-53.096 -12.49327,-78.083 z m 23.42458,138.988 c 4.68508,24.986 9.37015,49.973 14.05523,76.521 -4.68508,-26.548 -9.37015,-51.535 -14.05523,-76.521 z m 24.98654,135.864 c 6.24664,26.55 10.93171,53.096 15.61679,79.644 -4.68508,-26.548 -9.37015,-53.096 -15.61679,-79.644 z m 28.11006,137.426 c 4.68468,26.548 10.93171,53.096 17.17794,79.644 -6.24623,-26.548 -12.49326,-53.096 -17.17794,-79.644 z m 28.10966,135.864 c 6.24663,28.109 12.49327,56.22 18.7399,84.33 -6.24663,-28.109 -12.49327,-56.22 -18.7399,-84.33 z m 31.23317,134.303 c 9.37015,42.165 18.7399,85.891 29.67162,128.056 -10.93172,-42.165 -20.30147,-85.891 -29.67162,-128.056 z m 34.35669,146.796 c 9.36975,39.043 18.73991,79.644 29.67162,118.686 -10.93171,-39.043 -20.30187,-79.645 -29.67162,-118.686 z m 43.72645,176.467 c 7.80819,24.987 14.05482,49.973 20.30146,76.522 -6.24664,-26.549 -12.49327,-51.535 -20.30146,-76.522 z m 37.4798,135.864 c 6.24664,23.425 12.49327,48.412 18.73991,71.837 -6.24664,-23.425 -12.49327,-48.412 -18.73991,-71.837 z m 35.91825,131.18 c 7.8082,24.986 14.05483,48.411 21.86303,73.398 -7.8082,-24.987 -14.05483,-48.412 -21.86303,-73.398 z m 39.04137,134.303 c 7.8082,23.424 14.05483,46.849 21.86302,70.274 -7.80819,-23.425 -14.05482,-46.85 -21.86302,-70.274 z m 40.60293,131.179 c 7.80859,21.864 14.05483,45.288 21.86342,67.151 -7.80859,-21.864 -14.05483,-45.288 -21.86342,-67.151 z m 42.16488,132.741 c 7.8082,20.301 14.05483,42.165 20.30147,62.466 -6.24664,-20.301 -12.49327,-42.165 -20.30147,-62.466 z m 42.16489,128.056 c 7.80819,21.864 15.61639,43.726 23.42502,64.028 -7.80863,-20.301 -15.61683,-42.165 -23.42502,-64.028 z m 45.28802,129.617 c 7.8082,20.301 14.0548,40.604 21.863,59.344 -7.8082,-18.738 -14.0548,-39.043 -21.863,-59.344 z m 45.288,128.057 c 15.6168,40.603 31.2332,81.206 46.8499,121.809 -15.6167,-40.603 -31.2331,-81.206 -46.8499,-121.809 z m 67.1514,178.029 c 9.3698,23.425 18.7399,46.849 28.1101,68.713 -9.3702,-21.864 -18.7403,-45.288 -28.1101,-68.713 z m 53.0966,132.74 c 7.8082,20.302 15.6164,42.165 23.4246,62.467 -7.8082,-20.302 -15.6164,-42.165 -23.4246,-62.467 z m 49.9731,126.495 c 9.3697,20.302 17.1779,40.603 26.5481,60.904 -9.3702,-20.301 -17.1784,-40.602 -26.5481,-60.904 z m 53.0962,124.933 c 7.8082,18.738 17.1783,39.043 24.9865,59.343 -7.8082,-20.301 -17.1783,-40.603 -24.9865,-59.343 z m 53.0962,123.371 c 9.3701,20.301 18.7403,40.603 26.5485,59.343 -7.8082,-18.74 -17.1784,-39.042 -26.5485,-59.343 z m 56.2201,123.371 c 7.8082,18.738 17.1779,37.479 24.9865,56.219 -7.8086,-18.738 -17.1783,-37.479 -24.9865,-56.219 z m 56.2193,124.932 c 7.8086,17.179 17.1783,34.358 24.9865,53.097 -7.8082,-18.738 -17.1779,-35.917 -24.9865,-53.097 z m 57.7817,118.686 c 7.8082,18.738 17.1779,37.48 26.5481,54.659 -9.3702,-17.179 -18.7399,-35.917 -26.5481,-54.659 z m 59.3428,121.81 c 4.6851,10.93 10.9317,21.864 15.6168,32.794 -4.6851,-10.93 -10.9317,-21.864 -15.6168,-32.794 z m 95.2611,187.399 c 7.8086,15.616 15.6168,29.672 23.425,45.288 -7.8082,-15.616 -15.6164,-29.672 -23.425,-45.288 z m 57.7817,110.878 c 9.3697,17.178 18.7399,34.357 26.5481,49.973 -7.8082,-15.616 -17.1784,-32.795 -26.5481,-49.973 z m 64.0279,118.686 c 9.3701,17.179 18.7399,32.794 28.1096,49.973 -9.3697,-17.179 -18.7395,-32.794 -28.1096,-49.973 z m 62.4663,112.439 c 10.9317,18.738 20.3015,35.917 31.2332,53.097 -10.9317,-17.179 -20.3015,-34.357 -31.2332,-53.097 z m 68.713,120.248 c 9.3698,15.616 18.7399,31.235 28.1101,46.85 -9.3702,-15.616 -18.7403,-31.236 -28.1101,-46.85 z m 67.1514,114.001 c 9.3698,15.616 18.7399,31.235 28.1097,46.85 -9.3698,-15.616 -18.7399,-31.232 -28.1097,-46.85 z m 68.713,114.001 c 9.3698,15.616 18.7399,31.235 28.1097,46.85 -9.3698,-15.616 -18.7399,-31.235 -28.1097,-46.85 z m 68.713,112.439 c 9.3697,15.616 18.7399,29.672 28.1096,43.727 -9.3697,-14.057 -18.7399,-28.109 -28.1096,-43.727 z m 73.398,114.002 c 4.6847,9.371 10.9314,18.738 17.178,28.109 -6.2466,-9.371 -12.4933,-18.738 -17.178,-28.109 z m 267.0434,398.222 c 6.2466,10.931 14.0548,21.865 21.8634,32.795 -7.8086,-10.93 -15.6168,-21.864 -21.8634,-32.795 z m 71.8365,103.07 c 9.3697,12.493 18.7399,23.424 26.5481,35.917 -7.8082,-12.493 -17.1784,-23.424 -26.5481,-35.917 z m 76.5212,103.069 c 9.3701,14.057 20.3014,28.109 29.6716,42.165 -9.3702,-14.056 -20.3015,-28.109 -29.6716,-42.165 z m 76.5211,104.632 c 10.9318,14.054 23.425,29.671 34.3567,43.726 -10.9317,-14.055 -23.4249,-29.672 -34.3567,-43.726 z m 79.6447,104.631 c 12.4933,14.056 23.425,29.672 34.3563,43.726 -10.9313,-14.055 -21.863,-29.671 -34.3563,-43.726 z m 82.7679,104.631 c 9.3701,12.493 20.3018,24.986 29.6716,37.48 -9.3698,-12.494 -20.3015,-24.987 -29.6716,-37.48 z m 84.3297,106.193 c 4.6847,6.245 9.3698,12.493 14.0548,18.738 -4.685,-6.245 -9.3701,-12.493 -14.0548,-18.738 z m 0,0"
     style="fill:#3f8bcd;fill-opacity:1;fill-rule:nonzero;stroke:none;stroke-width:399.78463745"
     inkscape:connector-curvature="0" /><path
     id="path4"
     d="M 3410.8771,4135.4867 C 1518.1467,6203.1229 364.08085,8962.5739 364.08085,12000 c 0,2915.617 1061.92795,5575.121 2821.91735,7611.524 L 12173.344,11850.081 4193.268,4750.7805 Z M 3185.9982,19613.086 c 67.1515,76.521 134.3025,151.481 201.4539,226.441 -67.1514,-74.96 -134.3024,-149.92 -201.4539,-226.441 z m 209.2621,234.249 c 31.2352,34.357 62.4664,68.713 95.2615,103.07 -32.7943,-34.358 -64.0279,-68.713 -95.2615,-103.07 z m 104.6312,114.001 c 29.6721,31.235 59.3433,62.466 90.5764,95.261 -31.2351,-32.794 -60.9047,-64.028 -90.5764,-95.261 z m 115.563,121.809 c 24.9865,24.987 51.5346,51.535 76.5212,78.083 -24.9866,-26.549 -51.5347,-53.096 -76.5212,-78.083 z m 107.7543,109.317 c 24.9866,24.986 48.4116,49.973 73.3981,74.959 -24.9865,-24.986 -48.4115,-49.973 -73.3981,-74.959 z m 104.6313,104.631 c 24.9865,24.986 49.973,49.973 74.9596,73.398 -24.9866,-23.424 -49.9731,-48.412 -74.9596,-73.398 z m 106.1928,104.631 c 26.5497,24.986 53.0962,49.973 79.6447,74.959 -26.5497,-24.986 -53.0966,-49.973 -79.6447,-74.959 z m 107.7543,99.946 c 28.1089,26.55 56.2197,53.097 85.8913,79.645 -29.672,-26.55 -57.7816,-53.097 -85.8913,-79.645 z m 107.7544,101.508 c 31.2351,26.549 62.4663,54.658 93.6995,82.768 -31.2352,-28.109 -62.4664,-56.22 -93.6995,-82.768 z m 15630.6424,62.466 c -1.559,1.559 -3.118,3.118 -4.686,4.686 1.56,-1.56 3.119,-3.119 4.686,-4.686 z m -15519.7646,35.917 c 37.4798,32.794 73.3981,65.59 110.8779,98.384 -35.9167,-32.794 -73.3981,-65.59 -110.8779,-98.384 z m 110.8779,98.384 c 76.5212,65.59 154.6043,131.18 231.1255,195.208 -76.5212,-64.028 -154.6043,-129.618 -231.1255,-195.208 z m 246.7419,207.701 c 32.7943,26.55 65.5898,53.096 99.9461,79.645 -34.3575,-26.55 -67.151,-53.097 -99.9461,-79.645 z m 126.4942,101.508 c 29.672,23.423 59.3433,46.85 89.0149,70.275 -29.6716,-23.424 -59.3433,-46.849 -89.0149,-70.274 z m 120.2481,93.699 c 28.1088,23.423 56.2197,45.288 85.8913,67.152 -29.672,-21.865 -57.7817,-43.727 -85.8913,-67.152 z m 121.8091,93.7 c 28.1089,21.864 54.6582,42.164 82.7678,62.466 -28.1088,-20.301 -54.6577,-40.603 -82.7678,-62.466 z m 118.6861,89.014 c 28.1089,20.301 56.2197,40.603 84.3298,62.466 -28.1089,-21.864 -56.2197,-42.164 -84.3298,-62.466 z m 13717.6103,51.535 c -1.559,1.559 -4.686,3.118 -6.249,4.686 1.559,-1.56 4.686,-3.119 6.249,-4.686 z m -13597.3623,35.917 c 31.2312,21.868 62.4664,43.729 92.1376,65.592 -29.6712,-21.863 -60.9048,-43.726 -92.1376,-65.589 z m 13472.4293,53.096 c -1.559,1.559 -4.685,3.119 -7.808,6.249 3.119,-3.118 6.249,-4.686 7.808,-6.249 z m -13352.1817,31.236 c 32.7944,21.864 64.0279,45.288 96.8227,67.151 -32.7944,-21.864 -64.0279,-45.288 -96.8227,-67.151 z m 13231.9337,53.096 c -6.248,4.685 -10.93,7.807 -17.178,10.93 6.248,-3.119 10.93,-6.249 17.178,-10.93 z m -13108.5629,32.794 c 35.9166,23.423 71.8365,48.412 109.3163,71.836 -37.4798,-23.423 -73.3981,-48.411 -109.3163,-71.836 z m 12978.9459,54.658 c -3.119,1.559 -7.808,4.685 -12.494,7.808 4.686,-3.119 9.371,-6.249 12.494,-7.808 z m -12855.5748,26.549 c 84.3298,56.22 168.6592,109.316 254.5505,163.975 -85.8913,-54.659 -170.2207,-107.755 -254.5505,-163.975 z m 12727.5188,57.782 c -4.686,1.559 -7.808,4.685 -12.493,6.248 4.685,-1.559 7.807,-4.685 12.493,-6.248 z m -12458.9135,114.001 c 37.4798,23.423 74.9596,46.85 112.4394,68.713 -37.4798,-21.864 -74.9596,-45.288 -112.4394,-68.713 z m 142.1111,87.453 c 32.7943,18.738 65.5894,37.48 98.3846,57.782 -32.7944,-20.301 -65.5899,-39.043 -98.3846,-57.782 z m 135.8644,79.645 c 29.672,17.178 59.3428,34.357 89.0144,51.534 -29.672,-17.178 -59.3432,-34.357 -89.0144,-51.534 z m 135.8644,78.083 c 26.5497,14.056 54.6577,29.672 81.2058,45.288 -26.5497,-15.616 -54.6577,-31.235 -81.2058,-45.288 z m 11376.6836,40.603 c -4.685,1.559 -9.371,4.685 -12.493,7.808 3.118,-3.119 7.808,-6.249 12.493,-7.808 z m -11245.5047,31.235 c 26.5497,15.616 54.6582,29.672 82.7682,45.288 -28.1088,-15.616 -56.2197,-29.672 -82.7682,-45.288 z m 11115.8867,39.043 c -9.371,4.685 -17.179,9.371 -24.986,14.056 7.807,-4.685 15.615,-9.371 24.986,-14.056 z m -10984.707,31.235 c 28.1089,15.616 54.6578,29.672 82.7678,45.289 -28.1088,-15.616 -54.6581,-29.673 -82.7678,-45.289 z m 10848.843,40.603 c -7.808,4.686 -15.616,9.371 -24.987,12.494 9.371,-3.119 17.179,-7.808 24.987,-12.494 z m -10717.664,29.672 c 29.672,14.057 59.3432,29.672 87.4529,43.726 -28.1089,-14.056 -57.7813,-29.672 -87.4529,-43.726 z m 10583.361,39.043 c -9.371,4.686 -18.738,9.371 -28.109,14.057 9.371,-4.686 18.738,-9.371 28.109,-14.057 z m -10450.6197,28.109 c 34.3574,15.616 67.151,32.795 99.9461,48.412 -32.7943,-15.616 -65.5899,-32.795 -99.9461,-48.412 z m 10314.7557,40.604 c -9.371,4.685 -18.738,9.371 -28.109,12.493 9.371,-3.118 18.742,-7.808 28.109,-12.493 z m -10182.0149,23.423 c 42.1649,20.301 85.8914,40.603 129.6178,60.905 -43.7264,-20.301 -87.4529,-40.603 -129.6178,-60.905 z m 10039.9039,43.727 c -7.808,3.118 -15.616,7.808 -23.423,10.93 7.807,-3.118 15.615,-7.808 23.423,-10.93 z m -9905.6014,20.301 c 46.85,21.864 93.6999,42.165 140.5495,64.028 -46.8496,-20.301 -93.6995,-42.165 -140.5495,-64.028 z m 9758.8054,48.411 c -4.685,1.559 -9.371,3.118 -14.056,6.249 4.685,-3.119 9.371,-4.686 14.056,-6.249 z m -9610.4477,18.742 c 42.1649,18.738 84.3297,37.48 126.4942,56.219 -42.1645,-18.738 -84.3293,-37.48 -126.4942,-56.219 z m 171.7826,76.521 c 29.672,12.493 60.9048,24.987 90.576,37.48 -29.672,-12.493 -60.9048,-24.987 -90.576,-37.48 z m 143.6726,59.343 c 28.1089,12.493 57.7813,24.986 85.891,35.917 -28.1089,-10.931 -57.7813,-23.424 -85.891,-35.917 z m 8856.1665,32.794 c -4.686,3.119 -9.371,4.686 -14.057,6.249 4.686,-1.559 9.371,-3.118 14.057,-6.249 z m -8715.6174,24.987 c 28.1089,10.93 56.2197,21.864 84.3298,32.794 -28.1089,-10.93 -56.2197,-21.864 -84.3298,-32.794 z m 8576.6294,31.235 c -10.93,3.118 -21.864,7.808 -34.357,12.493 12.493,-4.685 23.423,-9.371 34.357,-12.493 z m -8434.5183,23.423 c 26.5497,10.93 54.6581,21.865 82.7678,32.795 -28.1089,-10.93 -56.2197,-21.865 -82.7678,-32.795 z m 8293.9693,29.665 c -12.493,4.686 -26.55,9.371 -40.603,15.616 14.056,-6.245 28.109,-10.93 40.603,-15.616 z m -8153.4203,23.424 c 28.1089,10.93 56.2202,21.864 84.3298,31.235 -28.1088,-9.371 -56.2197,-20.301 -84.3298,-31.235 z m 8011.3093,29.672 c -14.056,4.685 -28.109,9.371 -42.165,14.056 14.057,-4.685 28.109,-9.371 42.165,-14.056 z m -7870.7598,21.864 c 29.672,10.93 59.3429,20.301 89.0145,31.235 -29.672,-10.93 -59.3429,-20.301 -89.0145,-31.235 z m 7727.0878,28.109 c -14.057,4.685 -29.672,10.93 -43.727,15.615 14.057,-4.685 29.672,-10.93 43.727,-15.615 z m -7584.9767,20.301 c 31.2351,10.93 62.4663,21.864 93.6995,32.794 -31.2352,-10.93 -62.4664,-21.864 -93.6995,-32.794 z m 7438.1797,29.672 c -14.056,4.685 -28.108,9.371 -40.603,14.056 12.494,-4.685 26.55,-9.371 40.603,-14.056 z m -7296.0691,18.742 c 35.9167,10.93 71.8365,23.423 107.7548,34.357 -35.9167,-10.93 -71.8365,-23.423 -107.7548,-34.357 z m 7147.7121,29.672 c -12.493,3.118 -24.986,7.807 -39.043,10.93 14.057,-3.119 26.55,-7.808 39.043,-10.93 z m -7004.0391,15.615 c 48.4111,15.616 96.8227,29.672 145.2342,43.727 -48.4115,-14.057 -96.8231,-28.109 -145.2342,-43.727 z m 145.2342,43.727 c 48.4111,14.056 96.8226,28.109 145.2341,42.164 -48.4115,-14.056 -96.823,-28.109 -145.2341,-42.164 z m 6707.3239,-14.057 c -10.93,4.686 -21.864,7.808 -32.794,10.93 10.93,-3.118 21.864,-6.248 32.794,-10.93 z m -6513.6782,70.275 c 32.7943,9.371 65.5894,17.179 98.3846,26.549 -32.7944,-9.37 -65.5899,-17.178 -98.3846,-26.549 z m 6184.1682,24.986 c -7.808,1.559 -14.056,3.119 -21.864,4.686 7.808,-1.559 14.056,-3.119 21.864,-4.686 z m -6034.249,15.616 c 31.2352,7.808 62.4663,15.615 95.2611,23.423 -32.7944,-7.808 -64.0279,-15.615 -95.2611,-23.423 z m 5885.892,21.865 c -14.057,4.686 -26.55,7.808 -40.603,10.93 14.056,-3.118 26.549,-6.244 40.603,-10.93 z m -5731.2881,17.179 c 29.672,7.808 57.7817,14.057 87.4529,21.864 -29.672,-7.807 -57.7813,-14.056 -87.4529,-21.864 z m 5584.4911,20.301 c -17.178,3.118 -34.357,7.808 -51.534,12.493 17.179,-4.685 34.357,-9.371 51.534,-12.493 z m -5436.1334,15.616 c 29.672,6.248 57.7817,14.056 87.4529,20.301 -29.672,-6.245 -57.7813,-14.057 -87.4529,-20.301 z m 5286.2144,18.738 c -17.179,4.685 -35.916,7.807 -54.658,12.493 18.738,-4.686 37.48,-7.808 54.658,-12.493 z m -5134.7336,15.615 c 28.1088,6.249 56.2201,12.493 84.3297,18.738 -28.1088,-6.249 -56.2197,-12.493 -84.3297,-18.738 z m 4984.8146,17.179 c -18.738,4.685 -37.48,7.808 -56.219,12.493 18.738,-4.685 37.479,-7.808 56.219,-12.493 z m -4834.8954,14.056 c 28.1089,6.249 56.2201,12.494 84.3298,17.179 -28.1089,-4.685 -56.2197,-10.93 -84.3298,-17.179 z m 4684.9764,17.179 c -20.301,4.686 -39.043,7.808 -59.343,10.93 20.301,-3.118 39.043,-6.248 59.343,-10.93 z m -4535.0572,14.057 c 29.6721,4.685 59.3433,10.93 87.4529,15.615 -28.1088,-4.685 -57.7812,-10.93 -87.4529,-15.615 z m 4385.1382,14.056 c -20.302,4.685 -42.165,7.808 -62.467,12.493 20.301,-4.685 42.165,-7.808 62.467,-12.493 z m -4235.2189,14.056 c 31.2352,4.686 64.0283,10.931 95.2619,15.616 -31.2356,-4.685 -64.0283,-10.93 -95.2619,-15.616 z m 4077.4909,14.057 c -18.738,3.118 -35.917,6.244 -54.658,9.371 18.742,-3.119 35.917,-6.249 54.658,-9.371 z m -3926.01,10.93 c 35.917,6.249 71.836,12.493 107.755,17.179 -35.917,-4.686 -71.837,-10.93 -107.755,-17.179 z m 3763.598,15.616 c -14.057,3.118 -29.672,6.248 -45.288,7.807 15.615,-1.559 31.235,-4.685 45.288,-7.807 z m -3610.555,9.371 c 49.973,7.807 99.946,14.056 149.919,21.864 -49.973,-7.808 -99.946,-14.057 -149.919,-21.864 z m 3437.211,17.178 c -9.371,1.559 -17.179,3.119 -26.55,4.686 9.371,-1.559 17.179,-3.119 26.55,-4.686 z m -3243.566,10.93 c 37.48,4.686 73.398,9.371 109.317,14.057 -35.917,-4.686 -71.837,-9.371 -109.317,-14.057 z m 3063.975,14.057 c -14.057,1.559 -29.672,3.118 -45.288,4.685 15.615,-1.559 31.231,-3.118 45.288,-4.685 z m -2898.439,6.248 c 32.795,4.686 65.59,7.808 98.385,12.494 -32.795,-4.686 -65.59,-7.808 -98.385,-12.494 z m 2743.835,10.931 c -18.738,3.118 -37.48,4.685 -57.782,6.248 20.301,-1.559 39.043,-3.118 57.782,-6.248 z m -2581.422,7.807 c 29.672,3.119 59.343,6.249 89.014,9.371 -29.672,-3.118 -59.343,-6.248 -89.014,-9.371 z m 2426.817,9.371 c -20.301,1.559 -40.603,3.119 -62.466,4.686 21.864,-1.559 42.165,-3.119 62.466,-4.686 z m -2270.651,6.245 c 31.235,3.118 60.905,4.685 90.576,7.808 -29.672,-3.119 -59.343,-4.686 -90.576,-7.808 z m 2114.485,7.808 c -21.864,1.559 -42.164,3.118 -64.028,4.685 21.865,-1.559 42.165,-3.118 64.028,-4.685 z m -1959.881,4.685 c 31.235,3.119 60.904,6.249 92.138,7.808 -31.236,-1.559 -60.905,-4.685 -92.138,-7.808 z m 1805.277,7.808 c -23.423,1.559 -46.849,3.118 -68.713,4.685 21.864,-1.559 45.289,-3.118 68.713,-4.685 z m -1647.55,4.685 c 29.672,1.56 59.343,3.119 89.015,4.686 -29.672,-1.559 -59.343,-3.118 -89.015,-4.686 z m 1489.823,4.686 c -21.865,1.559 -45.288,3.118 -68.713,4.685 23.423,-1.559 46.85,-3.118 68.713,-4.685 z m -1332.095,4.685 c 31.235,1.56 62.466,3.119 93.699,4.686 -31.235,-1.559 -62.466,-3.118 -93.699,-4.686 z m 1172.806,4.686 c -21.865,0 -43.727,1.559 -67.152,3.118 23.424,-1.559 45.288,-3.118 67.152,-3.118 z m -1016.64,3.118 c 32.794,0 65.589,1.559 96.823,3.119 -31.235,-1.56 -64.029,-3.119 -96.823,-3.119 z m 854.227,3.119 c -20.301,0 -42.165,1.559 -62.466,1.559 20.301,0 42.165,-1.559 62.466,-1.559 z m -694.938,1.559 c 32.794,0 67.151,1.559 99.946,1.559 -32.794,0 -67.151,-1.559 -99.946,-1.559 z m 526.279,1.559 c -17.179,1.559 -34.357,1.559 -51.535,1.559 17.179,0 34.358,0 51.535,-1.559 z m -368.551,1.559 c 53.096,0 104.631,1.559 157.727,1.559 -53.096,0 -104.631,-1.559 -157.727,-1.559 z m 0,0"
     style="fill:#62a1d3;fill-opacity:1;fill-rule:nonzero;stroke:none;stroke-width:399.78463745"
     inkscape:connector-curvature="0" /><path
     id="path6"
     d="M 20814.002,4388.4756 3185.9982,19611.524 c 2130.1025,2467.422 5283.0916,4024.395 8814.0018,4024.395 6446.527,0 11635.919,-5189.392 11635.919,-11635.919 0,-2915.6169 -1061.928,-5575.1214 -2821.917,-7611.5244 z m 0,0"
     style="fill:#1875c5;fill-opacity:1;fill-rule:nonzero;stroke:none;stroke-width:399.78463745"
     inkscape:connector-curvature="0" /><path
     inkscape:connector-curvature="0"
     id="path2-36"
     overflow="visible"
     style="color:#bebebe;overflow:visible;fill:#eeeeee;fill-opacity:1;stroke-width:943.49121094;marker:none"
     d="m 12000,5867.3071 a 2830.4741,2830.4741 0 1 0 0,5660.9479 2830.4741,2830.4741 0 0 0 0,-5660.9479 z m -1415.236,6604.4379 a 4236.2758,4236.2758 0 0 0 -4245.711,4245.711 v 471.746 c 0,943.491 943.4918,943.491 943.4918,943.491 h 9434.9122 c 0,0 943.49,0 943.49,-943.491 v -471.746 a 4236.2758,4236.2758 0 0 0 -4245.71,-4245.711 z" /></svg>