<?xml version="1.0" encoding="UTF-8" standalone="no"?>
<svg
   xmlns:dc="http://purl.org/dc/elements/1.1/"
   xmlns:cc="http://creativecommons.org/ns#"
   xmlns:rdf="http://www.w3.org/1999/02/22-rdf-syntax-ns#"
   xmlns:svg="http://www.w3.org/2000/svg"
   xmlns="http://www.w3.org/2000/svg"
   xmlns:sodipodi="http://sodipodi.sourceforge.net/DTD/sodipodi-0.dtd"
   xmlns:inkscape="http://www.inkscape.org/namespaces/inkscape"
   width="48"
   height="48"
   viewBox="0 0 48 48"
   version="1.1"
   id="svg9"
   sodipodi:docname="preferences-system-brightness-lock.svg"
   inkscape:version="0.92.4 (5da689c313, 2019-01-14)">
  <metadata
     id="metadata15">
    <rdf:RDF>
      <cc:Work
         rdf:about="">
        <dc:format>image/svg+xml</dc:format>
        <dc:type
           rdf:resource="http://purl.org/dc/dcmitype/StillImage" />
        <dc:title></dc:title>
      </cc:Work>
    </rdf:RDF>
  </metadata>
  <defs
     id="defs13" />
  <sodipodi:namedview
     pagecolor="#ffffff"
     bordercolor="#666666"
     borderopacity="1"
     objecttolerance="10"
     gridtolerance="10"
     guidetolerance="10"
     inkscape:pageopacity="0"
     inkscape:pageshadow="2"
     inkscape:window-width="1280"
     inkscape:window-height="954"
     id="namedview11"
     showgrid="false"
     inkscape:zoom="7.375"
     inkscape:cx="52.549152"
     inkscape:cy="38.128833"
     inkscape:window-x="0"
     inkscape:window-y="0"
     inkscape:window-maximized="1"
     inkscape:current-layer="svg9" />
  <g
     id="surface1"
     transform="matrix(0.79545046,0,0,0.79545046,-1.2555521,-1.652889)">
    <path
       style="fill:#eeeeee;fill-opacity:1;fill-rule:nonzero;stroke:none"
       d="m 31.75,3.082031 c -0.777344,0 -1.558594,0.300781 -2.15625,0.894531 l -7.105469,7.105469 h -8.90625 c -1.660156,0 -3,1.339844 -3,3 v 8.90625 L 3.476562,30.09375 c -1.191406,1.195312 -1.191406,3.117188 0,4.3125 l 7.105469,7.105469 v 8.90625 c 0,1.660156 1.339844,3 3,3 h 8.90625 l 7.105469,7.105469 c 1.195312,1.191406 3.117188,1.191406 4.3125,0 l 7.105469,-7.105469 h 8.90625 c 1.660156,0 3,-1.339844 3,-3 v -8.90625 l 7.105469,-7.105469 c 1.191406,-1.195312 1.191406,-3.117188 0,-4.3125 l -7.105469,-7.105469 v -8.90625 c 0,-1.660156 -1.339844,-3 -3,-3 h -8.90625 L 33.90625,3.976562 C 33.308594,3.382812 32.527344,3.082031 31.75,3.082031 Z m 0,0"
       id="path2"
       inkscape:connector-curvature="0" />
    <path
       style="fill:#3f3f3f;fill-opacity:1;fill-rule:nonzero;stroke:none"
       d="m 31.75,12.40625 c 10.960938,0 19.84375,8.882812 19.84375,19.84375 0,10.960938 -8.882812,19.84375 -19.84375,19.84375 -10.960938,0 -19.84375,-8.882812 -19.84375,-19.84375 0,-10.960938 8.882812,-19.84375 19.84375,-19.84375 z m 0,0"
       id="path4"
       inkscape:connector-curvature="0" />
    <path
       style="fill:#eeeeee;fill-opacity:1;fill-rule:nonzero;stroke:none"
       d="m 31.75,15.050781 c -9.527344,0 -17.199219,7.671875 -17.199219,17.199219 0,9.527344 7.671875,17.199219 17.199219,17.199219 z m 0,0"
       id="path6"
       inkscape:connector-curvature="0" />
  </g>
</svg>
