<?xml version="1.0" encoding="UTF-8" standalone="no"?>
<svg
   xmlns:dc="http://purl.org/dc/elements/1.1/"
   xmlns:cc="http://creativecommons.org/ns#"
   xmlns:rdf="http://www.w3.org/1999/02/22-rdf-syntax-ns#"
   xmlns:svg="http://www.w3.org/2000/svg"
   xmlns="http://www.w3.org/2000/svg"
   xmlns:sodipodi="http://sodipodi.sourceforge.net/DTD/sodipodi-0.dtd"
   xmlns:inkscape="http://www.inkscape.org/namespaces/inkscape"
   width="48"
   height="48"
   viewBox="0 0 48 48"
   version="1.1"
   id="svg9"
   sodipodi:docname="preferences-desktop-notification.svg"
   inkscape:version="0.92.4 (5da689c313, 2019-01-14)">
  <metadata
     id="metadata15">
    <rdf:RDF>
      <cc:Work
         rdf:about="">
        <dc:format>image/svg+xml</dc:format>
        <dc:type
           rdf:resource="http://purl.org/dc/dcmitype/StillImage" />
        <dc:title></dc:title>
      </cc:Work>
    </rdf:RDF>
  </metadata>
  <defs
     id="defs13" />
  <sodipodi:namedview
     pagecolor="#ffffff"
     bordercolor="#666666"
     borderopacity="1"
     objecttolerance="10"
     gridtolerance="10"
     guidetolerance="10"
     inkscape:pageopacity="0"
     inkscape:pageshadow="2"
     inkscape:window-width="1280"
     inkscape:window-height="954"
     id="namedview11"
     showgrid="false"
     inkscape:zoom="3.6875"
     inkscape:cx="27.254237"
     inkscape:cy="32"
     inkscape:window-x="0"
     inkscape:window-y="0"
     inkscape:window-maximized="1"
     inkscape:current-layer="svg9" />
  <g
     id="surface1"
     transform="matrix(0.76240705,0,0,0.76240705,-0.20642384,-0.58762736)">
    <path
       style="fill:#fa8a00;fill-opacity:1;fill-rule:nonzero;stroke:none"
       d="m 29.105469,3.144531 h 5.289062 c 1.460938,0 2.648438,1.1875 2.648438,2.648438 0,1.460937 -1.1875,2.644531 -2.648438,2.644531 h -5.289062 c -1.460938,0 -2.648438,-1.183594 -2.648438,-2.644531 0,-1.460938 1.1875,-2.648438 2.648438,-2.648438 z m 0,0"
       id="path2"
       inkscape:connector-curvature="0" />
    <path
       style="fill:#fa8a00;fill-opacity:1;fill-rule:nonzero;stroke:none"
       d="m 30.425781,53.417969 h 2.648438 c 2.191406,0 3.96875,1.777343 3.96875,3.96875 0,2.191406 -1.777344,3.96875 -3.96875,3.96875 h -2.648438 c -2.191406,0 -3.96875,-1.777344 -3.96875,-3.96875 0,-2.191407 1.777344,-3.96875 3.96875,-3.96875 z m 0,0"
       id="path4"
       inkscape:connector-curvature="0" />
    <path
       style="fill:#ffa623;fill-opacity:1;fill-rule:nonzero;stroke:none"
       d="m 31.75,5.792969 c -11.726562,0 -21.167969,8.257812 -21.167969,18.519531 v 21.167969 c 0,5.289062 -7.9375,5.289062 -7.9375,10.582031 h 58.210938 c 0,-5.292969 -7.9375,-5.292969 -7.9375,-10.582031 V 24.3125 C 52.917969,14.050781 43.476562,5.792969 31.75,5.792969 Z m 0,0"
       id="path6"
       inkscape:connector-curvature="0" />
  </g>
</svg>
