<?xml version="1.0" encoding="UTF-8" standalone="no"?>
<svg
   xmlns:dc="http://purl.org/dc/elements/1.1/"
   xmlns:cc="http://creativecommons.org/ns#"
   xmlns:rdf="http://www.w3.org/1999/02/22-rdf-syntax-ns#"
   xmlns:svg="http://www.w3.org/2000/svg"
   xmlns="http://www.w3.org/2000/svg"
   xmlns:sodipodi="http://sodipodi.sourceforge.net/DTD/sodipodi-0.dtd"
   xmlns:inkscape="http://www.inkscape.org/namespaces/inkscape"
   width="48"
   height="48"
   viewBox="0 0 48 48"
   version="1.1"
   id="svg31"
   sodipodi:docname="software-update-available.svg"
   inkscape:version="0.92.4 (5da689c313, 2019-01-14)">
  <metadata
     id="metadata37">
    <rdf:RDF>
      <cc:Work
         rdf:about="">
        <dc:format>image/svg+xml</dc:format>
        <dc:type
           rdf:resource="http://purl.org/dc/dcmitype/StillImage" />
        <dc:title />
      </cc:Work>
    </rdf:RDF>
  </metadata>
  <defs
     id="defs35">
    <clipPath
       clipPathUnits="userSpaceOnUse"
       id="clipPath4645">
      <rect
         ry="17.777853"
         y="201.49301"
         x="16.618851"
         height="252.71548"
         width="481.63086"
         id="rect4647"
         style="color:#000000;display:inline;overflow:visible;visibility:visible;fill:#3d8dd8;fill-opacity:1;fill-rule:evenodd;stroke:none;stroke-width:2.27114606;marker:none;enable-background:accumulate" />
    </clipPath>
  </defs>
  <sodipodi:namedview
     pagecolor="#ffffff"
     bordercolor="#666666"
     borderopacity="1"
     objecttolerance="10"
     gridtolerance="10"
     guidetolerance="10"
     inkscape:pageopacity="0"
     inkscape:pageshadow="2"
     inkscape:window-width="1280"
     inkscape:window-height="954"
     id="namedview33"
     showgrid="false"
     inkscape:zoom="7.375"
     inkscape:cx="28.707443"
     inkscape:cy="10.143488"
     inkscape:window-x="0"
     inkscape:window-y="0"
     inkscape:window-maximized="1"
     inkscape:current-layer="svg31" />
  <g
     transform="matrix(0.78570048,0,0,0.78570048,-0.81039726,-1.2032471)"
     id="surface1">
    <path
       inkscape:connector-curvature="0"
       style="fill:#dedede;fill-opacity:1;fill-rule:nonzero;stroke:none"
       d="M 31.75,3.144531 C 15.625,3.144531 2.644531,16.125 2.644531,32.25 2.644531,48.375 15.625,61.355469 31.75,61.355469 47.875,61.355469 60.855469,48.375 60.855469,32.25 60.855469,16.125 47.875,3.144531 31.75,3.144531 Z m 0,21.167969 c 4.398438,0 7.9375,3.539062 7.9375,7.9375 0,4.398438 -3.539062,7.9375 -7.9375,7.9375 -4.398438,0 -7.9375,-3.539062 -7.9375,-7.9375 0,-4.398438 3.539062,-7.9375 7.9375,-7.9375 z m 0,0"
       id="path2" />
    <path
       inkscape:connector-curvature="0"
       style="fill:#f5f5f5;fill-opacity:1;fill-rule:nonzero;stroke:none"
       d="m 31.75,4.46875 c -15.390625,0 -27.78125,12.390625 -27.78125,27.78125 0,15.390625 12.390625,27.78125 27.78125,27.78125 15.390625,0 27.78125,-12.390625 27.78125,-27.78125 C 59.53125,16.859375 47.140625,4.46875 31.75,4.46875 Z m 0,19.84375 c 4.398438,0 7.9375,3.539062 7.9375,7.9375 0,4.398438 -3.539062,7.9375 -7.9375,7.9375 -4.398438,0 -7.9375,-3.539062 -7.9375,-7.9375 0,-4.398438 3.539062,-7.9375 7.9375,-7.9375 z m 0,0"
       id="path4" />
    <path
       inkscape:connector-curvature="0"
       style="fill:#62a1d3;fill-opacity:1;fill-rule:nonzero;stroke:none"
       d="m 31.75,19.019531 c -7.328125,0 -13.230469,5.902344 -13.230469,13.230469 0,7.328125 5.902344,13.230469 13.230469,13.230469 7.328125,0 13.230469,-5.902344 13.230469,-13.230469 0,-7.328125 -5.902344,-13.230469 -13.230469,-13.230469 z m 0,9.261719 c 2.199219,0 3.96875,1.769531 3.96875,3.96875 0,2.199219 -1.769531,3.96875 -3.96875,3.96875 -2.199219,0 -3.96875,-1.769531 -3.96875,-3.96875 0,-2.199219 1.769531,-3.96875 3.96875,-3.96875 z m 0,0"
       id="path6" />
    <path
       inkscape:connector-curvature="0"
       style="fill:#79aedf;fill-opacity:1;fill-rule:nonzero;stroke:none"
       d="m 46.300781,61.355469 c -0.730469,0 -1.320312,-0.589844 -1.320312,-1.324219 V 45.480469 H 39.6875 L 50.269531,32.25 60.855469,45.480469 H 55.5625 V 60.03125 c 0,0.734375 -0.589844,1.324219 -1.324219,1.324219 z m 0,0"
       id="path8" />
  </g>
</svg>
