<?xml version="1.0" encoding="UTF-8" standalone="no"?>
<svg
   xmlns:dc="http://purl.org/dc/elements/1.1/"
   xmlns:cc="http://creativecommons.org/ns#"
   xmlns:rdf="http://www.w3.org/1999/02/22-rdf-syntax-ns#"
   xmlns:svg="http://www.w3.org/2000/svg"
   xmlns="http://www.w3.org/2000/svg"
   xmlns:sodipodi="http://sodipodi.sourceforge.net/DTD/sodipodi-0.dtd"
   xmlns:inkscape="http://www.inkscape.org/namespaces/inkscape"
   width="48"
   height="48"
   viewBox="0 0 48 48"
   version="1.1"
   id="svg11"
   sodipodi:docname="system-software-install.svg"
   inkscape:version="0.92.4 (5da689c313, 2019-01-14)">
  <metadata
     id="metadata17">
    <rdf:RDF>
      <cc:Work
         rdf:about="">
        <dc:format>image/svg+xml</dc:format>
        <dc:type
           rdf:resource="http://purl.org/dc/dcmitype/StillImage" />
        <dc:title></dc:title>
      </cc:Work>
    </rdf:RDF>
  </metadata>
  <defs
     id="defs15" />
  <sodipodi:namedview
     pagecolor="#ffffff"
     bordercolor="#666666"
     borderopacity="1"
     objecttolerance="10"
     gridtolerance="10"
     guidetolerance="10"
     inkscape:pageopacity="0"
     inkscape:pageshadow="2"
     inkscape:window-width="1280"
     inkscape:window-height="954"
     id="namedview13"
     showgrid="false"
     inkscape:zoom="3.6875"
     inkscape:cx="27.254237"
     inkscape:cy="32"
     inkscape:window-x="0"
     inkscape:window-y="0"
     inkscape:window-maximized="1"
     inkscape:current-layer="svg11" />
  <g
     id="surface1"
     transform="matrix(0.76706574,0,0,0.76706574,-0.35433725,-0.73787011)">
    <path
       style="fill:#dedede;fill-opacity:1;fill-rule:nonzero;stroke:none"
       d="M 31.75,3.144531 C 15.625,3.144531 2.644531,16.125 2.644531,32.25 2.644531,48.375 15.625,61.355469 31.75,61.355469 47.875,61.355469 60.855469,48.375 60.855469,32.25 60.855469,16.125 47.875,3.144531 31.75,3.144531 Z m 0,21.167969 c 4.398438,0 7.9375,3.539062 7.9375,7.9375 0,4.398438 -3.539062,7.9375 -7.9375,7.9375 -4.398438,0 -7.9375,-3.539062 -7.9375,-7.9375 0,-4.398438 3.539062,-7.9375 7.9375,-7.9375 z m 0,0"
       id="path2"
       inkscape:connector-curvature="0" />
    <path
       style="fill:#f5f5f5;fill-opacity:1;fill-rule:nonzero;stroke:none"
       d="m 31.75,4.46875 c -15.390625,0 -27.78125,12.390625 -27.78125,27.78125 0,15.390625 12.390625,27.78125 27.78125,27.78125 15.390625,0 27.78125,-12.390625 27.78125,-27.78125 C 59.53125,16.859375 47.140625,4.46875 31.75,4.46875 Z m 0,19.84375 c 4.398438,0 7.9375,3.539062 7.9375,7.9375 0,4.398438 -3.539062,7.9375 -7.9375,7.9375 -4.398438,0 -7.9375,-3.539062 -7.9375,-7.9375 0,-4.398438 3.539062,-7.9375 7.9375,-7.9375 z m 0,0"
       id="path4"
       inkscape:connector-curvature="0" />
    <path
       style="fill:#66ba68;fill-opacity:1;fill-rule:nonzero;stroke:none"
       d="m 31.75,19.019531 c -7.328125,0 -13.230469,5.902344 -13.230469,13.230469 0,7.328125 5.902344,13.230469 13.230469,13.230469 7.328125,0 13.230469,-5.902344 13.230469,-13.230469 0,-7.328125 -5.902344,-13.230469 -13.230469,-13.230469 z m 0,9.261719 c 2.199219,0 3.96875,1.769531 3.96875,3.96875 0,2.199219 -1.769531,3.96875 -3.96875,3.96875 -2.199219,0 -3.96875,-1.769531 -3.96875,-3.96875 0,-2.199219 1.769531,-3.96875 3.96875,-3.96875 z m 0,0"
       id="path6"
       inkscape:connector-curvature="0" />
    <path
       style="fill:#66ba68;fill-opacity:1;fill-rule:nonzero;stroke:none"
       d="m 46.300781,32.25 c -0.730469,0 -1.320312,0.589844 -1.320312,1.324219 V 48.125 H 39.6875 L 50.269531,61.355469 60.855469,48.125 H 55.5625 V 33.574219 C 55.5625,32.839844 54.972656,32.25 54.238281,32.25 Z m 0,0"
       id="path8"
       inkscape:connector-curvature="0" />
  </g>
</svg>
