<?xml version="1.0" encoding="UTF-8" standalone="no"?>
<svg
   xmlns:dc="http://purl.org/dc/elements/1.1/"
   xmlns:cc="http://creativecommons.org/ns#"
   xmlns:rdf="http://www.w3.org/1999/02/22-rdf-syntax-ns#"
   xmlns:svg="http://www.w3.org/2000/svg"
   xmlns="http://www.w3.org/2000/svg"
   xmlns:sodipodi="http://sodipodi.sourceforge.net/DTD/sodipodi-0.dtd"
   xmlns:inkscape="http://www.inkscape.org/namespaces/inkscape"
   width="48"
   height="48"
   viewBox="0 0 48 48"
   version="1.1"
   id="svg5"
   sodipodi:docname="xfce4-whiskermenu.svg"
   inkscape:version="0.92.4 (5da689c313, 2019-01-14)">
  <metadata
     id="metadata11">
    <rdf:RDF>
      <cc:Work
         rdf:about="">
        <dc:format>image/svg+xml</dc:format>
        <dc:type
           rdf:resource="http://purl.org/dc/dcmitype/StillImage" />
        <dc:title></dc:title>
      </cc:Work>
    </rdf:RDF>
  </metadata>
  <defs
     id="defs9" />
  <sodipodi:namedview
     pagecolor="#ffffff"
     bordercolor="#666666"
     borderopacity="1"
     objecttolerance="10"
     gridtolerance="10"
     guidetolerance="10"
     inkscape:pageopacity="0"
     inkscape:pageshadow="2"
     inkscape:window-width="1280"
     inkscape:window-height="954"
     id="namedview7"
     showgrid="false"
     inkscape:zoom="5.2149125"
     inkscape:cx="51.72111"
     inkscape:cy="43.284301"
     inkscape:window-x="0"
     inkscape:window-y="0"
     inkscape:window-maximized="1"
     inkscape:current-layer="svg5" />
  <g
     id="g3863"
     transform="matrix(0.78182268,0,0,0.78182268,-0.25306994,-1.5581247)"
     style="fill:#63a1d4;fill-opacity:0.99215686">
    <path
       style="fill:#63a1d4;fill-opacity:0.99215686;stroke-width:0.1068451"
       id="path65"
       d="m 13.925974,32.584231 c 0,-0.650684 0.0376,-1.29261 0.108449,-1.924383 L 4.1523196,27.448935 c -0.3160534,1.663582 -0.4834765,3.37973 -0.4834765,5.135296 0,7.865402 3.3210669,14.954154 8.6359709,19.943927 L 18.410156,44.125 C 15.625562,41.083869 13.925974,37.032733 13.925974,32.584231 Z m 34.190431,0 c 0,4.448391 -1.699476,8.499638 -4.484181,11.540769 l 6.105342,8.403158 c 5.314904,-4.989773 8.635971,-12.078525 8.635971,-19.943927 0,-1.755566 -0.16732,-3.471714 -0.483366,-5.135296 l -9.882103,3.210913 c 0.07075,0.631884 0.108337,1.273699 0.108337,1.924383 z M 34.440237,15.831349 c 4.911346,0.996974 9.05747,4.09975 11.456467,8.32462 l 9.881993,-3.210801 C 51.868382,12.642233 43.906071,6.624723 34.440237,5.444291 Z m -18.294554,8.324516 c 2.39899,-4.22487 6.545114,-7.327653 11.456467,-8.324627 V 5.444291 C 18.136309,6.624723 10.174109,12.642233 6.263787,20.945064 Z M 38.10267,48.147723 c -2.157738,0.983403 -4.555445,1.531728 -7.081476,1.531728 -2.526039,0 -4.923746,-0.548325 -7.08138,-1.531624 l -6.105764,8.4039 c 3.910848,2.156455 8.405287,3.384855 13.187144,3.384855 4.781849,0 9.276287,-1.2284 13.187247,-3.384855 z"
       inkscape:connector-curvature="0" />
    <circle
       r="11.313708"
       cy="33.126999"
       cx="30.489487"
       id="path3859"
       style="opacity:1;fill:#63a1d4;fill-opacity:0.99215686;stroke:none;stroke-linecap:round;stroke-linejoin:round;stroke-opacity:1" />
  </g>
</svg>
