<?xml version="1.0" encoding="UTF-8" standalone="no"?>
<svg
   xmlns:dc="http://purl.org/dc/elements/1.1/"
   xmlns:cc="http://creativecommons.org/ns#"
   xmlns:rdf="http://www.w3.org/1999/02/22-rdf-syntax-ns#"
   xmlns:svg="http://www.w3.org/2000/svg"
   xmlns="http://www.w3.org/2000/svg"
   xmlns:sodipodi="http://sodipodi.sourceforge.net/DTD/sodipodi-0.dtd"
   xmlns:inkscape="http://www.inkscape.org/namespaces/inkscape"
   height="48"
   viewBox="0 0 48 48"
   width="48"
   version="1.1"
   id="svg4"
   sodipodi:docname="xfce-mouse.svg"
   inkscape:version="0.92.4 (5da689c313, 2019-01-14)"
   style="fill:#00fbff">
  <metadata
     id="metadata10">
    <rdf:RDF>
      <cc:Work
         rdf:about="">
        <dc:format>image/svg+xml</dc:format>
        <dc:type
           rdf:resource="http://purl.org/dc/dcmitype/StillImage" />
        <dc:title></dc:title>
      </cc:Work>
    </rdf:RDF>
  </metadata>
  <defs
     id="defs8" />
  <sodipodi:namedview
     pagecolor="#ffffff"
     bordercolor="#666666"
     borderopacity="1"
     objecttolerance="10"
     gridtolerance="10"
     guidetolerance="10"
     inkscape:pageopacity="0"
     inkscape:pageshadow="2"
     inkscape:window-width="1280"
     inkscape:window-height="954"
     id="namedview6"
     showgrid="false"
     inkscape:zoom="5.0126952"
     inkscape:cx="-35.687288"
     inkscape:cy="41.488972"
     inkscape:window-x="0"
     inkscape:window-y="0"
     inkscape:window-maximized="1"
     inkscape:current-layer="svg4" />
  <g
     id="g3848"
     transform="matrix(0.79660061,0,0,0.79660061,-1.4912191,-1.4912195)">
    <path
       sodipodi:nodetypes="ccccc"
       inkscape:connector-curvature="0"
       id="path822"
       d="m 12.780787,16.51116 c -1.524629,4.84844 -0.33621,11.826443 -0.14962,17.90454 l 39.05085,0.698231 C 51.614779,27.969385 52.495299,23.54298 51.532396,17.309138 39.7628,7.9532541 27.465373,4.1371198 12.780787,16.51116 Z"
       style="fill:#315069;fill-opacity:1;stroke:none;stroke-width:1px;stroke-linecap:butt;stroke-linejoin:miter;stroke-opacity:1" />
    <path
       style="fill:#62a1d3;fill-opacity:1;stroke-width:1.90224445"
       id="path4"
       d="m 32.013204,32 c -4.399981,0 -7.967371,-3.253668 -7.967371,-7.266705 H 12.094774 v 18.166763 c 0,10.031688 8.917481,18.166765 19.91843,18.166765 11.000951,0 19.918432,-8.135077 19.918432,-18.166765 V 24.733295 H 39.980578 C 39.980578,28.746332 36.413187,32 32.013204,32 Z M 24.045833,17.466588 c 0,-4.013038 3.56739,-7.266705 7.967371,-7.266705 4.399983,0 7.967374,3.253667 7.967374,7.266705 v 3.633353 h 11.951058 c 0,-10.033504 -8.917481,-18.166764 -19.918432,-18.166764 -11.000949,0 -19.91843,8.13326 -19.91843,18.166764 h 11.951059 z m 5.975529,-1.816676 v 10.900059 c 0,1.002806 0.892345,1.816676 1.991842,1.816676 1.099499,0 1.991844,-0.81387 1.991844,-1.816676 V 15.649912 c 0,-1.002806 -0.892345,-1.816677 -1.991844,-1.816677 -1.099497,0 -1.991842,0.813871 -1.991842,1.816677 z"
       inkscape:connector-curvature="0" />
  </g>
</svg>
