<?xml version="1.0" encoding="UTF-8" standalone="no"?>
<!-- Generator: Adobe Illustrator 19.0.0, SVG Export Plug-In . SVG Version: 6.00 Build 0)  -->

<svg
   xmlns:dc="http://purl.org/dc/elements/1.1/"
   xmlns:cc="http://creativecommons.org/ns#"
   xmlns:rdf="http://www.w3.org/1999/02/22-rdf-syntax-ns#"
   xmlns:svg="http://www.w3.org/2000/svg"
   xmlns="http://www.w3.org/2000/svg"
   xmlns:xlink="http://www.w3.org/1999/xlink"
   xmlns:sodipodi="http://sodipodi.sourceforge.net/DTD/sodipodi-0.dtd"
   xmlns:inkscape="http://www.inkscape.org/namespaces/inkscape"
   version="1.1"
   id="Layer_1"
   x="0px"
   y="0px"
   viewBox="0 0 24000 24000"
   xml:space="preserve"
   inkscape:version="0.92.4 (5da689c313, 2019-01-14)"
   width="48"
   height="48"
   sodipodi:docname="xfce-filemanager.svg"><metadata
     id="metadata57"><rdf:RDF><cc:Work
         rdf:about=""><dc:format>image/svg+xml</dc:format><dc:type
           rdf:resource="http://purl.org/dc/dcmitype/StillImage" /><dc:title></dc:title></cc:Work></rdf:RDF></metadata><defs
     id="defs55"><clipPath
       id="clipPath13429"><path
         inkscape:connector-curvature="0"
         d="m 481,318 h 22 v 22 h -22 z"
         id="path2" /></clipPath><clipPath
       id="clipPath13465"><path
         inkscape:connector-curvature="0"
         d="m 507,318 h 22 v 22 h -22 z"
         id="path5" /></clipPath><clipPath
       id="clipPath13501"><path
         inkscape:connector-curvature="0"
         d="m 530,318 h 22 v 22 h -22 z"
         id="path8" /></clipPath><clipPath
       id="clipPath13753"><path
         inkscape:connector-curvature="0"
         d="m 672,1064 c 0,-1.105 4.925,-2 11,-2 6.075,0 11,0.895 11,2 0,1.105 -4.925,2 -11,2 -6.075,0 -11,-0.895 -11,-2"
         id="path11" /></clipPath><clipPath
       id="clipPath13771"><path
         inkscape:connector-curvature="0"
         d="m 660,1057 h 51 v 65.001 h -51 z"
         id="path14" /></clipPath><clipPath
       id="clipPath14035"><path
         inkscape:connector-curvature="0"
         d="m 659,517 h 53 v 18 h -53 z"
         id="path17" /></clipPath><clipPath
       id="clipPath14127"><path
         inkscape:connector-curvature="0"
         d="m 659,500 h 53 v 18 h -53 z"
         id="path20" /></clipPath><clipPath
       id="clipPath14445"><path
         inkscape:connector-curvature="0"
         d="m 648,112 h 73 v 60 h -73 z"
         id="path23" /></clipPath><clipPath
       id="clipPath14609"><path
         inkscape:connector-curvature="0"
         d="m 826,1056 h 59 v 60 h -59 z"
         id="path26" /></clipPath><clipPath
       id="clipPath15305"><path
         inkscape:connector-curvature="0"
         d="M 805,276 H 905 V 376 H 805 Z"
         id="path29" /></clipPath><clipPath
       id="clipPath15341"><path
         inkscape:connector-curvature="0"
         d="m 145,1063.8 h 74.152 v 45.21 H 145 Z"
         id="path32" /></clipPath><clipPath
       id="clipPath15715"><path
         inkscape:connector-curvature="0"
         d="m 151,667 h 57 v 57 h -57 z"
         id="path35" /></clipPath><clipPath
       id="clipPath15807"><path
         inkscape:connector-curvature="0"
         d="m 154,697 h 51 v 51 h -51 z"
         id="path38" /></clipPath><clipPath
       id="clipPath16001"><path
         inkscape:connector-curvature="0"
         d="m 500.04,864.45 h 36.012 v 67.52 H 500.04 Z"
         id="path41" /></clipPath><clipPath
       id="clipPath16093"><path
         inkscape:connector-curvature="0"
         d="m 836,870.54 h 47 v 55.539 h -47 z"
         id="path44" /></clipPath><clipPath
       id="clipPath16477"><path
         inkscape:connector-curvature="0"
         d="m 318.03,702.35 h 62.848 v 37.991 H 318.03 Z"
         id="path47" /></clipPath><clipPath
       id="clipPath16579"><path
         inkscape:connector-curvature="0"
         d="m 485.03,133.35 h 62.847 v 37.991 H 485.03 Z"
         id="path50" /></clipPath><clipPath
       id="clipPath16709"><path
         inkscape:connector-curvature="0"
         d="m 493.37,677.93 h 45.643 v 68.067 H 493.37 Z"
         id="path53" /></clipPath><clipPath
       id="clipPath24218"><path
         inkscape:connector-curvature="0"
         d="m 144.34,1018.2 h 71.467 v 78 H 144.34 Z"
         id="path56" /></clipPath><clipPath
       id="clipPath24382"><path
         inkscape:connector-curvature="0"
         d="m 293.21,1068.6 66.323,-38.292 36.047,62.435 -66.323,38.292 z"
         id="path59" /></clipPath><clipPath
       id="clipPath24650"><path
         inkscape:connector-curvature="0"
         d="m 488.86,1054.5 h 10 v 10.706 h -10 z"
         id="path62" /></clipPath><clipPath
       id="clipPath24700"><path
         inkscape:connector-curvature="0"
         d="m 508,1066.8 h 10.001 v 10.705 H 508 Z"
         id="path65" /></clipPath><clipPath
       id="clipPath24750"><path
         inkscape:connector-curvature="0"
         d="m 525,1045.8 h 10 v 10.706 h -10 z"
         id="path68" /></clipPath><clipPath
       id="clipPath24864"><path
         inkscape:connector-curvature="0"
         d="m 836,1043.7 h 25.5 v 31.5 H 836 Z"
         id="path71" /></clipPath><clipPath
       id="clipPath24896"><path
         inkscape:connector-curvature="0"
         d="m 838,1062.2 h 24 v 24 h -24 z"
         id="path74" /></clipPath><clipPath
       id="clipPath25070"><path
         inkscape:connector-curvature="0"
         d="m 134,489.24 h 7 v 6 h -7 z"
         id="path77" /></clipPath><clipPath
       id="clipPath25100"><path
         inkscape:connector-curvature="0"
         d="m 216,489.24 h 7 v 6 h -7 z"
         id="path80" /></clipPath><clipPath
       id="clipPath25502"><path
         inkscape:connector-curvature="0"
         d="m 838,477.24 h 22 v 22 h -22 z"
         id="path83" /></clipPath><clipPath
       id="clipPath25686"><path
         inkscape:connector-curvature="0"
         d="m 704,1061.2 h 25 v 25 h -25 z"
         id="path86" /></clipPath><clipPath
       id="clipPath25788"><path
         inkscape:connector-curvature="0"
         d="m 663.04,1078.6 -1.808,-3.514 -21.07,-47.453 c 13.336,-18.439 48.336,-26.938 73.836,-3.439 0.842,0 6.476,6.246 6,7 l -18.386,25.895 c -0.483,0.765 -1.453,0.946 -2.177,0.431 l -15.505,-11.011 c -0.359,-0.255 -0.847,-0.153 -1.07,0.238 l -18.272,31.869 c -0.218,0.384 -0.502,0.578 -0.782,0.578 -0.282,0 -0.561,-0.197 -0.766,-0.594"
         id="path89" /></clipPath><clipPath
       id="clipPath26420"><path
         inkscape:connector-curvature="0"
         d="m 127,820.24 h 100 v 100 H 127 Z"
         id="path92" /></clipPath><clipPath
       id="clipPath26860"><path
         inkscape:connector-curvature="0"
         d="m 809,680.24 c 0,-22.092 17.908,-40 40,-40 22.092,0 40,17.908 40,40 0,22.091 -17.908,40 -40,40 -22.092,0 -40,-17.909 -40,-40"
         id="path95" /></clipPath><clipPath
       id="clipPath27506"><path
         inkscape:connector-curvature="0"
         d="m 658,469.24 h 44 v 45 h -44 z"
         id="path98" /></clipPath><clipPath
       id="clipPath27772"><path
         inkscape:connector-curvature="0"
         d="m 651,271.24 h 58 v 58 h -58 z"
         id="path101" /></clipPath><clipPath
       id="clipPath27864"><path
         inkscape:connector-curvature="0"
         d="m 662,307.24 h 38 v 8 h -38 z"
         id="path104" /></clipPath><clipPath
       id="clipPath28028"><path
         inkscape:connector-curvature="0"
         d="m 858.98,137.24 c 0.013,-0.101 0.021,-0.203 0.021,-0.307 v -6.693 h 15.75 c 1.237,0 2.25,-1.013 2.25,-2.25 v -11.25 l -27,-4.5 -27,4.5 v -2.25 l 27,-4.5 27,4.5 v -27 c 0,-1.237 -1.013,-2.25 -2.25,-2.25 h -49.5 c -1.237,0 -2.25,1.013 -2.25,2.25 v -4.25 h 54 v 54 z m -35.979,0 v -9.25 c 0,1.237 1.013,2.25 2.25,2.25 h 15.75 v 6.693 c 0,0.104 0.007,0.207 0.02,0.307 z m 22.5,-7 h 9 v 4.5 h -9 z m 1.125,-9 c -0.62,0 -1.125,-0.506 -1.125,-1.125 v -2.25 c 0,-0.619 0.505,-1.125 1.125,-1.125 h 6.75 c 0.619,0 1.125,0.506 1.125,1.125 v 2.25 c 0,0.619 -0.506,1.125 -1.125,1.125 z"
         id="path107" /></clipPath><clipPath
       id="clipPath28200"><path
         inkscape:connector-curvature="0"
         d="m 531.27,136.24 c 6.325,-2.29 10.727,-8.277 10.727,-15.484 0,-11.316 -10.2,-20.563 -25.65,-34.575 l -4.35,-3.941 -4.35,3.941 c -15.45,14.012 -25.65,23.259 -25.65,34.575 V 81.24 h 60 v 55 z m -26.983,0 c 2.995,-1.052 5.686,-2.883 7.71,-5.25 2.024,2.367 4.715,4.198 7.71,5.25 z m -22.29,0 v -15.484 c 0,7.207 4.402,13.194 10.727,15.484 z"
         id="path110" /></clipPath><clipPath
       id="clipPath28364"><path
         inkscape:connector-curvature="0"
         d="m 648,79.241 h 64 v 64 h -64 z"
         id="path113" /></clipPath><clipPath
       id="clipPath28984"><path
         inkscape:connector-curvature="0"
         d="m 500,691.74 c 0,-3.037 2.463,-5.5 5.5,-5.5 3.037,0 5.5,2.463 5.5,5.5 0,3.037 -2.463,5.5 -5.5,5.5 -3.037,0 -5.5,-2.463 -5.5,-5.5"
         id="path116" /></clipPath><clipPath
       id="clipPath29012"><path
         inkscape:connector-curvature="0"
         d="m 500,669.74 c 0,-3.037 2.463,-5.5 5.5,-5.5 3.037,0 5.5,2.463 5.5,5.5 0,3.038 -2.463,5.5 -5.5,5.5 -3.037,0 -5.5,-2.462 -5.5,-5.5"
         id="path119" /></clipPath><clipPath
       id="clipPath29040"><path
         inkscape:connector-curvature="0"
         d="m 494,680.74 c 0,-3.037 2.462,-5.5 5.5,-5.5 3.038,0 5.5,2.463 5.5,5.5 0,3.038 -2.462,5.5 -5.5,5.5 -3.038,0 -5.5,-2.462 -5.5,-5.5"
         id="path122" /></clipPath><clipPath
       id="clipPath29068"><path
         inkscape:connector-curvature="0"
         d="m 513,691.74 c 0,-3.037 2.463,-5.5 5.5,-5.5 3.037,0 5.5,2.463 5.5,5.5 0,3.037 -2.463,5.5 -5.5,5.5 -3.037,0 -5.5,-2.463 -5.5,-5.5"
         id="path125" /></clipPath><clipPath
       id="clipPath29096"><path
         inkscape:connector-curvature="0"
         d="m 513,669.74 c 0,-3.037 2.463,-5.5 5.5,-5.5 3.037,0 5.5,2.463 5.5,5.5 0,3.038 -2.463,5.5 -5.5,5.5 -3.037,0 -5.5,-2.462 -5.5,-5.5"
         id="path128" /></clipPath><clipPath
       id="clipPath29124"><path
         inkscape:connector-curvature="0"
         d="m 507,680.74 c 0,-3.037 2.463,-5.5 5.5,-5.5 3.037,0 5.5,2.463 5.5,5.5 0,3.038 -2.463,5.5 -5.5,5.5 -3.037,0 -5.5,-2.462 -5.5,-5.5"
         id="path131" /></clipPath><clipPath
       id="clipPath29152"><path
         inkscape:connector-curvature="0"
         d="m 520,680.74 c 0,-3.037 2.463,-5.5 5.5,-5.5 3.037,0 5.5,2.463 5.5,5.5 0,3.038 -2.463,5.5 -5.5,5.5 -3.037,0 -5.5,-2.462 -5.5,-5.5"
         id="path134" /></clipPath><clipPath
       id="clipPath29252"><path
         inkscape:connector-curvature="0"
         d="m 321,322.24 c -4.97,0 -9,-4.029 -9,-9 0,-4.97 4.03,-9 9,-9 h 45 c 4.971,0 9,4.03 9,9 0,4.971 -4.029,9 -9,9 z"
         id="path137" /></clipPath><clipPath
       id="clipPath29280"><path
         inkscape:connector-curvature="0"
         d="m 322,297.24 c -4.971,0 -9,-4.029 -9,-9 0,-4.97 4.029,-9 9,-9 h 45 c 4.971,0 9,4.03 9,9 0,4.971 -4.029,9 -9,9 z"
         id="path140" /></clipPath><clipPath
       id="clipPath29400"><path
         inkscape:connector-curvature="0"
         d="m 155,83.24 h 44 v 53 h -44 z"
         id="path143" /></clipPath><filter
       style="color-interpolation-filters:sRGB"
       id="filter954"
       x="-0.18000001"
       y="-0.18000001"
       width="1.36"
       height="1.36"><feGaussianBlur
         stdDeviation="0.11906016"
         id="feGaussianBlur161" /></filter><filter
       style="color-interpolation-filters:sRGB"
       id="filter962"
       x="-0.18000001"
       y="-0.18000001"
       width="1.36"
       height="1.36"><feGaussianBlur
         stdDeviation="0.11906016"
         id="feGaussianBlur164" /></filter><linearGradient
       id="linearGradient856"
       x1="-73.361"
       x2="-58.736"
       y1="6.9798999"
       y2="17.198"
       gradientTransform="matrix(1383.009,0,0,1383.009,79148.03,-9299.6301)"
       gradientUnits="userSpaceOnUse"><stop
         stop-color="#3c3c3c"
         offset="0"
         id="stop146"
         style="stop-color:#63a1d4;stop-opacity:0.99215686" /><stop
         stop-color="#1e1e1e"
         offset="1"
         id="stop148"
         style="stop-color:#1875c5;stop-opacity:1" /></linearGradient><clipPath
       id="clipPath13429-3"><path
         inkscape:connector-curvature="0"
         d="m 481,318 h 22 v 22 h -22 z"
         id="path2-5" /></clipPath><clipPath
       id="clipPath13465-6"><path
         inkscape:connector-curvature="0"
         d="m 507,318 h 22 v 22 h -22 z"
         id="path5-2" /></clipPath><clipPath
       id="clipPath13501-9"><path
         inkscape:connector-curvature="0"
         d="m 530,318 h 22 v 22 h -22 z"
         id="path8-1" /></clipPath><clipPath
       id="clipPath13753-2"><path
         inkscape:connector-curvature="0"
         d="m 672,1064 c 0,-1.105 4.925,-2 11,-2 6.075,0 11,0.895 11,2 0,1.105 -4.925,2 -11,2 -6.075,0 -11,-0.895 -11,-2"
         id="path11-7" /></clipPath><clipPath
       id="clipPath13771-0"><path
         inkscape:connector-curvature="0"
         d="m 660,1057 h 51 v 65.001 h -51 z"
         id="path14-9" /></clipPath><clipPath
       id="clipPath14035-3"><path
         inkscape:connector-curvature="0"
         d="m 659,517 h 53 v 18 h -53 z"
         id="path17-6" /></clipPath><clipPath
       id="clipPath14127-0"><path
         inkscape:connector-curvature="0"
         d="m 659,500 h 53 v 18 h -53 z"
         id="path20-6" /></clipPath><clipPath
       id="clipPath14445-2"><path
         inkscape:connector-curvature="0"
         d="m 648,112 h 73 v 60 h -73 z"
         id="path23-6" /></clipPath><clipPath
       id="clipPath14609-1"><path
         inkscape:connector-curvature="0"
         d="m 826,1056 h 59 v 60 h -59 z"
         id="path26-8" /></clipPath><clipPath
       id="clipPath15305-7"><path
         inkscape:connector-curvature="0"
         d="M 805,276 H 905 V 376 H 805 Z"
         id="path29-9" /></clipPath><clipPath
       id="clipPath15341-2"><path
         inkscape:connector-curvature="0"
         d="m 145,1063.8 h 74.152 v 45.21 H 145 Z"
         id="path32-0" /></clipPath><clipPath
       id="clipPath15715-2"><path
         inkscape:connector-curvature="0"
         d="m 151,667 h 57 v 57 h -57 z"
         id="path35-3" /></clipPath><clipPath
       id="clipPath15807-7"><path
         inkscape:connector-curvature="0"
         d="m 154,697 h 51 v 51 h -51 z"
         id="path38-5" /></clipPath><clipPath
       id="clipPath16001-9"><path
         inkscape:connector-curvature="0"
         d="m 500.04,864.45 h 36.012 v 67.52 H 500.04 Z"
         id="path41-2" /></clipPath><clipPath
       id="clipPath16093-2"><path
         inkscape:connector-curvature="0"
         d="m 836,870.54 h 47 v 55.539 h -47 z"
         id="path44-8" /></clipPath><clipPath
       id="clipPath16477-9"><path
         inkscape:connector-curvature="0"
         d="m 318.03,702.35 h 62.848 v 37.991 H 318.03 Z"
         id="path47-7" /></clipPath><clipPath
       id="clipPath16579-3"><path
         inkscape:connector-curvature="0"
         d="m 485.03,133.35 h 62.847 v 37.991 H 485.03 Z"
         id="path50-6" /></clipPath><clipPath
       id="clipPath16709-1"><path
         inkscape:connector-curvature="0"
         d="m 493.37,677.93 h 45.643 v 68.067 H 493.37 Z"
         id="path53-2" /></clipPath><clipPath
       id="clipPath24218-9"><path
         inkscape:connector-curvature="0"
         d="m 144.34,1018.2 h 71.467 v 78 H 144.34 Z"
         id="path56-3" /></clipPath><clipPath
       id="clipPath24382-1"><path
         inkscape:connector-curvature="0"
         d="m 293.21,1068.6 66.323,-38.292 36.047,62.435 -66.323,38.292 z"
         id="path59-9" /></clipPath><clipPath
       id="clipPath24650-4"><path
         inkscape:connector-curvature="0"
         d="m 488.86,1054.5 h 10 v 10.706 h -10 z"
         id="path62-7" /></clipPath><clipPath
       id="clipPath24700-8"><path
         inkscape:connector-curvature="0"
         d="m 508,1066.8 h 10.001 v 10.705 H 508 Z"
         id="path65-4" /></clipPath><clipPath
       id="clipPath24750-5"><path
         inkscape:connector-curvature="0"
         d="m 525,1045.8 h 10 v 10.706 h -10 z"
         id="path68-0" /></clipPath><clipPath
       id="clipPath24864-3"><path
         inkscape:connector-curvature="0"
         d="m 836,1043.7 h 25.5 v 31.5 H 836 Z"
         id="path71-6" /></clipPath><clipPath
       id="clipPath24896-1"><path
         inkscape:connector-curvature="0"
         d="m 838,1062.2 h 24 v 24 h -24 z"
         id="path74-0" /></clipPath><clipPath
       id="clipPath25070-6"><path
         inkscape:connector-curvature="0"
         d="m 134,489.24 h 7 v 6 h -7 z"
         id="path77-3" /></clipPath><clipPath
       id="clipPath25100-2"><path
         inkscape:connector-curvature="0"
         d="m 216,489.24 h 7 v 6 h -7 z"
         id="path80-0" /></clipPath><clipPath
       id="clipPath25502-6"><path
         inkscape:connector-curvature="0"
         d="m 838,477.24 h 22 v 22 h -22 z"
         id="path83-1" /></clipPath><clipPath
       id="clipPath25686-5"><path
         inkscape:connector-curvature="0"
         d="m 704,1061.2 h 25 v 25 h -25 z"
         id="path86-5" /></clipPath><clipPath
       id="clipPath25788-4"><path
         inkscape:connector-curvature="0"
         d="m 663.04,1078.6 -1.808,-3.514 -21.07,-47.453 c 13.336,-18.439 48.336,-26.938 73.836,-3.439 0.842,0 6.476,6.246 6,7 l -18.386,25.895 c -0.483,0.765 -1.453,0.946 -2.177,0.431 l -15.505,-11.011 c -0.359,-0.255 -0.847,-0.153 -1.07,0.238 l -18.272,31.869 c -0.218,0.384 -0.502,0.578 -0.782,0.578 -0.282,0 -0.561,-0.197 -0.766,-0.594"
         id="path89-7" /></clipPath><clipPath
       id="clipPath26420-6"><path
         inkscape:connector-curvature="0"
         d="m 127,820.24 h 100 v 100 H 127 Z"
         id="path92-5" /></clipPath><clipPath
       id="clipPath26860-6"><path
         inkscape:connector-curvature="0"
         d="m 809,680.24 c 0,-22.092 17.908,-40 40,-40 22.092,0 40,17.908 40,40 0,22.091 -17.908,40 -40,40 -22.092,0 -40,-17.909 -40,-40"
         id="path95-9" /></clipPath><clipPath
       id="clipPath27506-3"><path
         inkscape:connector-curvature="0"
         d="m 658,469.24 h 44 v 45 h -44 z"
         id="path98-7" /></clipPath><clipPath
       id="clipPath27772-4"><path
         inkscape:connector-curvature="0"
         d="m 651,271.24 h 58 v 58 h -58 z"
         id="path101-5" /></clipPath><clipPath
       id="clipPath27864-2"><path
         inkscape:connector-curvature="0"
         d="m 662,307.24 h 38 v 8 h -38 z"
         id="path104-5" /></clipPath><clipPath
       id="clipPath28028-4"><path
         inkscape:connector-curvature="0"
         d="m 858.98,137.24 c 0.013,-0.101 0.021,-0.203 0.021,-0.307 v -6.693 h 15.75 c 1.237,0 2.25,-1.013 2.25,-2.25 v -11.25 l -27,-4.5 -27,4.5 v -2.25 l 27,-4.5 27,4.5 v -27 c 0,-1.237 -1.013,-2.25 -2.25,-2.25 h -49.5 c -1.237,0 -2.25,1.013 -2.25,2.25 v -4.25 h 54 v 54 z m -35.979,0 v -9.25 c 0,1.237 1.013,2.25 2.25,2.25 h 15.75 v 6.693 c 0,0.104 0.007,0.207 0.02,0.307 z m 22.5,-7 h 9 v 4.5 h -9 z m 1.125,-9 c -0.62,0 -1.125,-0.506 -1.125,-1.125 v -2.25 c 0,-0.619 0.505,-1.125 1.125,-1.125 h 6.75 c 0.619,0 1.125,0.506 1.125,1.125 v 2.25 c 0,0.619 -0.506,1.125 -1.125,1.125 z"
         id="path107-7" /></clipPath><clipPath
       id="clipPath28200-4"><path
         inkscape:connector-curvature="0"
         d="m 531.27,136.24 c 6.325,-2.29 10.727,-8.277 10.727,-15.484 0,-11.316 -10.2,-20.563 -25.65,-34.575 l -4.35,-3.941 -4.35,3.941 c -15.45,14.012 -25.65,23.259 -25.65,34.575 V 81.24 h 60 v 55 z m -26.983,0 c 2.995,-1.052 5.686,-2.883 7.71,-5.25 2.024,2.367 4.715,4.198 7.71,5.25 z m -22.29,0 v -15.484 c 0,7.207 4.402,13.194 10.727,15.484 z"
         id="path110-4" /></clipPath><clipPath
       id="clipPath28364-3"><path
         inkscape:connector-curvature="0"
         d="m 648,79.241 h 64 v 64 h -64 z"
         id="path113-0" /></clipPath><clipPath
       id="clipPath28984-7"><path
         inkscape:connector-curvature="0"
         d="m 500,691.74 c 0,-3.037 2.463,-5.5 5.5,-5.5 3.037,0 5.5,2.463 5.5,5.5 0,3.037 -2.463,5.5 -5.5,5.5 -3.037,0 -5.5,-2.463 -5.5,-5.5"
         id="path116-8" /></clipPath><clipPath
       id="clipPath29012-6"><path
         inkscape:connector-curvature="0"
         d="m 500,669.74 c 0,-3.037 2.463,-5.5 5.5,-5.5 3.037,0 5.5,2.463 5.5,5.5 0,3.038 -2.463,5.5 -5.5,5.5 -3.037,0 -5.5,-2.462 -5.5,-5.5"
         id="path119-8" /></clipPath><clipPath
       id="clipPath29040-8"><path
         inkscape:connector-curvature="0"
         d="m 494,680.74 c 0,-3.037 2.462,-5.5 5.5,-5.5 3.038,0 5.5,2.463 5.5,5.5 0,3.038 -2.462,5.5 -5.5,5.5 -3.038,0 -5.5,-2.462 -5.5,-5.5"
         id="path122-4" /></clipPath><clipPath
       id="clipPath29068-3"><path
         inkscape:connector-curvature="0"
         d="m 513,691.74 c 0,-3.037 2.463,-5.5 5.5,-5.5 3.037,0 5.5,2.463 5.5,5.5 0,3.037 -2.463,5.5 -5.5,5.5 -3.037,0 -5.5,-2.463 -5.5,-5.5"
         id="path125-1" /></clipPath><clipPath
       id="clipPath29096-4"><path
         inkscape:connector-curvature="0"
         d="m 513,669.74 c 0,-3.037 2.463,-5.5 5.5,-5.5 3.037,0 5.5,2.463 5.5,5.5 0,3.038 -2.463,5.5 -5.5,5.5 -3.037,0 -5.5,-2.462 -5.5,-5.5"
         id="path128-9" /></clipPath><clipPath
       id="clipPath29124-2"><path
         inkscape:connector-curvature="0"
         d="m 507,680.74 c 0,-3.037 2.463,-5.5 5.5,-5.5 3.037,0 5.5,2.463 5.5,5.5 0,3.038 -2.463,5.5 -5.5,5.5 -3.037,0 -5.5,-2.462 -5.5,-5.5"
         id="path131-0" /></clipPath><clipPath
       id="clipPath29152-6"><path
         inkscape:connector-curvature="0"
         d="m 520,680.74 c 0,-3.037 2.463,-5.5 5.5,-5.5 3.037,0 5.5,2.463 5.5,5.5 0,3.038 -2.463,5.5 -5.5,5.5 -3.037,0 -5.5,-2.462 -5.5,-5.5"
         id="path134-8" /></clipPath><clipPath
       id="clipPath29252-9"><path
         inkscape:connector-curvature="0"
         d="m 321,322.24 c -4.97,0 -9,-4.029 -9,-9 0,-4.97 4.03,-9 9,-9 h 45 c 4.971,0 9,4.03 9,9 0,4.971 -4.029,9 -9,9 z"
         id="path137-2" /></clipPath><clipPath
       id="clipPath29280-6"><path
         inkscape:connector-curvature="0"
         d="m 322,297.24 c -4.971,0 -9,-4.029 -9,-9 0,-4.97 4.029,-9 9,-9 h 45 c 4.971,0 9,4.03 9,9 0,4.971 -4.029,9 -9,9 z"
         id="path140-6" /></clipPath><clipPath
       id="clipPath29400-4"><path
         inkscape:connector-curvature="0"
         d="m 155,83.24 h 44 v 53 h -44 z"
         id="path143-9" /></clipPath><filter
       style="color-interpolation-filters:sRGB"
       id="filter954-5"
       x="-0.18000001"
       y="-0.18000001"
       width="1.36"
       height="1.36"><feGaussianBlur
         stdDeviation="0.11906016"
         id="feGaussianBlur161-0" /></filter><filter
       style="color-interpolation-filters:sRGB"
       id="filter962-4"
       x="-0.18000001"
       y="-0.18000001"
       width="1.36"
       height="1.36"><feGaussianBlur
         stdDeviation="0.11906016"
         id="feGaussianBlur164-8" /></filter><linearGradient
       id="linearGradient856-7"
       x1="-73.361"
       x2="-58.736"
       y1="6.9798999"
       y2="17.198"
       gradientTransform="matrix(1383.009,0,0,1383.009,67821.192,-10519.045)"
       gradientUnits="userSpaceOnUse"><stop
         stop-color="#3c3c3c"
         offset="0"
         id="stop146-1"
         style="stop-color:#63a1d4;stop-opacity:0.99215686" /><stop
         stop-color="#1e1e1e"
         offset="1"
         id="stop148-7"
         style="stop-color:#1875c5;stop-opacity:1" /></linearGradient><filter
       style="color-interpolation-filters:sRGB"
       id="filter1072-5-3"
       x="-0.099600002"
       y="-0.072624996"
       width="1.1992"
       height="1.1452"><feGaussianBlur
         stdDeviation="0.38429972"
         id="feGaussianBlur27-3-6" /></filter><filter
       style="color-interpolation-filters:sRGB"
       id="filter1058-9-7"
       x="-0.092515998"
       y="-0.076918997"
       width="1.1849999"
       height="1.1538"><feGaussianBlur
         stdDeviation="0.46236326"
         id="feGaussianBlur24-1-5" /></filter><linearGradient
       id="linearGradient1050-2-3"
       x1="-66.237"
       x2="-59.584999"
       y1="21.254999"
       y2="31.868"
       gradientTransform="matrix(2.9537189,0,0,2.9537189,250.09559,-5.9386127)"
       gradientUnits="userSpaceOnUse"><stop
         stop-color="#fff"
         offset="0"
         id="stop19-7-5" /><stop
         stop-color="#d2d2d2"
         offset="1"
         id="stop21-0-6" /></linearGradient><linearGradient
       id="linearGradient1109"
       x1="720.94"
       x2="626.77002"
       y1="456.88"
       y2="819.08002"
       gradientUnits="userSpaceOnUse"
       xlink:href="#linearGradient1107" /><linearGradient
       id="linearGradient1107"><stop
         stop-color="#505050"
         offset="0"
         id="stop2" /><stop
         stop-color="#0a0a0a"
         offset="1"
         id="stop4" /></linearGradient><linearGradient
       inkscape:collect="always"
       xlink:href="#linearGradient4635"
       id="linearGradient4641"
       x1="-452.69537"
       y1="-183.96132"
       x2="459.36816"
       y2="450.49603"
       gradientUnits="userSpaceOnUse" /><linearGradient
       inkscape:collect="always"
       id="linearGradient4635"><stop
         style="stop-color:#000000;stop-opacity:1;"
         offset="0"
         id="stop4637" /><stop
         style="stop-color:#000000;stop-opacity:0;"
         offset="1"
         id="stop4639" /></linearGradient><clipPath
       clipPathUnits="userSpaceOnUse"
       id="clipPath4645"><rect
         ry="17.777853"
         y="201.49301"
         x="16.618851"
         height="252.71548"
         width="481.63086"
         id="rect4647"
         style="color:#000000;display:inline;overflow:visible;visibility:visible;fill:#3d8dd8;fill-opacity:1;fill-rule:evenodd;stroke:none;stroke-width:2.27114606;marker:none;enable-background:accumulate" /></clipPath></defs><sodipodi:namedview
     pagecolor="#ffffff"
     bordercolor="#666666"
     borderopacity="1"
     objecttolerance="10"
     gridtolerance="10"
     guidetolerance="10"
     inkscape:pageopacity="0"
     inkscape:pageshadow="2"
     inkscape:window-width="1280"
     inkscape:window-height="954"
     id="namedview53"
     showgrid="false"
     inkscape:zoom="5.6568545"
     inkscape:cx="23.536074"
     inkscape:cy="42.801418"
     inkscape:window-x="0"
     inkscape:window-y="0"
     inkscape:window-maximized="1"
     inkscape:current-layer="Layer_1"
     units="px" /><g
     id="g3880"
     transform="matrix(500,0,0,500,142.68655,67.025661)"><rect
       style="color:#000000;display:inline;overflow:visible;visibility:visible;fill:#1875c5;fill-opacity:1;fill-rule:evenodd;stroke:none;stroke-width:0.2109523;marker:none;enable-background:accumulate"
       id="rect3151"
       width="41.915977"
       height="39.311752"
       x="2.7566423"
       y="4.2100725"
       ry="2.779191" /><g
       id="g3933"
       transform="matrix(0.31014628,0,0,0.31014628,-65.733016,-266.03685)"><rect
         ry="4.4152169"
         transform="translate(24,860.36222)"
         y="34.56089"
         x="224.25388"
         height="19.192894"
         width="94.449257"
         id="rect3931"
         style="color:#000000;display:inline;overflow:visible;visibility:visible;fill:#f4ebd1;fill-opacity:1;fill-rule:evenodd;stroke:none;stroke-width:2.16599989;marker:none;enable-background:accumulate" /><path
         id="rect3923"
         transform="translate(24,860.36222)"
         d="m 217.5625,32.53125 c -7.21012,0 -13,5.82113 -13,13.03125 v 4.78125 c 0,0.107051 -0.003,0.206083 0,0.3125 -0.007,0.147767 0,0.287892 0,0.4375 V 54.375 c 0,4.96434 4.00441,8.96875 8.96875,8.96875 h 4.03125 37.625 60.125 c 4.96434,0 8.9375,-4.00441 8.9375,-8.96875 v -3.28125 c 0,-4.96434 -3.97316,-8.96875 -8.9375,-8.96875 H 264 c -2.69135,-3.97277 -3.59399,-9.59375 -8.8125,-9.59375 z"
         style="color:#000000;display:inline;overflow:visible;visibility:visible;fill:#ffaf51;fill-opacity:1;fill-rule:evenodd;stroke:none;stroke-width:2.16599989;marker:none;enable-background:accumulate"
         inkscape:connector-curvature="0" /></g><rect
       ry="1.6512717"
       y="18.168936"
       x="1.3468119"
       height="23.473135"
       width="44.735626"
       id="rect3921"
       style="color:#000000;display:inline;overflow:visible;visibility:visible;fill:#62a1d3;fill-opacity:1;fill-rule:evenodd;stroke:none;stroke-width:0.2109523;marker:none;enable-background:accumulate" /><path
       clip-path="url(#clipPath4645)"
       sodipodi:nodetypes="sscsscssscscsss"
       inkscape:connector-curvature="0"
       id="path4384"
       d="m 224.98242,276.83203 c -18.18809,0 -33.07812,14.99551 -33.07812,33.18359 v 17.11133 17.11328 c 0,9.09404 3.72281,17.36344 9.71875,23.35938 l 530.82617,530.82617 c 5.99594,5.9957 14.26532,9.71875 23.35937,9.71875 h 64.79883 c 18.18809,0 33.1836,-14.89022 33.1836,-33.07812 V 857.95508 840.8418 c 0,-9.0938 -3.74948,-17.38991 -9.77149,-23.41211 L 313.19336,286.60352 c -6.02202,-6.02201 -14.31806,-9.77149 -23.41211,-9.77149 z"
       style="color:#000000;font-style:normal;font-variant:normal;font-weight:normal;font-stretch:normal;font-size:medium;line-height:normal;font-family:Sans;-inkscape-font-specification:Sans;text-indent:0;text-align:start;text-decoration:none;text-decoration-line:none;letter-spacing:normal;word-spacing:normal;text-transform:none;writing-mode:lr-tb;direction:ltr;baseline-shift:baseline;text-anchor:start;visibility:visible;opacity:0.87000002;fill:url(#linearGradient4641);fill-opacity:1;stroke:none;stroke-width:6.5;marker:none"
       transform="matrix(0.09288364,0,0,0.09288364,-0.19680481,-0.5464633)" /><g
       id="g4010"
       transform="matrix(0.36698926,0,0,0.36698926,-9.0187744,-317.921)"
       style="fill:#444a54;fill-opacity:1"><g
         transform="translate(-2.1910256,0.51614658)"
         id="g4002"
         style="fill:#444a54;fill-opacity:1"><path
           style="color:#000000;font-style:normal;font-variant:normal;font-weight:normal;font-stretch:normal;font-size:medium;line-height:normal;font-family:Sans;-inkscape-font-specification:Sans;text-indent:0;text-align:start;text-decoration:none;text-decoration-line:none;letter-spacing:normal;word-spacing:normal;text-transform:none;writing-mode:lr-tb;direction:ltr;baseline-shift:baseline;text-anchor:start;display:inline;overflow:visible;visibility:visible;fill:#79aedf;fill-opacity:1;stroke:none;stroke-width:6.5;marker:none;enable-background:accumulate"
           d="m 83.172049,934.35526 c -4.603339,0 -8.37187,3.79494 -8.37187,8.39828 v 4.33119 4.33119 c 0,4.60334 3.768531,8.37187 8.37187,8.37187 h 16.400412 c 4.603339,0 8.398289,-3.76853 8.398289,-8.37187 v -4.33119 -4.33119 c 0,-4.60334 -3.79495,-8.39828 -8.398289,-8.39828 z m 19.305481,12.72947 v 4.33119 c 0,1.65512 -1.24994,2.87865 -2.905069,2.87865 H 83.172049 c -1.655122,0 -2.878656,-1.22353 -2.878656,-2.87865 v -4.33119 z"
           id="rect3961"
           inkscape:connector-curvature="0"
           sodipodi:nodetypes="sscsssscssscsssscc" /></g></g></g></svg>