<?xml version="1.0" encoding="UTF-8" standalone="no"?>
<svg
   xmlns:dc="http://purl.org/dc/elements/1.1/"
   xmlns:cc="http://creativecommons.org/ns#"
   xmlns:rdf="http://www.w3.org/1999/02/22-rdf-syntax-ns#"
   xmlns:svg="http://www.w3.org/2000/svg"
   xmlns="http://www.w3.org/2000/svg"
   xmlns:sodipodi="http://sodipodi.sourceforge.net/DTD/sodipodi-0.dtd"
   xmlns:inkscape="http://www.inkscape.org/namespaces/inkscape"
   width="48"
   height="48"
   viewBox="0 0 48 48"
   version="1.1"
   id="svg31"
   sodipodi:docname="pulseeffects.svg"
   inkscape:version="0.92.4 (5da689c313, 2019-01-14)">
  <metadata
     id="metadata37">
    <rdf:RDF>
      <cc:Work
         rdf:about="">
        <dc:format>image/svg+xml</dc:format>
        <dc:type
           rdf:resource="http://purl.org/dc/dcmitype/StillImage" />
        <dc:title></dc:title>
      </cc:Work>
    </rdf:RDF>
  </metadata>
  <defs
     id="defs35" />
  <sodipodi:namedview
     pagecolor="#ffffff"
     bordercolor="#666666"
     borderopacity="1"
     objecttolerance="10"
     gridtolerance="10"
     guidetolerance="10"
     inkscape:pageopacity="0"
     inkscape:pageshadow="2"
     inkscape:window-width="1280"
     inkscape:window-height="954"
     id="namedview33"
     showgrid="false"
     inkscape:zoom="3.6875"
     inkscape:cx="27.254237"
     inkscape:cy="32"
     inkscape:window-x="0"
     inkscape:window-y="0"
     inkscape:window-maximized="1"
     inkscape:current-layer="svg31" />
  <g
     id="surface1"
     transform="matrix(0.74843099,0,0,0.74843099,0.23731607,-0.13689943)">
    <path
       style="fill:#dedede;fill-opacity:1;fill-rule:nonzero;stroke:none"
       d="m 31.75,3.144531 c -6.625,0 -12.71875,2.191407 -17.601562,5.894531 L 13.042969,7.929688 C 11.488281,6.375 8.984375,6.375 7.429688,7.929688 5.875,9.484375 5.875,11.988281 7.429688,13.542969 l 1.109374,1.105469 C 4.835938,19.53125 2.644531,25.625 2.644531,32.25 c 0,6.625 2.191407,12.71875 5.894531,17.601562 l -1.109374,1.105469 c -1.554688,1.554688 -1.554688,4.058594 0,5.613281 1.554687,1.554688 4.058593,1.554688 5.613281,0 l 1.105469,-1.109374 C 19.03125,59.164062 25.125,61.355469 31.75,61.355469 c 6.625,0 12.71875,-2.191407 17.601562,-5.894531 l 1.105469,1.109374 c 1.554688,1.554688 4.058594,1.554688 5.613281,0 1.554688,-1.554687 1.554688,-4.058593 0,-5.613281 L 54.960938,49.851562 C 58.664062,44.96875 60.855469,38.875 60.855469,32.25 c 0,-6.625 -2.191407,-12.71875 -5.894531,-17.601562 l 1.109374,-1.105469 c 1.554688,-1.554688 1.554688,-4.058594 0,-5.613281 -1.554687,-1.554688 -4.058593,-1.554688 -5.613281,0 L 49.351562,9.039062 C 44.46875,5.335938 38.375,3.144531 31.75,3.144531 Z m 22.449219,5.332031 c 0.339843,0 0.679687,0.128907 0.9375,0.386719 0.519531,0.519531 0.519531,1.351563 0,1.871094 -0.519531,0.519531 -1.351563,0.519531 -1.871094,0 -0.519531,-0.519531 -0.519531,-1.351563 0,-1.871094 0.257813,-0.257812 0.597656,-0.386719 0.933594,-0.386719 z M 10.234375,9.410156 c 0.339844,0 0.675781,0.128906 0.9375,0.390625 0.453125,0.453125 0.507813,1.15625 0.164063,1.671875 -0.125,0.117188 -0.246094,0.238282 -0.363282,0.363282 -0.515625,0.34375 -1.21875,0.289062 -1.671875,-0.164063 -0.519531,-0.519531 -0.519531,-1.355469 0,-1.871094 0.257813,-0.261719 0.597657,-0.390625 0.933594,-0.390625 z m 0,43.03125 c 0.257813,0 0.515625,0.07422 0.738281,0.222656 0.117188,0.125 0.238282,0.246094 0.363282,0.363282 0.34375,0.515625 0.289062,1.21875 -0.164063,1.671875 -0.519531,0.519531 -1.355469,0.519531 -1.871094,0 -0.519531,-0.515625 -0.519531,-1.351563 0,-1.871094 0.257813,-0.257813 0.597657,-0.386719 0.933594,-0.386719 z M 54.199219,53.375 c 0.339843,0 0.679687,0.132812 0.9375,0.390625 0.519531,0.519531 0.519531,1.351563 0,1.871094 -0.519531,0.519531 -1.351563,0.519531 -1.871094,0 -0.519531,-0.519531 -0.519531,-1.351563 0,-1.871094 C 53.523438,53.507812 53.863281,53.375 54.199219,53.375 Z m 0,0"
       id="path2"
       inkscape:connector-curvature="0" />
    <path
       style="fill:#3f3f3f;fill-opacity:1;fill-rule:nonzero;stroke:none"
       d="m 31.75,7.113281 c 13.882812,0 25.136719,11.253907 25.136719,25.136719 0,13.882812 -11.253907,25.136719 -25.136719,25.136719 C 17.867188,57.386719 6.613281,46.132812 6.613281,32.25 6.613281,18.367188 17.867188,7.113281 31.75,7.113281 Z m 0,0"
       id="path4"
       inkscape:connector-curvature="0" />
    <path
       style="fill:#737373;fill-opacity:1;fill-rule:nonzero;stroke:none"
       d="m 15.214844,20.34375 h 1.320312 c 0.367188,0 0.664063,0.296875 0.664063,0.660156 v 22.492188 c 0,0.363281 -0.296875,0.660156 -0.664063,0.660156 h -1.320312 c -0.367188,0 -0.664063,-0.296875 -0.664063,-0.660156 V 21.003906 c 0,-0.363281 0.296875,-0.660156 0.664063,-0.660156 z m 0,0"
       id="path6"
       inkscape:connector-curvature="0" />
    <path
       style="fill:#737373;fill-opacity:1;fill-rule:nonzero;stroke:none"
       d="m 25.796875,20.34375 h 1.324219 c 0.363281,0 0.660156,0.296875 0.660156,0.660156 v 22.492188 c 0,0.363281 -0.296875,0.660156 -0.660156,0.660156 h -1.324219 c -0.367187,0 -0.660156,-0.296875 -0.660156,-0.660156 V 21.003906 c 0,-0.363281 0.292969,-0.660156 0.660156,-0.660156 z m 0,0"
       id="path8"
       inkscape:connector-curvature="0" />
    <path
       style="fill:#737373;fill-opacity:1;fill-rule:nonzero;stroke:none"
       d="m 36.378906,20.34375 h 1.324219 c 0.367187,0 0.660156,0.296875 0.660156,0.660156 v 22.492188 c 0,0.363281 -0.292969,0.660156 -0.660156,0.660156 h -1.324219 c -0.363281,0 -0.660156,-0.296875 -0.660156,-0.660156 V 21.003906 c 0,-0.363281 0.296875,-0.660156 0.660156,-0.660156 z m 0,0"
       id="path10"
       inkscape:connector-curvature="0" />
    <path
       style="fill:#737373;fill-opacity:1;fill-rule:nonzero;stroke:none"
       d="m 46.964844,20.34375 h 1.320312 c 0.367188,0 0.664063,0.296875 0.664063,0.660156 v 22.492188 c 0,0.363281 -0.296875,0.660156 -0.664063,0.660156 h -1.320312 c -0.367188,0 -0.664063,-0.296875 -0.664063,-0.660156 V 21.003906 c 0,-0.363281 0.296875,-0.660156 0.664063,-0.660156 z m 0,0"
       id="path12"
       inkscape:connector-curvature="0" />
    <path
       style="fill:#3fa3f5;fill-opacity:1;fill-rule:nonzero;stroke:none"
       d="m 15.214844,28.28125 h 1.320312 c 0.367188,0 0.664063,0.296875 0.664063,0.660156 v 14.554688 c 0,0.363281 -0.296875,0.660156 -0.664063,0.660156 h -1.320312 c -0.367188,0 -0.664063,-0.296875 -0.664063,-0.660156 V 28.941406 c 0,-0.363281 0.296875,-0.660156 0.664063,-0.660156 z m 0,0"
       id="path14"
       inkscape:connector-curvature="0" />
    <path
       style="fill:#dedede;fill-opacity:1;fill-rule:nonzero;stroke:none"
       d="m 15.875,22.328125 c 2.191406,0 3.96875,1.777344 3.96875,3.96875 0,2.191406 -1.777344,3.96875 -3.96875,3.96875 -2.191406,0 -3.96875,-1.777344 -3.96875,-3.96875 0,-2.191406 1.777344,-3.96875 3.96875,-3.96875 z m 0,0"
       id="path16"
       inkscape:connector-curvature="0" />
    <path
       style="fill:#3fa3f5;fill-opacity:1;fill-rule:nonzero;stroke:none"
       d="m 25.796875,40.1875 h 1.324219 c 0.363281,0 0.660156,0.296875 0.660156,0.660156 v 2.648438 c 0,0.363281 -0.296875,0.660156 -0.660156,0.660156 h -1.324219 c -0.367187,0 -0.660156,-0.296875 -0.660156,-0.660156 v -2.648438 c 0,-0.363281 0.292969,-0.660156 0.660156,-0.660156 z m 0,0"
       id="path18"
       inkscape:connector-curvature="0" />
    <path
       style="fill:#dedede;fill-opacity:1;fill-rule:nonzero;stroke:none"
       d="m 26.472656,33.574219 c 2.191406,0 3.96875,1.777343 3.96875,3.96875 0,2.191406 -1.777344,3.96875 -3.96875,3.96875 -2.191406,0 -3.96875,-1.777344 -3.96875,-3.96875 0,-2.191407 1.777344,-3.96875 3.96875,-3.96875 z m 0,0"
       id="path20"
       inkscape:connector-curvature="0" />
    <path
       style="fill:#3fa3f5;fill-opacity:1;fill-rule:nonzero;stroke:none"
       d="m 36.378906,25.636719 h 1.324219 c 0.367187,0 0.660156,0.292969 0.660156,0.660156 v 17.199219 c 0,0.363281 -0.292969,0.660156 -0.660156,0.660156 h -1.324219 c -0.363281,0 -0.660156,-0.296875 -0.660156,-0.660156 V 26.296875 c 0,-0.367187 0.296875,-0.660156 0.660156,-0.660156 z m 0,0"
       id="path22"
       inkscape:connector-curvature="0" />
    <path
       style="fill:#dedede;fill-opacity:1;fill-rule:nonzero;stroke:none"
       d="m 37.042969,19.683594 c 2.191406,0 3.96875,1.777344 3.96875,3.96875 0,2.191406 -1.777344,3.96875 -3.96875,3.96875 -2.191407,0 -3.96875,-1.777344 -3.96875,-3.96875 0,-2.191406 1.777343,-3.96875 3.96875,-3.96875 z m 0,0"
       id="path24"
       inkscape:connector-curvature="0" />
    <path
       style="fill:#3fa3f5;fill-opacity:1;fill-rule:nonzero;stroke:none"
       d="m 46.964844,34.894531 h 1.320312 c 0.367188,0 0.664063,0.296875 0.664063,0.664063 v 7.9375 c 0,0.363281 -0.296875,0.660156 -0.664063,0.660156 h -1.320312 c -0.367188,0 -0.664063,-0.296875 -0.664063,-0.660156 v -7.9375 c 0,-0.367188 0.296875,-0.664063 0.664063,-0.664063 z m 0,0"
       id="path26"
       inkscape:connector-curvature="0" />
    <path
       style="fill:#dedede;fill-opacity:1;fill-rule:nonzero;stroke:none"
       d="m 47.640625,27.949219 c 2.191406,0 3.96875,1.777343 3.96875,3.96875 0,2.191406 -1.777344,3.96875 -3.96875,3.96875 -2.195313,0 -3.96875,-1.777344 -3.96875,-3.96875 0,-2.191407 1.773437,-3.96875 3.96875,-3.96875 z m 0,0"
       id="path28"
       inkscape:connector-curvature="0" />
  </g>
</svg>
