<?xml version="1.0" encoding="UTF-8" standalone="no"?>
<!-- Generated by IcoMoon.io -->

<svg
   xmlns:dc="http://purl.org/dc/elements/1.1/"
   xmlns:cc="http://creativecommons.org/ns#"
   xmlns:rdf="http://www.w3.org/1999/02/22-rdf-syntax-ns#"
   xmlns:svg="http://www.w3.org/2000/svg"
   xmlns="http://www.w3.org/2000/svg"
   xmlns:sodipodi="http://sodipodi.sourceforge.net/DTD/sodipodi-0.dtd"
   xmlns:inkscape="http://www.inkscape.org/namespaces/inkscape"
   version="1.1"
   width="48"
   height="48"
   viewBox="0 0 48 48"
   id="svg6"
   sodipodi:docname="power-off.svg"
   inkscape:version="0.92.4 (5da689c313, 2019-01-14)">
  <metadata
     id="metadata12">
    <rdf:RDF>
      <cc:Work
         rdf:about="">
        <dc:format>image/svg+xml</dc:format>
        <dc:type
           rdf:resource="http://purl.org/dc/dcmitype/StillImage" />
        <dc:title>power-off</dc:title>
      </cc:Work>
    </rdf:RDF>
  </metadata>
  <defs
     id="defs10" />
  <sodipodi:namedview
     pagecolor="#ffffff"
     bordercolor="#666666"
     borderopacity="1"
     objecttolerance="10"
     gridtolerance="10"
     guidetolerance="10"
     inkscape:pageopacity="0"
     inkscape:pageshadow="2"
     inkscape:window-width="1280"
     inkscape:window-height="954"
     id="namedview8"
     showgrid="false"
     inkscape:zoom="8.4285714"
     inkscape:cx="9.9237288"
     inkscape:cy="14"
     inkscape:window-x="0"
     inkscape:window-y="0"
     inkscape:window-maximized="1"
     inkscape:current-layer="svg6" />
  <title
     id="title2">power-off</title>
  <path
     d="m 44.542373,25.711864 c 0,11.313712 -9.228661,20.542373 -20.542373,20.542373 -11.313712,0 -20.542373,-9.228661 -20.542373,-20.542373 0,-6.499949 2.9957627,-12.491474 8.211814,-16.3962369 1.525271,-1.1503729 3.665101,-0.8559322 4.788084,0.669339 1.150373,1.4978809 0.828543,3.6651019 -0.669339,4.7880849 -3.476796,2.620864 -5.483101,6.606084 -5.483101,10.940525 0,7.542475 6.15244,13.694915 13.694915,13.694915 7.542474,0 13.694915,-6.15244 13.694915,-13.694915 0,-4.332729 -2.006305,-8.317949 -5.483102,-10.940525 -1.497881,-1.122983 -1.818,-3.290204 -0.669339,-4.7880849 1.122984,-1.5252712 3.290204,-1.818 4.788085,-0.669339 5.216051,3.9047629 8.211814,9.8962879 8.211814,16.3962369 z M 27.423729,5.1694915 V 22.288135 c 0,1.87278 -1.550949,3.423729 -3.423729,3.423729 -1.87278,0 -3.423729,-1.550949 -3.423729,-3.423729 V 5.1694915 c 0,-1.8727796 1.550949,-3.4237288 3.423729,-3.4237288 1.87278,0 3.423729,1.5509492 3.423729,3.4237288 z"
     id="path4"
     inkscape:connector-curvature="0"
     style="stroke-width:1.71186435;fill:#eeeeee;fill-opacity:1" />
</svg>
