<?xml version="1.0" encoding="UTF-8" standalone="no"?>
<svg
   xmlns:dc="http://purl.org/dc/elements/1.1/"
   xmlns:cc="http://creativecommons.org/ns#"
   xmlns:rdf="http://www.w3.org/1999/02/22-rdf-syntax-ns#"
   xmlns:svg="http://www.w3.org/2000/svg"
   xmlns="http://www.w3.org/2000/svg"
   xmlns:sodipodi="http://sodipodi.sourceforge.net/DTD/sodipodi-0.dtd"
   xmlns:inkscape="http://www.inkscape.org/namespaces/inkscape"
   width="48"
   height="48"
   version="1.1"
   id="svg8"
   sodipodi:docname="system-switch-user-symbolic.svg"
   inkscape:version="0.92.4 (5da689c313, 2019-01-14)">
  <metadata
     id="metadata14">
    <rdf:RDF>
      <cc:Work
         rdf:about="">
        <dc:format>image/svg+xml</dc:format>
        <dc:type
           rdf:resource="http://purl.org/dc/dcmitype/StillImage" />
        <dc:title></dc:title>
      </cc:Work>
    </rdf:RDF>
  </metadata>
  <defs
     id="defs12" />
  <sodipodi:namedview
     pagecolor="#ffffff"
     bordercolor="#666666"
     borderopacity="1"
     objecttolerance="10"
     gridtolerance="10"
     guidetolerance="10"
     inkscape:pageopacity="0"
     inkscape:pageshadow="2"
     inkscape:window-width="1280"
     inkscape:window-height="954"
     id="namedview10"
     showgrid="false"
     inkscape:zoom="7.375"
     inkscape:cx="-4.4001891"
     inkscape:cy="3.8871279"
     inkscape:window-x="0"
     inkscape:window-y="0"
     inkscape:window-maximized="1"
     inkscape:current-layer="svg8" />
  <g
     id="g6"
     style="fill:#eeeeee;fill-opacity:1"
     transform="matrix(3.0153415,0,0,3.0153415,-1.6357634,-0.13853911)">
    <path
       d="m 11,1 a 2,2 0 1 0 0,4 2,2 0 0 0 0,-4 z M 5,4 A 2,2 0 1 0 5,8 2,2 0 0 0 5,4 Z m 5,2 C 8.69,6 7.593,6.835 7.181,8 h 7.637 A 2.985,2.985 0 0 0 12,6 H 11 Z M 4,9 C 2.338,9 1,10.338 1,12 v 1 c 0,0.554 0.446,1 1,1 h 6 c 0.554,0 1,-0.446 1,-1 V 12 C 9,10.338 7.662,9 6,9 Z"
       style="color:#bebebe;overflow:visible;marker:none;fill:#eeeeee;fill-opacity:1"
       overflow="visible"
       id="path2"
       inkscape:connector-curvature="0" />
    <path
       d="M 15.16,15 H 16 v -1 c 0.008,-1.673 0,-5 0,-5 H 10 V 9.846 A 1,1 0 0 0 11,11 h 1.586 l -1.643,1.643 -0.65,0.65 c -0.654,0.636 -0.185,1.744 0.726,1.717 0.26,-0.008 0.507,-0.117 0.688,-0.303 L 12.335,14.079 14,12.414 V 14 c 0,0.681 0.449,1 1.16,1 z"
       style="color:#000000;font-weight:400;line-height:normal;font-family:sans-serif;font-variant-ligatures:normal;font-variant-position:normal;font-variant-caps:normal;font-variant-numeric:normal;font-variant-alternates:normal;font-feature-settings:normal;text-indent:0;text-align:start;text-decoration:none;text-decoration-line:none;text-decoration-style:solid;text-decoration-color:#000000;text-transform:none;text-orientation:mixed;white-space:normal;shape-padding:0;overflow:visible;isolation:auto;mix-blend-mode:normal;marker:none;fill:#eeeeee;fill-opacity:1"
       font-weight="400"
       overflow="visible"
       id="path4"
       inkscape:connector-curvature="0" />
  </g>
</svg>
