<?xml version="1.0" encoding="UTF-8" standalone="no"?>
<svg
   xmlns:dc="http://purl.org/dc/elements/1.1/"
   xmlns:cc="http://creativecommons.org/ns#"
   xmlns:rdf="http://www.w3.org/1999/02/22-rdf-syntax-ns#"
   xmlns:svg="http://www.w3.org/2000/svg"
   xmlns="http://www.w3.org/2000/svg"
   xmlns:sodipodi="http://sodipodi.sourceforge.net/DTD/sodipodi-0.dtd"
   xmlns:inkscape="http://www.inkscape.org/namespaces/inkscape"
   width="48"
   height="48"
   version="1"
   id="svg18"
   sodipodi:docname="Xfwm4CompositeEditor.svg"
   inkscape:version="0.92.4 (5da689c313, 2019-01-14)">
  <metadata
     id="metadata24">
    <rdf:RDF>
      <cc:Work
         rdf:about="">
        <dc:format>image/svg+xml</dc:format>
        <dc:type
           rdf:resource="http://purl.org/dc/dcmitype/StillImage" />
        <dc:title />
      </cc:Work>
    </rdf:RDF>
  </metadata>
  <defs
     id="defs22" />
  <sodipodi:namedview
     pagecolor="#ffffff"
     bordercolor="#666666"
     borderopacity="1"
     objecttolerance="10"
     gridtolerance="10"
     guidetolerance="10"
     inkscape:pageopacity="0"
     inkscape:pageshadow="2"
     inkscape:window-width="1280"
     inkscape:window-height="954"
     id="namedview20"
     showgrid="false"
     inkscape:zoom="3.6875"
     inkscape:cx="22.508474"
     inkscape:cy="32"
     inkscape:window-x="0"
     inkscape:window-y="0"
     inkscape:window-maximized="1"
     inkscape:current-layer="svg18" />
  <g
     id="g3872"
     transform="matrix(0.75891696,0,0,0.75891696,-1.8031766,9.2011193)">
    <path
       inkscape:connector-curvature="0"
       id="path2"
       d="m 4.0000004,35.12407 v 1.999971 C 4.0000004,38.718018 5.2495825,40 6.8007604,40 H 57.20004 C 58.750017,40 60,38.718018 60,37.124041 V 35.12407 c 0,1.593977 -1.249983,2.875959 -2.79996,2.875959 H 6.8007604 c -1.5503779,0 -2.79996,-1.281982 -2.79996,-2.875959 z"
       style="opacity:0.2" />
    <rect
       id="rect4"
       transform="matrix(0,-1,-1,0,0,0)"
       ry="2.8"
       rx="2.8759999"
       y="-60"
       x="-39"
       height="56"
       width="45.999001"
       style="fill:#d2d2d2" />
    <path
       inkscape:connector-curvature="0"
       id="path6"
       d="m 14.667848,3.000543 c -1.477379,0 -2.667962,1.115984 -2.667962,2.499965 v 20.999699 c 0,1.383981 1.190583,2.499965 2.667962,2.499965 h 34.663504 c 1.477979,0 2.667962,-1.115984 2.667962,-2.499965 V 5.500508 c 0,-1.383981 -1.189983,-2.499965 -2.667962,-2.499965 z"
       style="fill:#4d4d4d" />
    <path
       inkscape:connector-curvature="0"
       id="path8"
       d="M 6.8007812,-7 C 5.2496034,-7 4,-5.717777 4,-4.125 v 1.001953 c 0,-1.592777 1.2496034,-2.875 2.8007812,-2.875 H 57.199219 c 1.549977,0 2.800781,1.282223 2.800781,2.875 V -4.125 C 60,-5.717777 58.749196,-7 57.199219,-7 Z"
       style="opacity:0.2;fill:#ffffff" />
    <g
       id="g16"
       transform="translate(0,-17)">
      <path
         inkscape:connector-curvature="0"
         id="path10"
         d="M 63.958,45.848 A 16,16 0 0 1 48,61 16,16 0 0 1 32.042,46.152 16,16 0 0 0 32,47 16,16 0 0 0 48,63 16,16 0 0 0 64,47 16,16 0 0 0 63.95704,45.84766 Z"
         style="opacity:0.2" />
      <circle
         id="circle12"
         r="16"
         cy="46"
         cx="48"
         style="fill:#62a1d3;fill-opacity:1" />
      <path
         inkscape:connector-curvature="0"
         id="path14"
         d="m 46,38 -0.1764,2.1072 a 6.2858,6.2858 0 0 0 -1.83704,1.06252 l -1.91518,-0.9018 -2,3.4642 1.73882,1.2076 a 6.2858,6.2858 0 0 0 -0.096,1.06026 6.2858,6.2858 0 0 0 0.0914,1.06474 l -1.73438,1.20312 2,3.4642 1.91072,-0.89956 a 6.2858,6.2858 0 0 0 1.8415,1.0558 l 0.1764,2.1116 h 4 l 0.1764,-2.1072 a 6.2858,6.2858 0 0 0 1.83708,-1.06252 l 1.91516,0.9018 2,-3.4642 -1.73884,-1.2076 a 6.2858,6.2858 0 0 0 0.096,-1.06026 6.2858,6.2858 0 0 0 -0.0914,-1.06474 l 1.73438,-1.20312 -2,-3.4642 -1.91,0.9 a 6.2858,6.2858 0 0 0 -1.842,-1.056 l -0.176,-2.112 h -4 z m 2,5.7144 a 2.2858,2.2858 0 0 1 2.286,2.286 2.2858,2.2858 0 0 1 -2.286,2.286 2.2858,2.2858 0 0 1 -2.286,-2.286 2.2858,2.2858 0 0 1 2.2856,-2.2856 z"
         style="fill:#ffffff" />
    </g>
  </g>
</svg>
