<?xml version="1.0" encoding="UTF-8" standalone="no"?>
<svg
   xmlns:dc="http://purl.org/dc/elements/1.1/"
   xmlns:cc="http://creativecommons.org/ns#"
   xmlns:rdf="http://www.w3.org/1999/02/22-rdf-syntax-ns#"
   xmlns:svg="http://www.w3.org/2000/svg"
   xmlns="http://www.w3.org/2000/svg"
   xmlns:sodipodi="http://sodipodi.sourceforge.net/DTD/sodipodi-0.dtd"
   xmlns:inkscape="http://www.inkscape.org/namespaces/inkscape"
   width="48"
   height="48"
   viewBox="0 0 48 48"
   version="1.1"
   id="svg7"
   sodipodi:docname="archive.svg"
   inkscape:version="0.92.4 (5da689c313, 2019-01-14)">
  <metadata
     id="metadata11">
    <rdf:RDF>
      <cc:Work
         rdf:about="">
        <dc:format>image/svg+xml</dc:format>
        <dc:type
           rdf:resource="http://purl.org/dc/dcmitype/StillImage" />
        <dc:title />
      </cc:Work>
    </rdf:RDF>
  </metadata>
  <sodipodi:namedview
     pagecolor="#ffffff"
     bordercolor="#666666"
     borderopacity="1"
     objecttolerance="10"
     gridtolerance="10"
     guidetolerance="10"
     inkscape:pageopacity="0"
     inkscape:pageshadow="2"
     inkscape:window-width="1280"
     inkscape:window-height="954"
     id="namedview9"
     showgrid="false"
     inkscape:zoom="7.375"
     inkscape:cx="0.21365224"
     inkscape:cy="8.3487612"
     inkscape:window-x="0"
     inkscape:window-y="0"
     inkscape:window-maximized="1"
     inkscape:current-layer="svg7" />
  <defs
     id="defs3">
    <style
       type="text/css"
       id="current-color-scheme">
   .ColorScheme-Text { color:#5c616c; } .ColorScheme-Highlight { color:#5294e2; } .ColorScheme-ButtonBackground { color:#d3dae3; }
  </style>
  </defs>
  <path
     style="color:#5c616c;opacity:1;fill:#eeeeee;stroke-width:3.20981312;fill-opacity:1"
     class="ColorScheme-Text"
     d="M 7.6500148,3.1494276 C 6.0505974,3.2864866 4.9624383,4.6897848 4.640815,6.1586274 3.7043524,9.0202397 2.7409267,11.915106 1.8322286,14.785 l -0.30092,1.20368 v 25.678505 c 0,1.778236 1.431577,3.209813 3.2098131,3.209813 H 43.258878 c 1.778236,0 3.209813,-1.431577 3.209813,-3.209813 V 15.98868 l -0.401227,-1.5046 C 44.981809,11.307232 44.004678,8.0073192 42.857651,4.8546408 42.170815,3.4483254 40.604683,3.0033169 39.146305,3.1494276 Z m 2.6267812,6.4196261 h 27.389987 c 0.346788,1.0368023 0.71271,2.1436423 1.065757,3.2098133 H 9.229845 c 0.3490668,-1.071339 0.6927476,-2.131476 1.046951,-3.2098133 z m 10.513391,9.6294393 h 6.419626 v 9.62944 h 5.617172 L 24,38.457372 15.173014,28.827933 h 5.617173 z"
     id="path5"
     inkscape:connector-curvature="0" />
</svg>
