<?xml version="1.0" encoding="UTF-8" standalone="no"?>
<svg
   xmlns:dc="http://purl.org/dc/elements/1.1/"
   xmlns:cc="http://creativecommons.org/ns#"
   xmlns:rdf="http://www.w3.org/1999/02/22-rdf-syntax-ns#"
   xmlns:svg="http://www.w3.org/2000/svg"
   xmlns="http://www.w3.org/2000/svg"
   xmlns:sodipodi="http://sodipodi.sourceforge.net/DTD/sodipodi-0.dtd"
   xmlns:inkscape="http://www.inkscape.org/namespaces/inkscape"
   width="48"
   height="48"
   viewBox="0 0 48 48"
   version="1.1"
   id="svg7"
   sodipodi:docname="contrast.svg"
   inkscape:version="0.92.4 (5da689c313, 2019-01-14)">
  <metadata
     id="metadata11">
    <rdf:RDF>
      <cc:Work
         rdf:about="">
        <dc:format>image/svg+xml</dc:format>
        <dc:type
           rdf:resource="http://purl.org/dc/dcmitype/StillImage" />
        <dc:title />
      </cc:Work>
    </rdf:RDF>
  </metadata>
  <sodipodi:namedview
     pagecolor="#ffffff"
     bordercolor="#666666"
     borderopacity="1"
     objecttolerance="10"
     gridtolerance="10"
     guidetolerance="10"
     inkscape:pageopacity="0"
     inkscape:pageshadow="2"
     inkscape:window-width="1280"
     inkscape:window-height="954"
     id="namedview9"
     showgrid="false"
     inkscape:zoom="7.375"
     inkscape:cx="-7.1732141"
     inkscape:cy="0.52503726"
     inkscape:window-x="0"
     inkscape:window-y="0"
     inkscape:window-maximized="1"
     inkscape:current-layer="svg7" />
  <defs
     id="defs3">
    <style
       type="text/css"
       id="current-color-scheme">
   .ColorScheme-Text { color:#5c616c; } .ColorScheme-Highlight { color:#5294e2; } .ColorScheme-ButtonBackground { color:#d3dae3; }
  </style>
  </defs>
  <path
     style="color:#5c616c;opacity:1;fill:#eeeeee;stroke-width:2.86417913;fill-opacity:1"
     class="ColorScheme-Text"
     d="m 22.565114,1.0865663 v 5.1913248 h 2.864179 V 1.0865663 Z M 8.7812511,6.7310158 6.7226223,8.784048 l 3.6697297,3.759235 2.058629,-2.148134 z m 30.4319049,0 -3.66973,3.6641332 2.058629,2.148134 3.66973,-3.759235 z M 23.997204,9.679104 C 16.088059,9.679104 9.6763071,16.090856 9.6763071,24 c 0,7.909148 6.4117519,14.320896 14.3208969,14.320896 7.909144,0 14.320896,-6.411748 14.320896,-14.320896 0,-7.909144 -6.411752,-14.320896 -14.320896,-14.320896 z m 0,2.864179 v 22.913434 c -6.327258,0 -11.456717,-5.129745 -11.456717,-11.456717 0,-6.327258 5.129459,-11.456717 11.456717,-11.456717 z M 1.0837694,22.567911 v 2.864179 h 5.1913249 v -2.864179 z m 40.6411376,0 v 2.864179 h 5.191324 v -2.864179 z m -31.332555,12.978312 -3.6697297,3.669729 2.0586288,2.058629 3.6697299,-3.66973 z m 27.209703,0 -2.058629,2.058628 3.66973,3.66973 2.058629,-2.058629 z m -15.036941,6.175886 v 5.191325 h 2.864179 v -5.191325 z"
     id="path5"
     inkscape:connector-curvature="0" />
</svg>
