<?xml version="1.0" encoding="UTF-8" standalone="no"?>
<!-- Generated by IcoMoon.io -->

<svg
   xmlns:dc="http://purl.org/dc/elements/1.1/"
   xmlns:cc="http://creativecommons.org/ns#"
   xmlns:rdf="http://www.w3.org/1999/02/22-rdf-syntax-ns#"
   xmlns:svg="http://www.w3.org/2000/svg"
   xmlns="http://www.w3.org/2000/svg"
   xmlns:sodipodi="http://sodipodi.sourceforge.net/DTD/sodipodi-0.dtd"
   xmlns:inkscape="http://www.inkscape.org/namespaces/inkscape"
   version="1.1"
   width="48"
   height="48"
   viewBox="0 0 48 48"
   id="svg8"
   sodipodi:docname="document-print-preview.svg"
   inkscape:version="0.92.4 (5da689c313, 2019-01-14)">
  <metadata
     id="metadata14">
    <rdf:RDF>
      <cc:Work
         rdf:about="">
        <dc:format>image/svg+xml</dc:format>
        <dc:type
           rdf:resource="http://purl.org/dc/dcmitype/StillImage" />
        <dc:title>printer</dc:title>
      </cc:Work>
    </rdf:RDF>
  </metadata>
  <defs
     id="defs12" />
  <sodipodi:namedview
     pagecolor="#ffffff"
     bordercolor="#666666"
     borderopacity="1"
     objecttolerance="10"
     gridtolerance="10"
     guidetolerance="10"
     inkscape:pageopacity="0"
     inkscape:pageshadow="2"
     inkscape:window-width="1280"
     inkscape:window-height="954"
     id="namedview10"
     showgrid="false"
     inkscape:zoom="7.375"
     inkscape:cx="11.254238"
     inkscape:cy="16"
     inkscape:window-x="0"
     inkscape:window-y="0"
     inkscape:window-maximized="1"
     inkscape:current-layer="svg8" />
  <title
     id="title2">printer</title>
  <g
     id="g861"
     style="fill:#eeeeee;fill-opacity:1">
    <path
       sodipodi:nodetypes="sssscccccccccsscssssssssss"
       inkscape:connector-curvature="0"
       id="path6"
       d="m 4.4414062,12.824219 c -1.5368038,0 -2.7949218,1.256166 -2.7949218,2.792969 v 13.970703 c 0,1.536804 1.258118,2.794921 2.7949218,2.794921 h 8.3828128 v 11.175782 h 22.351562 v -6.31836 c -0.853924,0.50422 -1.796632,0.871016 -2.792969,1.09375 v 2.431641 H 15.617188 V 26.794922 h 5.234374 c 0.967709,-4.313932 4.81412,-7.541016 9.419922,-7.541016 5.335348,0 9.660157,4.324809 9.660157,9.660156 0,1.22274 -0.230058,2.392147 -0.644532,3.46875 h 4.271485 c 1.536803,0 2.794922,-1.258117 2.794922,-2.794921 V 15.617188 c 0,-1.536804 -1.258119,-2.792969 -2.794922,-2.792969 z m 2.7929688,2.792969 c 1.5437893,0 2.794922,1.251132 2.794922,2.794921 0,1.54379 -1.2511327,2.792969 -2.794922,2.792969 -1.5437893,0 -2.7929688,-1.249179 -2.7929688,-2.792969 0,-1.543789 1.2491795,-2.794921 2.7929688,-2.794921 z"
       style="fill:#eeeeee;fill-opacity:1;stroke-width:1.39709437" />
    <path
       inkscape:connector-curvature="0"
       id="path4"
       d="m 12.823245,4.4406782 h 22.35351 v 5.5883778 h -22.35351 z"
       style="fill:#eeeeee;fill-opacity:1;stroke-width:1.39709437" />
    <path
       style="stroke-width:0.67373955;fill:#eeeeee;fill-opacity:1"
       id="path4-3-6"
       d="M 43.128764,39.228209 38.021817,34.88461 c -0.528212,-0.474986 -1.092805,-0.693277 -1.548927,-0.672392 1.20532,-1.412157 1.933633,-3.244056 1.933633,-5.24641 0,-4.464872 -3.620003,-8.084874 -8.084875,-8.084874 -4.464873,0 -8.084876,3.620002 -8.084876,8.084874 0,4.464873 3.620003,8.084876 8.084876,8.084876 2.002353,0 3.834251,-0.728313 5.24641,-1.933634 -0.02089,0.456122 0.197405,1.020717 0.672392,1.548928 l 4.343599,5.106946 c 0.743809,0.826005 1.958561,0.896074 2.699675,0.15496 0.741113,-0.741113 0.671718,-1.955866 -0.15496,-2.699675 z M 30.322321,34.3564 c -2.976581,0 -5.389916,-2.413336 -5.389916,-5.389918 0,-2.976582 2.413335,-5.389916 5.389916,-5.389916 2.976582,0 5.389916,2.413334 5.389916,5.389916 0,2.976582 -2.413334,5.389918 -5.389916,5.389918 z"
       inkscape:connector-curvature="0" />
  </g>
</svg>
