<?xml version="1.0" encoding="UTF-8" standalone="no"?>
<svg
   xmlns:dc="http://purl.org/dc/elements/1.1/"
   xmlns:cc="http://creativecommons.org/ns#"
   xmlns:rdf="http://www.w3.org/1999/02/22-rdf-syntax-ns#"
   xmlns:svg="http://www.w3.org/2000/svg"
   xmlns="http://www.w3.org/2000/svg"
   xmlns:sodipodi="http://sodipodi.sourceforge.net/DTD/sodipodi-0.dtd"
   xmlns:inkscape="http://www.inkscape.org/namespaces/inkscape"
   width="48"
   height="48"
   viewBox="0 0 48 48"
   version="1.1"
   id="svg8"
   sodipodi:docname="configure.svg"
   inkscape:version="0.92.4 (5da689c313, 2019-01-14)">
  <metadata
     id="metadata14">
    <rdf:RDF>
      <cc:Work
         rdf:about="">
        <dc:format>image/svg+xml</dc:format>
        <dc:type
           rdf:resource="http://purl.org/dc/dcmitype/StillImage" />
        <dc:title></dc:title>
      </cc:Work>
    </rdf:RDF>
  </metadata>
  <defs
     id="defs12" />
  <sodipodi:namedview
     pagecolor="#ffffff"
     bordercolor="#666666"
     borderopacity="1"
     objecttolerance="10"
     gridtolerance="10"
     guidetolerance="10"
     inkscape:pageopacity="0"
     inkscape:pageshadow="2"
     inkscape:window-width="1280"
     inkscape:window-height="954"
     id="namedview10"
     showgrid="false"
     inkscape:zoom="9.8333333"
     inkscape:cx="10.220339"
     inkscape:cy="12"
     inkscape:window-x="0"
     inkscape:window-y="0"
     inkscape:window-maximized="1"
     inkscape:current-layer="svg8" />
  <g
     id="surface1"
     transform="matrix(2.7506053,0,0,2.7506053,-9.0072636,-9.0072636)">
    <defs
       id="defs3">
      <style
         id="current-color-scheme"
         type="text/css">
     .ColorScheme-Text { color:#eeeeee; } .ColorScheme-Highlight { color:#424242; }
  </style>
    </defs>
    <path
       style="color:#eeeeee;fill:currentColor"
       class="ColorScheme-Text"
       d="m 9,5 c 0.742188,0 1.386719,0.402344 1.730469,1 H 19 V 8 H 10.730469 C 10.386719,8.597656 9.742188,9 9,9 8.257812,9 7.613281,8.597656 7.269531,8 H 5 V 6 H 7.269531 C 7.613281,5.402344 8.257812,5 9,5 Z M 9,6 C 8.445312,6 8,6.445312 8,7 8,7.554688 8.445312,8 9,8 9.554688,8 10,7.554688 10,7 10,6.445312 9.554688,6 9,6 Z m 6,4 c 0.742188,0 1.386719,0.402344 1.730469,1 H 19 v 2 H 16.730469 C 16.386719,13.597656 15.742188,14 15,14 14.257812,14 13.613281,13.597656 13.269531,13 H 5 v -2 h 8.269531 C 13.613281,10.402344 14.257812,10 15,10 Z m 0,1 c -0.554688,0 -1,0.445312 -1,1 0,0.554688 0.445312,1 1,1 0.554688,0 1,-0.445312 1,-1 0,-0.554688 -0.445312,-1 -1,-1 z m -3,4 c 0.742188,0 1.386719,0.402344 1.730469,1 H 19 v 2 H 13.730469 C 13.386719,18.597656 12.742188,19 12,19 11.257812,19 10.613281,18.597656 10.269531,18 H 5 v -2 h 5.269531 C 10.613281,15.402344 11.257812,15 12,15 Z m 0,1 c -0.554688,0 -1,0.445312 -1,1 0,0.554688 0.445312,1 1,1 0.554688,0 1,-0.445312 1,-1 0,-0.554688 -0.445312,-1 -1,-1 z m 0,0"
       id="path5"
       inkscape:connector-curvature="0" />
  </g>
</svg>
