<?xml version="1.0" encoding="UTF-8" standalone="no"?>
<svg
   xmlns:dc="http://purl.org/dc/elements/1.1/"
   xmlns:cc="http://creativecommons.org/ns#"
   xmlns:rdf="http://www.w3.org/1999/02/22-rdf-syntax-ns#"
   xmlns:svg="http://www.w3.org/2000/svg"
   xmlns="http://www.w3.org/2000/svg"
   xmlns:sodipodi="http://sodipodi.sourceforge.net/DTD/sodipodi-0.dtd"
   xmlns:inkscape="http://www.inkscape.org/namespaces/inkscape"
   width="48"
   height="48"
   version="1.1"
   id="svg8"
   sodipodi:docname="document-save-all.svg"
   inkscape:version="0.92.4 (5da689c313, 2019-01-14)">
  <metadata
     id="metadata14">
    <rdf:RDF>
      <cc:Work
         rdf:about="">
        <dc:format>image/svg+xml</dc:format>
        <dc:type
           rdf:resource="http://purl.org/dc/dcmitype/StillImage" />
        <dc:title></dc:title>
      </cc:Work>
    </rdf:RDF>
  </metadata>
  <defs
     id="defs12" />
  <sodipodi:namedview
     pagecolor="#ffffff"
     bordercolor="#666666"
     borderopacity="1"
     objecttolerance="10"
     gridtolerance="10"
     guidetolerance="10"
     inkscape:pageopacity="0"
     inkscape:pageshadow="2"
     inkscape:window-width="1280"
     inkscape:window-height="954"
     id="namedview10"
     showgrid="false"
     inkscape:zoom="7.375"
     inkscape:cx="11.501146"
     inkscape:cy="23.164759"
     inkscape:window-x="0"
     inkscape:window-y="0"
     inkscape:window-maximized="1"
     inkscape:current-layer="svg8" />
  <g
     id="g858">
    <path
       d="m 4.3921381,40.331719 0.019598,6.532688 H 43.607862 l -0.0196,-6.532688 z"
       style="color:#000000;overflow:visible;fill:#eeeeee;fill-opacity:1;fill-rule:evenodd;stroke-width:3.26634383;marker:none"
       overflow="visible"
       id="path4"
       inkscape:connector-curvature="0" />
    <g
       transform="matrix(0.85980014,0,0,1,2.3703168,0)"
       id="g852">
      <path
         sodipodi:nodetypes="ccccccccccccccccc"
         inkscape:connector-curvature="0"
         id="path2"
         overflow="visible"
         font-weight="400"
         style="color:#000000;font-weight:400;line-height:normal;font-family:'Bitstream Vera Sans';-inkscape-font-specification:'Bitstream Vera Sans';text-indent:0;text-align:start;text-decoration:none;text-decoration-line:none;text-transform:none;overflow:visible;fill:#eeeeee;fill-opacity:1;stroke-width:3.26634383;marker:none"
         d="M 12.472269,1.2711866 V 25.974545 l -4.1841864,-4.19072 c -0.631918,-0.602126 -1.475796,-1.026637 -2.348501,-1.010455 -2.13119,0.284304 -3.128602,1.134891 -3.266344,3.122526 -0.160093,0.850647 0.30377,1.970859 0.917842,2.588198 l 9.7990324,9.799032 0.921109,0.917842 c 0.785231,0.558173 1.690547,0.716068 2.858051,0 l 0.914576,-0.917842 9.799031,-9.799032 c 0.620606,-0.617339 1.016989,-1.291162 1.016989,-2.156743 0.107078,-2.102641 -1.378184,-3.553981 -3.553981,-3.553981 -0.865581,0 -1.539405,0.399649 -2.156744,1.013722 l -4.184186,4.187453 V 1.2711866 Z" />
      <path
         sodipodi:nodetypes="ccccccccccccccccc"
         inkscape:connector-curvature="0"
         id="path2-3"
         overflow="visible"
         font-weight="400"
         style="color:#000000;font-weight:400;line-height:normal;font-family:'Bitstream Vera Sans';-inkscape-font-specification:'Bitstream Vera Sans';text-indent:0;text-align:start;text-decoration:none;text-decoration-line:none;text-transform:none;overflow:visible;fill:#eeeeee;fill-opacity:1;stroke-width:3.26634383;marker:none"
         d="M 32.631146,1.3207023 V 26.024061 l -4.184186,-4.19072 c -0.631918,-0.602126 -1.475796,-1.026637 -2.348501,-1.010455 -2.13119,0.284304 -3.128602,1.134891 -3.266344,3.122526 -0.160093,0.850647 0.30377,1.970859 0.917842,2.588198 l 9.799032,9.799032 0.921109,0.917842 c 0.785231,0.558173 1.690547,0.716068 2.858051,0 l 0.914576,-0.917842 9.799031,-9.799032 c 0.620606,-0.617339 1.016989,-1.291162 1.016989,-2.156743 0.107078,-2.102641 -1.378184,-3.553981 -3.553981,-3.553981 -0.865581,0 -1.539405,0.399649 -2.156744,1.013722 l -4.184186,4.187453 V 1.3207023 Z" />
    </g>
  </g>
</svg>
