<?xml version="1.0" encoding="UTF-8" standalone="no"?>
<svg
   xmlns:dc="http://purl.org/dc/elements/1.1/"
   xmlns:cc="http://creativecommons.org/ns#"
   xmlns:rdf="http://www.w3.org/1999/02/22-rdf-syntax-ns#"
   xmlns:svg="http://www.w3.org/2000/svg"
   xmlns="http://www.w3.org/2000/svg"
   xmlns:sodipodi="http://sodipodi.sourceforge.net/DTD/sodipodi-0.dtd"
   xmlns:inkscape="http://www.inkscape.org/namespaces/inkscape"
   width="48"
   height="48"
   viewBox="0 0 48 48"
   version="1.1"
   id="svg5"
   sodipodi:docname="edit-delete.svg"
   inkscape:version="0.92.4 (5da689c313, 2019-01-14)">
  <metadata
     id="metadata11">
    <rdf:RDF>
      <cc:Work
         rdf:about="">
        <dc:format>image/svg+xml</dc:format>
        <dc:type
           rdf:resource="http://purl.org/dc/dcmitype/StillImage" />
        <dc:title></dc:title>
      </cc:Work>
    </rdf:RDF>
  </metadata>
  <defs
     id="defs9" />
  <sodipodi:namedview
     pagecolor="#ffffff"
     bordercolor="#666666"
     borderopacity="1"
     objecttolerance="10"
     gridtolerance="10"
     guidetolerance="10"
     inkscape:pageopacity="0"
     inkscape:pageshadow="2"
     inkscape:window-width="1280"
     inkscape:window-height="954"
     id="namedview7"
     showgrid="false"
     inkscape:zoom="9.8333333"
     inkscape:cx="30.40678"
     inkscape:cy="12"
     inkscape:window-x="0"
     inkscape:window-y="0"
     inkscape:window-maximized="1"
     inkscape:current-layer="svg5" />
  <path
     inkscape:connector-curvature="0"
     d="m 10.077288,40.533221 c 0,2.882001 2.337275,5.221016 5.221017,5.221016 h 17.403389 c 2.882002,0 5.221018,-2.339015 5.221018,-5.221016 L 41.40339,12.687796 H 6.5966095 Z M 29.221016,17.908814 h 3.480678 v 22.624407 h -3.480678 z m -6.961355,0 h 3.480677 v 22.624407 h -3.480677 z m -6.961356,0 h 3.480678 V 40.533221 H 15.298305 Z M 40.53322,5.7264403 H 29.221016 c 0,0 -0.779671,-3.4806774 -1.740338,-3.4806774 h -6.961356 c -0.962408,0 -1.740339,3.4806774 -1.740339,3.4806774 H 7.4667793 c -1.4427405,0 -2.6105083,1.1677679 -2.6105083,2.6105094 0,1.4427404 0,2.6105083 0,2.6105083 h 38.287458 c 0,0 0,-1.1677679 0,-2.6105083 0,-1.4427415 -1.169508,-2.6105094 -2.610509,-2.6105094 z"
     id="path4"
     style="stroke-width:1.74033892;fill:#ee514f;fill-opacity:1" />
</svg>
