<?xml version="1.0" encoding="UTF-8" standalone="no"?>
<!-- Generated by IcoMoon.io -->

<svg
   xmlns:dc="http://purl.org/dc/elements/1.1/"
   xmlns:cc="http://creativecommons.org/ns#"
   xmlns:rdf="http://www.w3.org/1999/02/22-rdf-syntax-ns#"
   xmlns:svg="http://www.w3.org/2000/svg"
   xmlns="http://www.w3.org/2000/svg"
   xmlns:sodipodi="http://sodipodi.sourceforge.net/DTD/sodipodi-0.dtd"
   xmlns:inkscape="http://www.inkscape.org/namespaces/inkscape"
   version="1.1"
   width="48"
   height="48"
   viewBox="0 0 48 48"
   id="svg6"
   sodipodi:docname="edit-copy.svg"
   inkscape:version="0.92.4 (5da689c313, 2019-01-14)">
  <metadata
     id="metadata12">
    <rdf:RDF>
      <cc:Work
         rdf:about="">
        <dc:format>image/svg+xml</dc:format>
        <dc:type
           rdf:resource="http://purl.org/dc/dcmitype/StillImage" />
        <dc:title>copy1</dc:title>
      </cc:Work>
    </rdf:RDF>
  </metadata>
  <defs
     id="defs10" />
  <sodipodi:namedview
     pagecolor="#ffffff"
     bordercolor="#666666"
     borderopacity="1"
     objecttolerance="10"
     gridtolerance="10"
     guidetolerance="10"
     inkscape:pageopacity="0"
     inkscape:pageshadow="2"
     inkscape:window-width="1280"
     inkscape:window-height="954"
     id="namedview8"
     showgrid="false"
     inkscape:zoom="8.4285714"
     inkscape:cx="7.7711866"
     inkscape:cy="14"
     inkscape:window-x="0"
     inkscape:window-y="0"
     inkscape:window-maximized="1"
     inkscape:current-layer="svg6" />
  <title
     id="title2">copy1</title>
  <path
     d="m 3.554801,10.914255 c -1.35429,0 -2.453424,1.099134 -2.453424,2.453424 v 31.076702 c 0,1.35429 1.099134,2.453424 2.453424,2.453424 H 28.08904 c 1.35429,0 2.453424,-1.099134 2.453424,-2.453424 v -7.360272 h 13.902735 c 1.35429,0 2.453424,-1.099133 2.453424,-2.453423 V 17.456718 c 0,-1.35429 -0.791638,-3.245062 -1.737024,-4.190448 L 34.734547,2.839219 C 33.789161,1.893833 31.898389,1.1021949 30.544099,1.1021949 H 19.912596 c -1.35429,0 -2.453424,1.0991339 -2.453424,2.4534239 V 11.93815 C 16.463082,11.350964 15.18403,10.91589 14.18794,10.91589 H 3.556437 Z m 13.902735,5.44333 7.641598,7.641597 h -7.641598 z m 16.35616,-9.8136959 7.641597,7.6415979 H 33.813696 Z M 28.80544,23.079966 20.730404,15.00493 V 4.3734268 h 9.813695 V 15.00493 c 0,1.35429 1.099134,2.453424 2.453424,2.453424 H 43.629027 V 33.814513 H 30.544099 V 27.27205 c 0,-1.35429 -0.791638,-3.245062 -1.737024,-4.190448 z M 4.372609,43.626573 V 14.185487 h 9.813696 V 24.81699 c 0,1.35429 1.099133,2.453424 2.453423,2.453424 h 10.631504 v 16.356159 z"
     id="path4"
     inkscape:connector-curvature="0"
     style="stroke-width:1.63561594;fill:#eeeeee;fill-opacity:1" />
</svg>
