<?xml version="1.0" encoding="UTF-8" standalone="no"?>
<svg
   xmlns:dc="http://purl.org/dc/elements/1.1/"
   xmlns:cc="http://creativecommons.org/ns#"
   xmlns:rdf="http://www.w3.org/1999/02/22-rdf-syntax-ns#"
   xmlns:svg="http://www.w3.org/2000/svg"
   xmlns="http://www.w3.org/2000/svg"
   xmlns:sodipodi="http://sodipodi.sourceforge.net/DTD/sodipodi-0.dtd"
   xmlns:inkscape="http://www.inkscape.org/namespaces/inkscape"
   width="48"
   height="48"
   version="1.1"
   id="svg8"
   sodipodi:docname="edit-find-symbolic.svg"
   inkscape:version="0.92.4 (5da689c313, 2019-01-14)">
  <metadata
     id="metadata14">
    <rdf:RDF>
      <cc:Work
         rdf:about="">
        <dc:format>image/svg+xml</dc:format>
        <dc:type
           rdf:resource="http://purl.org/dc/dcmitype/StillImage" />
        <dc:title></dc:title>
      </cc:Work>
    </rdf:RDF>
  </metadata>
  <defs
     id="defs12" />
  <sodipodi:namedview
     pagecolor="#ffffff"
     bordercolor="#666666"
     borderopacity="1"
     objecttolerance="10"
     gridtolerance="10"
     guidetolerance="10"
     inkscape:pageopacity="0"
     inkscape:pageshadow="2"
     inkscape:window-width="1280"
     inkscape:window-height="954"
     id="namedview10"
     showgrid="false"
     inkscape:zoom="5.2149125"
     inkscape:cx="-18.470922"
     inkscape:cy="7.6876465"
     inkscape:window-x="0"
     inkscape:window-y="0"
     inkscape:window-maximized="1"
     inkscape:current-layer="svg8" />
  <path
     inkscape:connector-curvature="0"
     d="M 43.685026,38.731357 33.74313,30.275499 c -1.028291,-0.924675 -2.127408,-1.349632 -3.015358,-1.308973 2.346445,-2.749104 3.76428,-6.315333 3.76428,-10.213396 0,-8.691945 -7.047205,-15.7391495 -15.73915,-15.7391495 -8.691945,0 -15.7391483,7.0472045 -15.7391483,15.7391495 0,8.691945 7.0472033,15.739149 15.7391483,15.739149 3.898063,0 7.464292,-1.417835 10.213397,-3.764279 -0.04066,0.88795 0.384297,1.987067 1.308972,3.015358 l 8.455858,9.941896 c 1.448002,1.608017 3.812809,1.744423 5.255564,0.301667 1.442756,-1.442755 1.307661,-3.807562 -0.301667,-5.255564 z M 18.754214,29.247208 c -5.79463,0 -10.4927656,-4.698136 -10.4927656,-10.492766 0,-5.79463 4.6981356,-10.4927672 10.4927656,-10.4927672 5.79463,0 10.492766,4.6981372 10.492766,10.4927672 0,5.79463 -4.698136,10.492766 -10.492766,10.492766 z"
     id="path4"
     style="stroke-width:1.3115958;fill:#eeeeee;fill-opacity:1" />
</svg>
