<?xml version="1.0" encoding="UTF-8" standalone="no"?>
<!-- Generated by IcoMoon.io -->

<svg
   xmlns:dc="http://purl.org/dc/elements/1.1/"
   xmlns:cc="http://creativecommons.org/ns#"
   xmlns:rdf="http://www.w3.org/1999/02/22-rdf-syntax-ns#"
   xmlns:svg="http://www.w3.org/2000/svg"
   xmlns="http://www.w3.org/2000/svg"
   xmlns:sodipodi="http://sodipodi.sourceforge.net/DTD/sodipodi-0.dtd"
   xmlns:inkscape="http://www.inkscape.org/namespaces/inkscape"
   version="1.1"
   width="48"
   height="48"
   viewBox="0 0 48 48"
   id="svg6"
   sodipodi:docname="paste.svg"
   inkscape:version="0.92.4 (5da689c313, 2019-01-14)">
  <metadata
     id="metadata12">
    <rdf:RDF>
      <cc:Work
         rdf:about="">
        <dc:format>image/svg+xml</dc:format>
        <dc:type
           rdf:resource="http://purl.org/dc/dcmitype/StillImage" />
        <dc:title>paste</dc:title>
      </cc:Work>
    </rdf:RDF>
  </metadata>
  <defs
     id="defs10" />
  <sodipodi:namedview
     pagecolor="#ffffff"
     bordercolor="#666666"
     borderopacity="1"
     objecttolerance="10"
     gridtolerance="10"
     guidetolerance="10"
     inkscape:pageopacity="0"
     inkscape:pageshadow="2"
     inkscape:window-width="1280"
     inkscape:window-height="954"
     id="namedview8"
     showgrid="false"
     inkscape:zoom="7.375"
     inkscape:cx="11.254238"
     inkscape:cy="16"
     inkscape:window-x="0"
     inkscape:window-y="0"
     inkscape:window-maximized="1"
     inkscape:current-layer="svg6" />
  <title
     id="title2">paste</title>
  <path
     d="M 31.186441,6.7525424 H 25.437288 V 3.8779662 c 0,-1.581017 -1.293559,-2.8745763 -2.874576,-2.8745763 h -5.749153 c -1.581017,0 -2.874575,1.2935593 -2.874575,2.8745763 V 6.7525424 H 8.1898306 V 12.501694 H 31.186441 Z m -8.623729,0 h -5.749153 v -2.868827 c 0.0014,-0.00144 0.0029,-0.00287 0.0057,-0.00574 h 5.73909 c 0.0014,0.00144 0.0043,0.00287 0.0057,0.00574 v 2.868827 z M 36.935594,15.376271 V 8.1898305 c 0,-0.7905084 -0.64678,-1.4372881 -1.437289,-1.4372881 h -2.874576 v 2.8745765 h 1.437288 V 15.376271 H 25.437288 L 16.813559,24 V 35.498304 H 5.3152543 V 9.6271189 H 6.7525424 V 6.7525424 H 3.8779661 c -0.7905084,0 -1.4372881,0.6467797 -1.4372881,1.4372881 V 36.935593 c 0,0.790509 0.6467797,1.437288 1.4372881,1.437288 H 16.813559 V 46.99661 H 45.559322 V 15.376271 Z M 25.437288,19.440922 V 24 H 20.87821 Z M 42.684746,44.122034 H 19.688136 V 26.874576 h 8.623728 v -8.623728 h 14.372882 z"
     id="path4"
     inkscape:connector-curvature="0"
     style="fill:#eeeeee;stroke-width:1.43728817;fill-opacity:1" />
</svg>
