<?xml version="1.0" encoding="UTF-8" standalone="no"?>
<svg
   xmlns:dc="http://purl.org/dc/elements/1.1/"
   xmlns:cc="http://creativecommons.org/ns#"
   xmlns:rdf="http://www.w3.org/1999/02/22-rdf-syntax-ns#"
   xmlns:svg="http://www.w3.org/2000/svg"
   xmlns="http://www.w3.org/2000/svg"
   xmlns:sodipodi="http://sodipodi.sourceforge.net/DTD/sodipodi-0.dtd"
   xmlns:inkscape="http://www.inkscape.org/namespaces/inkscape"
   width="48"
   height="48"
   version="1.1"
   id="svg8"
   sodipodi:docname="folder-new.svg"
   inkscape:version="0.92.4 (5da689c313, 2019-01-14)">
  <metadata
     id="metadata14">
    <rdf:RDF>
      <cc:Work
         rdf:about="">
        <dc:format>image/svg+xml</dc:format>
        <dc:type
           rdf:resource="http://purl.org/dc/dcmitype/StillImage" />
        <dc:title />
      </cc:Work>
    </rdf:RDF>
  </metadata>
  <defs
     id="defs12">
    <style
       id="current-color-scheme"
       type="text/css">
     .ColorScheme-Text { color:#eeeeee; } .ColorScheme-Highlight { color:#424242; }
  </style>
  </defs>
  <sodipodi:namedview
     pagecolor="#ffffff"
     bordercolor="#666666"
     borderopacity="1"
     objecttolerance="10"
     gridtolerance="10"
     guidetolerance="10"
     inkscape:pageopacity="0"
     inkscape:pageshadow="2"
     inkscape:window-width="1280"
     inkscape:window-height="954"
     id="namedview10"
     showgrid="false"
     inkscape:zoom="20.85965"
     inkscape:cx="26.655989"
     inkscape:cy="7.9773204"
     inkscape:window-x="0"
     inkscape:window-y="0"
     inkscape:window-maximized="1"
     inkscape:current-layer="svg8" />
  <path
     inkscape:connector-curvature="0"
     id="path4"
     overflow="visible"
     font-weight="400"
     style="color:#000000;font-weight:400;line-height:normal;font-family:sans-serif;font-variant-ligatures:normal;font-variant-position:normal;font-variant-caps:normal;font-variant-numeric:normal;font-variant-alternates:normal;font-feature-settings:normal;text-indent:0;text-align:start;text-decoration:none;text-decoration-line:none;text-decoration-style:solid;text-decoration-color:#000000;text-transform:none;text-orientation:mixed;white-space:normal;shape-padding:0;overflow:visible;isolation:auto;mix-blend-mode:normal;fill:#eeeeee;fill-opacity:1;fill-rule:evenodd;stroke-width:2.8014338"
     d="m 7.1913601,4.3897563 c -2.3335943,0 -4.2721864,1.5800086 -4.9585376,2.9499097 C 1.5520741,8.7039642 1.5884927,9.9926237 1.5884927,9.9926237 V 38.006961 c 0,2.333594 1.5800086,4.272186 2.9499097,4.958537 1.3670996,0.68355 2.6529577,0.64433 2.6529577,0.64433 H 23.999962 c 0,0 2.801434,0 2.801434,-2.801434 0,-2.801433 -2.801434,-2.801433 -2.801434,-2.801433 H 7.1913601 V 9.9926237 H 20.038735 l 5.602867,5.6028673 h 15.166963 v 5.602867 c 0,2.801434 2.801433,2.801434 2.801433,2.801434 0,0 2.801434,0 2.801434,-2.801434 v -5.602867 c 0,0 0.03922,-1.285858 -0.64433,-2.652958 C 45.080751,11.572632 43.142159,9.9926237 40.808565,9.9926237 H 27.96119 L 22.358322,4.3897563 Z" />
  <g
     id="g3950"
     style="fill:#eeeeee;fill-opacity:1"
     transform="translate(14.660986,-18.506153)">
    <rect
       ry="3.2863801"
       rx="3.15604"
       y="43.184196"
       x="20.421267"
       height="19.677029"
       width="5.0825171"
       id="rect3931"
       style="opacity:1;fill:#eeeeee;fill-opacity:1;stroke:none;stroke-width:1;stroke-linecap:round;stroke-linejoin:round;stroke-miterlimit:4;stroke-dasharray:none;stroke-opacity:1" />
    <rect
       transform="matrix(0,1,1,0,0,0)"
       ry="3.2863801"
       rx="3.15604"
       y="12.884314"
       x="50.385574"
       height="19.677029"
       width="5.0825171"
       id="rect3931-2"
       style="opacity:1;fill:#eeeeee;fill-opacity:1;stroke:none;stroke-width:1;stroke-linecap:round;stroke-linejoin:round;stroke-miterlimit:4;stroke-dasharray:none;stroke-opacity:1" />
  </g>
</svg>
