<?xml version="1.0" encoding="UTF-8" standalone="no"?>
<svg
   xmlns:dc="http://purl.org/dc/elements/1.1/"
   xmlns:cc="http://creativecommons.org/ns#"
   xmlns:rdf="http://www.w3.org/1999/02/22-rdf-syntax-ns#"
   xmlns:svg="http://www.w3.org/2000/svg"
   xmlns="http://www.w3.org/2000/svg"
   xmlns:sodipodi="http://sodipodi.sourceforge.net/DTD/sodipodi-0.dtd"
   xmlns:inkscape="http://www.inkscape.org/namespaces/inkscape"
   width="48"
   height="48"
   viewBox="0 0 48 48"
   version="1.1"
   id="svg8"
   sodipodi:docname="folder-sync.svg"
   inkscape:version="0.92.4 (5da689c313, 2019-01-14)">
  <metadata
     id="metadata14">
    <rdf:RDF>
      <cc:Work
         rdf:about="">
        <dc:format>image/svg+xml</dc:format>
        <dc:type
           rdf:resource="http://purl.org/dc/dcmitype/StillImage" />
        <dc:title />
      </cc:Work>
    </rdf:RDF>
  </metadata>
  <defs
     id="defs12" />
  <sodipodi:namedview
     pagecolor="#ffffff"
     bordercolor="#666666"
     borderopacity="1"
     objecttolerance="10"
     gridtolerance="10"
     guidetolerance="10"
     inkscape:pageopacity="0"
     inkscape:pageshadow="2"
     inkscape:window-width="1280"
     inkscape:window-height="954"
     id="namedview10"
     showgrid="false"
     inkscape:zoom="9.8333333"
     inkscape:cx="8.6440678"
     inkscape:cy="11.79661"
     inkscape:window-x="0"
     inkscape:window-y="0"
     inkscape:window-maximized="1"
     inkscape:current-layer="svg8" />
  <g
     id="g3864">
    <g
       transform="matrix(2.100028,0,0,2.100028,5.8053051,2.864103)"
       id="surface1">
      <defs
         id="defs3">
        <style
           type="text/css"
           id="current-color-scheme">
   .ColorScheme-Text { color:#eeeeee; } .ColorScheme-Highlight { color:#424242; }
  </style>
      </defs>
      <path
         sodipodi:nodetypes="ccccccccccccccc"
         inkscape:connector-curvature="0"
         id="path5"
         d="m 14.917969,11 c -0.652344,0.01172 -1.3125,0.183594 -1.917969,0.535156 -1.621094,0.9375 -2.332031,2.816406 -1.851562,4.535156 L 13,15 c 0,-0.691406 0.355469,-1.359375 1,-1.730469 0.644531,-0.371093 1.402344,-0.347656 2,0 l 1.851562,-1.070312 C 17.070312,11.402344 16.003906,10.976562 14.917969,11 Z M 18.851562,13.929688 17,15 c 0,0.691406 -0.355469,1.359375 -1,1.730469 -0.644531,0.371093 -1.402344,0.347656 -2,0 l -1.851562,1.070312 c 1.246093,1.277344 3.230468,1.597657 4.851562,0.664063 1.621094,-0.9375 2.332031,-2.816406 1.851562,-4.535156 z"
         class="ColorScheme-Text"
         style="color:#eeeeee;fill:currentColor" />
    </g>
    <g
       transform="matrix(2.8014337,0,0,2.8014337,1.5884927,1.5883226)"
       style="fill:#eeeeee;fill-opacity:1"
       id="g6">
      <path
         inkscape:connector-curvature="0"
         id="path4"
         overflow="visible"
         font-weight="400"
         style="color:#000000;font-weight:400;line-height:normal;font-family:sans-serif;font-variant-ligatures:normal;font-variant-position:normal;font-variant-caps:normal;font-variant-numeric:normal;font-variant-alternates:normal;font-feature-settings:normal;text-indent:0;text-align:start;text-decoration:none;text-decoration-line:none;text-decoration-style:solid;text-decoration-color:#000000;text-transform:none;text-orientation:mixed;white-space:normal;shape-padding:0;overflow:visible;isolation:auto;mix-blend-mode:normal;fill:#eeeeee;fill-opacity:1;fill-rule:evenodd"
         d="M 2,1 C 1.167,1 0.475,1.564 0.23,2.053 -0.013,2.54 0,3 0,3 v 10 c 0,0.833 0.564,1.525 1.053,1.77 C 1.541,15.014 2,15 2,15 H 8 C 8,15 9,15 9,14 9,13 8,13 8,13 H 2 V 3 h 4.586 l 2,2 H 14 v 2 c 0,1 1,1 1,1 0,0 1,0 1,-1 V 5 C 16,5 16.014,4.541 15.77,4.053 15.525,3.564 14.833,3 14,3 H 9.414 l -2,-2 z" />
    </g>
  </g>
</svg>
