<?xml version="1.0" encoding="UTF-8" standalone="no"?>
<svg
   xmlns:dc="http://purl.org/dc/elements/1.1/"
   xmlns:cc="http://creativecommons.org/ns#"
   xmlns:rdf="http://www.w3.org/1999/02/22-rdf-syntax-ns#"
   xmlns:svg="http://www.w3.org/2000/svg"
   xmlns="http://www.w3.org/2000/svg"
   xmlns:sodipodi="http://sodipodi.sourceforge.net/DTD/sodipodi-0.dtd"
   xmlns:inkscape="http://www.inkscape.org/namespaces/inkscape"
   width="48"
   height="48"
   viewBox="0 0 48 48"
   version="1.1"
   id="svg7"
   sodipodi:docname="format-text-remove-formatting.svg"
   inkscape:version="0.92.4 (5da689c313, 2019-01-14)">
  <metadata
     id="metadata11">
    <rdf:RDF>
      <cc:Work
         rdf:about="">
        <dc:format>image/svg+xml</dc:format>
        <dc:type
           rdf:resource="http://purl.org/dc/dcmitype/StillImage" />
        <dc:title></dc:title>
      </cc:Work>
    </rdf:RDF>
  </metadata>
  <sodipodi:namedview
     pagecolor="#ffffff"
     bordercolor="#666666"
     borderopacity="1"
     objecttolerance="10"
     gridtolerance="10"
     guidetolerance="10"
     inkscape:pageopacity="0"
     inkscape:pageshadow="2"
     inkscape:window-width="1280"
     inkscape:window-height="954"
     id="namedview9"
     showgrid="false"
     inkscape:zoom="3.6875"
     inkscape:cx="-80.37161"
     inkscape:cy="-20.409294"
     inkscape:window-x="0"
     inkscape:window-y="0"
     inkscape:window-maximized="1"
     inkscape:current-layer="svg7" />
  <defs
     id="defs3">
    <style
       type="text/css"
       id="current-color-scheme">
   .ColorScheme-Text { color:#5c616c; } .ColorScheme-Highlight { color:#5294e2; } .ColorScheme-ButtonBackground { color:#d3dae3; }
  </style>
  </defs>
  <path
     style="color:#5c616c;opacity:1;fill:#eeeeee;stroke-width:3.1502924;fill-opacity:1"
     class="ColorScheme-Text"
     d="M 6.1811578,1.7510594 1.7510589,6.1811582 16.536513,20.966612 c -2.40843,0.278486 -4.528417,1.347163 -5.925256,2.934942 -1.6205112,1.842259 -2.3828504,4.128931 -2.3627197,6.399031 0.018902,2.270164 0.8472081,4.576588 2.4611657,6.399032 1.613958,1.82257 4.128301,3.051846 6.989712,3.051846 h 17.621949 l 6.497478,6.497478 4.430099,-4.430099 z m 12.7980632,6.4974782 6.300585,6.3005854 h 5.020779 c 1.348829,0 3.150293,1.934721 3.150293,3.150292 v 3.150293 h -1.870487 l 8.171072,8.171071 V 17.699415 C 39.751746,12.550892 35.593707,8.2485376 30.300585,8.2485376 Z M 17.699415,27.150293 h 5.020778 l 6.300585,6.300585 H 17.699415 c -1.253408,0 -1.785933,-0.345871 -2.264273,-0.88602 -0.478341,-0.540149 -0.878207,-1.384144 -0.88602,-2.264273 -0.0063,-0.880128 0.329741,-1.743813 0.787573,-2.264272 0.457832,-0.52046 1.032162,-0.88602 2.36272,-0.88602 z"
     id="path5"
     inkscape:connector-curvature="0" />
</svg>
