<?xml version="1.0" encoding="UTF-8" standalone="no"?>
<!-- Generated by IcoMoon.io -->

<svg
   xmlns:dc="http://purl.org/dc/elements/1.1/"
   xmlns:cc="http://creativecommons.org/ns#"
   xmlns:rdf="http://www.w3.org/1999/02/22-rdf-syntax-ns#"
   xmlns:svg="http://www.w3.org/2000/svg"
   xmlns="http://www.w3.org/2000/svg"
   xmlns:sodipodi="http://sodipodi.sourceforge.net/DTD/sodipodi-0.dtd"
   xmlns:inkscape="http://www.inkscape.org/namespaces/inkscape"
   version="1.1"
   width="48"
   height="48"
   viewBox="0 0 48 48"
   id="svg6"
   sodipodi:docname="format-list-unordered.svg"
   inkscape:version="0.92.4 (5da689c313, 2019-01-14)">
  <metadata
     id="metadata12">
    <rdf:RDF>
      <cc:Work
         rdf:about="">
        <dc:format>image/svg+xml</dc:format>
        <dc:type
           rdf:resource="http://purl.org/dc/dcmitype/StillImage" />
        <dc:title>list2</dc:title>
      </cc:Work>
    </rdf:RDF>
  </metadata>
  <defs
     id="defs10" />
  <sodipodi:namedview
     pagecolor="#ffffff"
     bordercolor="#666666"
     borderopacity="1"
     objecttolerance="10"
     gridtolerance="10"
     guidetolerance="10"
     inkscape:pageopacity="0"
     inkscape:pageshadow="2"
     inkscape:window-width="1280"
     inkscape:window-height="954"
     id="namedview8"
     showgrid="false"
     inkscape:zoom="7.375"
     inkscape:cx="13.627119"
     inkscape:cy="16"
     inkscape:window-x="0"
     inkscape:window-y="0"
     inkscape:window-maximized="1"
     inkscape:current-layer="svg6" />
  <title
     id="title2">list2</title>
  <path
     d="m 18.457627,4.601695 h 27.711864 v 5.542373 H 18.457627 Z m 0,16.627119 h 27.711864 v 5.542373 H 18.457627 Z m 0,16.627119 h 27.711864 v 5.542373 H 18.457627 Z M 1.8305085,7.3728814 c 0,-3.0607754 2.4815975,-5.5423729 5.5423729,-5.5423729 3.0607756,0 5.5423736,2.4815975 5.5423736,5.5423729 0,3.0607756 -2.481598,5.5423736 -5.5423736,5.5423736 -3.0607754,0 -5.5423729,-2.481598 -5.5423729,-5.5423736 z m 0,16.6271186 c 0,-3.060775 2.4815975,-5.542372 5.5423729,-5.542372 3.0607756,0 5.5423736,2.481597 5.5423736,5.542372 0,3.060776 -2.481598,5.542373 -5.5423736,5.542373 C 4.312106,29.542373 1.8305085,27.060776 1.8305085,24 Z m 0,16.627119 c 0,-3.060775 2.4815975,-5.542373 5.5423729,-5.542373 3.0607756,0 5.5423736,2.481598 5.5423736,5.542373 0,3.060776 -2.481598,5.542373 -5.5423736,5.542373 -3.0607754,0 -5.5423729,-2.481597 -5.5423729,-5.542373 z"
     id="path4"
     inkscape:connector-curvature="0"
     style="stroke-width:1.38559318;fill:#eeeeee;fill-opacity:1" />
</svg>
