<?xml version="1.0" encoding="UTF-8" standalone="no"?>
<svg
   xmlns:dc="http://purl.org/dc/elements/1.1/"
   xmlns:cc="http://creativecommons.org/ns#"
   xmlns:rdf="http://www.w3.org/1999/02/22-rdf-syntax-ns#"
   xmlns:svg="http://www.w3.org/2000/svg"
   xmlns="http://www.w3.org/2000/svg"
   xmlns:sodipodi="http://sodipodi.sourceforge.net/DTD/sodipodi-0.dtd"
   xmlns:inkscape="http://www.inkscape.org/namespaces/inkscape"
   width="48"
   height="48"
   version="1.1"
   id="svg8"
   sodipodi:docname="insert-text-symbolic.svg"
   inkscape:version="0.92.4 (5da689c313, 2019-01-14)">
  <metadata
     id="metadata14">
    <rdf:RDF>
      <cc:Work
         rdf:about="">
        <dc:format>image/svg+xml</dc:format>
        <dc:type
           rdf:resource="http://purl.org/dc/dcmitype/StillImage" />
        <dc:title></dc:title>
      </cc:Work>
    </rdf:RDF>
  </metadata>
  <defs
     id="defs12" />
  <sodipodi:namedview
     pagecolor="#ffffff"
     bordercolor="#666666"
     borderopacity="1"
     objecttolerance="10"
     gridtolerance="10"
     guidetolerance="10"
     inkscape:pageopacity="0"
     inkscape:pageshadow="2"
     inkscape:window-width="1280"
     inkscape:window-height="954"
     id="namedview10"
     showgrid="false"
     inkscape:zoom="7.375"
     inkscape:cx="-3.4500453"
     inkscape:cy="2.8545552"
     inkscape:window-x="0"
     inkscape:window-y="0"
     inkscape:window-maximized="1"
     inkscape:current-layer="svg8" />
  <g
     font-weight="400"
     id="g6"
     style="font-weight:400;fill:#eeeeee;fill-opacity:1"
     transform="matrix(2.8983051,0,0,2.8983051,0.79419271,0.8135592)">
    <path
       d="M 11,12 H 10 C 9.743,12 9.472,12.118 9.281,12.284 L 8.001,13.447 6.719,12.284 A 1.145,1.145 0 0 0 6,12 H 5 v 0.908 c 0,0.28 0.09,0.501 0.281,0.68 L 8.001,16 10.719,13.589 A 0.88,0.88 0 0 0 11,12.908 Z"
       style="color:#bebebe;line-height:normal;font-family:'Bitstream Vera Sans';-inkscape-font-specification:'Bitstream Vera Sans';text-indent:0;text-align:start;text-decoration:none;text-decoration-line:none;text-transform:none;overflow:visible;marker:none;fill:#eeeeee;fill-opacity:1"
       overflow="visible"
       id="path2"
       inkscape:connector-curvature="0" />
    <path
       d="m 4,0 v 2 h 6 c 0.428,0 1,0.614 1,1 V 4 H 6 C 5.08,4 4.264,4.38 3.75,4.965 A 3.037,3.037 0 0 0 3.014,7.01 3.08,3.08 0 0 0 3.772,9.037 C 4.284,9.616 5.092,10 6,10 h 7 V 3 A 3,3 0 0 0 10,0 Z m 2,6 h 5 V 8 H 6 C 5.602,8 5.421,7.884 5.27,7.713 A 1.138,1.138 0 0 1 5.014,6.99 C 5.011,6.71 5.107,6.45 5.252,6.285 5.397,6.12 5.578,6 6,6 Z"
       style="color:#000000;line-height:normal;font-family:sans-serif;font-variant-ligatures:normal;font-variant-position:normal;font-variant-caps:normal;font-variant-numeric:normal;font-variant-alternates:normal;font-feature-settings:normal;text-indent:0;text-align:start;text-decoration:none;text-decoration-line:none;text-decoration-style:solid;text-decoration-color:#000000;text-transform:none;text-orientation:mixed;white-space:normal;shape-padding:0;overflow:visible;isolation:auto;mix-blend-mode:normal;marker:none;fill:#eeeeee;fill-opacity:1"
       overflow="visible"
       id="path4"
       inkscape:connector-curvature="0" />
  </g>
</svg>
