<?xml version="1.0" encoding="UTF-8" standalone="no"?>
<svg
   xmlns:dc="http://purl.org/dc/elements/1.1/"
   xmlns:cc="http://creativecommons.org/ns#"
   xmlns:rdf="http://www.w3.org/1999/02/22-rdf-syntax-ns#"
   xmlns:svg="http://www.w3.org/2000/svg"
   xmlns="http://www.w3.org/2000/svg"
   xmlns:sodipodi="http://sodipodi.sourceforge.net/DTD/sodipodi-0.dtd"
   xmlns:inkscape="http://www.inkscape.org/namespaces/inkscape"
   width="48"
   height="48"
   version="1.1"
   id="svg6"
   sodipodi:docname="view-grid-symbolic.svg"
   inkscape:version="0.92.4 (5da689c313, 2019-01-14)">
  <metadata
     id="metadata12">
    <rdf:RDF>
      <cc:Work
         rdf:about="">
        <dc:format>image/svg+xml</dc:format>
        <dc:type
           rdf:resource="http://purl.org/dc/dcmitype/StillImage" />
        <dc:title></dc:title>
      </cc:Work>
    </rdf:RDF>
  </metadata>
  <defs
     id="defs10">
    <style
       id="current-color-scheme"
       type="text/css">
     .ColorScheme-Text { color:#eeeeee; } .ColorScheme-Highlight { color:#424242; }
  </style>
  </defs>
  <sodipodi:namedview
     pagecolor="#ffffff"
     bordercolor="#666666"
     borderopacity="1"
     objecttolerance="10"
     gridtolerance="10"
     guidetolerance="10"
     inkscape:pageopacity="0"
     inkscape:pageshadow="2"
     inkscape:window-width="1280"
     inkscape:window-height="954"
     id="namedview8"
     showgrid="false"
     inkscape:zoom="5.2149125"
     inkscape:cx="-18.639416"
     inkscape:cy="-5.1178711"
     inkscape:window-x="0"
     inkscape:window-y="0"
     inkscape:window-maximized="1"
     inkscape:current-layer="svg6" />
  <g
     id="g4"
     style="color:#000000;fill:#eeeeee;fill-opacity:1"
     transform="translate(0,32)">
    <path
       d="M 5.3985687,-28.148864 H 18.418765 c 0.858341,0 1.551462,0.902669 1.551462,2.022946 v 12.073199 c 0,1.120277 -0.693121,2.022946 -1.551462,2.022946 H 5.4025985 c -0.8664011,0 -1.5514625,-0.902669 -1.5514625,-2.022946 v -12.073199 c 0,-1.120277 0.6850614,-2.022946 1.5474327,-2.022946 z m 24.1786363,0 h 13.020196 c 0.858342,0 1.551463,0.902669 1.551463,2.022946 v 12.073199 c 0,1.120277 -0.693121,2.022946 -1.551463,2.022946 H 29.581235 c -0.866401,0 -1.551462,-0.902669 -1.551462,-2.022946 v -12.073199 c 0,-1.120277 0.685061,-2.022946 1.547432,-2.022946 z M 5.3985687,-3.9702271 H 18.418765 c 0.858341,0 1.551462,0.9026691 1.551462,2.0229459 V 10.125918 c 0,1.120277 -0.693121,2.022946 -1.551462,2.022946 H 5.4025985 c -0.8664011,0 -1.5514625,-0.902669 -1.5514625,-2.022946 V -1.9472812 c 0,-1.1202768 0.6850614,-2.0229459 1.5474327,-2.0229459 z m 24.1786363,0 h 13.020196 c 0.858342,0 1.551463,0.9026691 1.551463,2.0229459 V 10.125918 c 0,1.120277 -0.693121,2.022946 -1.551463,2.022946 H 29.581235 c -0.866401,0 -1.551462,-0.902669 -1.551462,-2.022946 V -1.9472812 c 0,-1.1202768 0.685061,-2.0229459 1.547432,-2.0229459 z"
       style="overflow:visible;stroke-width:4.02977276;marker:none;fill:#eeeeee;fill-opacity:1"
       overflow="visible"
       id="path2"
       inkscape:connector-curvature="0" />
  </g>
</svg>
