<?xml version="1.0" encoding="UTF-8" standalone="no"?>
<svg
   xmlns:dc="http://purl.org/dc/elements/1.1/"
   xmlns:cc="http://creativecommons.org/ns#"
   xmlns:rdf="http://www.w3.org/1999/02/22-rdf-syntax-ns#"
   xmlns:svg="http://www.w3.org/2000/svg"
   xmlns="http://www.w3.org/2000/svg"
   xmlns:sodipodi="http://sodipodi.sourceforge.net/DTD/sodipodi-0.dtd"
   xmlns:inkscape="http://www.inkscape.org/namespaces/inkscape"
   width="48"
   height="48"
   version="1.1"
   id="svg14"
   sodipodi:docname="view-restore-symbolic.svg"
   inkscape:version="0.92.4 (5da689c313, 2019-01-14)">
  <metadata
     id="metadata20">
    <rdf:RDF>
      <cc:Work
         rdf:about="">
        <dc:format>image/svg+xml</dc:format>
        <dc:type
           rdf:resource="http://purl.org/dc/dcmitype/StillImage" />
        <dc:title></dc:title>
      </cc:Work>
    </rdf:RDF>
  </metadata>
  <defs
     id="defs18" />
  <sodipodi:namedview
     pagecolor="#ffffff"
     bordercolor="#666666"
     borderopacity="1"
     objecttolerance="10"
     gridtolerance="10"
     guidetolerance="10"
     inkscape:pageopacity="0"
     inkscape:pageshadow="2"
     inkscape:window-width="1280"
     inkscape:window-height="954"
     id="namedview16"
     showgrid="false"
     inkscape:zoom="7.3703934"
     inkscape:cx="26.436952"
     inkscape:cy="27.572544"
     inkscape:window-x="0"
     inkscape:window-y="0"
     inkscape:window-maximized="1"
     inkscape:current-layer="svg14" />
  <g
     id="g862"
     transform="matrix(2.6784031,0,0,2.6784031,55.652299,2.8544181)"
     style="fill:#eeeeee;fill-opacity:1">
    <g
       transform="translate(9.7857583,-8.2507377)"
       style="fill:#eeeeee;fill-opacity:1"
       id="g846">
      <path
         style="opacity:1;fill:#eeeeee;fill-opacity:1;stroke:none;stroke-width:1.02634335;stroke-linecap:round;stroke-linejoin:round;stroke-opacity:1"
         d="m -28.68696,14.149856 c -0.536926,0 -0.96875,0.575575 -0.96875,1.291016 v 7.457031 c 0,0.71544 0.431824,1.291016 0.96875,1.291016 h 8.068359 c 0.536926,0 0.96875,-0.575576 0.96875,-1.291016 v -7.457031 c 0,-0.715441 -0.431824,-1.291016 -0.96875,-1.291016 z m 1.066406,2.068359 h 6.017578 v 6.052735 h -6.017578 z"
         id="rect836"
         inkscape:connector-curvature="0" />
      <path
         style="opacity:1;fill:#eeeeee;fill-opacity:1;stroke:none;stroke-width:0.93817002;stroke-linecap:round;stroke-linejoin:round;stroke-opacity:1"
         d="m -28.459976,14.133241 c -0.723255,0.0011 -1.11118,0.544365 -1.124801,1.011643 l -0.05996,2.05699 c -0.01362,0.467278 0.581431,0.84375 1.304687,0.84375 h 7.394531 c 0.723257,0 1.314409,-0.376339 1.306641,-0.84375 l -0.03598,-2.164922 c -0.0076,-0.457614 -0.415862,-0.917004 -1.234687,-0.915704 z m 1.127737,2.051055 h 5.410156 c 0.17989,0 0.324219,0.144529 0.324219,0.324218 v 0.228516 c 0,0.179689 -0.144329,0.324219 -0.324219,0.324219 h -5.410156 c -0.17989,0 -0.324219,-0.14453 -0.324219,-0.324219 v -0.228516 c 0,-0.179689 0.144329,-0.324218 0.324219,-0.324218 z"
         id="rect838"
         inkscape:connector-curvature="0"
         sodipodi:nodetypes="ssssssssssssssssss" />
    </g>
    <g
       transform="translate(-19.907303)"
       id="g852"
       style="fill:#eeeeee;fill-opacity:1">
      <path
         inkscape:connector-curvature="0"
         id="path2"
         overflow="visible"
         font-weight="400"
         style="color:#000000;font-weight:400;line-height:normal;font-family:sans-serif;font-variant-ligatures:normal;font-variant-position:normal;font-variant-caps:normal;font-variant-numeric:normal;font-variant-alternates:normal;font-feature-settings:normal;text-indent:0;text-align:start;text-decoration:none;text-decoration-line:none;text-decoration-style:solid;text-decoration-color:#000000;text-transform:none;text-orientation:mixed;white-space:normal;shape-padding:0;overflow:visible;isolation:auto;mix-blend-mode:normal;fill:#eeeeee;marker:none;fill-opacity:1"
         d="M 12,1.006 10,1.014 10.018,6.01 H 15 v -2 h -2.99 z" />
      <path
         inkscape:connector-curvature="0"
         id="path4"
         overflow="visible"
         font-weight="400"
         style="color:#000000;font-weight:400;line-height:normal;font-family:sans-serif;font-variant-ligatures:normal;font-variant-position:normal;font-variant-caps:normal;font-variant-numeric:normal;font-variant-alternates:normal;font-feature-settings:normal;text-indent:0;text-align:start;text-decoration:none;text-decoration-line:none;text-decoration-style:solid;text-decoration-color:#000000;text-transform:none;text-orientation:mixed;white-space:normal;shape-padding:0;overflow:visible;isolation:auto;mix-blend-mode:normal;fill:#eeeeee;marker:none;fill-opacity:1"
         d="m 15.108409,-0.1479436 c -0.260299,0.0082 -0.50713,0.117625 -0.687999,0.305 l -3.984,4 c -1.0204534,0.943329 0.477012,2.434449 1.415999,1.41 l 3.986,-4 c 0.652488,-0.637102 0.181493,-1.743616 -0.73,-1.715 z"
         sodipodi:nodetypes="cccccc" />
      <path
         inkscape:connector-curvature="0"
         id="path8"
         overflow="visible"
         style="color:#000000;overflow:visible;fill:#eeeeee;marker:none;fill-opacity:1"
         d="m 15,5.01 h 1 v 1 h -1 z m -5,-5 h 1 v 1 h -1 z"
         sodipodi:nodetypes="cccccccccc" />
      <path
         inkscape:connector-curvature="0"
         id="path10"
         overflow="visible"
         style="color:#000000;overflow:visible;fill:#eeeeee;marker:none;fill-opacity:1"
         d="m 11,0.01 c 0.554,0 1,0.446 1,1 0,0.554 -0.446,1 -1,1 -0.554,0 -1,-0.446 -1,-1 0,-0.554 0.446,-1 1,-1 z m 4,4 c 0.554,0 1,0.446 1,1 0,0.554 -0.446,1 -1,1 -0.554,0 -1,-0.446 -1,-1 0,-0.554 0.446,-1 1,-1 z" />
    </g>
  </g>
</svg>
