<?xml version="1.0" encoding="UTF-8" standalone="no"?>
<svg
   xmlns:dc="http://purl.org/dc/elements/1.1/"
   xmlns:cc="http://creativecommons.org/ns#"
   xmlns:rdf="http://www.w3.org/1999/02/22-rdf-syntax-ns#"
   xmlns:svg="http://www.w3.org/2000/svg"
   xmlns="http://www.w3.org/2000/svg"
   xmlns:sodipodi="http://sodipodi.sourceforge.net/DTD/sodipodi-0.dtd"
   xmlns:inkscape="http://www.inkscape.org/namespaces/inkscape"
   width="48"
   height="48"
   version="1.1"
   id="svg10"
   sodipodi:docname="view-list-ordered.svg"
   inkscape:version="0.92.4 (5da689c313, 2019-01-14)"
   inkscape:export-filename="/home/tony/Desktop/themes xfce my/Novo theme/Coginder-Blue/icons/scalable/actions/HJ.png"
   inkscape:export-xdpi="270"
   inkscape:export-ydpi="270">
  <metadata
     id="metadata16">
    <rdf:RDF>
      <cc:Work
         rdf:about="">
        <dc:format>image/svg+xml</dc:format>
        <dc:type
           rdf:resource="http://purl.org/dc/dcmitype/StillImage" />
        <dc:title />
      </cc:Work>
    </rdf:RDF>
  </metadata>
  <defs
     id="defs14" />
  <sodipodi:namedview
     pagecolor="#ffffff"
     bordercolor="#666666"
     borderopacity="1"
     objecttolerance="10"
     gridtolerance="10"
     guidetolerance="10"
     inkscape:pageopacity="0"
     inkscape:pageshadow="2"
     inkscape:window-width="1280"
     inkscape:window-height="954"
     id="namedview12"
     showgrid="false"
     inkscape:zoom="5.2149125"
     inkscape:cx="-29.163676"
     inkscape:cy="28.617633"
     inkscape:window-x="0"
     inkscape:window-y="0"
     inkscape:window-maximized="1"
     inkscape:current-layer="svg10"
     inkscape:lockguides="true" />
  <g
     id="g3903"
     transform="translate(-0.3202006,-0.76255917)">
    <path
       d="M 6.0027846,5.0451556 H 10.991351 V 15.032279 H 5.997791 V 10.038717 H 3.5010098 l 0.00499,-2.4967806 z"
       style="color:#000000;overflow:visible;fill:#eeeeee;fill-opacity:1;stroke-width:2.49678087;marker:none"
       overflow="visible"
       id="path4"
       inkscape:connector-curvature="0" />
    <path
       style="font-weight:800;line-height:1.25;font-family:Cantarell;-inkscape-font-specification:'Cantarell Ultra-Bold';font-variant-ligatures:normal;font-variant-caps:normal;font-variant-numeric:normal;font-feature-settings:normal;text-align:start;letter-spacing:0;word-spacing:0;fill:#eeeeee;fill-opacity:1;stroke-width:2.49678087"
       d="M 2.7426342,28.432642 H 12.777197 v -2.49678 H 7.7836348 c 3.7451722,-1.24839 4.4367802,-3.243318 4.5741022,-4.471734 0.222214,-2.012406 -2.237115,-3.795108 -4.7363932,-3.77763 -1.847617,0.01248 -3.2582993,0.604221 -4.8312708,2.007412 l 1.2483901,2.496781 c 2.2471027,-1.473101 4.5890837,-2.62162 4.6564967,-0.759021 0.04994,1.338274 -4.6564967,2.007411 -5.9523256,4.581592 z"
       font-weight="800"
       letter-spacing="0"
       word-spacing="0"
       id="path6"
       inkscape:connector-curvature="0" />
    <path
       sodipodi:nodetypes="cccccccccccccc"
       inkscape:connector-curvature="0"
       id="path3903"
       d="m 3.6018787,34.902256 2.4666973,8.33e-4 c -0.095999,-1.181963 1.2315601,-2.435297 2.2306361,-1.982457 0.809446,-0.0062 2.6269309,2.322248 -1.2852637,3.257443 l -0.03356,1.926178 c 2.255189,-0.441063 3.6458276,0.846553 2.7897048,2.651514 -0.670825,1.281344 -3.7617443,0.70056 -3.6094978,-0.656693 l -2.474708,0.04684 -0.013883,2.80977 c 1.8045104,1.285325 5.3378827,2.502946 7.8632276,0.337006 1.702759,-1.530405 2.694414,-4.809756 -1.310529,-6.184342 1.025355,0.155233 4.279552,-2.640682 1.142595,-5.515362 -1.6671109,-1.616319 -6.025764,-0.718469 -7.7442522,1.044505 z"
       style="fill:#eeeeee;fill-opacity:1;stroke:none;stroke-width:2.39832997px;stroke-linecap:butt;stroke-linejoin:miter;stroke-opacity:1" />
    <path
       sodipodi:nodetypes="sssssccss"
       d="m 18.53797,5.829573 h 25.535811 c 1.010487,0 1.823985,0.8138034 1.823985,1.8246621 v 3.6493219 c 0,1.010863 -0.813498,1.824662 -1.823985,1.824662 H 18.53797 c -1.008196,0.0021 -1.826008,-0.81609 -1.823987,-1.824662 V 7.6542351 c 0,-1.0108587 0.813498,-1.8246621 1.823987,-1.8246621 z"
       style="fill:#eeeeee;fill-opacity:1;stroke-width:3.64864779;marker:none"
       id="path2-3-8-8"
       inkscape:connector-curvature="0" />
    <path
       sodipodi:nodetypes="sssssccss"
       d="m 18.53797,20.365915 h 25.535811 c 1.010487,0 1.823985,0.813803 1.823985,1.824662 v 3.649322 c 0,1.010863 -0.813498,1.824662 -1.823985,1.824662 H 18.53797 c -1.008196,0.0021 -1.826008,-0.81609 -1.823987,-1.824662 v -3.649322 c 0,-1.010859 0.813498,-1.824662 1.823987,-1.824662 z"
       style="fill:#eeeeee;fill-opacity:1;stroke-width:3.64864779;marker:none"
       id="path2-3-8-8-6"
       inkscape:connector-curvature="0" />
    <path
       sodipodi:nodetypes="sssssccss"
       d="m 18.53797,34.902256 h 25.535812 c 1.010487,0 1.823985,0.813803 1.823985,1.824662 v 3.649322 c 0,1.010863 -0.813498,1.824662 -1.823985,1.824662 H 18.53797 c -1.008195,0.0021 -1.826007,-0.81609 -1.823986,-1.824662 v -3.649322 c 0,-1.010859 0.813498,-1.824662 1.823986,-1.824662 z"
       style="fill:#eeeeee;fill-opacity:1;stroke-width:3.64864779;marker:none"
       id="path2-3-8-8-6-7"
       inkscape:connector-curvature="0" />
  </g>
</svg>
