<?xml version="1.0" encoding="UTF-8" standalone="no"?>
<svg
   xmlns:dc="http://purl.org/dc/elements/1.1/"
   xmlns:cc="http://creativecommons.org/ns#"
   xmlns:rdf="http://www.w3.org/1999/02/22-rdf-syntax-ns#"
   xmlns:svg="http://www.w3.org/2000/svg"
   xmlns="http://www.w3.org/2000/svg"
   xmlns:sodipodi="http://sodipodi.sourceforge.net/DTD/sodipodi-0.dtd"
   xmlns:inkscape="http://www.inkscape.org/namespaces/inkscape"
   width="48"
   height="48"
   version="1.1"
   id="svg8"
   sodipodi:docname="view-list-bullet-symbolic.svg"
   inkscape:version="0.92.4 (5da689c313, 2019-01-14)">
  <metadata
     id="metadata14">
    <rdf:RDF>
      <cc:Work
         rdf:about="">
        <dc:format>image/svg+xml</dc:format>
        <dc:type
           rdf:resource="http://purl.org/dc/dcmitype/StillImage" />
        <dc:title></dc:title>
      </cc:Work>
    </rdf:RDF>
  </metadata>
  <defs
     id="defs12" />
  <sodipodi:namedview
     pagecolor="#ffffff"
     bordercolor="#666666"
     borderopacity="1"
     objecttolerance="10"
     gridtolerance="10"
     guidetolerance="10"
     inkscape:pageopacity="0"
     inkscape:pageshadow="2"
     inkscape:window-width="1280"
     inkscape:window-height="954"
     id="namedview10"
     showgrid="false"
     inkscape:zoom="7.375"
     inkscape:cx="34.972671"
     inkscape:cy="3.0531269"
     inkscape:window-x="0"
     inkscape:window-y="0"
     inkscape:window-maximized="1"
     inkscape:current-layer="svg8" />
  <g
     id="g6"
     style="fill:#eeeeee;fill-opacity:1"
     transform="matrix(3.6340854,0,0,3.6340854,-5.0617809,-5.0726832)">
    <path
       d="M 2.384,3 H 3.615 A 0.38,0.38 0 0 1 4,3.379 V 4.62 A 0.38,0.38 0 0 1 3.615,5 H 2.385 A 0.38,0.38 0 0 1 2,4.621 V 3.38 A 0.38,0.38 0 0 1 2.384,3 Z m 0,4.016 H 3.615 A 0.38,0.38 0 0 1 4,7.394 V 8.637 A 0.38,0.38 0 0 1 3.615,9.016 H 2.385 A 0.38,0.38 0 0 1 2,8.636 V 7.395 A 0.38,0.38 0 0 1 2.384,7.017 Z m 0,3.984 H 3.615 A 0.38,0.38 0 0 1 4,11.379 v 1.242 A 0.38,0.38 0 0 1 3.615,13 H 2.385 A 0.38,0.38 0 0 1 2,12.621 V 11.38 A 0.38,0.38 0 0 1 2.384,11 Z"
       style="color:#000000;overflow:visible;marker:none;fill:#eeeeee;fill-opacity:1"
       overflow="visible"
       id="path2"
       inkscape:connector-curvature="0" />
    <path
       d="m 6.494,3 h 7 c 0.277,0 0.5,0.223 0.5,0.5 v 1 c 0,0.277 -0.223,0.5 -0.5,0.5 h -7 a 0.499,0.499 0 0 1 -0.5,-0.5 v -1 C 5.994,3.223 6.217,3 6.494,3 Z m 0,4 h 7 c 0.277,0 0.5,0.223 0.5,0.5 v 1 c 0,0.277 -0.223,0.5 -0.5,0.5 h -7 a 0.499,0.499 0 0 1 -0.5,-0.5 v -1 C 5.994,7.223 6.217,7 6.494,7 Z m 0,4 h 7 c 0.277,0 0.5,0.223 0.5,0.5 v 1 c 0,0.277 -0.223,0.5 -0.5,0.5 h -7 a 0.499,0.499 0 0 1 -0.5,-0.5 v -1 c 0,-0.277 0.223,-0.5 0.5,-0.5 z"
       style="marker:none;fill:#eeeeee;fill-opacity:1"
       id="path4"
       inkscape:connector-curvature="0" />
  </g>
</svg>
