<?xml version="1.0" encoding="UTF-8" standalone="no"?>
<svg
   xmlns:dc="http://purl.org/dc/elements/1.1/"
   xmlns:cc="http://creativecommons.org/ns#"
   xmlns:rdf="http://www.w3.org/1999/02/22-rdf-syntax-ns#"
   xmlns:svg="http://www.w3.org/2000/svg"
   xmlns="http://www.w3.org/2000/svg"
   xmlns:sodipodi="http://sodipodi.sourceforge.net/DTD/sodipodi-0.dtd"
   xmlns:inkscape="http://www.inkscape.org/namespaces/inkscape"
   width="64"
   height="64"
   version="1.1"
   id="svg16"
   sodipodi:docname="audio-x-playlist.svg"
   inkscape:version="0.92.4 (5da689c313, 2019-01-14)">
  <metadata
     id="metadata22">
    <rdf:RDF>
      <cc:Work
         rdf:about="">
        <dc:format>image/svg+xml</dc:format>
        <dc:type
           rdf:resource="http://purl.org/dc/dcmitype/StillImage" />
        <dc:title></dc:title>
      </cc:Work>
    </rdf:RDF>
  </metadata>
  <defs
     id="defs20" />
  <sodipodi:namedview
     pagecolor="#ffffff"
     bordercolor="#666666"
     borderopacity="1"
     objecttolerance="10"
     gridtolerance="10"
     guidetolerance="10"
     inkscape:pageopacity="0"
     inkscape:pageshadow="2"
     inkscape:window-width="1280"
     inkscape:window-height="954"
     id="namedview18"
     showgrid="false"
     inkscape:zoom="7.375"
     inkscape:cx="26.699489"
     inkscape:cy="19.145215"
     inkscape:window-x="0"
     inkscape:window-y="0"
     inkscape:window-maximized="1"
     inkscape:current-layer="svg16" />
  <g
     id="g3881"
     transform="matrix(1.0132122,0,0,1.0132122,-0.83494455,-0.5172424)">
    <path
       inkscape:connector-curvature="0"
       id="path2"
       d="m 11.277667,2.5124625 c -1.6722183,0 -3.0184446,1.3462264 -3.0184446,3.0184444 V 59.862911 c 0,1.672218 1.3462263,3.018445 3.0184446,3.018445 h 42.258226 c 1.672218,0 3.018444,-1.346227 3.018444,-3.018445 V 20.62313 L 38.443669,2.5124625 Z"
       style="opacity:0.2;stroke-width:1.20737791" />
    <path
       inkscape:connector-curvature="0"
       id="path4"
       d="m 11.277667,1.3050847 c -1.6722183,0 -3.0184446,1.3462264 -3.0184446,3.0184446 V 58.655533 c 0,1.672219 1.3462263,3.018445 3.0184446,3.018445 h 42.258226 c 1.672218,0 3.018444,-1.346226 3.018444,-3.018445 V 19.415752 L 38.443669,1.3050847 Z"
       style="fill:#f2f2f2;fill-opacity:0.91372549;stroke-width:1.20737791" />
    <path
       inkscape:connector-curvature="0"
       id="path6"
       d="M 56.554337,20.62313 38.443669,2.5124625 V 17.604686 c 0,1.672218 1.346226,3.018444 3.018445,3.018444 z"
       style="opacity:0.2;stroke-width:1.20737791" />
    <path
       inkscape:connector-curvature="0"
       id="path8"
       d="M 56.554337,19.415752 38.443669,1.3050847 V 16.397308 c 0,1.672218 1.346226,3.018444 3.018445,3.018444 z"
       style="fill:#e2e2e2;fill-opacity:1;stroke-width:1.20737791" />
    <path
       inkscape:connector-curvature="0"
       id="path10"
       d="m 11.277667,1.3050847 c -1.6722183,0 -3.0184446,1.3462264 -3.0184446,3.0184446 v 1.2073776 c 0,-1.672218 1.3462263,-3.0184444 3.0184446,-3.0184444 H 38.443669 V 1.3050847 Z"
       style="opacity:0.2;fill:#ffffff;stroke-width:1.20737791" />
  </g>
  <g
     transform="translate(0.3158894,1.3419)"
     style="fill:#00fbff"
     id="g3864">
    <path
       inkscape:connector-curvature="0"
       style="fill:#8ecdf7;fill-opacity:1;fill-rule:nonzero;stroke:none;stroke-width:1.37970746"
       d="m 26.743652,21.880417 c -1.013222,0 -1.827034,0.813812 -1.827034,1.827035 0,0.09701 0.01076,0.19941 0.02156,0.291033 0,0.04851 -0.0054,0.09701 -0.0054,0.145515 v 5.702072 c -0.01076,0.08084 -0.01617,0.167073 -0.01617,0.247916 0,0.08623 0.0054,0.172463 0.01617,0.253306 v 5.675124 c -0.01076,0.07006 -0.01617,0.145517 -0.01617,0.215579 v 0.490444 c 0,0.07546 0.0054,0.145516 0.01617,0.215579 v 5.464936 c -0.829981,-0.280255 -1.762361,-0.43655 -2.743246,-0.43655 -3.540891,0 -6.391927,2.037225 -6.391927,4.564892 0,2.527667 2.851036,4.559501 6.391927,4.559501 3.42232,0 6.203292,-1.907876 6.375756,-4.322364 v -2.07495 h 14.605496 c 1.007834,0 1.821644,-0.813812 1.821644,-1.827035 0,-1.013222 -0.81381,-1.827034 -1.821644,-1.827034 H 28.565297 v -2.737857 h 14.605497 c 1.007832,0 1.821643,-0.706023 1.821643,-1.579118 v -0.490444 c 0,-0.873095 -0.813811,-1.579117 -1.821643,-1.579117 H 28.565297 v -2.737857 h 14.605497 c 1.007832,0 1.821643,-0.813813 1.821643,-1.827035 0,-1.007832 -0.813811,-1.821644 -1.821643,-1.821644 H 28.565297 v -2.737857 h 14.605497 c 1.007832,0 1.821643,-0.813813 1.821643,-1.827035 0,-1.013223 -0.813811,-1.827035 -1.821643,-1.827035 z m 0,0"
       id="path6-6" />
    <path
       sodipodi:nodetypes="cccccc"
       inkscape:connector-curvature="0"
       id="path832"
       d="m 24.932778,42.408956 c -8.103842,-1.667447 -11.575622,4.798845 -7.651339,7.183324 2.887747,2.372352 10.381374,2.239226 11.283849,-2.817845 L 28.548428,39.263581 25.27226,39.10426 Z"
       style="fill:#68a7f7;fill-opacity:1;stroke:none;stroke-width:1px;stroke-linecap:butt;stroke-linejoin:miter;stroke-opacity:1" />
    <path
       sodipodi:nodetypes="cccccc"
       inkscape:connector-curvature="0"
       id="path832-3"
       d="m 25.32544,42.726725 c -9.187919,-0.295929 -10.808908,3.309052 -8.809234,6.391758 2.951079,2.821212 10.371113,2.438719 12.049082,-2.344048 l -0.02568,-7.281626 -2.915022,-0.738185 z"
       style="fill:#7cbdf7;fill-opacity:1;stroke:none;stroke-width:1.14309561px;stroke-linecap:butt;stroke-linejoin:miter;stroke-opacity:1" />
  </g>
</svg>
