<?xml version="1.0" encoding="UTF-8" standalone="no"?>
<!-- Created with Inkscape (http://www.inkscape.org/) -->

<svg
   xmlns:dc="http://purl.org/dc/elements/1.1/"
   xmlns:cc="http://creativecommons.org/ns#"
   xmlns:rdf="http://www.w3.org/1999/02/22-rdf-syntax-ns#"
   xmlns:svg="http://www.w3.org/2000/svg"
   xmlns="http://www.w3.org/2000/svg"
   xmlns:sodipodi="http://sodipodi.sourceforge.net/DTD/sodipodi-0.dtd"
   xmlns:inkscape="http://www.inkscape.org/namespaces/inkscape"
   width="64"
   height="64"
   viewBox="0 0 16.933333 16.933334"
   version="1.1"
   id="svg1111"
   inkscape:version="0.92.4 (5da689c313, 2019-01-14)"
   sodipodi:docname="image-tiff.svg">
  <defs
     id="defs1105" />
  <sodipodi:namedview
     id="base"
     pagecolor="#ffffff"
     bordercolor="#666666"
     borderopacity="1.0"
     inkscape:pageopacity="0.0"
     inkscape:pageshadow="2"
     inkscape:zoom="2.8284271"
     inkscape:cx="-72.976754"
     inkscape:cy="20.258429"
     inkscape:document-units="mm"
     inkscape:current-layer="layer1"
     showgrid="false"
     units="px"
     inkscape:window-width="1280"
     inkscape:window-height="954"
     inkscape:window-x="0"
     inkscape:window-y="0"
     inkscape:window-maximized="1" />
  <metadata
     id="metadata1108">
    <rdf:RDF>
      <cc:Work
         rdf:about="">
        <dc:format>image/svg+xml</dc:format>
        <dc:type
           rdf:resource="http://purl.org/dc/dcmitype/StillImage" />
        <dc:title />
      </cc:Work>
    </rdf:RDF>
  </metadata>
  <g
     inkscape:label="Layer 1"
     inkscape:groupmode="layer"
     id="layer1"
     transform="translate(0,-280.06665)">
    <rect
       style="fill:#ffffff;fill-opacity:1;stroke:#c5c5c5;stroke-width:0.26458333;stroke-opacity:0.61960787;stroke-miterlimit:4;stroke-dasharray:none;stroke-linejoin:round;stroke-linecap:round"
       id="rect1858"
       width="16.536457"
       height="12.052007"
       x="0.19843814"
       y="282.50732"
       rx="0.088634893"
       ry="0.069279812" />
    <rect
       style="fill:#9fadc7;fill-opacity:1;stroke:none;stroke-width:0.10791942;stroke-opacity:1"
       id="rect1027"
       width="14.986165"
       height="10.326084"
       x="0.973584"
       y="283.37442"
       rx="0.039851349"
       ry="0.028681749" />
    <path
       style="fill:#d1e7da;fill-opacity:1;stroke:none;stroke-width:0.14224905px;stroke-linecap:butt;stroke-linejoin:miter;stroke-opacity:1"
       d="m 0.973584,285.53701 v -2.16259 H 15.96079 v 4.67721 z"
       id="path942"
       inkscape:connector-curvature="0" />
    <path
       style="fill:#e9ecf3;fill-opacity:1;stroke:none;stroke-width:0.14224905px;stroke-linecap:butt;stroke-linejoin:miter;stroke-opacity:1"
       d="m 15.974485,288.52133 -0.01474,5.17917 H 0.973584 l 0.013691,-7.69379 z"
       id="path942-3"
       inkscape:connector-curvature="0"
       sodipodi:nodetypes="ccccc" />
    <g
       id="g1008"
       transform="matrix(0.47630326,0,0,0.47630326,31.466823,152.50144)">
      <g
         id="g943">
        <path
           style="fill:#ccdeee;fill-opacity:1;stroke:none;stroke-width:0.26458332px;stroke-linecap:butt;stroke-linejoin:miter;stroke-opacity:1"
           d="m -58.187624,291.48197 c -1.405738,-0.97546 -3.685978,-3.64922 2.017448,-4.03489 5.988452,-0.36307 5.76288,-2.6909 5.913313,0.53472 l -0.150433,-3.22562 c -0.443002,-3.05653 -0.959046,-0.76318 0.851704,-3.69216 l -9.458854,0.0992 c -1.855427,4.18715 -3.779025,8.87334 0.826822,10.31875 z"
           id="path1020"
           inkscape:connector-curvature="0"
           sodipodi:nodetypes="ccccccc" />
        <path
           style="fill:#d4e3f1;fill-opacity:1;stroke:none;stroke-width:0.26458332px;stroke-linecap:butt;stroke-linejoin:miter;stroke-opacity:1"
           d="m -58.032737,287.7129 c 0.972404,-0.17299 6.207347,-0.63848 7.775874,0.2689 l 0.736661,-4.43167 c -0.342231,-0.82631 -0.686526,-1.65261 -1.06699,-2.47892 l -7.468931,-3e-5 z"
           id="path1052"
           inkscape:connector-curvature="0"
           sodipodi:nodetypes="cccccc" />
        <g
           id="g1064">
          <path
             sodipodi:nodetypes="ccccccccc"
             inkscape:connector-curvature="0"
             id="path1022"
             d="m -60.178637,287.04244 c 0.08668,-2.50318 0.546901,-4.10339 1.565117,-5.81833 l 1.394909,0.69203 -0.420088,-0.056 c -0.07852,2.46148 -0.574507,6.22291 -0.59282,7.97505 -0.06855,-0.73386 -0.03513,0.16334 -0.157175,0.48243 l 0.34326,-7.24398 c -0.579223,0.13276 -1.675554,1.21358 -2.133203,3.96877 z"
             style="fill:#e5f2fc;fill-opacity:1;stroke:none;stroke-width:0.26458332px;stroke-linecap:butt;stroke-linejoin:miter;stroke-opacity:1" />
          <path
             sodipodi:nodetypes="ccccc"
             inkscape:connector-curvature="0"
             id="path1028"
             d="m -57.225746,282.9878 c 0.170507,-0.22067 0.248016,-0.0753 0.327406,0.0628 l -0.429011,4.56862 c -0.160318,-0.0797 -0.292907,2.9998 -0.451265,2.98663 z"
             style="fill:#f0f8fe;fill-opacity:1;stroke:none;stroke-width:0.27415678px;stroke-linecap:butt;stroke-linejoin:miter;stroke-opacity:1" />
          <path
             sodipodi:nodetypes="ccccc"
             inkscape:connector-curvature="0"
             id="path1028-3"
             d="m -56.445562,281.94707 c 0.254407,-0.26556 0.370055,-0.0906 0.48851,0.0756 l -1.014542,9.08135 c -0.324442,-0.1922 0.234752,-2.6768 -0.05366,-3.4983 z"
             style="fill:#f0f8fe;fill-opacity:1;stroke:none;stroke-width:0.36736622px;stroke-linecap:butt;stroke-linejoin:miter;stroke-opacity:1" />
        </g>
        <path
           style="fill:#cddfef;fill-opacity:1;stroke:none;stroke-width:0.26458332px;stroke-linecap:butt;stroke-linejoin:miter;stroke-opacity:1"
           d="m -51.816993,281.09191 c 0.109923,1.66446 -0.229505,5.04679 -0.42168,6.41615 l 0.917774,0.12402 c 0.09874,-1.5853 0.330488,-4.8198 0.165365,-6.55671 z"
           id="path1066"
           inkscape:connector-curvature="0"
           sodipodi:nodetypes="ccccc" />
        <g
           id="g1157"
           transform="translate(-1.7177854,-1.0705722)">
          <g
             transform="translate(2.1982919,2.2918362)"
             id="g1127">
            <g
               transform="translate(-10.433711,-8.1475575)"
               id="g1133">
              <path
                 sodipodi:nodetypes="ccccc"
                 inkscape:connector-curvature="0"
                 id="path1070-5-6-9"
                 d="m -35.080682,293.41237 c -1.072764,0.0474 -2.733531,0.35268 -3.409163,1.40582 -0.280263,1.74694 1.730958,2.6064 2.286379,2.58355 2.378958,-2.18637 4.606098,-1.92304 6.759988,-2.43863 -1.147209,-1.60994 -3.182642,-1.67722 -5.637204,-1.55074 z"
                 style="fill:#4f4e4e;fill-opacity:1;stroke:none;stroke-width:0.3509807px;stroke-linecap:butt;stroke-linejoin:miter;stroke-opacity:1" />
              <path
                 sodipodi:nodetypes="ccccsc"
                 inkscape:connector-curvature="0"
                 id="path1070-5-6"
                 d="m -35.337929,293.45914 c -1.072764,0.0474 -2.476284,0.30591 -3.151916,1.35905 -0.280263,1.74694 1.730958,2.6064 2.286379,2.58355 1.607217,-0.64289 1.659451,-0.68358 2.971442,-1.38626 -0.883326,-1.23962 -1.298806,-1.31893 -2.05805,-1.6194 -0.226814,-0.0898 -0.04786,-0.17204 -0.04786,-0.93694 z"
                 style="fill:#9fa1a3;fill-opacity:1;stroke:none;stroke-width:0.3509807px;stroke-linecap:butt;stroke-linejoin:miter;stroke-opacity:1" />
              <path
                 sodipodi:nodetypes="ccccc"
                 inkscape:connector-curvature="0"
                 id="path1070"
                 d="m -35.149283,294.04165 c -0.899426,0.0321 -2.076164,0.12809 -2.642627,0.8419 -0.234978,1.18406 1.568913,1.46543 2.034589,1.44994 1.994564,-1.4819 3.783412,-1.28757 5.589274,-1.63703 -0.589301,-0.61568 -2.923283,-0.74054 -4.981236,-0.65481 z"
                 style="fill:#698be6;fill-opacity:1;stroke:none;stroke-width:0.26458332px;stroke-linecap:butt;stroke-linejoin:miter;stroke-opacity:1" />
              <path
                 sodipodi:nodetypes="cccc"
                 inkscape:connector-curvature="0"
                 id="path1117"
                 d="m -37.473361,293.94159 c 1.055142,-0.33095 6.042636,-0.98176 7.550868,0.76656 l 0.338267,0.0165 c -2.156319,-2.62839 -7.313764,-1.11546 -7.889135,-0.7831 z"
                 style="fill:#131313;fill-opacity:1;stroke:none;stroke-width:0.26458332px;stroke-linecap:butt;stroke-linejoin:miter;stroke-opacity:1" />
            </g>
          </g>
          <path
             sodipodi:nodetypes="cccsscc"
             inkscape:connector-curvature="0"
             id="path1070-5-6-1"
             d="m -45.657136,288.24688 c -0.973049,0.31942 -1.051592,1.3109 -0.502734,1.92075 1.265484,1.4818 2.785975,0.88194 3.315569,0.19575 l -0.07794,-0.22926 c 0.07794,0.22926 -1.452262,1.43921 -2.750492,0.25153 -0.817648,-0.74802 -0.876168,-1.70991 0.02195,-1.91604 z"
             style="fill:#4f4e4e;fill-opacity:1;stroke:none;stroke-width:0.33670691px;stroke-linecap:butt;stroke-linejoin:miter;stroke-opacity:1" />
        </g>
        <path
           style="fill:#ccdeee;fill-opacity:0.59047624;stroke:none;stroke-width:0.26458332px;stroke-linecap:butt;stroke-linejoin:miter;stroke-opacity:1"
           d="m -48.93555,281.09459 c 2.316244,5.96662 1.305728,6.72481 1.578562,8.94518 l -1.286235,1.15761 c 0.105892,-1.42125 -0.02114,-2.69516 -1.61364,-3.21558 l -0.330329,-6.91059 z"
           id="path1121"
           inkscape:connector-curvature="0"
           sodipodi:nodetypes="cccccc" />
        <path
           style="fill:#e6f3fd;fill-opacity:1;stroke:none;stroke-width:0.28007153px;stroke-linecap:butt;stroke-linejoin:miter;stroke-opacity:1"
           d="m -50.712043,281.064 c 0.907482,1.61389 1.540248,5.13092 2.326367,4.90505 l -1.411102,-4.9101 z"
           id="path1068"
           inkscape:connector-curvature="0"
           sodipodi:nodetypes="cccc" />
        <g
           id="g853"
           transform="translate(3.7061726,-13.390232)">
          <g
             transform="translate(4.4745496,1.3611918)"
             id="g1178">
            <ellipse
               style="fill:#4c4b4a;fill-opacity:1;stroke:none;stroke-width:0.304263;stroke-opacity:1"
               id="path1159-2"
               cx="-49.840885"
               cy="303.52939"
               rx="6.9783859"
               ry="3.1890471" />
            <ellipse
               style="fill:#edb873;fill-opacity:1;stroke:none;stroke-width:0.26821288;stroke-opacity:1"
               id="path1159"
               cx="-49.940105"
               cy="303.97839"
               rx="6.1515627"
               ry="2.811198" />
          </g>
          <path
             sodipodi:nodetypes="ccccccccc"
             inkscape:connector-curvature="0"
             id="path846"
             d="m -52.132617,305.22057 0.2846,-0.0127 c 0.316002,-1.96634 1.74103,-2.20268 3.501818,-2.75409 1.751386,-0.37832 3.475681,-0.68816 7.028387,0.27922 1.300997,0.49064 2.468477,1.30477 2.351044,2.33527 -0.08491,-0.76435 0.427671,-1.439 -2.227305,-2.58911 -2.944376,-0.96054 -5.955728,-0.68227 -7.32536,-0.30461 -0.44114,0.25439 -3.54508,0.65543 -3.613184,3.046 z"
             style="fill:#131313;fill-opacity:1;stroke:none;stroke-width:0.28356215px;stroke-linecap:butt;stroke-linejoin:miter;stroke-opacity:1" />
          <path
             sodipodi:nodetypes="ccccsscccccc"
             inkscape:connector-curvature="0"
             id="path846-3"
             d="m -52.315003,305.19849 0.182386,0.0221 c 0.354708,-2.20719 1.954283,-2.47248 3.930743,-3.09143 1.965908,-0.42466 3.383738,-0.53743 7.007801,0.35 1.062831,0.4751 1.335726,0.59599 1.999272,1.30438 0,0 0.749563,0.67755 0.338571,1.69214 -0.343687,0.84843 -1.175607,1.38729 -1.198608,1.58912 2.418232,-1.42021 2.265992,-3.33505 -0.714183,-4.62603 -2.775856,-1.09474 -5.511136,-1.03042 -7.197357,-0.65611 -0.107338,0.0736 -4.253231,0.92239 -4.382468,3.06493 -0.0022,0.12237 0.0085,0.23958 0.03384,0.35092 z"
             style="fill:#797979;fill-opacity:1;stroke:none;stroke-width:0.3182947px;stroke-linecap:butt;stroke-linejoin:miter;stroke-opacity:1" />
        </g>
        <g
           id="g906"
           transform="translate(0.40925651,-15.294499)">
          <g
             id="g891"
             transform="translate(-1.9817149,-0.061313)">
            <g
               id="g878">
              <path
                 sodipodi:nodetypes="cccc"
                 inkscape:connector-curvature="0"
                 id="path862"
                 d="m -35.905195,311.79324 3.390982,0.0351 c 0.411101,-1.01463 0.05283,-1.85572 -0.0603,-2.52086 z"
                 style="fill:#0c0c0c;fill-opacity:1;stroke:none;stroke-width:0.26458332px;stroke-linecap:butt;stroke-linejoin:miter;stroke-opacity:1" />
              <g
                 id="g869">
                <path
                   style="fill:#ea6f71;fill-opacity:1;stroke:none;stroke-width:0.30753306;stroke-opacity:1"
                   d="m -41.870312,306.72342 a 8.598958,3.538802 0 0 0 -8.598959,3.5388 8.598958,3.538802 0 0 0 0.880567,1.55443 h 15.431616 a 8.598958,3.538802 0 0 0 0.885734,-1.55443 8.598958,3.538802 0 0 0 -8.598958,-3.5388 z"
                   id="path849"
                   inkscape:connector-curvature="0" />
                <path
                   style="fill:#4f4f4f;fill-opacity:1;stroke:none;stroke-width:0.26458332px;stroke-linecap:butt;stroke-linejoin:miter;stroke-opacity:1"
                   d="m -50.375287,310.73611 c -0.06464,-0.44976 -0.04292,-0.80137 0.04677,-1.07576 1.822761,-1.90345 3.72919,-2.19078 6.314243,-2.52569 2.84068,-0.28191 9.781907,0.42628 10.82191,3.21266 0.112421,-0.65897 0.559324,-1.21398 -0.882824,-2.53447 -4.411659,-2.11077 -18.26318,-2.33972 -16.300099,2.92326 z"
                   id="path854"
                   inkscape:connector-curvature="0"
                   sodipodi:nodetypes="cccccc" />
                <path
                   style="fill:#0f0f0f;fill-opacity:1;stroke:none;stroke-width:0.26458332px;stroke-linecap:butt;stroke-linejoin:miter;stroke-opacity:1"
                   d="m -48.875613,311.81122 c -5.13058,-3.18384 2.869658,-5.24889 5.618578,-5.37288 1.354446,-0.05 4.362568,0.33267 6.330034,0.87726 1.112794,0.30802 2.112874,0.33425 2.851813,0.49725 -8.474511,-3.91168 -16.865296,-0.8471 -17.314529,1.31557 0.04955,2.11963 0.468203,2.29171 0.97419,2.70477 z"
                   id="path856"
                   inkscape:connector-curvature="0"
                   sodipodi:nodetypes="ccscccc" />
                <path
                   style="fill:#797979;fill-opacity:1;stroke:none;stroke-width:0.26458332px;stroke-linecap:butt;stroke-linejoin:miter;stroke-opacity:1"
                   d="m -34.870364,311.81665 c 2.669791,-1.87945 3.302372,-3.86722 -4.817532,-5.67113 2.818308,0.52353 6.069138,0.63454 7.113381,3.16197 0.117317,1.05803 -1.080223,2.3413 -1.582573,2.50916 z"
                   id="path858"
                   inkscape:connector-curvature="0"
                   sodipodi:nodetypes="ccccc" />
                <path
                   style="fill:#9f9e9e;fill-opacity:1;stroke:none;stroke-width:0.26458332px;stroke-linecap:butt;stroke-linejoin:miter;stroke-opacity:1"
                   d="m -34.157088,311.81665 c 0.476569,-0.31137 1.012067,-0.89732 1.321313,-1.40317 l 0.07016,0.27478 -0.789279,1.12839 z"
                   id="path860"
                   inkscape:connector-curvature="0"
                   sodipodi:nodetypes="ccccc" />
              </g>
            </g>
            <path
               style="fill:#a8a7a7;fill-opacity:1;stroke:none;stroke-width:0.26458332px;stroke-linecap:butt;stroke-linejoin:miter;stroke-opacity:1"
               d="m -47.036375,307.16409 -0.254724,0.59963 c 1.16959,-0.34643 2.558648,-0.54216 3.620308,-0.65125 l 0.474714,-0.68385 c -1.646263,0.14241 -2.899576,0.41668 -3.840298,0.73547 z"
               id="path880"
               inkscape:connector-curvature="0"
               sodipodi:nodetypes="ccccc" />
          </g>
          <path
             sodipodi:nodetypes="cccccc"
             inkscape:connector-curvature="0"
             id="path893"
             d="m -45.282358,307.32134 c -1.990245,0.0979 -5.005724,1.03422 -5.246901,2.83624 0.06109,0.69655 0.451245,1.15942 1.65778,1.59163 l 2.050521,10e-5 c -2.227738,-2.4257 -0.725577,-3.56328 1.5386,-4.42792 z"
             style="fill:#e58a8b;fill-opacity:1;stroke:none;stroke-width:0.26458332px;stroke-linecap:butt;stroke-linejoin:miter;stroke-opacity:1" />
        </g>
      </g>
      <g
         transform="matrix(1.0754506,0,0,1.03686,-23.851244,-0.05721975)"
         id="g954">
        <path
           style="fill:#000000;fill-opacity:1;stroke:none;stroke-width:0.26458332px;stroke-linecap:butt;stroke-linejoin:miter;stroke-opacity:1"
           d="m -33.397185,268.00076 c 4.916371,2.05407 7.957905,1.25639 10.874529,0.0935 l -0.79375,3.24115 c -2.375203,1.66634 -6.213407,1.83425 -9.458854,0.0992 z"
           id="path986"
           inkscape:connector-curvature="0"
           sodipodi:nodetypes="ccccc" />
        <path
           style="fill:#363636;fill-opacity:1;stroke:none;stroke-width:0.26458332px;stroke-linecap:butt;stroke-linejoin:miter;stroke-opacity:1"
           d="m -31.198892,268.84261 0.370138,3.39124 c 0.164927,0.0475 0.302557,0.0886 0.588433,0.15582 l -0.297112,-3.54706 z"
           id="path988"
           inkscape:connector-curvature="0"
           sodipodi:nodetypes="ccccc" />
        <path
           style="fill:#3a3a3a;fill-opacity:1;stroke:none;stroke-width:0.26458332px;stroke-linecap:butt;stroke-linejoin:miter;stroke-opacity:1"
           d="m -31.860351,268.84261 0.317947,3.14783 c 0.184472,0.0753 0.281428,0.10564 0.562979,0.19709 l -0.219467,-3.34492 z"
           id="path988-7"
           inkscape:connector-curvature="0"
           sodipodi:nodetypes="ccccc" />
        <path
           style="fill:#363636;fill-opacity:1;stroke:none;stroke-width:0.26458332px;stroke-linecap:butt;stroke-linejoin:miter;stroke-opacity:1"
           d="m -25.265476,268.81921 -0.335789,3.55016 c 0.09352,-0.0202 0.452811,-0.12656 0.668586,-0.20773 l 0.328662,-3.34243 z"
           id="path988-7-5"
           inkscape:connector-curvature="0"
           sodipodi:nodetypes="ccccc" />
        <g
           id="g984"
           transform="translate(1.33115,-6.40831)">
          <ellipse
             ry="1.6837981"
             rx="4.8643055"
             cy="274.05826"
             cx="-29.279379"
             id="path959-6"
             style="fill:#515151;fill-opacity:1;stroke:none;stroke-width:0.39976838;stroke-opacity:1" />
          <ellipse
             ry="1.2628485"
             rx="3.9990203"
             cy="274.45581"
             cx="-29.279373"
             id="path959"
             style="fill:#cbdbee;fill-opacity:1;stroke:none;stroke-width:0.30364588;stroke-opacity:1" />
          <path
             sodipodi:nodetypes="ccccc"
             inkscape:connector-curvature="0"
             id="path976"
             d="m -27.756178,273.28902 c 0.271429,0.0287 0.712071,0.12562 0.852474,0.14949 l 0.383713,-0.76765 c -0.207789,-0.0674 -0.673,-0.1336 -0.769993,-0.14874 z"
             style="fill:#8d8d8d;fill-opacity:1;stroke:none;stroke-width:0.17724453px;stroke-linecap:butt;stroke-linejoin:miter;stroke-opacity:1" />
          <path
             sodipodi:nodetypes="ccccccccc"
             inkscape:connector-curvature="0"
             id="path978"
             d="m -34.098592,273.82373 c 0.475881,1.27516 0.972724,1.23153 1.56855,1.42719 2.603593,0.51909 4.600154,0.24904 6.594875,-0.0234 0.8674,-0.42875 1.224757,-0.87942 1.485016,-1.37832 l 0.596345,0.65335 c -0.380535,0.82468 -1.279014,1.2922 -1.941045,1.63703 -2.165016,0.29304 -4.796593,0.51279 -7.015824,-0.0467 -0.942294,-0.33822 -1.500107,-0.68006 -1.91766,-1.68381 z"
             style="fill:#414141;fill-opacity:1;stroke:none;stroke-width:0.26458332px;stroke-linecap:butt;stroke-linejoin:miter;stroke-opacity:1" />
        </g>
      </g>
      <path
         sodipodi:nodetypes="cccc"
         inkscape:connector-curvature="0"
         id="path956"
         d="m -47.42602,290.86197 c 0.699603,-1.06587 2.190194,-1.20144 2.57142,-1.34359 -0.595257,0.36509 -0.993886,0.64573 -0.735873,1.11208 -0.974303,0.0753 -1.348277,0.14196 -1.835547,0.23151 z"
         style="fill:#d6b58a;fill-opacity:1;stroke:none;stroke-width:0.26458332px;stroke-linecap:butt;stroke-linejoin:miter;stroke-opacity:1" />
      <path
         sodipodi:nodetypes="cccccc"
         inkscape:connector-curvature="0"
         id="path958"
         d="m -45.688601,289.38381 1.036409,0.0854 c 1.385112,-0.31569 2.210256,-0.32044 3.026881,-0.32731 l 0.0613,-0.21839 c -0.63941,-0.1397 -1.273467,-0.13167 -2.054654,-0.0827 -1.096278,0.17939 -1.457052,0.33247 -2.069939,0.54301 z"
         style="fill:#8b8989;fill-opacity:1;stroke:none;stroke-width:0.26458332px;stroke-linecap:butt;stroke-linejoin:miter;stroke-opacity:1" />
    </g>
  </g>
</svg>
