<?xml version="1.0" encoding="UTF-8" standalone="no"?>
<svg
   xmlns:dc="http://purl.org/dc/elements/1.1/"
   xmlns:cc="http://creativecommons.org/ns#"
   xmlns:rdf="http://www.w3.org/1999/02/22-rdf-syntax-ns#"
   xmlns:svg="http://www.w3.org/2000/svg"
   xmlns="http://www.w3.org/2000/svg"
   xmlns:sodipodi="http://sodipodi.sourceforge.net/DTD/sodipodi-0.dtd"
   xmlns:inkscape="http://www.inkscape.org/namespaces/inkscape"
   width="64"
   height="64"
   version="1.1"
   id="svg16"
   sodipodi:docname="application-x-ruby.svg"
   inkscape:version="0.92.4 (5da689c313, 2019-01-14)">
  <metadata
     id="metadata22">
    <rdf:RDF>
      <cc:Work
         rdf:about="">
        <dc:format>image/svg+xml</dc:format>
        <dc:type
           rdf:resource="http://purl.org/dc/dcmitype/StillImage" />
        <dc:title></dc:title>
      </cc:Work>
    </rdf:RDF>
  </metadata>
  <defs
     id="defs20" />
  <sodipodi:namedview
     pagecolor="#ffffff"
     bordercolor="#666666"
     borderopacity="1"
     objecttolerance="10"
     gridtolerance="10"
     guidetolerance="10"
     inkscape:pageopacity="0"
     inkscape:pageshadow="2"
     inkscape:window-width="1280"
     inkscape:window-height="954"
     id="namedview18"
     showgrid="false"
     inkscape:zoom="8"
     inkscape:cx="18.186897"
     inkscape:cy="33.179649"
     inkscape:window-x="0"
     inkscape:window-y="0"
     inkscape:window-maximized="1"
     inkscape:current-layer="svg16"
     showguides="false" />
  <g
     id="g3881"
     transform="matrix(0.98944812,0,0,1.0256688,-0.06482725,-0.89375074)">
    <path
       inkscape:connector-curvature="0"
       id="path2"
       d="m 11.277667,2.5124625 c -1.6722183,0 -3.0184446,1.3462264 -3.0184446,3.0184444 V 59.862911 c 0,1.672218 1.3462263,3.018445 3.0184446,3.018445 h 42.258226 c 1.672218,0 3.018444,-1.346227 3.018444,-3.018445 V 20.62313 L 38.443669,2.5124625 Z"
       style="opacity:0.2;stroke-width:1.20737791" />
    <path
       inkscape:connector-curvature="0"
       id="path4"
       d="m 11.277667,1.3050847 c -1.6722183,0 -3.0184446,1.3462264 -3.0184446,3.0184446 V 58.655533 c 0,1.672219 1.3462263,3.018445 3.0184446,3.018445 h 42.258226 c 1.672218,0 3.018444,-1.346226 3.018444,-3.018445 V 19.415752 L 38.443669,1.3050847 Z"
       style="fill:#f2f2f2;fill-opacity:0.91372549;stroke-width:1.20737791" />
    <path
       inkscape:connector-curvature="0"
       id="path6"
       d="M 56.554337,20.62313 38.443669,2.5124625 V 17.604686 c 0,1.672218 1.346226,3.018444 3.018445,3.018444 z"
       style="opacity:0.2;stroke-width:1.20737791" />
    <path
       inkscape:connector-curvature="0"
       id="path8"
       d="M 56.554337,19.415752 38.443669,1.3050847 V 16.397308 c 0,1.672218 1.346226,3.018444 3.018445,3.018444 z"
       style="fill:#e2e2e2;fill-opacity:1;stroke-width:1.20737791" />
    <path
       inkscape:connector-curvature="0"
       id="path10"
       d="m 11.277667,1.3050847 c -1.6722183,0 -3.0184446,1.3462264 -3.0184446,3.0184446 v 1.2073776 c 0,-1.672218 1.3462263,-3.0184444 3.0184446,-3.0184444 H 38.443669 V 1.3050847 Z"
       style="opacity:0.2;fill:#ffffff;stroke-width:1.20737791" />
  </g>
  <g
     id="g4-5-6"
     style="fill:#990e16;fill-opacity:1;stroke:#979798;stroke-width:0.16622123;stroke-miterlimit:4;stroke-dasharray:none;stroke-opacity:1"
     transform="matrix(1.4830245,0,0,2.2354251,-76.883599,-80.408523)">
    <path
       d="m 85.834765,57.629166 c -13.379235,-0.02803 -28.446154,0.02451 -28.446154,0.02451 0,0 -0.0053,3.059975 -0.0096,3.808107 0,2.501762 0.05002,2.503137 2.259976,2.488257 l 27.541941,-0.185434 c 2.209961,-0.01489 2.198071,0.01351 2.198071,-2.488258 l 0.08191,-3.669449 z"
       id="path2-3-7"
       inkscape:connector-curvature="0"
       style="fill:#990e16;fill-opacity:1;stroke:#979798;stroke-width:0.16622123;stroke-linejoin:round;stroke-miterlimit:4;stroke-dasharray:none;stroke-opacity:1"
       sodipodi:nodetypes="cccssscc" />
  </g>
  <path
     style="fill:none;stroke:#bbbbbb;stroke-width:0.24743135;stroke-linecap:butt;stroke-linejoin:round;stroke-miterlimit:4;stroke-dasharray:none;stroke-opacity:0.94509804"
     d="m 37.843086,0.45075447 0.01107,15.80614753 c 0.01763,0.642376 0.602862,2.868219 0.09811,0.68494"
     id="path3854"
     inkscape:connector-curvature="0"
     sodipodi:nodetypes="ccc" />
  <text
     xml:space="preserve"
     style="font-style:normal;font-weight:normal;font-size:10.9369812px;line-height:1.25;font-family:sans-serif;letter-spacing:0px;word-spacing:0px;fill:#ffffff;fill-opacity:1;stroke:none;stroke-width:0.27342454"
     x="15.573822"
     y="59.343513"
     id="text4421-3"><tspan
       sodipodi:role="line"
       id="tspan4419-6"
       x="15.573822"
       y="59.343513"
       style="font-style:normal;font-variant:normal;font-weight:bold;font-stretch:normal;font-family:sans-serif;-inkscape-font-specification:'sans-serif Bold';fill:#ffffff;stroke-width:0.27342454">RUBY</tspan></text>
  <path
     inkscape:connector-curvature="0"
     style="clip-rule:evenodd;fill:#d91404;fill-rule:evenodd;stroke-width:0.19386901"
     d="m 24.691141,41.44499 c 5.324807,0.727009 10.555004,1.44103 15.88912,2.169009 -1.817329,-3.025521 -3.587939,-5.973687 -5.372696,-8.945893 z M 42.083129,24.698005 c -0.469355,0.704907 -0.939681,1.409233 -1.408453,2.114529 -1.609891,2.422006 -3.219585,4.84401 -4.827927,7.267179 -0.08957,0.134933 -0.205694,0.241949 -0.07948,0.44997 1.554055,2.566245 3.095894,5.140049 4.641612,7.711528 0.243891,0.406152 0.490491,0.810757 0.805916,1.200438 0.312519,-6.241227 0.624841,-12.482644 0.937163,-18.723869 z M 20.868238,32.69956 c 0.07271,0.06883 0.254163,0.108954 0.33869,0.06727 1.490658,-0.73263 2.990817,-1.448977 4.448905,-2.2419 0.475561,-0.258428 0.841198,-0.721776 1.250844,-1.097493 1.3565,-1.244058 2.71087,-2.490635 4.064657,-3.737407 0.08278,-0.07658 0.18088,-0.150637 0.230316,-0.247183 0.486225,-0.950346 0.964111,-1.905538 1.458865,-2.888261 -0.589944,-0.221785 -1.149256,-0.438725 -1.715547,-0.636084 -0.07678,-0.02675 -0.197747,0.02636 -0.280917,0.07271 -1.310748,0.732245 -2.646117,1.42552 -3.915184,2.224066 -0.63492,0.399564 -1.152163,0.988344 -1.714384,1.501129 -0.906144,0.827044 -1.811124,1.656028 -2.704085,2.497419 -0.236907,0.223338 -0.452877,0.478469 -0.637441,0.747171 -0.610687,0.889278 -1.20315,1.791351 -1.822756,2.719013 0.34625,0.358077 0.661093,0.700449 0.998037,1.019558 z m 5.448107,-1.215752 c -0.741549,3.132728 -1.478639,6.247816 -2.24035,9.465266 3.571648,-2.301419 7.060904,-4.549717 10.527087,-6.782895 -2.758368,-0.892767 -5.507818,-1.78282 -8.286737,-2.682371 z m 14.856379,-6.75556 c -3.017767,0.504254 -5.963413,0.996292 -8.947058,1.49473 1.016262,2.472023 2.012167,4.894417 3.036378,7.385634 1.981536,-2.977635 3.923906,-5.895557 5.91068,-8.880364 z M 26.44081,30.84307 c 2.717462,0.882104 5.380833,1.74676 8.121559,2.636619 -1.017812,-2.479585 -2.000728,-4.87251 -3.004,-7.316034 -1.708955,1.562389 -3.39232,3.101709 -5.117559,4.679415 z m -5.460321,3.683317 c -0.963723,2.303746 -1.894682,4.529168 -2.842508,6.794722 1.821593,-0.05392 3.587352,-0.106045 5.413792,-0.15994 -0.857482,-2.212435 -1.698098,-4.381442 -2.571284,-6.634782 z m 2.635261,5.059207 0.06708,-0.01473 c 0.650043,-2.702727 1.309391,-5.386844 1.973004,-8.19523 -1.480384,0.769465 -2.892525,1.50326 -4.343247,2.25741 0.740386,1.924344 1.52982,3.954346 2.303164,5.952554 z M 40.080462,24.28991 C 39.216,24.060951 38.351539,23.831216 37.48669,23.603808 36.2436,23.276944 34.999544,22.954153 33.757232,22.624382 c -0.15529,-0.0413 -0.26754,-0.06825 -0.358852,0.118841 -0.439114,0.899553 -0.891798,1.792319 -1.33789,2.688576 -0.01377,0.02773 -0.01086,0.06358 -0.02153,0.133187 2.692065,-0.4079 5.366105,-0.81328 8.03975,-1.218466 z m -5.015196,-2.046093 7.045782,1.949158 c -0.404021,-1.151387 -0.778772,-2.219024 -1.164182,-3.317099 l -5.871325,1.301832 z M 24.213061,41.963976 c -0.872605,-0.100613 -1.768474,-0.0081 -2.653486,0.0072 -0.727008,0.0122 -1.454018,0.03995 -2.181026,0.06265 -0.07484,0.0026 -0.149473,0.01745 -0.224113,0.0981 6.010521,0.55563 12.020849,1.111258 18.031174,1.667275 l 0.0122,-0.08027 c -1.926672,-0.263107 -3.853536,-0.526185 -5.780206,-0.789073 -2.400874,-0.32783 -4.797677,-0.688425 -7.20456,-0.965855 z m -5.956238,-2.716685 c 0.774506,-1.797165 1.545717,-3.595493 2.323326,-5.391302 0.07774,-0.180106 0.07173,-0.302437 -0.08046,-0.44745 -0.325312,-0.309609 -0.627553,-0.643258 -0.983109,-1.01316 -0.480601,2.372957 -0.949377,4.687171 -1.41854,7.001192 l 0.05254,0.02461 c 0.03587,-0.05758 0.07968,-0.112056 0.106241,-0.1739 z M 33.522068,21.769419 c 1.306096,-0.336944 2.631191,-0.600412 3.94853,-0.894318 0.0853,-0.01919 0.168665,-0.04731 0.252609,-0.07134 l -0.01299,-0.06436 c -1.85552,0.249509 -3.710845,0.499213 -5.65981,0.761519 0.531395,0.232061 0.940846,0.40538 1.471659,0.268507 z"
     id="path2-36" />
</svg>
