<?xml version="1.0" encoding="UTF-8" standalone="no"?>
<svg
   xmlns:dc="http://purl.org/dc/elements/1.1/"
   xmlns:cc="http://creativecommons.org/ns#"
   xmlns:rdf="http://www.w3.org/1999/02/22-rdf-syntax-ns#"
   xmlns:svg="http://www.w3.org/2000/svg"
   xmlns="http://www.w3.org/2000/svg"
   xmlns:sodipodi="http://sodipodi.sourceforge.net/DTD/sodipodi-0.dtd"
   xmlns:inkscape="http://www.inkscape.org/namespaces/inkscape"
   width="64"
   height="64"
   version="1.1"
   id="svg16"
   sodipodi:docname="application-x-shellscript.svg"
   inkscape:version="0.92.4 (5da689c313, 2019-01-14)">
  <metadata
     id="metadata22">
    <rdf:RDF>
      <cc:Work
         rdf:about="">
        <dc:format>image/svg+xml</dc:format>
        <dc:type
           rdf:resource="http://purl.org/dc/dcmitype/StillImage" />
        <dc:title></dc:title>
      </cc:Work>
    </rdf:RDF>
  </metadata>
  <defs
     id="defs20" />
  <sodipodi:namedview
     pagecolor="#ffffff"
     bordercolor="#666666"
     borderopacity="1"
     objecttolerance="10"
     gridtolerance="10"
     guidetolerance="10"
     inkscape:pageopacity="0"
     inkscape:pageshadow="2"
     inkscape:window-width="1280"
     inkscape:window-height="954"
     id="namedview18"
     showgrid="false"
     inkscape:zoom="8"
     inkscape:cx="43.448937"
     inkscape:cy="27.985813"
     inkscape:window-x="0"
     inkscape:window-y="0"
     inkscape:window-maximized="1"
     inkscape:current-layer="svg16"
     showguides="false" />
  <g
     id="g3881"
     transform="matrix(0.98944812,0,0,1.0256688,-0.06482725,-0.89375074)">
    <path
       inkscape:connector-curvature="0"
       id="path2"
       d="m 11.277667,2.5124625 c -1.6722183,0 -3.0184446,1.3462264 -3.0184446,3.0184444 V 59.862911 c 0,1.672218 1.3462263,3.018445 3.0184446,3.018445 h 42.258226 c 1.672218,0 3.018444,-1.346227 3.018444,-3.018445 V 20.62313 L 38.443669,2.5124625 Z"
       style="opacity:0.2;stroke-width:1.20737791" />
    <path
       inkscape:connector-curvature="0"
       id="path4"
       d="m 11.277667,1.3050847 c -1.6722183,0 -3.0184446,1.3462264 -3.0184446,3.0184446 V 58.655533 c 0,1.672219 1.3462263,3.018445 3.0184446,3.018445 h 42.258226 c 1.672218,0 3.018444,-1.346226 3.018444,-3.018445 V 19.415752 L 38.443669,1.3050847 Z"
       style="fill:#f2f2f2;fill-opacity:0.91372549;stroke-width:1.20737791" />
    <path
       inkscape:connector-curvature="0"
       id="path6"
       d="M 56.554337,20.62313 38.443669,2.5124625 V 17.604686 c 0,1.672218 1.346226,3.018444 3.018445,3.018444 z"
       style="opacity:0.2;stroke-width:1.20737791" />
    <path
       inkscape:connector-curvature="0"
       id="path8"
       d="M 56.554337,19.415752 38.443669,1.3050847 V 16.397308 c 0,1.672218 1.346226,3.018444 3.018445,3.018444 z"
       style="fill:#e2e2e2;fill-opacity:1;stroke-width:1.20737791" />
    <path
       inkscape:connector-curvature="0"
       id="path10"
       d="m 11.277667,1.3050847 c -1.6722183,0 -3.0184446,1.3462264 -3.0184446,3.0184446 v 1.2073776 c 0,-1.672218 1.3462263,-3.0184444 3.0184446,-3.0184444 H 38.443669 V 1.3050847 Z"
       style="opacity:0.2;fill:#ffffff;stroke-width:1.20737791" />
  </g>
  <g
     id="g4-5-6"
     style="fill:#616161;fill-opacity:1;stroke:#979798;stroke-width:0.16622123;stroke-miterlimit:4;stroke-dasharray:none;stroke-opacity:1"
     transform="matrix(1.4830245,0,0,2.2351456,-76.883599,-80.390652)">
    <path
       d="m 85.834765,57.629166 c -13.379235,-0.02803 -28.446154,0.02451 -28.446154,0.02451 0,0 -0.0053,3.059975 -0.0096,3.808107 0,2.501762 0.05002,2.503137 2.259976,2.488257 l 27.541941,-0.185434 c 2.209961,-0.01489 2.198071,0.01351 2.198071,-2.488258 l 0.08191,-3.669449 z"
       id="path2-3-7"
       inkscape:connector-curvature="0"
       style="fill:#616161;fill-opacity:1;stroke:#979798;stroke-width:0.16622123;stroke-linejoin:round;stroke-miterlimit:4;stroke-dasharray:none;stroke-opacity:1"
       sodipodi:nodetypes="cccssscc" />
  </g>
  <path
     style="fill:none;stroke:#bbbbbb;stroke-width:0.24743135;stroke-linecap:butt;stroke-linejoin:round;stroke-miterlimit:4;stroke-dasharray:none;stroke-opacity:0.94509804"
     d="m 37.843086,0.45075447 0.01107,15.80614753 c 0.01763,0.642376 0.602862,2.868219 0.09811,0.68494"
     id="path3854"
     inkscape:connector-curvature="0"
     sodipodi:nodetypes="ccc" />
  <text
     xml:space="preserve"
     style="font-style:normal;font-weight:normal;font-size:9.15379524px;line-height:1.25;font-family:sans-serif;letter-spacing:0px;word-spacing:0px;fill:#ffffff;fill-opacity:1;stroke:none;stroke-width:0.22884488"
     x="18.485664"
     y="59.955284"
     id="text4421-3"
     transform="scale(1.0208887,0.97953871)"><tspan
       sodipodi:role="line"
       id="tspan4419-6"
       x="18.485664"
       y="59.955284"
       style="font-style:normal;font-variant:normal;font-weight:bold;font-stretch:normal;font-family:sans-serif;-inkscape-font-specification:'sans-serif Bold';fill:#ffffff;stroke-width:0.22884488">Shell</tspan></text>
  <g
     style="fill:#00fbff"
     id="g869"
     transform="translate(18.311111,-13.25372)">
    <path
       inkscape:connector-curvature="0"
       style="fill:#3f3f3f;fill-opacity:1;fill-rule:nonzero;stroke:none"
       d="m 18.981947,46.484505 h 3.304687 c 0.730469,0 1.324219,0.59375 1.324219,1.324219 0,0.730469 -0.59375,1.324219 -1.324219,1.324219 h -3.304687 c -0.730469,0 -1.324219,-0.59375 -1.324219,-1.324219 0,-0.730469 0.59375,-1.324219 1.324219,-1.324219 z m 0,0"
       id="path6-7" />
    <path
       inkscape:connector-curvature="0"
       style="fill:#3f3f3f;fill-opacity:1;fill-rule:nonzero;stroke:none"
       d="m 9.0600718,29.949348 c -0.367188,0 -0.664063,0.296875 -0.664063,0.660156 v 0.75 c -1.039062,0.160158 -2.007812,0.539063 -2.804687,1.179688 -1.128906,0.910156 -1.824219,2.367187 -1.824219,4.023437 0,1.765626 1.039063,3.117189 2.183594,3.847657 1.144531,0.726563 2.402343,1.058594 3.351562,1.378907 1.0351572,0.34375 2.0937502,0.671875 2.7656252,1.101562 0.675782,0.425781 0.960938,0.730469 0.960938,1.609375 0,0.992188 -0.304688,1.527344 -0.828125,1.945313 -0.523438,0.417969 -1.378907,0.703125 -2.4804692,0.703125 -1.101562,0 -2.003906,-0.289063 -2.550781,-0.671875 -0.542969,-0.382813 -0.757813,-0.761719 -0.757813,-1.3125 0.0078,-0.476563 -0.242187,-0.921875 -0.65625,-1.164063 -0.410156,-0.238281 -0.921875,-0.238281 -1.332031,0 -0.414063,0.242188 -0.664063,0.6875 -0.65625,1.164063 0,1.433593 0.78125,2.703125 1.886719,3.480469 0.78125,0.546874 1.71875,0.894531 2.742187,1.050781 v 0.757812 c 0,0.367188 0.296875,0.664063 0.664063,0.664063 h 1.3203122 c 0.367188,0 0.664063,-0.296875 0.664063,-0.664063 v -0.761719 c 1.042969,-0.164062 2.007812,-0.539062 2.808593,-1.179687 1.128907,-0.902344 1.820313,-2.355469 1.820313,-4.011719 0,-1.761718 -1.039063,-3.113281 -2.183594,-3.84375 -1.144531,-0.726562 -2.402343,-1.0625 -3.351562,-1.378906 -1.0351572,-0.34375 -2.0937502,-0.671875 -2.7656252,-1.101562 -0.675782,-0.425783 -0.960938,-0.730469 -0.960938,-1.613283 0,-0.988281 0.3125,-1.539062 0.839844,-1.960937 0.527344,-0.425781 1.371094,-0.703125 2.445312,-0.683594 0.0078,0 0.01563,0 0.02344,0 1.1015622,0 2.0039062,0.289063 2.5507812,0.671875 0.542969,0.378906 0.757813,0.761719 0.757813,1.3125 -0.0078,0.476562 0.242187,0.917969 0.65625,1.160156 0.410156,0.238282 0.917968,0.238282 1.332031,0 0.410156,-0.242187 0.660156,-0.683594 0.65625,-1.160156 0,-1.433594 -0.78125,-2.707031 -1.886719,-3.480469 -0.78125,-0.546875 -1.71875,-0.894531 -2.742187,-1.050781 v -0.761719 c 0,-0.363281 -0.296875,-0.660156 -0.664063,-0.660156 z m 0,0"
       id="path8-5" />
  </g>
</svg>
