<?xml version="1.0" encoding="UTF-8" standalone="no"?>
<svg
   xmlns:dc="http://purl.org/dc/elements/1.1/"
   xmlns:cc="http://creativecommons.org/ns#"
   xmlns:rdf="http://www.w3.org/1999/02/22-rdf-syntax-ns#"
   xmlns:svg="http://www.w3.org/2000/svg"
   xmlns="http://www.w3.org/2000/svg"
   xmlns:sodipodi="http://sodipodi.sourceforge.net/DTD/sodipodi-0.dtd"
   xmlns:inkscape="http://www.inkscape.org/namespaces/inkscape"
   width="64"
   height="64"
   version="1"
   id="svg20"
   sodipodi:docname="application-gvdesign.svg"
   inkscape:version="0.92.4 (5da689c313, 2019-01-14)">
  <metadata
     id="metadata26">
    <rdf:RDF>
      <cc:Work
         rdf:about="">
        <dc:format>image/svg+xml</dc:format>
        <dc:type
           rdf:resource="http://purl.org/dc/dcmitype/StillImage" />
        <dc:title></dc:title>
      </cc:Work>
    </rdf:RDF>
  </metadata>
  <defs
     id="defs24" />
  <sodipodi:namedview
     pagecolor="#ffffff"
     bordercolor="#666666"
     borderopacity="1"
     objecttolerance="10"
     gridtolerance="10"
     guidetolerance="10"
     inkscape:pageopacity="0"
     inkscape:pageshadow="2"
     inkscape:window-width="1280"
     inkscape:window-height="954"
     id="namedview22"
     showgrid="false"
     inkscape:zoom="5.2149125"
     inkscape:cx="9.9434377"
     inkscape:cy="20.394345"
     inkscape:window-x="0"
     inkscape:window-y="0"
     inkscape:window-maximized="1"
     inkscape:current-layer="svg20" />
  <path
     style="opacity:0.2;stroke-width:1.06557453"
     d="m 11.021501,2.6967 c -1.660298,0 -2.996928,1.3306895 -2.996928,2.9836087 V 59.385266 c 0,1.652919 1.33663,2.983608 2.996928,2.983608 h 41.956998 c 1.660298,0 2.996928,-1.330689 2.996928,-2.983608 V 20.598352 L 39.492321,19.106548 37.993857,2.6967 Z"
     id="path2"
     inkscape:connector-curvature="0" />
  <path
     style="fill:#c63166;stroke-width:1.06557453"
     d="M 27.37876,1.6311255 C 24.921934,3.9244633 14.497913,14.44992 8.024573,21.050804 v 1.290761 c 1.03629,-0.932508 2.545777,-2.274006 3.070095,-2.709723 0.308433,-0.256315 1.506923,-1.305689 2.663286,-2.330945 1.156364,-1.025252 2.651187,-2.336293 3.321791,-2.91368 0.670605,-0.577385 2.061393,-1.836628 3.090583,-2.797133 1.985077,-1.8525991 8.116512,-7.2661128 8.797622,-7.7678709 0.222507,-0.1639141 0.429372,-0.2747583 0.459491,-0.2447491 0.06658,0.066317 -0.319752,0.7115489 -1.682846,2.8058743 -0.57196,0.8787892 -2.805125,4.3250747 -4.963663,7.6571517 -2.15854,3.332076 -4.83736,7.465871 -5.952882,9.186834 -1.115521,1.720963 -3.580894,5.526203 -5.47876,8.4555 -1.146705,1.769905 -2.180663,3.363615 -3.324717,5.128077 v 21.50879 c 0,1.652919 1.33663,2.983609 2.996928,2.983609 H 30.782498 C 33.605892,50.620452 36.526067,33.367148 41.344914,18.209966 L 39.492321,18.040973 37.86066,1.6311255 Z"
     id="path4"
     inkscape:connector-curvature="0" />
  <path
     style="fill:#b8da6c;stroke-width:1.06557453"
     d="m 11.021501,1.6311255 c -1.660298,0 -2.996928,1.3306894 -2.996928,2.9836087 V 21.047891 C 14.495699,14.450025 24.923479,3.9223038 27.37876,1.6311255 Z m 18.40594,1.9463385 c -0.03012,-0.030009 -0.236984,0.080834 -0.459491,0.2447491 -0.681112,0.5017581 -6.812545,5.9152729 -8.797622,7.7678709 -1.02919,0.960505 -2.419978,2.219748 -3.090583,2.797133 -0.670604,0.577387 -2.165427,1.888428 -3.321791,2.91368 -1.156363,1.025256 -2.354853,2.07463 -2.663286,2.330945 -0.524318,0.435717 -2.033805,1.777215 -3.070095,2.709723 v 14.469336 c 1.144054,-1.764462 2.178012,-3.358171 3.324717,-5.128077 1.897866,-2.929297 4.363239,-6.734536 5.47876,-8.4555 1.115522,-1.720963 3.794342,-5.854758 5.952882,-9.186834 2.158538,-3.332077 4.391703,-6.7783625 4.963663,-7.6571517 1.363094,-2.0943254 1.749423,-2.7395577 1.682846,-2.8058743 z"
     id="path6"
     inkscape:connector-curvature="0" />
  <path
     style="fill:#778b3c;stroke-width:1.06557453"
     d="M 55.975427,40.438435 35.365692,61.3033 h 17.612807 c 1.660298,0 2.996928,-1.330689 2.996928,-2.983609 z"
     id="path8"
     inkscape:connector-curvature="0" />
  <path
     style="fill:#eddf36;stroke-width:1.06557453"
     d="m 39.492321,18.029319 c -5.207646,13.635551 -8.7296,27.840269 -9.374181,39.264758 -0.0785,1.391416 -0.184131,3.100816 -0.234135,3.796525 l -0.01463,0.212699 h 5.496321 L 55.975427,40.438435 V 19.745892 L 39.492321,18.040973 Z"
     id="path10"
     inkscape:connector-curvature="0" />
  <path
     style="opacity:0.1;stroke-width:1.06557453"
     d="m 37.86066,2.6967 v 15.095639 c 0,1.667465 1.351708,3.019128 3.019128,3.019128 h 15.095639 z"
     id="path12"
     inkscape:connector-curvature="0" />
  <path
     style="fill:#faf5bc;stroke-width:1.06557453"
     d="M 37.86066,1.6311255 V 16.726765 c 0,1.667464 1.351708,3.019127 3.019128,3.019127 h 15.095639 z"
     id="path14"
     inkscape:connector-curvature="0" />
  <path
     style="opacity:0.2;fill:#ffffff;stroke-width:1.06557453"
     d="m 11.021501,1.6311255 c -1.660298,0 -2.996928,1.331522 -2.996928,2.9844411 V 5.6811412 C 8.024573,4.0282219 9.361203,2.6967 11.021501,2.6967 H 37.86066 V 1.6311254 Z"
     id="path16"
     inkscape:connector-curvature="0" />
  <path
     style="opacity:0.2;stroke-width:1.06557453"
     d="M 26.287105,2.6967 C 22.863829,6.0102714 13.934617,15.022928 8.024573,21.048723 v 1.065575 C 14.495699,15.516432 24.924454,4.9878784 27.379735,2.6967 Z m 3.140532,1.9459223 c -0.03012,-0.030009 -0.237439,0.081667 -0.459946,0.2455816 -0.05261,0.038754 -0.490341,0.4289394 -0.603548,0.5223813 -0.213738,0.3342282 -0.313728,0.5010459 -0.620198,0.9719205 -0.57196,0.8787896 -2.805125,4.3267393 -4.963663,7.6588173 -2.15854,3.332075 -4.83671,7.465455 -5.952232,9.186417 -1.115521,1.720965 -3.581934,5.526621 -5.4798,8.455917 -1.146705,1.769907 -2.179623,3.363615 -3.323677,5.128078 v 1.065574 c 1.144054,-1.764462 2.176972,-3.358172 3.323677,-5.128077 1.897866,-2.929297 4.364279,-6.734952 5.4798,-8.455917 1.115522,-1.720963 3.793692,-5.854342 5.952232,-9.186419 2.158538,-3.332077 4.391703,-6.7800261 4.963663,-7.6588157 1.363094,-2.0943254 1.750268,-2.7391413 1.683692,-2.805458 z M 55.975427,40.439267 35.365301,61.3033 h -5.429852 c -0.016,0.243642 -0.04079,0.69692 -0.05203,0.853293 l -0.01457,0.212282 h 5.49645 L 55.975427,41.504841 Z"
     id="path18"
     inkscape:connector-curvature="0" />
</svg>
