<?xml version="1.0" encoding="UTF-8" standalone="no"?>
<svg
   xmlns:dc="http://purl.org/dc/elements/1.1/"
   xmlns:cc="http://creativecommons.org/ns#"
   xmlns:rdf="http://www.w3.org/1999/02/22-rdf-syntax-ns#"
   xmlns:svg="http://www.w3.org/2000/svg"
   xmlns="http://www.w3.org/2000/svg"
   xmlns:sodipodi="http://sodipodi.sourceforge.net/DTD/sodipodi-0.dtd"
   xmlns:inkscape="http://www.inkscape.org/namespaces/inkscape"
   height="64"
   version="1.1"
   viewBox="0 0 64 64"
   width="64"
   id="svg6"
   sodipodi:docname="application-x-cd-image.svg"
   inkscape:version="0.92.4 (5da689c313, 2019-01-14)"
   style="fill:#00fbff">
  <metadata
     id="metadata12">
    <rdf:RDF>
      <cc:Work
         rdf:about="">
        <dc:format>image/svg+xml</dc:format>
        <dc:type
           rdf:resource="http://purl.org/dc/dcmitype/StillImage" />
        <dc:title></dc:title>
      </cc:Work>
    </rdf:RDF>
  </metadata>
  <defs
     id="defs10" />
  <sodipodi:namedview
     pagecolor="#ffffff"
     bordercolor="#666666"
     borderopacity="1"
     objecttolerance="10"
     gridtolerance="10"
     guidetolerance="10"
     inkscape:pageopacity="0"
     inkscape:pageshadow="2"
     inkscape:window-width="1280"
     inkscape:window-height="954"
     id="namedview8"
     showgrid="false"
     inkscape:zoom="10.025391"
     inkscape:cx="24.888093"
     inkscape:cy="29.968591"
     inkscape:window-x="0"
     inkscape:window-y="0"
     inkscape:window-maximized="1"
     inkscape:current-layer="svg6" />
  <g
     transform="matrix(1.0205625,0,0,1.0205625,-0.40285938,-0.91314062)"
     id="surface1">
    <path
       inkscape:connector-curvature="0"
       style="fill:#dedede;fill-opacity:1;fill-rule:nonzero;stroke:none"
       d="M 31.75,3.144531 C 15.625,3.144531 2.644531,16.125 2.644531,32.25 2.644531,48.375 15.625,61.355469 31.75,61.355469 47.875,61.355469 60.855469,48.375 60.855469,32.25 60.855469,16.125 47.875,3.144531 31.75,3.144531 Z m 0,21.167969 c 4.398438,0 7.9375,3.539062 7.9375,7.9375 0,4.398438 -3.539062,7.9375 -7.9375,7.9375 -4.398438,0 -7.9375,-3.539062 -7.9375,-7.9375 0,-4.398438 3.539062,-7.9375 7.9375,-7.9375 z m 0,0"
       id="path2-3" />
    <path
       inkscape:connector-curvature="0"
       style="fill:#f5f5f5;fill-opacity:1;fill-rule:nonzero;stroke:none"
       d="m 31.75,4.46875 c -15.390625,0 -27.78125,12.390625 -27.78125,27.78125 0,15.390625 12.390625,27.78125 27.78125,27.78125 15.390625,0 27.78125,-12.390625 27.78125,-27.78125 C 59.53125,16.859375 47.140625,4.46875 31.75,4.46875 Z m 0,19.84375 c 4.398438,0 7.9375,3.539062 7.9375,7.9375 0,4.398438 -3.539062,7.9375 -7.9375,7.9375 -4.398438,0 -7.9375,-3.539062 -7.9375,-7.9375 0,-4.398438 3.539062,-7.9375 7.9375,-7.9375 z m 0,0"
       id="path4" />
    <path
       inkscape:connector-curvature="0"
       style="fill:#bdbdbd;fill-opacity:1;fill-rule:nonzero;stroke:none"
       d="m 31.75,19.019531 c -7.328125,0 -13.230469,5.902344 -13.230469,13.230469 0,7.328125 5.902344,13.230469 13.230469,13.230469 7.328125,0 13.230469,-5.902344 13.230469,-13.230469 0,-7.328125 -5.902344,-13.230469 -13.230469,-13.230469 z m 0,9.261719 c 2.199219,0 3.96875,1.769531 3.96875,3.96875 0,2.199219 -1.769531,3.96875 -3.96875,3.96875 -2.199219,0 -3.96875,-1.769531 -3.96875,-3.96875 0,-2.199219 1.769531,-3.96875 3.96875,-3.96875 z m 0,0"
       id="path6" />
    <path
       inkscape:connector-curvature="0"
       style="fill:#ffa623;fill-opacity:1;fill-rule:nonzero;stroke:none"
       d="M 31.75,3.144531 C 15.625,3.144531 2.644531,16.125 2.644531,32.25 H 3.96875 C 3.96875,16.859375 16.359375,4.46875 31.75,4.46875 Z m 0,0"
       id="path8" />
    <path
       inkscape:connector-curvature="0"
       style="fill:#ff6e42;fill-opacity:1;fill-rule:nonzero;stroke:none"
       d="m 59.53125,32.25 c 0,15.390625 -12.390625,27.78125 -27.78125,27.78125 v 1.324219 C 47.875,61.355469 60.855469,48.375 60.855469,32.25 Z m 0,0"
       id="path10" />
  </g>
</svg>
