<?xml version="1.0" encoding="UTF-8" standalone="no"?>
<svg
   xmlns:dc="http://purl.org/dc/elements/1.1/"
   xmlns:cc="http://creativecommons.org/ns#"
   xmlns:rdf="http://www.w3.org/1999/02/22-rdf-syntax-ns#"
   xmlns:svg="http://www.w3.org/2000/svg"
   xmlns="http://www.w3.org/2000/svg"
   xmlns:sodipodi="http://sodipodi.sourceforge.net/DTD/sodipodi-0.dtd"
   xmlns:inkscape="http://www.inkscape.org/namespaces/inkscape"
   width="64"
   height="64"
   version="1.1"
   id="svg18"
   sodipodi:docname="application-x-codeblocks.svg"
   inkscape:version="0.92.4 (5da689c313, 2019-01-14)">
  <metadata
     id="metadata24">
    <rdf:RDF>
      <cc:Work
         rdf:about="">
        <dc:format>image/svg+xml</dc:format>
        <dc:type
           rdf:resource="http://purl.org/dc/dcmitype/StillImage" />
      </cc:Work>
    </rdf:RDF>
  </metadata>
  <defs
     id="defs22" />
  <sodipodi:namedview
     pagecolor="#ffffff"
     bordercolor="#666666"
     borderopacity="1"
     objecttolerance="10"
     gridtolerance="10"
     guidetolerance="10"
     inkscape:pageopacity="0"
     inkscape:pageshadow="2"
     inkscape:window-width="1280"
     inkscape:window-height="954"
     id="namedview20"
     showgrid="false"
     inkscape:zoom="3.6875"
     inkscape:cx="27.254237"
     inkscape:cy="32"
     inkscape:window-x="0"
     inkscape:window-y="0"
     inkscape:window-maximized="1"
     inkscape:current-layer="svg18" />
  <g
     id="g3872"
     transform="matrix(1.1701562,0,0,1.1701562,-5.4449984,-6.0300765)">
    <path
       id="path2"
       d="M 14.5,8 C 13.115,8 12,9.115 12,10.5 v 45 c 0,1.385 1.115,2.5 2.5,2.5 h 35 C 50.885,58 52,56.885 52,55.5 V 23 L 37,8 Z"
       style="opacity:0.2"
       inkscape:connector-curvature="0" />
    <path
       id="path4"
       d="M 14.5,7 C 13.115,7 12,8.115 12,9.5 V 32 H 32 V 7 Z"
       style="fill:#e44545"
       inkscape:connector-curvature="0" />
    <path
       id="path6"
       d="M 32,7 V 32 H 52 V 22 L 37,7 Z"
       style="fill:#38ac52"
       inkscape:connector-curvature="0" />
    <path
       id="path8"
       d="m 12,32 v 22.5 c 0,1.385 1.115,2.5 2.5,2.5 H 32 V 32 Z"
       style="fill:#f2ae37"
       inkscape:connector-curvature="0" />
    <path
       id="path10"
       d="M 32,32 V 57 H 49.5 C 50.885,57 52,55.885 52,54.5 V 32 Z"
       style="fill:#3776f2"
       inkscape:connector-curvature="0" />
    <path
       id="path12"
       d="M 52,23 37,8 v 12.5 c 0,1.385 1.115,2.5 2.5,2.5 z"
       style="opacity:0.2"
       inkscape:connector-curvature="0" />
    <path
       id="path14"
       d="M 52,22 37,7 v 12.5 c 0,1.385 1.115,2.5 2.5,2.5 z"
       style="fill:#7ed591"
       inkscape:connector-curvature="0" />
    <path
       id="path16"
       d="M 14.5,7 C 13.115,7 12,8.115 12,9.5 v 1 C 12,9.115 13.115,8 14.5,8 H 37 V 7 Z"
       style="opacity:0.1;fill:#ffffff"
       inkscape:connector-curvature="0" />
  </g>
</svg>
