<?xml version="1.0" encoding="UTF-8" standalone="no"?>
<svg
   xmlns:dc="http://purl.org/dc/elements/1.1/"
   xmlns:cc="http://creativecommons.org/ns#"
   xmlns:rdf="http://www.w3.org/1999/02/22-rdf-syntax-ns#"
   xmlns:svg="http://www.w3.org/2000/svg"
   xmlns="http://www.w3.org/2000/svg"
   xmlns:sodipodi="http://sodipodi.sourceforge.net/DTD/sodipodi-0.dtd"
   xmlns:inkscape="http://www.inkscape.org/namespaces/inkscape"
   height="64"
   version="1.1"
   viewBox="0 0 64 64"
   width="64"
   id="svg10"
   sodipodi:docname="application-x-deb.svg"
   inkscape:version="0.92.4 (5da689c313, 2019-01-14)"
   style="fill:#00fbff">
  <metadata
     id="metadata16">
    <rdf:RDF>
      <cc:Work
         rdf:about="">
        <dc:format>image/svg+xml</dc:format>
        <dc:type
           rdf:resource="http://purl.org/dc/dcmitype/StillImage" />
        <dc:title />
      </cc:Work>
    </rdf:RDF>
  </metadata>
  <defs
     id="defs14" />
  <sodipodi:namedview
     pagecolor="#ffffff"
     bordercolor="#666666"
     borderopacity="1"
     objecttolerance="10"
     gridtolerance="10"
     guidetolerance="10"
     inkscape:pageopacity="0"
     inkscape:pageshadow="2"
     inkscape:window-width="1280"
     inkscape:window-height="954"
     id="namedview12"
     showgrid="false"
     inkscape:zoom="7.2274793"
     inkscape:cx="5.7502775"
     inkscape:cy="44.478084"
     inkscape:window-x="0"
     inkscape:window-y="0"
     inkscape:window-maximized="1"
     inkscape:current-layer="svg10" />
  <path
     d="M 59.990574,9.807355 55.453778,4.304234 C 54.536591,3.223264 53.17719,2.518996 51.654004,2.518996 H 12.345997 c -1.523185,0 -2.8825869,0.704268 -3.783395,1.785238 L 4.0258022,9.807355 c -0.9499435,1.146484 -1.5068064,2.587777 -1.5068064,4.176476 v 40.94584 c 0,3.61961 2.931722,6.551333 6.5513345,6.551333 H 54.929671 c 3.61961,0 6.551333,-2.931723 6.551333,-6.551333 v -40.94584 c 0,-1.588699 -0.556859,-3.029992 -1.49043,-4.176476 z"
     id="path2"
     style="fill:#ffffff;fill-opacity:1;stroke-width:1.63783371;stroke:none"
     inkscape:connector-curvature="0" />
  <path
     d="m 31.62891,-31.679171 3.878234,-4.758569 h 57.102828 l 4.449262,4.758569 z"
     id="path4"
     inkscape:connector-curvature="0"
     style="fill:#ffffff;stroke-width:2.37928462" />
  <path
     inkscape:connector-curvature="0"
     d="m 410.15859,-27.680754 h 16.08104 v 10.72069 h -16.08104 z m -16.08105,10.72069 h 16.08105 v 10.7207 h -16.08105 z m 16.08105,10.7207 h 16.08104 v 10.72069 h -16.08104 z m -16.08105,10.72069 h 16.08105 v 10.720702 h -16.08105 z m 16.08105,10.720702 h 16.08104 v 10.7207 h -16.08104 z m -16.08105,10.7207 h 16.08105 V 36.64342 h -16.08105 z m 16.08105,10.720692 v 10.7207 h -16.08105 v 37.52242 c 0,2.96059 2.39976,5.36035 5.36035,5.36035 h 21.44139 c 2.96059,0 5.36035,-2.39976 5.36035,-5.36035 V 36.64342 Z m 10.72069,42.88277 H 399.43789 V 68.80551 h 21.44139 z"
     id="path65-3"
     sodipodi:nodetypes="cccccccccccccccccccccccccccccccccssssccccccc"
     style="fill:#00fbff;stroke-width:0.33502173" />
  <path
     inkscape:connector-curvature="0"
     d="m 12.192964,2.2596957 c -1.535044,0 -2.9059419,0.710204 -3.8137649,1.800683 L 3.8078492,9.6108708 C 2.850513,10.767436 2.289445,12.222697 2.289445,13.825369 v 41.305979 c 0,3.651457 2.9545476,6.608956 6.6023421,6.608956 H 55.108209 c 3.647799,0 6.602346,-2.9575 6.602346,-6.608957 V 13.825369 c 0,-1.602672 -0.56147,-3.057933 -1.502299,-4.2144982 L 55.63691,4.0603787 c -0.924338,-1.090479 -2.294833,-1.800683 -3.829878,-1.800683 z m -0.196653,3.304478 h 39.614074 l 3.085176,3.304479 H 9.3044401 Z M 34.118026,18.782089 c -0.431585,0.09821 -1.024535,0.03156 -1.431349,0.180712 l -0.245014,-0.03549 c 0.552818,-0.07139 1.113849,-0.09796 1.676363,-0.145214 z m -2.45653,0.25816 c -0.288623,0.161556 -0.577307,0.287557 -0.84786,0.4776 1.097606,-0.262109 1.044694,0.10941 2.166397,-0.03873 -0.393437,0.05731 -0.869392,0.211405 -0.793058,0.27107 1.253971,0.145463 1.444631,-0.386791 2.604837,0 l -0.07407,-0.342067 c 1.611565,0.582533 1.949706,0.48044 3.700911,1.410214 0.61544,0.02983 0.676275,-0.378412 1.605463,0 0.16341,0.287243 -0.038,0.340008 1.10254,1.01974 0.127262,-0.05061 -0.225535,-0.372191 -0.50614,-0.629269 2.293315,1.227404 4.784859,3.841853 5.54493,6.641226 -0.711514,-1.313211 -0.07149,0.670857 -0.315921,0.567956 0.317096,0.85637 0.577526,1.742164 0.738242,2.655847 -0.21061,-0.74945 -0.671541,-2.55981 -1.476497,-3.727219 -0.06568,0.753471 -1.037176,-0.518964 -0.506132,1.139141 0.404816,0.58723 0.08137,-0.595175 0.580275,0.448559 0.0083,0.496053 0.199659,0.989553 0.309488,1.636102 -0.170768,-0.02815 -0.38058,-0.717055 -0.506138,-0.526007 0.173111,0.813134 0.455672,1.238157 0.564169,1.300495 -0.05559,0.136078 -0.199803,-0.127074 -0.209539,0.425966 0.06638,1.273327 0.35663,0.736407 0.493222,0.797078 -0.138645,0.626439 -0.698885,1.364944 -0.422302,2.442862 -0.07938,-0.32646 -0.233518,-0.655518 -0.3514,-0.964883 -0.109109,0.920387 0.202146,1.098285 -0.222436,2.213744 0.306103,-1.005522 0.275403,-1.911821 -0.0132,-1.474754 0.127593,1.42918 -1.132097,2.526707 -0.996157,3.430333 l -0.364291,-0.503419 c -0.99012,1.436892 -0.02192,0.789488 -0.696331,1.878133 0.247111,-0.427683 -0.131556,-0.177216 0.190192,-0.661543 -0.213613,0.01239 -0.951314,0.911693 -1.628013,1.439258 -2.660291,2.134721 -5.836099,2.414639 -8.910599,1.264994 -0.119497,0.09821 0.549419,0.621134 1.041294,0.874524 1.171276,0.433376 2.494168,0.451609 3.536513,0.413061 -2.252784,0.943178 -6.555455,-0.959783 -7.962794,-3.481965 0.318435,0.06939 1.411317,1.775539 2.227647,2.05239 -0.482503,-0.387126 -0.856591,-0.880839 -1.202469,-1.387621 0.651937,0.750118 1.445565,1.362515 2.311467,1.768411 -0.05559,-0.210825 0.239317,-0.252378 -0.170871,-0.529232 -2.60604,-1.999313 -4.148613,-3.697991 -3.613874,-7.631926 0.397445,-0.300317 0.50315,-1.942258 1.415247,-2.517082 0.555829,-1.229418 2.223623,-2.363077 4.003955,-2.391231 1.817509,-0.100224 3.349552,0.971184 4.12003,1.981398 -1.402649,-1.308518 -3.699638,-1.706093 -5.657781,-0.735765 -2.001998,0.901283 -3.18736,3.107503 -3.014248,5.305237 0.07431,-0.109607 0.14145,-0.04186 0.177309,-0.31302 -0.06121,4.271454 4.595471,7.401236 7.9499,5.82156 l 0.0419,0.09036 c 1.360113,-0.371371 1.183573,-0.679455 2.072905,-1.290813 -0.06933,0.143449 -0.599445,0.50922 -0.283703,0.516327 0.43262,-0.114964 1.785767,-1.374017 2.450099,-1.965263 0.3047,-0.657945 -0.164405,-0.353883 0.261118,-1.181092 l 0.522265,-0.26139 c 0.288951,-0.836594 0.609654,-1.307496 0.573823,-2.281511 l -0.306246,0.638951 c 0.446658,-1.353766 0.188501,-2.827222 0.251445,-4.101553 l -0.122472,-0.03226 C 42.935455,27.787234 40.16679,24.378373 37.702716,23.22571 35.579173,22.243651 32.311013,22.076147 30.80056,22.815877 c 0.207939,-0.184345 1.036057,-0.261269 0.786607,-0.403378 -2.364962,0.235293 -1.836528,0.824038 -3.649331,1.287584 -0.497246,0.480639 1.451688,-0.384287 0.402971,0.238801 -0.972379,0.268474 -1.428382,-0.169447 -2.869178,1.323082 0.12825,0.20785 0.917062,-0.615105 0.26112,0.209757 -1.35409,-0.168257 -4.279394,3.101505 -4.900181,4.185458 l 0.325594,0.05485 c -0.533052,1.336673 -1.235987,2.190728 -1.331425,2.991456 -0.137656,1.969147 -0.821778,5.559757 0.132211,6.663818 l -0.09342,0.919703 c 0.130893,0.261436 0.230565,0.52914 0.393298,0.774487 l -0.212761,0.0162 c 1.003509,3.168397 1.076782,0.05892 2.401739,3.349657 -0.192192,-0.06469 -0.387409,-0.134691 -0.667335,-0.513097 -0.03349,0.288583 0.410208,1.154015 0.934914,1.829724 l -0.222452,0.254936 c 0.291971,0.530916 0.561462,0.647226 0.764037,0.832573 -1.090225,-0.5956 1.009399,1.965067 1.199255,2.291193 l 0.167649,-0.300114 c -0.0241,0.429357 0.308906,0.983066 0.931669,1.752282 l 0.519031,-0.01938 c 0.213629,0.42265 0.993043,1.187169 1.466827,1.223038 l -0.315921,0.40984 c 1.189341,0.377064 0.578759,0.501895 2.040668,1.019736 l -0.29659,-0.522773 c 0.745355,0.647549 0.978607,1.214265 2.031003,1.710327 1.458889,0.509131 1.651917,0.307078 3.149645,0.735756 -1.269363,-0.03679 -2.76189,-0.02469 -3.7654,-0.384017 -6.84645,-1.856189 -13.111487,-9.894501 -12.653432,-18.174634 -0.105475,-1.67654 0.169319,-3.771394 -0.109594,-4.188684 0.391433,-1.275675 0.841645,-2.831254 1.753742,-4.682421 -0.06604,-0.124016 0.152022,0.361816 0.615755,-0.429196 0.281261,-0.618395 0.509383,-1.299752 0.863981,-1.90072 l 0.183758,-0.04195 c 0.182488,-1.06049 2.471477,-2.685725 3.152872,-3.504556 l 0.04836,0.313024 c 1.487032,-1.395666 4.136716,-2.331587 5.62877,-2.997913 -0.391775,0.434057 0.877643,-0.04441 1.792437,-0.100043 z m 0.905896,0.209758 c 1.072479,0.0305 0.992772,0.103627 0.641527,0.180713 l -0.01649,0.02583 -0.212763,0.01937 0.228889,-0.04517 c 0.05214,-0.07674 -0.320427,-0.123057 -0.641535,-0.180713 z m -14.165383,7.315677 c -0.0064,0.359977 0.606275,-0.356603 0.167632,0.632497 -0.818345,0.572811 -0.07392,0.236272 -0.167632,-0.632497 z m -0.667336,2.755881 c -0.07199,0.335174 -0.104813,0.685815 -0.293361,1.264995 0.05495,-0.45349 -0.227648,-0.598333 0.293361,-1.264995 z m 21.444732,4.027333 c 0.07447,-0.0018 0.126603,0.183771 0.09029,0.726083 -0.108449,0.436731 -0.197316,-0.267606 -0.309489,-0.32593 0.04802,-0.206971 0.144755,-0.398267 0.219214,-0.400153 z m 6.579785,1.829726 c -0.160764,1.236121 -0.545337,2.453635 -1.138014,3.569096 0.536419,-1.05714 0.885689,-2.197328 1.047738,-3.349656 z m -6.969868,0.403381 c -0.09211,0.560409 -0.354183,1.102327 -0.712455,1.597379 0.04398,-0.425672 -0.999898,0.184482 0.209538,-1.339216 -0.105143,0.429355 -1.121496,1.560827 0.0035,0.851934 0.203932,-0.363998 0.419325,-0.710572 0.499693,-1.110097 z m -2.453314,2.326687 c -0.175454,0.166917 -0.372983,0.340272 -0.589956,0.509871 -0.785528,-0.120993 -1.501144,-0.423997 -0.899439,-0.432421 0.501584,0.04593 1.000192,0.04255 1.489395,-0.07744 z m -7.592056,0.08068 c 0.138653,0.277857 0.261408,0.555789 0.470683,0.787392 l 0.186979,0.545372 C 29.14881,38.895463 28.876549,38.477721 28.743952,37.989375 Z m -0.464224,0.822892 c 0.496578,0.959603 0.768261,1.255363 1.131559,1.965261 -0.504932,-0.420307 -0.819929,-1.004902 -1.215379,-1.54252 z"
     id="path2-2"
     style="fill:#1875c5;fill-opacity:1;stroke-width:1.65141261" />
</svg>
