<?xml version="1.0" encoding="UTF-8" standalone="no"?>
<svg
   xmlns:dc="http://purl.org/dc/elements/1.1/"
   xmlns:cc="http://creativecommons.org/ns#"
   xmlns:rdf="http://www.w3.org/1999/02/22-rdf-syntax-ns#"
   xmlns:svg="http://www.w3.org/2000/svg"
   xmlns="http://www.w3.org/2000/svg"
   xmlns:sodipodi="http://sodipodi.sourceforge.net/DTD/sodipodi-0.dtd"
   xmlns:inkscape="http://www.inkscape.org/namespaces/inkscape"
   width="64"
   height="64"
   version="1.1"
   id="svg16"
   sodipodi:docname="application-pdf.svg"
   inkscape:version="0.92.4 (5da689c313, 2019-01-14)">
  <metadata
     id="metadata22">
    <rdf:RDF>
      <cc:Work
         rdf:about="">
        <dc:format>image/svg+xml</dc:format>
        <dc:type
           rdf:resource="http://purl.org/dc/dcmitype/StillImage" />
        <dc:title></dc:title>
      </cc:Work>
    </rdf:RDF>
  </metadata>
  <defs
     id="defs20" />
  <sodipodi:namedview
     pagecolor="#ffffff"
     bordercolor="#666666"
     borderopacity="1"
     objecttolerance="10"
     gridtolerance="10"
     guidetolerance="10"
     inkscape:pageopacity="0"
     inkscape:pageshadow="2"
     inkscape:window-width="1280"
     inkscape:window-height="954"
     id="namedview18"
     showgrid="false"
     inkscape:zoom="7.375"
     inkscape:cx="26.731434"
     inkscape:cy="18.87254"
     inkscape:window-x="0"
     inkscape:window-y="0"
     inkscape:window-maximized="1"
     inkscape:current-layer="svg16" />
  <g
     id="g3881"
     transform="matrix(1.0132122,0,0,1.0132122,-0.83494455,-0.5172424)">
    <path
       inkscape:connector-curvature="0"
       id="path2"
       d="m 11.277667,2.5124625 c -1.6722183,0 -3.0184446,1.3462264 -3.0184446,3.0184444 V 59.862911 c 0,1.672218 1.3462263,3.018445 3.0184446,3.018445 h 42.258226 c 1.672218,0 3.018444,-1.346227 3.018444,-3.018445 V 20.62313 L 38.443669,2.5124625 Z"
       style="opacity:0.2;stroke-width:1.20737791" />
    <path
       inkscape:connector-curvature="0"
       id="path4"
       d="m 11.277667,1.3050847 c -1.6722183,0 -3.0184446,1.3462264 -3.0184446,3.0184446 V 58.655533 c 0,1.672219 1.3462263,3.018445 3.0184446,3.018445 h 42.258226 c 1.672218,0 3.018444,-1.346226 3.018444,-3.018445 V 19.415752 L 38.443669,1.3050847 Z"
       style="fill:#f2f2f2;fill-opacity:0.91372549;stroke-width:1.20737791" />
    <path
       inkscape:connector-curvature="0"
       id="path6"
       d="M 56.554337,20.62313 38.443669,2.5124625 V 17.604686 c 0,1.672218 1.346226,3.018444 3.018445,3.018444 z"
       style="opacity:0.2;stroke-width:1.20737791" />
    <path
       inkscape:connector-curvature="0"
       id="path8"
       d="M 56.554337,19.415752 38.443669,1.3050847 V 16.397308 c 0,1.672218 1.346226,3.018444 3.018445,3.018444 z"
       style="fill:#e2e2e2;fill-opacity:1;stroke-width:1.20737791" />
    <path
       inkscape:connector-curvature="0"
       id="path10"
       d="m 11.277667,1.3050847 c -1.6722183,0 -3.0184446,1.3462264 -3.0184446,3.0184446 v 1.2073776 c 0,-1.672218 1.3462263,-3.0184444 3.0184446,-3.0184444 H 38.443669 V 1.3050847 Z"
       style="opacity:0.2;fill:#ffffff;stroke-width:1.20737791" />
  </g>
  <g
     id="g4-5-6"
     style="fill:#d40000;fill-opacity:0.91372549;stroke:#979798;stroke-width:0.16622123;stroke-miterlimit:4;stroke-dasharray:none;stroke-opacity:1"
     transform="matrix(1.518643,0,0,2.2080001,-79.515634,-79.048665)">
    <path
       d="m 85.834765,57.629166 c -13.379235,-0.02803 -28.446154,0.02451 -28.446154,0.02451 0,0 -0.0053,3.059975 -0.0096,3.808107 0,2.501762 0.05002,2.503137 2.259976,2.488257 l 27.541941,-0.185434 c 2.209961,-0.01489 2.198071,0.01351 2.198071,-2.488258 l 0.08191,-3.669449 z"
       id="path2-3-7"
       inkscape:connector-curvature="0"
       style="fill:#d40000;fill-opacity:0.91372549;stroke:#979798;stroke-width:0.16622123;stroke-linejoin:round;stroke-miterlimit:4;stroke-dasharray:none;stroke-opacity:1"
       sodipodi:nodetypes="cccssscc" />
  </g>
  <text
     xml:space="preserve"
     style="font-style:normal;font-weight:normal;font-size:11.88187695px;line-height:1.25;font-family:sans-serif;letter-spacing:0px;word-spacing:0px;fill:#ffffff;fill-opacity:1;stroke:none;stroke-width:0.29704696"
     x="19.646231"
     y="57.181728"
     id="text4421"
     transform="scale(0.96548395,1.03575)"><tspan
       sodipodi:role="line"
       id="tspan4419"
       x="19.646231"
       y="57.181728"
       style="font-style:normal;font-variant:normal;font-weight:bold;font-stretch:normal;font-family:sans-serif;-inkscape-font-specification:'sans-serif Bold';fill:#ffffff;stroke-width:0.29704696">PDF</tspan></text>
  <path
     inkscape:connector-curvature="0"
     d="m 47.666341,30.565726 c -0.647301,-0.668804 -2.082765,-1.022951 -4.267215,-1.053093 -1.478718,-0.01709 -3.258419,0.119474 -5.13032,0.394336 -0.838241,-0.507253 -1.702296,-1.059159 -2.380327,-1.723883 -1.824187,-1.786467 -3.346916,-4.266296 -4.295863,-6.993145 0.06185,-0.254669 0.114493,-0.478498 0.163529,-0.7069 0,0 1.027586,-6.120999 0.755534,-8.190479 -0.03745,-0.283815 -0.0604,-0.366185 -0.133177,-0.586732 l -0.08926,-0.240443 c -0.279635,-0.676065 -0.827526,-1.392419 -1.686839,-1.353323 l -0.503871,-0.01681 -0.01382,-3.07e-4 c -0.958049,0 -1.738912,0.513913 -1.943893,1.281997 -0.623117,2.409104 0.01988,6.013161 1.184853,10.681056 l -0.298233,0.760321 c -0.834163,2.132651 -1.879578,4.280618 -2.80196,6.175609 l -0.119902,0.246313 c -0.970386,1.991489 -1.850846,3.682055 -2.649061,5.114365 l -0.824113,0.457007 c -0.05997,0.0332 -1.472363,0.816632 -1.803602,1.026826 -2.810414,1.759904 -4.672726,3.757361 -4.981675,5.342865 -0.09828,0.505859 -0.02517,1.15327 0.474944,1.453112 l 0.797079,0.420693 c 0.34575,0.181654 0.71038,0.273671 1.083924,0.273671 2.001664,0 4.325457,-2.614924 7.526682,-8.473989 3.696087,-1.261803 7.904108,-2.310719 11.592133,-2.889393 2.810509,1.659718 6.267269,2.812594 8.44897,2.812594 0.387395,0 0.721478,-0.03874 0.992768,-0.114205 0.418413,-0.116191 0.771088,-0.366387 0.986129,-0.705906 0.423346,-0.668107 0.509094,-1.588296 0.394225,-2.530575 -0.03424,-0.279737 -0.247198,-0.62553 -0.477605,-0.861589 z M 17.769165,41.735724 c 0.365013,-1.046624 1.809863,-3.115906 3.946222,-4.95191 0.13432,-0.114205 0.465175,-0.439302 0.768058,-0.741227 -2.233971,3.736666 -3.73005,5.225975 -4.71428,5.693137 z M 30.422462,11.177393 c 0.643411,0 1.009465,1.700808 1.039818,3.29547 0.03037,1.594663 -0.325259,2.713812 -0.766342,3.541882 -0.365295,-1.22599 -0.54192,-3.158486 -0.54192,-4.422079 0,0 -0.02687,-2.415273 0.268444,-2.415273 z m -3.774436,21.776548 c 0.448198,-0.841404 0.914516,-1.728769 1.391071,-2.669947 1.161615,-2.303749 1.895139,-4.106328 2.441511,-5.588078 1.086585,2.073361 2.439907,3.83594 4.030748,5.248155 0.198438,0.176179 0.408734,0.353253 0.629557,0.529737 -3.235084,0.67129 -6.031166,1.487716 -8.492887,2.480133 z m 20.396627,-0.191102 c -0.197017,0.129217 -0.761413,0.203931 -1.12443,0.203931 -1.171764,0 -2.621456,-0.561765 -4.653947,-1.475585 0.781049,-0.06057 1.496932,-0.09142 2.139015,-0.09142 1.175367,0 1.523397,-0.0054 2.672585,0.302014 1.149185,0.307393 1.163795,0.93183 0.966777,1.061057 z"
     id="path65"
     sodipodi:nodetypes="cccccccccccccccccccccccsccsccccccccssccsccccccsscsss"
     style="fill:#d40000;stroke-width:0.09714072" />
</svg>
