<?xml version="1.0" encoding="UTF-8" standalone="no"?>
<svg
   xmlns:dc="http://purl.org/dc/elements/1.1/"
   xmlns:cc="http://creativecommons.org/ns#"
   xmlns:rdf="http://www.w3.org/1999/02/22-rdf-syntax-ns#"
   xmlns:svg="http://www.w3.org/2000/svg"
   xmlns="http://www.w3.org/2000/svg"
   xmlns:sodipodi="http://sodipodi.sourceforge.net/DTD/sodipodi-0.dtd"
   xmlns:inkscape="http://www.inkscape.org/namespaces/inkscape"
   width="64"
   height="64"
   version="1.1"
   id="svg16"
   sodipodi:docname="application-x-python.svg"
   inkscape:version="0.92.4 (5da689c313, 2019-01-14)">
  <metadata
     id="metadata22">
    <rdf:RDF>
      <cc:Work
         rdf:about="">
        <dc:format>image/svg+xml</dc:format>
        <dc:type
           rdf:resource="http://purl.org/dc/dcmitype/StillImage" />
        <dc:title></dc:title>
      </cc:Work>
    </rdf:RDF>
  </metadata>
  <defs
     id="defs20" />
  <sodipodi:namedview
     pagecolor="#ffffff"
     bordercolor="#666666"
     borderopacity="1"
     objecttolerance="10"
     gridtolerance="10"
     guidetolerance="10"
     inkscape:pageopacity="0"
     inkscape:pageshadow="2"
     inkscape:window-width="1280"
     inkscape:window-height="954"
     id="namedview18"
     showgrid="false"
     inkscape:zoom="10.429825"
     inkscape:cx="24.271237"
     inkscape:cy="29.794075"
     inkscape:window-x="0"
     inkscape:window-y="0"
     inkscape:window-maximized="1"
     inkscape:current-layer="svg16" />
  <g
     id="g3881"
     transform="matrix(1.0132122,0,0,1.0132122,-0.83494455,-0.5172424)">
    <path
       inkscape:connector-curvature="0"
       id="path2"
       d="m 11.277667,2.5124625 c -1.6722183,0 -3.0184446,1.3462264 -3.0184446,3.0184444 V 59.862911 c 0,1.672218 1.3462263,3.018445 3.0184446,3.018445 h 42.258226 c 1.672218,0 3.018444,-1.346227 3.018444,-3.018445 V 20.62313 L 38.443669,2.5124625 Z"
       style="opacity:0.2;stroke-width:1.20737791" />
    <path
       inkscape:connector-curvature="0"
       id="path4"
       d="m 11.277667,1.3050847 c -1.6722183,0 -3.0184446,1.3462264 -3.0184446,3.0184446 V 58.655533 c 0,1.672219 1.3462263,3.018445 3.0184446,3.018445 h 42.258226 c 1.672218,0 3.018444,-1.346226 3.018444,-3.018445 V 19.415752 L 38.443669,1.3050847 Z"
       style="fill:#f2f2f2;fill-opacity:0.91372549;stroke-width:1.20737791" />
    <path
       inkscape:connector-curvature="0"
       id="path6"
       d="M 56.554337,20.62313 38.443669,2.5124625 V 17.604686 c 0,1.672218 1.346226,3.018444 3.018445,3.018444 z"
       style="opacity:0.2;stroke-width:1.20737791" />
    <path
       inkscape:connector-curvature="0"
       id="path8"
       d="M 56.554337,19.415752 38.443669,1.3050847 V 16.397308 c 0,1.672218 1.346226,3.018444 3.018445,3.018444 z"
       style="fill:#e2e2e2;fill-opacity:1;stroke-width:1.20737791" />
    <path
       inkscape:connector-curvature="0"
       id="path10"
       d="m 11.277667,1.3050847 c -1.6722183,0 -3.0184446,1.3462264 -3.0184446,3.0184446 v 1.2073776 c 0,-1.672218 1.3462263,-3.0184444 3.0184446,-3.0184444 H 38.443669 V 1.3050847 Z"
       style="opacity:0.2;fill:#ffffff;stroke-width:1.20737791" />
  </g>
  <g
     id="g4-5-6"
     style="fill:#3675a9;fill-opacity:1;stroke:#979798;stroke-width:0.16622123;stroke-miterlimit:4;stroke-dasharray:none;stroke-opacity:1"
     transform="matrix(1.518643,0,0,2.2080001,-79.515634,-79.048665)">
    <path
       d="m 85.834765,57.629166 c -13.379235,-0.02803 -28.446154,0.02451 -28.446154,0.02451 0,0 -0.0053,3.059975 -0.0096,3.808107 0,2.501762 0.05002,2.503137 2.259976,2.488257 l 27.541941,-0.185434 c 2.209961,-0.01489 2.198071,0.01351 2.198071,-2.488258 l 0.08191,-3.669449 z"
       id="path2-3-7"
       inkscape:connector-curvature="0"
       style="fill:#3675a9;fill-opacity:1;stroke:#979798;stroke-width:0.16622123;stroke-linejoin:round;stroke-miterlimit:4;stroke-dasharray:none;stroke-opacity:1"
       sodipodi:nodetypes="cccssscc" />
  </g>
  <text
     xml:space="preserve"
     style="font-style:normal;font-weight:normal;font-size:9.11241627px;line-height:1.25;font-family:sans-serif;letter-spacing:0px;word-spacing:0px;fill:#ffffff;fill-opacity:1;stroke:none;stroke-width:0.2278104"
     x="13.244866"
     y="58.971596"
     id="text4421-3"
     transform="scale(1.0247739,0.975825)"><tspan
       sodipodi:role="line"
       id="tspan4419-6"
       x="13.244866"
       y="58.971596"
       style="font-style:normal;font-variant:normal;font-weight:bold;font-stretch:normal;font-family:sans-serif;-inkscape-font-specification:'sans-serif Bold';fill:#ffffff;stroke-width:0.2278104">Phyton</tspan></text>
  <g
     style="fill:#00fbff"
     id="Layer_7"
     transform="matrix(0.05131448,0,0,0.05131448,18.82294,16.204171)">
    <g
       id="g6481">
      <path
         id="path1948_1_"
         d="m 253.806,1.783 c -20.678,0.098 -40.426,1.859 -57.803,4.935 -51.187,9.044 -60.48,27.97 -60.48,62.877 v 46.103 h 120.963 v 15.366 H 135.522 90.126 c -35.155,0 -65.937,21.13 -75.563,61.325 -11.107,46.075 -11.603,74.83 0,122.939 8.599,35.808 29.13,61.324 64.286,61.324 h 41.589 v -55.269 c 0,-39.921 34.544,-75.143 75.564,-75.143 h 120.822 c 33.632,0 60.479,-27.689 60.479,-61.466 V 69.594 C 377.303,36.818 349.65,12.188 316.824,6.717 296.045,3.257 274.483,1.684 253.806,1.783 Z M 188.391,38.86 c 12.494,0 22.699,10.37 22.699,23.12 0,12.705 -10.205,22.982 -22.699,22.982 -12.542,0 -22.699,-10.277 -22.699,-22.982 0,-12.75 10.157,-23.12 22.699,-23.12 z"
         inkscape:connector-curvature="0"
         style="fill:#3675a9;fill-opacity:1" />
      <path
         id="path1950_1_"
         d="m 392.387,131.062 v 53.712 c 0,41.648 -35.303,76.692 -75.562,76.692 H 196.002 c -33.094,0 -60.48,28.327 -60.48,61.469 v 115.186 c 0,32.777 28.503,52.063 60.48,61.463 38.291,11.259 75.004,13.3 120.822,0 30.451,-8.812 60.479,-26.561 60.479,-61.463 V 392.016 H 256.485 v -15.364 h 120.817 60.479 c 35.157,0 48.26,-24.519 60.482,-61.324 12.629,-37.895 12.093,-74.335 0,-122.939 -8.687,-34.993 -25.281,-61.325 -60.482,-61.325 H 392.387 Z M 324.438,422.75 c 12.539,0 22.698,10.269 22.698,22.975 0,12.749 -10.159,23.124 -22.698,23.124 -12.493,0 -22.696,-10.375 -22.696,-23.124 -0.001,-12.706 10.202,-22.975 22.696,-22.975 z"
         inkscape:connector-curvature="0"
         style="fill:#ffd654;fill-opacity:1" />
    </g>
  </g>
</svg>
