<?xml version="1.0" encoding="UTF-8" standalone="no"?>
<svg
   xmlns:dc="http://purl.org/dc/elements/1.1/"
   xmlns:cc="http://creativecommons.org/ns#"
   xmlns:rdf="http://www.w3.org/1999/02/22-rdf-syntax-ns#"
   xmlns:svg="http://www.w3.org/2000/svg"
   xmlns="http://www.w3.org/2000/svg"
   xmlns:sodipodi="http://sodipodi.sourceforge.net/DTD/sodipodi-0.dtd"
   xmlns:inkscape="http://www.inkscape.org/namespaces/inkscape"
   width="64"
   height="64"
   version="1.1"
   id="svg16"
   sodipodi:docname="application-x-php.svg"
   inkscape:version="0.92.4 (5da689c313, 2019-01-14)">
  <metadata
     id="metadata22">
    <rdf:RDF>
      <cc:Work
         rdf:about="">
        <dc:format>image/svg+xml</dc:format>
        <dc:type
           rdf:resource="http://purl.org/dc/dcmitype/StillImage" />
        <dc:title></dc:title>
      </cc:Work>
    </rdf:RDF>
  </metadata>
  <defs
     id="defs20" />
  <sodipodi:namedview
     pagecolor="#ffffff"
     bordercolor="#666666"
     borderopacity="1"
     objecttolerance="10"
     gridtolerance="10"
     guidetolerance="10"
     inkscape:pageopacity="0"
     inkscape:pageshadow="2"
     inkscape:window-width="1280"
     inkscape:window-height="954"
     id="namedview18"
     showgrid="false"
     inkscape:zoom="14.75"
     inkscape:cx="23.166991"
     inkscape:cy="13.572406"
     inkscape:window-x="0"
     inkscape:window-y="0"
     inkscape:window-maximized="1"
     inkscape:current-layer="svg16" />
  <g
     id="g3881"
     transform="matrix(1.0132122,0,0,1.0132122,-0.83494455,-0.5172424)">
    <path
       inkscape:connector-curvature="0"
       id="path2"
       d="m 11.277667,2.5124625 c -1.6722183,0 -3.0184446,1.3462264 -3.0184446,3.0184444 V 59.862911 c 0,1.672218 1.3462263,3.018445 3.0184446,3.018445 h 42.258226 c 1.672218,0 3.018444,-1.346227 3.018444,-3.018445 V 20.62313 L 38.443669,2.5124625 Z"
       style="opacity:0.2;stroke-width:1.20737791" />
    <path
       inkscape:connector-curvature="0"
       id="path4"
       d="m 11.277667,1.3050847 c -1.6722183,0 -3.0184446,1.3462264 -3.0184446,3.0184446 V 58.655533 c 0,1.672219 1.3462263,3.018445 3.0184446,3.018445 h 42.258226 c 1.672218,0 3.018444,-1.346226 3.018444,-3.018445 V 19.415752 L 38.443669,1.3050847 Z"
       style="fill:#f2f2f2;fill-opacity:0.91372549;stroke-width:1.20737791" />
    <path
       inkscape:connector-curvature="0"
       id="path6"
       d="M 56.554337,20.62313 38.443669,2.5124625 V 17.604686 c 0,1.672218 1.346226,3.018444 3.018445,3.018444 z"
       style="opacity:0.2;stroke-width:1.20737791" />
    <path
       inkscape:connector-curvature="0"
       id="path8"
       d="M 56.554337,19.415752 38.443669,1.3050847 V 16.397308 c 0,1.672218 1.346226,3.018444 3.018445,3.018444 z"
       style="fill:#e2e2e2;fill-opacity:1;stroke-width:1.20737791" />
    <path
       inkscape:connector-curvature="0"
       id="path10"
       d="m 11.277667,1.3050847 c -1.6722183,0 -3.0184446,1.3462264 -3.0184446,3.0184446 v 1.2073776 c 0,-1.672218 1.3462263,-3.0184444 3.0184446,-3.0184444 H 38.443669 V 1.3050847 Z"
       style="opacity:0.2;fill:#ffffff;stroke-width:1.20737791" />
  </g>
  <g
     id="g4-5-6"
     style="fill:#777bb3;fill-opacity:1;stroke:#979798;stroke-width:0.16622123;stroke-miterlimit:4;stroke-dasharray:none;stroke-opacity:1"
     transform="matrix(1.518643,0,0,2.2080001,-79.515634,-79.048665)">
    <path
       d="m 85.834765,57.629166 c -13.379235,-0.02803 -28.446154,0.02451 -28.446154,0.02451 0,0 -0.0053,3.059975 -0.0096,3.808107 0,2.501762 0.05002,2.503137 2.259976,2.488257 l 27.541941,-0.185434 c 2.209961,-0.01489 2.198071,0.01351 2.198071,-2.488258 l 0.08191,-3.669449 z"
       id="path2-3-7"
       inkscape:connector-curvature="0"
       style="fill:#777bb3;fill-opacity:1;stroke:#979798;stroke-width:0.16622123;stroke-linejoin:round;stroke-miterlimit:4;stroke-dasharray:none;stroke-opacity:1"
       sodipodi:nodetypes="cccssscc" />
  </g>
  <text
     xml:space="preserve"
     style="font-style:normal;font-weight:normal;font-size:11.88187695px;line-height:1.25;font-family:sans-serif;letter-spacing:0px;word-spacing:0px;fill:#ffffff;fill-opacity:1;stroke:none;stroke-width:0.29704696"
     x="19.224909"
     y="57.378098"
     id="text4421"
     transform="scale(0.96548395,1.03575)"><tspan
       sodipodi:role="line"
       id="tspan4419"
       x="19.224909"
       y="57.378098"
       style="font-style:normal;font-variant:normal;font-weight:bold;font-stretch:normal;font-family:sans-serif;-inkscape-font-specification:'sans-serif Bold';fill:#ffffff;stroke-width:0.29704696">PHP</tspan></text>
  <g
     id="g910"
     transform="matrix(0.89022031,0,0,0.89022031,-54.61546,-66.414669)"
     style="fill:#484c89;fill-opacity:1">
    <path
       style="fill:#484c89;fill-opacity:1;stroke-width:0.46804088"
       id="path2-36"
       d="m 78.430419,100.67598 h 6.648053 c 1.951262,0.0164 3.365214,0.57897 4.241854,1.68682 0.876641,1.10785 1.16589,2.62103 0.868216,4.53953 -0.115606,0.87664 -0.372092,1.73643 -0.768991,2.57984 -0.380517,0.84341 -0.909403,1.60397 -1.587595,2.28217 -0.827028,0.85979 -1.711625,1.40552 -2.654259,1.6372 -0.942635,0.23168 -1.9185,0.34729 -2.927128,0.34729 h -2.97674 l -0.942634,4.71317 h -3.448057 l 3.547281,-17.78602 v 0 m 2.902322,2.8279 -1.48837,7.44185 c 0.09922,0.0164 0.198449,0.0248 0.297674,0.0248 0.115606,0 0.23168,0 0.347286,0 1.587595,0.0164 2.910746,-0.14041 3.968987,-0.47132 1.05824,-0.34729 1.769662,-1.55436 2.13333,-3.6217 0.297674,-1.73643 0,-2.7371 -0.893022,-3.00154 -0.876641,-0.26445 -1.976069,-0.38848 -3.29922,-0.3721 -0.198449,0.0164 -0.388474,0.0248 -0.570542,0.0248 -0.165218,0 -0.338861,0 -0.520929,0 l 0.02481,-0.0248"
       inkscape:connector-curvature="0" />
    <path
       style="fill:#484c89;fill-opacity:1;stroke-width:0.46804088"
       id="path4-3"
       d="m 94.116341,95.938002 h 3.423251 l -0.96744,4.737978 h 3.075964 c 1.686824,0.0332 2.943514,0.38052 3.770534,1.04186 0.84341,0.66134 1.09147,1.9185 0.74419,3.77054 l -1.66201,8.26045 h -3.472868 l 1.587598,-7.88836 c 0.16522,-0.82703 0.1156,-1.41395 -0.14884,-1.76124 -0.26444,-0.34729 -0.834985,-0.52093 -1.711626,-0.52093 l -2.753484,-0.0248 -2.034106,10.19533 h -3.423251 l 3.572088,-17.810828 v 0"
       inkscape:connector-curvature="0" />
    <path
       style="fill:#484c89;fill-opacity:1;stroke-width:0.46804088"
       id="path6-6"
       d="m 107.83883,100.67598 h 6.64805 c 1.95127,0.0164 3.36522,0.57897 4.24186,1.68682 0.87664,1.10785 1.16589,2.62103 0.86821,4.53953 -0.1156,0.87664 -0.37209,1.73643 -0.76899,2.57984 -0.38051,0.84341 -0.9094,1.60397 -1.58759,2.28217 -0.82703,0.85979 -1.71163,1.40552 -2.65426,1.6372 -0.94264,0.23168 -1.9185,0.34729 -2.92713,0.34729 h -2.97674 l -0.94263,4.71317 h -3.44806 l 3.54728,-17.78602 v 0 m 2.90232,2.8279 -1.48837,7.44185 c 0.0992,0.0164 0.19845,0.0248 0.29768,0.0248 0.1156,0 0.23168,0 0.34728,0 1.5876,0.0164 2.91075,-0.14041 3.96899,-0.47132 1.05824,-0.34729 1.76966,-1.55436 2.13333,-3.6217 0.29767,-1.73643 0,-2.7371 -0.89302,-3.00154 -0.87664,-0.26445 -1.97607,-0.38848 -3.29922,-0.3721 -0.19845,0.0164 -0.38848,0.0248 -0.57054,0.0248 -0.16522,0 -0.33886,0 -0.52093,0 l 0.0248,-0.0248"
       inkscape:connector-curvature="0" />
  </g>
</svg>
