<?xml version="1.0" encoding="UTF-8" standalone="no"?>
<svg
   xmlns:dc="http://purl.org/dc/elements/1.1/"
   xmlns:cc="http://creativecommons.org/ns#"
   xmlns:rdf="http://www.w3.org/1999/02/22-rdf-syntax-ns#"
   xmlns:svg="http://www.w3.org/2000/svg"
   xmlns="http://www.w3.org/2000/svg"
   xmlns:sodipodi="http://sodipodi.sourceforge.net/DTD/sodipodi-0.dtd"
   xmlns:inkscape="http://www.inkscape.org/namespaces/inkscape"
   width="64"
   height="64"
   version="1.1"
   id="svg16"
   sodipodi:docname="audio-x-mpeg.svg"
   inkscape:version="0.92.4 (5da689c313, 2019-01-14)">
  <metadata
     id="metadata22">
    <rdf:RDF>
      <cc:Work
         rdf:about="">
        <dc:format>image/svg+xml</dc:format>
        <dc:type
           rdf:resource="http://purl.org/dc/dcmitype/StillImage" />
        <dc:title></dc:title>
      </cc:Work>
    </rdf:RDF>
  </metadata>
  <defs
     id="defs20" />
  <sodipodi:namedview
     pagecolor="#ffffff"
     bordercolor="#666666"
     borderopacity="1"
     objecttolerance="10"
     gridtolerance="10"
     guidetolerance="10"
     inkscape:pageopacity="0"
     inkscape:pageshadow="2"
     inkscape:window-width="1280"
     inkscape:window-height="954"
     id="namedview18"
     showgrid="false"
     inkscape:zoom="8"
     inkscape:cx="36.88081"
     inkscape:cy="29.119065"
     inkscape:window-x="0"
     inkscape:window-y="0"
     inkscape:window-maximized="1"
     inkscape:current-layer="svg16"
     showguides="false" />
  <g
     id="g3881"
     transform="matrix(0.98944812,0,0,1.0256688,-0.06482725,-0.89375074)">
    <path
       inkscape:connector-curvature="0"
       id="path2"
       d="m 11.277667,2.5124625 c -1.6722183,0 -3.0184446,1.3462264 -3.0184446,3.0184444 V 59.862911 c 0,1.672218 1.3462263,3.018445 3.0184446,3.018445 h 42.258226 c 1.672218,0 3.018444,-1.346227 3.018444,-3.018445 V 20.62313 L 38.443669,2.5124625 Z"
       style="opacity:0.2;stroke-width:1.20737791" />
    <path
       inkscape:connector-curvature="0"
       id="path4"
       d="m 11.277667,1.3050847 c -1.6722183,0 -3.0184446,1.3462264 -3.0184446,3.0184446 V 58.655533 c 0,1.672219 1.3462263,3.018445 3.0184446,3.018445 h 42.258226 c 1.672218,0 3.018444,-1.346226 3.018444,-3.018445 V 19.415752 L 38.443669,1.3050847 Z"
       style="fill:#f2f2f2;fill-opacity:0.91372549;stroke-width:1.20737791" />
    <path
       inkscape:connector-curvature="0"
       id="path6"
       d="M 56.554337,20.62313 38.443669,2.5124625 V 17.604686 c 0,1.672218 1.346226,3.018444 3.018445,3.018444 z"
       style="opacity:0.2;stroke-width:1.20737791" />
    <path
       inkscape:connector-curvature="0"
       id="path8"
       d="M 56.554337,19.415752 38.443669,1.3050847 V 16.397308 c 0,1.672218 1.346226,3.018444 3.018445,3.018444 z"
       style="fill:#e2e2e2;fill-opacity:1;stroke-width:1.20737791" />
    <path
       inkscape:connector-curvature="0"
       id="path10"
       d="m 11.277667,1.3050847 c -1.6722183,0 -3.0184446,1.3462264 -3.0184446,3.0184446 v 1.2073776 c 0,-1.672218 1.3462263,-3.0184444 3.0184446,-3.0184444 H 38.443669 V 1.3050847 Z"
       style="opacity:0.2;fill:#ffffff;stroke-width:1.20737791" />
  </g>
  <g
     id="g4-5-6"
     style="fill:#68a7f7;fill-opacity:1;stroke:#979798;stroke-width:0.16622123;stroke-miterlimit:4;stroke-dasharray:none;stroke-opacity:1"
     transform="matrix(1.4830245,0,0,2.2351456,-76.883599,-80.390652)">
    <path
       d="m 85.834765,57.629166 c -13.379235,-0.02803 -28.446154,0.02451 -28.446154,0.02451 0,0 -0.0053,3.059975 -0.0096,3.808107 0,2.501762 0.05002,2.503137 2.259976,2.488257 l 27.541941,-0.185434 c 2.209961,-0.01489 2.198071,0.01351 2.198071,-2.488258 l 0.08191,-3.669449 z"
       id="path2-3-7"
       inkscape:connector-curvature="0"
       style="fill:#68a7f7;fill-opacity:1;stroke:#979798;stroke-width:0.16622123;stroke-linejoin:round;stroke-miterlimit:4;stroke-dasharray:none;stroke-opacity:1"
       sodipodi:nodetypes="cccssscc" />
  </g>
  <path
     style="fill:none;stroke:#bbbbbb;stroke-width:0.24743135;stroke-linecap:butt;stroke-linejoin:round;stroke-miterlimit:4;stroke-dasharray:none;stroke-opacity:0.94509804"
     d="m 37.843086,0.45075447 0.01107,15.80614753 c 0.01763,0.642376 0.602862,2.868219 0.09811,0.68494"
     id="path3854"
     inkscape:connector-curvature="0"
     sodipodi:nodetypes="ccc" />
  <path
     style="fill:#7bc5f5;fill-opacity:1;stroke:none;stroke-width:0.77231508px;stroke-linecap:butt;stroke-linejoin:miter;stroke-opacity:1"
     d="m 30.392009,32.674236 c -11.077461,-3.590812 -14.488221,4.477412 -13.264078,6.04646 1.929274,5.885376 15.452989,4.063817 16.314544,-1.416288 L 33.55142,21.616296 c 6.61416,3.40569 6.333697,7.584705 2.614686,12.310809 2.141949,0.851668 3.489258,-0.858198 4.630171,-2.72363 0.703031,-1.87062 1.84506,-8.063344 -4.466754,-12.419755 -1.419513,-0.689369 -3.273375,-2.831547 -3.573102,-3.859819 -0.38727,-1.258426 -0.12337,-1.608245 -2.418884,-1.097189 z"
     id="path826"
     inkscape:connector-curvature="0"
     sodipodi:nodetypes="cccccccccc" />
  <text
     xml:space="preserve"
     style="font-style:normal;font-weight:normal;font-size:10.9369812px;line-height:1.25;font-family:sans-serif;letter-spacing:0px;word-spacing:0px;fill:#ffffff;fill-opacity:1;stroke:none;stroke-width:0.27342454"
     x="14.347065"
     y="59.481209"
     id="text4421"><tspan
       sodipodi:role="line"
       id="tspan4419"
       x="14.347065"
       y="59.481209"
       style="font-style:normal;font-variant:normal;font-weight:bold;font-stretch:normal;font-family:sans-serif;-inkscape-font-specification:'sans-serif Bold';fill:#ffffff;stroke-width:0.27342454">MPEG</tspan></text>
</svg>
