<?xml version="1.0" encoding="UTF-8" standalone="no"?>
<svg
   xmlns:dc="http://purl.org/dc/elements/1.1/"
   xmlns:cc="http://creativecommons.org/ns#"
   xmlns:rdf="http://www.w3.org/1999/02/22-rdf-syntax-ns#"
   xmlns:svg="http://www.w3.org/2000/svg"
   xmlns="http://www.w3.org/2000/svg"
   xmlns:sodipodi="http://sodipodi.sourceforge.net/DTD/sodipodi-0.dtd"
   xmlns:inkscape="http://www.inkscape.org/namespaces/inkscape"
   width="64"
   height="64"
   version="1.1"
   id="svg16"
   sodipodi:docname="audio-x-generic.svg"
   inkscape:version="0.92.4 (5da689c313, 2019-01-14)">
  <metadata
     id="metadata22">
    <rdf:RDF>
      <cc:Work
         rdf:about="">
        <dc:format>image/svg+xml</dc:format>
        <dc:type
           rdf:resource="http://purl.org/dc/dcmitype/StillImage" />
        <dc:title></dc:title>
      </cc:Work>
    </rdf:RDF>
  </metadata>
  <defs
     id="defs20" />
  <sodipodi:namedview
     pagecolor="#ffffff"
     bordercolor="#666666"
     borderopacity="1"
     objecttolerance="10"
     gridtolerance="10"
     guidetolerance="10"
     inkscape:pageopacity="0"
     inkscape:pageshadow="2"
     inkscape:window-width="1280"
     inkscape:window-height="954"
     id="namedview18"
     showgrid="false"
     inkscape:zoom="7.375"
     inkscape:cx="11.350683"
     inkscape:cy="21.478724"
     inkscape:window-x="0"
     inkscape:window-y="0"
     inkscape:window-maximized="1"
     inkscape:current-layer="svg16" />
  <g
     id="g3881"
     transform="matrix(1.0132122,0,0,1.0132122,-0.83494455,-0.5172424)">
    <path
       inkscape:connector-curvature="0"
       id="path2"
       d="m 11.277667,2.5124625 c -1.6722183,0 -3.0184446,1.3462264 -3.0184446,3.0184444 V 59.862911 c 0,1.672218 1.3462263,3.018445 3.0184446,3.018445 h 42.258226 c 1.672218,0 3.018444,-1.346227 3.018444,-3.018445 V 20.62313 L 38.443669,2.5124625 Z"
       style="opacity:0.2;stroke-width:1.20737791" />
    <path
       inkscape:connector-curvature="0"
       id="path4"
       d="m 11.277667,1.3050847 c -1.6722183,0 -3.0184446,1.3462264 -3.0184446,3.0184446 V 58.655533 c 0,1.672219 1.3462263,3.018445 3.0184446,3.018445 h 42.258226 c 1.672218,0 3.018444,-1.346226 3.018444,-3.018445 V 19.415752 L 38.443669,1.3050847 Z"
       style="fill:#f2f2f2;fill-opacity:0.91372549;stroke-width:1.20737791" />
    <path
       inkscape:connector-curvature="0"
       id="path6"
       d="M 56.554337,20.62313 38.443669,2.5124625 V 17.604686 c 0,1.672218 1.346226,3.018444 3.018445,3.018444 z"
       style="opacity:0.2;stroke-width:1.20737791" />
    <path
       inkscape:connector-curvature="0"
       id="path8"
       d="M 56.554337,19.415752 38.443669,1.3050847 V 16.397308 c 0,1.672218 1.346226,3.018444 3.018445,3.018444 z"
       style="fill:#e2e2e2;fill-opacity:1;stroke-width:1.20737791" />
    <path
       inkscape:connector-curvature="0"
       id="path10"
       d="m 11.277667,1.3050847 c -1.6722183,0 -3.0184446,1.3462264 -3.0184446,3.0184446 v 1.2073776 c 0,-1.672218 1.3462263,-3.0184444 3.0184446,-3.0184444 H 38.443669 V 1.3050847 Z"
       style="opacity:0.2;fill:#ffffff;stroke-width:1.20737791" />
  </g>
  <g
     style="fill:#00fbff"
     id="g854"
     transform="translate(33.993764,-0.3552992)">
    <path
       sodipodi:nodetypes="ccccccccccc"
       inkscape:connector-curvature="0"
       id="path849"
       d="m -9.1309671,44.236243 2.405529,0.0043 0.02494,-10.004853 11.962149,-4.945401 -0.01586,8.964253 2.420873,0.02556 -0.04924,-14.694684 c 0.07823,-1.856053 -0.387117,-1.901435 -1.369316,-1.5891 l -14.201786,6.103122 c -0.802938,0.365679 -1.033424,0.334848 -1.144885,1.904353 z"
       style="fill:#8ecdf7;fill-opacity:1;stroke:none;stroke-width:1px;stroke-linecap:butt;stroke-linejoin:miter;stroke-opacity:1" />
    <path
       sodipodi:nodetypes="cccccc"
       inkscape:connector-curvature="0"
       id="path832"
       d="m -9.1230941,46.661771 c -7.0315649,-0.295929 -8.6919679,4.905 -7.1616069,7.987706 2.239393,2.621719 8.5859329,1.939986 9.4884079,-3.117085 l 0.07104,-7.51362 -2.422789,-0.01247 z"
       style="fill:#68a7f7;fill-opacity:1;stroke:none;stroke-width:1px;stroke-linecap:butt;stroke-linejoin:miter;stroke-opacity:1" />
    <path
       sodipodi:nodetypes="cccccc"
       inkscape:connector-curvature="0"
       id="path832-3"
       d="m 5.2704009,40.778161 c -7.031565,-0.295929 -8.691968,4.905 -7.161607,7.987706 2.23939301,2.621719 8.585933,1.939986 9.488408,-3.117085 l 0.07104,-7.51362 -2.422789,-0.01247 z"
       style="fill:#7cbdf7;fill-opacity:1;stroke:none;stroke-width:1px;stroke-linecap:butt;stroke-linejoin:miter;stroke-opacity:1" />
  </g>
</svg>
