<?xml version="1.0" encoding="UTF-8" standalone="no"?>
<!-- Created with Inkscape (http://www.inkscape.org/) -->

<svg
   xmlns:dc="http://purl.org/dc/elements/1.1/"
   xmlns:cc="http://creativecommons.org/ns#"
   xmlns:rdf="http://www.w3.org/1999/02/22-rdf-syntax-ns#"
   xmlns:svg="http://www.w3.org/2000/svg"
   xmlns="http://www.w3.org/2000/svg"
   xmlns:xlink="http://www.w3.org/1999/xlink"
   xmlns:sodipodi="http://sodipodi.sourceforge.net/DTD/sodipodi-0.dtd"
   xmlns:inkscape="http://www.inkscape.org/namespaces/inkscape"
   width="64"
   height="64"
   viewBox="0 0 16.933333 16.933334"
   version="1.1"
   id="svg1111"
   inkscape:version="0.92.4 (5da689c313, 2019-01-14)"
   sodipodi:docname="image-jpeg.svg">
  <defs
     id="defs1105">
    <linearGradient
       inkscape:collect="always"
       xlink:href="#linearGradient821"
       id="linearGradient823"
       x1="-55.570778"
       y1="58.340855"
       x2="50.678986"
       y2="58.340855"
       gradientUnits="userSpaceOnUse"
       gradientTransform="translate(119.88507,150.34143)" />
    <linearGradient
       inkscape:collect="always"
       id="linearGradient821">
      <stop
         style="stop-color:#447da9;stop-opacity:1;"
         offset="0"
         id="stop817" />
      <stop
         style="stop-color:#447da9;stop-opacity:0;"
         offset="1"
         id="stop819" />
    </linearGradient>
    <linearGradient
       inkscape:collect="always"
       xlink:href="#linearGradient821"
       id="linearGradient867"
       x1="5.2584357"
       y1="287.32397"
       x2="15.86136"
       y2="287.32397"
       gradientUnits="userSpaceOnUse"
       gradientTransform="translate(0.1984011,-1.8972416)" />
  </defs>
  <sodipodi:namedview
     id="base"
     pagecolor="#ffffff"
     bordercolor="#666666"
     borderopacity="1.0"
     inkscape:pageopacity="0.0"
     inkscape:pageshadow="2"
     inkscape:zoom="8"
     inkscape:cx="16.047502"
     inkscape:cy="17.403312"
     inkscape:document-units="mm"
     inkscape:current-layer="layer1"
     showgrid="false"
     units="px"
     inkscape:window-width="1280"
     inkscape:window-height="954"
     inkscape:window-x="0"
     inkscape:window-y="0"
     inkscape:window-maximized="1" />
  <metadata
     id="metadata1108">
    <rdf:RDF>
      <cc:Work
         rdf:about="">
        <dc:format>image/svg+xml</dc:format>
        <dc:type
           rdf:resource="http://purl.org/dc/dcmitype/StillImage" />
        <dc:title />
      </cc:Work>
    </rdf:RDF>
  </metadata>
  <g
     inkscape:label="Layer 1"
     inkscape:groupmode="layer"
     id="layer1"
     transform="translate(0,-280.06665)">
    <rect
       style="fill:#ffffff;fill-opacity:1;stroke:#c5c5c5;stroke-width:0.26458333;stroke-opacity:0.61960787;stroke-miterlimit:4;stroke-dasharray:none;stroke-linejoin:round;stroke-linecap:round"
       id="rect1858"
       width="16.536457"
       height="12.052007"
       x="0.19843814"
       y="282.50732"
       rx="0.088634893"
       ry="0.069279812" />
    <path
       style="fill:#9cd4ff;fill-opacity:1;stroke:none;stroke-width:0.14645061px;stroke-linecap:butt;stroke-linejoin:miter;stroke-opacity:1"
       d="m 0.98807507,287.50334 c 5.30985583,0.0888 10.34226693,1.02459 14.96659093,2.36571 l 0.01678,-6.49463 -15.00965774,-0.009 z"
       id="path1910"
       inkscape:connector-curvature="0"
       sodipodi:nodetypes="ccccc" />
    <rect
       style="fill:#f9f9f9;fill-opacity:1;stroke:none;stroke-width:0.10791942;stroke-opacity:1"
       id="rect1027"
       width="14.986165"
       height="10.326084"
       x="0.98528075"
       y="283.37442"
       rx="0.039851349"
       ry="0.028681749" />
    <path
       style="fill:#509467;fill-opacity:1;stroke:none;stroke-width:0.19315282px;stroke-linecap:butt;stroke-linejoin:miter;stroke-opacity:1"
       d="m 11.753847,291.03815 c -0.898835,-0.55795 -4.2067248,-0.47585 -4.6865242,-1.32282 2.3108658,-0.12728 2.7307419,-0.9075 6.0742362,-0.36616 0.427952,-0.11052 1.04517,0.42017 1.910757,0.83348 1.214777,0.20281 0.805954,0.28136 0.915624,0.8366 z"
       id="path868-7"
       inkscape:connector-curvature="0"
       sodipodi:nodetypes="cccccc" />
    <g
       transform="matrix(0.14018823,0,0,0.14171268,12.221349,264.43895)"
       style="fill:#00fbff"
       id="g851">
      <g
         id="g911"
         transform="matrix(1.0102054,0,0,1,-145.57929,-11.578941)">
        <g
           id="g902">
          <g
             id="g894">
            <g
               id="g887">
              <g
                 id="g881">
                <g
                   id="g876">
                  <path
                     inkscape:connector-curvature="0"
                     id="path815-5"
                     d="m 64.70563,199.09437 -0.39134,19.17584 106.05409,-0.19568 0.19567,-18.98016 z"
                     style="fill:#7fafc8;fill-opacity:1;stroke:none;stroke-width:1px;stroke-linecap:butt;stroke-linejoin:miter;stroke-opacity:1" />
                  <path
                     inkscape:connector-curvature="0"
                     id="path815"
                     d="m 64.705633,199.09437 -0.391343,19.17584 106.05409,-0.19568 0.19567,-18.98016 z"
                     style="fill:url(#linearGradient823);fill-opacity:1;stroke:none;stroke-width:1px;stroke-linecap:butt;stroke-linejoin:miter;stroke-opacity:1" />
                </g>
              </g>
            </g>
          </g>
        </g>
      </g>
    </g>
    <path
       style="fill:#41765a;fill-opacity:1;stroke:none;stroke-width:0.16404326px;stroke-linecap:butt;stroke-linejoin:miter;stroke-opacity:1"
       d="m 0.97638703,291.01226 0.0341467,-2.89661 c 0.4380782,0.37835 0.5567539,0.89759 1.5878353,0.40734 1.1830163,-0.35367 2.4479377,-0.154 3.5854347,0.61855 0.4706991,0.55198 1.509683,1.2826 1.8486832,1.87751 z"
       id="path868"
       inkscape:connector-curvature="0"
       sodipodi:nodetypes="cccccc" />
    <path
       style="fill:#437a61;fill-opacity:1;stroke:none;stroke-width:0.13188151px;stroke-linecap:butt;stroke-linejoin:miter;stroke-opacity:1"
       d="m 8.0324869,291.01905 c -0.6008065,-0.50999 -1.2691138,-0.96218 -1.5967128,-1.54047 0.073009,-0.23123 1.5529628,0.42433 2.4870018,0.276 0.9543479,-0.52235 0.00913,0.28219 1.1281461,0.0209 0.546723,-0.12766 0.690013,-0.56696 1.163909,-0.20274 0.563045,-0.17109 0.589466,0.29912 0.905251,0.50424 0.571522,0.37123 2.323909,0.16128 0.466873,0.91108 l -2.174292,0.0498 c -1.2813695,0.0287 -1.8674172,-0.0223 -2.3801761,-0.0188 z"
       id="path868-3"
       inkscape:connector-curvature="0"
       sodipodi:nodetypes="cccscsccc" />
    <path
       style="fill:#417c6f;fill-opacity:1;stroke:none;stroke-width:0.13539149px;stroke-linecap:butt;stroke-linejoin:miter;stroke-opacity:1"
       d="m 10.16415,291.02219 c -0.6300432,-0.3911 -1.2929582,-0.30706 -1.6292761,-0.90074 0.045228,-0.14324 0.8209181,0.39816 1.1951485,0.24734 0.2028989,-0.0818 0.6190126,0.35704 1.6420916,0.37956 0,0 0.8185,-0.30978 1.044822,-0.26031 0.280092,0.0612 0.540255,0.12947 0.621628,0.0838 -0.176582,-0.0949 -1.055551,-0.52893 -1.756877,-0.56958 -1.239238,-0.0718 -1.9523646,-0.68716 1.510956,-0.13746 0.299974,-0.0775 0.149785,0.26803 0.756524,0.55775 0.851505,0.14216 0.566126,0.35187 1.265568,0.59536 z"
       id="path868-6"
       inkscape:connector-curvature="0"
       sodipodi:nodetypes="ccssscscccc" />
    <path
       style="fill:#7eafe0;fill-opacity:1;stroke:none;stroke-width:0.1308421px;stroke-linecap:butt;stroke-linejoin:miter;stroke-opacity:1"
       d="m 9.3456895,289.5614 c 0.140733,0.14934 0.636656,-0.0389 0.636656,-0.0389 0.1923615,0.0285 0.2526735,0.009 0.5900825,-0.13829 0.219026,-0.0955 0.430625,0.13702 0.886913,0.0916 0.334216,-0.0332 0.018,-0.32806 0.857451,-0.20167 0.288603,0.0435 0.439318,0.0115 0.862318,0.10003 0.147043,0.0308 0.607384,0.32926 0.72771,0.37728 0.415753,0.0384 0.6559,0.26976 1.145496,0.4312 0.697757,0.31066 0.905836,1.20971 0.891364,-0.27942 -0.0085,-0.8757 0.185606,1.90411 -1.072516,-0.887 -0.481532,0.004 -0.258538,-0.0617 -0.481532,0.004 -0.325087,-0.20675 -0.811051,-0.56272 -1.133667,-0.35347 -0.09974,-0.34323 -1.391242,-0.46097 -1.541657,-0.0758 0.01966,-0.323 -0.327221,-0.41093 -1.148682,0.0591 -0.423253,-0.0637 -0.309989,-0.2549 -0.7175985,-0.0786 l -0.429283,0.10472 c -0.236201,-0.047 -0.458818,0.29245 -0.970613,0.10949 -0.1534547,-0.0549 -0.048672,0.2715 -0.2394245,0.23679 -0.6519473,-0.11862 -0.1527605,0.42765 -0.1838475,0.46232 0.00884,0.0706 0.030378,0.11217 -0.00954,0.12237 -0.4007943,0.10246 0.1685317,0.14459 0.2650391,0.13916 0.64242,0.008 0.9964996,-0.0682 1.0653336,-0.18494 z"
       id="path906-5"
       inkscape:connector-curvature="0"
       sodipodi:nodetypes="csssssccscccccccsscsccc" />
    <path
       style="fill:#6babff;fill-opacity:1;stroke:none;stroke-width:0.11284753px;stroke-linecap:butt;stroke-linejoin:miter;stroke-opacity:1"
       d="m 0.95900915,285.58302 c 0.25712045,-0.45622 0.59573635,-0.39427 0.91948105,-0.42687 0.4036904,-0.18459 0.5634742,-0.82355 1.4186251,-0.27839 0.4903894,-0.16991 0.9807788,-0.11431 1.4711682,0.25983 0.8415962,-0.3294 0.4352687,0.65279 1.0245629,-0.0186 0.6758899,-0.23447 1.3913684,-0.30114 2.2067524,0.0557 l 0.814396,0.14848 c -0.5024593,-0.5393 0.030504,-0.74609 0.2364384,-1.0579 -0.071228,-0.82412 0.4520809,-0.45818 0.7618539,-0.51966 0.9545759,-0.17138 2.0234519,-0.44214 2.1016689,0.14847 0.142419,-0.33168 0.680539,-0.4304 1.23473,-0.51966 H 0.98528075 Z"
       id="path956"
       inkscape:connector-curvature="0"
       sodipodi:nodetypes="ccccccccccccc" />
    <path
       style="fill:#d9f3ff;fill-opacity:1;stroke:none;stroke-width:0.14304315px;stroke-linecap:butt;stroke-linejoin:miter;stroke-opacity:1"
       d="m 1.0136694,286.62677 0.3700227,-0.13341 0.21502,0.0556 c 0.2616101,0.45263 0.1002338,-0.19525 0.4144252,-0.0763 l 0.1943034,-0.0289 c 0.1771336,0.0634 0.2831406,0.0406 0.1311466,-0.12378 -0.047948,-0.0518 0.076765,-0.0476 0.044608,-0.099 -0.05066,-0.0808 -0.160959,-0.0963 -0.3683913,0.0744 -0.3442248,-0.004 -0.083593,-0.11335 -0.3540951,-0.11745 l 0.4830599,-0.0593 c 0.2025805,-0.10396 0.7580127,-0.38357 0.7977008,-0.69974 0.1602284,0.0115 0.3746882,-0.16346 0.4014407,0.17563 0.2020412,-0.0424 0.023408,-0.24304 0.2258105,-0.27599 0.120876,0.0712 0.1857184,0.21658 0.2780786,0.11744 0.074457,-0.0197 0.2779102,-0.17909 0.3702028,-0.0918 -0.015217,0.10785 0.00156,0.21044 -0.1189548,0.33587 -0.106547,-0.0658 -0.6118197,-0.0163 -0.5463769,0.34792 -0.024425,0.0444 0.078459,-0.0293 0.1699274,0.052 0.061751,0.0549 0.1792664,-0.0396 0.1138863,-0.15577 -0.047982,-0.0853 0.1195927,-0.002 0.171597,0.008 0.107548,-0.11349 0.2423216,-0.13618 0.4058477,-0.063 l -0.020992,0.21692 c 0.2790678,0.0524 0.4112614,-0.12378 0.5248032,-0.32888 L 4.7488025,285.5751 c 0.1148973,-0.099 0.2651031,-0.19393 0.055979,-0.32887 -0.085616,-0.18619 -0.1641675,-0.40416 -0.3218795,-0.2659 -0.1648959,0.0629 -0.3151969,0.10306 -0.3148817,-0.0909 -0.030452,-0.13971 -0.081056,-0.24161 -0.2589029,-0.10503 -0.038705,0.13647 -0.1636325,0.16937 -0.2938899,0.19593 l -0.223916,-0.021 c -0.08035,10e-4 -0.1489075,0.0144 -0.1189547,0.12589 l -0.181932,-0.14694 -0.2868922,-0.0281 c -0.1717333,-0.11955 -0.3341899,-0.14642 -0.4688242,0.10489 -0.2750971,0.15291 -0.3037032,0.35064 -0.3848558,0.5388 -0.1568593,-0.25746 -0.2620168,-0.0237 -0.3848557,0.042 l -0.00699,0.16794 c -0.067556,-0.23012 -0.1483267,-0.22238 -0.237911,-0.056 l -0.10911,0.11641 0.040055,0.15746 c -0.1748221,0.19119 -0.1969766,0.016 -0.27129002,-0.0341 z"
       id="path978"
       inkscape:connector-curvature="0"
       sodipodi:nodetypes="cccccssccccccccccssccccccccccccccccccccccc" />
    <path
       style="fill:#00ff00;fill-opacity:1;stroke:#197fc8;stroke-width:0.07321594;stroke-linecap:round;stroke-linejoin:round;stroke-miterlimit:4;stroke-dasharray:none;stroke-dashoffset:0;stroke-opacity:1"
       d=""
       id="path4392"
       inkscape:connector-curvature="0" />
    <path
       style="fill:#00ff00;fill-opacity:1;stroke:#197fc8;stroke-width:0.07321594;stroke-linecap:round;stroke-linejoin:round;stroke-miterlimit:4;stroke-dasharray:none;stroke-dashoffset:0;stroke-opacity:1"
       d=""
       id="path4394"
       inkscape:connector-curvature="0" />
    <g
       id="g1027"
       style="fill:#e9fbff;fill-opacity:1;stroke:none"
       transform="matrix(0.47097706,0,0,0.3991816,21.358586,174.25314)">
      <path
         inkscape:connector-curvature="0"
         id="path1021"
         d="m -12.672476,273.8343 -0.569487,-0.0777 -0.440057,0.56949 -1.2684,0.51771 0.05177,-0.85423 -0.880116,0.88012 -0.232973,-0.56949 -0.388284,0.38829 -0.906002,-0.46595 -0.207086,1.0872 -0.3624,0.0603 c -0.137188,0.45391 0.733717,0.65568 0.957772,0.76808 -0.118346,0.21297 -0.595393,0.29865 -0.258858,0.67303"
         style="fill:#e9fbff;fill-opacity:1;stroke:none;stroke-width:0.26458332px;stroke-linecap:butt;stroke-linejoin:miter;stroke-opacity:1"
         sodipodi:nodetypes="ccccccccccccc" />
      <path
         inkscape:connector-curvature="0"
         id="path1025"
         d="m -15.08702,278.31022 c -0.198274,-0.54973 -0.321014,-1.31015 -1.124923,-0.17047 l -0.113491,0.39428 0.07154,0.24124 c -0.292588,0.3154 0.438859,0.3312 0.680249,0.33917 0.214825,0.328 0.122502,0.6413 0.315389,0.58925 -0.105171,0.30904 -0.07651,0.45232 -0.271464,0.50776 l -0.01607,0.17196 0.792806,-1.53961 0.545021,0.69362 0.960133,0.0323 c 0.08824,0.66815 0.07038,-2.37731 0.264728,2.00445 l 1.522437,-0.0894 -0.03252,-1.76603 0.05236,-4.80731 c -0.04876,-1.05851 -0.717867,-0.91768 -1.231646,-1.07715 -0.443074,0.24615 -0.89006,0.49142 -0.391845,0.95228 -0.274758,0.11453 -0.728877,0.0391 -0.477109,0.71116"
         style="fill:#e9fbff;fill-opacity:1;stroke:none;stroke-width:0.26458332px;stroke-linecap:butt;stroke-linejoin:miter;stroke-opacity:1"
         sodipodi:nodetypes="cccccccccccccccccc" />
      <path
         inkscape:connector-curvature="0"
         id="path1023"
         d="m -17.176595,276.81116 -0.5436,-0.25886 c -0.179468,-0.25554 -0.209746,-0.75618 -0.595372,-0.67303 -0.22886,0.20954 -0.358256,0.54065 -1.011484,0.23151 -0.109824,0.0892 -0.185212,0.18068 -0.04983,0.28621 -0.07185,0.11656 -0.244344,0.0822 -0.103544,0.51771 0.111644,0.0456 0.205886,0.0598 0.235425,-0.0424 0.03309,0.33686 0.10638,0.3321 0.170679,0.40372 0.192743,-0.027 0.296559,0.22897 0.474012,-0.51665 0.213913,0.19241 0.338756,-0.12732 0.491829,-0.28474 0.102152,0.1076 -0.09378,0.42811 0.324204,0.31011 l 0.271168,0.25938 -0.229907,-0.0796 -0.313694,0.4679 c -0.255873,0.0947 -0.612392,-0.27609 -0.750686,0.36241 -0.172392,-0.35631 -0.451593,-0.27012 -0.737703,-0.15531 -0.384265,-0.609 -0.427563,-0.25527 -0.546478,-0.11504 0.0043,-0.26285 -0.10008,-0.12753 -0.191307,-0.0403 0.02443,-0.48869 -0.124195,-0.60394 -0.414171,-0.41418 -0.03558,-0.38666 -0.461687,0.0415 -0.308505,0.18424 0.04529,0.0422 0.01965,0.0347 -0.0021,0.10051 l 0.440057,0.3624 c 0.104738,0.21789 0.195454,0.51524 0.395561,0.19271 0.110578,0.19718 0.202842,0.6691 0.359496,0.17514 l 0.254487,0.12398 c 0.164673,1.08876 0.362386,0.29418 0.543601,0.44005 0.2416,-0.009 0.823333,0.6762 0.724801,-0.0259 0.426065,0.0688 0.06602,-0.37228 -0.07766,-0.67303 0.165069,0.20671 0.378706,0.69512 0.388287,0 0.481261,0.35105 0.615603,0.0603 0.776571,-0.1812 0.06552,-0.0857 0.132166,0.0279 0.440057,0.12943 0.264822,0.0873 0.07965,0.5323 -0.04663,0.55722 -0.170652,0.50487 -0.369533,0.41475 -0.574635,0.19348 l -0.440058,0.12943 0.3624,0.12943 0.232972,0.25886"
         style="fill:#e9fbff;fill-opacity:1;stroke:none;stroke-width:0.26458332px;stroke-linecap:butt;stroke-linejoin:miter;stroke-opacity:1"
         sodipodi:nodetypes="cccccccccccccccccccsccccccccccsccccc" />
    </g>
    <path
       style="fill:url(#linearGradient867);fill-opacity:1;stroke:none;stroke-width:0.13969375px;stroke-linecap:butt;stroke-linejoin:miter;stroke-opacity:1"
       d="m 7.3067503,285.87275 2.7018217,-0.86046 c 0.477274,0.36061 0.614783,0.0412 0.781043,-0.22055 l 0.577577,-0.2846 0.157521,-0.29882 0.311583,-0.21243 c 0.34575,-0.49456 0.402692,0.0419 0.481187,-0.13468 0.160655,-0.0286 0.303646,0.0192 0.414891,0.20481 v 0.31305 l 0.301915,-0.35573 0.236282,-0.21345 0.02626,0.6688 0.105013,0.49803 c 0.158407,0.0219 0.308585,0.017 0.393804,-0.19922 0.147997,-0.0372 0.30693,0.004 0.420055,-0.28459 0.104152,0.0696 0.200249,0.0686 0.275664,-0.11384 l 0.03938,-0.44111 c -0.0176,-0.15752 -0.02683,-0.30769 0.210029,-0.24191 0.18693,0.3229 0.119369,0.47338 0.01312,0.59765 0.111018,-0.0207 0.144341,0.0896 0.144394,0.25614 0.0636,-0.13965 0.14228,-0.0177 0.183775,-0.54074 0.08227,-0.0651 -0.232076,-0.71751 0.301916,-0.11384 l 0.11814,0.29883 c 0.03018,-0.10815 0.05822,-0.21943 0.196901,-0.17075 0.04949,0.0919 0.136058,0.10344 0.11814,0.34151 0.195611,0.0578 -0.092,0.2567 -0.183774,0.39842 0.06612,0.009 0.138976,-0.006 0.157521,0.17075 0.041,0.0763 0.566899,-0.0557 0.02626,0.27037 0.01139,0.22268 -0.14864,-0.0501 -0.236283,-0.11383 0.113156,0.17615 0.108866,0.28529 -0.01312,0.32728 l 0.183774,0.15652 c 0.05139,0.11062 0.04322,0.19016 -0.236281,0.12806 l -0.144394,0.15654 c 0.08994,0.007 0.179482,0.0142 0.196901,0.0996 0.06561,-0.0855 0.135135,-0.15818 0.249409,-0.0854 l 0.02626,0.15653 c -0.05998,0.1803 -0.08052,0.4059 -0.341296,0.35573 l -0.249407,0.3842 c 0.03057,0.17418 -0.219399,0.0645 -0.354422,0.0711 h -0.40693 c -0.08244,0.14828 -0.310825,0.10494 -0.564451,0.0284 l -0.472563,-0.0996 -0.354423,0.25614 v 0 c -0.106517,0.036 -0.281994,0.0631 -0.301915,-0.1423 l -0.393802,0.0427 c -0.253082,-0.005 -0.334668,-0.18129 -0.446309,-0.32729 -0.154653,0.1717 -0.289501,-0.043 -0.433184,-0.0854 0.09366,0.005 0.173809,0.0132 0.157522,0.39843 0.0111,0.058 0.156572,0.21092 -0.09189,0.0854 l -0.118142,-0.19921 c -0.08675,-0.0137 -0.198706,0.0147 -0.131267,-0.25614 l -0.234689,0.13712 c -0.546526,-0.44661 -0.297656,0.11685 -0.592296,-0.20819 l -0.236282,0.0427 0.196901,0.25613 c 0.04028,0.19084 -0.04019,0.13862 -0.07876,0.17076 -0.16579,-0.0286 -0.201223,-0.10437 -0.144394,-0.21345 l -0.118141,-0.19921 -0.2625349,0.0427 c -0.03454,0.21974 0,0 -0.183768,0.31297 l -0.105015,-0.22767 -0.0525,-0.057 -0.105014,0.0284 -0.037,0.26189 c -0.06294,-0.021 -0.114053,-0.12198 -0.08115,-0.20496 l -0.104355,-0.0803 -0.145053,-0.005 -0.170648,0.18498 -0.226341,0.25456 -0.2840103,0.11714 c -0.210534,0.23448 -0.5202209,-0.31488 -0.7754106,-0.55236 -0.1989813,0.0598 -0.3641545,-0.19856 -0.460096,-0.16085 l -0.3344175,-0.23715 c -0.2690418,-0.0797 -0.4698613,-0.14448 -0.7026111,-0.13239 l -0.4086604,-0.0939 c -0.1078924,-0.0854 -0.236328,-0.15842 -0.2378736,-0.30786 0.053358,-0.12107 0.7154647,-0.27872 1.0674315,0.005"
       id="path936-3"
       inkscape:connector-curvature="0"
       sodipodi:nodetypes="cccccccccccccccccccccccccccccccccccccccccccccccccccccccccccccccccccccccccccccc" />
    <path
       style="fill:#ccf7ff;fill-opacity:0.64285715;stroke:none;stroke-width:0.13638078px;stroke-linecap:butt;stroke-linejoin:miter;stroke-opacity:1"
       d="m 5.8610369,286.79101 2.5751888,-0.86046 c 0.4549039,0.36061 0.5859679,0.0412 0.7444352,-0.22055 l 0.5505067,-0.2846 0.1501381,-0.29882 0.2969793,-0.21243 c 0.329545,-0.49456 0.383818,0.0419 0.458634,-0.13468 0.153125,-0.0286 0.289414,0.0192 0.395445,0.20481 v 0.31305 l 0.287765,-0.35573 0.225207,-0.21345 0.02503,0.6688 0.100091,0.49803 c 0.150983,0.0219 0.294123,0.017 0.375347,-0.19922 0.14106,-0.0372 0.292545,0.004 0.400368,-0.28459 0.09927,0.0696 0.190863,0.0686 0.262743,-0.11384 l 0.03753,-0.44111 c -0.01677,-0.15752 -0.02557,-0.30769 0.200185,-0.24191 0.178169,0.3229 0.113774,0.47338 0.0125,0.59765 0.105815,-0.0207 0.137576,0.0896 0.137627,0.25614 0.06062,-0.13965 0.135611,-0.0177 0.175161,-0.54074 0.07841,-0.0651 -0.221199,-0.71751 0.287766,-0.11384 l 0.112602,0.29883 c 0.02877,-0.10815 0.05549,-0.21943 0.187673,-0.17075 0.04717,0.0919 0.129681,0.10344 0.112603,0.34151 0.186442,0.0578 -0.08769,0.2567 -0.175161,0.39842 0.06302,0.009 0.132462,-0.006 0.150138,0.17075 0.03908,0.0763 0.540329,-0.0557 0.02503,0.27037 0.01086,0.22268 -0.141673,-0.0501 -0.225208,-0.11383 0.107852,0.17615 0.103763,0.28529 -0.0125,0.32728 l 0.17516,0.15652 c 0.04898,0.11062 0.04119,0.19016 -0.225206,0.12806 l -0.137626,0.15654 c 0.08573,0.007 0.171069,0.0142 0.187672,0.0996 0.06253,-0.0855 0.128801,-0.15818 0.237719,-0.0854 l 0.02503,0.15653 c -0.05717,0.1803 -0.07675,0.4059 -0.325299,0.35573 l -0.237717,0.3842 c 0.02914,0.17418 -0.209116,0.0645 -0.337811,0.0711 h -0.387858 c -0.07858,0.14828 -0.296255,0.10494 -0.537994,0.0284 l -0.450415,-0.0996 -0.337811,0.25614 v 0 c -0.101524,0.036 -0.268777,0.0631 -0.287764,-0.1423 l -0.375345,0.0427 c -0.241221,-0.005 -0.318983,-0.18129 -0.425391,-0.32729 -0.147405,0.1717 -0.275933,-0.043 -0.4128812,-0.0854 0.08927,0.005 0.1656622,0.0132 0.1501392,0.39843 0.01058,0.058 0.149233,0.21092 -0.087583,0.0854 l -0.1126047,-0.19921 c -0.082684,-0.0137 -0.1893928,0.0147 -0.1251146,-0.25614 l -0.2236892,0.13712 c -0.5209106,-0.44661 -0.283705,0.11685 -0.5645354,-0.20819 l -0.2252074,0.0427 0.1876724,0.25613 c 0.038392,0.19084 -0.038306,0.13862 -0.075069,0.17076 -0.1580196,-0.0286 -0.1917918,-0.10437 -0.1376263,-0.21345 l -0.1126038,-0.19921 -0.2502304,0.0427 c -0.032923,0.21974 0,0 -0.1751551,0.31297 l -0.1000925,-0.22767 -0.050041,-0.057 -0.1000924,0.0284 -0.035261,0.26189 c -0.059986,-0.021 -0.1087072,-0.12198 -0.077348,-0.20496 l -0.099463,-0.0803 -0.1382547,-0.005 -0.1626504,0.18498 -0.2157317,0.25456 -0.2706991,0.11714 C 6.6794162,288.30816 6.3842442,287.7588 6.1410151,287.52132 5.95136,287.58112 5.7939284,287.32276 5.7024836,287.36047 L 5.383741,287.12332 c -0.2564319,-0.0797 -0.4478391,-0.14448 -0.66968,-0.13239 l -0.3895067,-0.0939 c -0.1028355,-0.0854 -0.2252514,-0.15842 -0.2267245,-0.30786 0.050857,-0.12107 0.6819312,-0.27872 1.0174014,0.005"
       id="path936-6"
       inkscape:connector-curvature="0"
       sodipodi:nodetypes="cccccccccccccccccccccccccccccccccccccccccccccccccccccccccccccccccccccccccccccc" />
    <path
       style="fill:#a7dfff;fill-opacity:1;stroke:none;stroke-width:0.14294775px;stroke-linecap:butt;stroke-linejoin:miter;stroke-opacity:1"
       d="m 3.4764905,286.29528 c -0.1036579,0.15345 -0.1712872,0.29187 0.1931454,0.25014 0.1446498,-0.16295 0.3027723,-0.21845 0.475436,-0.15798 0.4572067,-0.12913 0.4350998,0.13904 0.4754357,0.35544 0.036896,0.20423 0.1288445,0.34073 0.4160057,0.23696 -0.025541,-0.17382 0.1168675,-0.24019 0.5942954,-0.0921 0.5575237,0.0147 0.6328965,0.19769 0.7428683,0.36861 0.2201087,-0.0145 0.3849452,0.24301 0.5129107,0.26334 0.3312908,0.0526 0.4154333,-0.0775 0.5716769,-0.17119 0.047817,-0.19877 0.154867,-0.28303 0.356577,-0.1843 0.3038683,0.33626 0.3567279,0.15653 0.3120048,-0.22381 0.037879,-0.28402 0.315197,-0.23212 0.5051512,-0.30279 -0.2869833,0.94766 0.4447379,-0.164 0.5942942,0.0658 l 0.6685806,0.0526 c 0.1955296,0.0147 0.3648566,0.0127 0.3120056,-0.13163 0.178273,-0.01 0.50075,0.0998 0.50515,-0.0526 0.433084,0.16838 0.24428,-0.0807 0.252575,-0.19746 -0.13375,-0.13497 -0.202551,0.0511 -0.490293,-0.15797 0.126453,-0.0402 0.114128,-0.12135 0.0743,-0.21064 -0.0853,-0.0639 -0.201265,-0.0734 -0.356577,-0.0132 0.0327,0.17546 -0.07672,0.14627 -0.148573,0.17114 l -0.267433,-0.13165 -0.3120048,0.13165 -0.2377184,-0.13165 -0.014854,0.18431 0.1337164,0.18431 -0.3417216,-0.0132 H 8.7062805 c -0.1019079,-0.0374 -0.1771086,-0.15263 -0.3714336,0.079 l -0.059429,-0.1843 c -0.094885,-0.0434 -0.1307104,-0.25024 -0.3268614,-0.0132 -0.2191313,-0.0669 -0.2715051,0.014 -0.3268627,0.0921 -0.099578,-0.0558 -0.1987894,-0.11553 -0.3120048,-0.0263 l -0.148575,-0.19748 c 0.078099,-0.0481 0.2524075,0.0277 0.1931462,-0.19747 l -0.074295,-0.25013 c 0.220337,-0.0175 0.4074479,0.0269 0.6537253,0 l 0.1634319,0.15797 c 0.3377757,0.0141 0.3634142,-0.13322 0.3714324,-0.28962 l -0.014854,-0.35544 c 0.123398,0.13181 0.2457635,0.25313 0.341718,0.10534 0.097109,0.12483 0.1446727,0.0103 0.2187649,-0.0559 l -0.022744,-0.0718 -0.106871,-0.0172 c -0.024617,-0.0922 -0.045277,-0.18619 -0.014854,-0.3028 0.02965,-0.0921 0.052464,-0.18431 0.1634307,-0.27645 0.081962,-0.0129 0.1768932,-0.01 0.1782885,-0.11848 -0.023809,-0.0555 0.019841,-0.12193 0.023411,-0.18152 0.00176,-0.0297 -0.053962,-0.05 -0.038265,-0.0818 -0.023411,-0.0903 -0.083741,-0.0716 -0.1485741,-0.0395 l -0.044574,0.17115 c -0.176789,-0.0339 -0.1245708,0.0614 -0.1634307,0.10535 l -0.074295,-0.23696 -0.1337163,-0.0395 c 0.1210885,-0.0816 0.023575,-0.14029 -0.089149,-0.19746 -0.099859,-0.0135 -0.1415578,-0.17594 -0.356577,0.10534 -0.1792132,-0.002 -0.3058501,0.14983 -0.44572,0.26331 -0.140975,-0.0922 -0.2243004,0.0369 -0.3268638,0.0921 -0.3026698,0.12951 -0.3373519,0.0894 -0.4605779,0.10534 -0.1953305,0.0419 -0.3144478,0.15142 -0.3417192,0.34228 -0.2187754,-0.0395 -0.3044677,0.13731 -0.356577,0.36861 l 0.059429,0.11849 c 0.086796,0.0547 0.1640149,0.0373 0.2228607,-0.11849 l 0.1634307,-0.079 c -0.1612407,0.12168 -0.084982,0.2039 -0.02972,0.28962 l 0.1337163,0.19746 -0.089149,0.13165 -0.208004,-0.0132 -0.074295,0.10534 c 0.113906,0.0783 0.2278132,0.14603 0.3417204,0.0658 l 0.2080017,0.0658 0.014854,0.19749 c -0.050497,0.22654 -0.1467972,0.16898 -0.2377172,0.1448 -0.2180602,-0.11532 -0.1847815,0.011 -0.2525749,0.0395 l 0.089149,0.21063 c -0.1171239,0.0202 -0.2024638,0.0567 -0.02972,0.2238 -0.171456,0.007 -0.2671366,-0.0374 -0.3268638,-0.10534 -0.1514959,-0.0733 -0.2963125,-0.22966 -0.4605744,-0.14476 -0.1336648,-0.37474 -0.283921,-0.16154 -0.4308623,-0.0658 l -0.3714335,0.0395 c -0.068231,-0.0673 -0.1503604,-0.0607 -0.1931463,-0.26329 -0.054173,-0.1322 -0.1107572,-0.26244 -0.3565773,-0.23697 -0.1924014,0.0994 -0.2368024,0.0113 -0.3417196,0 -0.1575859,-0.0634 -0.2673282,-0.0299 -0.3268618,0.10536 -0.072228,0.1742 -0.1847835,0.11617 -0.2822893,0.1448 z"
       id="path1002-7"
       inkscape:connector-curvature="0"
       sodipodi:nodetypes="cccccccscccccccccccccccccccccccccccccccccccccccscccccccccccccccccccccccccccccccccccccc" />
    <path
       style="fill:#d9f3ff;fill-opacity:1;stroke:none;stroke-width:0.14304315px;stroke-linecap:butt;stroke-linejoin:miter;stroke-opacity:1"
       d="m 8.51832,285.76814 0.3700227,-0.13341 0.21502,0.0556 c 0.2616101,0.45263 0.1002338,-0.19525 0.4144252,-0.0763 l 0.1943034,-0.0289 c 0.1771336,0.0634 0.2831406,0.0406 0.1311466,-0.12378 -0.047948,-0.0518 0.076765,-0.0476 0.044608,-0.099 -0.05066,-0.0808 -0.160959,-0.0963 -0.3683913,0.0744 -0.3442248,-0.004 -0.083593,-0.11335 -0.3540951,-0.11745 L 9.6484194,285.26 c 0.2025805,-0.10396 0.7580126,-0.38357 0.7977006,-0.69974 0.160229,0.0115 0.374688,-0.16346 0.401441,0.17563 0.202041,-0.0424 0.02341,-0.24304 0.225811,-0.27599 0.120875,0.0712 0.185718,0.21658 0.278078,0.11744 0.07446,-0.0197 0.27791,-0.17909 0.370203,-0.0918 -0.01522,0.10785 0.0016,0.21044 -0.118955,0.33587 -0.106547,-0.0658 -0.61182,-0.0163 -0.546377,0.34792 -0.02443,0.0444 0.07846,-0.0293 0.169927,0.052 0.06175,0.0549 0.179267,-0.0396 0.113887,-0.15577 -0.04798,-0.0853 0.119593,-0.002 0.171597,0.008 0.107548,-0.11349 0.242322,-0.13618 0.405847,-0.063 l -0.02099,0.21692 c 0.279068,0.0524 0.411262,-0.12378 0.524804,-0.32888 l -0.167938,-0.18213 c 0.114897,-0.099 0.265103,-0.19393 0.05598,-0.32887 -0.08562,-0.18619 -0.164167,-0.40416 -0.321879,-0.2659 -0.164896,0.0629 -0.315197,0.10306 -0.314882,-0.0909 -0.03045,-0.13971 -0.08106,-0.24161 -0.258903,-0.10503 -0.03871,0.13647 -0.163632,0.16937 -0.29389,0.19593 l -0.223916,-0.021 c -0.08035,10e-4 -0.148907,0.0144 -0.118954,0.12589 l -0.181932,-0.14694 -0.286893,-0.0281 c -0.171733,-0.11955 -0.3341896,-0.14642 -0.4688239,0.10489 -0.2750971,0.15291 -0.3037032,0.35064 -0.3848558,0.5388 -0.1568593,-0.25746 -0.2620168,-0.0237 -0.3848557,0.042 l -0.00699,0.16794 c -0.067556,-0.23012 -0.1483267,-0.22238 -0.237911,-0.056 l -0.10911,0.11641 0.040055,0.15746 c -0.1748222,0.19119 -0.1969767,0.016 -0.2712901,-0.0341 z"
       id="path978-5"
       inkscape:connector-curvature="0"
       sodipodi:nodetypes="cccccssccccccccccssccccccccccccccccccccccc" />
    <path
       style="fill:#a7dfff;fill-opacity:1;stroke:none;stroke-width:0.1321243px;stroke-linecap:butt;stroke-linejoin:miter;stroke-opacity:1"
       d="m 8.0502257,285.79529 c -0.088555,0.15345 -0.1463308,0.29187 0.1650043,0.25014 0.1235744,-0.16295 0.2586586,-0.21845 0.4061653,-0.15798 0.3905918,-0.12913 0.371706,0.13904 0.4061653,0.35544 0.03152,0.20423 0.1100715,0.34073 0.3553938,0.23696 -0.02182,-0.17382 0.099836,-0.24019 0.507707,-0.0921 0.4762926,0.0147 0.5406836,0.19769 0.6346326,0.36861 0.188039,-0.0145 0.328859,0.24301 0.43818,0.26334 0.283022,0.0526 0.354905,-0.0775 0.488384,-0.17119 0.04085,-0.19877 0.132303,-0.28303 0.304624,-0.1843 0.259595,0.33626 0.304753,0.15653 0.266546,-0.22381 0.03236,-0.28402 0.269273,-0.23212 0.431551,-0.30279 -0.24517,0.94766 0.37994,-0.164 0.507706,0.0658 l 0.571169,0.0526 c 0.167041,0.0147 0.311697,0.0127 0.266547,-0.13163 0.152298,-0.01 0.427791,0.0998 0.43155,-0.0526 0.369983,0.16838 0.208688,-0.0807 0.215775,-0.19746 -0.114263,-0.13497 -0.17304,0.0511 -0.418858,-0.15797 0.108029,-0.0402 0.0975,-0.12135 0.06347,-0.21064 -0.07287,-0.0639 -0.171941,-0.0734 -0.304624,-0.0132 0.02794,0.17546 -0.06554,0.14627 -0.126926,0.17114 l -0.228468,-0.13165 -0.266546,0.13165 -0.203083,-0.13165 -0.01269,0.18431 0.114235,0.18431 -0.291933,-0.0132 H 12.51804 c -0.08706,-0.0374 -0.151304,-0.15263 -0.317316,0.079 l -0.05077,-0.1843 c -0.08106,-0.0434 -0.111666,-0.25024 -0.279238,-0.0132 -0.187203,-0.0669 -0.231947,0.014 -0.279239,0.0921 -0.08507,-0.0558 -0.169825,-0.11553 -0.266546,-0.0263 l -0.126927,-0.19748 c 0.06672,-0.0481 0.215631,0.0277 0.165005,-0.19747 l -0.06347,-0.25013 c 0.188234,-0.0175 0.348083,0.0269 0.558478,0 l 0.139619,0.15797 c 0.288562,0.0141 0.310466,-0.13322 0.317316,-0.28962 l -0.01269,-0.35544 c 0.105419,0.13181 0.209956,0.25313 0.29193,0.10534 0.08296,0.12483 0.123594,0.0103 0.186891,-0.0559 l -0.01943,-0.0718 -0.0913,-0.0172 c -0.02103,-0.0922 -0.03868,-0.18619 -0.01269,-0.3028 0.02533,-0.0921 0.04482,-0.18431 0.139619,-0.27645 0.07002,-0.0129 0.15112,-0.01 0.152312,-0.11848 -0.02034,-0.0555 0.01695,-0.12193 0.02,-0.18152 0.0015,-0.0297 -0.0461,-0.05 -0.03269,-0.0818 -0.02,-0.0903 -0.07154,-0.0716 -0.126927,-0.0395 l -0.03808,0.17115 c -0.151031,-0.0339 -0.106421,0.0614 -0.139619,0.10535 l -0.06347,-0.23696 -0.114234,-0.0395 c 0.103445,-0.0816 0.02014,-0.14029 -0.07616,-0.19746 -0.08531,-0.0135 -0.120933,-0.17594 -0.304624,0.10534 -0.153102,-0.002 -0.261288,0.14983 -0.380779,0.26331 -0.120435,-0.0922 -0.19162,0.0369 -0.27924,0.0921 -0.258571,0.12951 -0.2882,0.0894 -0.393472,0.10534 -0.166871,0.0419 -0.268633,0.15142 -0.291931,0.34228 -0.1869,-0.0395 -0.260107,0.13731 -0.304624,0.36861 l 0.05077,0.11849 c 0.07415,0.0547 0.140118,0.0373 0.19039,-0.11849 l 0.139619,-0.079 c -0.137748,0.12168 -0.0726,0.2039 -0.02539,0.28962 l 0.114234,0.19746 -0.07616,0.13165 -0.177698,-0.0132 -0.06347,0.10534 c 0.09731,0.0783 0.194621,0.14603 0.291932,0.0658 l 0.177696,0.0658 0.01269,0.19749 c -0.04314,0.22654 -0.125409,0.16898 -0.203082,0.1448 -0.186289,-0.11532 -0.157859,0.011 -0.215775,0.0395 l 0.07616,0.21063 c -0.100059,0.0202 -0.172965,0.0567 -0.02539,0.2238 -0.146474,0.007 -0.228214,-0.0374 -0.279239,-0.10534 -0.129423,-0.0733 -0.25314,-0.22966 -0.393469,-0.14476 -0.1141906,-0.37474 -0.2425546,-0.16154 -0.3680866,-0.0658 l -0.3173163,0.0395 c -0.058286,-0.0673 -0.1284521,-0.0607 -0.1650043,-0.26329 -0.046283,-0.1322 -0.094615,-0.26244 -0.3046245,-0.23697 -0.1643686,0.0994 -0.2023004,0.0113 -0.2919313,0 -0.1346257,-0.0634 -0.2283787,-0.0299 -0.2792383,0.10536 -0.061704,0.1742 -0.1578607,0.11617 -0.2411599,0.1448 z"
       id="path1002"
       inkscape:connector-curvature="0"
       sodipodi:nodetypes="cccccccscccccccccccccccccccccccccccccccccccccccscccccccccccccccccccccccccccccccccccccc" />
    <path
       style="fill:#d9f3ff;fill-opacity:1;stroke:none;stroke-width:0.14304315px;stroke-linecap:butt;stroke-linejoin:miter;stroke-opacity:1"
       d="m 9.0568832,285.89051 0.3700227,-0.13341 0.21502,0.0556 c 0.2616101,0.45263 0.1002338,-0.19525 0.4144251,-0.0763 l 0.194304,-0.0289 c 0.177133,0.0634 0.28314,0.0406 0.131146,-0.12378 -0.04795,-0.0518 0.07676,-0.0476 0.04461,-0.099 -0.05066,-0.0808 -0.160959,-0.0963 -0.368391,0.0744 -0.344225,-0.004 -0.083593,-0.11335 -0.3540953,-0.11745 l 0.4830603,-0.0593 c 0.20258,-0.10396 0.758012,-0.38357 0.7977,-0.69974 0.160229,0.0115 0.374689,-0.16346 0.401441,0.17563 0.202041,-0.0424 0.02341,-0.24304 0.225811,-0.27599 0.120876,0.0712 0.185718,0.21658 0.278078,0.11744 0.07446,-0.0197 0.27791,-0.17909 0.370203,-0.0918 -0.01522,0.10785 0.0016,0.21044 -0.118955,0.33587 -0.106547,-0.0658 -0.611819,-0.0163 -0.546377,0.34792 -0.02443,0.0444 0.07846,-0.0293 0.169928,0.052 0.06175,0.0549 0.179266,-0.0396 0.113886,-0.15577 -0.04798,-0.0853 0.119593,-0.002 0.171597,0.008 0.107548,-0.11349 0.242322,-0.13618 0.405848,-0.063 l -0.02099,0.21692 c 0.279068,0.0524 0.411261,-0.12378 0.524803,-0.32888 l -0.167937,-0.18213 c 0.114897,-0.099 0.265102,-0.19393 0.05598,-0.32887 -0.08562,-0.18619 -0.164168,-0.40416 -0.32188,-0.2659 -0.164896,0.0629 -0.315197,0.10306 -0.314882,-0.0909 -0.03045,-0.13971 -0.08106,-0.24161 -0.258902,-0.10503 -0.03871,0.13647 -0.163633,0.16937 -0.293891,0.19593 l -0.223916,-0.021 c -0.08035,10e-4 -0.148907,0.0144 -0.118954,0.12589 l -0.181932,-0.14694 -0.286892,-0.0281 c -0.171734,-0.11955 -0.33419,-0.14642 -0.468825,0.10489 -0.275097,0.15291 -0.303703,0.35064 -0.3848555,0.5388 -0.1568593,-0.25746 -0.2620168,-0.0237 -0.3848557,0.042 l -0.00699,0.16794 c -0.067556,-0.23012 -0.1483267,-0.22238 -0.237911,-0.056 l -0.10911,0.11641 0.040055,0.15746 c -0.1748222,0.19119 -0.1969767,0.016 -0.2712901,-0.0341 z"
       id="path978-3"
       inkscape:connector-curvature="0"
       sodipodi:nodetypes="cccccssccccccccccssccccccccccccccccccccccc" />
    <path
       style="fill:#f2f2f2;fill-opacity:0.51904762;stroke:none;stroke-width:0.13638078px;stroke-linecap:butt;stroke-linejoin:miter;stroke-opacity:1"
       d="m 6.7086201,286.78345 2.5751889,-0.86046 c 0.454904,0.36061 0.585968,0.0412 0.744435,-0.22055 l 0.550507,-0.2846 0.150138,-0.29882 0.296979,-0.21243 c 0.329545,-0.49456 0.383818,0.0419 0.458634,-0.13468 0.153125,-0.0286 0.289414,0.0192 0.395445,0.20481 v 0.31305 l 0.287765,-0.35573 0.225207,-0.21345 0.02503,0.6688 0.100091,0.49803 c 0.150983,0.0219 0.294123,0.017 0.375347,-0.19922 0.14106,-0.0372 0.292545,0.004 0.400368,-0.28459 0.09927,0.0696 0.190863,0.0686 0.262743,-0.11384 l 0.03753,-0.44111 c -0.01677,-0.15752 -0.02557,-0.30769 0.200185,-0.24191 0.178169,0.3229 0.113774,0.47338 0.0125,0.59765 0.105815,-0.0207 0.137576,0.0896 0.137627,0.25614 0.06062,-0.13965 0.135611,-0.0177 0.175161,-0.54074 0.07841,-0.0651 -0.221199,-0.71751 0.287766,-0.11384 l 0.112602,0.29883 c 0.02877,-0.10815 0.05549,-0.21943 0.187673,-0.17075 0.04717,0.0919 0.129681,0.10344 0.112603,0.34151 0.186442,0.0578 -0.08769,0.2567 -0.175161,0.39842 0.06302,0.009 0.132462,-0.006 0.150138,0.17075 0.03908,0.0763 0.540329,-0.0557 0.02503,0.27037 0.01086,0.22268 -0.141673,-0.0501 -0.225208,-0.11383 0.107852,0.17615 0.103763,0.28529 -0.0125,0.32728 l 0.17516,0.15652 c 0.04898,0.11062 0.04119,0.19016 -0.225206,0.12806 l -0.137625,0.15654 c 0.08573,0.007 0.171069,0.0142 0.187671,0.0996 0.06253,-0.0855 0.128801,-0.15818 0.23772,-0.0854 l 0.02503,0.15653 c -0.05717,0.1803 -0.07675,0.4059 -0.325299,0.35573 l -0.237717,0.3842 c 0.02914,0.17418 -0.209116,0.0645 -0.337811,0.0711 h -0.38786 c -0.07858,0.14828 -0.296255,0.10494 -0.537994,0.0284 l -0.450415,-0.0996 -0.337811,0.25614 v 0 c -0.101524,0.036 -0.268777,0.0631 -0.287764,-0.1423 l -0.375345,0.0427 c -0.241221,-0.005 -0.318983,-0.18129 -0.425391,-0.32729 -0.147405,0.1717 -0.275933,-0.043 -0.412881,-0.0854 0.08927,0.005 0.165662,0.0132 0.150139,0.39843 0.01058,0.058 0.149233,0.21092 -0.08758,0.0854 l -0.112605,-0.19921 c -0.08268,-0.0137 -0.189393,0.0147 -0.125114,-0.25614 l -0.22369,0.13712 c -0.52091,-0.44661 -0.283705,0.11685 -0.564535,-0.20819 l -0.225207,0.0427 0.187672,0.25613 c 0.03839,0.19084 -0.03831,0.13862 -0.07507,0.17076 -0.15802,-0.0286 -0.191792,-0.10437 -0.137626,-0.21345 l -0.112604,-0.19921 -0.2502305,0.0427 c -0.032923,0.21974 0,0 -0.1751552,0.31297 l -0.1000924,-0.22767 -0.050041,-0.057 -0.1000924,0.0284 -0.035261,0.26189 c -0.059986,-0.021 -0.108707,-0.12198 -0.077348,-0.20496 l -0.099463,-0.0803 -0.1382546,-0.005 -0.1626505,0.18498 -0.2157317,0.25456 -0.2706989,0.11714 c -0.2006664,0.23448 -0.4958384,-0.31488 -0.7390675,-0.55236 -0.1896551,0.0598 -0.3470867,-0.19856 -0.4385315,-0.16085 l -0.3187426,-0.23715 c -0.2564319,-0.0797 -0.4478391,-0.14448 -0.66968,-0.13239 l -0.3895067,-0.0939 c -0.1028365,-0.0854 -0.2252524,-0.15842 -0.2267255,-0.30786 0.050857,-0.12107 0.6819312,-0.27872 1.0174014,0.005"
       id="path936-6-6"
       inkscape:connector-curvature="0"
       sodipodi:nodetypes="cccccccccccccccccccccccccccccccccccccccccccccccccccccccccccccccccccccccccccccc" />
    <path
       style="fill:#cccccc;fill-opacity:0.51904764;stroke:none;stroke-width:0.13638078px;stroke-linecap:butt;stroke-linejoin:miter;stroke-opacity:1"
       d="m 4.7684259,286.12382 2.575189,0.86046 c 0.454904,-0.36061 0.585968,-0.0412 0.744435,0.22055 l 0.550507,0.2846 0.150138,0.29882 0.296979,0.21243 c 0.329545,0.49456 0.383818,-0.0419 0.458634,0.13468 0.153126,0.0286 0.289415,-0.0192 0.3954455,-0.20481 v -0.31305 l 0.2877636,0.35573 0.225207,0.21345 0.02503,-0.6688 0.100091,-0.49803 c 0.150983,-0.0219 0.294123,-0.017 0.375347,0.19922 0.14106,0.0372 0.292545,-0.004 0.400368,0.28459 0.09927,-0.0696 0.190863,-0.0686 0.262743,0.11384 l 0.03753,0.44111 c -0.01677,0.15752 -0.02557,0.30769 0.200185,0.24191 0.178169,-0.3229 0.113774,-0.47338 0.0125,-0.59765 0.105816,0.0207 0.137576,-0.0896 0.137627,-0.25614 0.06062,0.13965 0.135611,0.0177 0.175162,0.54074 0.07841,0.0651 -0.2212,0.71751 0.287765,0.11384 l 0.112603,-0.29883 c 0.02877,0.10815 0.05549,0.21943 0.187672,0.17075 0.04717,-0.0919 0.129681,-0.10344 0.112603,-0.34151 0.186443,-0.0578 -0.08769,-0.2567 -0.175161,-0.39842 0.06302,-0.009 0.132462,0.006 0.150138,-0.17075 0.03908,-0.0763 0.540329,0.0557 0.02503,-0.27037 0.01086,-0.22268 -0.141673,0.0501 -0.225208,0.11383 0.107852,-0.17615 0.103763,-0.28529 -0.0125,-0.32728 l 0.17516,-0.15652 c 0.04898,-0.11062 0.04119,-0.19016 -0.225206,-0.12806 l -0.137624,-0.15654 c 0.08573,-0.007 0.171069,-0.0142 0.187672,-0.0996 0.06253,0.0855 0.128801,0.15818 0.237719,0.0854 l 0.02503,-0.15653 c -0.05717,-0.1803 -0.07675,-0.4059 -0.325298,-0.35573 l -0.237717,-0.3842 c 0.02914,-0.17418 -0.209116,-0.0645 -0.337811,-0.0711 h -0.387862 c -0.07858,-0.14828 -0.296255,-0.10494 -0.537994,-0.0284 l -0.450415,0.0996 -0.337811,-0.25614 v 0 c -0.101523,-0.036 -0.268777,-0.0631 -0.287764,0.1423 l -0.3753431,-0.0427 c -0.241222,0.005 -0.318983,0.18129 -0.425391,0.32729 -0.147406,-0.1717 -0.275934,0.043 -0.412882,0.0854 0.08927,-0.005 0.165663,-0.0132 0.150139,-0.39843 0.01058,-0.058 0.149233,-0.21092 -0.08758,-0.0854 l -0.112605,0.19921 c -0.08268,0.0137 -0.189393,-0.0147 -0.125114,0.25614 l -0.22369,-0.13712 c -0.52091,0.44661 -0.283705,-0.11685 -0.564535,0.20819 l -0.225207,-0.0427 0.187672,-0.25613 c 0.03839,-0.19084 -0.03831,-0.13862 -0.07507,-0.17076 -0.15802,0.0286 -0.191792,0.10437 -0.137626,0.21345 l -0.112604,0.19921 -0.25023,-0.0427 c -0.03292,-0.21974 0,0 -0.175155,-0.31297 l -0.100093,0.22767 -0.05004,0.057 -0.100092,-0.0284 -0.03526,-0.26189 c -0.05999,0.021 -0.108707,0.12198 -0.07735,0.20496 l -0.09946,0.0803 -0.138255,0.005 -0.16265,-0.18498 -0.215732,-0.25456 -0.270699,-0.11714 c -0.200666,-0.23448 -0.495838,0.31488 -0.739067,0.55236 -0.189656,-0.0598 -0.347087,0.19856 -0.438532,0.16085 l -0.318743,0.23715 c -0.256431,0.0797 -0.447839,0.14448 -0.66968,0.13239 l -0.389506,0.0939 c -0.102837,0.0854 -0.225253,0.15842 -0.226726,0.30786 0.05086,0.12107 0.681932,0.27872 1.017402,-0.005"
       id="path936-6-6-2"
       inkscape:connector-curvature="0"
       sodipodi:nodetypes="cccccccccccccccccccccccccccccccccccccccccccccccccccccccccccccccccccccccccccccc" />
    <path
       style="fill:#f2f2f2;fill-opacity:0.83809525;stroke:none;stroke-width:0.12822519px;stroke-linecap:butt;stroke-linejoin:miter;stroke-opacity:1"
       d="m 12.396632,286.42012 c 0.225903,-0.11063 0.446029,-0.29006 0.723478,0.0717 -0.0055,-0.2605 0.115292,-0.28107 0.27599,-0.2258 l 0.351261,-0.0753 c -0.104378,-0.0606 -0.01639,-0.12127 0,-0.1819 -0.365859,0.12279 -0.591602,0.0704 -0.827972,0.0314 0.277425,-0.1319 0.57567,-0.23604 0.903242,-0.30108 0.171309,-0.13116 0.346371,-0.22105 0.501801,-0.52689 0.157769,-0.0304 0.353174,-0.20066 0.401441,0.17563 -0.0098,-0.14304 0.06835,-0.23331 0.22581,-0.27599 0.324373,0.14286 0.627289,0.3831 0.08154,0.47671 -0.19048,0.20875 -0.01886,0.22693 0.09409,0.27599 0.150541,-0.46378 0.301081,-0.34656 0.451621,-0.15054 0.200444,0.12373 0.0037,0.26115 -0.27599,0.40144 l 0.395168,-0.0439 c 0.212939,0.10454 -0.285723,0.40354 -1.003602,0.60844 l -0.257173,0.23835 c -0.292013,-0.0249 -0.452321,0.10434 -0.545708,0.21954 -0.292147,0.13627 -0.185033,-0.0516 -0.652776,-0.005 -0.195398,0.15182 -0.237917,0.11079 -0.521276,0.003 l -0.34541,-0.0542 0.0015,-0.12583 z"
       id="path967-9-1"
       inkscape:connector-curvature="0"
       sodipodi:nodetypes="ccccccccccccccccccccccc" />
    <path
       style="fill:#f2f2f2;fill-opacity:0.83809527;stroke:none;stroke-width:0.12822519px;stroke-linecap:butt;stroke-linejoin:miter;stroke-opacity:1"
       d="m 9.465965,284.76435 c 0.225903,0.11063 0.446029,0.29006 0.723478,-0.0717 -0.0055,0.2605 0.115292,0.28107 0.27599,0.2258 l 0.351261,0.0753 c -0.104378,0.0606 -0.01639,0.12127 0,0.1819 -0.365859,-0.12279 -0.591602,-0.0704 -0.827972,-0.0314 0.277425,0.1319 0.57567,0.23604 0.903242,0.30108 0.171309,0.13116 0.346371,0.22105 0.501801,0.52689 0.157769,0.0304 0.353174,0.20066 0.401441,-0.17563 -0.0098,0.14304 0.06835,0.23331 0.22581,0.27599 0.324373,-0.14286 0.627289,-0.3831 0.08154,-0.47671 -0.19048,-0.20875 -0.01886,-0.22693 0.09409,-0.27599 0.150541,0.46378 0.301081,0.34656 0.451621,0.15054 0.200444,-0.12373 0.0037,-0.26115 -0.27599,-0.40144 l 0.395168,0.0439 c 0.212939,-0.10454 -0.285723,-0.40354 -1.003602,-0.60844 l -0.257173,-0.23835 c -0.292013,0.0249 -0.452321,-0.10434 -0.545708,-0.21954 -0.292147,-0.13627 -0.185033,0.0516 -0.652776,0.005 -0.195398,-0.15182 -0.237917,-0.11079 -0.521276,-0.003 l -0.34541,0.0542 0.0015,0.12583 z"
       id="path967-9-1-2"
       inkscape:connector-curvature="0"
       sodipodi:nodetypes="ccccccccccccccccccccccc" />
    <path
       style="fill:#cccccc;stroke:none;stroke-width:0.26458126px;stroke-linecap:butt;stroke-linejoin:miter;stroke-opacity:1"
       d="m 3.832694,288.09865 c 0,0 0.076396,0.33016 0.4411891,0.0495 0.089066,-0.0686 0.1294674,0.39528 0.4708702,-0.18086 0,0 0.1488199,0.0211 0.2488962,0.18687 0.3465237,0.5739 1.1758421,0.79484 1.4553802,0.767 0.520222,-0.0518 0.6387026,-0.0786 0.9638075,-0.0287 -0.1207761,-0.3253 -0.2069097,-0.27175 -0.8525067,-0.59873 -0.3853158,-0.13497 -0.5138988,-0.0866 -0.761956,-0.12349 -0.094563,-0.024 -0.177477,-0.0482 -0.4153506,-0.35601 0,0 0.5477675,0.17161 0.5821429,-0.13301 0.02924,-0.2591 0.4612857,0.39678 0.3973289,0.0218 -0.1058284,-0.62051 -0.7506114,-2.26732 -0.7934736,-2.32447 -0.099219,-0.13229 -1.4634765,-0.12402 -1.5296224,-0.12402 -0.066146,0 -1.2815755,0.25631 -1.2815755,0.25631 l -0.3897177,1.92476 c 1.4410331,0.10326 1.0796425,0.40343 1.4645875,0.66316 z"
       id="path1010"
       inkscape:connector-curvature="0"
       sodipodi:nodetypes="cssssccccsssscccc" />
    <path
       style="fill:#b1e4ff;fill-opacity:1;stroke:none;stroke-width:0.12822519px;stroke-linecap:butt;stroke-linejoin:miter;stroke-opacity:1"
       d="m 1.0136694,286.62677 c 0.2259022,-0.11063 0.4460283,-0.29006 0.7234773,0.0717 -0.0055,-0.2605 0.1152924,-0.28107 0.2759906,-0.2258 l 0.3512606,-0.0753 c -0.1043778,-0.0606 -0.016392,-0.12127 0,-0.1819 -0.3658591,0.12279 -0.5916014,0.0704 -0.8279716,0.0314 0.2774249,-0.1319 0.57567,-0.23604 0.9032417,-0.30108 0.1713094,-0.13116 0.3463714,-0.22105 0.5018011,-0.52689 0.1577684,-0.0304 0.3531741,-0.20066 0.4014407,0.17563 -0.00979,-0.14304 0.068347,-0.23331 0.2258105,-0.27599 0.3243728,0.14286 0.627289,0.3831 0.081543,0.47671 -0.1904806,0.20875 -0.018857,0.22693 0.094088,0.27599 0.1505404,-0.46378 0.3010806,-0.34656 0.4516209,-0.15054 0.2004437,0.12373 0.00368,0.26115 -0.2759906,0.40144 l 0.3951683,-0.0439 c 0.2129387,0.10454 -0.2857224,0.40354 -1.0036019,0.60844 l -0.2571731,0.23835 c -0.2920134,-0.0249 -0.4523212,0.10434 -0.5457085,0.21954 -0.2921461,0.13627 -0.1850326,-0.0516 -0.6527754,-0.005 -0.1953981,0.15182 -0.2379172,0.11079 -0.5212761,0.003 l -0.34541033,-0.0542 0.001514,-0.12583 z"
       id="path967"
       inkscape:connector-curvature="0"
       sodipodi:nodetypes="ccccccccccccccccccccccc" />
    <path
       style="fill:#598282;fill-opacity:1;stroke:none;stroke-width:0.09856899px;stroke-linecap:butt;stroke-linejoin:miter;stroke-opacity:1"
       d="m 1.0105337,288.11572 c 0.4652935,0.88303 1.1129312,0.63305 1.5878353,0.40738 0.5797443,0.0315 1.3171244,-0.41606 1.7743234,0.10181 0.910199,0.0311 1.4043425,0.47141 1.7234135,0.56633 0.046704,-0.0134 0.1892261,0.25637 0.4108846,0.27768 0.1564992,0.0151 0.6409858,0.084 0.8061556,0.18457 0.3678328,0.22392 0.6258829,0.0147 0.7003063,-0.0297 0.1139421,-0.068 -0.1147694,-0.41559 -0.197375,-0.60656 -0.2981189,-0.68918 -0.684358,-0.15134 -0.7399057,-0.16705 -0.1283188,-0.0363 -1.1913083,-0.11759 -1.2955205,-0.17552 -0.151773,-0.097 -0.2241417,-0.25524 -0.4766217,-0.20121 l -0.4104563,-0.48499 c -0.5865111,-0.16582 -0.7585412,0.30131 -1.0608792,0.1103 0.02811,-0.26401 -0.66543,-1.02916 -1.253612,-0.67508 -0.289295,-0.0682 -0.57859,-0.16765 -0.867885,-0.0386 l -0.72199246,-0.0964 z"
       id="path906"
       inkscape:connector-curvature="0"
       sodipodi:nodetypes="ccccssssscccccccc" />
    <path
       style="fill:#f2f2f2;fill-opacity:1;stroke:none;stroke-width:0.12822519px;stroke-linecap:butt;stroke-linejoin:miter;stroke-opacity:1"
       d="m 4.2800802,287.29904 c 0.2259022,-0.11063 0.4460283,-0.29006 0.7234773,0.0717 -0.0055,-0.2605 0.1152924,-0.28107 0.2759906,-0.2258 l 0.3512606,-0.0753 c -0.1043777,-0.0606 -0.016392,-0.12127 0,-0.1819 -0.3658591,0.12279 -0.5916014,0.0704 -0.8279716,0.0314 0.2774249,-0.1319 0.57567,-0.23604 0.9032418,-0.30108 0.1713094,-0.13116 0.3463713,-0.22105 0.5018011,-0.52689 0.1577684,-0.0304 0.353174,-0.20066 0.4014407,0.17563 -0.00979,-0.14304 0.068347,-0.23331 0.2258105,-0.27599 0.3243728,0.14286 0.627289,0.3831 0.081543,0.47671 -0.1904807,0.20875 -0.018857,0.22693 0.094088,0.27599 0.1505405,-0.46378 0.3010808,-0.34656 0.451621,-0.15054 0.2004436,0.12373 0.00368,0.26115 -0.2759906,0.40144 l 0.3951682,-0.0439 c 0.2129388,0.10454 -0.2857225,0.40354 -1.0036018,0.60844 l -0.2571731,0.23835 c -0.2920134,-0.0249 -0.4523213,0.10434 -0.5457086,0.21954 -0.2921461,0.13627 -0.1850326,-0.0516 -0.6527754,-0.005 -0.1953981,0.15182 -0.2379172,0.11079 -0.5212761,0.003 l -0.3454104,-0.0542 0.00151,-0.12583 z"
       id="path967-9"
       inkscape:connector-curvature="0"
       sodipodi:nodetypes="ccccccccccccccccccccccc" />
    <path
       style="fill:#dae1e2;fill-opacity:1;stroke:none;stroke-width:0.12822519px;stroke-linecap:butt;stroke-linejoin:miter;stroke-opacity:1"
       d="m 6.5459382,287.02649 c -0.2449517,0.0571 -0.4997123,0.18265 -0.6889692,-0.23213 -0.053053,0.2551 -0.1753799,0.24806 -0.3195939,0.15816 l -0.3592085,-0.005 c 0.088165,0.0824 -0.011257,0.12189 -0.040792,0.17727 0.3840756,-0.0376 0.5923161,0.0641 0.8139347,0.15505 -0.2999376,0.0663 -0.6139361,0.10093 -0.9477518,0.0909 -0.196359,0.0894 -0.3871198,0.13775 -0.6071711,0.40094 -0.1605695,-0.006 -0.389182,0.11636 -0.3518384,-0.26117 -0.022536,0.14159 -0.1189275,0.21204 -0.2819492,0.21832 -0.2840697,-0.21196 -0.5254187,-0.514 0.027436,-0.48286 0.2324379,-0.16071 0.069261,-0.21691 -0.029802,-0.29005 -0.2507105,0.41821 -0.3711307,0.27022 -0.473876,0.0454 -0.1675827,-0.16554 0.054971,-0.25533 0.3589764,-0.32933 l -0.3949316,-0.0459 c -0.1840515,-0.14963 0.3689366,-0.32918 1.1144791,-0.36788 l 0.3040771,-0.17462 c 0.278985,0.0898 0.4641948,-2.5e-4 0.5810369,-0.0916 0.3152671,-0.0673 0.1687521,0.0918 0.6350384,0.15121 0.2244691,-0.10414 0.2567007,-0.0546 0.5086835,0.11394 l 0.324452,0.13032 -0.029693,0.12229 z"
       id="path967-9-7"
       inkscape:connector-curvature="0"
       sodipodi:nodetypes="ccccccccccccccccccccccc" />
    <path
       style="fill:#e9fbff;fill-opacity:1;stroke:none;stroke-width:0.14294775px;stroke-linecap:butt;stroke-linejoin:miter;stroke-opacity:1"
       d="m 2.9146939,286.99311 c -0.1036579,0.15345 -0.1712872,0.29187 0.1931455,0.25014 0.1446498,-0.16295 0.3027723,-0.21845 0.475436,-0.15798 0.4572066,-0.12913 0.4350997,0.13904 0.4754356,0.35544 0.036896,0.20423 0.1288445,0.34073 0.4160057,0.23696 -0.025541,-0.17382 0.1168675,-0.24019 0.5942954,-0.0921 0.5575237,0.0147 0.6328966,0.19769 0.7428683,0.36861 0.2201087,-0.0145 0.3849452,0.24301 0.5129109,0.26334 0.3312906,0.0526 0.4154331,-0.0775 0.5716767,-0.17119 0.047817,-0.19877 0.154867,-0.28303 0.3565771,-0.1843 0.3038682,0.33626 0.356728,0.15653 0.3120046,-0.22381 0.037879,-0.28402 0.3151971,-0.23212 0.5051513,-0.30279 -0.2869833,0.94766 0.4447377,-0.164 0.5942947,0.0658 l 0.66858,0.0526 c 0.19553,0.0147 0.364857,0.0127 0.312006,-0.13163 0.178273,-0.01 0.5007503,0.0998 0.5051503,-0.0526 0.433084,0.16838 0.24428,-0.0807 0.252575,-0.19746 -0.13375,-0.13497 -0.202551,0.0511 -0.4902933,-0.15797 0.1264533,-0.0402 0.1141283,-0.12135 0.0743,-0.21064 -0.0853,-0.0639 -0.201265,-0.0734 -0.356577,-0.0132 0.0327,0.17546 -0.07672,0.14627 -0.148573,0.17114 l -0.267433,-0.13165 -0.312005,0.13165 -0.237718,-0.13165 -0.01485,0.18431 0.133716,0.18431 -0.341721,-0.0132 H 8.1444843 c -0.1019082,-0.0374 -0.1771089,-0.15263 -0.371434,0.079 l -0.059429,-0.1843 c -0.094885,-0.0434 -0.1307105,-0.25024 -0.3268615,-0.0132 -0.2191314,-0.0669 -0.2715051,0.014 -0.3268628,0.0921 -0.099578,-0.0558 -0.1987894,-0.11553 -0.3120046,-0.0263 l -0.1485752,-0.19748 c 0.078099,-0.0481 0.2524075,0.0277 0.1931464,-0.19747 l -0.074295,-0.25013 c 0.2203368,-0.0175 0.4074477,0.0269 0.6537251,0 l 0.163432,0.15797 c 0.3377756,0.0141 0.3634142,-0.13322 0.3714324,-0.28962 l -0.014854,-0.35544 c 0.123398,0.13181 0.2457636,0.25313 0.3417176,0.10534 0.09711,0.12483 0.144673,0.0103 0.218765,-0.0559 l -0.02274,-0.0718 -0.106871,-0.0172 c -0.02462,-0.0922 -0.04528,-0.18619 -0.01485,-0.3028 0.02965,-0.0921 0.05246,-0.18431 0.163431,-0.27645 0.08196,-0.0129 0.176893,-0.01 0.178288,-0.11848 -0.02381,-0.0555 0.01984,-0.12193 0.02341,-0.18152 0.0018,-0.0297 -0.05396,-0.05 -0.03826,-0.0818 -0.02341,-0.0903 -0.08374,-0.0716 -0.148574,-0.0395 l -0.04457,0.17115 c -0.176789,-0.0339 -0.124571,0.0614 -0.16343,0.10535 l -0.07429,-0.23696 -0.1337167,-0.0395 c 0.1210887,-0.0816 0.023575,-0.14029 -0.089149,-0.19746 -0.099859,-0.0135 -0.1415579,-0.17594 -0.3565771,0.10534 -0.1792131,-0.002 -0.3058501,0.14983 -0.44572,0.26331 -0.140975,-0.0922 -0.2243002,0.0369 -0.3268638,0.0921 -0.3026696,0.12951 -0.3373517,0.0894 -0.4605777,0.10534 -0.1953308,0.0419 -0.314448,0.15142 -0.3417194,0.34228 -0.2187753,-0.0395 -0.3044677,0.13731 -0.3565769,0.36861 l 0.059429,0.11849 c 0.086796,0.0547 0.1640149,0.0373 0.2228606,-0.11849 l 0.1634308,-0.079 c -0.1612405,0.12168 -0.084982,0.2039 -0.02972,0.28962 l 0.1337162,0.19746 -0.089149,0.13165 -0.208004,-0.0132 -0.074295,0.10534 c 0.113906,0.0783 0.2278134,0.14603 0.3417205,0.0658 l 0.2080016,0.0658 0.014854,0.19749 c -0.050497,0.22654 -0.1467969,0.16898 -0.237717,0.1448 -0.21806,-0.11532 -0.1847813,0.011 -0.2525747,0.0395 l 0.089149,0.21063 c -0.1171239,0.0202 -0.2024639,0.0567 -0.02972,0.2238 -0.1714558,0.007 -0.2671366,-0.0374 -0.3268639,-0.10534 -0.1514956,-0.0733 -0.2963123,-0.22966 -0.4605743,-0.14476 -0.1336648,-0.37474 -0.283921,-0.16154 -0.4308623,-0.0658 l -0.3714335,0.0395 c -0.068231,-0.0673 -0.1503604,-0.0607 -0.1931463,-0.26329 -0.054173,-0.1322 -0.1107572,-0.26244 -0.3565773,-0.23697 -0.1924013,0.0994 -0.2368024,0.0113 -0.3417195,0 -0.157586,-0.0634 -0.2673282,-0.0299 -0.3268618,0.10536 -0.072228,0.1742 -0.1847836,0.11617 -0.2822894,0.1448 z"
       id="path1002-7-0"
       inkscape:connector-curvature="0"
       sodipodi:nodetypes="cccccccscccccccccccccccccccccccccccccccccccccccscccccccccccccccccccccccccccccccccccccc" />
    <path
       style="fill:#89c1ff;fill-opacity:1;stroke:none;stroke-width:0.11361579px;stroke-linecap:butt;stroke-linejoin:miter;stroke-opacity:1"
       d="m 0.95900915,285.58302 c 0.0207417,0.36456 0.11595415,0.51918 0.18584415,-0.0156 0.050551,-0.0275 0.1531668,0.0426 0.088926,-0.20009 v 0 l 0.1667356,0.11116 c 0.1579747,0.0114 0.3020823,0.008 0.2000827,-0.25566 0.2778926,-0.0667 0.4740689,0.0657 0.3188182,0.15547 l 0.3925866,-0.55563 c 0.1043388,-0.10135 0.2278494,-0.14902 0.4071664,-0.0404 l 0.1597344,0.0738 0.2445454,-0.0556 c 0.046501,0.18903 0.1037829,0.22353 0.1736667,0.0774 0.079409,-0.0185 0.1376818,0.0757 0.2388421,-0.0588 l 0.098813,-0.0297 0.079985,0.0622 c 0.057161,0.0227 0.084143,0.0108 0.08675,-0.0289 -0.1011737,0.21194 0.1893516,0.26906 0.2778926,0.15562 -0.2015702,0.15921 -0.00468,0.18868 0.1111569,0.24455 -0.107349,0.0756 0.112473,0.1695 -0.030461,0.29305 0.1049116,-0.0201 0.1808225,-0.14169 0.3274507,-0.0158 l 0.079083,-0.0278 0.1574807,-0.10499 c 0.2203087,-0.13923 0.4206521,-0.18226 0.5557854,0.0889 l 0.1667354,0.13339 c 0.2432996,-0.0558 0.1746282,-0.52055 0.5113222,-0.31124 0.1482092,0.067 0.2964185,0.35129 0.4446277,0.20008 0.14959,-0.0977 0.2607526,-0.0545 0.3112398,0.2112 0.083884,0.034 0.1345129,0.13034 0.3001234,0.0111 0.058257,0.12903 0.066304,0.32979 0.3445868,0.1445 l 0.3890502,0.12227 c 0.2123461,-0.0511 0.1071164,-0.15111 0.044465,-0.24454 l -0.1222727,-0.18897 c 0.1005387,0.0198 0.5634141,0.45816 0.6014038,0.32156 l 0.3261031,-0.007 c 0.047974,-0.0629 1.2787546,-0.89831 -0.2309737,-0.673 -0.3667059,-6.8e-4 -0.1763252,-0.18691 -0.3667059,-6.8e-4 l -0.3409414,-0.17427 0.1222727,-0.0889 c 0.025004,-0.0781 0.1242868,-0.1465 -0.088926,-0.25566 l -0.111157,-0.0111 c 0.029437,-0.045 0.065006,-0.0892 -0.055579,-0.15562 l -0.1778513,0.22231 -0.01112,0.26678 0.1556199,0.14451 -0.033346,0.12227 -0.1778513,-0.10004 -0.222314,-0.0667 -0.2223134,0.10004 -0.2223136,-0.10004 c -0.087699,-0.21856 -0.219651,-0.17159 -0.3445868,-0.16673 l -0.3001243,-0.0889 -0.2778923,0.0111 c -0.119894,0.003 -0.2496911,-0.0593 -0.3557025,0.0334 -0.00295,0.0806 -0.093599,0.13398 -0.3223556,0.1445 l -0.2778923,0.0556 c -0.08134,-0.20801 -0.369836,-0.18034 -0.4223967,-0.0889 0.2354209,-0.0437 0.053528,-0.0875 -0.052049,-0.13119 -0.030982,-0.0553 0.00323,-0.13035 -0.1942654,-0.13493 -0.2604922,0.0155 -0.2050004,0.0365 -0.2761239,0.0216 l -0.07781,-0.13339 -0.2223141,-0.0889 -0.444628,0.10004 -0.2334298,-0.0889 -0.2556611,-0.0111 H 2.3231167 l -0.2445455,0.12227 -0.1667355,0.23343 -0.111157,0.17785 -0.1889669,0.0556 -0.2445455,-0.0111 -0.2778925,0.1445 -0.1445039,0.16674 z"
       id="path989"
       inkscape:connector-curvature="0"
       sodipodi:nodetypes="ccccccccccccccccccccccccccccccccccccccccccccccccccccccccccccccccccccccccc" />
    <path
       style="fill:#f2f2f2;fill-opacity:0.83809527;stroke:none;stroke-width:0.12822519px;stroke-linecap:butt;stroke-linejoin:miter;stroke-opacity:1"
       d="m 9.497914,286.62143 c 0.225903,0.11063 0.446029,0.29006 0.723478,-0.0717 -0.0055,0.2605 0.115292,0.28107 0.27599,0.2258 l 0.351261,0.0753 c -0.104378,0.0606 -0.01639,0.12127 0,0.1819 -0.365859,-0.12279 -0.591602,-0.0704 -0.827972,-0.0314 0.277425,0.1319 0.57567,0.23604 0.903242,0.30108 0.171309,0.13116 0.346371,0.22105 0.501801,0.52689 0.157769,0.0304 0.353174,0.20066 0.401441,-0.17563 -0.0098,0.14304 0.06835,0.23331 0.22581,0.27599 0.324373,-0.14286 0.627289,-0.3831 0.08154,-0.47671 -0.19048,-0.20875 -0.01886,-0.22693 0.09409,-0.27599 0.150541,0.46378 0.301081,0.34656 0.451621,0.15054 0.200444,-0.12373 0.0037,-0.26115 -0.27599,-0.40144 l 0.395168,0.0439 c 0.212939,-0.10454 -0.285723,-0.40354 -1.003602,-0.60844 l -0.257173,-0.23835 c -0.292013,0.0249 -0.452321,-0.10434 -0.545708,-0.21954 -0.292147,-0.13627 -0.185033,0.0516 -0.652776,0.005 -0.195398,-0.15182 -0.237917,-0.11079 -0.521276,-0.003 l -0.34541,0.0542 0.0015,0.12583 z"
       id="path967-9-1-2-9"
       inkscape:connector-curvature="0"
       sodipodi:nodetypes="ccccccccccccccccccccccc" />
    <path
       style="fill:#d3f7ff;fill-opacity:1;stroke:none;stroke-width:0.13969375px;stroke-linecap:butt;stroke-linejoin:miter;stroke-opacity:1"
       d="m 7.2329356,288.01603 2.7018219,-0.86046 c 0.4772735,0.36061 0.6147825,0.0412 0.7810425,-0.22055 l 0.577577,-0.2846 0.157521,-0.29882 0.311583,-0.21243 c 0.34575,-0.49456 0.402692,0.0419 0.481187,-0.13468 0.160655,-0.0286 0.303646,0.0192 0.414891,0.20481 v 0.31305 l 0.301915,-0.35573 0.236282,-0.21345 0.02626,0.6688 0.105013,0.49803 c 0.158407,0.0219 0.308586,0.017 0.393804,-0.19922 0.147997,-0.0372 0.306931,0.004 0.420056,-0.28459 0.104151,0.0696 0.200248,0.0686 0.275663,-0.11384 l 0.03938,-0.44111 c -0.0176,-0.15752 -0.02683,-0.30769 0.210029,-0.24191 0.18693,0.3229 0.119369,0.47338 0.01312,0.59765 0.111018,-0.0207 0.144341,0.0896 0.144394,0.25614 0.0636,-0.13965 0.14228,-0.0177 0.183775,-0.54074 0.08227,-0.0651 -0.232076,-0.71751 0.301916,-0.11384 l 0.11814,0.29883 c 0.03018,-0.10815 0.05822,-0.21943 0.196901,-0.17075 0.04949,0.0919 0.136058,0.10344 0.11814,0.34151 0.195611,0.0578 -0.092,0.2567 -0.183774,0.39842 0.06612,0.009 0.138976,-0.006 0.157521,0.17075 0.041,0.0763 0.566899,-0.0557 0.02626,0.27037 0.01139,0.22268 -0.148639,-0.0501 -0.236282,-0.11383 0.113155,0.17615 0.108866,0.28529 -0.01312,0.32728 l 0.183774,0.15652 c 0.05139,0.11062 0.04322,0.19016 -0.236281,0.12806 l -0.144394,0.15654 c 0.08994,0.007 0.179482,0.0142 0.196901,0.0996 0.06561,-0.0855 0.135135,-0.15818 0.249409,-0.0854 l 0.02626,0.15653 c -0.05998,0.1803 -0.08052,0.4059 -0.341296,0.35573 l -0.249407,0.3842 c 0.03057,0.17418 -0.219399,0.0645 -0.354422,0.0711 h -0.40693 c -0.08244,0.14828 -0.310825,0.10494 -0.564451,0.0284 l -0.472563,-0.0996 -0.354423,0.25614 v 0 c -0.106517,0.036 -0.281994,0.0631 -0.301915,-0.1423 l -0.393802,0.0427 c -0.253082,-0.005 -0.334668,-0.18129 -0.446309,-0.32729 -0.154653,0.1717 -0.289501,-0.043 -0.433184,-0.0854 0.09366,0.005 0.173809,0.0132 0.157522,0.39843 0.0111,0.058 0.156572,0.21092 -0.09189,0.0854 l -0.118142,-0.19921 c -0.08675,-0.0137 -0.198706,0.0147 -0.131267,-0.25614 l -0.234689,0.13712 c -0.546526,-0.44661 -0.297656,0.11685 -0.592296,-0.20819 l -0.236282,0.0427 0.196901,0.25613 c 0.04028,0.19084 -0.04019,0.13862 -0.07876,0.17076 -0.16579,-0.0286 -0.201223,-0.10437 -0.144394,-0.21345 l -0.118141,-0.19921 -0.2625355,0.0427 c -0.034542,0.21974 0,0 -0.183768,0.31297 l -0.1050144,-0.22767 -0.052502,-0.057 -0.1050143,0.0284 -0.036995,0.26189 c -0.062936,-0.021 -0.1140527,-0.12198 -0.081152,-0.20496 l -0.1043543,-0.0803 -0.1450535,-0.005 -0.1706485,0.18498 -0.2263401,0.25456 -0.2840107,0.11714 c -0.2105341,0.23448 -0.5202209,-0.31488 -0.7754106,-0.55236 -0.1989813,0.0598 -0.3641545,-0.19856 -0.460096,-0.16085 l -0.3344175,-0.23715 c -0.2690418,-0.0797 -0.4698613,-0.14448 -0.7026111,-0.13239 l -0.40866,-0.0939 c -1.0542839,-0.78894 0.620024,0.1922 0.2960174,-0.59389 -0.045861,-0.21202 0.1815737,0.007 0.5335405,0.29103"
       id="path936"
       inkscape:connector-curvature="0"
       sodipodi:nodetypes="cccccccccccccccccccccccccccccccccccccccccccccccccccccccccccccccccccccccccccccc" />
  </g>
</svg>
