<?xml version="1.0" encoding="UTF-8" standalone="no"?>
<!-- Created with Inkscape (http://www.inkscape.org/) -->

<svg
   xmlns:dc="http://purl.org/dc/elements/1.1/"
   xmlns:cc="http://creativecommons.org/ns#"
   xmlns:rdf="http://www.w3.org/1999/02/22-rdf-syntax-ns#"
   xmlns:svg="http://www.w3.org/2000/svg"
   xmlns="http://www.w3.org/2000/svg"
   xmlns:sodipodi="http://sodipodi.sourceforge.net/DTD/sodipodi-0.dtd"
   xmlns:inkscape="http://www.inkscape.org/namespaces/inkscape"
   width="64"
   height="64"
   viewBox="0 0 16.933333 16.933334"
   version="1.1"
   id="svg1111"
   inkscape:version="0.92.4 (5da689c313, 2019-01-14)"
   sodipodi:docname="image-gif.svg">
  <defs
     id="defs1105" />
  <sodipodi:namedview
     id="base"
     pagecolor="#ffffff"
     bordercolor="#666666"
     borderopacity="1.0"
     inkscape:pageopacity="0.0"
     inkscape:pageshadow="2"
     inkscape:zoom="2.8284271"
     inkscape:cx="-99.300095"
     inkscape:cy="38.678117"
     inkscape:document-units="mm"
     inkscape:current-layer="layer1"
     showgrid="false"
     units="px"
     inkscape:window-width="1280"
     inkscape:window-height="954"
     inkscape:window-x="0"
     inkscape:window-y="0"
     inkscape:window-maximized="1" />
  <metadata
     id="metadata1108">
    <rdf:RDF>
      <cc:Work
         rdf:about="">
        <dc:format>image/svg+xml</dc:format>
        <dc:type
           rdf:resource="http://purl.org/dc/dcmitype/StillImage" />
        <dc:title></dc:title>
      </cc:Work>
    </rdf:RDF>
  </metadata>
  <g
     inkscape:label="Layer 1"
     inkscape:groupmode="layer"
     id="layer1"
     transform="translate(0,-280.06665)">
    <rect
       style="fill:#ffffff;fill-opacity:1;stroke:#c5c5c5;stroke-width:0.26458333;stroke-opacity:0.61960787;stroke-miterlimit:4;stroke-dasharray:none;stroke-linejoin:round;stroke-linecap:round"
       id="rect1858"
       width="16.536457"
       height="12.052007"
       x="0.19843814"
       y="282.50732"
       rx="0.088634893"
       ry="0.069279812" />
    <rect
       style="fill:#ffffba;fill-opacity:1;stroke:none;stroke-width:0.10791942;stroke-opacity:1"
       id="rect1027"
       width="14.986165"
       height="10.326084"
       x="0.973584"
       y="283.37442"
       rx="0.039851349"
       ry="0.028681749" />
    <path
       style="fill:#c6c64e;fill-opacity:1;stroke:none;stroke-width:0.05199852px;stroke-linecap:butt;stroke-linejoin:miter;stroke-opacity:1"
       d="m 8.4822172,291.02922 c 0.076423,0.0795 -0.077821,0.0634 -0.055244,0.0683 -0.094757,0.0415 -0.020993,0.12417 0.1825983,-0.0254 0.030271,0.0172 0.042383,-0.0345 0.060681,-0.0765 0.00461,-0.0106 0.00157,-0.0299 0.00804,-0.0375 0.017562,-0.0576 0.079856,-0.25617 -0.069546,-0.0156 0.014919,0.0704 -0.1644945,0.0377 -0.1265251,0.0867 z"
       id="path1748-3-6"
       inkscape:connector-curvature="0"
       sodipodi:nodetypes="cccscccc" />
    <path
       style="fill:#9cd4ff;fill-opacity:1;stroke:none;stroke-width:0.14645061px;stroke-linecap:butt;stroke-linejoin:miter;stroke-opacity:1"
       d="m 0.98807507,287.50334 c 5.30985583,0.0888 10.34226693,1.02459 14.96659093,2.36571 l 0.01678,-6.49463 -15.00965774,-0.009 z"
       id="path1910"
       inkscape:connector-curvature="0"
       sodipodi:nodetypes="ccccc" />
    <g
       id="g2107"
       transform="matrix(0.55733618,0,0,0.55733618,45.12529,123.5587)">
      <g
         id="g2114"
         transform="translate(-0.00504081,13.359263)">
        <path
           style="fill:#d5e098;fill-opacity:1;stroke:none;stroke-width:1.49225569px;stroke-linecap:butt;stroke-linejoin:miter;stroke-opacity:1"
           d="m -79.222796,279.10767 11.706631,0.23012 c 9.354705,1.37602 15.186315,4.13084 15.190146,5.23701 0.01118,3.22831 0.144433,2.91268 -0.844653,4.32923 -2.741279,3.92601 -11.193215,2.7039 -15.218245,3.01937 l -10.825206,-0.006 z"
           id="path2040-2-6-1"
           inkscape:connector-curvature="0"
           sodipodi:nodetypes="ccssccc" />
        <path
           style="fill:#ffffba;fill-opacity:1;stroke:none;stroke-width:1.25701892px;stroke-linecap:butt;stroke-linejoin:miter;stroke-opacity:1"
           d="m -79.267962,280.12084 10.507036,0.16041 c 28.32609,3.64827 5.359603,10.31596 -0.545275,9.77999 l -9.92246,0.13568 z"
           id="path2040-2-6"
           inkscape:connector-curvature="0"
           sodipodi:nodetypes="ccccc" />
        <path
           style="fill:#d5e098;fill-opacity:1;stroke:none;stroke-width:1.00592339px;stroke-linecap:butt;stroke-linejoin:miter;stroke-opacity:1"
           d="m -79.254676,281.87327 9.72383,0.042 c 13.961686,2.17569 4.943673,7.16207 -0.502959,6.78996 l -9.210485,0.0732 z"
           id="path2040-2"
           inkscape:connector-curvature="0"
           sodipodi:nodetypes="ccccc" />
        <path
           style="fill:#ffffba;fill-opacity:1;stroke:none;stroke-width:0.64297563px;stroke-linecap:butt;stroke-linejoin:miter;stroke-opacity:1"
           d="m -79.295683,283.02563 6.227051,0.0176 c 8.924163,1.39068 3.159944,4.57792 -0.321486,4.34007 l -5.887245,0.0602 z"
           id="path2040"
           inkscape:connector-curvature="0"
           sodipodi:nodetypes="ccccc" />
        <path
           style="fill:#d5e098;fill-opacity:1;stroke:none;stroke-width:0.26458332px;stroke-linecap:butt;stroke-linejoin:miter;stroke-opacity:1"
           d="m -79.302168,284.35112 2.579687,0.0331 c 3.672277,0.57226 1.300311,1.8838 -0.132291,1.78593 l -2.422591,0.0248 z"
           id="path2040-6"
           inkscape:connector-curvature="0"
           sodipodi:nodetypes="ccccc" />
      </g>
    </g>
    <g
       id="g2022"
       transform="matrix(0.4865671,0,0,0.4865671,-3.3189425,147.62077)">
      <g
         id="g2014">
        <path
           style="fill:#9999ec;fill-opacity:1;stroke:none;stroke-width:0.26458332px;stroke-linecap:butt;stroke-linejoin:miter;stroke-opacity:1"
           d="m 31.578569,283.78394 6.791129,-0.1096 0.07417,7.40696 -6.931446,0.90472 z"
           id="path1995-0"
           inkscape:connector-curvature="0"
           sodipodi:nodetypes="ccccc" />
        <path
           style="fill:#7d7de7;fill-opacity:1;stroke:none;stroke-width:0.26458332px;stroke-linecap:butt;stroke-linejoin:miter;stroke-opacity:1"
           d="m 27.874403,283.51936 3.704166,0.26458 -0.06615,8.20208 -3.571876,-1.91822 z"
           id="path1995"
           inkscape:connector-curvature="0"
           sodipodi:nodetypes="ccccc" />
      </g>
      <path
         sodipodi:nodetypes="ccccc"
         inkscape:connector-curvature="0"
         id="path2016"
         d="m 27.874403,283.51936 3.68078,0.52767 6.814515,-0.37269 -4.955583,-0.65107 z"
         style="fill:#8b8be9;fill-opacity:1;stroke:none;stroke-width:0.26458332px;stroke-linecap:butt;stroke-linejoin:miter;stroke-opacity:1" />
    </g>
    <g
       id="g2038"
       transform="matrix(0.61832123,0,0,0.61832123,16.338592,113.17499)">
      <circle
         r="4.332552"
         cy="281.4888"
         cx="-18.818489"
         id="path2032"
         style="fill:#d78029;fill-opacity:1;stroke:none;stroke-width:0.26458332;stroke-linecap:round;stroke-linejoin:round;stroke-miterlimit:4;stroke-dasharray:none;stroke-opacity:0.61960784" />
      <ellipse
         ry="2.4143229"
         rx="3.2742186"
         cy="279.57056"
         cx="-18.62005"
         id="path2034"
         style="fill:#db8d3f;fill-opacity:1;stroke:none;stroke-width:0.2892966;stroke-linecap:round;stroke-linejoin:round;stroke-miterlimit:4;stroke-dasharray:none;stroke-opacity:0.61960784" />
    </g>
    <g
       id="g2030"
       transform="matrix(0.44564021,0,0,0.44564021,31.433901,160.26836)">
      <path
         sodipodi:nodetypes="cccc"
         inkscape:connector-curvature="0"
         id="path2024"
         d="m -52.694884,280.60991 c -2.704293,4.50693 -4.698299,9.41974 -7.01547,14.14788 1.685668,2.68075 15.153366,2.15398 13.096875,-0.8599 z"
         style="fill:#96d45e;fill-opacity:1;stroke:none;stroke-width:0.26458332px;stroke-linecap:butt;stroke-linejoin:miter;stroke-opacity:1" />
      <path
         sodipodi:nodetypes="cccc"
         inkscape:connector-curvature="0"
         id="path2026"
         d="m -52.735619,281.08575 c -1.085903,4.85087 -1.095274,9.93111 -1.309619,14.95515 0.0042,0.34578 0.141125,0.311 0.162343,0.0163 0.383137,-4.99411 1.534217,-13.91348 1.147276,-14.97141 z"
         style="fill:#cfeab5;fill-opacity:1;stroke:none;stroke-width:0.26377308px;stroke-linecap:butt;stroke-linejoin:miter;stroke-opacity:1" />
    </g>
  </g>
</svg>
