<?xml version="1.0" encoding="UTF-8" standalone="no"?>
<!-- Created with Inkscape (http://www.inkscape.org/) -->

<svg
   xmlns:dc="http://purl.org/dc/elements/1.1/"
   xmlns:cc="http://creativecommons.org/ns#"
   xmlns:rdf="http://www.w3.org/1999/02/22-rdf-syntax-ns#"
   xmlns:svg="http://www.w3.org/2000/svg"
   xmlns="http://www.w3.org/2000/svg"
   xmlns:xlink="http://www.w3.org/1999/xlink"
   xmlns:sodipodi="http://sodipodi.sourceforge.net/DTD/sodipodi-0.dtd"
   xmlns:inkscape="http://www.inkscape.org/namespaces/inkscape"
   width="64"
   height="64"
   viewBox="0 0 16.933333 16.933334"
   version="1.1"
   id="svg1111"
   inkscape:version="0.92.4 (5da689c313, 2019-01-14)"
   sodipodi:docname="image-bmp.svg">
  <defs
     id="defs1105">
    <linearGradient
       inkscape:collect="always"
       xlink:href="#linearGradient914"
       id="linearGradient920"
       gradientUnits="userSpaceOnUse"
       x1="88.611259"
       y1="35.503479"
       x2="92.157059"
       y2="53.107201" />
    <linearGradient
       inkscape:collect="always"
       id="linearGradient914">
      <stop
         style="stop-color:#483e37;stop-opacity:1;"
         offset="0"
         id="stop910" />
      <stop
         style="stop-color:#483e37;stop-opacity:0.27142859"
         offset="1"
         id="stop912" />
    </linearGradient>
    <linearGradient
       inkscape:collect="always"
       xlink:href="#linearGradient971"
       id="linearGradient1025"
       gradientUnits="userSpaceOnUse"
       x1="31.338566"
       y1="109.34966"
       x2="31.217028"
       y2="110.46642" />
    <linearGradient
       inkscape:collect="always"
       id="linearGradient971">
      <stop
         style="stop-color:#9b9b9b;stop-opacity:1;"
         offset="0"
         id="stop967" />
      <stop
         style="stop-color:#9b9b9b;stop-opacity:0;"
         offset="1"
         id="stop969" />
    </linearGradient>
    <linearGradient
       gradientTransform="translate(14.94529,-6.4415289)"
       inkscape:collect="always"
       xlink:href="#linearGradient971"
       id="linearGradient973-1"
       x1="31.338566"
       y1="109.34966"
       x2="31.217028"
       y2="110.46642"
       gradientUnits="userSpaceOnUse" />
  </defs>
  <sodipodi:namedview
     id="base"
     pagecolor="#ffffff"
     bordercolor="#666666"
     borderopacity="1.0"
     inkscape:pageopacity="0.0"
     inkscape:pageshadow="2"
     inkscape:zoom="4"
     inkscape:cx="10.417315"
     inkscape:cy="35.9522"
     inkscape:document-units="mm"
     inkscape:current-layer="layer1"
     showgrid="false"
     units="px"
     inkscape:window-width="1280"
     inkscape:window-height="954"
     inkscape:window-x="0"
     inkscape:window-y="0"
     inkscape:window-maximized="1" />
  <metadata
     id="metadata1108">
    <rdf:RDF>
      <cc:Work
         rdf:about="">
        <dc:format>image/svg+xml</dc:format>
        <dc:type
           rdf:resource="http://purl.org/dc/dcmitype/StillImage" />
        <dc:title></dc:title>
      </cc:Work>
    </rdf:RDF>
  </metadata>
  <g
     inkscape:label="Layer 1"
     inkscape:groupmode="layer"
     id="layer1"
     transform="translate(0,-280.06665)">
    <rect
       style="fill:#ffffff;fill-opacity:1;stroke:#c5c5c5;stroke-width:0.26458333;stroke-opacity:0.61960787;stroke-miterlimit:4;stroke-dasharray:none;stroke-linejoin:round;stroke-linecap:round"
       id="rect1858"
       width="16.536457"
       height="12.052007"
       x="0.19843814"
       y="282.50732"
       rx="0.088634893"
       ry="0.069279812" />
    <g
       id="g1856"
       transform="matrix(0.89724985,0,0,0.8392882,0.86995127,46.370705)">
      <g
         id="g1824">
        <g
           transform="matrix(0.1458719,0,0,0.1458719,-0.39505126,280.94151)"
           style="fill:#00fbff"
           id="g1055">
          <rect
             ry="0.23427336"
             rx="0.30447945"
             y="9.90625"
             x="3.5"
             height="84.34375"
             width="114.5"
             id="rect1027"
             style="fill:#ccbfb1;fill-opacity:1;stroke:none;stroke-width:0.85254186;stroke-opacity:1" />
          <g
             id="g855">
            <path
               style="fill:#96962e;fill-opacity:1;stroke:none;stroke-width:1px;stroke-linecap:butt;stroke-linejoin:miter;stroke-opacity:1"
               d="m 55.040663,63.283607 c -2.925548,0.698114 -2.14044,2.281343 -1.85888,-1.174031 2.25399,-5.34648 7.02268,-9.435609 10.66411,-14.088366 -1.57119,-1.467538 -0.8883,-2.250226 0.92944,-3.717764 2.365174,-3.82803 4.120483,-8.962397 6.876344,-11.409629 0.832156,-4.221743 1.170965,-1.76524 3.347514,-4.390865 l 0.831599,-2.005636 c -0.464043,-2.078307 1.14288,-2.124838 2.354763,-3.456692 1.12839,-0.445302 1.209451,-1.535349 1.861985,-3.563921 0.662269,-0.8985 0.885974,-2.217785 0.492196,-4.701323 0.96211,-0.98775 0.514726,-3.03262 0.518853,-4.738857 l 11.257546,0.122198 c 1.184453,3.326419 1.260843,8.218213 -1.46753,11.544633 2.681613,3.410784 1.56085,8.309297 0.58701,8.805229 0.63817,3.848101 0.23838,6.485252 -0.68485,8.511722 -6.62865,15.314003 -13.10136,24.234757 -19.46934,28.861584 -1.57806,0.601871 -2.94116,1.504669 -3.22858,3.913436 -0.68648,2.437757 -2.85857,0.773855 -4.30478,-0.587016 -0.41312,2.798037 -2.02383,2.721828 -3.71777,2.445897 l -1.17403,-2.445897 c 0.24846,-1.795999 0.36916,-3.783647 2.64157,-2.543733 l 0.0978,-2.054553 c 3.47098,-7.086419 3.3061,-5.810369 4.40261,-7.435527 -2.63037,0.38112 -4.38006,2.523618 -6.26149,4.402615 -1.05063,1.703735 -2.60192,1.655161 -4.69609,-0.293508 z"
               id="path836-6"
               inkscape:connector-curvature="0"
               sodipodi:nodetypes="cccccccccccccccccccccccccc" />
            <path
               style="fill:#a9a934;fill-opacity:1;stroke:none;stroke-width:1px;stroke-linecap:butt;stroke-linejoin:miter;stroke-opacity:1"
               d="m 53.921186,63.185771 c -0.96883,0.79595 -2.14044,2.281343 -1.85888,-1.174031 2.25399,-5.34648 7.02268,-9.435609 10.66411,-14.088366 -1.57119,-1.467538 -0.8883,-2.250226 0.92944,-3.717764 2.365174,-3.82803 4.120483,-8.962397 6.876344,-11.409629 0.832156,-4.221743 1.170965,-1.76524 3.347514,-4.390865 l 0.831599,-2.005636 c -0.464043,-2.078307 1.14288,-2.124838 2.354763,-3.456692 1.12839,-0.445302 1.209451,-1.535349 1.861985,-3.563921 0.662269,-0.8985 0.885974,-2.217785 0.492196,-4.701323 0.96211,-0.98775 0.514726,-3.03262 0.518853,-4.738857 l 11.257546,0.122198 c 1.18445,3.326419 1.26084,8.218213 -1.46753,11.544633 2.68161,3.410784 1.56085,8.309297 0.58701,8.805229 0.63817,3.848101 0.23838,6.485252 -0.68485,8.511722 -6.62865,15.314003 -13.10136,24.234757 -19.46934,28.861584 -1.57806,0.601871 -2.94116,1.504669 -3.22858,3.913436 -0.68648,2.437757 -2.85857,0.773855 -4.30478,-0.587016 -0.41312,2.798037 -2.02383,2.721828 -3.71777,2.445897 l -1.17403,-2.445897 c 0.24846,-1.795999 0.36916,-3.783647 2.64157,-2.543733 l 0.0978,-2.054553 c 3.47098,-7.086419 3.3061,-5.810369 4.40261,-7.435527 -2.63037,0.38112 -4.38006,2.523618 -6.26149,4.402615 -1.05063,1.703735 -2.60192,1.655161 -4.69609,-0.293508 z"
               id="path836"
               inkscape:connector-curvature="0"
               sodipodi:nodetypes="cccccccccccccccccccccccccc" />
          </g>
          <g
             transform="translate(138.05815,-17.084827)"
             id="g834">
            <path
               style="fill:#cd4c23;fill-opacity:1;stroke:none;stroke-width:0.99430025px;stroke-linecap:butt;stroke-linejoin:miter;stroke-opacity:1"
               d="m -112.02885,65.464226 c -1.18808,-0.771344 -2.54682,-0.518713 -3.82125,-0.771977 -0.55166,-10.006377 2.54726,-10.647246 4.75372,-10.828236 -0.0214,-5.0152 2.59671,-5.126995 4.19793,-7.127842 -0.28095,-1.990803 1.46727,-2.585418 2.70834,-3.52898 0.072,-1.452051 -0.0287,-3.819818 1.86198,-3.633802 1.12155,-2.591041 1.85621,-4.237986 2.998387,-6.912959 0.127975,-0.299732 -0.351229,-1.130702 0.03657,-1.893459 0.486471,-0.956771 0.600114,-2.886033 1.027535,-3.597424 l 40.117323,0.104822 c 0.185757,1.864317 0.601896,3.903003 -0.507814,4.786833 0.188205,1.263327 1.094183,2.10334 -0.47396,4.402492 -0.727635,2.623235 -1.402794,4.542412 -1.861985,3.563921 -0.59961,0.997706 -1.433375,1.391251 -2.200529,1.956662 -0.0532,2.174246 -1.019098,4.580777 -3.351572,5.31094 l -0.981775,2.585591 c -2.888898,2.725351 -6.296767,12.950176 -8.429714,12.368902 -0.981388,0.574423 -1.266021,4.198831 -3.859389,1.362676 -0.50755,-0.209534 -3.100427,1.969498 -2.166673,1.991601 -1.806393,-1.411627 -3.385428,-0.139761 -3.385428,-0.139761 l -0.981775,1.991603 c -0.307699,0.801765 -1.811692,0.862725 -3.453135,0.83857 l -1.354172,2.026544 -2.031256,-0.03494 c -0.634495,1.719022 -0.936008,3.213025 -5.552104,1.537376 -0.86361,0.656083 -1.438624,-0.644049 -1.745724,0.08157 -0.68056,1.607986 -1.93349,1.758293 -2.11367,1.281103 0.022,2.937681 -3.16728,2.8216 -4.36142,1.29522 0.34409,-2.228685 1.24853,-0.90028 0.90828,-1.539802 0.90039,-1.581971 -3.21595,1.47375 -2.41902,-3.092236 l -2.81185,-0.922427 z"
               id="path815-3"
               inkscape:connector-curvature="0"
               sodipodi:nodetypes="ccccccsscccccccccccccccccscccccc" />
            <path
               style="fill:#db5a33;fill-opacity:1;stroke:none;stroke-width:1px;stroke-linecap:butt;stroke-linejoin:miter;stroke-opacity:1"
               d="m -112.28731,64.83061 -3.56279,-0.138361 c -0.56365,-9.906087 1.37755,-11.166412 3.63197,-11.345588 -0.0218,-4.964935 2.65316,-5.07561 4.28919,-7.056402 -0.28707,-1.97085 1.49916,-2.559506 2.76721,-3.493611 0.0736,-1.437498 -0.0293,-3.781534 1.90246,-3.597382 1.14592,-2.565072 1.89655,-4.19551 3.06356,-6.843673 0.13076,-0.296728 -0.35886,-1.119369 0.0374,-1.874481 0.49704,-0.947182 0.61316,-2.857108 1.049869,-3.561369 l 40.989401,0.103771 c 0.189794,1.845632 0.614979,3.863885 -0.518853,4.738857 0.192296,1.250665 1.117967,2.082259 -0.484264,4.358367 -0.743452,2.596944 -1.433288,4.496886 -1.902461,3.528201 -0.612645,0.987707 -1.464533,1.377308 -2.248364,1.937052 -0.05435,2.152454 -1.041251,4.534865 -3.424429,5.257711 l -1.003117,2.559676 c -2.951698,2.698036 -6.433647,12.820381 -8.612961,12.244933 -1.002721,0.568666 -1.293541,4.156747 -3.943284,1.349018 -0.518584,-0.207434 -3.167824,1.949759 -2.213773,1.971641 -1.354357,-0.798752 -3.459021,-0.13836 -3.459021,-0.13836 l -1.003116,1.971641 c -0.314388,0.793729 -1.851075,0.854079 -3.528201,0.830166 l -1.383608,2.006232 -2.075412,-0.03459 c -0.648288,1.701793 -0.956355,3.180823 -5.672796,1.521968 -0.88238,0.649507 -1.46989,-0.637594 -1.78367,0.08075 -0.69535,1.591869 -1.97552,1.74067 -2.15961,1.268263 0.0225,2.908237 -0.77987,3.420458 -3.42443,2.006232 0.35157,-2.206348 0.24387,-1.615251 -0.10377,-2.248363 -2.20388,-0.161714 -1.21166,-1.713032 -1.52197,-2.698036 l -2.69804,-0.864755 z"
               id="path815"
               inkscape:connector-curvature="0"
               sodipodi:nodetypes="ccccccsscccccccccccccccccscccccc" />
          </g>
          <g
             transform="translate(256.33567,10.540325)"
             id="g866">
            <path
               style="fill:#c0c0c0;fill-opacity:1;stroke:none;stroke-width:1px;stroke-linecap:butt;stroke-linejoin:miter;stroke-opacity:1"
               d="m -186.33743,54.634171 c 2.44698,-1.577238 4.48519,-2.952339 7.17129,-2.526156 l 9.07499,24.326542 -6.37019,2.342127 z"
               id="path859"
               inkscape:connector-curvature="0"
               sodipodi:nodetypes="ccccc" />
            <path
               sodipodi:nodetypes="ccccc"
               style="fill:#a6621a;fill-opacity:1;stroke:none;stroke-width:1px;stroke-linecap:butt;stroke-linejoin:miter;stroke-opacity:1"
               d="m -176.46134,78.776684 2.25334,4.92832 7.46367,0.0039 -3.34682,-7.274353 z"
               id="path861"
               inkscape:connector-curvature="0" />
            <path
               style="fill:#c8ab84;fill-opacity:1;stroke:none;stroke-width:1px;stroke-linecap:butt;stroke-linejoin:miter;stroke-opacity:1"
               d="m -188.06819,45.779373 1.37462,-0.07715 4.49452,-1.323243 3.03291,7.729035 -0.97965,0.07025 -0.10377,0.415082 -0.6918,-0.03459 -0.24213,0.484263 h -1.14148 l -0.20754,0.553443 -1.10689,-0.06918 -0.31131,0.518853 -0.93394,-0.172951 -0.24213,0.449673 -0.41508,-0.06918 -0.79557,0.380493 c -0.69823,-2.921272 -1.71071,-5.76398 -1.73076,-8.854796 z"
               id="path857"
               inkscape:connector-curvature="0"
               sodipodi:nodetypes="ccccccccccccccccc" />
          </g>
          <path
             sodipodi:nodetypes="ccccc"
             inkscape:connector-curvature="0"
             id="path859-3"
             d="m 88.993427,61.798338 c 2.771821,-0.89017 5.631393,-1.315379 7.580752,-0.584013 1.372139,6.968651 3.04453,13.036545 2.469595,25.846416 l -6.759319,0.613594 C 89.877874,78.674839 88.817379,70.05994 88.993427,61.798338 Z"
             style="fill:#c0c0c0;fill-opacity:1;stroke:none;stroke-width:1px;stroke-linecap:butt;stroke-linejoin:miter;stroke-opacity:1" />
          <path
             sodipodi:nodetypes="ccccsssc"
             inkscape:connector-curvature="0"
             id="path861-5"
             d="m 90.278819,78.282091 c 0.05475,5.426128 2.219328,10.669747 4.011993,15.971739 l 5.030462,-0.0044 -0.2775,-7.188666 c 0.487713,-8.266547 0.331487,-10.473765 -0.453335,-10.33758 -1.20728,0.209491 -2.090885,-0.01607 -2.701908,0.151473 -1.551987,0.425565 -1.543005,0.612089 -2.351223,0.580592 -1.427986,-0.05565 -2.307005,0.281589 -3.258489,0.826865 z"
             style="fill:#9f171f;fill-opacity:1;stroke:none;stroke-width:1px;stroke-linecap:butt;stroke-linejoin:miter;stroke-opacity:1" />
          <path
             sodipodi:nodetypes="cccccccccccccccc"
             inkscape:connector-curvature="0"
             id="path857-5"
             d="m 105.57538,51.006958 c -6.06113,0.542772 -9.286739,6.429724 -9.001201,10.207367 l -0.964452,-0.185695 -0.207665,0.37408 -0.659275,-0.212462 -0.359216,0.405094 -1.102585,-0.295436 -0.34371,0.480869 -1.051268,-0.353307 -0.434992,0.420601 -0.857353,-0.40878 -0.350264,0.371683 -0.383031,-0.174253 -0.866941,0.161619 c 0.08164,-3.002447 -3.535929,-5.814669 -9.065748,-5.283267 -6.423513,-11.258435 23.869311,-19.672938 25.647701,-5.508113 z"
             style="fill:#c8ab84;fill-opacity:1;stroke:none;stroke-width:1px;stroke-linecap:butt;stroke-linejoin:miter;stroke-opacity:1" />
          <path
             sodipodi:nodetypes="cccccccccccccccc"
             inkscape:connector-curvature="0"
             id="path857-5-6"
             d="m 105.57538,51.006958 c -6.061129,0.542772 -9.286739,6.429724 -9.001201,10.207367 l -0.964452,-0.185695 -0.207665,0.37408 -0.659275,-0.212462 -0.359216,0.405094 -1.102585,-0.295436 -0.34371,0.480869 -1.051268,-0.353307 -0.434992,0.420601 -0.857353,-0.40878 -0.350264,0.371683 -0.383031,-0.174253 -0.866941,0.161619 c 0.08164,-3.002447 -3.535929,-5.814669 -9.065748,-5.283267 -6.423513,-11.258435 23.869311,-19.672938 25.647701,-5.508113 z"
             style="fill:url(#linearGradient920);fill-opacity:1;stroke:none;stroke-width:1px;stroke-linecap:butt;stroke-linejoin:miter;stroke-opacity:1" />
          <path
             sodipodi:nodetypes="cssssscccc"
             inkscape:connector-curvature="0"
             id="path930"
             d="m 71.45102,64.41351 c 0.400135,-0.02452 0.587345,0.02473 0.702363,0.125783 0.05502,0.04834 0.417269,-0.50549 0.510784,-0.512725 0.377133,-0.02918 1.061941,0.143144 1.09419,0.07811 0.175427,-0.353772 0.200914,-0.374131 0.256891,-0.525472 0.02434,-0.06582 0.710029,-0.01042 1.10977,-0.0051 0.0837,0.0011 0.169759,-0.397078 0.269292,-0.47504 l 8.746974,24.655185 -1.608623,0.5796 z"
             style="fill:#ffffff;fill-opacity:1;stroke:none;stroke-width:1px;stroke-linecap:butt;stroke-linejoin:miter;stroke-opacity:1" />
          <g
             transform="translate(0.41984465,1.1161166)"
             id="g1023">
            <rect
               style="fill:#9b9b9b;fill-opacity:1;stroke:none;stroke-width:0.73639685;stroke-opacity:1"
               id="rect932"
               width="4.4586072"
               height="0.7943666"
               x="47.903645"
               y="106.47108"
               rx="0.26322886"
               ry="0.21697012"
               transform="matrix(0.9430535,-0.3326411,0.32279772,0.94646798,0,0)" />
            <rect
               style="fill:url(#linearGradient1025);fill-opacity:1;stroke:none;stroke-width:0.96531713;stroke-opacity:1"
               id="rect932-2"
               width="5.8104315"
               height="1.0474371"
               x="28.236134"
               y="109.54521"
               rx="0.34303835"
               ry="0.28609276"
               transform="matrix(0.94015368,-0.34075072,0.4816641,0.87635592,0,0)" />
          </g>
          <path
             sodipodi:nodetypes="cssssscccsc"
             inkscape:connector-curvature="0"
             id="path930-9"
             d="m 89.055927,61.794432 c 0.04076,-0.05968 0.767032,-0.272145 0.88205,-0.171089 0.05502,0.04834 0.277887,0.232484 0.331097,0.155244 0.310727,-0.451056 0.320705,-0.330996 0.379346,-0.308609 0.546678,0.2087 0.679316,0.264907 0.811579,0.35734 0.03997,0.02793 0.159247,-0.221357 0.402738,-0.391818 0.06857,-0.04801 0.947662,0.06386 1.074539,0.345278 0.430549,5.096779 0.503771,9.950197 1.723666,15.476947 -0.84234,0.402627 -1.586495,0.08669 -2.183797,0.252395 -0.486387,-4.184341 -3.628731,-7.649293 -3.23849,-12.750703 0.0245,-0.320325 -0.24857,-2.191714 -0.182728,-2.964985 z"
             style="fill:#ffffff;fill-opacity:1;stroke:none;stroke-width:1px;stroke-linecap:butt;stroke-linejoin:miter;stroke-opacity:1" />
          <g
             transform="rotate(8.8855079,89.75338,75.706437)"
             id="g1019">
            <rect
               style="fill:#9b9b9b;fill-opacity:1;stroke:none;stroke-width:0.73639685;stroke-opacity:1"
               id="rect932-0"
               width="4.4586072"
               height="0.7943666"
               x="61.732635"
               y="99.986336"
               rx="0.26322886"
               ry="0.21697012"
               transform="matrix(0.9430535,-0.3326411,0.32279772,0.94646798,0,0)" />
            <rect
               style="fill:url(#linearGradient973-1);fill-opacity:1;stroke:none;stroke-width:0.96531713;stroke-opacity:1"
               id="rect932-2-9"
               width="5.8104315"
               height="1.0474371"
               x="43.181423"
               y="103.10368"
               rx="0.34303835"
               ry="0.28609276"
               transform="matrix(0.94015368,-0.34075072,0.4816641,0.87635592,0,0)" />
          </g>
          <path
             sodipodi:nodetypes="cccc"
             inkscape:connector-curvature="0"
             id="path1029"
             d="M 3.522,67.985986 C 32.816874,65.67001 60.353118,84.122331 69.119775,94.250976 L 3.5,94.25 Z"
             style="fill:#a68752;fill-opacity:1;stroke:none;stroke-width:1.06048965px;stroke-linecap:butt;stroke-linejoin:miter;stroke-opacity:1" />
        </g>
        <path
           style="fill:#e68f75;fill-opacity:1;stroke:none;stroke-width:0.18987462px;stroke-linecap:butt;stroke-linejoin:miter;stroke-opacity:1"
           d="m 4.7965456,285.97188 c -1.3079538,1.30997 -0.028469,0.50606 0.2033262,0.0838 0.5776768,-0.71124 0.9195666,-0.78802 1.3214487,-1.68533 0.1188931,-0.26547 0.4132734,-0.44607 0.6240382,-0.84412 0.4922336,-0.0909 -0.071758,-0.46106 -0.2171914,-0.0305 -0.042574,0.13448 -0.065098,0.27133 -0.1894652,0.39617 -0.091702,0.1091 -0.5549091,0.44759 -0.3881739,-0.0609 0.1128995,-0.50388 0.069723,-0.76759 0,-0.99045 -0.071539,-0.0772 -0.1387978,-0.35541 -0.221813,0.10667 -0.1075897,0.64068 -0.1538173,1.2874 -0.4067256,1.87318 -0.1742721,0.40363 -0.5340464,0.75432 -0.725444,1.15149 z"
           id="path1731"
           inkscape:connector-curvature="0"
           sodipodi:nodetypes="ccsccccccsc" />
        <path
           style="fill:#e68f75;fill-opacity:1;stroke:none;stroke-width:0.09468576px;stroke-linecap:butt;stroke-linejoin:miter;stroke-opacity:1"
           d="m 3.9437266,288.64465 c -0.019608,0.0976 -0.019449,0.42959 0.2183927,0.163 0.034135,-0.1293 0.02737,-0.0884 0.024308,-0.21323 0.047744,0.0659 0.1961652,-0.51989 -0.066952,-0.067 -0.1801596,0.0311 -0.1757487,0.11723 -0.1757487,0.11723 z"
           id="path1748"
           inkscape:connector-curvature="0"
           sodipodi:nodetypes="ccccc" />
        <path
           style="fill:#e68f75;fill-opacity:1;stroke:none;stroke-width:0.05992095px;stroke-linecap:butt;stroke-linejoin:miter;stroke-opacity:1"
           d="m 4.7196286,288.87822 c 0.00433,0.058 -0.086733,0.0755 -0.06157,0.0814 0.011984,-0.002 0.1662207,-0.0505 0.1711708,-0.0891 0.037132,0.0166 0.050936,-0.0343 0.073784,-0.0533 0.030215,0.0417 0.1241412,-0.329 -0.04237,-0.0424 -0.00983,0.0589 -0.1215958,0.0229 -0.1410144,0.10328 z"
           id="path1748-3"
           inkscape:connector-curvature="0"
           sodipodi:nodetypes="cccccc" />
        <path
           style="fill:#c6c64e;fill-opacity:1;stroke:none;stroke-width:0.05992095px;stroke-linecap:butt;stroke-linejoin:miter;stroke-opacity:1"
           d="m 8.483998,291.50715 c 0.085175,0.0947 -0.086733,0.0755 -0.06157,0.0814 -0.1056086,0.0494 -0.023397,0.14794 0.2035088,-0.0303 0.033738,0.0205 0.047236,-0.0411 0.06763,-0.0912 0.00514,-0.0126 0.00175,-0.0356 0.00896,-0.0447 0.019573,-0.0686 0.089001,-0.30523 -0.07751,-0.0186 0.016628,0.0839 -0.1833319,0.0449 -0.1410144,0.10328 z"
           id="path1748-3-6"
           inkscape:connector-curvature="0"
           sodipodi:nodetypes="cccscccc" />
      </g>
    </g>
  </g>
</svg>
