<?xml version="1.0" encoding="UTF-8" standalone="no"?>
<svg
   xmlns:dc="http://purl.org/dc/elements/1.1/"
   xmlns:cc="http://creativecommons.org/ns#"
   xmlns:rdf="http://www.w3.org/1999/02/22-rdf-syntax-ns#"
   xmlns:svg="http://www.w3.org/2000/svg"
   xmlns="http://www.w3.org/2000/svg"
   xmlns:sodipodi="http://sodipodi.sourceforge.net/DTD/sodipodi-0.dtd"
   xmlns:inkscape="http://www.inkscape.org/namespaces/inkscape"
   width="64"
   height="64"
   version="1.1"
   id="svg16"
   sodipodi:docname="text-x-scss.svg"
   inkscape:version="0.92.4 (5da689c313, 2019-01-14)">
  <metadata
     id="metadata22">
    <rdf:RDF>
      <cc:Work
         rdf:about="">
        <dc:format>image/svg+xml</dc:format>
        <dc:type
           rdf:resource="http://purl.org/dc/dcmitype/StillImage" />
        <dc:title></dc:title>
      </cc:Work>
    </rdf:RDF>
  </metadata>
  <defs
     id="defs20" />
  <sodipodi:namedview
     pagecolor="#ffffff"
     bordercolor="#666666"
     borderopacity="1"
     objecttolerance="10"
     gridtolerance="10"
     guidetolerance="10"
     inkscape:pageopacity="0"
     inkscape:pageshadow="2"
     inkscape:window-width="1280"
     inkscape:window-height="954"
     id="namedview18"
     showgrid="false"
     inkscape:zoom="8"
     inkscape:cx="22.443048"
     inkscape:cy="17.797736"
     inkscape:window-x="0"
     inkscape:window-y="0"
     inkscape:window-maximized="1"
     inkscape:current-layer="svg16"
     showguides="false" />
  <g
     id="g3881"
     transform="matrix(0.98944812,0,0,1.0256688,-0.06482725,-0.89375074)">
    <path
       inkscape:connector-curvature="0"
       id="path2"
       d="m 11.277667,2.5124625 c -1.6722183,0 -3.0184446,1.3462264 -3.0184446,3.0184444 V 59.862911 c 0,1.672218 1.3462263,3.018445 3.0184446,3.018445 h 42.258226 c 1.672218,0 3.018444,-1.346227 3.018444,-3.018445 V 20.62313 L 38.443669,2.5124625 Z"
       style="opacity:0.2;stroke-width:1.20737791" />
    <path
       inkscape:connector-curvature="0"
       id="path4"
       d="m 11.277667,1.3050847 c -1.6722183,0 -3.0184446,1.3462264 -3.0184446,3.0184446 V 58.655533 c 0,1.672219 1.3462263,3.018445 3.0184446,3.018445 h 42.258226 c 1.672218,0 3.018444,-1.346226 3.018444,-3.018445 V 19.415752 L 38.443669,1.3050847 Z"
       style="fill:#f2f2f2;fill-opacity:0.91372549;stroke-width:1.20737791" />
    <path
       inkscape:connector-curvature="0"
       id="path6"
       d="M 56.554337,20.62313 38.443669,2.5124625 V 17.604686 c 0,1.672218 1.346226,3.018444 3.018445,3.018444 z"
       style="opacity:0.2;stroke-width:1.20737791" />
    <path
       inkscape:connector-curvature="0"
       id="path8"
       d="M 56.554337,19.415752 38.443669,1.3050847 V 16.397308 c 0,1.672218 1.346226,3.018444 3.018445,3.018444 z"
       style="fill:#e2e2e2;fill-opacity:1;stroke-width:1.20737791" />
    <path
       inkscape:connector-curvature="0"
       id="path10"
       d="m 11.277667,1.3050847 c -1.6722183,0 -3.0184446,1.3462264 -3.0184446,3.0184446 v 1.2073776 c 0,-1.672218 1.3462263,-3.0184444 3.0184446,-3.0184444 H 38.443669 V 1.3050847 Z"
       style="opacity:0.2;fill:#ffffff;stroke-width:1.20737791" />
  </g>
  <g
     id="g4-5-6"
     style="fill:#cd678e;fill-opacity:1;stroke:#979798;stroke-width:0.16622123;stroke-miterlimit:4;stroke-dasharray:none;stroke-opacity:1"
     transform="matrix(1.4830245,0,0,2.2351456,-76.883599,-80.390652)">
    <path
       d="m 85.834765,57.629166 c -13.379235,-0.02803 -28.446154,0.02451 -28.446154,0.02451 0,0 -0.0053,3.059975 -0.0096,3.808107 0,2.501762 0.05002,2.503137 2.259976,2.488257 l 27.541941,-0.185434 c 2.209961,-0.01489 2.198071,0.01351 2.198071,-2.488258 l 0.08191,-3.669449 z"
       id="path2-3-7"
       inkscape:connector-curvature="0"
       style="fill:#cd678e;fill-opacity:1;stroke:#979798;stroke-width:0.16622123;stroke-linejoin:round;stroke-miterlimit:4;stroke-dasharray:none;stroke-opacity:1"
       sodipodi:nodetypes="cccssscc" />
  </g>
  <path
     style="fill:none;stroke:#bbbbbb;stroke-width:0.24743135;stroke-linecap:butt;stroke-linejoin:round;stroke-miterlimit:4;stroke-dasharray:none;stroke-opacity:0.94509804"
     d="m 37.843086,0.45075447 0.01107,15.80614753 c 0.01763,0.642376 0.602862,2.868219 0.09811,0.68494"
     id="path3854"
     inkscape:connector-curvature="0"
     sodipodi:nodetypes="ccc" />
  <text
     xml:space="preserve"
     style="font-style:normal;font-weight:normal;font-size:9.11241627px;line-height:1.25;font-family:sans-serif;letter-spacing:0px;word-spacing:0px;fill:#ffffff;fill-opacity:1;stroke:none;stroke-width:0.22781038"
     x="17.70093"
     y="59.782028"
     id="text4421-3"
     transform="scale(1.0247739,0.97582501)"><tspan
       sodipodi:role="line"
       id="tspan4419-6"
       x="17.70093"
       y="59.782028"
       style="font-style:normal;font-variant:normal;font-weight:bold;font-stretch:normal;font-family:sans-serif;-inkscape-font-specification:'sans-serif Bold';fill:#ffffff;stroke-width:0.22781038">SCSS</tspan></text>
  <path
     inkscape:connector-curvature="0"
     style="fill:#cd6799;stroke-width:0.06985234"
     d="m 45.37122,28.932994 c -1.336768,0.0069 -2.49857,0.327673 -3.471403,0.801745 -0.356936,-0.70414 -0.713875,-1.331594 -0.776863,-1.791726 -0.06999,-0.536821 -0.153974,-0.86449 -0.06999,-1.505885 0.08399,-0.6414 0.46192,-1.554691 0.454922,-1.624408 -0.0069,-0.06971 -0.08399,-0.397386 -0.853852,-0.404358 -0.769868,-0.0069 -1.434754,0.146406 -1.511741,0.348586 -0.07699,0.202174 -0.223962,0.66231 -0.321944,1.136387 -0.132976,0.697167 -1.539733,3.186065 -2.344593,4.489775 -0.258955,-0.508937 -0.482916,-0.955124 -0.531908,-1.310682 -0.06999,-0.536821 -0.153974,-0.86449 -0.06999,-1.505886 0.08398,-0.641398 0.46192,-1.554689 0.454921,-1.624406 -0.007,-0.06971 -0.08399,-0.397388 -0.853851,-0.40436 -0.769869,-0.0069 -1.434754,0.146407 -1.511741,0.348586 -0.07699,0.20218 -0.160974,0.676256 -0.321943,1.136388 -0.160974,0.460131 -2.02965,4.615265 -2.519567,5.688907 -0.251955,0.550765 -0.468919,0.989981 -0.622893,1.289766 0,0 0,0 0,0 0,0 -0.007,0.0209 -0.02798,0.05577 -0.132977,0.257952 -0.209964,0.397386 -0.209964,0.397386 0,0 0,0 0,0.0069 -0.10498,0.188235 -0.216963,0.36253 -0.272953,0.36253 -0.04201,0 -0.118979,-0.501965 0.01399,-1.185192 0.279952,-1.44314 0.944837,-3.68803 0.937837,-3.76472 0,-0.04185 0.125978,-0.432242 -0.433927,-0.634421 -0.545906,-0.20218 -0.741872,0.132462 -0.790861,0.132462 -0.04899,0 -0.08399,0.118518 -0.08399,0.118518 0,0 0.608895,-2.523755 -1.161796,-2.523755 -1.105811,0 -2.631546,1.206104 -3.387416,2.293691 -0.475918,0.257952 -1.490743,0.808713 -2.575557,1.401312 -0.412928,0.230063 -0.839856,0.460131 -1.238787,0.676254 -0.02798,-0.02787 -0.05598,-0.06274 -0.08398,-0.09063 -2.141634,-2.279746 -6.102949,-3.890209 -5.934976,-6.950789 0.06299,-1.115471 0.447921,-4.043584 7.607686,-7.599151 5.89298,-2.893228 10.582172,-2.091482 11.394032,-0.313701 1.1618,2.537699 -2.512567,7.25057 -8.601517,7.933799 -2.323596,0.257951 -3.541386,-0.634424 -3.849336,-0.969065 -0.321944,-0.348586 -0.370933,-0.369503 -0.489911,-0.299785 -0.195966,0.104573 -0.06999,0.418303 0,0.599565 0.181967,0.474077 0.930838,1.310678 2.197618,1.72201 1.119809,0.36253 3.842336,0.56471 7.138767,-0.70414 3.688366,-1.422228 6.571866,-5.375183 5.72501,-8.686743 -0.846846,-3.360325 -6.44588,-4.468823 -11.743963,-2.593436 -3.14946,1.115471 -6.564868,2.87234 -9.021445,5.159059 -2.918494,2.718966 -3.380413,5.082369 -3.191446,6.072354 0.678882,3.513735 5.543039,5.800453 7.488707,7.494578 -0.09799,0.05577 -0.188971,0.104573 -0.265954,0.146406 -0.972834,0.481049 -4.682193,2.412209 -5.606032,4.454916 -1.049821,2.314606 0.167968,3.97387 0.972829,4.196966 2.498569,0.6902 5.067126,-0.550765 6.445889,-2.600444 1.378759,-2.049682 1.210792,-4.712871 0.573899,-5.93292 -0.0069,-0.01393 -0.014,-0.02787 -0.02798,-0.04185 0.251956,-0.146407 0.510911,-0.299786 0.762866,-0.446192 0.496916,-0.292809 0.986832,-0.564706 1.406757,-0.787801 -0.237957,0.648366 -0.412925,1.422228 -0.496912,2.537698 -0.104984,1.310682 0.433923,3.011774 1.140803,3.681063 0.314944,0.292808 0.685882,0.29978 0.923839,0.29978 0.825858,0 1.196792,-0.683227 1.609722,-1.491945 0.503914,-0.989981 0.958835,-2.140311 0.958835,-2.140311 0,0 -0.566904,3.10938 0.972834,3.10938 0.5599,0 1.126804,-0.725056 1.378759,-1.094559 0,0.0069 0,0.0069 0,0.0069 0,0 0.01399,-0.0209 0.04201,-0.06971 0.05599,-0.09063 0.09099,-0.146408 0.09099,-0.146408 0,0 0,-0.0069 0,-0.01393 0.223963,-0.390414 0.727873,-1.275821 1.476744,-2.746849 0.965835,-1.8963 1.896673,-4.26668 1.896673,-4.26668 0,0 0.08399,0.57865 0.370938,1.540746 0.167969,0.564705 0.51791,1.185188 0.797861,1.784754 -0.223962,0.313729 -0.363938,0.488019 -0.363938,0.488019 0,0 0,0 0.007,0.0069 -0.181967,0.237036 -0.377933,0.494993 -0.594897,0.745973 -0.762869,0.906319 -1.67271,1.945104 -1.798687,2.244885 -0.146975,0.355559 -0.111984,0.613511 0.167968,0.822662 0.202965,0.153379 0.566905,0.174295 0.937838,0.153379 0.685879,-0.04879 1.168797,-0.216118 1.406753,-0.320691 0.370938,-0.132462 0.804861,-0.334642 1.210791,-0.634426 0.748871,-0.550766 1.203791,-1.338567 1.1618,-2.377348 -0.02098,-0.571682 -0.209964,-1.143364 -0.440922,-1.680181 0.06999,-0.0976 0.132977,-0.195211 0.202965,-0.292813 1.182794,-1.722008 2.099638,-3.61134 2.099638,-3.61134 0,0 0.08398,0.57865 0.370934,1.540746 0.139976,0.488015 0.426928,1.017868 0.678883,1.533774 -1.11281,0.899346 -1.798688,1.945104 -2.043649,2.628332 -0.440921,1.268849 -0.09798,1.840526 0.552906,1.972988 0.29395,0.06275 0.713875,-0.07668 1.021825,-0.209151 0.391931,-0.12549 0.853849,-0.341609 1.294776,-0.662311 0.748872,-0.550762 1.469746,-1.31765 1.42775,-2.356436 -0.02099,-0.474076 -0.146971,-0.94118 -0.321943,-1.39434 0.944837,-0.390414 2.162625,-0.606537 3.716358,-0.42527 3.331426,0.390414 3.989311,2.461009 3.863333,3.332472 -0.125978,0.871462 -0.825858,1.345538 -1.05682,1.491945 -0.230957,0.146406 -0.307945,0.195207 -0.286947,0.299781 0.02798,0.153379 0.139976,0.146406 0.335942,0.118518 0.272953,-0.0488 1.749698,-0.70414 1.812686,-2.307631 0.10498,-2.049682 -1.854682,-4.287595 -5.31908,-4.266684 z m -25.699562,8.630969 c -1.105811,1.199132 -2.645545,1.652291 -3.310429,1.268849 -0.713875,-0.411331 -0.433923,-2.182145 0.923839,-3.450994 0.825858,-0.773857 1.889674,-1.491941 2.596554,-1.931161 0.160974,-0.0976 0.39893,-0.237035 0.685883,-0.41133 0.04899,-0.02787 0.07699,-0.04186 0.07699,-0.04186 v 0 c 0.05599,-0.03484 0.111979,-0.06971 0.167968,-0.104578 0.496916,1.812643 0.02099,3.409166 -1.140802,4.671043 z m 8.048612,-5.451872 c -0.384937,0.934208 -1.189797,3.325504 -1.67971,3.193042 -0.419928,-0.11155 -0.678883,-1.924193 -0.08399,-3.715918 0.300947,-0.899352 0.937839,-1.972994 1.308772,-2.391297 0.601896,-0.669283 1.266785,-0.892375 1.427754,-0.620478 0.202965,0.355554 -0.734872,2.949029 -0.972829,3.534651 z m 6.641849,3.165154 c -0.160969,0.08366 -0.314944,0.139434 -0.384931,0.0976 -0.04899,-0.02787 0.06999,-0.139429 0.06999,-0.139429 0,0 0.832852,-0.892379 1.161799,-1.296738 0.188966,-0.23704 0.412925,-0.515905 0.650886,-0.829634 0,0.02787 0,0.06274 0,0.09063 0,1.06667 -1.035823,1.784754 -1.497741,2.077568 z m 5.123115,-1.164277 c -0.118978,-0.08366 -0.09798,-0.362525 0.30095,-1.233988 0.153971,-0.341614 0.517909,-0.913295 1.140804,-1.464061 0.06999,0.223096 0.118978,0.43922 0.111978,0.641399 -0.0069,1.345539 -0.972829,1.847499 -1.553732,2.05665 z"
     id="path2-36" />
</svg>
