<?xml version="1.0" encoding="UTF-8" standalone="no"?>
<svg
   xmlns:dc="http://purl.org/dc/elements/1.1/"
   xmlns:cc="http://creativecommons.org/ns#"
   xmlns:rdf="http://www.w3.org/1999/02/22-rdf-syntax-ns#"
   xmlns:svg="http://www.w3.org/2000/svg"
   xmlns="http://www.w3.org/2000/svg"
   xmlns:sodipodi="http://sodipodi.sourceforge.net/DTD/sodipodi-0.dtd"
   xmlns:inkscape="http://www.inkscape.org/namespaces/inkscape"
   width="64"
   height="64"
   version="1"
   id="svg48"
   sodipodi:docname="text-x-java-source.svg"
   inkscape:version="0.92.4 (5da689c313, 2019-01-14)">
  <metadata
     id="metadata54">
    <rdf:RDF>
      <cc:Work
         rdf:about="">
        <dc:format>image/svg+xml</dc:format>
        <dc:type
           rdf:resource="http://purl.org/dc/dcmitype/StillImage" />
        <dc:title></dc:title>
      </cc:Work>
    </rdf:RDF>
  </metadata>
  <defs
     id="defs52" />
  <sodipodi:namedview
     pagecolor="#ffffff"
     bordercolor="#666666"
     borderopacity="1"
     objecttolerance="10"
     gridtolerance="10"
     guidetolerance="10"
     inkscape:pageopacity="0"
     inkscape:pageshadow="2"
     inkscape:window-width="1280"
     inkscape:window-height="954"
     id="namedview50"
     showgrid="false"
     inkscape:zoom="3.6875"
     inkscape:cx="27.254237"
     inkscape:cy="32"
     inkscape:window-x="0"
     inkscape:window-y="0"
     inkscape:window-maximized="1"
     inkscape:current-layer="svg48" />
  <g
     id="g3917"
     transform="translate(-2.036557,0.1779661)">
    <path
       inkscape:connector-curvature="0"
       id="path2"
       d="m 13.093553,2.5018279 c -1.657489,0 -2.991858,1.3343685 -2.991858,2.9918578 V 59.347125 c 0,1.657489 1.334369,2.991858 2.991858,2.991858 h 41.886008 c 1.65749,0 2.991858,-1.334369 2.991858,-2.991858 V 20.452974 L 41.516201,18.957045 40.020273,2.5018279 Z"
       style="opacity:0.2;stroke-width:1.19674313" />
    <path
       style="fill:#e74c3c;stroke-width:1.19674313"
       inkscape:connector-curvature="0"
       id="path4"
       d="m 13.093553,1.3050848 c -1.657489,0 -2.991858,1.3343686 -2.991858,2.9918577 V 58.150382 c 0,1.657489 1.334369,2.991858 2.991858,2.991858 h 41.886008 c 1.65749,0 2.991858,-1.334369 2.991858,-2.991858 V 19.256231 L 41.516201,17.760302 40.020273,1.3050848 Z" />
    <path
       inkscape:connector-curvature="0"
       id="path6"
       d="M 40.020273,2.5018279 V 17.461117 c 0,1.652462 1.339514,2.991857 2.991857,2.991857 h 14.959289 z"
       style="opacity:0.2;stroke-width:1.19674313" />
    <path
       style="fill:#f5877c;stroke-width:1.19674313"
       inkscape:connector-curvature="0"
       id="path8"
       d="M 40.020273,1.3050848 V 16.264373 c 0,1.652463 1.339514,2.991858 2.991857,2.991858 h 14.959289 z" />
    <g
       id="g26"
       transform="matrix(1.1967431,0,0,1.1967431,-4.2592223,-5.8751349)"
       style="opacity:0.2">
      <path
         inkscape:connector-curvature="0"
         id="path10"
         d="m 28.153,43.787 c 0,0 -0.829,0.511 0.59,0.683 1.719,0.209 2.598,0.179 4.491,-0.201 0,0 0.499,0.331 1.195,0.618 -4.247,1.929 -9.612,-0.112 -6.276,-1.1 z" />
      <path
         inkscape:connector-curvature="0"
         id="path12"
         d="m 27.633,41.269 c 0,0 -0.929,0.729 0.491,0.885 1.836,0.201 3.286,0.218 5.796,-0.295 0,0 0.347,0.373 0.892,0.577 -5.134,1.593 -10.853,0.126 -7.179,-1.167 z" />
      <path
         inkscape:connector-curvature="0"
         id="path14"
         d="m 32.008,36.997 c 1.047,1.277 -0.275,2.427 -0.275,2.427 0,0 2.657,-1.454 1.437,-3.276 -1.14,-1.698 -2.013,-2.541 2.718,-5.45 0,0 -7.427,1.966 -3.88,6.299 z" />
      <path
         inkscape:connector-curvature="0"
         id="path16"
         d="m 37.625,45.649 c 0,0 0.613,0.536 -0.676,0.951 -2.45,0.787 -10.202,1.024 -12.356,0.032 -0.773,-0.358 0.678,-0.853 1.135,-0.958 0.476,-0.109 0.748,-0.089 0.748,-0.089 -0.861,-0.642 -5.563,1.262 -2.389,1.809 8.659,1.488 15.784,-0.67 13.538,-1.745 z" />
      <path
         inkscape:connector-curvature="0"
         id="path18"
         d="m 28.551,38.66 c 0,0 -3.943,0.993 -1.396,1.354 1.076,0.152 3.218,0.117 5.216,-0.061 1.632,-0.145 3.269,-0.455 3.269,-0.455 0,0 -0.574,0.261 -0.991,0.563 -4.005,1.116 -11.737,0.596 -9.512,-0.546 1.882,-0.965 3.414,-0.855 3.414,-0.855 z" />
      <path
         inkscape:connector-curvature="0"
         id="path20"
         d="m 35.624,42.851 c 4.071,-2.242 2.188,-4.397 0.875,-4.107 -0.322,0.071 -0.466,0.133 -0.466,0.133 0,0 0.12,-0.199 0.348,-0.284 2.599,-0.968 4.597,2.856 -0.838,4.371 0,0 0.062,-0.06 0.081,-0.113 z" />
      <path
         inkscape:connector-curvature="0"
         id="path22"
         d="m 33.171,26 c 0,0 2.253,2.39 -2.139,6.066 -3.522,2.949 -0.803,4.63 -0.001,6.552 C 28.975,36.651 27.467,34.92 28.478,33.309 29.964,30.944 34.08,29.797 33.171,26 Z" />
      <path
         inkscape:connector-curvature="0"
         id="path24"
         d="m 28.951,48.928 c 3.906,0.264 9.907,-0.148 10.049,-2.107 0,0 -0.273,0.742 -3.229,1.332 -3.334,0.666 -7.448,0.588 -9.887,0.161 0,0 0.5,0.438 3.067,0.614 z" />
    </g>
    <path
       inkscape:connector-curvature="0"
       id="path28"
       d="m 13.093553,1.3050848 c -1.657489,0 -2.991858,1.3343686 -2.991858,2.9918577 v 1.1967432 c 0,-1.6574893 1.334369,-2.9918578 2.991858,-2.9918578 h 26.92672 c 0,-1.1967431 0,0 0,-1.1967431 z"
       style="opacity:0.2;fill:#ffffff;stroke-width:1.19674313" />
    <g
       transform="matrix(1.1967431,0,0,1.1967431,-4.2592223,-7.0721169)"
       id="g46"
       style="fill:#ffffff">
      <path
         inkscape:connector-curvature="0"
         id="path30"
         d="m 28.153,43.787 c 0,0 -0.829,0.511 0.59,0.683 1.719,0.209 2.598,0.179 4.491,-0.201 0,0 0.499,0.331 1.195,0.618 -4.247,1.929 -9.612,-0.112 -6.276,-1.1 z" />
      <path
         inkscape:connector-curvature="0"
         id="path32"
         d="m 27.633,41.269 c 0,0 -0.929,0.729 0.491,0.885 1.836,0.201 3.286,0.218 5.796,-0.295 0,0 0.347,0.373 0.892,0.577 -5.134,1.593 -10.853,0.126 -7.179,-1.167 z" />
      <path
         inkscape:connector-curvature="0"
         id="path34"
         d="m 32.008,36.997 c 1.047,1.277 -0.275,2.427 -0.275,2.427 0,0 2.657,-1.454 1.437,-3.276 -1.14,-1.698 -2.013,-2.541 2.718,-5.45 0,0 -7.427,1.966 -3.88,6.299 z" />
      <path
         inkscape:connector-curvature="0"
         id="path36"
         d="m 37.625,45.649 c 0,0 0.613,0.536 -0.676,0.951 -2.45,0.787 -10.202,1.024 -12.356,0.032 -0.773,-0.358 0.678,-0.853 1.135,-0.958 0.476,-0.109 0.748,-0.089 0.748,-0.089 -0.861,-0.642 -5.563,1.262 -2.389,1.809 8.659,1.488 15.784,-0.67 13.538,-1.745 z" />
      <path
         inkscape:connector-curvature="0"
         id="path38"
         d="m 28.551,38.66 c 0,0 -3.943,0.993 -1.396,1.354 1.076,0.152 3.218,0.117 5.216,-0.061 1.632,-0.145 3.269,-0.455 3.269,-0.455 0,0 -0.574,0.261 -0.991,0.563 -4.005,1.116 -11.737,0.596 -9.512,-0.546 1.882,-0.965 3.414,-0.855 3.414,-0.855 z" />
      <path
         inkscape:connector-curvature="0"
         id="path40"
         d="m 35.624,42.851 c 4.071,-2.242 2.188,-4.397 0.875,-4.107 -0.322,0.071 -0.466,0.133 -0.466,0.133 0,0 0.12,-0.199 0.348,-0.284 2.599,-0.968 4.597,2.856 -0.838,4.371 0,0 0.062,-0.06 0.081,-0.113 z" />
      <path
         inkscape:connector-curvature="0"
         id="path42"
         d="m 33.171,26 c 0,0 2.253,2.39 -2.139,6.066 -3.522,2.949 -0.803,4.63 -0.001,6.552 C 28.975,36.651 27.467,34.92 28.478,33.309 29.964,30.944 34.08,29.797 33.171,26 Z" />
      <path
         inkscape:connector-curvature="0"
         id="path44"
         d="m 28.951,48.928 c 3.906,0.264 9.907,-0.148 10.049,-2.107 0,0 -0.273,0.742 -3.229,1.332 -3.334,0.666 -7.448,0.588 -9.887,0.161 0,0 0.5,0.438 3.067,0.614 z" />
    </g>
  </g>
</svg>
